<svg xmlns="http://www.w3.org/2000/svg" width="52" height="52" version="1.2"><defs><clipPath id="cp1" clipPathUnits="userSpaceOnUse"><path d="M0 0h52v52H0z"/></clipPath></defs><style>.a{fill:#2b2b2b}</style><g clip-path="url(#cp1)"><path fill-rule="evenodd" d="M42.3 35.7c0 3.6-3 6.6-6.6 6.6H16.3c-3.6 0-6.6-3-6.6-6.6V16.3c0-3.6 3-6.6 6.6-6.6h19.4c3.6 0 6.6 3 6.6 6.6zM30.8 21.2v9.7c0 1 .8 1.8 1.9 1.8 1 0 1.8-.8 1.8-1.8v-9.7c0-1-.8-1.8-1.8-1.8-1.1 0-1.9.8-1.9 1.8m-2.4 9.7v-7.3c0-2.3-1.9-4.2-4.2-4.2h-2.4c-2.4 0-4.3 1.9-4.3 4.2v7.3c0 1 .8 1.8 1.8 1.8s1.9-.8 1.9-1.8v-1.8h3.6v1.8c0 1 .8 1.8 1.8 1.8s1.8-.8 1.8-1.8m-7.2-7.3c0-.3.2-.6.6-.6h2.4c.3 0 .6.3.6.6v1.8h-3.6z" class="a"/><path fill-rule="evenodd" d="M40.5 27.8h9.7c1 0 1.8-.8 1.8-1.8s-.8-1.8-1.8-1.8h-9.7c-1 0-1.8.8-1.8 1.8s.8 1.8 1.8 1.8M27.8 11.5V1.8C27.8.8 27 0 26 0s-1.8.8-1.8 1.8v9.7c0 1 .8 1.8 1.8 1.8s1.8-.8 1.8-1.8M24.2 40.5v9.7c0 1 .8 1.8 1.8 1.8s1.8-.8 1.8-1.8v-9.7c0-1-.8-1.8-1.8-1.8s-1.8.8-1.8 1.8M11.5 24.2H1.8C.8 24.2 0 25 0 26s.8 1.8 1.8 1.8h9.7c1 0 1.8-.8 1.8-1.8s-.8-1.8-1.8-1.8M40.5 20.6h6.1c1 0 1.8-.9 1.8-1.9s-.8-1.8-1.8-1.8h-6.1c-1 0-1.8.8-1.8 1.8s.8 1.9 1.8 1.9M20.6 11.5V5.4c0-1-.9-1.8-1.9-1.8s-1.8.8-1.8 1.8v6.1c0 1 .8 1.8 1.8 1.8s1.9-.8 1.9-1.8M16.9 40.5v6.1c0 1 .8 1.8 1.8 1.8s1.9-.8 1.9-1.8v-6.1c0-1-.9-1.8-1.9-1.8s-1.8.8-1.8 1.8M11.5 16.9H5.4c-1 0-1.8.8-1.8 1.8s.8 1.9 1.8 1.9h6.1c1 0 1.8-.9 1.8-1.9s-.8-1.8-1.8-1.8M40.5 35.1h6.1c1 0 1.8-.8 1.8-1.8s-.8-1.9-1.8-1.9h-6.1c-1 0-1.8.9-1.8 1.9s.8 1.8 1.8 1.8M35.1 11.5V5.4c0-1-.8-1.8-1.8-1.8s-1.9.8-1.9 1.8v6.1c0 1 .9 1.8 1.9 1.8s1.8-.8 1.8-1.8M31.4 40.5v6.1c0 1 .9 1.8 1.9 1.8s1.8-.8 1.8-1.8v-6.1c0-1-.8-1.8-1.8-1.8s-1.9.8-1.9 1.8M11.5 31.4H5.4c-1 0-1.8.9-1.8 1.9s.8 1.8 1.8 1.8h6.1c1 0 1.8-.8 1.8-1.8s-.8-1.9-1.8-1.9" class="a"/></g></svg>