<svg xmlns="http://www.w3.org/2000/svg" width="52" height="52" fill="none"><g clip-path="url(#a)"><path fill="#2B2B2B" fill-rule="evenodd" d="M42.868 7.355c-9.807-9.807-25.707-9.807-35.513 0-9.807 9.807-9.807 25.706 0 35.512 9.395 9.395 24.38 9.79 34.245 1.185l7.441 7.44a1.733 1.733 0 0 0 2.451-2.451l-7.44-7.44c8.605-9.865 8.21-24.851-1.184-34.246M25.133 10.4c.81 0 1.511.56 1.69 1.349l1.441 6.336a5.2 5.2 0 0 0 3.918 3.917l6.336 1.441a1.733 1.733 0 0 1 0 3.38l-6.336 1.441a5.2 5.2 0 0 0-3.918 3.918l-1.44 6.336a1.733 1.733 0 0 1-3.38 0l-1.442-6.336a5.2 5.2 0 0 0-3.917-3.918l-6.336-1.44a1.733 1.733 0 0 1 0-3.38l6.336-1.442a5.2 5.2 0 0 0 3.917-3.917l1.441-6.336c.18-.789.881-1.349 1.69-1.349" clip-rule="evenodd"/></g><defs><clipPath id="a"><path fill="#fff" d="M0 0h52v52H0z"/></clipPath></defs></svg>