<svg xmlns="http://www.w3.org/2000/svg" width="32" height="32" fill="none"><g fill="#2B2B2B" clip-path="url(#a)"><path d="M16 18.813a2.823 2.823 0 0 0 2.818-2.82 2.822 2.822 0 0 0-2.812-2.819c-.938.001-1.769.463-2.281 1.176a2.82 2.82 0 0 0-.532 1.644A2.81 2.81 0 0 0 16 18.813M22.15 12.556V9.844h-.35l-2.363.006.013 2.713z"/><path d="M20.375 16A4.38 4.38 0 0 1 16 20.375 4.38 4.38 0 0 1 11.625 16c0-.581.119-1.137.325-1.644H9.563v6.55c0 .844.687 1.532 1.53 1.532h9.813c.844 0 1.532-.688 1.532-1.532v-6.55H20.05c.212.507.325 1.063.325 1.644"/><path d="M16 0C7.163 0 0 7.163 0 16s7.163 16 16 16 16-7.163 16-16S24.837 0 16 0m8 14.356v6.55A3.097 3.097 0 0 1 20.906 24h-9.812A3.097 3.097 0 0 1 8 20.906v-9.818a3.097 3.097 0 0 1 3.094-3.094h9.812A3.097 3.097 0 0 1 24 11.088z"/></g><defs><clipPath id="a"><path fill="#fff" d="M0 0h32v32H0z"/></clipPath></defs></svg>