<?xml version="1.0" encoding="UTF-8"?>
<svg xmlns="http://www.w3.org/2000/svg" xmlns:xlink="http://www.w3.org/1999/xlink" width="40px" height="40px" viewBox="0 0 40 40" version="1.1">
<defs>
<linearGradient id="linear0" gradientUnits="userSpaceOnUse" x1="0" y1="0.5" x2="1" y2="0.5" gradientTransform="matrix(19.019531,0,0,25.652344,7.238281,0)">
<stop offset="0" style="stop-color:rgb(82.352941%,33.333333%,20.784314%);stop-opacity:1;"/>
<stop offset="1" style="stop-color:rgb(87.843137%,54.509804%,12.54902%);stop-opacity:1;"/>
</linearGradient>
<linearGradient id="linear1" gradientUnits="userSpaceOnUse" x1="-0.002" y1="0.501" x2="1.262" y2="0.501" gradientTransform="matrix(11.59375,0,0,13.226562,20.667969,7.40625)">
<stop offset="0" style="stop-color:rgb(82.352941%,33.333333%,20.784314%);stop-opacity:1;"/>
<stop offset="1" style="stop-color:rgb(87.843137%,54.509804%,12.54902%);stop-opacity:1;"/>
</linearGradient>
<linearGradient id="linear2" gradientUnits="userSpaceOnUse" x1="-1.783" y1="0.501" x2="4.504" y2="0.501" gradientTransform="matrix(2.316406,0,0,5.476563,24.804688,12.851563)">
<stop offset="0" style="stop-color:rgb(82.352941%,33.333333%,20.784314%);stop-opacity:1;"/>
<stop offset="1" style="stop-color:rgb(87.843137%,54.509804%,12.54902%);stop-opacity:1;"/>
</linearGradient>
<linearGradient id="linear3" gradientUnits="userSpaceOnUse" x1="-3.306" y1="0.499" x2="2.959" y2="0.499" gradientTransform="matrix(2.289063,0,0,5.484375,28.429688,12.855469)">
<stop offset="0" style="stop-color:rgb(82.352941%,33.333333%,20.784314%);stop-opacity:1;"/>
<stop offset="1" style="stop-color:rgb(87.843137%,54.509804%,12.54902%);stop-opacity:1;"/>
</linearGradient>
</defs>
<g id="surface1">
<path style=" stroke:none;fill-rule:nonzero;fill:url(#linear0);" d="M 25.875 6.652344 C 26.085938 6.652344 26.257812 6.496094 26.257812 6.304688 L 26.257812 3.6875 C 26.257812 1.617188 22.085938 0 16.746094 0 C 11.410156 0 7.238281 1.617188 7.238281 3.6875 L 7.238281 21.964844 C 7.238281 24.035156 11.410156 25.652344 16.746094 25.652344 C 22.082031 25.652344 26.257812 24.035156 26.257812 21.964844 L 26.257812 21.527344 C 26.257812 21.335938 26.085938 21.179688 25.875 21.179688 C 25.664062 21.179688 25.496094 21.335938 25.496094 21.527344 L 25.496094 21.964844 C 25.496094 23.410156 21.980469 24.953125 16.753906 24.953125 C 11.53125 24.953125 8.007812 23.410156 8.007812 21.964844 L 8.007812 17.636719 C 9.457031 18.945312 12.78125 19.84375 16.746094 19.84375 C 17.414062 19.84375 18.089844 19.8125 18.742188 19.765625 C 18.957031 19.746094 19.113281 19.574219 19.09375 19.382812 C 19.074219 19.191406 18.882812 19.046875 18.671875 19.066406 C 18.042969 19.117188 17.398438 19.144531 16.746094 19.144531 C 11.523438 19.144531 8.007812 17.597656 8.007812 16.15625 L 8.007812 11.589844 C 9.457031 12.898438 12.78125 13.796875 16.746094 13.796875 C 17.421875 13.796875 18.089844 13.769531 18.742188 13.71875 C 18.957031 13.699219 19.113281 13.53125 19.09375 13.335938 C 19.074219 13.144531 18.882812 13.003906 18.671875 13.019531 C 18.042969 13.070312 17.390625 13.097656 16.738281 13.097656 C 11.515625 13.097656 8 11.554688 8 10.109375 L 8 5.167969 C 9.449219 6.476562 12.773438 7.375 16.738281 7.375 C 20.707031 7.375 24.039062 6.476562 25.480469 5.167969 L 25.480469 6.304688 C 25.488281 6.496094 25.664062 6.648438 25.875 6.652344 Z M 16.746094 6.679688 C 11.523438 6.679688 8.007812 5.132812 8.007812 3.6875 C 8.007812 2.242188 11.523438 0.699219 16.746094 0.699219 C 21.972656 0.699219 25.488281 2.242188 25.488281 3.6875 C 25.488281 5.132812 21.972656 6.679688 16.746094 6.679688 Z M 16.746094 6.679688 "/>
<path style=" stroke:none;fill-rule:nonzero;fill:url(#linear1);" d="M 32.261719 11.769531 C 32.230469 11.675781 32.222656 11.667969 32.214844 11.664062 L 30.214844 9.835938 L 27.636719 7.507812 C 27.566406 7.441406 27.46875 7.40625 27.367188 7.40625 L 21.050781 7.40625 C 20.839844 7.40625 20.667969 7.5625 20.667969 7.75 L 20.667969 17.976562 C 20.667969 18.164062 20.839844 18.320312 21.050781 18.320312 L 21.949219 18.320312 L 21.949219 19.132812 C 21.949219 19.320312 22.121094 19.476562 22.332031 19.476562 L 23.230469 19.476562 L 23.230469 20.289062 C 23.230469 20.480469 23.398438 20.632812 23.609375 20.632812 L 31.875 20.632812 C 32.085938 20.632812 32.253906 20.480469 32.253906 20.289062 L 32.253906 11.835938 C 32.269531 11.8125 32.261719 11.789062 32.261719 11.769531 Z M 30.324219 10.921875 L 30.953125 11.488281 L 30.324219 11.488281 Z M 21.441406 17.628906 L 21.441406 8.101562 L 27.207031 8.101562 L 27.722656 8.570312 L 22.339844 8.570312 C 22.128906 8.570312 21.957031 8.726562 21.957031 8.914062 L 21.957031 17.628906 Z M 22.730469 18.792969 L 22.730469 9.269531 L 28.496094 9.269531 L 29.011719 9.734375 L 23.628906 9.734375 C 23.417969 9.734375 23.246094 9.890625 23.246094 10.082031 L 23.246094 18.792969 Z M 24.007812 19.960938 L 24.007812 10.425781 L 29.550781 10.425781 L 29.550781 11.835938 C 29.550781 12.023438 29.722656 12.179688 29.933594 12.179688 L 31.492188 12.179688 L 31.492188 19.953125 L 24.007812 19.953125 Z M 24.007812 19.960938 "/>
<path style=" stroke:none;fill-rule:nonzero;fill:url(#linear2);" d="M 26.933594 13.460938 C 27.121094 13.367188 27.1875 13.15625 27.085938 12.988281 C 26.980469 12.820312 26.746094 12.757812 26.558594 12.851562 C 26.015625 13.171875 25.695312 13.730469 25.726562 14.316406 C 25.726562 15.140625 25.273438 15.203125 25.128906 15.222656 C 24.941406 15.25 24.804688 15.398438 24.804688 15.570312 C 24.804688 15.742188 24.941406 15.886719 25.128906 15.914062 C 25.28125 15.933594 25.726562 16 25.726562 16.820312 C 25.691406 17.40625 26.011719 17.964844 26.5625 18.285156 C 26.621094 18.3125 26.683594 18.328125 26.75 18.328125 C 26.890625 18.328125 27.019531 18.257812 27.085938 18.148438 C 27.136719 18.066406 27.148438 17.972656 27.121094 17.882812 C 27.089844 17.792969 27.023438 17.71875 26.933594 17.671875 C 26.632812 17.476562 26.46875 17.152344 26.496094 16.816406 C 26.535156 16.359375 26.363281 15.90625 26.019531 15.566406 C 26.363281 15.226562 26.535156 14.773438 26.496094 14.316406 C 26.472656 13.980469 26.636719 13.660156 26.933594 13.460938 Z M 26.933594 13.460938 "/>
<path style=" stroke:none;fill-rule:nonzero;fill:url(#linear3);" d="M 30.386719 15.226562 C 30.234375 15.207031 29.789062 15.140625 29.789062 14.320312 C 29.820312 13.734375 29.503906 13.171875 28.953125 12.855469 C 28.765625 12.761719 28.53125 12.824219 28.429688 12.992188 C 28.324219 13.160156 28.394531 13.371094 28.578125 13.464844 C 28.878906 13.664062 29.046875 13.988281 29.019531 14.320312 C 28.980469 14.78125 29.152344 15.230469 29.496094 15.574219 C 29.152344 15.910156 28.976562 16.363281 29.019531 16.824219 C 29.039062 17.160156 28.875 17.484375 28.578125 17.6875 C 28.394531 17.78125 28.332031 17.996094 28.4375 18.160156 C 28.503906 18.273438 28.632812 18.339844 28.769531 18.339844 C 28.835938 18.339844 28.902344 18.324219 28.960938 18.296875 C 29.507812 17.976562 29.824219 17.417969 29.796875 16.832031 C 29.796875 16.007812 30.25 15.945312 30.394531 15.925781 C 30.582031 15.898438 30.71875 15.75 30.71875 15.578125 C 30.714844 15.40625 30.574219 15.261719 30.386719 15.226562 Z M 30.386719 15.226562 "/>
<path style=" stroke:none;fill-rule:nonzero;fill:rgb(0%,0%,0%);fill-opacity:1;" d="M 10.742188 32.820312 L 10.289062 31.683594 L 8.566406 31.683594 L 8.121094 32.820312 L 7.339844 32.820312 L 9.035156 28.714844 L 9.835938 28.714844 L 11.53125 32.820312 Z M 10.089844 31.109375 L 9.667969 29.996094 C 9.636719 29.921875 9.597656 29.800781 9.539062 29.644531 C 9.484375 29.484375 9.445312 29.363281 9.429688 29.289062 C 9.367188 29.546875 9.28125 29.800781 9.183594 30.046875 L 8.777344 31.109375 Z M 10.089844 31.109375 "/>
<path style=" stroke:none;fill-rule:nonzero;fill:rgb(0%,0%,0%);fill-opacity:1;" d="M 14.925781 32.820312 L 14.195312 32.820312 L 14.195312 30.914062 C 14.210938 30.726562 14.15625 30.542969 14.042969 30.382812 C 13.929688 30.261719 13.757812 30.199219 13.582031 30.210938 C 13.34375 30.195312 13.109375 30.285156 12.960938 30.457031 C 12.808594 30.707031 12.738281 30.992188 12.761719 31.277344 L 12.761719 32.824219 L 12.039062 32.824219 L 12.039062 29.726562 L 12.613281 29.726562 L 12.714844 30.128906 L 12.753906 30.128906 C 12.851562 29.980469 12.996094 29.863281 13.167969 29.792969 C 13.355469 29.710938 13.558594 29.667969 13.765625 29.667969 C 14.191406 29.621094 14.605469 29.816406 14.808594 30.15625 L 14.855469 30.15625 C 14.960938 30.003906 15.109375 29.878906 15.285156 29.796875 C 15.480469 29.710938 15.695312 29.664062 15.914062 29.667969 C 16.242188 29.640625 16.566406 29.746094 16.804688 29.949219 C 17.011719 30.195312 17.109375 30.5 17.082031 30.804688 L 17.082031 32.816406 L 16.359375 32.816406 L 16.359375 30.914062 C 16.375 30.726562 16.320312 30.542969 16.207031 30.382812 C 16.089844 30.261719 15.917969 30.199219 15.738281 30.210938 C 15.5 30.195312 15.269531 30.28125 15.117188 30.449219 C 14.96875 30.667969 14.902344 30.925781 14.921875 31.179688 L 14.921875 32.820312 Z M 14.925781 32.820312 "/>
<path style=" stroke:none;fill-rule:nonzero;fill:rgb(0%,0%,0%);fill-opacity:1;" d="M 20.238281 32.820312 L 20.09375 32.390625 L 20.070312 32.390625 C 19.941406 32.550781 19.769531 32.683594 19.570312 32.773438 C 19.363281 32.84375 19.144531 32.878906 18.925781 32.875 C 18.636719 32.890625 18.355469 32.800781 18.136719 32.628906 C 17.9375 32.445312 17.835938 32.191406 17.851562 31.933594 C 17.832031 31.648438 17.980469 31.375 18.242188 31.214844 C 18.605469 31.023438 19.015625 30.933594 19.433594 30.945312 L 20.023438 30.933594 L 20.023438 30.769531 C 20.035156 30.609375 19.984375 30.449219 19.871094 30.320312 C 19.742188 30.214844 19.570312 30.164062 19.394531 30.179688 C 19.226562 30.175781 19.054688 30.199219 18.894531 30.25 C 18.734375 30.292969 18.582031 30.347656 18.433594 30.414062 L 18.195312 29.949219 C 18.386719 29.859375 18.59375 29.792969 18.804688 29.746094 C 19.011719 29.703125 19.222656 29.679688 19.433594 29.675781 C 19.785156 29.652344 20.136719 29.742188 20.421875 29.933594 C 20.660156 30.140625 20.78125 30.4375 20.753906 30.738281 L 20.753906 32.824219 Z M 19.15625 32.375 C 19.390625 32.386719 19.617188 32.3125 19.792969 32.171875 C 19.957031 32.027344 20.042969 31.820312 20.03125 31.613281 L 20.03125 31.347656 L 19.59375 31.363281 C 19.335938 31.355469 19.078125 31.410156 18.847656 31.519531 C 18.691406 31.613281 18.601562 31.773438 18.617188 31.945312 C 18.609375 32.0625 18.660156 32.175781 18.75 32.261719 C 18.863281 32.347656 19.011719 32.386719 19.15625 32.375 Z M 19.15625 32.375 "/>
<path style=" stroke:none;fill-rule:nonzero;fill:rgb(0%,0%,0%);fill-opacity:1;" d="M 24.054688 32.820312 L 21.464844 32.820312 L 21.464844 32.417969 L 23.1875 30.230469 L 21.566406 30.230469 L 21.566406 29.730469 L 24.007812 29.730469 L 24.007812 30.191406 L 22.316406 32.316406 L 24.054688 32.316406 Z M 24.054688 32.820312 "/>
<path style=" stroke:none;fill-rule:nonzero;fill:rgb(0%,0%,0%);fill-opacity:1;" d="M 27.832031 31.269531 C 27.863281 31.695312 27.707031 32.117188 27.402344 32.445312 C 27.09375 32.738281 26.65625 32.894531 26.210938 32.871094 C 25.914062 32.875 25.621094 32.808594 25.363281 32.675781 C 25.113281 32.546875 24.917969 32.351562 24.796875 32.117188 C 24.65625 31.851562 24.589844 31.5625 24.597656 31.269531 C 24.570312 30.84375 24.722656 30.421875 25.027344 30.097656 C 25.339844 29.804688 25.777344 29.648438 26.226562 29.671875 C 26.671875 29.652344 27.101562 29.8125 27.40625 30.105469 C 27.703125 30.429688 27.855469 30.84375 27.832031 31.269531 Z M 25.34375 31.269531 C 25.34375 31.980469 25.636719 32.339844 26.21875 32.339844 C 26.796875 32.339844 27.085938 31.980469 27.085938 31.269531 C 27.085938 30.554688 26.789062 30.210938 26.210938 30.210938 C 25.953125 30.191406 25.703125 30.296875 25.550781 30.484375 C 25.394531 30.722656 25.324219 30.992188 25.34375 31.269531 Z M 25.34375 31.269531 "/>
<path style=" stroke:none;fill-rule:nonzero;fill:rgb(0%,0%,0%);fill-opacity:1;" d="M 31.675781 32.820312 L 30.941406 32.820312 L 30.941406 30.921875 C 30.957031 30.734375 30.902344 30.546875 30.785156 30.390625 C 30.652344 30.265625 30.464844 30.199219 30.273438 30.210938 C 30.019531 30.191406 29.769531 30.28125 29.597656 30.457031 C 29.429688 30.703125 29.355469 30.992188 29.382812 31.28125 L 29.382812 32.820312 L 28.660156 32.820312 L 28.660156 29.726562 L 29.234375 29.726562 L 29.335938 30.128906 L 29.375 30.128906 C 29.484375 29.980469 29.636719 29.863281 29.8125 29.792969 C 30.011719 29.710938 30.226562 29.667969 30.441406 29.667969 C 30.785156 29.625 31.128906 29.734375 31.371094 29.953125 C 31.613281 30.175781 31.726562 30.488281 31.675781 30.796875 Z M 31.675781 32.820312 "/>
<path style=" stroke:none;fill-rule:nonzero;fill:rgb(0%,0%,0%);fill-opacity:1;" d="M 3.675781 37.609375 C 3.71875 38.179688 3.492188 38.742188 3.054688 39.15625 C 2.558594 39.539062 1.914062 39.730469 1.265625 39.6875 L 0 39.6875 L 0 35.601562 L 1.398438 35.601562 C 2.015625 35.570312 2.617188 35.757812 3.078125 36.128906 C 3.496094 36.527344 3.710938 37.0625 3.675781 37.609375 Z M 2.894531 37.628906 C 2.894531 36.652344 2.386719 36.164062 1.375 36.164062 L 0.738281 36.164062 L 0.738281 39.125 L 1.265625 39.125 C 1.71875 39.183594 2.171875 39.042969 2.492188 38.746094 C 2.816406 38.453125 2.964844 38.039062 2.894531 37.628906 Z M 2.894531 37.628906 "/>
<path style=" stroke:none;fill-rule:nonzero;fill:rgb(0%,0%,0%);fill-opacity:1;" d="M 7.601562 38.140625 C 7.632812 38.570312 7.476562 38.992188 7.171875 39.320312 C 6.863281 39.613281 6.425781 39.765625 5.980469 39.746094 C 5.683594 39.75 5.390625 39.683594 5.132812 39.550781 C 4.882812 39.421875 4.6875 39.226562 4.566406 38.988281 C 4.425781 38.726562 4.359375 38.433594 4.367188 38.140625 C 4.339844 37.714844 4.492188 37.296875 4.796875 36.96875 C 5.109375 36.679688 5.550781 36.523438 6 36.546875 C 6.441406 36.527344 6.871094 36.683594 7.175781 36.976562 C 7.476562 37.300781 7.628906 37.71875 7.601562 38.140625 Z M 5.113281 38.140625 C 5.113281 38.855469 5.40625 39.210938 5.988281 39.210938 C 6.570312 39.210938 6.855469 38.851562 6.855469 38.140625 C 6.855469 37.429688 6.5625 37.085938 5.980469 37.085938 C 5.722656 37.066406 5.472656 37.167969 5.320312 37.359375 C 5.164062 37.59375 5.089844 37.867188 5.113281 38.140625 Z M 5.113281 38.140625 "/>
<path style=" stroke:none;fill-rule:nonzero;fill:rgb(0%,0%,0%);fill-opacity:1;" d="M 9.8125 39.746094 C 9.371094 39.773438 8.941406 39.621094 8.636719 39.335938 C 8.34375 39.003906 8.199219 38.585938 8.230469 38.164062 C 8.199219 37.730469 8.351562 37.300781 8.65625 36.960938 C 8.972656 36.667969 9.417969 36.515625 9.871094 36.546875 C 10.207031 36.539062 10.535156 36.601562 10.839844 36.726562 L 10.617188 37.25 C 10.378906 37.15625 10.117188 37.097656 9.855469 37.085938 C 9.265625 37.085938 8.964844 37.4375 8.964844 38.148438 C 8.941406 38.425781 9.019531 38.699219 9.1875 38.933594 C 9.34375 39.109375 9.582031 39.203125 9.832031 39.191406 C 10.152344 39.191406 10.464844 39.117188 10.746094 38.976562 L 10.746094 39.550781 C 10.617188 39.621094 10.476562 39.671875 10.332031 39.703125 C 10.160156 39.734375 9.988281 39.75 9.8125 39.746094 Z M 9.8125 39.746094 "/>
<path style=" stroke:none;fill-rule:nonzero;fill:rgb(0%,0%,0%);fill-opacity:1;" d="M 13.980469 39.6875 L 13.875 39.285156 L 13.835938 39.285156 C 13.730469 39.429688 13.582031 39.546875 13.40625 39.621094 C 13.207031 39.707031 12.988281 39.746094 12.769531 39.746094 C 12.429688 39.789062 12.082031 39.683594 11.839844 39.460938 C 11.597656 39.238281 11.484375 38.925781 11.539062 38.617188 L 11.539062 36.59375 L 12.269531 36.59375 L 12.269531 38.5 C 12.253906 38.6875 12.308594 38.875 12.429688 39.03125 C 12.554688 39.160156 12.742188 39.222656 12.929688 39.210938 C 13.183594 39.230469 13.433594 39.140625 13.605469 38.96875 C 13.773438 38.71875 13.847656 38.429688 13.820312 38.140625 L 13.820312 36.601562 L 14.550781 36.601562 L 14.550781 39.695312 L 13.976562 39.695312 Z M 13.980469 39.6875 "/>
<path style=" stroke:none;fill-rule:nonzero;fill:rgb(0%,0%,0%);fill-opacity:1;" d="M 18.464844 39.6875 L 17.734375 39.6875 L 17.734375 37.78125 C 17.75 37.59375 17.695312 37.40625 17.582031 37.25 C 17.46875 37.128906 17.296875 37.0625 17.121094 37.078125 C 16.882812 37.058594 16.648438 37.152344 16.5 37.320312 C 16.347656 37.570312 16.277344 37.859375 16.300781 38.144531 L 16.300781 39.683594 L 15.578125 39.683594 L 15.578125 36.585938 L 16.152344 36.585938 L 16.253906 36.988281 L 16.292969 36.988281 C 16.390625 36.839844 16.535156 36.722656 16.707031 36.652344 C 16.894531 36.570312 17.097656 36.527344 17.304688 36.527344 C 17.730469 36.480469 18.144531 36.675781 18.347656 37.015625 L 18.394531 37.015625 C 18.5 36.863281 18.648438 36.738281 18.824219 36.65625 C 19.019531 36.570312 19.234375 36.523438 19.453125 36.527344 C 19.78125 36.5 20.105469 36.601562 20.34375 36.808594 C 20.546875 37.054688 20.648438 37.359375 20.621094 37.664062 L 20.621094 39.675781 L 19.898438 39.675781 L 19.898438 37.777344 C 19.914062 37.589844 19.859375 37.40625 19.746094 37.246094 C 19.628906 37.125 19.457031 37.0625 19.277344 37.074219 C 19.039062 37.058594 18.808594 37.144531 18.65625 37.3125 C 18.507812 37.53125 18.441406 37.789062 18.457031 38.046875 L 18.457031 39.683594 Z M 18.464844 39.6875 "/>
<path style=" stroke:none;fill-rule:nonzero;fill:rgb(0%,0%,0%);fill-opacity:1;" d="M 23.132812 39.746094 C 22.671875 39.769531 22.21875 39.617188 21.886719 39.328125 C 21.570312 39.011719 21.40625 38.59375 21.429688 38.167969 C 21.402344 37.738281 21.550781 37.316406 21.84375 36.976562 C 22.136719 36.683594 22.554688 36.527344 22.988281 36.546875 C 23.390625 36.523438 23.78125 36.660156 24.0625 36.917969 C 24.335938 37.199219 24.476562 37.566406 24.453125 37.941406 L 24.453125 38.292969 L 22.179688 38.292969 C 22.167969 38.542969 22.265625 38.792969 22.449219 38.984375 C 22.636719 39.152344 22.898438 39.238281 23.164062 39.226562 C 23.355469 39.230469 23.542969 39.210938 23.730469 39.175781 C 23.921875 39.132812 24.113281 39.078125 24.292969 39.003906 L 24.292969 39.535156 C 24.121094 39.609375 23.941406 39.667969 23.753906 39.699219 C 23.546875 39.730469 23.339844 39.746094 23.132812 39.746094 Z M 23 37.042969 C 22.789062 37.03125 22.585938 37.105469 22.441406 37.242188 C 22.289062 37.402344 22.203125 37.605469 22.195312 37.816406 L 23.746094 37.816406 C 23.757812 37.605469 23.683594 37.402344 23.539062 37.234375 C 23.398438 37.101562 23.203125 37.03125 23 37.042969 Z M 23 37.042969 "/>
<path style=" stroke:none;fill-rule:nonzero;fill:rgb(0%,0%,0%);fill-opacity:1;" d="M 28.292969 39.6875 L 27.570312 39.6875 L 27.570312 37.789062 C 27.585938 37.601562 27.527344 37.414062 27.410156 37.257812 C 27.28125 37.128906 27.09375 37.0625 26.902344 37.078125 C 26.648438 37.054688 26.394531 37.148438 26.226562 37.320312 C 26.058594 37.570312 25.984375 37.859375 26.011719 38.148438 L 26.011719 39.6875 L 25.289062 39.6875 L 25.289062 36.59375 L 25.859375 36.59375 L 25.964844 36.996094 L 26.003906 36.996094 C 26.109375 36.847656 26.261719 36.730469 26.441406 36.65625 C 26.640625 36.574219 26.851562 36.535156 27.070312 36.535156 C 27.414062 36.492188 27.757812 36.597656 28 36.820312 C 28.242188 37.042969 28.355469 37.355469 28.304688 37.664062 L 28.304688 39.683594 Z M 28.292969 39.6875 "/>
<path style=" stroke:none;fill-rule:nonzero;fill:rgb(0%,0%,0%);fill-opacity:1;" d="M 30.585938 39.210938 C 30.765625 39.210938 30.945312 39.183594 31.117188 39.132812 L 31.117188 39.628906 C 31.015625 39.664062 30.914062 39.691406 30.808594 39.707031 C 30.675781 39.730469 30.542969 39.738281 30.410156 39.738281 C 29.71875 39.738281 29.375 39.410156 29.375 38.75 L 29.375 37.082031 L 28.90625 37.082031 L 28.90625 36.796875 L 29.40625 36.558594 L 29.65625 35.902344 L 30.101562 35.902344 L 30.101562 36.59375 L 31.070312 36.59375 L 31.070312 37.089844 L 30.101562 37.089844 L 30.101562 38.742188 C 30.085938 38.875 30.136719 39.003906 30.234375 39.097656 C 30.328125 39.175781 30.457031 39.21875 30.585938 39.210938 Z M 30.585938 39.210938 "/>
<path style=" stroke:none;fill-rule:nonzero;fill:rgb(0%,0%,0%);fill-opacity:1;" d="M 35.546875 37.609375 C 35.589844 38.179688 35.367188 38.742188 34.925781 39.15625 C 34.429688 39.539062 33.789062 39.730469 33.136719 39.6875 L 31.871094 39.6875 L 31.871094 35.601562 L 33.273438 35.601562 C 33.886719 35.570312 34.492188 35.757812 34.949219 36.128906 C 35.367188 36.527344 35.585938 37.0625 35.546875 37.609375 Z M 34.765625 37.628906 C 34.765625 36.652344 34.257812 36.164062 33.25 36.164062 L 32.613281 36.164062 L 32.613281 39.125 L 33.136719 39.125 C 33.589844 39.183594 34.046875 39.042969 34.367188 38.746094 C 34.6875 38.453125 34.835938 38.039062 34.765625 37.628906 Z M 34.765625 37.628906 "/>
<path style=" stroke:none;fill-rule:nonzero;fill:rgb(0%,0%,0%);fill-opacity:1;" d="M 36.515625 35.601562 L 37.859375 35.601562 C 38.328125 35.570312 38.796875 35.65625 39.210938 35.847656 C 39.496094 36.019531 39.652344 36.316406 39.625 36.625 C 39.632812 36.839844 39.558594 37.046875 39.417969 37.222656 C 39.273438 37.382812 39.0625 37.492188 38.832031 37.523438 L 38.832031 37.550781 C 39.097656 37.582031 39.347656 37.695312 39.53125 37.875 C 39.691406 38.058594 39.769531 38.289062 39.753906 38.523438 C 39.769531 38.855469 39.613281 39.171875 39.328125 39.386719 C 38.984375 39.609375 38.566406 39.71875 38.144531 39.695312 L 36.515625 39.695312 Z M 37.257812 37.292969 L 37.964844 37.292969 C 38.199219 37.308594 38.433594 37.261719 38.640625 37.164062 C 38.792969 37.054688 38.875 36.882812 38.855469 36.710938 C 38.867188 36.542969 38.78125 36.382812 38.625 36.292969 C 38.398438 36.191406 38.144531 36.148438 37.894531 36.164062 L 37.257812 36.164062 Z M 37.257812 37.832031 L 37.257812 39.125 L 38.042969 39.125 C 38.289062 39.140625 38.535156 39.085938 38.746094 38.96875 C 38.914062 38.84375 39.003906 38.652344 38.984375 38.457031 C 38.996094 38.273438 38.90625 38.09375 38.746094 37.984375 C 38.523438 37.863281 38.269531 37.8125 38.011719 37.832031 Z M 37.257812 37.832031 "/>
</g>
</svg>
