<?xml version="1.0" encoding="UTF-8"?>
<svg xmlns="http://www.w3.org/2000/svg" xmlns:xlink="http://www.w3.org/1999/xlink" width="40px" height="40px" viewBox="0 0 40 40" version="1.1">
<g id="surface1">
<path style=" stroke:none;fill-rule:nonzero;fill:rgb(17.647059%,44.705883%,71.764708%);fill-opacity:1;" d="M 15.40625 0 L 20.75 0 L 20.75 22.839844 C 20.75 23.027344 20.75 23.03125 20.53125 23.03125 L 15.40625 23.03125 L 15.40625 22.777344 C 15.40625 15.183594 15.40625 7.59375 15.40625 0 Z M 15.40625 0 "/>
<path style=" stroke:none;fill-rule:nonzero;fill:rgb(32.156864%,57.647061%,80.784315%);fill-opacity:1;" d="M 15.40625 23.035156 L 20.53125 23.035156 C 20.742188 23.035156 20.746094 23.035156 20.746094 22.84375 C 20.75 22.65625 20.746094 22.472656 20.746094 22.289062 L 20.746094 0.00390625 L 20.8125 0.00390625 C 20.945312 0.078125 21.085938 0.140625 21.230469 0.195312 C 22.328125 0.660156 23.429688 1.125 24.527344 1.585938 C 24.648438 1.621094 24.71875 1.722656 24.707031 1.828125 C 24.707031 2.554688 24.707031 3.28125 24.707031 4.011719 L 24.707031 21.230469 C 24.71875 21.335938 24.644531 21.4375 24.527344 21.472656 C 23.359375 21.960938 22.199219 22.453125 21.039062 22.945312 C 20.96875 22.96875 20.898438 23.003906 20.84375 23.046875 L 15.316406 23.046875 Z M 15.40625 23.035156 "/>
<path style=" stroke:none;fill-rule:nonzero;fill:rgb(12.54902%,35.686275%,59.215689%);fill-opacity:1;" d="M 15.40625 23.035156 L 15.316406 23.035156 C 14.09375 22.523438 12.871094 22 11.644531 21.488281 C 11.511719 21.449219 11.429688 21.335938 11.445312 21.21875 L 11.445312 4.007812 C 11.445312 3.300781 11.453125 2.59375 11.445312 1.886719 C 11.421875 1.742188 11.519531 1.605469 11.679688 1.554688 C 12.835938 1.078125 13.980469 0.589844 15.125 0.101562 C 15.199219 0.0742188 15.269531 0.0351562 15.339844 0 L 15.402344 0 L 15.402344 22.78125 C 15.40625 22.863281 15.40625 22.945312 15.40625 23.035156 Z M 15.40625 23.035156 "/>
<path style=" stroke:none;fill-rule:nonzero;fill:rgb(12.54902%,35.686275%,59.215689%);fill-opacity:1;" d="M 5.683594 18.921875 L 5.683594 4.09375 L 7.484375 3.328125 C 7.550781 3.292969 7.621094 3.269531 7.695312 3.253906 C 7.695312 8.753906 7.695312 14.253906 7.695312 19.75 C 7.265625 19.570312 6.835938 19.386719 6.402344 19.210938 C 6.167969 19.105469 5.929688 19.007812 5.683594 18.921875 Z M 5.683594 18.921875 "/>
<path style=" stroke:none;fill-rule:nonzero;fill:rgb(12.54902%,35.686275%,59.215689%);fill-opacity:1;" d="M 24.710938 18.980469 L 24.710938 4 L 27.105469 3.515625 C 27.546875 3.425781 27.988281 3.339844 28.433594 3.253906 L 28.433594 19.730469 C 27.964844 19.65625 27.507812 19.550781 27.042969 19.457031 Z M 24.710938 18.980469 "/>
<path style=" stroke:none;fill-rule:nonzero;fill:rgb(32.156864%,57.647061%,80.784315%);fill-opacity:1;" d="M 28.421875 19.730469 L 28.421875 3.253906 C 28.496094 3.253906 28.566406 3.269531 28.625 3.304688 C 29.183594 3.542969 29.738281 3.78125 30.300781 4.011719 C 30.414062 4.046875 30.484375 4.144531 30.46875 4.25 L 30.46875 18.699219 C 30.488281 18.832031 30.394531 18.957031 30.242188 19.003906 C 29.6875 19.226562 29.144531 19.464844 28.589844 19.695312 C 28.546875 19.71875 28.496094 19.773438 28.421875 19.730469 Z M 28.421875 19.730469 "/>
<path style=" stroke:none;fill-rule:nonzero;fill:rgb(12.54902%,10.980392%,11.372549%);fill-opacity:1;" d="M 40.023438 32.746094 C 39.933594 32.863281 39.769531 32.929688 39.605469 32.914062 C 39.285156 32.90625 38.96875 32.914062 38.648438 32.914062 C 38.328125 32.914062 38.277344 32.851562 38.277344 32.601562 L 38.277344 29.25 C 38.277344 29.046875 38.238281 28.847656 38.164062 28.652344 C 38.101562 28.441406 37.882812 28.285156 37.625 28.269531 C 37.339844 28.242188 37.070312 28.367188 36.941406 28.582031 C 36.757812 28.867188 36.664062 29.1875 36.667969 29.511719 C 36.660156 30.535156 36.667969 31.558594 36.667969 32.582031 C 36.667969 32.828125 36.597656 32.886719 36.308594 32.886719 L 35.222656 32.886719 C 35.011719 32.886719 34.917969 32.808594 34.917969 32.628906 L 34.917969 27.242188 C 34.917969 27.058594 35.011719 26.988281 35.230469 26.988281 L 36.25 26.988281 C 36.480469 26.988281 36.5625 27.0625 36.566406 27.253906 C 36.566406 27.449219 36.566406 27.640625 36.566406 27.847656 C 36.640625 27.777344 36.699219 27.691406 36.742188 27.601562 C 36.929688 27.269531 37.28125 27.019531 37.703125 26.921875 C 38.1875 26.78125 38.71875 26.832031 39.148438 27.058594 C 39.582031 27.289062 39.867188 27.671875 39.921875 28.097656 C 39.964844 28.285156 39.984375 28.472656 39.984375 28.664062 Z M 40.023438 32.746094 "/>
<path style=" stroke:none;fill-rule:nonzero;fill:rgb(0%,0%,0%);fill-opacity:1;" d="M 40.023438 35.527344 L 38.421875 35.527344 C 38.207031 35.527344 38.207031 35.527344 38.207031 35.703125 L 38.207031 39.875 C 38.207031 40.0625 38.207031 40.0625 37.988281 40.0625 L 37.53125 40.0625 C 37.414062 40.0625 37.382812 40.027344 37.382812 39.9375 L 37.382812 35.710938 C 37.382812 35.527344 37.382812 35.527344 37.171875 35.527344 L 35.722656 35.527344 C 35.597656 35.527344 35.550781 35.5 35.570312 35.398438 C 35.589844 35.253906 35.496094 35.066406 35.609375 34.972656 C 35.722656 34.878906 35.933594 34.949219 36.101562 34.945312 L 40.023438 34.945312 Z M 40.023438 35.527344 "/>
<path style=" stroke:none;fill-rule:nonzero;fill:rgb(12.54902%,10.980392%,11.372549%);fill-opacity:1;" d="M 8.507812 27.707031 C 8.8125 27.171875 9.46875 26.839844 10.175781 26.867188 C 10.882812 26.878906 11.503906 27.261719 11.734375 27.828125 C 11.8125 27.722656 11.871094 27.628906 11.9375 27.542969 C 12.238281 27.164062 12.722656 26.921875 13.257812 26.875 C 13.792969 26.824219 14.324219 26.980469 14.710938 27.296875 C 14.984375 27.527344 15.148438 27.835938 15.167969 28.160156 C 15.246094 28.910156 15.191406 29.660156 15.199219 30.410156 C 15.207031 31.160156 15.199219 31.882812 15.199219 32.621094 C 15.199219 32.820312 15.128906 32.878906 14.894531 32.878906 L 13.742188 32.878906 C 13.550781 32.878906 13.453125 32.800781 13.449219 32.644531 C 13.449219 31.628906 13.441406 30.613281 13.449219 29.597656 C 13.457031 29.308594 13.445312 29.019531 13.414062 28.730469 C 13.398438 28.566406 13.292969 28.417969 13.128906 28.328125 C 12.964844 28.242188 12.761719 28.222656 12.578125 28.277344 C 12.246094 28.34375 12.003906 28.578125 11.960938 28.863281 C 11.914062 29.074219 11.890625 29.289062 11.890625 29.507812 L 11.890625 32.566406 C 11.890625 32.824219 11.824219 32.875 11.523438 32.875 L 10.492188 32.875 C 10.226562 32.875 10.152344 32.8125 10.152344 32.589844 L 10.152344 29.40625 C 10.167969 29.175781 10.148438 28.941406 10.089844 28.714844 C 10.027344 28.46875 9.78125 28.28125 9.484375 28.257812 C 9.152344 28.230469 8.839844 28.394531 8.726562 28.660156 C 8.648438 28.84375 8.609375 29.035156 8.601562 29.226562 C 8.535156 30.371094 8.589844 31.511719 8.570312 32.660156 C 8.570312 32.820312 8.511719 32.875 8.3125 32.875 L 7.160156 32.875 C 6.921875 32.875 6.855469 32.824219 6.855469 32.621094 L 6.855469 27.234375 C 6.855469 27.015625 6.90625 26.980469 7.160156 26.980469 L 8.222656 26.980469 C 8.4375 26.980469 8.507812 27.042969 8.511719 27.21875 C 8.511719 27.398438 8.507812 27.546875 8.507812 27.707031 Z M 8.507812 27.707031 "/>
<path style=" stroke:none;fill-rule:nonzero;fill:rgb(12.54902%,10.980392%,11.372549%);fill-opacity:1;" d="M 21.660156 29.835938 C 21.660156 30.207031 21.671875 30.511719 21.660156 30.816406 C 21.652344 31.171875 21.804688 31.515625 22.085938 31.777344 C 22.15625 31.828125 22.191406 31.90625 22.183594 31.984375 C 22.171875 32.058594 22.121094 32.128906 22.042969 32.167969 C 21.796875 32.347656 21.550781 32.53125 21.3125 32.722656 C 21.035156 32.949219 20.9375 32.949219 20.660156 32.722656 C 20.5 32.601562 20.363281 32.464844 20.246094 32.3125 C 20.179688 32.21875 20.128906 32.210938 20.039062 32.296875 C 19.613281 32.683594 19.023438 32.914062 18.398438 32.9375 C 18.046875 32.964844 17.695312 32.929688 17.359375 32.839844 C 16.789062 32.667969 16.378906 32.242188 16.289062 31.738281 C 16.171875 31.3125 16.210938 30.867188 16.40625 30.464844 C 16.65625 29.964844 17.15625 29.589844 17.773438 29.441406 C 18.304688 29.304688 18.851562 29.210938 19.40625 29.160156 C 19.53125 29.164062 19.65625 29.152344 19.78125 29.132812 C 19.84375 29.117188 19.871094 29.097656 19.875 29.042969 C 19.894531 28.820312 19.867188 28.597656 19.796875 28.382812 C 19.644531 28.082031 19.261719 27.90625 18.878906 27.96875 C 18.46875 28.015625 18.140625 28.277344 18.0625 28.621094 C 18.011719 28.789062 17.921875 28.828125 17.71875 28.804688 C 17.398438 28.765625 17.078125 28.734375 16.757812 28.714844 C 16.511719 28.699219 16.402344 28.597656 16.453125 28.398438 C 16.589844 27.777344 17.101562 27.257812 17.800781 27.035156 C 18.597656 26.746094 19.488281 26.71875 20.304688 26.960938 C 21.128906 27.144531 21.679688 27.796875 21.628906 28.515625 C 21.660156 28.976562 21.652344 29.4375 21.660156 29.835938 Z M 19.878906 30.417969 L 19.878906 30.113281 C 19.878906 30.039062 19.832031 30.003906 19.753906 30.019531 C 19.5625 30.058594 19.363281 30.035156 19.167969 30.074219 C 18.851562 30.105469 18.558594 30.230469 18.339844 30.425781 C 18.050781 30.714844 17.984375 31.117188 18.160156 31.464844 C 18.203125 31.5625 18.277344 31.652344 18.371094 31.71875 C 18.550781 31.824219 18.773438 31.867188 18.988281 31.832031 C 19.203125 31.800781 19.390625 31.695312 19.511719 31.542969 C 19.78125 31.210938 19.90625 30.816406 19.875 30.417969 Z M 19.878906 30.417969 "/>
<path style=" stroke:none;fill-rule:nonzero;fill:rgb(12.54902%,10.980392%,11.372549%);fill-opacity:1;" d="M 5.410156 29.617188 L 5.410156 30.769531 C 5.402344 31.136719 5.558594 31.496094 5.851562 31.769531 C 5.910156 31.816406 5.945312 31.886719 5.941406 31.957031 C 5.941406 32.027344 5.902344 32.09375 5.839844 32.136719 C 5.535156 32.371094 5.230469 32.601562 4.921875 32.828125 C 4.816406 32.910156 4.65625 32.910156 4.554688 32.824219 C 4.335938 32.667969 4.144531 32.488281 3.992188 32.285156 C 3.945312 32.234375 3.921875 32.191406 3.839844 32.265625 C 3.457031 32.632812 2.925781 32.867188 2.351562 32.925781 C 1.699219 33.042969 1.023438 32.886719 0.53125 32.511719 C 0.242188 32.25 0.0664062 31.914062 0.0273438 31.558594 C -0.0273438 31.265625 -0.00390625 30.964844 0.09375 30.679688 C 0.285156 30.074219 0.847656 29.597656 1.566406 29.433594 C 2.097656 29.304688 2.636719 29.210938 3.183594 29.15625 C 3.3125 29.160156 3.4375 29.152344 3.5625 29.132812 C 3.628906 29.113281 3.660156 29.089844 3.660156 29.027344 C 3.667969 28.816406 3.644531 28.605469 3.582031 28.398438 C 3.441406 28.082031 3.054688 27.902344 2.664062 27.964844 C 2.238281 28.003906 1.902344 28.28125 1.84375 28.640625 C 1.832031 28.699219 1.792969 28.75 1.734375 28.78125 C 1.679688 28.816406 1.609375 28.828125 1.539062 28.8125 C 1.203125 28.777344 0.871094 28.738281 0.535156 28.710938 C 0.285156 28.6875 0.199219 28.597656 0.257812 28.386719 C 0.457031 27.582031 1.242188 26.972656 2.207031 26.875 C 2.765625 26.769531 3.347656 26.777344 3.898438 26.90625 C 4.78125 27.027344 5.421875 27.675781 5.40625 28.429688 C 5.417969 28.828125 5.40625 29.222656 5.410156 29.617188 Z M 1.882812 31.078125 C 1.863281 31.234375 1.898438 31.394531 1.988281 31.535156 C 2.109375 31.746094 2.371094 31.871094 2.644531 31.851562 C 2.992188 31.820312 3.289062 31.636719 3.4375 31.371094 C 3.644531 30.96875 3.71875 30.527344 3.660156 30.089844 C 3.660156 30.027344 3.601562 30.011719 3.542969 30.023438 C 3.289062 30.039062 3.035156 30.070312 2.785156 30.113281 C 2.230469 30.179688 1.832031 30.605469 1.882812 31.078125 Z M 1.882812 31.078125 "/>
<path style=" stroke:none;fill-rule:nonzero;fill:rgb(12.54902%,10.980392%,11.372549%);fill-opacity:1;" d="M 28.386719 29.976562 C 28.339844 29.285156 28.523438 28.597656 28.914062 27.988281 C 29.269531 27.398438 29.945312 26.988281 30.722656 26.898438 C 31.351562 26.800781 32.003906 26.902344 32.550781 27.183594 C 33.050781 27.453125 33.4375 27.851562 33.652344 28.320312 C 33.949219 28.925781 34.070312 29.578125 34.011719 30.230469 C 33.992188 30.882812 33.746094 31.519531 33.308594 32.054688 C 32.839844 32.640625 32.058594 32.992188 31.222656 32.996094 C 30.496094 33.023438 29.789062 32.777344 29.300781 32.324219 C 28.871094 31.917969 28.589844 31.417969 28.488281 30.878906 C 28.40625 30.585938 28.375 30.28125 28.386719 29.976562 Z M 31.3125 31.855469 C 31.507812 31.832031 31.679688 31.738281 31.785156 31.597656 C 32.03125 31.273438 32.15625 30.890625 32.136719 30.507812 C 32.164062 30.160156 32.167969 29.8125 32.148438 29.46875 C 32.125 29.128906 32.054688 28.796875 31.945312 28.472656 C 31.828125 28.175781 31.480469 27.984375 31.113281 28.015625 C 30.835938 28.023438 30.589844 28.167969 30.488281 28.382812 C 30.3125 28.695312 30.226562 29.039062 30.238281 29.386719 C 30.203125 29.855469 30.226562 30.320312 30.296875 30.785156 C 30.332031 31.039062 30.417969 31.28125 30.558594 31.507812 C 30.699219 31.746094 31 31.882812 31.3125 31.855469 Z M 31.3125 31.855469 "/>
<path style=" stroke:none;fill-rule:nonzero;fill:rgb(12.54902%,10.980392%,11.372549%);fill-opacity:1;" d="M 25.417969 28.179688 L 23.429688 28.179688 C 23.222656 28.179688 23.144531 28.144531 23.125 27.976562 C 23.089844 27.699219 23.089844 27.414062 23.125 27.132812 C 23.148438 27 23.25 26.957031 23.386719 26.957031 L 27.292969 26.957031 C 27.582031 26.957031 27.648438 27.015625 27.648438 27.257812 C 27.648438 27.386719 27.640625 27.515625 27.648438 27.632812 C 27.667969 27.878906 27.574219 28.121094 27.390625 28.316406 C 26.957031 28.835938 26.535156 29.363281 26.113281 29.886719 L 25.371094 30.8125 C 25.347656 30.84375 25.300781 30.871094 25.320312 30.910156 C 25.339844 30.949219 25.40625 30.9375 25.453125 30.9375 C 26.171875 30.925781 26.882812 31.066406 27.519531 31.351562 C 27.695312 31.410156 27.808594 31.554688 27.800781 31.714844 L 27.800781 32.507812 C 27.800781 32.707031 27.648438 32.789062 27.429688 32.703125 C 26.972656 32.507812 26.476562 32.375 25.96875 32.308594 C 25.179688 32.214844 24.375 32.300781 23.640625 32.554688 C 23.488281 32.609375 23.335938 32.671875 23.171875 32.722656 C 23.113281 32.742188 23.046875 32.738281 22.992188 32.710938 C 22.9375 32.683594 22.902344 32.636719 22.894531 32.582031 C 22.867188 32.214844 22.875 31.84375 22.921875 31.476562 C 22.976562 31.296875 23.074219 31.128906 23.214844 30.984375 C 23.921875 30.097656 24.628906 29.210938 25.339844 28.328125 C 25.378906 28.285156 25.40625 28.234375 25.417969 28.179688 Z M 25.417969 28.179688 "/>
<path style=" stroke:none;fill-rule:nonzero;fill:rgb(0%,0%,0%);fill-opacity:1;" d="M 10.417969 37.539062 L 10.417969 35.1875 C 10.417969 35.058594 10.441406 35.011719 10.617188 34.992188 C 11.238281 34.917969 11.871094 34.894531 12.496094 34.921875 C 13.175781 34.921875 13.835938 35.101562 14.390625 35.433594 C 14.90625 35.761719 15.25 36.242188 15.359375 36.78125 C 15.511719 37.425781 15.421875 38.09375 15.101562 38.691406 C 14.8125 39.246094 14.261719 39.675781 13.582031 39.871094 C 13.132812 39.996094 12.671875 40.070312 12.199219 40.101562 C 11.746094 40.136719 11.289062 40.082031 10.835938 40.089844 C 10.722656 40.089844 10.609375 40.054688 10.496094 40.0625 C 10.414062 40.0625 10.410156 40.019531 10.410156 39.96875 L 10.410156 39.605469 C 10.417969 38.917969 10.417969 38.226562 10.417969 37.539062 Z M 11.242188 37.523438 L 11.242188 39.410156 C 11.242188 39.464844 11.214844 39.527344 11.324219 39.539062 C 11.84375 39.589844 12.371094 39.5625 12.878906 39.464844 C 13.503906 39.351562 14.027344 38.996094 14.292969 38.507812 C 14.566406 37.992188 14.636719 37.417969 14.492188 36.871094 C 14.433594 36.578125 14.28125 36.304688 14.050781 36.082031 C 13.628906 35.695312 13.03125 35.476562 12.410156 35.480469 C 12.085938 35.464844 11.757812 35.472656 11.433594 35.5 C 11.285156 35.515625 11.242188 35.554688 11.242188 35.679688 C 11.25 36.289062 11.242188 36.90625 11.242188 37.519531 Z M 11.242188 37.523438 "/>
<path style=" stroke:none;fill-rule:nonzero;fill:rgb(0%,0%,0%);fill-opacity:1;" d="M 21.855469 37.5 L 21.855469 35.09375 C 21.855469 34.96875 21.898438 34.933594 22.042969 34.941406 C 22.199219 34.953125 22.359375 34.953125 22.519531 34.941406 C 22.648438 34.9375 22.6875 34.96875 22.6875 35.082031 L 22.6875 36.917969 C 22.6875 37.0625 22.738281 37.09375 22.898438 37.089844 C 23.726562 37.085938 24.558594 37.089844 25.386719 37.089844 C 25.519531 37.089844 25.5625 37.0625 25.5625 36.945312 L 25.5625 35.097656 C 25.5625 34.96875 25.605469 34.9375 25.746094 34.945312 C 25.921875 34.953125 26.097656 34.945312 26.273438 34.945312 C 26.359375 34.945312 26.398438 34.964844 26.390625 35.039062 L 26.390625 39.894531 C 26.390625 40.035156 26.34375 40.082031 26.179688 40.066406 C 26.03125 40.058594 25.882812 40.058594 25.734375 40.066406 C 25.597656 40.078125 25.558594 40.039062 25.558594 39.921875 L 25.558594 37.851562 C 25.558594 37.671875 25.558594 37.671875 25.34375 37.671875 L 22.871094 37.671875 C 22.730469 37.671875 22.6875 37.699219 22.6875 37.824219 L 22.6875 39.914062 C 22.6875 40.039062 22.640625 40.082031 22.492188 40.070312 C 22.332031 40.0625 22.175781 40.0625 22.015625 40.070312 C 21.890625 40.070312 21.855469 40.042969 21.863281 39.941406 L 21.863281 38.648438 C 21.859375 38.265625 21.855469 37.882812 21.855469 37.5 Z M 21.855469 37.5 "/>
<path style=" stroke:none;fill-rule:nonzero;fill:rgb(0%,0%,0%);fill-opacity:1;" d="M 2.628906 37.617188 C 3.074219 37.792969 3.382812 38.144531 3.460938 38.550781 C 3.578125 39.027344 3.730469 39.5 3.914062 39.960938 C 3.953125 40.042969 3.933594 40.074219 3.820312 40.070312 L 3.246094 40.070312 C 2.898438 39.574219 2.769531 39.171875 2.675781 38.761719 C 2.625 38.523438 2.5 38.304688 2.308594 38.121094 C 2.121094 37.960938 1.863281 37.867188 1.59375 37.867188 C 1.378906 37.855469 1.160156 37.867188 0.949219 37.867188 C 0.820312 37.867188 0.796875 37.902344 0.796875 38.003906 L 0.796875 39.90625 C 0.796875 40.035156 0.757812 40.082031 0.605469 40.070312 C 0.464844 40.058594 0.320312 40.058594 0.179688 40.070312 C 0.046875 40.078125 -0.00390625 40.042969 0 39.925781 C 0.0117188 39.605469 0 39.285156 0 38.964844 L 0 35.292969 C 0 35.019531 0 35.011719 0.304688 34.976562 C 0.835938 34.910156 1.371094 34.894531 1.90625 34.925781 C 2.324219 34.925781 2.730469 35.03125 3.078125 35.222656 C 3.472656 35.445312 3.714844 35.820312 3.722656 36.222656 C 3.75 36.578125 3.621094 36.925781 3.355469 37.199219 C 3.199219 37.351562 3.007812 37.476562 2.789062 37.5625 C 2.753906 37.578125 2.703125 37.589844 2.628906 37.617188 Z M 0.796875 36.417969 L 0.796875 37.222656 C 0.796875 37.304688 0.816406 37.34375 0.921875 37.339844 C 1.226562 37.324219 1.527344 37.347656 1.824219 37.3125 C 2.128906 37.3125 2.421875 37.199219 2.625 37.007812 C 2.832031 36.8125 2.933594 36.558594 2.902344 36.300781 C 2.914062 36.007812 2.714844 35.734375 2.402344 35.609375 C 1.933594 35.429688 1.40625 35.386719 0.90625 35.492188 C 0.808594 35.503906 0.792969 35.539062 0.792969 35.609375 C 0.792969 35.878906 0.792969 36.15625 0.792969 36.417969 Z M 0.796875 36.417969 "/>
<path style=" stroke:none;fill-rule:nonzero;fill:rgb(0%,0%,0%);fill-opacity:1;" d="M 5.472656 37.507812 L 5.472656 35.089844 C 5.472656 34.972656 5.511719 34.941406 5.648438 34.941406 C 6.632812 34.945312 7.617188 34.945312 8.597656 34.941406 C 8.730469 34.941406 8.789062 34.964844 8.773438 35.085938 C 8.765625 35.191406 8.765625 35.296875 8.773438 35.40625 C 8.78125 35.503906 8.738281 35.53125 8.621094 35.53125 L 6.5 35.53125 C 6.347656 35.53125 6.292969 35.558594 6.296875 35.699219 C 6.308594 36.128906 6.304688 36.5625 6.296875 36.992188 C 6.296875 37.097656 6.335938 37.121094 6.449219 37.121094 L 8.476562 37.121094 C 8.59375 37.121094 8.648438 37.140625 8.636719 37.246094 C 8.625 37.351562 8.625 37.453125 8.636719 37.554688 C 8.644531 37.652344 8.597656 37.683594 8.484375 37.683594 L 6.492188 37.683594 C 6.339844 37.683594 6.285156 37.710938 6.289062 37.847656 C 6.296875 38.347656 6.296875 38.847656 6.289062 39.351562 C 6.289062 39.46875 6.332031 39.496094 6.464844 39.496094 L 8.722656 39.496094 C 8.855469 39.496094 8.910156 39.523438 8.898438 39.640625 C 8.886719 39.753906 8.886719 39.863281 8.898438 39.976562 C 8.898438 40.066406 8.859375 40.085938 8.761719 40.085938 L 5.597656 40.085938 C 5.464844 40.085938 5.464844 40.027344 5.464844 39.945312 C 5.472656 39.125 5.476562 38.3125 5.472656 37.507812 Z M 5.472656 37.507812 "/>
<path style=" stroke:none;fill-rule:nonzero;fill:rgb(0%,0%,0%);fill-opacity:1;" d="M 18.261719 40.121094 C 17.722656 40.132812 17.191406 40.027344 16.714844 39.8125 C 16.628906 39.773438 16.605469 39.746094 16.644531 39.667969 C 16.707031 39.539062 16.746094 39.410156 16.804688 39.292969 C 16.835938 39.222656 16.867188 39.230469 16.917969 39.257812 C 17.285156 39.417969 17.683594 39.519531 18.09375 39.558594 C 18.566406 39.601562 19.03125 39.4375 19.328125 39.121094 C 19.476562 38.90625 19.507812 38.648438 19.417969 38.414062 C 19.324219 38.179688 19.113281 37.988281 18.84375 37.894531 C 18.550781 37.765625 18.238281 37.695312 17.933594 37.582031 C 17.464844 37.429688 17.078125 37.140625 16.847656 36.765625 C 16.636719 36.296875 16.742188 35.769531 17.125 35.382812 C 17.511719 35.042969 18.054688 34.851562 18.617188 34.855469 C 19.070312 34.835938 19.519531 34.902344 19.9375 35.050781 C 20.023438 35.082031 20.058594 35.109375 20.015625 35.191406 C 19.957031 35.320312 19.90625 35.449219 19.867188 35.582031 C 19.84375 35.644531 19.820312 35.683594 19.730469 35.640625 C 19.433594 35.503906 19.101562 35.429688 18.761719 35.429688 C 18.34375 35.382812 17.929688 35.535156 17.683594 35.824219 C 17.558594 36.003906 17.53125 36.21875 17.605469 36.417969 C 17.683594 36.617188 17.855469 36.777344 18.082031 36.863281 C 18.476562 37.054688 18.921875 37.164062 19.316406 37.355469 C 19.945312 37.597656 20.335938 38.136719 20.296875 38.714844 C 20.261719 39.292969 19.808594 39.796875 19.15625 39.980469 C 18.871094 40.070312 18.566406 40.121094 18.261719 40.121094 Z M 18.261719 40.121094 "/>
<path style=" stroke:none;fill-rule:nonzero;fill:rgb(0%,0%,0%);fill-opacity:1;" d="M 31.089844 37.496094 L 31.089844 35.089844 C 31.089844 34.976562 31.121094 34.941406 31.257812 34.941406 C 32.238281 34.945312 33.214844 34.945312 34.191406 34.941406 C 34.328125 34.941406 34.367188 34.976562 34.355469 35.082031 C 34.34375 35.183594 34.34375 35.285156 34.355469 35.390625 C 34.367188 35.496094 34.320312 35.53125 34.191406 35.53125 L 32.128906 35.53125 C 31.914062 35.53125 31.914062 35.53125 31.914062 35.707031 L 31.914062 37.070312 C 31.914062 37.171875 31.949219 37.195312 32.0625 37.195312 L 34.027344 37.195312 C 34.144531 37.195312 34.195312 37.21875 34.183594 37.324219 C 34.175781 37.425781 34.175781 37.527344 34.183594 37.632812 C 34.195312 37.730469 34.144531 37.757812 34.035156 37.757812 L 32.089844 37.757812 C 31.9375 37.757812 31.902344 37.789062 31.902344 37.914062 L 31.902344 39.917969 C 31.902344 40.035156 31.878906 40.085938 31.726562 40.074219 C 31.5625 40.0625 31.398438 40.0625 31.234375 40.074219 C 31.109375 40.078125 31.082031 40.039062 31.082031 39.945312 C 31.089844 39.121094 31.089844 38.308594 31.089844 37.496094 Z M 31.089844 37.496094 "/>
<path style=" stroke:none;fill-rule:nonzero;fill:rgb(0%,0%,0%);fill-opacity:1;" d="M 28.320312 37.496094 L 28.320312 35.089844 C 28.320312 34.976562 28.351562 34.933594 28.492188 34.941406 C 28.65625 34.953125 28.820312 34.953125 28.984375 34.941406 C 29.121094 34.933594 29.152344 34.980469 29.148438 35.085938 C 29.140625 35.296875 29.148438 35.511719 29.148438 35.726562 L 29.148438 39.898438 C 29.148438 40.027344 29.113281 40.082031 28.949219 40.070312 C 28.789062 40.058594 28.628906 40.058594 28.46875 40.070312 C 28.339844 40.078125 28.320312 40.035156 28.320312 39.933594 C 28.320312 39.121094 28.320312 38.308594 28.320312 37.496094 Z M 28.320312 37.496094 "/>
<path style=" stroke:none;fill-rule:nonzero;fill:rgb(32.156864%,57.647061%,80.784315%);fill-opacity:1;" d="M 7.695312 3.257812 C 8.136719 3.320312 8.566406 3.429688 9 3.515625 C 9.816406 3.679688 10.632812 3.839844 11.445312 4.007812 L 11.445312 18.976562 L 7.785156 19.730469 C 7.753906 19.734375 7.722656 19.746094 7.691406 19.753906 C 7.691406 14.257812 7.695312 8.757812 7.695312 3.257812 Z M 7.695312 3.257812 "/>
</g>
</svg>
