<?xml version="1.0" encoding="UTF-8"?>
<svg xmlns="http://www.w3.org/2000/svg" xmlns:xlink="http://www.w3.org/1999/xlink" width="40px" height="40px" viewBox="0 0 40 40" version="1.1">
<g id="surface1">
<path style=" stroke:none;fill-rule:nonzero;fill:rgb(17.647059%,44.705883%,71.764708%);fill-opacity:1;" d="M 24.058594 23.296875 C 21.089844 23.296875 18.167969 23.3125 15.203125 23.3125 C 15.113281 23.3125 15.027344 23.296875 14.949219 23.265625 L 14.949219 23.167969 C 15.109375 23.054688 15.042969 22.890625 15.042969 22.746094 L 15.042969 0.570312 C 15.042969 0.425781 15.109375 0.292969 14.949219 0.148438 L 14.949219 0.0507812 C 15.054688 0.0234375 15.160156 0.0078125 15.269531 0 L 23.761719 0 C 23.851562 0 23.964844 0.015625 24.011719 0.015625 C 24.011719 0.179688 24.035156 0.359375 24.035156 0.523438 L 24.035156 17.703125 C 24.035156 19.613281 24.035156 21.453125 24.058594 23.296875 Z M 24.058594 23.296875 "/>
<path style=" stroke:none;fill-rule:nonzero;fill:rgb(32.156864%,58.039218%,80.784315%);fill-opacity:1;" d="M 24.058594 23.296875 L 24.058594 0.605469 C 24.058594 0.441406 24.058594 0.261719 24.035156 0.0976562 C 24.171875 0.0507812 24.238281 0.0976562 24.332031 0.148438 C 26.316406 0.863281 28.324219 1.566406 30.3125 2.28125 C 30.46875 2.324219 30.605469 2.398438 30.699219 2.496094 C 30.539062 2.609375 30.609375 2.773438 30.609375 2.917969 L 30.609375 20.542969 C 30.609375 20.6875 30.539062 20.820312 30.699219 20.964844 C 30.636719 21.054688 30.519531 21.121094 30.378906 21.144531 C 28.417969 21.847656 26.433594 22.546875 24.488281 23.265625 C 24.332031 23.25 24.195312 23.3125 24.058594 23.296875 Z M 24.058594 23.296875 "/>
<path style=" stroke:none;fill-rule:nonzero;fill:rgb(12.54902%,35.686275%,59.607846%);fill-opacity:1;" d="M 14.949219 23.199219 L 14.949219 23.296875 C 14.84375 23.308594 14.730469 23.285156 14.652344 23.230469 C 12.691406 22.53125 10.707031 21.828125 8.761719 21.113281 C 8.671875 21.09375 8.601562 21.015625 8.511719 20.964844 L 8.511719 2.414062 C 8.957031 2.1875 9.441406 2 9.949219 1.859375 C 11.457031 1.320312 12.984375 0.769531 14.46875 0.230469 C 14.628906 0.179688 14.765625 0.0664062 14.949219 0.0820312 Z M 14.949219 23.199219 "/>
<path style=" stroke:none;fill-rule:nonzero;fill:rgb(10.980392%,28.235295%,43.921569%);fill-opacity:1;" d="M 8.46875 2.414062 L 8.46875 20.964844 C 7.394531 20.085938 6.324219 19.203125 5.25 18.308594 C 5.132812 18.195312 5.074219 18.058594 5.089844 17.917969 C 5.089844 13.761719 5.089844 9.617188 5.089844 5.460938 C 5.0625 5.320312 5.121094 5.175781 5.25 5.070312 C 6.324219 4.191406 7.394531 3.292969 8.46875 2.414062 Z M 8.46875 2.414062 "/>
<path style=" stroke:none;fill-rule:nonzero;fill:rgb(17.647059%,44.705883%,71.764708%);fill-opacity:1;" d="M 30.699219 20.917969 C 30.539062 20.800781 30.609375 20.640625 30.609375 20.492188 L 30.609375 2.867188 C 30.609375 2.722656 30.539062 2.589844 30.699219 2.445312 C 31.75 3.308594 32.777344 4.171875 33.828125 5.019531 C 33.96875 5.144531 34.042969 5.300781 34.03125 5.460938 L 34.03125 17.898438 C 34.035156 18.070312 33.957031 18.238281 33.804688 18.371094 C 32.753906 19.222656 31.703125 20.050781 30.699219 20.917969 Z M 30.699219 20.917969 "/>
<path style=" stroke:none;fill-rule:nonzero;fill:rgb(32.156864%,58.039218%,80.784315%);fill-opacity:1;" d="M 14.949219 23.199219 L 14.949219 0.210938 C 15.109375 0.328125 15.042969 0.488281 15.042969 0.636719 L 15.042969 22.808594 C 15.042969 22.921875 15.109375 23.085938 14.949219 23.199219 Z M 14.949219 23.199219 "/>
<path style=" stroke:none;fill-rule:nonzero;fill:rgb(12.54902%,10.980392%,11.372549%);fill-opacity:1;" d="M 22.988281 28.886719 L 22.988281 28.246094 C 22.984375 28.203125 23.007812 28.160156 23.046875 28.128906 C 23.089844 28.097656 23.144531 28.078125 23.207031 28.078125 L 27.273438 28.078125 C 27.332031 28.078125 27.390625 28.09375 27.4375 28.121094 C 27.480469 28.152344 27.503906 28.191406 27.507812 28.234375 L 27.507812 28.796875 C 27.457031 28.949219 27.351562 29.089844 27.203125 29.203125 L 25.105469 31.34375 C 25.90625 31.304688 26.707031 31.429688 27.417969 31.699219 C 27.546875 31.753906 27.628906 31.851562 27.636719 31.957031 L 27.636719 32.648438 C 27.636719 32.699219 27.597656 32.75 27.539062 32.78125 C 27.476562 32.8125 27.402344 32.820312 27.332031 32.804688 C 25.988281 32.304688 24.390625 32.304688 23.046875 32.804688 C 22.902344 32.855469 22.761719 32.75 22.761719 32.648438 L 22.761719 31.996094 C 22.746094 31.839844 22.796875 31.683594 22.90625 31.546875 L 25.316406 29.066406 L 23.203125 29.066406 C 23.082031 29.046875 22.992188 28.976562 22.984375 28.886719 "/>
<path style=" stroke:none;fill-rule:nonzero;fill:rgb(12.54902%,10.980392%,11.372549%);fill-opacity:1;" d="M 8.246094 32.917969 L 7.011719 32.917969 C 6.890625 32.917969 6.792969 32.847656 6.792969 32.761719 L 6.792969 28.257812 C 6.792969 28.167969 6.898438 28.09375 7.023438 28.089844 L 8.171875 28.089844 C 8.296875 28.089844 8.398438 28.160156 8.40625 28.246094 L 8.40625 28.835938 L 8.425781 28.835938 C 8.628906 28.328125 9.296875 27.984375 10.035156 28.003906 C 10.769531 27.996094 11.417969 28.335938 11.632812 28.835938 C 11.988281 28.164062 13.039062 27.828125 13.980469 28.082031 C 14.285156 28.171875 14.554688 28.3125 14.765625 28.492188 C 15.070312 28.925781 15.175781 29.417969 15.070312 29.898438 L 15.070312 32.753906 C 15.070312 32.84375 14.96875 32.917969 14.839844 32.917969 L 13.601562 32.917969 C 13.542969 32.917969 13.484375 32.898438 13.445312 32.867188 C 13.402344 32.835938 13.382812 32.796875 13.382812 32.753906 L 13.382812 30.355469 C 13.398438 30.074219 13.386719 29.792969 13.347656 29.511719 C 13.328125 29.390625 13.238281 29.285156 13.105469 29.210938 C 12.96875 29.140625 12.800781 29.109375 12.632812 29.128906 C 12.308594 29.140625 12.023438 29.285156 11.898438 29.5 C 11.796875 29.78125 11.761719 30.078125 11.789062 30.367188 L 11.789062 32.761719 C 11.789062 32.851562 11.683594 32.925781 11.558594 32.929688 L 10.320312 32.929688 C 10.261719 32.929688 10.203125 32.910156 10.164062 32.878906 C 10.121094 32.847656 10.101562 32.804688 10.101562 32.761719 L 10.101562 30.355469 C 10.101562 29.855469 10.210938 29.113281 9.351562 29.113281 C 8.488281 29.113281 8.507812 29.832031 8.507812 30.355469 L 8.507812 32.75 C 8.476562 32.839844 8.371094 32.90625 8.238281 32.917969 "/>
<path style=" stroke:none;fill-rule:nonzero;fill:rgb(12.54902%,10.980392%,11.372549%);fill-opacity:1;" d="M 30.980469 28 C 32.804688 28 33.792969 29.128906 33.792969 30.546875 C 33.792969 31.929688 32.699219 33.015625 30.980469 33.015625 C 29.1875 33.015625 28.203125 31.890625 28.203125 30.496094 C 28.203125 29.101562 29.207031 28.003906 30.980469 28.003906 M 30.996094 28.925781 C 30.082031 28.925781 30.03125 29.808594 30.03125 30.359375 C 30.03125 30.90625 30.011719 32.085938 30.980469 32.085938 C 31.949219 32.085938 31.984375 31.136719 31.984375 30.5625 C 32.003906 30.15625 31.945312 29.753906 31.804688 29.359375 C 31.730469 29.089844 31.382812 28.902344 30.996094 28.921875 "/>
<path style=" stroke:none;fill-rule:nonzero;fill:rgb(12.54902%,10.980392%,11.372549%);fill-opacity:1;" d="M 36.15625 32.914062 L 34.941406 32.914062 C 34.882812 32.914062 34.824219 32.898438 34.785156 32.867188 C 34.742188 32.835938 34.71875 32.792969 34.722656 32.75 L 34.722656 28.246094 C 34.738281 28.160156 34.835938 28.09375 34.957031 28.089844 L 36.105469 28.089844 L 36.324219 28.90625 L 36.34375 28.90625 C 36.53125 28.359375 37.234375 27.980469 38.027344 28 C 38.605469 27.980469 39.152344 28.183594 39.460938 28.535156 C 39.730469 28.980469 39.84375 29.464844 39.78125 29.945312 L 39.78125 32.773438 C 39.757812 32.851562 39.664062 32.910156 39.550781 32.914062 L 38.3125 32.914062 C 38.203125 32.910156 38.109375 32.851562 38.09375 32.773438 L 38.09375 30.316406 C 38.09375 29.828125 38.167969 29.101562 37.324219 29.101562 C 37.007812 29.113281 36.730469 29.25 36.609375 29.457031 C 36.460938 29.730469 36.394531 30.023438 36.410156 30.316406 L 36.410156 32.746094 C 36.410156 32.792969 36.382812 32.835938 36.335938 32.867188 C 36.285156 32.898438 36.222656 32.914062 36.160156 32.914062 "/>
<path style=" stroke:none;fill-rule:nonzero;fill:rgb(12.54902%,10.980392%,11.372549%);fill-opacity:1;" d="M 5.824219 32.085938 C 5.527344 31.863281 5.359375 31.570312 5.359375 31.265625 L 5.359375 29.910156 C 5.359375 29.332031 5.414062 28.796875 4.820312 28.398438 C 4.292969 28.097656 3.632812 27.945312 2.957031 27.964844 C 1.792969 27.964844 0.484375 28.269531 0.199219 29.308594 L 0.378906 29.488281 L 1.578125 29.574219 C 1.695312 29.5625 1.785156 29.492188 1.796875 29.410156 C 1.894531 29.082031 2.316406 28.859375 2.78125 28.886719 C 3.054688 28.875 3.3125 28.960938 3.480469 29.113281 C 3.621094 29.3125 3.671875 29.535156 3.625 29.753906 L 3.625 29.871094 C 2.839844 29.894531 2.0625 29.996094 1.316406 30.175781 C 0.496094 30.40625 -0.03125 30.980469 0.0078125 31.609375 C -0.0429688 31.972656 0.132812 32.335938 0.488281 32.597656 C 0.84375 32.863281 1.339844 33 1.851562 32.980469 C 2.632812 33.011719 3.382812 32.773438 3.875 32.339844 C 4.054688 32.566406 4.292969 32.765625 4.574219 32.929688 C 4.667969 32.964844 4.785156 32.957031 4.863281 32.902344 C 5.113281 32.746094 5.5625 32.46875 5.8125 32.316406 C 5.859375 32.289062 5.890625 32.246094 5.894531 32.203125 C 5.898438 32.15625 5.875 32.113281 5.828125 32.085938 Z M 3.40625 31.6875 C 3.242188 31.921875 2.914062 32.074219 2.546875 32.085938 C 2.082031 32.085938 1.792969 31.828125 1.792969 31.445312 C 1.792969 30.703125 2.742188 30.5625 3.621094 30.5625 L 3.621094 30.753906 C 3.6875 31.074219 3.613281 31.398438 3.40625 31.6875 Z M 3.40625 31.6875 "/>
<path style=" stroke:none;fill-rule:nonzero;fill:rgb(12.54902%,10.980392%,11.372549%);fill-opacity:1;" d="M 21.96875 32.085938 C 21.671875 31.863281 21.503906 31.570312 21.5 31.265625 L 21.5 29.910156 C 21.5 29.332031 21.554688 28.796875 20.964844 28.398438 C 20.4375 28.097656 19.773438 27.945312 19.101562 27.964844 C 17.9375 27.964844 16.628906 28.269531 16.34375 29.308594 L 16.519531 29.488281 L 17.722656 29.574219 C 17.839844 29.5625 17.925781 29.492188 17.941406 29.410156 C 18.039062 29.082031 18.460938 28.859375 18.925781 28.886719 C 19.195312 28.875 19.457031 28.960938 19.625 29.113281 C 19.765625 29.3125 19.816406 29.535156 19.769531 29.753906 L 19.769531 29.871094 C 18.984375 29.894531 18.207031 29.996094 17.457031 30.175781 C 16.644531 30.410156 16.121094 30.984375 16.148438 31.609375 C 16.101562 31.972656 16.277344 32.335938 16.628906 32.597656 C 16.984375 32.863281 17.484375 33 17.996094 32.980469 C 18.773438 33.007812 19.523438 32.769531 20.019531 32.339844 C 20.195312 32.566406 20.433594 32.765625 20.71875 32.929688 C 20.8125 32.964844 20.925781 32.957031 21.003906 32.902344 C 21.257812 32.746094 21.703125 32.46875 21.953125 32.316406 C 22 32.285156 22.027344 32.246094 22.03125 32.203125 C 22.035156 32.160156 22.015625 32.117188 21.972656 32.085938 Z M 19.53125 31.6875 C 19.367188 31.921875 19.039062 32.074219 18.671875 32.085938 C 18.207031 32.085938 17.917969 31.828125 17.917969 31.445312 C 17.917969 30.703125 18.867188 30.5625 19.746094 30.5625 L 19.746094 30.753906 C 19.8125 31.074219 19.738281 31.402344 19.527344 31.6875 Z M 19.53125 31.6875 "/>
<path style=" stroke:none;fill-rule:nonzero;fill:rgb(12.54902%,10.980392%,11.372549%);fill-opacity:1;" d="M 0.00390625 40.042969 L 0.00390625 34.554688 L 2.796875 34.554688 C 3.238281 34.535156 3.679688 34.589844 4.085938 34.710938 C 4.382812 34.828125 4.621094 35.003906 4.769531 35.222656 C 4.953125 35.476562 5.046875 35.765625 5.035156 36.054688 C 5.0625 36.417969 4.902344 36.777344 4.589844 37.0625 C 4.246094 37.339844 3.773438 37.511719 3.261719 37.550781 C 3.460938 37.632812 3.644531 37.734375 3.800781 37.855469 C 4.054688 38.074219 4.277344 38.308594 4.464844 38.5625 L 5.554688 40.058594 L 4.496094 40.058594 L 3.65625 38.917969 C 3.445312 38.605469 3.199219 38.308594 2.921875 38.023438 C 2.800781 37.890625 2.632812 37.785156 2.4375 37.714844 C 2.234375 37.660156 2.015625 37.632812 1.792969 37.636719 L 0.828125 37.636719 L 0.828125 40.070312 L 0.00390625 40.070312 Z M 0.824219 36.972656 L 2.621094 36.972656 C 2.925781 36.980469 3.230469 36.945312 3.515625 36.867188 C 3.71875 36.796875 3.886719 36.6875 4 36.550781 C 4.125 36.398438 4.1875 36.226562 4.179688 36.050781 C 4.203125 35.808594 4.078125 35.570312 3.839844 35.398438 C 3.5625 35.226562 3.199219 35.140625 2.835938 35.152344 L 0.847656 35.152344 L 0.847656 36.972656 Z M 0.824219 36.972656 "/>
<path style=" stroke:none;fill-rule:nonzero;fill:rgb(12.54902%,10.980392%,11.372549%);fill-opacity:1;" d="M 6.328125 40.042969 L 6.328125 34.554688 L 8.496094 34.554688 C 8.90625 34.542969 9.316406 34.578125 9.710938 34.65625 C 10.085938 34.75 10.414062 34.914062 10.664062 35.132812 C 10.957031 35.390625 11.167969 35.691406 11.289062 36.015625 C 11.449219 36.421875 11.527344 36.84375 11.523438 37.269531 C 11.542969 37.804688 11.417969 38.339844 11.144531 38.84375 C 10.964844 39.21875 10.617188 39.539062 10.160156 39.765625 C 9.683594 39.960938 9.132812 40.050781 8.582031 40.03125 L 6.328125 40.03125 Z M 7.167969 39.390625 L 8.511719 39.390625 C 8.941406 39.410156 9.371094 39.34375 9.75 39.199219 C 10.050781 39.054688 10.277344 38.84375 10.394531 38.597656 C 10.605469 38.171875 10.710938 37.71875 10.699219 37.265625 C 10.726562 36.820312 10.617188 36.375 10.375 35.960938 C 10.21875 35.6875 9.933594 35.464844 9.570312 35.320312 C 9.230469 35.234375 8.871094 35.199219 8.511719 35.21875 L 7.1875 35.21875 L 7.1875 39.390625 Z M 7.167969 39.390625 "/>
<path style=" stroke:none;fill-rule:nonzero;fill:rgb(12.54902%,10.980392%,11.372549%);fill-opacity:1;" d="M 12.417969 38.277344 L 13.207031 38.214844 C 13.222656 38.460938 13.320312 38.703125 13.492188 38.917969 C 13.648438 39.09375 13.875 39.238281 14.136719 39.328125 C 14.425781 39.433594 14.746094 39.488281 15.070312 39.484375 C 15.484375 39.5 15.890625 39.410156 16.214844 39.226562 C 16.488281 39.054688 16.636719 38.808594 16.628906 38.550781 C 16.632812 38.402344 16.582031 38.257812 16.484375 38.125 C 16.371094 38.003906 16.214844 37.902344 16.035156 37.832031 C 15.613281 37.691406 15.175781 37.582031 14.726562 37.5 C 14.277344 37.417969 13.851562 37.289062 13.453125 37.113281 C 13.207031 36.988281 13.003906 36.820312 12.863281 36.628906 C 12.46875 36.042969 12.628906 35.34375 13.257812 34.875 C 13.699219 34.582031 14.289062 34.429688 14.890625 34.453125 C 15.320312 34.445312 15.742188 34.511719 16.128906 34.644531 C 16.472656 34.769531 16.761719 34.964844 16.953125 35.207031 C 17.160156 35.472656 17.265625 35.773438 17.257812 36.078125 L 16.449219 36.128906 C 16.445312 35.832031 16.285156 35.550781 16 35.335938 C 15.703125 35.15625 15.316406 35.0625 14.925781 35.078125 C 14.542969 35.0625 14.160156 35.144531 13.851562 35.308594 C 13.605469 35.453125 13.46875 35.671875 13.476562 35.898438 C 13.457031 36.089844 13.554688 36.273438 13.746094 36.410156 C 14.109375 36.59375 14.523438 36.71875 14.960938 36.78125 C 15.410156 36.863281 15.847656 36.96875 16.273438 37.101562 C 16.628906 37.222656 16.933594 37.414062 17.148438 37.652344 C 17.351562 37.898438 17.449219 38.183594 17.4375 38.46875 C 17.441406 38.769531 17.335938 39.066406 17.132812 39.328125 C 16.9375 39.578125 16.644531 39.78125 16.289062 39.917969 C 15.894531 40.058594 15.457031 40.128906 15.015625 40.121094 C 14.320312 40.148438 13.636719 39.964844 13.144531 39.613281 C 12.648438 39.261719 12.382812 38.777344 12.417969 38.277344 Z M 12.417969 38.277344 "/>
</g>
</svg>
