<?xml version="1.0" encoding="UTF-8"?>
<svg xmlns="http://www.w3.org/2000/svg" xmlns:xlink="http://www.w3.org/1999/xlink" width="40px" height="40px" viewBox="0 0 40 40" version="1.1">
<g id="surface1">
<path style=" stroke:none;fill-rule:nonzero;fill:rgb(12.156863%,35.686275%,60.000002%);fill-opacity:1;" d="M 0 3.777344 L 0 5.96875 L 7.542969 3.722656 L 7.542969 0 Z M 0 3.777344 "/>
<path style=" stroke:none;fill-rule:nonzero;fill:rgb(12.156863%,35.686275%,60.000002%);fill-opacity:1;" d="M 0 14.605469 L 7.542969 18.386719 L 7.542969 14.652344 L 0 12.414062 Z M 0 14.605469 "/>
<path style=" stroke:none;fill-rule:nonzero;fill:rgb(12.156863%,35.686275%,60.000002%);fill-opacity:1;" d="M 4.304688 6.957031 L 4.304688 11.429688 L 7.542969 11.90625 L 7.542969 6.480469 Z M 4.304688 6.957031 "/>
<path style=" stroke:none;fill-rule:nonzero;fill:rgb(31.764707%,58.039218%,81.568629%);fill-opacity:1;" d="M 15.085938 3.777344 L 15.085938 5.96875 L 7.542969 3.722656 L 7.542969 0 Z M 15.085938 3.777344 "/>
<path style=" stroke:none;fill-rule:nonzero;fill:rgb(31.764707%,58.039218%,81.568629%);fill-opacity:1;" d="M 15.085938 14.605469 L 7.542969 18.386719 L 7.542969 14.652344 L 15.085938 12.414062 Z M 15.085938 14.605469 "/>
<path style=" stroke:none;fill-rule:nonzero;fill:rgb(31.764707%,58.039218%,81.568629%);fill-opacity:1;" d="M 10.78125 6.957031 L 10.78125 11.429688 L 7.542969 11.90625 L 7.542969 6.480469 Z M 10.78125 6.957031 "/>
<path style=" stroke:none;fill-rule:nonzero;fill:rgb(9.019608%,28.627452%,43.529412%);fill-opacity:1;" d="M 7.542969 3.722656 L 0 5.96875 L 5.789062 6.734375 L 7.542969 6.480469 L 9.300781 6.734375 L 15.085938 5.96875 Z M 7.542969 3.722656 "/>
<path style=" stroke:none;fill-rule:nonzero;fill:rgb(60.000002%,73.725492%,89.019608%);fill-opacity:1;" d="M 9.300781 11.640625 L 7.542969 11.90625 L 5.789062 11.640625 L 0 12.40625 L 7.542969 14.652344 L 15.085938 12.40625 Z M 9.300781 11.640625 "/>
<path style=" stroke:none;fill-rule:nonzero;fill:rgb(13.333334%,13.333334%,13.333334%);fill-opacity:1;" d="M 5.976562 29.976562 L 5.25 28.074219 L 2.90625 28.074219 L 2.179688 29.976562 L 1.492188 29.976562 L 3.800781 23.957031 L 4.378906 23.957031 L 6.675781 29.976562 Z M 5.035156 27.433594 L 4.355469 25.578125 C 4.25 25.292969 4.15625 25.003906 4.082031 24.710938 C 4.027344 24.976562 3.9375 25.253906 3.835938 25.582031 L 3.144531 27.433594 Z M 5.035156 27.433594 "/>
<path style=" stroke:none;fill-rule:nonzero;fill:rgb(13.333334%,13.333334%,13.333334%);fill-opacity:1;" d="M 12.589844 29.972656 L 11.921875 29.972656 L 10.746094 25.964844 C 10.6875 25.789062 10.632812 25.558594 10.550781 25.289062 C 10.484375 25.023438 10.449219 24.863281 10.4375 24.804688 C 10.375 25.203125 10.28125 25.601562 10.15625 25.988281 L 9.011719 29.972656 L 8.34375 29.972656 L 6.789062 23.980469 L 7.515625 23.980469 L 8.445312 27.679688 C 8.5625 28.144531 8.65625 28.617188 8.726562 29.09375 C 8.796875 28.601562 8.90625 28.113281 9.046875 27.632812 L 10.097656 23.996094 L 10.824219 23.996094 L 11.921875 27.667969 C 12.058594 28.140625 12.167969 28.621094 12.25 29.105469 C 12.316406 28.628906 12.414062 28.15625 12.535156 27.691406 L 13.453125 24.007812 L 14.179688 24.007812 Z M 12.589844 29.972656 "/>
<path style=" stroke:none;fill-rule:nonzero;fill:rgb(13.333334%,13.333334%,13.333334%);fill-opacity:1;" d="M 18.378906 28.375 C 18.402344 28.851562 18.195312 29.3125 17.824219 29.601562 C 17.378906 29.917969 16.84375 30.070312 16.304688 30.042969 C 15.761719 30.070312 15.214844 29.976562 14.707031 29.765625 L 14.707031 29.09375 C 14.960938 29.203125 15.222656 29.285156 15.488281 29.335938 C 15.765625 29.394531 16.046875 29.425781 16.328125 29.429688 C 16.6875 29.457031 17.042969 29.363281 17.347656 29.164062 C 17.574219 28.992188 17.699219 28.71875 17.6875 28.433594 C 17.695312 28.253906 17.652344 28.078125 17.5625 27.921875 C 17.457031 27.769531 17.316406 27.640625 17.15625 27.550781 C 16.875 27.398438 16.582031 27.269531 16.28125 27.167969 C 15.84375 27.035156 15.441406 26.792969 15.113281 26.464844 C 14.871094 26.164062 14.746094 25.78125 14.765625 25.394531 C 14.75 24.964844 14.9375 24.550781 15.273438 24.292969 C 15.664062 24 16.140625 23.859375 16.621094 23.886719 C 17.175781 23.878906 17.722656 23.988281 18.230469 24.210938 L 18.015625 24.816406 C 17.574219 24.613281 17.097656 24.507812 16.613281 24.5 C 16.3125 24.484375 16.015625 24.566406 15.761719 24.734375 C 15.5625 24.890625 15.449219 25.136719 15.457031 25.390625 C 15.445312 25.570312 15.484375 25.746094 15.570312 25.902344 C 15.664062 26.050781 15.792969 26.171875 15.945312 26.261719 C 16.203125 26.410156 16.476562 26.535156 16.757812 26.632812 C 17.230469 26.773438 17.664062 27.019531 18.027344 27.351562 C 18.265625 27.636719 18.390625 28 18.378906 28.375 Z M 18.378906 28.375 "/>
<path style=" stroke:none;fill-rule:nonzero;fill:rgb(0%,0%,0%);fill-opacity:1;" d="M 4.558594 39.921875 L 1.488281 39.921875 L 1.488281 34.289062 L 4.558594 34.289062 L 4.558594 34.867188 L 2.132812 34.867188 L 2.132812 36.675781 L 4.410156 36.675781 L 4.410156 37.253906 L 2.132812 37.253906 L 2.132812 39.332031 L 4.558594 39.332031 Z M 4.558594 39.921875 "/>
<path style=" stroke:none;fill-rule:nonzero;fill:rgb(0%,0%,0%);fill-opacity:1;" d="M 6.316406 39.921875 L 5.691406 39.921875 L 5.691406 33.929688 L 6.316406 33.929688 Z M 6.316406 39.921875 "/>
<path style=" stroke:none;fill-rule:nonzero;fill:rgb(0%,0%,0%);fill-opacity:1;" d="M 10.164062 39.921875 L 10.042969 39.320312 L 10.007812 39.320312 C 9.847656 39.542969 9.640625 39.726562 9.394531 39.851562 C 9.152344 39.953125 8.890625 40 8.625 39.992188 C 8.277344 40.015625 7.929688 39.898438 7.664062 39.667969 C 7.421875 39.429688 7.296875 39.09375 7.3125 38.753906 C 7.3125 37.894531 7.980469 37.453125 9.304688 37.40625 L 10.007812 37.382812 L 10.007812 37.128906 C 10.03125 36.867188 9.957031 36.609375 9.804688 36.398438 C 9.625 36.226562 9.378906 36.140625 9.136719 36.167969 C 8.726562 36.183594 8.328125 36.292969 7.96875 36.492188 L 7.777344 36.003906 C 7.988281 35.890625 8.210938 35.800781 8.445312 35.738281 C 8.679688 35.671875 8.925781 35.640625 9.167969 35.644531 C 9.558594 35.613281 9.949219 35.730469 10.257812 35.980469 C 10.519531 36.273438 10.644531 36.664062 10.609375 37.058594 L 10.609375 39.933594 L 10.167969 39.933594 Z M 8.761719 39.46875 C 9.097656 39.488281 9.429688 39.371094 9.679688 39.144531 C 9.914062 38.902344 10.03125 38.566406 10.007812 38.230469 L 10.007812 37.847656 L 9.386719 37.871094 C 9.015625 37.859375 8.644531 37.9375 8.308594 38.101562 C 8.09375 38.242188 7.96875 38.488281 7.980469 38.75 C 7.96875 38.949219 8.042969 39.140625 8.1875 39.273438 C 8.34375 39.414062 8.550781 39.488281 8.761719 39.46875 Z M 8.761719 39.46875 "/>
<path style=" stroke:none;fill-rule:nonzero;fill:rgb(0%,0%,0%);fill-opacity:1;" d="M 14.574219 38.761719 C 14.589844 39.121094 14.425781 39.460938 14.140625 39.667969 C 13.785156 39.898438 13.363281 40.011719 12.941406 39.992188 C 12.5 40.011719 12.058594 39.921875 11.660156 39.726562 L 11.660156 39.132812 C 11.863281 39.242188 12.074219 39.320312 12.296875 39.375 C 12.511719 39.4375 12.730469 39.46875 12.953125 39.472656 C 13.210938 39.484375 13.46875 39.429688 13.699219 39.308594 C 13.871094 39.210938 13.96875 39.019531 13.960938 38.820312 C 13.960938 38.65625 13.886719 38.503906 13.757812 38.402344 C 13.507812 38.226562 13.230469 38.085938 12.941406 37.988281 C 12.660156 37.886719 12.386719 37.757812 12.125 37.605469 C 11.980469 37.511719 11.855469 37.382812 11.765625 37.234375 C 11.683594 37.082031 11.644531 36.910156 11.652344 36.734375 C 11.640625 36.410156 11.792969 36.105469 12.058594 35.921875 C 12.394531 35.707031 12.785156 35.601562 13.179688 35.621094 C 13.628906 35.625 14.070312 35.71875 14.484375 35.898438 L 14.257812 36.421875 C 13.902344 36.261719 13.523438 36.171875 13.132812 36.15625 C 12.902344 36.140625 12.671875 36.191406 12.464844 36.296875 C 12.324219 36.375 12.238281 36.527344 12.238281 36.691406 C 12.234375 36.792969 12.261719 36.894531 12.320312 36.980469 C 12.394531 37.074219 12.488281 37.152344 12.589844 37.210938 C 12.824219 37.332031 13.066406 37.4375 13.316406 37.527344 C 13.679688 37.644531 14.015625 37.828125 14.3125 38.070312 C 14.488281 38.253906 14.582031 38.503906 14.574219 38.761719 Z M 14.574219 38.761719 "/>
<path style=" stroke:none;fill-rule:nonzero;fill:rgb(0%,0%,0%);fill-opacity:1;" d="M 16.929688 39.46875 C 17.035156 39.46875 17.140625 39.460938 17.246094 39.445312 C 17.347656 39.433594 17.425781 39.410156 17.496094 39.398438 L 17.496094 39.886719 C 17.398438 39.925781 17.300781 39.953125 17.199219 39.96875 C 17.085938 39.988281 16.964844 40 16.847656 40 C 16.054688 40 15.648438 39.574219 15.648438 38.714844 L 15.648438 36.199219 L 15.058594 36.199219 L 15.058594 35.886719 L 15.648438 35.621094 L 15.910156 34.714844 L 16.269531 34.714844 L 16.269531 35.6875 L 17.472656 35.6875 L 17.472656 36.1875 L 16.269531 36.1875 L 16.269531 38.667969 C 16.253906 38.878906 16.320312 39.089844 16.453125 39.25 C 16.5625 39.402344 16.742188 39.484375 16.929688 39.46875 Z M 16.929688 39.46875 "/>
<path style=" stroke:none;fill-rule:nonzero;fill:rgb(0%,0%,0%);fill-opacity:1;" d="M 18.265625 34.554688 C 18.253906 34.4375 18.292969 34.320312 18.367188 34.230469 C 18.4375 34.160156 18.53125 34.121094 18.628906 34.125 C 18.722656 34.125 18.816406 34.160156 18.886719 34.230469 C 19.039062 34.417969 19.039062 34.691406 18.886719 34.878906 C 18.742188 35.019531 18.515625 35.019531 18.367188 34.878906 C 18.292969 34.789062 18.257812 34.671875 18.265625 34.554688 Z M 18.933594 39.921875 L 18.3125 39.921875 L 18.3125 35.703125 L 18.933594 35.703125 Z M 18.933594 39.921875 "/>
<path style=" stroke:none;fill-rule:nonzero;fill:rgb(0%,0%,0%);fill-opacity:1;" d="M 21.910156 39.992188 C 21.390625 40.023438 20.882812 39.816406 20.53125 39.421875 C 20.175781 38.96875 20.003906 38.398438 20.042969 37.820312 C 20.007812 37.230469 20.183594 36.648438 20.542969 36.1875 C 20.90625 35.785156 21.425781 35.574219 21.957031 35.605469 C 22.15625 35.605469 22.351562 35.628906 22.546875 35.675781 C 22.707031 35.707031 22.859375 35.757812 23.011719 35.828125 L 22.816406 36.371094 C 22.671875 36.308594 22.519531 36.261719 22.363281 36.230469 C 22.222656 36.195312 22.078125 36.175781 21.933594 36.171875 C 21.097656 36.171875 20.675781 36.71875 20.675781 37.808594 C 20.652344 38.226562 20.757812 38.648438 20.984375 39 C 21.199219 39.285156 21.539062 39.441406 21.890625 39.417969 C 22.25 39.410156 22.609375 39.332031 22.941406 39.1875 L 22.941406 39.753906 C 22.625 39.925781 22.269531 40.007812 21.910156 39.992188 Z M 21.910156 39.992188 "/>
<path style=" stroke:none;fill-rule:nonzero;fill:rgb(0%,0%,0%);fill-opacity:1;" d="M 26.464844 39.921875 L 26.339844 39.320312 L 26.304688 39.320312 C 26.148438 39.542969 25.9375 39.726562 25.695312 39.851562 C 25.449219 39.953125 25.1875 40 24.925781 39.992188 C 24.574219 40.015625 24.230469 39.898438 23.960938 39.667969 C 23.722656 39.429688 23.59375 39.09375 23.609375 38.753906 C 23.609375 37.894531 24.277344 37.453125 25.605469 37.40625 L 26.304688 37.382812 L 26.304688 37.128906 C 26.328125 36.867188 26.257812 36.609375 26.101562 36.398438 C 25.925781 36.226562 25.679688 36.140625 25.433594 36.167969 C 25.027344 36.183594 24.628906 36.292969 24.269531 36.492188 L 24.074219 36.003906 C 24.289062 35.890625 24.511719 35.800781 24.742188 35.738281 C 24.980469 35.671875 25.222656 35.640625 25.46875 35.644531 C 25.859375 35.613281 26.246094 35.730469 26.554688 35.980469 C 26.816406 36.273438 26.945312 36.664062 26.90625 37.058594 L 26.90625 39.933594 L 26.464844 39.933594 Z M 25.050781 39.46875 C 25.386719 39.488281 25.714844 39.371094 25.96875 39.144531 C 26.199219 38.902344 26.320312 38.566406 26.296875 38.230469 L 26.296875 37.847656 L 25.675781 37.871094 C 25.300781 37.859375 24.933594 37.9375 24.597656 38.101562 C 24.382812 38.242188 24.257812 38.488281 24.269531 38.75 C 24.253906 38.949219 24.332031 39.140625 24.472656 39.273438 C 24.632812 39.410156 24.839844 39.484375 25.050781 39.46875 Z M 25.050781 39.46875 "/>
<path style=" stroke:none;fill-rule:nonzero;fill:rgb(0%,0%,0%);fill-opacity:1;" d="M 29.863281 39.992188 C 29.339844 40.023438 28.832031 39.816406 28.480469 39.421875 C 28.128906 38.96875 27.953125 38.398438 27.992188 37.820312 C 27.957031 37.230469 28.136719 36.648438 28.492188 36.1875 C 28.855469 35.785156 29.375 35.574219 29.90625 35.605469 C 30.105469 35.605469 30.304688 35.628906 30.496094 35.675781 C 30.65625 35.707031 30.8125 35.757812 30.960938 35.828125 L 30.769531 36.371094 C 30.621094 36.308594 30.472656 36.261719 30.316406 36.230469 C 30.175781 36.195312 30.03125 36.175781 29.886719 36.171875 C 29.046875 36.171875 28.628906 36.71875 28.628906 37.808594 C 28.601562 38.226562 28.707031 38.648438 28.933594 39 C 29.152344 39.285156 29.488281 39.441406 29.839844 39.417969 C 30.203125 39.410156 30.5625 39.332031 30.894531 39.1875 L 30.894531 39.753906 C 30.578125 39.925781 30.222656 40.007812 29.863281 39.992188 Z M 29.863281 39.992188 "/>
<path style=" stroke:none;fill-rule:nonzero;fill:rgb(0%,0%,0%);fill-opacity:1;" d="M 34.699219 39.921875 L 34.699219 37.195312 C 34.71875 36.921875 34.640625 36.648438 34.472656 36.433594 C 34.28125 36.246094 34.019531 36.15625 33.757812 36.175781 C 33.40625 36.144531 33.054688 36.277344 32.808594 36.535156 C 32.578125 36.882812 32.472656 37.300781 32.511719 37.71875 L 32.511719 39.921875 L 31.890625 39.921875 L 31.890625 33.929688 L 32.511719 33.929688 L 32.511719 35.738281 C 32.515625 35.917969 32.503906 36.101562 32.480469 36.28125 L 32.511719 36.28125 C 32.640625 36.078125 32.820312 35.914062 33.035156 35.804688 C 33.277344 35.6875 33.546875 35.625 33.816406 35.632812 C 34.226562 35.601562 34.632812 35.734375 34.949219 36.003906 C 35.222656 36.324219 35.359375 36.746094 35.320312 37.171875 L 35.320312 39.921875 Z M 34.699219 39.921875 "/>
<path style=" stroke:none;fill-rule:nonzero;fill:rgb(0%,0%,0%);fill-opacity:1;" d="M 38.347656 39.992188 C 37.808594 40.023438 37.285156 39.816406 36.90625 39.421875 C 36.535156 38.988281 36.34375 38.421875 36.375 37.847656 C 36.34375 37.261719 36.515625 36.6875 36.863281 36.222656 C 37.183594 35.824219 37.671875 35.601562 38.175781 35.621094 C 38.640625 35.597656 39.089844 35.789062 39.398438 36.144531 C 39.714844 36.527344 39.878906 37.019531 39.851562 37.523438 L 39.851562 37.929688 L 37.011719 37.929688 C 36.992188 38.335938 37.121094 38.734375 37.371094 39.050781 C 37.628906 39.320312 37.992188 39.460938 38.359375 39.433594 C 38.8125 39.433594 39.257812 39.335938 39.671875 39.144531 L 39.671875 39.714844 C 39.46875 39.800781 39.261719 39.871094 39.046875 39.921875 C 38.816406 39.972656 38.582031 39.996094 38.347656 39.992188 Z M 38.175781 36.152344 C 37.875 36.140625 37.585938 36.265625 37.382812 36.488281 C 37.171875 36.746094 37.046875 37.070312 37.03125 37.40625 L 39.183594 37.40625 C 39.203125 37.074219 39.113281 36.746094 38.921875 36.476562 C 38.738281 36.253906 38.460938 36.132812 38.175781 36.152344 Z M 38.175781 36.152344 "/>
</g>
</svg>
