<?xml version="1.0" encoding="UTF-8"?>
<svg xmlns="http://www.w3.org/2000/svg" xmlns:xlink="http://www.w3.org/1999/xlink" width="40px" height="40px" viewBox="0 0 40 40" version="1.1">
<defs>
<radialGradient id="radial0" gradientUnits="userSpaceOnUse" cx="0.495" cy="0.489" fx="0.495" fy="0.489" r="0.504" gradientTransform="matrix(18.09375,0,0,-22.406485,10.308594,152.941497)">
<stop offset="0.18" style="stop-color:rgb(36.862745%,62.745098%,93.72549%);stop-opacity:1;"/>
<stop offset="1" style="stop-color:rgb(0%,47.058824%,83.137255%);stop-opacity:1;"/>
</radialGradient>
<clipPath id="clip1">
  <path d="M 10 14 L 17 14 L 17 24 L 10 24 Z M 10 14 "/>
</clipPath>
<clipPath id="clip2">
  <path d="M 28.402344 13.066406 C 29.59375 19.226562 26.507812 25.414062 21.511719 26.882812 C 16.515625 28.347656 11.5 24.546875 10.308594 18.382812 C 9.117188 12.222656 12.199219 6.035156 17.195312 4.566406 C 22.195312 3.09375 27.214844 6.898438 28.402344 13.066406 Z M 28.402344 13.066406 "/>
</clipPath>
<clipPath id="clip3">
  <path d="M 19 7 L 29 7 L 29 18 L 19 18 Z M 19 7 "/>
</clipPath>
<clipPath id="clip4">
  <path d="M 28.402344 13.066406 C 29.59375 19.226562 26.507812 25.414062 21.511719 26.882812 C 16.515625 28.347656 11.5 24.546875 10.308594 18.382812 C 9.117188 12.222656 12.199219 6.035156 17.195312 4.566406 C 22.195312 3.09375 27.214844 6.898438 28.402344 13.066406 Z M 28.402344 13.066406 "/>
</clipPath>
</defs>
<g id="surface1">
<path style=" stroke:none;fill-rule:nonzero;fill:rgb(27.450982%,31.764707%,32.941177%);fill-opacity:1;" d="M 3.285156 39.785156 L 2.644531 39.785156 L 2.328125 38.675781 L 0.941406 38.675781 L 0.636719 39.785156 L 0 39.785156 L 1.316406 35.433594 L 1.976562 35.433594 Z M 2.171875 38.089844 L 1.683594 36.355469 C 1.664062 36.269531 1.648438 36.183594 1.636719 36.09375 L 1.625 36.09375 C 1.617188 36.1875 1.601562 36.277344 1.578125 36.367188 L 1.09375 38.089844 Z M 2.171875 38.089844 "/>
<path style=" stroke:none;fill-rule:nonzero;fill:rgb(27.450982%,31.764707%,32.941177%);fill-opacity:1;" d="M 5.6875 36.980469 L 4.328125 39.242188 L 5.679688 39.242188 L 5.679688 39.789062 L 3.527344 39.789062 L 3.527344 39.523438 L 4.914062 37.234375 L 3.65625 37.234375 L 3.65625 36.6875 L 5.6875 36.6875 Z M 5.6875 36.980469 "/>
<path style=" stroke:none;fill-rule:nonzero;fill:rgb(27.450982%,31.764707%,32.941177%);fill-opacity:1;" d="M 8.324219 39.785156 L 7.757812 39.785156 L 7.757812 39.292969 L 7.746094 39.292969 C 7.605469 39.65625 7.300781 39.878906 6.976562 39.863281 C 6.378906 39.863281 6.078125 39.417969 6.078125 38.53125 L 6.078125 36.679688 L 6.648438 36.679688 L 6.648438 38.449219 C 6.648438 39.007812 6.820312 39.285156 7.167969 39.285156 C 7.328125 39.292969 7.480469 39.210938 7.585938 39.0625 C 7.699219 38.894531 7.757812 38.679688 7.75 38.460938 L 7.75 36.679688 L 8.316406 36.679688 Z M 8.324219 39.785156 "/>
<path style=" stroke:none;fill-rule:nonzero;fill:rgb(27.450982%,31.764707%,32.941177%);fill-opacity:1;" d="M 10.457031 37.351562 C 10.371094 37.277344 10.265625 37.242188 10.160156 37.253906 C 9.992188 37.253906 9.832031 37.359375 9.738281 37.535156 C 9.617188 37.761719 9.558594 38.027344 9.570312 38.300781 L 9.570312 39.785156 L 9 39.785156 L 9 36.683594 L 9.570312 36.683594 L 9.570312 37.320312 L 9.578125 37.320312 C 9.621094 37.125 9.710938 36.949219 9.835938 36.8125 C 9.941406 36.695312 10.078125 36.628906 10.21875 36.628906 C 10.300781 36.621094 10.382812 36.644531 10.457031 36.6875 Z M 10.457031 37.351562 "/>
<path style=" stroke:none;fill-rule:nonzero;fill:rgb(27.450982%,31.764707%,32.941177%);fill-opacity:1;" d="M 12.980469 38.421875 L 11.265625 38.421875 C 11.261719 38.671875 11.339844 38.914062 11.484375 39.089844 C 11.640625 39.253906 11.84375 39.335938 12.046875 39.320312 C 12.3125 39.320312 12.574219 39.21875 12.785156 39.023438 L 12.785156 39.589844 C 12.511719 39.78125 12.195312 39.875 11.878906 39.855469 C 11.550781 39.878906 11.234375 39.726562 11.007812 39.433594 C 10.78125 39.101562 10.667969 38.675781 10.691406 38.246094 C 10.675781 37.808594 10.800781 37.386719 11.039062 37.0625 C 11.257812 36.765625 11.574219 36.597656 11.902344 36.609375 C 12.207031 36.585938 12.5 36.738281 12.699219 37.019531 C 12.902344 37.34375 13.003906 37.746094 12.980469 38.152344 Z M 12.429688 37.925781 C 12.4375 37.714844 12.386719 37.507812 12.285156 37.339844 C 12.191406 37.191406 12.046875 37.109375 11.894531 37.117188 C 11.734375 37.113281 11.582031 37.195312 11.476562 37.339844 C 11.359375 37.5 11.285156 37.699219 11.265625 37.917969 Z M 12.429688 37.925781 "/>
<path style=" stroke:none;fill-rule:nonzero;fill:rgb(27.450982%,31.764707%,32.941177%);fill-opacity:1;" d="M 17.417969 39.601562 C 17.109375 39.785156 16.773438 39.871094 16.433594 39.863281 C 15.976562 39.886719 15.527344 39.671875 15.207031 39.265625 C 14.890625 38.839844 14.722656 38.277344 14.746094 37.699219 C 14.722656 37.074219 14.910156 36.464844 15.265625 36.015625 C 15.609375 35.589844 16.085938 35.355469 16.578125 35.375 C 16.867188 35.363281 17.152344 35.421875 17.421875 35.550781 L 17.421875 36.265625 C 17.1875 36.09375 16.914062 36.003906 16.640625 36.007812 C 16.292969 35.988281 15.957031 36.148438 15.710938 36.449219 C 15.464844 36.777344 15.335938 37.210938 15.351562 37.65625 C 15.335938 38.074219 15.457031 38.488281 15.683594 38.796875 C 15.914062 39.085938 16.230469 39.238281 16.554688 39.222656 C 16.859375 39.234375 17.15625 39.132812 17.414062 38.9375 Z M 17.417969 39.601562 "/>
<path style=" stroke:none;fill-rule:nonzero;fill:rgb(27.450982%,31.764707%,32.941177%);fill-opacity:1;" d="M 19.070312 39.863281 C 18.722656 39.878906 18.386719 39.71875 18.140625 39.417969 C 17.902344 39.105469 17.777344 38.691406 17.792969 38.265625 C 17.761719 37.816406 17.894531 37.371094 18.152344 37.054688 C 18.410156 36.734375 18.769531 36.570312 19.132812 36.609375 C 19.472656 36.585938 19.804688 36.738281 20.050781 37.035156 C 20.28125 37.363281 20.398438 37.789062 20.378906 38.222656 C 20.394531 38.660156 20.261719 39.089844 20.019531 39.410156 C 19.765625 39.71875 19.421875 39.878906 19.070312 39.863281 Z M 19.09375 37.175781 C 18.894531 37.164062 18.699219 37.269531 18.566406 37.464844 C 18.429688 37.691406 18.359375 37.972656 18.375 38.257812 C 18.359375 38.53125 18.429688 38.804688 18.570312 39.023438 C 18.699219 39.210938 18.894531 39.3125 19.09375 39.304688 C 19.292969 39.316406 19.484375 39.214844 19.613281 39.027344 C 19.742188 38.800781 19.808594 38.523438 19.792969 38.246094 C 19.808594 37.964844 19.742188 37.683594 19.613281 37.453125 C 19.488281 37.261719 19.292969 37.15625 19.09375 37.171875 Z M 19.09375 37.175781 "/>
<path style=" stroke:none;fill-rule:nonzero;fill:rgb(27.450982%,31.764707%,32.941177%);fill-opacity:1;" d="M 20.769531 39.6875 L 20.769531 39.035156 C 20.96875 39.230469 21.21875 39.335938 21.472656 39.335938 C 21.816406 39.335938 21.988281 39.207031 21.988281 38.957031 C 21.988281 38.894531 21.972656 38.832031 21.941406 38.78125 C 21.910156 38.726562 21.871094 38.683594 21.824219 38.648438 C 21.765625 38.609375 21.707031 38.574219 21.644531 38.546875 L 21.417969 38.445312 C 21.320312 38.398438 21.230469 38.347656 21.140625 38.285156 C 21.0625 38.234375 20.992188 38.171875 20.933594 38.09375 C 20.878906 38.023438 20.835938 37.941406 20.808594 37.851562 C 20.78125 37.746094 20.765625 37.640625 20.765625 37.53125 C 20.765625 37.390625 20.796875 37.253906 20.855469 37.136719 C 20.914062 37.019531 20.992188 36.921875 21.085938 36.847656 C 21.1875 36.769531 21.296875 36.710938 21.414062 36.671875 C 21.539062 36.632812 21.667969 36.613281 21.792969 36.613281 C 22.007812 36.609375 22.21875 36.652344 22.417969 36.742188 L 22.417969 37.359375 C 22.238281 37.210938 22.027344 37.132812 21.808594 37.136719 C 21.742188 37.136719 21.675781 37.144531 21.613281 37.164062 C 21.5625 37.179688 21.511719 37.203125 21.464844 37.238281 C 21.425781 37.269531 21.394531 37.308594 21.367188 37.355469 C 21.347656 37.402344 21.335938 37.453125 21.335938 37.507812 C 21.332031 37.566406 21.34375 37.625 21.367188 37.679688 C 21.394531 37.726562 21.429688 37.769531 21.472656 37.800781 C 21.523438 37.839844 21.578125 37.871094 21.632812 37.898438 L 21.847656 37.992188 C 21.949219 38.042969 22.046875 38.097656 22.140625 38.160156 C 22.21875 38.210938 22.292969 38.273438 22.359375 38.351562 C 22.417969 38.421875 22.464844 38.503906 22.5 38.597656 C 22.535156 38.703125 22.550781 38.820312 22.546875 38.933594 C 22.550781 39.078125 22.519531 39.21875 22.460938 39.34375 C 22.398438 39.460938 22.320312 39.5625 22.222656 39.636719 C 22.121094 39.714844 22.003906 39.773438 21.886719 39.804688 C 21.753906 39.84375 21.617188 39.863281 21.480469 39.863281 C 21.234375 39.867188 20.992188 39.808594 20.765625 39.6875 Z M 20.769531 39.6875 "/>
<path style=" stroke:none;fill-rule:nonzero;fill:rgb(27.450982%,31.764707%,32.941177%);fill-opacity:1;" d="M 26.804688 39.785156 L 26.238281 39.785156 L 26.238281 38.089844 C 26.25 37.847656 26.214844 37.601562 26.125 37.382812 C 26.042969 37.230469 25.898438 37.144531 25.75 37.160156 C 25.59375 37.167969 25.449219 37.269531 25.371094 37.4375 C 25.261719 37.632812 25.207031 37.863281 25.214844 38.101562 L 25.214844 39.773438 L 24.640625 39.773438 L 24.640625 38.027344 C 24.640625 37.449219 24.476562 37.164062 24.144531 37.164062 C 23.992188 37.164062 23.847656 37.261719 23.765625 37.421875 C 23.664062 37.621094 23.609375 37.851562 23.617188 38.089844 L 23.617188 39.765625 L 23.046875 39.765625 L 23.046875 36.664062 L 23.617188 36.664062 L 23.617188 37.152344 L 23.625 37.152344 C 23.78125 36.796875 24.089844 36.578125 24.417969 36.589844 C 24.582031 36.585938 24.742188 36.648438 24.875 36.769531 C 25.003906 36.882812 25.09375 37.046875 25.140625 37.234375 C 25.289062 36.832031 25.617188 36.582031 25.976562 36.589844 C 26.527344 36.589844 26.804688 37.011719 26.804688 37.851562 Z M 26.804688 39.785156 "/>
<path style=" stroke:none;fill-rule:nonzero;fill:rgb(27.450982%,31.764707%,32.941177%);fill-opacity:1;" d="M 28.578125 39.863281 C 28.234375 39.878906 27.898438 39.71875 27.652344 39.417969 C 27.414062 39.105469 27.289062 38.691406 27.304688 38.265625 C 27.273438 37.816406 27.402344 37.371094 27.660156 37.050781 C 27.917969 36.734375 28.277344 36.570312 28.640625 36.605469 C 28.984375 36.582031 29.316406 36.738281 29.558594 37.035156 C 29.792969 37.359375 29.910156 37.785156 29.886719 38.21875 C 29.902344 38.660156 29.773438 39.089844 29.527344 39.410156 C 29.277344 39.714844 28.933594 39.878906 28.578125 39.863281 Z M 28.605469 37.175781 C 28.402344 37.164062 28.207031 37.269531 28.078125 37.464844 C 27.941406 37.691406 27.871094 37.972656 27.886719 38.257812 C 27.871094 38.53125 27.941406 38.804688 28.082031 39.023438 C 28.210938 39.210938 28.40625 39.3125 28.605469 39.304688 C 28.804688 39.316406 28.996094 39.214844 29.125 39.027344 C 29.253906 38.800781 29.320312 38.523438 29.304688 38.246094 C 29.320312 37.964844 29.253906 37.683594 29.125 37.453125 C 29 37.261719 28.804688 37.15625 28.605469 37.171875 Z M 28.605469 37.175781 "/>
<path style=" stroke:none;fill-rule:nonzero;fill:rgb(27.450982%,31.764707%,32.941177%);fill-opacity:1;" d="M 30.285156 39.6875 L 30.285156 39.035156 C 30.484375 39.230469 30.730469 39.335938 30.988281 39.335938 C 31.332031 39.335938 31.503906 39.207031 31.503906 38.957031 C 31.503906 38.894531 31.488281 38.832031 31.457031 38.78125 C 31.425781 38.726562 31.382812 38.683594 31.339844 38.648438 C 31.28125 38.609375 31.222656 38.574219 31.160156 38.546875 L 30.933594 38.445312 C 30.835938 38.398438 30.742188 38.347656 30.652344 38.285156 C 30.578125 38.234375 30.507812 38.171875 30.449219 38.09375 C 30.394531 38.023438 30.351562 37.941406 30.324219 37.851562 C 30.292969 37.746094 30.28125 37.640625 30.28125 37.53125 C 30.28125 37.390625 30.308594 37.253906 30.367188 37.136719 C 30.425781 37.019531 30.507812 36.921875 30.601562 36.847656 C 30.699219 36.769531 30.8125 36.710938 30.929688 36.671875 C 31.054688 36.632812 31.179688 36.613281 31.308594 36.613281 C 31.523438 36.609375 31.734375 36.652344 31.933594 36.746094 L 31.933594 37.359375 C 31.753906 37.210938 31.539062 37.132812 31.324219 37.136719 C 31.257812 37.136719 31.191406 37.144531 31.128906 37.164062 C 31.074219 37.179688 31.023438 37.203125 30.980469 37.238281 C 30.941406 37.269531 30.90625 37.308594 30.882812 37.355469 C 30.859375 37.402344 30.847656 37.453125 30.847656 37.507812 C 30.847656 37.566406 30.859375 37.625 30.882812 37.679688 C 30.910156 37.726562 30.945312 37.769531 30.984375 37.800781 C 31.035156 37.839844 31.089844 37.871094 31.148438 37.898438 L 31.363281 37.992188 C 31.460938 38.042969 31.558594 38.097656 31.65625 38.160156 C 31.734375 38.210938 31.808594 38.273438 31.875 38.351562 C 31.933594 38.421875 31.980469 38.507812 32.015625 38.597656 C 32.046875 38.707031 32.066406 38.820312 32.0625 38.933594 C 32.066406 39.078125 32.035156 39.222656 31.972656 39.347656 C 31.914062 39.464844 31.835938 39.5625 31.738281 39.636719 C 31.632812 39.714844 31.519531 39.773438 31.398438 39.808594 C 31.265625 39.84375 31.128906 39.863281 30.992188 39.863281 C 30.75 39.867188 30.507812 39.808594 30.285156 39.6875 Z M 30.285156 39.6875 "/>
<path style=" stroke:none;fill-rule:nonzero;fill:rgb(27.450982%,31.764707%,32.941177%);fill-opacity:1;" d="M 34.054688 39.785156 L 34.054688 35.433594 L 35.070312 35.433594 C 36.367188 35.433594 37.015625 36.136719 37.015625 37.550781 C 37.035156 38.160156 36.839844 38.746094 36.476562 39.164062 C 36.074219 39.589844 35.558594 39.804688 35.027344 39.773438 Z M 34.636719 36.054688 L 34.636719 39.175781 L 35.105469 39.175781 C 35.457031 39.203125 35.800781 39.050781 36.0625 38.757812 C 36.304688 38.4375 36.429688 38.011719 36.40625 37.578125 C 36.40625 36.5625 35.980469 36.054688 35.128906 36.054688 Z M 34.636719 36.054688 "/>
<path style=" stroke:none;fill-rule:nonzero;fill:rgb(27.450982%,31.764707%,32.941177%);fill-opacity:1;" d="M 37.589844 39.785156 L 37.589844 35.433594 L 38.707031 35.433594 C 38.992188 35.414062 39.277344 35.507812 39.515625 35.707031 C 39.703125 35.871094 39.816406 36.136719 39.8125 36.425781 C 39.816406 36.65625 39.757812 36.882812 39.644531 37.066406 C 39.523438 37.253906 39.359375 37.390625 39.175781 37.453125 L 39.175781 37.464844 C 39.394531 37.488281 39.601562 37.605469 39.753906 37.796875 C 39.902344 37.996094 39.980469 38.257812 39.972656 38.523438 C 39.976562 38.878906 39.84375 39.214844 39.609375 39.425781 C 39.351562 39.664062 39.035156 39.785156 38.714844 39.773438 Z M 38.171875 36.019531 L 38.171875 37.253906 L 38.550781 37.253906 C 38.722656 37.269531 38.890625 37.203125 39.027344 37.078125 C 39.148438 36.953125 39.214844 36.769531 39.207031 36.578125 C 39.207031 36.203125 39.007812 36.019531 38.605469 36.019531 Z M 38.171875 37.832031 L 38.171875 39.195312 L 38.671875 39.195312 C 38.851562 39.210938 39.03125 39.144531 39.175781 39.011719 C 39.296875 38.882812 39.363281 38.691406 39.355469 38.496094 C 39.355469 38.054688 39.101562 37.832031 38.597656 37.832031 Z M 38.171875 37.832031 "/>
<path style=" stroke:none;fill-rule:nonzero;fill:rgb(31.37255%,90.196079%,100%);fill-opacity:1;" d="M 10.191406 8.828125 C 10.121094 8.828125 10.054688 8.792969 10.003906 8.734375 C 9.953125 8.671875 9.925781 8.589844 9.925781 8.5 C 9.925781 6.421875 8.558594 4.738281 6.871094 4.738281 C 6.726562 4.738281 6.605469 4.589844 6.605469 4.410156 C 6.605469 4.226562 6.726562 4.078125 6.871094 4.078125 C 8.558594 4.078125 9.925781 2.394531 9.925781 0.316406 C 9.929688 0.136719 10.046875 0 10.191406 0 C 10.339844 0 10.457031 0.144531 10.457031 0.324219 C 10.457031 2.40625 11.824219 4.089844 13.511719 4.089844 C 13.65625 4.089844 13.777344 4.234375 13.777344 4.414062 C 13.78125 4.597656 13.660156 4.742188 13.515625 4.746094 C 11.828125 4.746094 10.460938 6.429688 10.460938 8.507812 C 10.457031 8.6875 10.335938 8.828125 10.191406 8.828125 Z M 10.191406 8.828125 "/>
<path style=" stroke:none;fill-rule:nonzero;fill:rgb(31.37255%,90.196079%,100%);fill-opacity:1;" d="M 29.375 31.609375 C 29.257812 31.609375 29.160156 31.492188 29.160156 31.347656 C 29.15625 29.691406 28.070312 28.347656 26.726562 28.347656 C 26.609375 28.347656 26.511719 28.230469 26.511719 28.085938 C 26.511719 27.9375 26.609375 27.820312 26.726562 27.820312 C 28.070312 27.820312 29.160156 26.476562 29.160156 24.820312 C 29.160156 24.671875 29.257812 24.554688 29.375 24.554688 C 29.492188 24.554688 29.585938 24.671875 29.585938 24.820312 C 29.589844 26.476562 30.679688 27.820312 32.023438 27.820312 C 32.140625 27.820312 32.234375 27.9375 32.234375 28.085938 C 32.234375 28.230469 32.140625 28.347656 32.023438 28.347656 C 30.679688 28.351562 29.589844 29.695312 29.585938 31.351562 C 29.585938 31.496094 29.492188 31.609375 29.375 31.609375 Z M 29.375 31.609375 "/>
<path style=" stroke:none;fill-rule:nonzero;fill:url(#radial0);" d="M 28.402344 13.066406 C 29.59375 19.226562 26.507812 25.414062 21.511719 26.882812 C 16.515625 28.347656 11.5 24.546875 10.308594 18.382812 C 9.117188 12.222656 12.199219 6.035156 17.195312 4.566406 C 22.195312 3.09375 27.214844 6.898438 28.402344 13.066406 Z M 28.402344 13.066406 "/>
<g clip-path="url(#clip1)" clip-rule="nonzero">
<g clip-path="url(#clip2)" clip-rule="nonzero">
<path style=" stroke:none;fill-rule:nonzero;fill:rgb(94.901961%,94.901961%,94.901961%);fill-opacity:1;" d="M 14.363281 23.496094 C 15.707031 23.492188 16.804688 22.171875 16.839844 20.511719 C 16.875 18.855469 15.835938 17.464844 14.492188 17.375 L 14.371094 17.375 C 14.378906 17.289062 14.382812 17.199219 14.382812 17.113281 C 14.371094 15.414062 13.246094 14.046875 11.867188 14.054688 L 10.011719 14.054688 C 9.640625 17.488281 10.527344 20.945312 12.425781 23.496094 Z M 14.363281 23.496094 "/>
</g>
</g>
<g clip-path="url(#clip3)" clip-rule="nonzero">
<g clip-path="url(#clip4)" clip-rule="nonzero">
<path style=" stroke:none;fill-rule:nonzero;fill:rgb(94.901961%,94.901961%,94.901961%);fill-opacity:1;" d="M 28.519531 13.589844 C 28.207031 11.507812 27.46875 9.648438 26.375 8.125 C 26.234375 8.054688 26.085938 7.996094 25.9375 7.957031 C 25.128906 7.667969 24.253906 7.855469 23.574219 8.464844 C 22.890625 9.070312 22.472656 10.035156 22.441406 11.074219 C 22.339844 11.058594 22.238281 11.050781 22.136719 11.046875 C 20.851562 11.042969 19.75 12.179688 19.535156 13.742188 C 19.316406 15.304688 20.046875 16.832031 21.257812 17.355469 C 21.519531 17.480469 21.796875 17.542969 22.078125 17.542969 L 25.15625 17.542969 C 26.394531 16.386719 27.519531 15.0625 28.515625 13.589844 Z M 28.519531 13.589844 "/>
</g>
</g>
<path style=" stroke:none;fill-rule:nonzero;fill:rgb(31.37255%,90.196079%,100%);fill-opacity:1;" d="M 31.769531 6.144531 C 30.816406 4.191406 28.589844 3.425781 25.472656 3.996094 C 24.40625 4.183594 23.351562 4.464844 22.320312 4.839844 C 23.140625 5.191406 23.917969 5.671875 24.636719 6.273438 C 24.996094 6.175781 25.367188 6.050781 25.710938 5.992188 C 26.265625 5.886719 26.824219 5.832031 27.382812 5.828125 C 28.496094 5.628906 29.613281 6.140625 30.351562 7.183594 C 30.933594 8.375 30.445312 10.414062 29.007812 12.789062 C 27.015625 15.847656 24.574219 18.417969 21.8125 20.359375 C 19.113281 22.4375 16.121094 23.867188 12.992188 24.578125 C 10.621094 25.023438 8.925781 24.578125 8.347656 23.390625 C 7.769531 22.199219 8.261719 20.164062 9.695312 17.800781 C 9.875 17.507812 9.917969 17.355469 10.117188 17.066406 C 10.023438 16.054688 10.035156 15.03125 10.15625 14.019531 C 9.511719 14.816406 8.921875 15.675781 8.382812 16.585938 C 6.503906 19.6875 5.996094 22.46875 6.949219 24.425781 C 7.972656 26.113281 9.644531 27.003906 11.34375 26.757812 C 11.976562 26.753906 12.609375 26.691406 13.238281 26.574219 C 16.578125 25.820312 19.777344 24.300781 22.660156 22.089844 C 25.609375 20.007812 28.210938 17.261719 30.332031 13.992188 C 32.210938 10.886719 32.722656 8.105469 31.769531 6.144531 Z M 31.769531 6.144531 "/>
</g>
</svg>
