<?xml version="1.0" encoding="UTF-8"?>
<svg xmlns="http://www.w3.org/2000/svg" xmlns:xlink="http://www.w3.org/1999/xlink" width="40px" height="40px" viewBox="0 0 40 40" version="1.1">
<defs>
<linearGradient id="linear0" gradientUnits="userSpaceOnUse" x1="0" y1="3.37" x2="1" y2="3.37" gradientTransform="matrix(19.695312,0,0,19.097656,10.066406,3.019531)">
<stop offset="0" style="stop-color:rgb(0%,35.686275%,63.137255%);stop-opacity:1;"/>
<stop offset="0.07" style="stop-color:rgb(0%,37.647059%,66.27451%);stop-opacity:1;"/>
<stop offset="0.36" style="stop-color:rgb(0%,44.313725%,78.431373%);stop-opacity:1;"/>
<stop offset="0.52" style="stop-color:rgb(0%,47.058824%,83.137255%);stop-opacity:1;"/>
<stop offset="0.64" style="stop-color:rgb(0%,45.490196%,80.392157%);stop-opacity:1;"/>
<stop offset="0.82" style="stop-color:rgb(0%,41.568627%,73.333333%);stop-opacity:1;"/>
<stop offset="1" style="stop-color:rgb(0%,35.686275%,63.137255%);stop-opacity:1;"/>
</linearGradient>
<radialGradient id="radial0" gradientUnits="userSpaceOnUse" cx="0.503" cy="0.502" fx="0.503" fy="0.502" r="1.353" gradientTransform="matrix(8.020727,0,0,-6.792969,16.431242,123.932664)">
<stop offset="0" style="stop-color:rgb(94.901961%,94.901961%,94.901961%);stop-opacity:1;"/>
<stop offset="0.58" style="stop-color:rgb(93.333333%,93.333333%,93.333333%);stop-opacity:1;"/>
<stop offset="1" style="stop-color:rgb(90.196078%,90.196078%,90.196078%);stop-opacity:1;"/>
</radialGradient>
</defs>
<g id="surface1">
<path style=" stroke:none;fill-rule:nonzero;fill:rgb(27.450982%,31.764707%,32.941177%);fill-opacity:1;" d="M 5.605469 31.300781 L 4.5 31.300781 L 3.945312 30.007812 L 1.609375 30.007812 L 1.089844 31.300781 L 0 31.300781 L 2.25 26.214844 L 3.375 26.214844 Z M 3.710938 29.308594 L 2.878906 27.277344 C 2.84375 27.175781 2.816406 27.070312 2.796875 26.964844 L 2.769531 26.964844 C 2.75 27.074219 2.722656 27.179688 2.6875 27.285156 L 1.855469 29.3125 Z M 3.710938 29.308594 "/>
<path style=" stroke:none;fill-rule:nonzero;fill:rgb(27.450982%,31.764707%,32.941177%);fill-opacity:1;" d="M 9.6875 28.011719 L 7.371094 30.660156 L 9.6875 30.660156 L 9.6875 31.300781 L 6.023438 31.300781 L 6.023438 30.992188 L 8.386719 28.308594 L 6.246094 28.308594 L 6.246094 27.667969 L 9.6875 27.667969 Z M 9.6875 28.011719 "/>
<path style=" stroke:none;fill-rule:nonzero;fill:rgb(27.450982%,31.764707%,32.941177%);fill-opacity:1;" d="M 14.199219 31.300781 L 13.226562 31.300781 L 13.226562 30.726562 L 13.210938 30.726562 C 12.96875 31.148438 12.457031 31.40625 11.90625 31.386719 C 10.890625 31.386719 10.386719 30.871094 10.386719 29.839844 L 10.386719 27.667969 L 11.351562 27.667969 L 11.351562 29.753906 C 11.351562 30.410156 11.648438 30.734375 12.238281 30.734375 C 12.511719 30.742188 12.773438 30.640625 12.953125 30.464844 C 13.144531 30.269531 13.242188 30.019531 13.230469 29.761719 L 13.230469 27.667969 L 14.199219 27.667969 Z M 14.199219 31.300781 "/>
<path style=" stroke:none;fill-rule:nonzero;fill:rgb(27.450982%,31.764707%,32.941177%);fill-opacity:1;" d="M 17.828125 28.453125 C 17.679688 28.367188 17.503906 28.328125 17.324219 28.335938 C 17.03125 28.335938 16.761719 28.460938 16.601562 28.667969 C 16.398438 28.933594 16.300781 29.246094 16.324219 29.5625 L 16.324219 31.304688 L 15.339844 31.304688 L 15.339844 27.667969 L 16.3125 27.667969 L 16.3125 28.417969 L 16.328125 28.417969 C 16.40625 28.1875 16.558594 27.980469 16.765625 27.816406 C 16.949219 27.679688 17.183594 27.601562 17.425781 27.601562 C 17.5625 27.597656 17.703125 27.621094 17.828125 27.671875 Z M 17.828125 28.453125 "/>
<path style=" stroke:none;fill-rule:nonzero;fill:rgb(27.450982%,31.764707%,32.941177%);fill-opacity:1;" d="M 22.128906 29.710938 L 19.203125 29.710938 C 19.195312 30 19.328125 30.277344 19.570312 30.480469 C 19.835938 30.675781 20.179688 30.773438 20.53125 30.757812 C 20.984375 30.757812 21.425781 30.636719 21.792969 30.410156 L 21.792969 31.074219 C 21.320312 31.296875 20.785156 31.40625 20.242188 31.386719 C 19.6875 31.410156 19.144531 31.230469 18.757812 30.890625 C 18.375 30.5 18.183594 30.003906 18.21875 29.496094 C 18.195312 28.988281 18.40625 28.492188 18.8125 28.113281 C 19.1875 27.765625 19.726562 27.570312 20.285156 27.578125 C 20.800781 27.550781 21.300781 27.726562 21.644531 28.050781 C 21.992188 28.429688 22.160156 28.902344 22.128906 29.382812 Z M 21.191406 29.128906 C 21.207031 28.882812 21.117188 28.636719 20.945312 28.441406 C 20.777344 28.273438 20.53125 28.183594 20.273438 28.195312 C 20.003906 28.191406 19.746094 28.285156 19.5625 28.453125 C 19.359375 28.640625 19.234375 28.878906 19.203125 29.132812 Z M 21.191406 29.128906 "/>
<path style=" stroke:none;fill-rule:nonzero;fill:rgb(27.450982%,31.764707%,32.941177%);fill-opacity:1;" d="M 25.246094 31.101562 L 25.246094 30.230469 C 25.347656 30.304688 25.457031 30.371094 25.578125 30.421875 C 25.707031 30.480469 25.84375 30.527344 25.980469 30.5625 C 26.121094 30.601562 26.261719 30.632812 26.40625 30.65625 C 26.535156 30.675781 26.667969 30.6875 26.800781 30.6875 C 27.125 30.707031 27.453125 30.644531 27.734375 30.507812 C 27.941406 30.394531 28.054688 30.199219 28.042969 29.992188 C 28.046875 29.882812 28.011719 29.773438 27.941406 29.675781 C 27.867188 29.585938 27.773438 29.503906 27.664062 29.441406 C 27.527344 29.363281 27.378906 29.292969 27.230469 29.230469 L 26.695312 29.019531 C 26.488281 28.929688 26.300781 28.835938 26.125 28.738281 C 25.957031 28.648438 25.800781 28.542969 25.664062 28.425781 C 25.535156 28.3125 25.433594 28.179688 25.359375 28.035156 C 25.28125 27.875 25.246094 27.703125 25.25 27.527344 C 25.242188 27.308594 25.308594 27.09375 25.441406 26.90625 C 25.566406 26.730469 25.738281 26.582031 25.945312 26.46875 C 26.164062 26.351562 26.402344 26.265625 26.65625 26.214844 C 26.921875 26.15625 27.195312 26.128906 27.46875 26.128906 C 27.941406 26.105469 28.414062 26.164062 28.855469 26.308594 L 28.855469 27.144531 C 28.464844 26.925781 28.003906 26.816406 27.539062 26.832031 C 27.390625 26.832031 27.242188 26.84375 27.09375 26.867188 C 26.957031 26.890625 26.824219 26.929688 26.699219 26.984375 C 26.589844 27.035156 26.496094 27.109375 26.421875 27.195312 C 26.347656 27.285156 26.3125 27.394531 26.316406 27.503906 C 26.3125 27.605469 26.339844 27.707031 26.398438 27.796875 C 26.460938 27.890625 26.542969 27.972656 26.644531 28.035156 C 26.769531 28.109375 26.898438 28.179688 27.039062 28.234375 C 27.191406 28.300781 27.371094 28.371094 27.578125 28.445312 C 27.789062 28.523438 27.984375 28.621094 28.171875 28.738281 C 28.347656 28.832031 28.511719 28.945312 28.660156 29.074219 C 28.796875 29.195312 28.910156 29.332031 28.992188 29.484375 C 29.078125 29.648438 29.121094 29.820312 29.117188 30 C 29.125 30.226562 29.0625 30.453125 28.933594 30.652344 C 28.8125 30.828125 28.640625 30.980469 28.4375 31.085938 C 28.214844 31.199219 27.96875 31.28125 27.714844 31.324219 C 27.433594 31.375 27.144531 31.398438 26.855469 31.398438 C 26.757812 31.398438 26.632812 31.390625 26.484375 31.378906 C 26.324219 31.363281 26.167969 31.339844 26.011719 31.308594 C 25.863281 31.285156 25.71875 31.253906 25.578125 31.21875 C 25.460938 31.191406 25.351562 31.152344 25.246094 31.101562 Z M 25.246094 31.101562 "/>
<path style=" stroke:none;fill-rule:nonzero;fill:rgb(27.450982%,31.764707%,32.941177%);fill-opacity:1;" d="M 32.554688 31.390625 C 32.152344 31.394531 31.753906 31.328125 31.378906 31.199219 C 31.039062 31.082031 30.730469 30.902344 30.480469 30.671875 C 30.222656 30.4375 30.027344 30.164062 29.902344 29.863281 C 29.761719 29.527344 29.691406 29.175781 29.695312 28.820312 C 29.691406 28.441406 29.761719 28.066406 29.902344 27.710938 C 30.03125 27.398438 30.230469 27.109375 30.492188 26.863281 C 30.753906 26.628906 31.070312 26.441406 31.425781 26.320312 C 31.816406 26.1875 32.234375 26.125 32.65625 26.128906 C 33.050781 26.125 33.441406 26.1875 33.804688 26.316406 C 34.140625 26.4375 34.445312 26.617188 34.691406 26.84375 C 34.945312 27.078125 35.140625 27.355469 35.265625 27.65625 C 35.40625 27.988281 35.472656 28.34375 35.46875 28.695312 C 35.472656 29.148438 35.367188 29.597656 35.15625 30.015625 C 34.976562 30.371094 34.6875 30.6875 34.324219 30.921875 L 36.066406 31.988281 L 34.550781 31.988281 L 33.480469 31.285156 C 33.335938 31.316406 33.1875 31.34375 33.035156 31.363281 C 32.875 31.378906 32.714844 31.390625 32.554688 31.390625 Z M 32.601562 26.871094 C 32.34375 26.867188 32.085938 26.914062 31.851562 27.007812 C 31.621094 27.097656 31.421875 27.230469 31.261719 27.394531 C 31.089844 27.570312 30.957031 27.773438 30.875 27.992188 C 30.78125 28.242188 30.734375 28.503906 30.738281 28.765625 C 30.738281 29.027344 30.78125 29.285156 30.871094 29.535156 C 30.949219 29.75 31.078125 29.953125 31.242188 30.128906 C 31.398438 30.292969 31.59375 30.421875 31.816406 30.511719 C 32.046875 30.605469 32.300781 30.652344 32.558594 30.648438 C 32.824219 30.652344 33.089844 30.609375 33.335938 30.523438 C 33.5625 30.4375 33.761719 30.3125 33.921875 30.15625 C 34.089844 29.980469 34.214844 29.78125 34.292969 29.566406 C 34.382812 29.308594 34.425781 29.042969 34.421875 28.777344 C 34.425781 28.503906 34.382812 28.230469 34.296875 27.964844 C 34.222656 27.75 34.101562 27.546875 33.9375 27.367188 C 33.78125 27.207031 33.585938 27.082031 33.363281 27 C 33.125 26.910156 32.863281 26.867188 32.601562 26.871094 Z M 32.601562 26.871094 "/>
<path style=" stroke:none;fill-rule:nonzero;fill:rgb(27.450982%,31.764707%,32.941177%);fill-opacity:1;" d="M 39.773438 31.300781 L 36.449219 31.300781 L 36.449219 26.214844 L 37.445312 26.214844 L 37.445312 30.589844 L 39.78125 30.589844 Z M 39.773438 31.300781 "/>
<path style=" stroke:none;fill-rule:nonzero;fill:rgb(27.450982%,31.764707%,32.941177%);fill-opacity:1;" d="M 2.796875 40.023438 L 2.796875 34.9375 L 4.53125 34.9375 C 6.746094 34.9375 7.851562 35.765625 7.851562 37.417969 C 7.882812 38.132812 7.542969 38.824219 6.921875 39.308594 C 6.234375 39.804688 5.347656 40.054688 4.449219 40.011719 Z M 3.789062 35.652344 L 3.789062 39.3125 L 4.585938 39.3125 C 5.1875 39.34375 5.777344 39.167969 6.222656 38.824219 C 6.632812 38.449219 6.84375 37.949219 6.808594 37.441406 C 6.808594 36.25 6.078125 35.65625 4.621094 35.65625 Z M 3.789062 35.652344 "/>
<path style=" stroke:none;fill-rule:nonzero;fill:rgb(27.450982%,31.764707%,32.941177%);fill-opacity:1;" d="M 12.015625 40.023438 L 11.070312 40.023438 L 11.070312 39.457031 L 11.054688 39.457031 C 10.804688 39.871094 10.296875 40.125 9.75 40.113281 C 9.390625 40.128906 9.03125 40.023438 8.761719 39.820312 C 8.519531 39.621094 8.386719 39.339844 8.402344 39.050781 C 8.402344 38.367188 8.871094 37.964844 9.804688 37.851562 L 11.078125 37.699219 C 11.078125 37.183594 10.785156 36.921875 10.203125 36.921875 C 9.695312 36.921875 9.203125 37.082031 8.820312 37.371094 L 8.820312 36.652344 C 9.296875 36.417969 9.839844 36.300781 10.386719 36.3125 C 11.472656 36.3125 12.011719 36.761719 12.011719 37.667969 Z M 11.070312 38.242188 L 10.171875 38.347656 C 9.949219 38.359375 9.734375 38.417969 9.542969 38.515625 C 9.386719 38.625 9.308594 38.789062 9.332031 38.957031 C 9.324219 39.101562 9.398438 39.238281 9.523438 39.335938 C 9.671875 39.4375 9.855469 39.488281 10.046875 39.480469 C 10.328125 39.492188 10.601562 39.398438 10.796875 39.21875 C 10.984375 39.039062 11.085938 38.800781 11.074219 38.554688 Z M 11.070312 38.242188 "/>
<path style=" stroke:none;fill-rule:nonzero;fill:rgb(27.450982%,31.764707%,32.941177%);fill-opacity:1;" d="M 15.359375 39.988281 C 15.125 40.074219 14.867188 40.117188 14.609375 40.105469 C 13.777344 40.105469 13.363281 39.769531 13.363281 39.089844 L 13.363281 37.046875 L 12.644531 37.046875 L 12.644531 36.386719 L 13.363281 36.386719 L 13.363281 35.546875 L 14.332031 35.3125 L 14.332031 36.390625 L 15.359375 36.390625 L 15.359375 37.050781 L 14.332031 37.050781 L 14.332031 38.867188 C 14.3125 39.035156 14.363281 39.199219 14.472656 39.339844 C 14.59375 39.441406 14.761719 39.492188 14.933594 39.476562 C 15.089844 39.480469 15.238281 39.4375 15.359375 39.359375 Z M 15.359375 39.988281 "/>
<path style=" stroke:none;fill-rule:nonzero;fill:rgb(27.450982%,31.764707%,32.941177%);fill-opacity:1;" d="M 19.53125 40.023438 L 18.585938 40.023438 L 18.585938 39.457031 L 18.570312 39.457031 C 18.320312 39.871094 17.8125 40.125 17.265625 40.113281 C 16.902344 40.128906 16.546875 40.023438 16.277344 39.820312 C 16.035156 39.617188 15.902344 39.339844 15.917969 39.050781 C 15.917969 38.367188 16.386719 37.964844 17.320312 37.851562 L 18.59375 37.699219 C 18.59375 37.179688 18.300781 36.921875 17.71875 36.921875 C 17.210938 36.921875 16.714844 37.082031 16.335938 37.371094 L 16.335938 36.652344 C 16.8125 36.417969 17.355469 36.300781 17.902344 36.3125 C 18.984375 36.3125 19.527344 36.761719 19.527344 37.667969 Z M 18.59375 38.242188 L 17.695312 38.347656 C 17.46875 38.359375 17.253906 38.417969 17.0625 38.515625 C 16.910156 38.625 16.832031 38.789062 16.851562 38.957031 C 16.847656 39.101562 16.917969 39.238281 17.046875 39.335938 C 17.191406 39.4375 17.378906 39.488281 17.566406 39.480469 C 17.847656 39.488281 18.113281 39.390625 18.304688 39.21875 C 18.5 39.035156 18.601562 38.796875 18.59375 38.550781 Z M 18.59375 38.242188 "/>
<path style=" stroke:none;fill-rule:nonzero;fill:rgb(27.450982%,31.764707%,32.941177%);fill-opacity:1;" d="M 21.617188 39.5 L 21.589844 39.5 L 21.589844 40.023438 L 20.628906 40.023438 L 20.628906 34.644531 L 21.589844 34.644531 L 21.589844 37.03125 L 21.609375 37.03125 C 21.890625 36.570312 22.457031 36.289062 23.066406 36.304688 C 23.566406 36.28125 24.046875 36.460938 24.359375 36.792969 C 24.683594 37.171875 24.847656 37.632812 24.820312 38.101562 C 24.851562 38.625 24.667969 39.140625 24.304688 39.558594 C 23.964844 39.925781 23.441406 40.128906 22.894531 40.109375 C 22.367188 40.128906 21.871094 39.894531 21.617188 39.5 Z M 21.589844 38.054688 L 21.589844 38.503906 C 21.582031 38.753906 21.691406 38.996094 21.890625 39.179688 C 22.105469 39.371094 22.40625 39.46875 22.714844 39.453125 C 23.027344 39.441406 23.3125 39.308594 23.5 39.097656 C 23.722656 38.804688 23.832031 38.453125 23.804688 38.101562 C 23.828125 37.804688 23.730469 37.507812 23.527344 37.261719 C 23.339844 37.0625 23.050781 36.949219 22.75 36.960938 C 22.429688 36.953125 22.125 37.066406 21.917969 37.273438 C 21.699219 37.488281 21.582031 37.765625 21.589844 38.054688 Z M 21.589844 38.054688 "/>
<path style=" stroke:none;fill-rule:nonzero;fill:rgb(27.450982%,31.764707%,32.941177%);fill-opacity:1;" d="M 29.019531 40.023438 L 28.074219 40.023438 L 28.074219 39.457031 L 28.058594 39.457031 C 27.808594 39.871094 27.300781 40.125 26.753906 40.113281 C 26.394531 40.128906 26.035156 40.023438 25.765625 39.820312 C 25.523438 39.617188 25.390625 39.339844 25.40625 39.050781 C 25.40625 38.367188 25.875 37.964844 26.808594 37.851562 L 28.082031 37.699219 C 28.082031 37.183594 27.789062 36.921875 27.210938 36.921875 C 26.699219 36.921875 26.207031 37.082031 25.824219 37.371094 L 25.824219 36.652344 C 26.304688 36.417969 26.851562 36.296875 27.402344 36.308594 C 28.488281 36.308594 29.027344 36.757812 29.027344 37.664062 Z M 28.082031 38.242188 L 27.183594 38.347656 C 26.957031 38.359375 26.742188 38.417969 26.550781 38.515625 C 26.398438 38.625 26.320312 38.789062 26.339844 38.957031 C 26.335938 39.101562 26.40625 39.238281 26.535156 39.335938 C 26.679688 39.4375 26.867188 39.488281 27.054688 39.480469 C 27.335938 39.488281 27.601562 39.390625 27.792969 39.21875 C 27.988281 39.035156 28.089844 38.796875 28.082031 38.550781 Z M 28.082031 38.242188 "/>
<path style=" stroke:none;fill-rule:nonzero;fill:rgb(27.450982%,31.764707%,32.941177%);fill-opacity:1;" d="M 29.921875 39.914062 L 29.921875 39.160156 C 30.261719 39.386719 30.6875 39.511719 31.121094 39.511719 C 31.707031 39.511719 32 39.363281 32 39.070312 C 32.003906 38.996094 31.976562 38.921875 31.925781 38.859375 C 31.871094 38.796875 31.804688 38.746094 31.722656 38.703125 C 31.628906 38.65625 31.527344 38.613281 31.421875 38.582031 L 31.035156 38.464844 C 30.871094 38.410156 30.710938 38.347656 30.558594 38.273438 C 30.425781 38.214844 30.308594 38.132812 30.207031 38.039062 C 30.113281 37.957031 30.042969 37.859375 29.996094 37.753906 C 29.945312 37.632812 29.921875 37.507812 29.921875 37.382812 C 29.917969 37.214844 29.96875 37.050781 30.070312 36.910156 C 30.171875 36.773438 30.304688 36.660156 30.464844 36.574219 C 30.632812 36.480469 30.820312 36.410156 31.019531 36.367188 C 31.230469 36.320312 31.449219 36.296875 31.667969 36.296875 C 32.03125 36.292969 32.390625 36.347656 32.730469 36.453125 L 32.730469 37.171875 C 32.425781 36.996094 32.0625 36.902344 31.695312 36.910156 C 31.582031 36.90625 31.46875 36.917969 31.359375 36.941406 C 31.269531 36.960938 31.183594 36.988281 31.105469 37.03125 C 31.039062 37.066406 30.984375 37.113281 30.941406 37.167969 C 30.90625 37.21875 30.886719 37.28125 30.886719 37.34375 C 30.882812 37.414062 30.902344 37.480469 30.941406 37.542969 C 30.988281 37.601562 31.046875 37.648438 31.117188 37.683594 C 31.207031 37.730469 31.296875 37.765625 31.394531 37.796875 L 31.765625 37.910156 C 31.9375 37.964844 32.101562 38.03125 32.261719 38.101562 C 32.398438 38.167969 32.523438 38.246094 32.636719 38.339844 C 32.738281 38.421875 32.820312 38.519531 32.875 38.628906 C 32.933594 38.753906 32.960938 38.886719 32.957031 39.019531 C 32.960938 39.191406 32.910156 39.359375 32.808594 39.503906 C 32.707031 39.640625 32.570312 39.757812 32.40625 39.84375 C 32.226562 39.9375 32.03125 40.003906 31.824219 40.042969 C 31.597656 40.085938 31.367188 40.109375 31.132812 40.109375 C 30.71875 40.117188 30.304688 40.050781 29.921875 39.914062 Z M 29.921875 39.914062 "/>
<path style=" stroke:none;fill-rule:nonzero;fill:rgb(27.450982%,31.764707%,32.941177%);fill-opacity:1;" d="M 37.480469 38.433594 L 34.554688 38.433594 C 34.542969 38.722656 34.675781 39.007812 34.921875 39.210938 C 35.1875 39.402344 35.53125 39.503906 35.882812 39.484375 C 36.335938 39.488281 36.777344 39.367188 37.144531 39.140625 L 37.144531 39.800781 C 36.671875 40.027344 36.136719 40.136719 35.59375 40.113281 C 35.035156 40.140625 34.496094 39.960938 34.105469 39.621094 C 33.722656 39.230469 33.53125 38.734375 33.566406 38.226562 C 33.542969 37.71875 33.753906 37.21875 34.160156 36.84375 C 34.535156 36.492188 35.074219 36.296875 35.632812 36.308594 C 36.148438 36.28125 36.648438 36.453125 36.992188 36.777344 C 37.339844 37.160156 37.507812 37.632812 37.476562 38.109375 Z M 36.539062 37.847656 C 36.554688 37.601562 36.46875 37.359375 36.292969 37.160156 C 36.128906 36.996094 35.878906 36.902344 35.625 36.914062 C 35.355469 36.910156 35.09375 37.003906 34.914062 37.171875 C 34.710938 37.359375 34.585938 37.597656 34.554688 37.851562 Z M 36.539062 37.847656 "/>
<path style=" stroke:none;fill-rule:nonzero;fill:url(#linear0);" d="M 19.914062 6.039062 C 14.476562 6.039062 10.066406 4.738281 10.066406 3.019531 L 10.066406 19.101562 C 10.066406 20.742188 14.402344 22.09375 19.777344 22.117188 L 19.914062 22.117188 C 25.351562 22.117188 29.761719 20.816406 29.761719 19.101562 L 29.761719 3.019531 C 29.761719 4.691406 25.351562 6.039062 19.914062 6.039062 Z M 19.914062 6.039062 "/>
<path style=" stroke:none;fill-rule:nonzero;fill:rgb(90.980393%,90.980393%,90.980393%);fill-opacity:1;" d="M 29.761719 3.019531 C 29.761719 4.695312 25.351562 6.035156 19.914062 6.035156 C 14.472656 6.035156 10.066406 4.738281 10.066406 3.019531 C 10.066406 1.300781 14.476562 0 19.914062 0 C 25.351562 0 29.761719 1.300781 29.761719 3.019531 "/>
<path style=" stroke:none;fill-rule:nonzero;fill:rgb(31.37255%,90.196079%,100%);fill-opacity:1;" d="M 27.46875 2.773438 C 27.46875 3.839844 24.082031 4.691406 19.914062 4.691406 C 15.75 4.691406 12.359375 3.832031 12.359375 2.765625 C 12.359375 1.699219 15.753906 0.859375 19.914062 0.859375 C 24.078125 0.859375 27.46875 1.714844 27.46875 2.773438 "/>
<path style=" stroke:none;fill-rule:nonzero;fill:rgb(9.803922%,54.11765%,70.19608%);fill-opacity:1;" d="M 19.914062 3.253906 C 17.886719 3.207031 15.863281 3.453125 13.9375 3.988281 C 15.863281 4.511719 17.886719 4.75 19.910156 4.6875 C 21.9375 4.738281 23.960938 4.484375 25.882812 3.9375 C 23.953125 3.429688 21.933594 3.199219 19.914062 3.253906 Z M 19.914062 3.253906 "/>
<path style=" stroke:none;fill-rule:nonzero;fill:url(#radial0);" d="M 25.902344 14.179688 L 25.902344 9.757812 L 24.519531 9.757812 L 24.519531 15.128906 L 28.296875 15.128906 L 28.296875 14.179688 Z M 14.949219 12.007812 C 14.664062 11.910156 14.398438 11.773438 14.164062 11.605469 C 14.039062 11.492188 13.972656 11.34375 13.980469 11.1875 C 13.96875 11.03125 14.058594 10.886719 14.207031 10.796875 C 14.398438 10.6875 14.625 10.632812 14.855469 10.640625 C 15.398438 10.621094 15.933594 10.757812 16.382812 11.019531 L 16.382812 9.902344 C 15.890625 9.746094 15.367188 9.675781 14.84375 9.695312 C 14.246094 9.667969 13.660156 9.828125 13.183594 10.136719 C 12.761719 10.414062 12.523438 10.84375 12.539062 11.296875 C 12.539062 11.957031 13.035156 12.46875 14.078125 12.867188 C 14.414062 12.992188 14.734375 13.148438 15.027344 13.339844 C 15.175781 13.441406 15.257812 13.59375 15.257812 13.757812 C 15.257812 13.917969 15.167969 14.066406 15.011719 14.160156 C 14.804688 14.261719 14.5625 14.3125 14.320312 14.300781 C 13.707031 14.292969 13.117188 14.101562 12.660156 13.753906 L 12.660156 14.964844 C 13.167969 15.1875 13.734375 15.292969 14.304688 15.277344 C 14.949219 15.308594 15.585938 15.15625 16.117188 14.847656 C 16.492188 14.542969 16.679688 14.109375 16.625 13.675781 C 16.628906 13.34375 16.492188 13.019531 16.238281 12.765625 C 15.878906 12.4375 15.4375 12.179688 14.949219 12.007812 Z M 22.976562 14.070312 C 23.65625 13.144531 23.65625 11.976562 22.976562 11.050781 C 22.738281 10.648438 22.367188 10.3125 21.910156 10.082031 C 21.441406 9.859375 20.910156 9.742188 20.375 9.746094 C 19.792969 9.734375 19.21875 9.855469 18.710938 10.097656 C 18.238281 10.320312 17.847656 10.65625 17.589844 11.058594 C 17.320312 11.519531 17.183594 12.03125 17.191406 12.542969 C 17.199219 12.992188 17.328125 13.433594 17.5625 13.832031 C 17.796875 14.234375 18.167969 14.570312 18.625 14.796875 C 19.089844 15.035156 19.617188 15.171875 20.160156 15.1875 L 21.480469 16.488281 L 23.339844 16.488281 L 21.449219 15.058594 C 22.082031 14.894531 22.625 14.542969 22.976562 14.070312 Z M 21.4375 13.742188 C 21.15625 14.039062 20.722656 14.210938 20.273438 14.199219 C 19.816406 14.210938 19.382812 14.035156 19.105469 13.726562 C 18.785156 13.351562 18.632812 12.890625 18.671875 12.425781 C 18.636719 11.960938 18.792969 11.5 19.117188 11.125 C 19.410156 10.820312 19.851562 10.644531 20.3125 10.644531 C 20.769531 10.628906 21.203125 10.808594 21.464844 11.125 C 21.765625 11.511719 21.90625 11.96875 21.871094 12.425781 C 21.929688 12.898438 21.78125 13.367188 21.453125 13.75 Z M 21.4375 13.742188 "/>
</g>
</svg>
