<?xml version="1.0" encoding="UTF-8"?>
<svg xmlns="http://www.w3.org/2000/svg" xmlns:xlink="http://www.w3.org/1999/xlink" width="40px" height="40px" viewBox="0 0 40 40" version="1.1">
<defs>
<linearGradient id="linear0" gradientUnits="userSpaceOnUse" x1="0.5" y1="6.677" x2="0.5" y2="7.674" gradientTransform="matrix(11.285156,0,0,9.042969,13.71875,6.394531)">
<stop offset="0" style="stop-color:rgb(9.803922%,54.117647%,70.196078%);stop-opacity:1;"/>
<stop offset="0.17" style="stop-color:rgb(19.607843%,74.509804%,86.666667%);stop-opacity:1;"/>
<stop offset="0.5" style="stop-color:rgb(31.372549%,90.196078%,100%);stop-opacity:1;"/>
<stop offset="0.5" style="stop-color:rgb(30.980392%,89.411765%,99.215686%);stop-opacity:1;"/>
<stop offset="0.5" style="stop-color:rgb(29.411765%,86.666667%,97.254902%);stop-opacity:1;"/>
<stop offset="0.5" style="stop-color:rgb(26.666667%,82.352941%,93.333333%);stop-opacity:1;"/>
<stop offset="0.5" style="stop-color:rgb(22.745098%,75.686275%,87.843137%);stop-opacity:1;"/>
<stop offset="0.5" style="stop-color:rgb(17.647059%,67.058824%,80.784314%);stop-opacity:1;"/>
<stop offset="0.5" style="stop-color:rgb(11.372549%,56.470588%,72.156863%);stop-opacity:1;"/>
<stop offset="0.5" style="stop-color:rgb(9.803922%,54.117647%,70.196078%);stop-opacity:1;"/>
<stop offset="0.66" style="stop-color:rgb(19.607843%,74.509804%,86.666667%);stop-opacity:1;"/>
<stop offset="0.97" style="stop-color:rgb(31.372549%,90.196078%,100%);stop-opacity:1;"/>
</linearGradient>
</defs>
<g id="surface1">
<path style=" stroke:none;fill-rule:nonzero;fill:rgb(27.450982%,31.764707%,32.941177%);fill-opacity:1;" d="M 3.996094 30.480469 L 3.207031 30.480469 L 2.8125 29.320312 L 1.148438 29.320312 L 0.777344 30.480469 L 0 30.480469 L 1.605469 25.925781 L 2.40625 25.925781 Z M 2.640625 28.703125 L 2.050781 26.886719 C 2.023438 26.792969 2.007812 26.699219 1.992188 26.601562 L 1.972656 26.601562 C 1.960938 26.699219 1.941406 26.792969 1.914062 26.886719 L 1.324219 28.703125 Z M 2.640625 28.703125 "/>
<path style=" stroke:none;fill-rule:nonzero;fill:rgb(27.450982%,31.764707%,32.941177%);fill-opacity:1;" d="M 6.90625 27.535156 L 5.253906 29.90625 L 6.90625 29.90625 L 6.90625 30.480469 L 4.292969 30.480469 L 4.292969 30.210938 L 5.980469 27.808594 L 4.453125 27.808594 L 4.453125 27.234375 L 6.90625 27.234375 Z M 6.90625 27.535156 "/>
<path style=" stroke:none;fill-rule:nonzero;fill:rgb(27.450982%,31.764707%,32.941177%);fill-opacity:1;" d="M 10.121094 30.480469 L 9.429688 30.480469 L 9.429688 29.964844 L 9.417969 29.964844 C 9.242188 30.339844 8.878906 30.570312 8.484375 30.554688 C 7.761719 30.554688 7.402344 30.09375 7.398438 29.171875 L 7.398438 27.230469 L 8.089844 27.230469 L 8.089844 29.097656 C 8.089844 29.679688 8.300781 29.972656 8.722656 29.972656 C 8.917969 29.980469 9.105469 29.890625 9.230469 29.734375 C 9.367188 29.554688 9.4375 29.332031 9.429688 29.101562 L 9.429688 27.230469 L 10.121094 27.230469 Z M 10.121094 30.480469 "/>
<path style=" stroke:none;fill-rule:nonzero;fill:rgb(27.450982%,31.764707%,32.941177%);fill-opacity:1;" d="M 12.710938 27.929688 C 12.605469 27.851562 12.476562 27.816406 12.347656 27.824219 C 12.144531 27.824219 11.953125 27.933594 11.839844 28.113281 C 11.695312 28.351562 11.625 28.632812 11.640625 28.917969 L 11.640625 30.472656 L 10.9375 30.472656 L 10.9375 27.222656 L 11.628906 27.222656 L 11.628906 27.902344 L 11.640625 27.902344 C 11.695312 27.699219 11.804688 27.511719 11.953125 27.367188 C 12.082031 27.246094 12.25 27.175781 12.421875 27.175781 C 12.519531 27.171875 12.621094 27.191406 12.707031 27.238281 Z M 12.710938 27.929688 "/>
<path style=" stroke:none;fill-rule:nonzero;fill:rgb(27.450982%,31.764707%,32.941177%);fill-opacity:1;" d="M 15.773438 29.054688 L 13.691406 29.054688 C 13.683594 29.316406 13.777344 29.566406 13.953125 29.75 C 14.140625 29.925781 14.386719 30.015625 14.636719 30 C 14.960938 30.003906 15.277344 29.894531 15.539062 29.691406 L 15.539062 30.285156 C 15.203125 30.484375 14.820312 30.582031 14.433594 30.5625 C 14.035156 30.585938 13.648438 30.425781 13.375 30.121094 C 13.101562 29.773438 12.964844 29.328125 12.988281 28.875 C 12.972656 28.414062 13.125 27.96875 13.417969 27.628906 C 13.6875 27.316406 14.070312 27.144531 14.46875 27.152344 C 14.835938 27.128906 15.191406 27.28125 15.4375 27.574219 C 15.683594 27.914062 15.804688 28.335938 15.78125 28.765625 Z M 15.105469 28.53125 C 15.117188 28.3125 15.054688 28.09375 14.929688 27.914062 C 14.8125 27.765625 14.636719 27.683594 14.453125 27.691406 C 14.261719 27.691406 14.074219 27.773438 13.945312 27.925781 C 13.800781 28.09375 13.710938 28.304688 13.691406 28.53125 Z M 15.105469 28.53125 "/>
<path style=" stroke:none;fill-rule:nonzero;fill:rgb(27.450982%,31.764707%,32.941177%);fill-opacity:1;" d="M 17.996094 30.296875 L 17.996094 29.519531 C 18.066406 29.585938 18.148438 29.644531 18.230469 29.691406 C 18.324219 29.742188 18.421875 29.785156 18.519531 29.820312 C 18.617188 29.851562 18.71875 29.878906 18.824219 29.898438 C 18.914062 29.917969 19.007812 29.929688 19.105469 29.929688 C 19.335938 29.945312 19.566406 29.890625 19.769531 29.769531 C 19.914062 29.667969 20 29.492188 19.988281 29.308594 C 19.992188 29.207031 19.964844 29.109375 19.917969 29.027344 C 19.863281 28.941406 19.796875 28.871094 19.71875 28.816406 C 19.621094 28.742188 19.515625 28.679688 19.410156 28.625 L 19.027344 28.4375 C 18.882812 28.355469 18.746094 28.269531 18.621094 28.183594 C 18.5 28.105469 18.390625 28.007812 18.289062 27.898438 C 18.199219 27.796875 18.125 27.679688 18.074219 27.550781 C 18.019531 27.40625 17.992188 27.25 17.992188 27.097656 C 17.988281 26.902344 18.035156 26.707031 18.128906 26.539062 C 18.222656 26.382812 18.34375 26.246094 18.488281 26.148438 C 18.644531 26.042969 18.816406 25.964844 18.996094 25.917969 C 19.1875 25.871094 19.382812 25.847656 19.582031 25.851562 C 19.917969 25.828125 20.253906 25.882812 20.566406 26.011719 L 20.566406 26.757812 C 20.289062 26.5625 19.960938 26.464844 19.628906 26.480469 C 19.523438 26.480469 19.417969 26.488281 19.3125 26.511719 C 19.214844 26.53125 19.121094 26.566406 19.03125 26.617188 C 18.953125 26.660156 18.886719 26.726562 18.835938 26.800781 C 18.78125 26.882812 18.753906 26.980469 18.757812 27.078125 C 18.753906 27.171875 18.777344 27.261719 18.816406 27.34375 C 18.859375 27.425781 18.921875 27.496094 18.992188 27.554688 C 19.082031 27.625 19.175781 27.683594 19.273438 27.734375 C 19.382812 27.792969 19.511719 27.855469 19.65625 27.921875 C 19.804688 27.992188 19.945312 28.082031 20.078125 28.183594 C 20.203125 28.269531 20.320312 28.371094 20.425781 28.484375 C 20.527344 28.59375 20.605469 28.71875 20.664062 28.851562 C 20.875 29.367188 20.707031 29.96875 20.269531 30.285156 C 20.109375 30.386719 19.9375 30.457031 19.753906 30.496094 C 19.554688 30.539062 19.347656 30.5625 19.140625 30.5625 C 19.070312 30.5625 18.984375 30.554688 18.878906 30.542969 C 18.765625 30.53125 18.65625 30.515625 18.546875 30.488281 C 18.441406 30.46875 18.339844 30.441406 18.238281 30.410156 C 18.152344 30.382812 18.070312 30.347656 17.996094 30.296875 Z M 17.996094 30.296875 "/>
<path style=" stroke:none;fill-rule:nonzero;fill:rgb(27.450982%,31.764707%,32.941177%);fill-opacity:1;" d="M 23.878906 27.226562 L 22.496094 31.003906 C 22.210938 31.675781 21.804688 32.015625 21.289062 32.015625 C 21.164062 32.015625 21.042969 32.003906 20.921875 31.972656 L 20.921875 31.359375 C 21.019531 31.394531 21.121094 31.414062 21.222656 31.417969 C 21.476562 31.421875 21.707031 31.257812 21.800781 31.007812 L 22 30.476562 L 20.785156 27.230469 L 21.550781 27.230469 L 22.300781 29.582031 C 22.308594 29.609375 22.324219 29.6875 22.351562 29.816406 L 22.367188 29.816406 C 22.378906 29.769531 22.398438 29.691406 22.421875 29.589844 L 23.1875 27.21875 Z M 23.878906 27.226562 "/>
<path style=" stroke:none;fill-rule:nonzero;fill:rgb(27.450982%,31.764707%,32.941177%);fill-opacity:1;" d="M 27.058594 30.480469 L 26.363281 30.480469 L 26.363281 28.648438 C 26.363281 28.042969 26.164062 27.738281 25.757812 27.738281 C 25.558594 27.734375 25.367188 27.828125 25.238281 27.992188 C 25.101562 28.167969 25.03125 28.390625 25.039062 28.621094 L 25.039062 30.472656 L 24.34375 30.472656 L 24.34375 27.222656 L 25.039062 27.222656 L 25.039062 27.761719 L 25.050781 27.761719 C 25.242188 27.371094 25.625 27.132812 26.039062 27.144531 C 26.328125 27.125 26.609375 27.25 26.800781 27.488281 C 26.992188 27.777344 27.085938 28.128906 27.0625 28.484375 Z M 27.058594 30.480469 "/>
<path style=" stroke:none;fill-rule:nonzero;fill:rgb(27.450982%,31.764707%,32.941177%);fill-opacity:1;" d="M 30.210938 30.480469 L 29.535156 30.480469 L 29.535156 29.972656 L 29.523438 29.972656 C 29.347656 30.339844 28.984375 30.566406 28.59375 30.554688 C 28.335938 30.570312 28.082031 30.476562 27.886719 30.296875 C 27.714844 30.117188 27.621094 29.867188 27.632812 29.609375 C 27.632812 28.992188 27.964844 28.636719 28.632812 28.535156 L 29.539062 28.398438 C 29.539062 27.933594 29.332031 27.703125 28.917969 27.703125 C 28.554688 27.703125 28.203125 27.84375 27.929688 28.105469 L 27.929688 27.460938 C 28.269531 27.253906 28.65625 27.148438 29.046875 27.15625 C 29.820312 27.15625 30.207031 27.558594 30.207031 28.367188 Z M 29.539062 28.882812 L 28.898438 28.976562 C 28.738281 28.988281 28.585938 29.042969 28.449219 29.128906 C 28.339844 29.226562 28.285156 29.375 28.300781 29.523438 C 28.296875 29.652344 28.347656 29.777344 28.4375 29.859375 C 28.539062 29.957031 28.675781 30.003906 28.808594 30 C 29.007812 30.003906 29.199219 29.917969 29.335938 29.761719 C 29.476562 29.597656 29.550781 29.382812 29.539062 29.160156 Z M 29.539062 28.882812 "/>
<path style=" stroke:none;fill-rule:nonzero;fill:rgb(27.450982%,31.764707%,32.941177%);fill-opacity:1;" d="M 31.699219 30 L 31.683594 30 L 31.683594 31.976562 L 30.992188 31.976562 L 30.992188 27.226562 L 31.683594 27.226562 L 31.683594 27.796875 L 31.699219 27.796875 C 31.898438 27.386719 32.300781 27.136719 32.738281 27.148438 C 33.089844 27.132812 33.425781 27.292969 33.644531 27.582031 C 33.875 27.921875 33.992188 28.335938 33.96875 28.753906 C 33.992188 29.21875 33.863281 29.679688 33.605469 30.054688 C 33.363281 30.378906 32.988281 30.5625 32.597656 30.542969 C 32.226562 30.554688 31.878906 30.34375 31.699219 30 Z M 31.679688 28.71875 L 31.679688 29.121094 C 31.675781 29.34375 31.75 29.558594 31.894531 29.722656 C 32.046875 29.894531 32.261719 29.984375 32.480469 29.972656 C 32.703125 29.957031 32.90625 29.839844 33.039062 29.652344 C 33.199219 29.386719 33.277344 29.074219 33.257812 28.761719 C 33.273438 28.496094 33.203125 28.230469 33.058594 28.011719 C 32.925781 27.832031 32.71875 27.730469 32.503906 27.738281 C 32.277344 27.730469 32.0625 27.835938 31.914062 28.019531 C 31.757812 28.210938 31.671875 28.460938 31.679688 28.71875 Z M 31.679688 28.71875 "/>
<path style=" stroke:none;fill-rule:nonzero;fill:rgb(27.450982%,31.764707%,32.941177%);fill-opacity:1;" d="M 34.460938 30.378906 L 34.460938 29.695312 C 34.707031 29.898438 35.011719 30.003906 35.320312 30 C 35.738281 30 35.949219 29.871094 35.949219 29.605469 C 35.953125 29.539062 35.933594 29.472656 35.894531 29.417969 C 35.855469 29.363281 35.808594 29.316406 35.75 29.277344 C 35.683594 29.234375 35.613281 29.199219 35.535156 29.171875 L 35.257812 29.0625 C 35.144531 29.015625 35.03125 28.957031 34.921875 28.894531 C 34.828125 28.839844 34.742188 28.769531 34.667969 28.683594 C 34.605469 28.609375 34.550781 28.523438 34.519531 28.429688 C 34.484375 28.320312 34.464844 28.207031 34.46875 28.09375 C 34.464844 27.945312 34.5 27.800781 34.574219 27.671875 C 34.644531 27.550781 34.738281 27.449219 34.851562 27.371094 C 34.972656 27.289062 35.109375 27.226562 35.25 27.1875 C 35.398438 27.144531 35.554688 27.125 35.710938 27.125 C 35.972656 27.121094 36.226562 27.167969 36.46875 27.261719 L 36.46875 27.90625 C 36.253906 27.75 35.992188 27.667969 35.730469 27.671875 C 35.648438 27.671875 35.570312 27.679688 35.492188 27.703125 C 35.429688 27.71875 35.367188 27.746094 35.3125 27.78125 C 35.265625 27.8125 35.222656 27.855469 35.195312 27.902344 C 35.167969 27.949219 35.152344 28.003906 35.15625 28.0625 C 35.152344 28.121094 35.167969 28.183594 35.195312 28.238281 C 35.226562 28.289062 35.269531 28.335938 35.320312 28.367188 C 35.382812 28.40625 35.449219 28.441406 35.515625 28.464844 L 35.78125 28.566406 C 35.902344 28.617188 36.019531 28.675781 36.136719 28.742188 C 36.234375 28.796875 36.324219 28.867188 36.402344 28.953125 C 36.472656 29.023438 36.53125 29.113281 36.570312 29.210938 C 36.613281 29.324219 36.632812 29.441406 36.628906 29.5625 C 36.632812 29.714844 36.597656 29.863281 36.523438 29.992188 C 36.453125 30.117188 36.355469 30.222656 36.238281 30.296875 C 36.109375 30.382812 35.96875 30.441406 35.824219 30.476562 C 35.660156 30.515625 35.496094 30.535156 35.332031 30.535156 C 35.03125 30.550781 34.734375 30.496094 34.460938 30.378906 Z M 34.460938 30.378906 "/>
<path style=" stroke:none;fill-rule:nonzero;fill:rgb(27.450982%,31.764707%,32.941177%);fill-opacity:1;" d="M 39.847656 29.054688 L 37.761719 29.054688 C 37.753906 29.316406 37.847656 29.566406 38.023438 29.75 C 38.214844 29.921875 38.457031 30.011719 38.707031 29.996094 C 39.03125 29.996094 39.347656 29.890625 39.609375 29.6875 L 39.609375 30.28125 C 39.273438 30.480469 38.886719 30.578125 38.503906 30.558594 C 38.105469 30.582031 37.71875 30.421875 37.441406 30.117188 C 37.167969 29.769531 37.03125 29.324219 37.058594 28.871094 C 37.039062 28.414062 37.191406 27.96875 37.480469 27.632812 C 37.75 27.320312 38.132812 27.144531 38.53125 27.152344 C 38.898438 27.128906 39.253906 27.285156 39.5 27.574219 C 39.746094 27.914062 39.867188 28.339844 39.84375 28.765625 Z M 39.179688 28.53125 C 39.1875 28.3125 39.125 28.09375 39.003906 27.914062 C 38.882812 27.765625 38.707031 27.6875 38.523438 27.695312 C 38.332031 27.691406 38.148438 27.777344 38.015625 27.925781 C 37.871094 28.09375 37.785156 28.308594 37.761719 28.535156 Z M 39.179688 28.53125 "/>
<path style=" stroke:none;fill-rule:nonzero;fill:rgb(27.450982%,31.764707%,32.941177%);fill-opacity:1;" d="M 11.679688 38.285156 L 10.890625 38.285156 L 10.492188 37.125 L 8.828125 37.125 L 8.457031 38.285156 L 7.683594 38.285156 L 9.285156 33.730469 L 10.085938 33.730469 Z M 10.324219 36.503906 L 9.730469 34.6875 C 9.703125 34.59375 9.683594 34.5 9.667969 34.40625 C 9.65625 34.503906 9.636719 34.597656 9.609375 34.691406 L 9.015625 36.507812 Z M 10.324219 36.503906 "/>
<path style=" stroke:none;fill-rule:nonzero;fill:rgb(27.450982%,31.764707%,32.941177%);fill-opacity:1;" d="M 14.875 38.285156 L 14.183594 38.285156 L 14.183594 36.453125 C 14.183594 35.84375 13.980469 35.542969 13.578125 35.542969 C 13.375 35.535156 13.183594 35.628906 13.054688 35.792969 C 12.917969 35.972656 12.847656 36.195312 12.859375 36.421875 L 12.859375 38.277344 L 12.152344 38.277344 L 12.152344 35.035156 L 12.851562 35.035156 L 12.851562 35.574219 L 12.863281 35.574219 C 13.054688 35.1875 13.4375 34.945312 13.847656 34.957031 C 14.140625 34.9375 14.421875 35.066406 14.609375 35.300781 C 14.804688 35.589844 14.898438 35.941406 14.875 36.292969 Z M 14.875 38.285156 "/>
<path style=" stroke:none;fill-rule:nonzero;fill:rgb(27.450982%,31.764707%,32.941177%);fill-opacity:1;" d="M 18.027344 38.285156 L 17.363281 38.285156 L 17.363281 37.777344 L 17.34375 37.777344 C 17.167969 38.144531 16.804688 38.371094 16.414062 38.359375 C 16.15625 38.375 15.902344 38.28125 15.710938 38.101562 C 15.535156 37.917969 15.445312 37.671875 15.453125 37.414062 C 15.453125 36.796875 15.789062 36.441406 16.453125 36.339844 L 17.359375 36.203125 C 17.359375 35.738281 17.152344 35.507812 16.738281 35.507812 C 16.375 35.507812 16.023438 35.648438 15.753906 35.910156 L 15.753906 35.265625 C 16.089844 35.058594 16.476562 34.953125 16.871094 34.960938 C 17.640625 34.960938 18.027344 35.363281 18.027344 36.171875 Z M 17.363281 36.6875 L 16.722656 36.78125 C 16.566406 36.792969 16.410156 36.847656 16.273438 36.933594 C 16.164062 37.03125 16.109375 37.179688 16.125 37.328125 C 16.121094 37.457031 16.171875 37.582031 16.261719 37.664062 C 16.367188 37.757812 16.5 37.804688 16.632812 37.796875 C 16.832031 37.804688 17.023438 37.71875 17.15625 37.5625 C 17.296875 37.398438 17.371094 37.1875 17.363281 36.96875 Z M 17.363281 36.6875 "/>
<path style=" stroke:none;fill-rule:nonzero;fill:rgb(27.450982%,31.764707%,32.941177%);fill-opacity:1;" d="M 19.511719 38.285156 L 18.8125 38.285156 L 18.8125 33.472656 L 19.511719 33.472656 Z M 19.511719 38.285156 "/>
<path style=" stroke:none;fill-rule:nonzero;fill:rgb(27.450982%,31.764707%,32.941177%);fill-opacity:1;" d="M 23.046875 35.035156 L 21.664062 38.8125 C 21.378906 39.484375 20.976562 39.824219 20.457031 39.824219 C 20.335938 39.824219 20.210938 39.8125 20.09375 39.78125 L 20.09375 39.167969 C 20.1875 39.203125 20.289062 39.222656 20.390625 39.226562 C 20.644531 39.230469 20.875 39.066406 20.96875 38.816406 L 21.167969 38.285156 L 19.964844 35.035156 L 20.730469 35.035156 L 21.460938 37.398438 C 21.46875 37.425781 21.484375 37.503906 21.511719 37.632812 L 21.527344 37.632812 C 21.539062 37.585938 21.554688 37.507812 21.582031 37.402344 L 22.347656 35.035156 Z M 23.046875 35.035156 "/>
<path style=" stroke:none;fill-rule:nonzero;fill:rgb(27.450982%,31.764707%,32.941177%);fill-opacity:1;" d="M 25.273438 38.25 C 25.105469 38.328125 24.921875 38.363281 24.738281 38.355469 C 24.144531 38.355469 23.847656 38.054688 23.847656 37.449219 L 23.847656 35.609375 L 23.339844 35.609375 L 23.339844 35.035156 L 23.847656 35.035156 L 23.847656 34.285156 L 24.542969 34.074219 L 24.542969 35.035156 L 25.273438 35.035156 L 25.273438 35.613281 L 24.542969 35.613281 L 24.542969 37.238281 C 24.527344 37.386719 24.5625 37.539062 24.640625 37.660156 C 24.726562 37.753906 24.847656 37.796875 24.96875 37.785156 C 25.082031 37.789062 25.1875 37.75 25.273438 37.679688 Z M 25.273438 38.25 "/>
<path style=" stroke:none;fill-rule:nonzero;fill:rgb(27.450982%,31.764707%,32.941177%);fill-opacity:1;" d="M 26.136719 34.351562 C 26.03125 34.351562 25.925781 34.308594 25.847656 34.230469 C 25.769531 34.15625 25.722656 34.046875 25.726562 33.933594 C 25.726562 33.820312 25.769531 33.710938 25.847656 33.632812 C 25.925781 33.554688 26.03125 33.511719 26.136719 33.511719 C 26.25 33.511719 26.355469 33.554688 26.4375 33.632812 C 26.515625 33.710938 26.5625 33.820312 26.558594 33.933594 C 26.558594 34.046875 26.515625 34.152344 26.4375 34.230469 C 26.355469 34.308594 26.25 34.351562 26.136719 34.351562 Z M 26.480469 38.285156 L 25.789062 38.285156 L 25.789062 35.035156 L 26.480469 35.035156 Z M 26.480469 38.285156 "/>
<path style=" stroke:none;fill-rule:nonzero;fill:rgb(27.450982%,31.764707%,32.941177%);fill-opacity:1;" d="M 29.503906 38.132812 C 29.238281 38.289062 28.9375 38.367188 28.636719 38.359375 C 28.226562 38.378906 27.828125 38.210938 27.535156 37.90625 C 27.253906 37.589844 27.101562 37.167969 27.117188 36.734375 C 27.097656 36.257812 27.257812 35.789062 27.566406 35.441406 C 27.886719 35.109375 28.324219 34.933594 28.769531 34.957031 C 29.023438 34.949219 29.273438 35.003906 29.507812 35.113281 L 29.507812 35.796875 C 29.3125 35.636719 29.074219 35.546875 28.824219 35.542969 C 28.554688 35.535156 28.292969 35.652344 28.105469 35.863281 C 27.914062 36.085938 27.8125 36.382812 27.824219 36.6875 C 27.808594 36.980469 27.90625 37.265625 28.089844 37.484375 C 28.277344 37.683594 28.535156 37.789062 28.796875 37.777344 C 29.058594 37.773438 29.304688 37.671875 29.503906 37.492188 Z M 29.503906 38.132812 "/>
<path style=" stroke:none;fill-rule:nonzero;fill:rgb(27.450982%,31.764707%,32.941177%);fill-opacity:1;" d="M 29.996094 38.183594 L 29.996094 37.5 C 30.238281 37.707031 30.539062 37.816406 30.851562 37.816406 C 31.269531 37.816406 31.476562 37.683594 31.476562 37.421875 C 31.480469 37.355469 31.460938 37.289062 31.425781 37.234375 C 31.386719 37.175781 31.335938 37.128906 31.28125 37.09375 C 31.210938 37.050781 31.140625 37.011719 31.066406 36.984375 L 30.789062 36.878906 C 30.671875 36.828125 30.558594 36.773438 30.449219 36.710938 C 30.355469 36.652344 30.269531 36.582031 30.199219 36.5 C 30.132812 36.425781 30.082031 36.339844 30.046875 36.242188 C 30.011719 36.136719 29.996094 36.023438 29.996094 35.910156 C 29.992188 35.761719 30.027344 35.617188 30.101562 35.488281 C 30.171875 35.367188 30.269531 35.265625 30.382812 35.1875 C 30.503906 35.101562 30.636719 35.039062 30.777344 35.003906 C 30.929688 34.960938 31.085938 34.941406 31.242188 34.941406 C 31.5 34.9375 31.757812 34.984375 32 35.078125 L 32 35.722656 C 31.78125 35.5625 31.523438 35.480469 31.257812 35.488281 C 31.179688 35.484375 31.097656 35.496094 31.019531 35.515625 C 30.957031 35.53125 30.894531 35.558594 30.839844 35.597656 C 30.792969 35.625 30.753906 35.667969 30.722656 35.71875 C 30.695312 35.765625 30.683594 35.820312 30.683594 35.875 C 30.679688 35.9375 30.695312 36 30.722656 36.054688 C 30.753906 36.105469 30.796875 36.148438 30.847656 36.179688 C 30.910156 36.21875 30.976562 36.253906 31.046875 36.28125 L 31.308594 36.382812 C 31.429688 36.433594 31.550781 36.492188 31.664062 36.554688 C 31.761719 36.613281 31.851562 36.683594 31.933594 36.765625 C 32.003906 36.839844 32.0625 36.929688 32.101562 37.027344 C 32.144531 37.136719 32.164062 37.257812 32.160156 37.375 C 32.164062 37.527344 32.128906 37.679688 32.054688 37.808594 C 31.980469 37.929688 31.882812 38.035156 31.769531 38.113281 C 31.640625 38.195312 31.5 38.257812 31.355469 38.289062 C 31.191406 38.332031 31.027344 38.351562 30.859375 38.347656 C 30.5625 38.359375 30.269531 38.304688 29.996094 38.183594 Z M 29.996094 38.183594 "/>
<path style=" stroke:none;fill-rule:nonzero;fill:rgb(0%,47.058824%,83.137256%);fill-opacity:1;" d="M 19.363281 0 L 10.398438 5.453125 L 10.398438 16.34375 L 19.363281 21.855469 L 28.328125 16.402344 L 28.328125 5.472656 Z M 26.664062 15.261719 L 19.363281 19.753906 L 12.050781 15.316406 L 12.050781 6.53125 L 19.355469 2.042969 L 26.65625 6.546875 Z M 26.664062 15.261719 "/>
<path style=" stroke:none;fill-rule:nonzero;fill:rgb(31.37255%,90.196079%,100%);fill-opacity:1;" d="M 23.632812 12.71875 C 23.546875 12.570312 23.417969 12.449219 23.265625 12.378906 C 22.324219 10.1875 20.398438 8.65625 18.15625 8.308594 L 25.554688 3.765625 L 23.832031 2.71875 L 15.402344 7.894531 C 15.066406 8.097656 14.902344 8.519531 15.003906 8.917969 C 15.105469 9.316406 15.445312 9.59375 15.835938 9.59375 C 15.867188 9.585938 15.902344 9.578125 15.9375 9.566406 L 16.078125 10.195312 C 18.292969 9.640625 20.574219 10.765625 21.605469 12.921875 L 13.210938 18.074219 L 14.921875 19.121094 L 23.320312 13.960938 C 23.433594 13.890625 23.527344 13.792969 23.597656 13.675781 L 23.683594 13.652344 C 23.675781 13.617188 23.667969 13.582031 23.65625 13.550781 C 23.777344 13.289062 23.769531 12.976562 23.632812 12.71875 Z M 23.632812 12.71875 "/>
<path style=" stroke:none;fill-rule:nonzero;fill:url(#linear0);" d="M 22.890625 10.945312 C 21.722656 10.945312 20.777344 11.949219 20.777344 13.191406 C 20.777344 14.433594 21.722656 15.4375 22.890625 15.4375 C 24.058594 15.4375 25.003906 14.433594 25.003906 13.191406 C 25.003906 11.949219 24.058594 10.945312 22.890625 10.945312 Z M 15.832031 6.394531 C 14.664062 6.394531 13.71875 7.402344 13.71875 8.640625 C 13.71875 9.882812 14.664062 10.886719 15.832031 10.886719 C 17 10.886719 17.945312 9.882812 17.945312 8.640625 C 17.945312 7.402344 17 6.394531 15.832031 6.394531 Z M 15.832031 6.394531 "/>
</g>
</svg>
