<svg xmlns="http://www.w3.org/2000/svg" width="27" height="28" fill="none"><g clip-path="url(#a)"><path fill="#fff" fill-rule="evenodd" d="M22.884 24.009h.231c.256 0 .502.105.683.293.18.187.282.442.282.707 0 .266-.101.52-.282.708a.95.95 0 0 1-.683.293H20.22a.95.95 0 0 1-.683-.293 1.02 1.02 0 0 1-.282-.707v-3.003c0-.266.101-.52.282-.708a.95.95 0 0 1 .683-.293c.256 0 .501.105.682.293s.283.442.283.708v.92a12.1 12.1 0 0 0 3.512-6.114c.548-2.36.394-4.836-.442-7.103a11.95 11.95 0 0 0-4.24-5.596 11.3 11.3 0 0 0-6.55-2.124c-.904 0-1.804.107-2.684.32a.94.94 0 0 1-.687-.158 1 1 0 0 1-.4-.6A1.03 1.03 0 0 1 9.792.83a.97.97 0 0 1 .545-.461c2.87-.697 5.882-.401 8.575.842 2.693 1.244 4.92 3.367 6.341 6.045a14.46 14.46 0 0 1 1.531 8.79c-.427 3.024-1.797 5.82-3.9 7.963m-6.747 1.68c-.877.213-1.774.32-2.674.321a11.3 11.3 0 0 1-6.55-2.124 11.95 11.95 0 0 1-4.24-5.596 12.43 12.43 0 0 1-.443-7.103 12.1 12.1 0 0 1 3.512-6.114v.92c0 .266.102.52.283.708a.95.95 0 0 0 .683.293.95.95 0 0 0 .682-.293 1.02 1.02 0 0 0 .283-.708V2.991c0-.266-.102-.52-.283-.708a.95.95 0 0 0-.682-.293H3.812a.95.95 0 0 0-.682.293 1.02 1.02 0 0 0-.283.708c0 .265.102.52.283.707a.95.95 0 0 0 .682.294h.232C1.94 6.134.57 8.93.144 11.955a14.46 14.46 0 0 0 1.53 8.79c1.422 2.678 3.649 4.8 6.342 6.044a13.07 13.07 0 0 0 8.574.843.98.98 0 0 0 .545-.462c.12-.22.154-.477.098-.722a1 1 0 0 0-.4-.6.94.94 0 0 0-.687-.158zm1.9-9.017c.208-.382.37-.789.483-1.211l1.071-.19a.73.73 0 0 0 .452-.258.78.78 0 0 0 .176-.503v-1a.8.8 0 0 0-.178-.505.75.75 0 0 0-.45-.266l-1.07-.18a5.5 5.5 0 0 0-.483-1.211l.627-.921a.79.79 0 0 0-.077-1.001l-.695-.72a.724.724 0 0 0-.965-.08l-.888.65a5 5 0 0 0-1.168-.5l-.183-1.112a.77.77 0 0 0-.244-.48.72.72 0 0 0-.49-.19h-.965a.72.72 0 0 0-.484.182.77.77 0 0 0-.25.468l-.183 1.111c-.407.117-.8.285-1.168.5l-.887-.65a.724.724 0 0 0-.966.08l-.694.72a.792.792 0 0 0-.077 1l.627.923c-.208.382-.37.788-.483 1.21l-1.071.18a.75.75 0 0 0-.45.267.8.8 0 0 0-.177.504v1.001a.78.78 0 0 0 .176.503c.115.14.275.231.45.258l1.072.19c.113.422.275.83.483 1.211l-.628.92a.79.79 0 0 0 .078 1.002l.694.72a.725.725 0 0 0 .965.08l.888-.65q.555.323 1.168.5l.184 1.111a.77.77 0 0 0 .249.468c.134.12.307.185.484.183h.965a.72.72 0 0 0 .485-.183.77.77 0 0 0 .249-.468l.183-1.11a5 5 0 0 0 1.168-.501l.888.65a.725.725 0 0 0 .965-.08l.695-.72a.792.792 0 0 0 .077-1zm-4.574-.67c-.382 0-.755-.118-1.072-.338a2 2 0 0 1-.711-.898 2.07 2.07 0 0 1-.11-1.157c.074-.388.258-.745.528-1.025s.614-.47.988-.547a1.87 1.87 0 0 1 1.116.113c.352.152.654.409.866.738s.325.716.325 1.112c0 .53-.203 1.04-.565 1.415a1.9 1.9 0 0 1-1.365.587" clip-rule="evenodd"/></g><defs><clipPath id="a"><path fill="#fff" d="M0 0h27v28H0z"/></clipPath></defs></svg>