<svg xmlns="http://www.w3.org/2000/svg" width="27" height="24" fill="none"><g clip-path="url(#a)"><path fill="#fff" fill-rule="evenodd" d="M13.5 6C20.956 6 27 4.657 27 3s-6.044-3-13.5-3S0 1.343 0 3s6.044 3 13.5 3m0 2C6.045 8 0 6.657 0 5v7c0 1.657 6.045 3 13.5 3S27 13.657 27 12V5c0 1.657-6.045 3-13.5 3m-9.562 4c-.932 0-1.688-.672-1.688-1.5S3.006 9 3.938 9s1.687.672 1.687 1.5S4.869 12 3.938 12M0 14c0 1.657 6.045 3 13.5 3S27 15.657 27 14v7c0 1.657-6.045 3-13.5 3S0 22.657 0 21zm2.25 5.5c0 .828.756 1.5 1.688 1.5s1.687-.672 1.687-1.5S4.869 18 3.938 18c-.932 0-1.688.672-1.688 1.5" clip-rule="evenodd"/></g><defs><clipPath id="a"><path fill="#fff" d="M0 0h27v24H0z"/></clipPath></defs></svg>