<svg xmlns="http://www.w3.org/2000/svg" width="35" height="35" fill="none"><path fill="#ADAFAF" d="M13.158 4.758a6.6 6.6 0 0 0-2.22-.383 6.564 6.564 0 0 0-6.563 6.563 6.57 6.57 0 0 0 2.69 5.304c.695.252 1.45.389 2.232.389 2.756 0 5.119-1.701 6.087-4.113q.056-.125.098-.257a6.57 6.57 0 0 0-2.324-7.503m-6.049.935L8.75 7.082l5.469 4.627-4.375-.547-1.094 1.531-1.64 2.297zM20.446 10.597l-1.31 1.045-8.948 19.333 18.15-5.001 1.069-8.818-.074-2.446z"/><path fill="#000" d="m30.615 14.545 1.548-3.345a1.093 1.093 0 0 0-.533-1.452l-9.495-4.395a1.1 1.1 0 0 0-.242.333l-1.838 3.97z"/><path fill="#ADAFAF" d="m14.219 11.709-4.375-.547-2.735 3.828V5.693z"/><path fill="#000" d="M15.312 25.156a.547.547 0 0 1-.488-.791l4.374-8.75a.546.546 0 1 1 .979.489l-4.375 8.75a.55.55 0 0 1-.49.302M9.297 17.178c-3.92 0-7.11-3.19-7.11-7.11s3.19-7.109 7.11-7.109 7.11 3.19 7.11 7.11-3.19 7.109-7.11 7.109m0-13.125a6.023 6.023 0 0 0-6.016 6.016 6.023 6.023 0 0 0 6.016 6.015 6.023 6.023 0 0 0 6.015-6.015 6.02 6.02 0 0 0-6.015-6.016"/><path fill="#000" d="m31.862 9.253-9.926-4.594a1.63 1.63 0 0 0-2.177.798l-.502 1.083a.546.546 0 0 0 .99.46l.502-1.083a.54.54 0 0 1 .307-.285.56.56 0 0 1 .42.017l9.927 4.594a.55.55 0 0 1 .267.727l-1.607 3.473-.498-.23-9.926-4.594-.497-.23.186-.405a.545.545 0 1 0-.99-.457l-.416.9c.01.115-.24.526.454.816l-1.22.973a.5.5 0 0 0-.153.197L7.81 31.264a.55.55 0 0 0 .082.58.54.54 0 0 0 .564.175l20.026-5.518a.54.54 0 0 0 .4-.46l.133-1.104a.545.545 0 0 0-1.083-.13l-.09.738-18.544 5.107 8.64-18.665 1.548-1.23 9.313 4.309.06 2.062-.664 5.512a.546.546 0 0 0 1.083.131l.676-5.55v-.082l-.044-1.559c.202.01.498.426.913-.18l1.838-3.97c.382-.821.021-1.8-.8-2.177M14.574 11.293l-7.11-6.016A.55.55 0 0 0 6.88 5.2a.54.54 0 0 0-.317.492v4.151a.547.547 0 0 0 1.093 0v-2.97l4.807 4.064-2.554-.317a.53.53 0 0 0-.508.224l-1.745 2.44V12.03a.547.547 0 0 0-1.093 0v2.958a.54.54 0 0 0 .546.547c.175 0 .34-.082.443-.23l2.549-3.56 4.052.509c.24.027.47-.104.569-.323a.56.56 0 0 0-.148-.64"/></svg>