<svg xmlns="http://www.w3.org/2000/svg" width="32" height="32" fill="none"><path fill="#fff" d="M21.138 19.976c-.388 0-.727.097-.97.29a1.69 1.69 0 0 0-1.454-.824c-.388 0-.727.097-.97.34a1.69 1.69 0 0 0-1.454-.825q-.364 0-.728.146V15.37c0-2.23-3.394-2.28-3.394.048v10.958l-1.406-1.406c-.727-.728-1.89-.63-2.472.097-.582.678-.534 1.697.145 2.375l3.49 3.491c.34.388.825.582 1.358.582h7.758c1.067 0 1.89-.873 1.89-1.89v-7.952c-.096-.921-.823-1.697-1.793-1.697"/><path fill="#fff" d="M28.362 12.17c-1.309 0-2.375.92-2.57 2.133h-7.126c.048-.485.048-.97 0-1.358l7.612-4.218c.388.485.97.825 1.697.825 1.163 0 2.084-.97 2.084-2.085 0-1.164-.97-2.085-2.084-2.085-1.31 0-2.328 1.212-2.085 2.473l-7.467 4.12a4.3 4.3 0 0 0-.388-.823l2.57-5.334c1.212.34 2.618-.63 2.618-2.036 0-1.164-.97-2.085-2.085-2.085a2.07 2.07 0 0 0-2.085 2.085c0 .63.291 1.212.728 1.6l-2.328 4.897c-.775-.824-1.842-1.406-3.054-1.503V4.655c.921-.194 1.648-1.067 1.648-2.037A2.07 2.07 0 0 0 13.962.533a2.07 2.07 0 0 0-2.084 2.085c0 .97.678 1.843 1.6 2.037v4.17c-.534.048-1.019.193-1.503.387L8.629 5.964c.194-.34.34-.728.34-1.116a2.07 2.07 0 0 0-2.085-2.084 2.07 2.07 0 0 0-2.085 2.084 2.07 2.07 0 0 0 2.085 2.085c.388 0 .775-.097 1.066-.29l3.2 3.102c-.824.582-1.454 1.455-1.794 2.425l-3.297-.921a2.43 2.43 0 0 0-2.424-2.425 2.43 2.43 0 0 0-2.424 2.425 2.43 2.43 0 0 0 2.424 2.424c1.018 0 1.891-.63 2.23-1.503l3.297.92c-.048.631 0 1.261.146 1.795l-3.685 3.588a2.57 2.57 0 0 0-1.454-.437 2.607 2.607 0 0 0-2.619 2.618 2.607 2.607 0 0 0 2.619 2.619 2.607 2.607 0 0 0 2.618-2.619c0-.533-.146-1.066-.485-1.503l3.394-3.296c.388.727.921 1.357 1.6 1.793v-2.23c0-2.424 2.909-3.636 4.557-1.94.485.486.776 1.164.776 1.892v2.278c.873-.581 1.552-1.406 1.891-2.375h7.37c.242 1.212 1.309 2.133 2.57 2.133a2.607 2.607 0 0 0 2.618-2.618c-.097-1.406-1.261-2.618-2.716-2.618"/></svg>