<?xml version="1.0" encoding="UTF-8"?>
<svg xmlns="http://www.w3.org/2000/svg" xmlns:xlink="http://www.w3.org/1999/xlink" width="40px" height="40px" viewBox="0 0 40 40" version="1.1">
<g id="surface1">
<path style=" stroke:none;fill-rule:nonzero;fill:rgb(21.176471%,27.058825%,28.235295%);fill-opacity:1;" d="M 6.066406 32.4375 L 6.066406 29.378906 C 6.050781 29.195312 6.105469 29.011719 6.210938 28.871094 C 6.316406 28.734375 6.464844 28.65625 6.621094 28.652344 L 6.71875 28.652344 C 6.878906 28.648438 7.027344 28.730469 7.132812 28.867188 C 7.242188 29.007812 7.292969 29.191406 7.277344 29.378906 L 7.277344 35.800781 C 7.292969 37.300781 6.605469 38.691406 5.492188 39.402344 C 4.972656 39.773438 4.375 39.96875 3.765625 39.964844 L 3.527344 39.964844 C 2.265625 39.980469 1.097656 39.167969 0.496094 37.847656 C 0.183594 37.230469 0.0195312 36.523438 0.0195312 35.800781 L 0.0195312 35.519531 C 0 34.019531 0.6875 32.628906 1.804688 31.921875 C 2.324219 31.546875 2.921875 31.351562 3.527344 31.355469 L 3.765625 31.355469 C 4.621094 31.351562 5.445312 31.738281 6.066406 32.4375 Z M 1.25 35.660156 C 1.230469 36.726562 1.730469 37.707031 2.539062 38.175781 C 3.683594 38.898438 5.105469 38.398438 5.730469 37.046875 C 5.941406 36.613281 6.050781 36.117188 6.046875 35.613281 C 6.046875 34.683594 5.652344 33.816406 4.996094 33.308594 C 4.609375 32.964844 4.132812 32.78125 3.648438 32.789062 C 2.691406 32.773438 1.824219 33.441406 1.449219 34.484375 C 1.316406 34.855469 1.246094 35.257812 1.25 35.660156 Z M 11.496094 31.355469 L 11.675781 31.355469 C 13.015625 31.332031 14.246094 32.21875 14.847656 33.636719 C 15.121094 34.210938 15.265625 34.859375 15.261719 35.519531 L 15.261719 35.800781 C 15.28125 37.300781 14.59375 38.691406 13.480469 39.402344 C 12.960938 39.773438 12.363281 39.96875 11.753906 39.964844 L 11.496094 39.964844 C 10.234375 39.980469 9.066406 39.167969 8.464844 37.847656 C 8.148438 37.230469 7.984375 36.523438 7.988281 35.800781 L 7.988281 35.519531 C 8.015625 33.234375 9.570312 31.390625 11.496094 31.355469 Z M 9.21875 35.660156 C 9.222656 36.957031 9.960938 38.085938 11.015625 38.410156 C 12.074219 38.734375 13.179688 38.175781 13.714844 37.046875 C 14.355469 35.722656 13.996094 34.035156 12.902344 33.234375 C 12.523438 32.929688 12.074219 32.765625 11.613281 32.765625 C 10.660156 32.746094 9.789062 33.414062 9.414062 34.457031 C 9.28125 34.839844 9.214844 35.246094 9.214844 35.660156 Z M 20.316406 32.90625 C 20.078125 32.8125 19.832031 32.765625 19.582031 32.765625 C 18.570312 32.71875 17.839844 33.402344 17.402344 34.460938 C 17.253906 34.820312 17.179688 35.214844 17.183594 35.613281 C 17.183594 36.859375 17.738281 37.707031 18.671875 38.246094 C 19.035156 38.421875 19.425781 38.5 19.820312 38.484375 C 20.195312 38.433594 20.558594 38.296875 20.890625 38.082031 L 20.949219 38.058594 L 21.1875 38.058594 C 21.460938 38.09375 21.675781 38.367188 21.683594 38.695312 L 21.683594 38.835938 C 21.683594 39.707031 20.335938 39.917969 19.820312 39.964844 C 18.101562 40.179688 16.515625 38.851562 16.113281 36.859375 C 16.015625 36.511719 15.96875 36.144531 15.972656 35.777344 L 15.972656 35.496094 C 15.960938 33.996094 16.648438 32.609375 17.761719 31.898438 C 18.28125 31.523438 18.878906 31.328125 19.484375 31.332031 L 19.722656 31.332031 C 20.359375 31.324219 20.984375 31.554688 21.507812 31.992188 L 21.546875 32.039062 L 21.566406 32.085938 C 21.628906 32.199219 21.664062 32.328125 21.664062 32.460938 L 21.664062 32.601562 C 21.664062 32.980469 21.429688 33.167969 21.148438 33.238281 L 21.050781 33.238281 C 20.792969 33.171875 20.546875 33.058594 20.316406 32.910156 Z M 24.261719 33.894531 C 24.734375 33.332031 25.210938 32.765625 25.6875 32.226562 C 25.828125 32.0625 26.320312 31.425781 26.519531 31.425781 L 26.757812 31.425781 C 27.035156 31.460938 27.246094 31.734375 27.253906 32.0625 L 27.253906 32.203125 C 27.253906 32.4375 27.015625 32.71875 26.875 32.886719 C 26.597656 33.238281 26.300781 33.566406 26.023438 33.921875 L 24.558594 35.683594 L 26.460938 37.941406 C 26.640625 38.152344 26.816406 38.367188 26.976562 38.578125 C 27.058594 38.65625 27.125 38.75 27.175781 38.859375 C 27.230469 38.957031 27.257812 39.070312 27.253906 39.1875 L 27.253906 39.355469 C 27.222656 39.6875 26.980469 39.941406 26.699219 39.941406 L 26.597656 39.941406 C 26.398438 39.941406 26.164062 39.683594 26.023438 39.519531 L 25.191406 38.53125 L 24.257812 37.449219 L 24.257812 39.1875 C 24.273438 39.375 24.21875 39.558594 24.113281 39.695312 C 24.007812 39.832031 23.859375 39.914062 23.703125 39.917969 L 23.605469 39.917969 C 23.445312 39.917969 23.296875 39.839844 23.191406 39.699219 C 23.085938 39.5625 23.035156 39.375 23.050781 39.1875 L 23.050781 29.402344 C 23.035156 29.21875 23.089844 29.035156 23.195312 28.894531 C 23.300781 28.757812 23.449219 28.679688 23.605469 28.675781 L 23.703125 28.675781 C 23.863281 28.671875 24.011719 28.753906 24.117188 28.890625 C 24.222656 29.03125 24.277344 29.214844 24.257812 29.402344 L 24.257812 33.894531 Z M 39.421875 31.402344 L 39.542969 31.402344 C 39.707031 31.390625 39.867188 31.464844 39.984375 31.605469 C 40.105469 31.742188 40.164062 31.933594 40.15625 32.132812 C 40.15625 32.71875 39.679688 32.882812 39.265625 32.882812 C 38.710938 32.9375 38.195312 33.230469 37.816406 33.707031 C 37.363281 34.238281 37.117188 34.972656 37.144531 35.730469 L 37.144531 39.234375 C 37.15625 39.421875 37.101562 39.605469 37 39.742188 C 36.894531 39.878906 36.746094 39.960938 36.585938 39.964844 L 36.488281 39.964844 C 36.332031 39.964844 36.179688 39.886719 36.074219 39.746094 C 35.96875 39.605469 35.917969 39.421875 35.933594 39.234375 L 35.933594 35.542969 C 35.933594 34.175781 36.511719 32.902344 37.480469 32.15625 C 38.042969 31.667969 38.722656 31.402344 39.421875 31.402344 Z M 30.78125 38.34375 C 31.238281 38.507812 31.722656 38.53125 32.1875 38.414062 C 32.515625 38.214844 32.871094 38.089844 33.238281 38.035156 L 33.277344 38.035156 L 33.320312 38.058594 C 33.460938 38.128906 33.578125 38.253906 33.65625 38.410156 C 33.738281 38.574219 33.761719 38.773438 33.714844 38.957031 C 33.671875 39.140625 33.5625 39.292969 33.417969 39.375 L 33.320312 39.445312 C 32.222656 40.195312 30.871094 40.179688 29.789062 39.398438 C 29.25 39.050781 28.804688 38.527344 28.5 37.894531 L 28.421875 37.753906 C 27.699219 36.328125 27.777344 34.523438 28.621094 33.191406 C 28.914062 32.703125 29.292969 32.292969 29.730469 31.992188 L 29.890625 31.871094 C 30.925781 31.152344 32.207031 31.132812 33.261719 31.824219 C 33.859375 32.167969 34.355469 32.71875 34.6875 33.402344 L 34.746094 33.519531 C 34.984375 34.015625 34.667969 34.460938 34.351562 34.765625 C 33.972656 35.117188 33.597656 35.519531 33.21875 35.894531 C 32.386719 36.695312 31.59375 37.519531 30.78125 38.34375 Z M 29.730469 37.472656 C 30.640625 36.554688 31.535156 35.636719 32.445312 34.71875 C 32.761719 34.410156 33.101562 34.085938 33.398438 33.753906 C 32.621094 32.730469 31.347656 32.496094 30.34375 33.191406 C 29.546875 33.714844 29.085938 34.75 29.175781 35.824219 C 29.1875 36.273438 29.296875 36.710938 29.492188 37.097656 C 29.570312 37.214844 29.652344 37.355469 29.730469 37.472656 Z M 29.730469 37.472656 "/>
<path style=" stroke:none;fill-rule:nonzero;fill:rgb(21.176471%,27.058825%,28.235295%);fill-opacity:1;" d="M 23.171875 8.515625 L 26.757812 8.515625 L 26.757812 12.867188 L 28.578125 12.867188 C 29.429688 12.855469 30.269531 12.6875 31.078125 12.371094 C 31.5 12.207031 31.90625 11.984375 32.285156 11.714844 C 31.789062 10.914062 31.496094 9.957031 31.453125 8.960938 C 31.355469 7.621094 31.570312 5.902344 32.324219 4.867188 L 32.703125 4.351562 L 33.160156 4.773438 C 34.289062 5.855469 35.242188 7.363281 35.417969 9.078125 C 36.804688 8.578125 38.300781 8.75 39.582031 9.550781 L 40.078125 9.878906 L 39.816406 10.492188 C 38.804688 12.84375 36.664062 13.570312 34.605469 13.453125 C 31.492188 22.652344 24.734375 27.003906 16.507812 27.003906 C 12.265625 27.003906 8.382812 25.121094 6.164062 20.652344 L 6.121094 20.582031 L 5.804688 19.804688 C 5.074219 17.832031 4.789062 15.667969 4.972656 13.523438 L 5.03125 12.890625 L 8.105469 12.890625 L 8.105469 8.515625 L 11.691406 8.515625 L 11.691406 4.257812 L 18.867188 4.257812 L 18.867188 0 L 23.171875 0 L 23.171875 8.515625 "/>
<path style=" stroke:none;fill-rule:nonzero;fill:rgb(13.333334%,62.7451%,78.431374%);fill-opacity:1;" d="M 34.804688 10.136719 C 35.042969 7.925781 33.636719 6.164062 32.78125 5.339844 C 31.773438 6.703125 31.632812 10.304688 33.199219 11.832031 C 32.328125 12.75 30.484375 13.597656 28.582031 13.597656 L 5.550781 13.597656 C 5.351562 15.777344 5.683594 17.980469 6.5 19.949219 L 6.761719 20.511719 C 6.917969 20.839844 7.117188 21.171875 7.296875 21.476562 C 8.246094 21.546875 9.117188 21.570312 9.910156 21.546875 C 11.207031 21.554688 12.496094 21.332031 13.738281 20.886719 C 13.832031 20.84375 13.941406 20.871094 14.019531 20.949219 C 14.097656 21.03125 14.132812 21.152344 14.109375 21.273438 C 14.089844 21.390625 14.015625 21.488281 13.914062 21.523438 C 13.777344 21.570312 13.65625 21.617188 13.519531 21.664062 C 12.65625 21.941406 11.773438 22.117188 10.882812 22.179688 L 10.699219 22.179688 C 10.285156 22.207031 9.828125 22.207031 9.375 22.207031 C 8.878906 22.207031 8.382812 22.207031 7.828125 22.160156 L 7.808594 22.160156 C 9.730469 24.722656 12.722656 26.25 16.488281 26.25 C 24.4375 26.25 31.195312 22.0625 34.1875 12.679688 C 36.308594 12.9375 38.351562 12.300781 39.28125 10.136719 C 37.792969 9.171875 35.890625 9.476562 34.800781 10.136719 "/>
<path style=" stroke:none;fill-rule:nonzero;fill:rgb(21.568628%,69.411767%,85.09804%);fill-opacity:1;" d="M 34.804688 10.136719 C 35.042969 7.925781 33.636719 6.164062 32.78125 5.339844 C 31.773438 6.703125 31.632812 10.304688 33.199219 11.832031 C 32.328125 12.75 30.484375 13.597656 28.582031 13.597656 L 6.917969 13.597656 C 6.816406 17.171875 7.949219 19.902344 9.929688 21.546875 C 11.226562 21.554688 12.515625 21.332031 13.753906 20.886719 C 13.902344 20.835938 14.054688 20.929688 14.105469 21.101562 C 14.152344 21.273438 14.078125 21.460938 13.933594 21.523438 C 13.792969 21.570312 13.675781 21.617188 13.539062 21.664062 C 12.648438 21.953125 11.742188 22.136719 10.820312 22.207031 L 10.800781 22.179688 C 13.515625 23.828125 17.441406 23.828125 21.941406 21.78125 C 26.996094 19.476562 31.691406 15.101562 34.964844 10.089844 C 34.90625 10.089844 34.855469 10.105469 34.804688 10.136719 "/>
<path style=" stroke:none;fill-rule:nonzero;fill:rgb(10.588235%,50.588238%,64.705884%);fill-opacity:1;" d="M 5.589844 16.441406 C 5.726562 17.664062 6.035156 18.847656 6.5 19.949219 L 6.761719 20.511719 C 6.917969 20.839844 7.117188 21.171875 7.296875 21.476562 C 8.246094 21.546875 9.117188 21.570312 9.910156 21.546875 C 11.207031 21.554688 12.496094 21.332031 13.738281 20.886719 C 13.832031 20.84375 13.941406 20.871094 14.019531 20.949219 C 14.097656 21.03125 14.132812 21.152344 14.109375 21.273438 C 14.089844 21.390625 14.015625 21.488281 13.914062 21.523438 C 13.777344 21.570312 13.65625 21.617188 13.519531 21.664062 C 12.640625 21.953125 11.734375 22.128906 10.824219 22.179688 L 10.683594 22.179688 C 10.269531 22.207031 9.832031 22.230469 9.355469 22.230469 C 8.863281 22.230469 8.347656 22.230469 7.792969 22.179688 C 9.714844 24.746094 12.726562 26.273438 16.492188 26.273438 C 23.308594 26.273438 29.238281 23.214844 32.664062 16.417969 L 5.589844 16.417969 "/>
<path style=" stroke:none;fill-rule:nonzero;fill:rgb(11.372549%,56.862748%,70.588237%);fill-opacity:1;" d="M 7.136719 16.441406 C 7.484375 18.511719 8.492188 20.339844 9.949219 21.546875 C 11.246094 21.554688 12.535156 21.332031 13.773438 20.886719 C 13.871094 20.84375 13.980469 20.867188 14.058594 20.949219 C 14.136719 21.027344 14.171875 21.152344 14.148438 21.273438 C 14.128906 21.390625 14.050781 21.488281 13.953125 21.523438 C 13.816406 21.570312 13.695312 21.617188 13.558594 21.664062 C 12.671875 21.953125 11.761719 22.128906 10.84375 22.179688 C 13.558594 23.828125 17.460938 23.804688 21.960938 21.757812 C 24.738281 20.460938 27.332031 18.667969 29.652344 16.441406 L 7.136719 16.441406 "/>
<path style=" stroke:none;fill-rule:nonzero;fill:rgb(13.725491%,63.921571%,76.078433%);fill-opacity:1;" d="M 8.679688 9.246094 L 11.792969 9.246094 L 11.792969 12.9375 L 8.679688 12.9375 Z M 8.941406 9.550781 L 9.179688 9.550781 L 9.179688 12.632812 L 8.941406 12.632812 Z M 9.394531 9.550781 L 9.65625 9.550781 L 9.65625 12.632812 L 9.394531 12.632812 Z M 9.871094 9.550781 L 10.132812 9.550781 L 10.132812 12.632812 L 9.871094 12.632812 Z M 10.347656 9.550781 L 10.605469 9.550781 L 10.605469 12.632812 L 10.347656 12.632812 Z M 10.824219 9.550781 L 11.082031 9.550781 L 11.082031 12.632812 L 10.824219 12.632812 Z M 11.300781 9.550781 L 11.535156 9.550781 L 11.535156 12.632812 L 11.300781 12.632812 Z M 11.300781 9.550781 "/>
<path style=" stroke:none;fill-rule:nonzero;fill:rgb(13.725491%,63.921571%,76.078433%);fill-opacity:1;" d="M 12.269531 4.964844 L 15.378906 4.964844 L 15.378906 8.65625 L 12.269531 8.65625 Z M 12.527344 5.292969 L 12.765625 5.292969 L 12.765625 8.375 L 12.527344 8.375 Z M 13.003906 5.292969 L 13.261719 5.292969 L 13.261719 8.375 L 13.003906 8.375 Z M 13.460938 5.292969 L 13.71875 5.292969 L 13.71875 8.375 L 13.460938 8.375 Z M 13.933594 5.292969 L 14.195312 5.292969 L 14.195312 8.375 L 13.933594 8.375 Z M 14.410156 5.292969 L 14.667969 5.292969 L 14.667969 8.375 L 14.410156 8.375 Z M 14.886719 5.292969 L 15.125 5.292969 L 15.125 8.375 L 14.886719 8.375 Z M 14.886719 5.292969 "/>
<path style=" stroke:none;fill-rule:nonzero;fill:rgb(20.392157%,73.333335%,87.058824%);fill-opacity:1;" d="M 12.269531 9.246094 L 15.378906 9.246094 L 15.378906 12.9375 L 12.269531 12.9375 Z M 12.527344 9.550781 L 12.765625 9.550781 L 12.765625 12.632812 L 12.527344 12.632812 Z M 13.003906 9.550781 L 13.261719 9.550781 L 13.261719 12.632812 L 13.003906 12.632812 Z M 13.460938 9.550781 L 13.71875 9.550781 L 13.71875 12.632812 L 13.460938 12.632812 Z M 13.933594 9.550781 L 14.195312 9.550781 L 14.195312 12.632812 L 13.933594 12.632812 Z M 14.410156 9.550781 L 14.671875 9.550781 L 14.671875 12.632812 L 14.410156 12.632812 Z M 14.886719 9.550781 L 15.125 9.550781 L 15.125 12.632812 L 14.886719 12.632812 Z M 14.886719 9.550781 "/>
<path style=" stroke:none;fill-rule:nonzero;fill:rgb(13.725491%,63.921571%,76.078433%);fill-opacity:1;" d="M 15.855469 9.246094 L 18.96875 9.246094 L 18.96875 12.9375 L 15.855469 12.9375 Z M 16.113281 9.550781 L 16.351562 9.550781 L 16.351562 12.632812 L 16.113281 12.632812 Z M 16.589844 9.550781 L 16.851562 9.550781 L 16.851562 12.632812 L 16.589844 12.632812 Z M 17.066406 9.550781 L 17.324219 9.550781 L 17.324219 12.632812 L 17.066406 12.632812 Z M 17.523438 9.550781 L 17.78125 9.550781 L 17.78125 12.632812 L 17.523438 12.632812 Z M 18 9.550781 L 18.257812 9.550781 L 18.257812 12.632812 L 18 12.632812 Z M 18.472656 9.550781 L 18.710938 9.550781 L 18.710938 12.632812 L 18.472656 12.632812 Z M 18.472656 9.550781 "/>
<path style=" stroke:none;fill-rule:nonzero;fill:rgb(20.392157%,73.333335%,87.058824%);fill-opacity:1;" d="M 15.855469 4.964844 L 18.96875 4.964844 L 18.96875 8.65625 L 15.855469 8.65625 Z M 16.113281 5.292969 L 16.351562 5.292969 L 16.351562 8.375 L 16.113281 8.375 Z M 16.589844 5.292969 L 16.851562 5.292969 L 16.851562 8.375 L 16.589844 8.375 Z M 17.066406 5.292969 L 17.324219 5.292969 L 17.324219 8.375 L 17.066406 8.375 Z M 17.523438 5.292969 L 17.78125 5.292969 L 17.78125 8.375 L 17.523438 8.375 Z M 17.996094 5.292969 L 18.257812 5.292969 L 18.257812 8.375 L 17.996094 8.375 Z M 18.472656 5.292969 L 18.710938 5.292969 L 18.710938 8.375 L 18.472656 8.375 Z M 18.472656 5.292969 "/>
<path style=" stroke:none;fill-rule:nonzero;fill:rgb(20.392157%,73.333335%,87.058824%);fill-opacity:1;" d="M 19.464844 9.246094 L 22.574219 9.246094 L 22.574219 12.9375 L 19.464844 12.9375 Z M 19.722656 9.550781 L 19.960938 9.550781 L 19.960938 12.632812 L 19.722656 12.632812 Z M 20.179688 9.550781 L 20.4375 9.550781 L 20.4375 12.632812 L 20.179688 12.632812 Z M 20.652344 9.550781 L 20.914062 9.550781 L 20.914062 12.632812 L 20.652344 12.632812 Z M 21.128906 9.550781 L 21.390625 9.550781 L 21.390625 12.632812 L 21.128906 12.632812 Z M 21.585938 9.550781 L 21.84375 9.550781 L 21.84375 12.632812 L 21.585938 12.632812 Z M 22.0625 9.550781 L 22.300781 9.550781 L 22.300781 12.632812 L 22.0625 12.632812 Z M 22.0625 9.550781 "/>
<path style=" stroke:none;fill-rule:nonzero;fill:rgb(13.725491%,63.921571%,76.078433%);fill-opacity:1;" d="M 19.464844 4.964844 L 22.574219 4.964844 L 22.574219 8.65625 L 19.464844 8.65625 Z M 19.722656 5.292969 L 19.960938 5.292969 L 19.960938 8.375 L 19.722656 8.375 Z M 20.179688 5.292969 L 20.4375 5.292969 L 20.4375 8.375 L 20.179688 8.375 Z M 20.652344 5.292969 L 20.914062 5.292969 L 20.914062 8.375 L 20.652344 8.375 Z M 21.128906 5.292969 L 21.390625 5.292969 L 21.390625 8.375 L 21.128906 8.375 Z M 21.585938 5.292969 L 21.84375 5.292969 L 21.84375 8.375 L 21.585938 8.375 Z M 22.0625 5.292969 L 22.300781 5.292969 L 22.300781 8.375 L 22.0625 8.375 Z M 22.0625 5.292969 "/>
<path style=" stroke:none;fill-rule:nonzero;fill:rgb(20.392157%,73.333335%,87.058824%);fill-opacity:1;" d="M 19.464844 0.707031 L 22.574219 0.707031 L 22.574219 4.398438 L 19.464844 4.398438 Z M 19.722656 1.011719 L 19.960938 1.011719 L 19.960938 4.09375 L 19.722656 4.09375 Z M 20.179688 1.011719 L 20.4375 1.011719 L 20.4375 4.09375 L 20.179688 4.09375 Z M 20.652344 1.011719 L 20.914062 1.011719 L 20.914062 4.09375 L 20.652344 4.09375 Z M 21.128906 1.011719 L 21.390625 1.011719 L 21.390625 4.09375 L 21.128906 4.09375 Z M 21.585938 1.011719 L 21.84375 1.011719 L 21.84375 4.09375 L 21.585938 4.09375 Z M 22.0625 1.011719 L 22.300781 1.011719 L 22.300781 4.09375 L 22.0625 4.09375 Z M 22.0625 1.011719 "/>
<path style=" stroke:none;fill-rule:nonzero;fill:rgb(13.725491%,63.921571%,76.078433%);fill-opacity:1;" d="M 23.050781 9.246094 L 26.160156 9.246094 L 26.160156 12.9375 L 23.050781 12.9375 Z M 23.308594 9.550781 L 23.546875 9.550781 L 23.546875 12.632812 L 23.308594 12.632812 Z M 23.765625 9.550781 L 24.023438 9.550781 L 24.023438 12.632812 L 23.765625 12.632812 Z M 24.242188 9.550781 L 24.5 9.550781 L 24.5 12.632812 L 24.242188 12.632812 Z M 24.71875 9.550781 L 24.976562 9.550781 L 24.976562 12.632812 L 24.71875 12.632812 Z M 25.191406 9.550781 L 25.453125 9.550781 L 25.453125 12.632812 L 25.191406 12.632812 Z M 25.648438 9.550781 L 25.886719 9.550781 L 25.886719 12.632812 L 25.648438 12.632812 Z M 25.648438 9.550781 "/>
<path style=" stroke:none;fill-rule:nonzero;fill:rgb(82.745099%,92.54902%,92.54902%);fill-opacity:1;" d="M 15.183594 18.910156 C 15.652344 18.910156 16.035156 19.363281 16.035156 19.921875 C 16.035156 20.480469 15.652344 20.933594 15.183594 20.933594 C 14.710938 20.933594 14.328125 20.480469 14.328125 19.921875 C 14.328125 19.65625 14.417969 19.394531 14.578125 19.207031 C 14.738281 19.015625 14.957031 18.910156 15.183594 18.910156 "/>
<path style=" stroke:none;fill-rule:nonzero;fill:rgb(21.176471%,27.058825%,28.235295%);fill-opacity:1;" d="M 15.183594 19.21875 C 15.257812 19.21875 15.332031 19.234375 15.398438 19.265625 C 15.320312 19.316406 15.273438 19.417969 15.28125 19.523438 C 15.28125 19.691406 15.398438 19.828125 15.539062 19.832031 C 15.632812 19.832031 15.71875 19.765625 15.757812 19.667969 C 15.792969 19.753906 15.804688 19.851562 15.796875 19.949219 C 15.796875 20.351562 15.523438 20.675781 15.183594 20.675781 C 14.84375 20.675781 14.570312 20.351562 14.570312 19.949219 C 14.570312 19.546875 14.84375 19.21875 15.183594 19.21875 "/>
<path style=" stroke:none;fill-rule:nonzero;fill:rgb(21.176471%,27.058825%,28.235295%);fill-opacity:1;" d="M 0 16.820312 L 39.957031 16.820312 C 39.085938 16.5625 37.203125 16.210938 37.519531 14.84375 C 35.933594 17.007812 32.128906 16.371094 31.15625 15.289062 C 30.085938 17.125 23.84375 16.441406 23.40625 15.007812 C 22.058594 16.890625 17.898438 16.890625 16.550781 15.007812 C 16.113281 16.441406 9.871094 17.148438 8.800781 15.289062 C 7.828125 16.371094 4.023438 17.007812 2.4375 14.84375 C 2.753906 16.183594 0.871094 16.535156 0 16.820312 "/>
<path style=" stroke:none;fill-rule:nonzero;fill:rgb(74.117649%,85.09804%,84.313726%);fill-opacity:1;" d="M 17.480469 26.273438 C 15.359375 25.074219 14.191406 23.453125 13.539062 21.664062 C 12.609375 21.957031 11.660156 22.128906 10.703125 22.183594 C 10.285156 22.207031 9.851562 22.230469 9.394531 22.230469 C 8.859375 22.230469 8.304688 22.207031 7.726562 22.183594 C 9.671875 24.488281 12.070312 26.273438 16.527344 26.296875 C 16.824219 26.273438 17.144531 26.273438 17.480469 26.273438 "/>
<path style=" stroke:none;fill-rule:nonzero;fill:rgb(82.745099%,92.54902%,92.54902%);fill-opacity:1;" d="M 14.308594 23.3125 C 13.996094 22.796875 13.730469 22.246094 13.515625 21.664062 C 12.589844 21.957031 11.640625 22.128906 10.683594 22.183594 C 11.816406 22.847656 13.050781 23.230469 14.308594 23.3125 "/>
</g>
</svg>
