<?xml version="1.0" encoding="UTF-8"?>
<svg xmlns="http://www.w3.org/2000/svg" xmlns:xlink="http://www.w3.org/1999/xlink" width="40px" height="40px" viewBox="0 0 40 40" version="1.1">
<g id="surface1">
<path style=" stroke:none;fill-rule:nonzero;fill:rgb(27.450982%,51.372552%,92.941177%);fill-opacity:1;" d="M 27.476562 0 L 12.3125 0 C 11.34375 0 10.453125 0.398438 9.972656 1.039062 L 2.378906 11.109375 C 1.894531 11.753906 1.894531 12.542969 2.378906 13.183594 L 9.964844 23.257812 C 10.445312 23.898438 11.335938 24.292969 12.300781 24.292969 L 27.476562 24.292969 C 28.445312 24.292969 29.335938 23.898438 29.816406 23.257812 L 37.402344 13.183594 C 37.886719 12.542969 37.886719 11.75 37.402344 11.109375 L 29.828125 1.039062 C 29.339844 0.394531 28.445312 0 27.476562 0 Z M 27.476562 0 "/>
<path style=" stroke:none;fill-rule:nonzero;fill:rgb(25.490198%,48.235294%,86.274511%);fill-opacity:1;" d="M 25.984375 9.183594 L 24.4375 11.464844 L 22.019531 9.609375 L 19.894531 9.976562 L 18.238281 10.519531 L 16.496094 9.183594 L 12.925781 10.140625 L 12.773438 12.75 L 14.300781 13.921875 L 11.785156 15.167969 L 23.691406 24.292969 L 27.476562 24.292969 C 28.445312 24.292969 29.335938 23.898438 29.816406 23.257812 L 35.132812 16.195312 Z M 25.984375 9.183594 "/>
<path style=" stroke:none;fill-rule:nonzero;fill:rgb(99.607843%,100%,99.215686%);fill-opacity:1;" d="M 16.503906 9.183594 L 13.160156 9.183594 C 12.402344 9.183594 11.785156 9.65625 11.785156 10.238281 L 11.785156 11.734375 C 11.785156 12.316406 12.402344 12.789062 13.160156 12.789062 L 14.929688 12.789062 L 14.929688 13.921875 L 12.230469 13.921875 L 11.785156 15.167969 L 15.125 15.167969 C 15.886719 15.167969 16.503906 14.695312 16.503906 14.113281 L 16.503906 12.648438 C 16.503906 12.066406 15.886719 11.59375 15.125 11.59375 L 13.433594 11.59375 L 13.433594 10.402344 L 16.074219 10.402344 Z M 16.503906 9.183594 "/>
<path style=" stroke:none;fill-rule:nonzero;fill:rgb(99.607843%,100%,99.215686%);fill-opacity:1;" d="M 22.414062 13.960938 L 22.414062 10.421875 C 22.410156 9.738281 21.6875 9.183594 20.796875 9.183594 L 19.277344 9.183594 C 18.382812 9.183594 17.660156 9.738281 17.660156 10.421875 L 17.660156 13.921875 C 17.660156 14.605469 18.382812 15.160156 19.277344 15.160156 L 23.144531 15.160156 L 23.144531 13.960938 Z M 20.847656 13.960938 L 19.238281 13.960938 L 19.238281 10.382812 L 20.847656 10.382812 Z M 20.847656 13.960938 "/>
<path style=" stroke:none;fill-rule:nonzero;fill:rgb(99.607843%,100%,99.215686%);fill-opacity:1;" d="M 29.109375 13.960938 L 25.984375 13.960938 L 25.984375 9.183594 L 24.429688 9.183594 L 24.429688 15.167969 L 25.984375 15.167969 L 25.984375 15.148438 L 29.109375 15.148438 Z M 29.109375 13.960938 "/>
<path style=" stroke:none;fill-rule:nonzero;fill:rgb(47.843137%,47.843137%,47.843137%);fill-opacity:1;" d="M 9.121094 28.789062 L 11.285156 28.789062 L 11.285156 31.054688 C 10.953125 31.136719 10.613281 31.203125 10.265625 31.242188 C 9.914062 31.28125 9.5625 31.300781 9.207031 31.296875 C 8.4375 31.335938 7.6875 31.113281 7.148438 30.695312 C 6.628906 30.21875 6.371094 29.605469 6.421875 28.984375 C 6.375 28.355469 6.671875 27.738281 7.242188 27.285156 C 7.851562 26.855469 8.660156 26.632812 9.488281 26.667969 C 10.085938 26.664062 10.675781 26.757812 11.230469 26.933594 L 10.894531 27.550781 C 10.445312 27.386719 9.957031 27.300781 9.460938 27.300781 C 8.90625 27.28125 8.363281 27.445312 7.972656 27.753906 C 7.589844 28.09375 7.390625 28.539062 7.425781 28.992188 C 7.386719 29.441406 7.558594 29.886719 7.917969 30.246094 C 8.285156 30.542969 8.804688 30.703125 9.335938 30.675781 C 9.667969 30.671875 10.003906 30.640625 10.328125 30.582031 L 10.328125 29.421875 L 9.113281 29.421875 L 9.113281 28.789062 Z M 9.121094 28.789062 "/>
<path style=" stroke:none;fill-rule:nonzero;fill:rgb(47.843137%,47.843137%,47.843137%);fill-opacity:1;" d="M 16.535156 29.527344 C 16.574219 30.003906 16.375 30.46875 15.980469 30.835938 C 15.574219 31.15625 15.003906 31.328125 14.417969 31.304688 C 14.035156 31.308594 13.65625 31.234375 13.320312 31.089844 C 13 30.945312 12.742188 30.730469 12.589844 30.46875 C 12.410156 30.175781 12.320312 29.851562 12.335938 29.527344 C 12.296875 29.058594 12.496094 28.59375 12.890625 28.234375 C 13.300781 27.914062 13.871094 27.742188 14.457031 27.773438 C 15.03125 27.75 15.59375 27.925781 15.984375 28.246094 C 16.375 28.605469 16.570312 29.0625 16.535156 29.527344 Z M 13.304688 29.527344 C 13.304688 30.316406 13.6875 30.710938 14.445312 30.710938 C 15.199219 30.710938 15.566406 30.320312 15.566406 29.527344 C 15.566406 28.746094 15.191406 28.363281 14.4375 28.363281 C 14.097656 28.34375 13.773438 28.457031 13.578125 28.667969 C 13.371094 28.925781 13.277344 29.226562 13.304688 29.527344 Z M 13.304688 29.527344 "/>
<path style=" stroke:none;fill-rule:nonzero;fill:rgb(47.843137%,47.843137%,47.843137%);fill-opacity:1;" d="M 21.566406 29.527344 C 21.605469 30.003906 21.40625 30.46875 21.007812 30.835938 C 20.601562 31.15625 20.03125 31.328125 19.449219 31.304688 C 19.0625 31.308594 18.683594 31.234375 18.351562 31.089844 C 18.027344 30.945312 17.773438 30.730469 17.617188 30.46875 C 17.4375 30.175781 17.351562 29.851562 17.363281 29.527344 C 17.324219 29.058594 17.523438 28.59375 17.921875 28.234375 C 18.328125 27.914062 18.902344 27.742188 19.488281 27.773438 C 20.0625 27.75 20.621094 27.925781 21.015625 28.246094 C 21.402344 28.605469 21.601562 29.0625 21.566406 29.527344 Z M 18.335938 29.527344 C 18.335938 30.316406 18.71875 30.710938 19.472656 30.710938 C 20.230469 30.710938 20.59375 30.320312 20.59375 29.527344 C 20.59375 28.746094 20.222656 28.363281 19.464844 28.363281 C 19.128906 28.34375 18.800781 28.457031 18.605469 28.667969 C 18.402344 28.925781 18.308594 29.226562 18.335938 29.527344 Z M 18.335938 29.527344 "/>
<path style=" stroke:none;fill-rule:nonzero;fill:rgb(47.843137%,47.843137%,47.843137%);fill-opacity:1;" d="M 26.414062 27.828125 L 26.414062 28.222656 L 25.660156 28.332031 C 25.734375 28.414062 25.792969 28.5 25.832031 28.59375 C 25.882812 28.703125 25.90625 28.816406 25.90625 28.929688 C 25.925781 29.25 25.746094 29.558594 25.425781 29.761719 C 24.929688 30.015625 24.324219 30.117188 23.730469 30.039062 C 23.554688 30.101562 23.4375 30.234375 23.429688 30.382812 C 23.425781 30.457031 23.484375 30.527344 23.570312 30.558594 C 23.738281 30.609375 23.917969 30.628906 24.097656 30.621094 L 24.875 30.621094 C 25.269531 30.601562 25.664062 30.683594 25.988281 30.859375 C 26.25 31.03125 26.390625 31.289062 26.371094 31.554688 C 26.386719 31.917969 26.148438 32.257812 25.75 32.453125 C 25.203125 32.6875 24.578125 32.796875 23.953125 32.769531 C 23.46875 32.792969 22.988281 32.707031 22.566406 32.523438 C 22.257812 32.371094 22.074219 32.105469 22.089844 31.824219 C 22.082031 31.625 22.175781 31.4375 22.351562 31.292969 C 22.550781 31.140625 22.800781 31.035156 23.074219 30.992188 C 22.949219 30.949219 22.839844 30.882812 22.765625 30.792969 C 22.691406 30.707031 22.648438 30.609375 22.644531 30.503906 C 22.640625 30.386719 22.691406 30.273438 22.789062 30.183594 C 22.910156 30.078125 23.054688 29.988281 23.210938 29.917969 C 22.980469 29.84375 22.785156 29.714844 22.65625 29.546875 C 22.507812 29.367188 22.433594 29.15625 22.4375 28.945312 C 22.414062 28.617188 22.582031 28.304688 22.894531 28.082031 C 23.261719 27.863281 23.722656 27.757812 24.191406 27.777344 C 24.324219 27.777344 24.457031 27.785156 24.585938 27.796875 C 24.691406 27.804688 24.796875 27.820312 24.898438 27.839844 L 26.410156 27.839844 Z M 22.917969 31.769531 C 22.914062 31.917969 23.023438 32.058594 23.195312 32.128906 C 23.433594 32.222656 23.703125 32.265625 23.96875 32.257812 C 24.367188 32.277344 24.765625 32.21875 25.121094 32.085938 C 25.351562 32.003906 25.496094 31.828125 25.496094 31.632812 C 25.511719 31.507812 25.429688 31.382812 25.289062 31.316406 C 25.046875 31.242188 24.78125 31.210938 24.519531 31.226562 L 23.800781 31.226562 C 23.570312 31.214844 23.34375 31.265625 23.15625 31.371094 C 23 31.464844 22.910156 31.613281 22.917969 31.769531 Z M 23.324219 28.929688 C 23.308594 29.109375 23.386719 29.289062 23.539062 29.425781 C 23.707031 29.546875 23.929688 29.609375 24.160156 29.597656 C 24.710938 29.597656 24.980469 29.371094 24.980469 28.925781 C 24.992188 28.742188 24.921875 28.558594 24.773438 28.414062 C 24.613281 28.28125 24.386719 28.214844 24.152344 28.230469 C 23.921875 28.21875 23.695312 28.28125 23.53125 28.40625 C 23.378906 28.554688 23.304688 28.742188 23.324219 28.929688 Z M 23.324219 28.929688 "/>
<path style=" stroke:none;fill-rule:nonzero;fill:rgb(47.843137%,47.843137%,47.843137%);fill-opacity:1;" d="M 28.179688 31.238281 L 27.230469 31.238281 L 27.230469 26.441406 L 28.179688 26.441406 Z M 28.179688 31.238281 "/>
<path style=" stroke:none;fill-rule:nonzero;fill:rgb(47.843137%,47.843137%,47.843137%);fill-opacity:1;" d="M 31.472656 31.296875 C 30.871094 31.324219 30.28125 31.15625 29.851562 30.835938 C 29.441406 30.488281 29.226562 30.027344 29.261719 29.558594 C 29.226562 29.085938 29.417969 28.621094 29.800781 28.246094 C 30.179688 27.925781 30.726562 27.75 31.289062 27.773438 C 31.808594 27.75 32.316406 27.898438 32.683594 28.179688 C 33.039062 28.492188 33.222656 28.898438 33.191406 29.308594 L 33.191406 29.699219 L 30.238281 29.699219 C 30.226562 29.980469 30.351562 30.25 30.585938 30.464844 C 30.835938 30.648438 31.171875 30.746094 31.519531 30.730469 C 31.761719 30.730469 32.007812 30.710938 32.25 30.675781 C 32.5 30.628906 32.746094 30.566406 32.980469 30.484375 L 32.980469 31.078125 C 32.761719 31.160156 32.523438 31.222656 32.28125 31.253906 C 32.015625 31.285156 31.742188 31.296875 31.472656 31.296875 Z M 31.300781 28.316406 C 31.027344 28.304688 30.765625 28.386719 30.574219 28.535156 C 30.378906 28.714844 30.261719 28.9375 30.25 29.175781 L 32.269531 29.175781 C 32.285156 28.945312 32.191406 28.71875 32.007812 28.535156 C 31.828125 28.382812 31.566406 28.304688 31.296875 28.316406 Z M 31.300781 28.316406 "/>
<path style=" stroke:none;fill-rule:nonzero;fill:rgb(47.843137%,47.843137%,47.843137%);fill-opacity:1;" d="M 2.792969 34.875 C 2.289062 34.859375 1.804688 35.027344 1.488281 35.324219 C 1.144531 35.683594 0.976562 36.125 1.011719 36.570312 C 0.96875 37.015625 1.128906 37.460938 1.464844 37.828125 C 1.792969 38.117188 2.28125 38.277344 2.785156 38.253906 C 3.027344 38.253906 3.269531 38.234375 3.507812 38.199219 C 3.753906 38.160156 3.996094 38.109375 4.230469 38.050781 L 4.230469 38.6875 C 3.730469 38.828125 3.199219 38.894531 2.667969 38.886719 C 1.921875 38.921875 1.199219 38.703125 0.683594 38.289062 C 0.195312 37.792969 -0.046875 37.179688 0 36.558594 C -0.0117188 36.132812 0.101562 35.710938 0.335938 35.324219 C 0.542969 34.984375 0.878906 34.703125 1.304688 34.519531 C 1.761719 34.328125 2.273438 34.230469 2.792969 34.238281 C 3.371094 34.234375 3.9375 34.335938 4.457031 34.527344 L 4.113281 35.140625 C 3.910156 35.066406 3.703125 35.003906 3.488281 34.953125 C 3.261719 34.902344 3.027344 34.875 2.792969 34.875 Z M 2.792969 34.875 "/>
<path style=" stroke:none;fill-rule:nonzero;fill:rgb(47.843137%,47.843137%,47.843137%);fill-opacity:1;" d="M 6.351562 38.816406 L 5.410156 38.816406 L 5.410156 34.019531 L 6.359375 34.019531 L 6.359375 38.816406 Z M 6.351562 38.816406 "/>
<path style=" stroke:none;fill-rule:nonzero;fill:rgb(47.843137%,47.843137%,47.843137%);fill-opacity:1;" d="M 11.652344 37.101562 C 11.6875 37.574219 11.488281 38.039062 11.09375 38.40625 C 10.6875 38.730469 10.117188 38.898438 9.535156 38.875 C 9.148438 38.878906 8.769531 38.808594 8.433594 38.664062 C 8.113281 38.515625 7.859375 38.300781 7.703125 38.039062 C 7.523438 37.746094 7.4375 37.425781 7.449219 37.101562 C 7.410156 36.628906 7.609375 36.167969 8.003906 35.808594 C 8.414062 35.484375 8.984375 35.316406 9.570312 35.34375 C 10.148438 35.320312 10.707031 35.496094 11.097656 35.820312 C 11.480469 36.179688 11.679688 36.636719 11.652344 37.101562 Z M 8.410156 37.101562 C 8.410156 37.886719 8.792969 38.285156 9.550781 38.285156 C 10.304688 38.285156 10.671875 37.894531 10.671875 37.101562 C 10.671875 36.320312 10.296875 35.933594 9.542969 35.933594 C 9.207031 35.914062 8.878906 36.027344 8.683594 36.238281 C 8.480469 36.5 8.386719 36.796875 8.410156 37.101562 Z M 8.410156 37.101562 "/>
<path style=" stroke:none;fill-rule:nonzero;fill:rgb(47.843137%,47.843137%,47.843137%);fill-opacity:1;" d="M 15.867188 38.816406 L 15.734375 38.371094 L 15.683594 38.371094 C 15.546875 38.53125 15.355469 38.660156 15.128906 38.742188 C 14.871094 38.835938 14.585938 38.882812 14.300781 38.875 C 13.859375 38.902344 13.421875 38.789062 13.089844 38.5625 C 12.804688 38.304688 12.660156 37.96875 12.691406 37.632812 L 12.691406 35.402344 L 13.648438 35.402344 L 13.648438 37.507812 C 13.628906 37.714844 13.699219 37.921875 13.855469 38.09375 C 14.023438 38.230469 14.261719 38.304688 14.507812 38.289062 C 14.839844 38.308594 15.164062 38.207031 15.382812 38.015625 C 15.597656 37.738281 15.695312 37.417969 15.660156 37.101562 L 15.660156 35.402344 L 16.609375 35.402344 L 16.609375 38.816406 Z M 15.867188 38.816406 "/>
<path style=" stroke:none;fill-rule:nonzero;fill:rgb(47.843137%,47.843137%,47.843137%);fill-opacity:1;" d="M 19.457031 38.875 C 18.949219 38.894531 18.464844 38.722656 18.160156 38.410156 C 17.535156 37.609375 17.535156 36.609375 18.160156 35.808594 C 18.46875 35.496094 18.957031 35.320312 19.464844 35.335938 C 19.992188 35.316406 20.496094 35.503906 20.800781 35.832031 L 20.847656 35.832031 C 20.808594 35.640625 20.785156 35.445312 20.777344 35.253906 L 20.777344 34.007812 L 21.722656 34.007812 L 21.722656 38.804688 L 20.984375 38.804688 L 20.816406 38.359375 L 20.769531 38.359375 C 20.488281 38.703125 19.984375 38.902344 19.457031 38.875 Z M 19.710938 38.289062 C 20.03125 38.308594 20.34375 38.21875 20.5625 38.039062 C 20.769531 37.796875 20.863281 37.511719 20.832031 37.222656 L 20.832031 37.117188 C 20.871094 36.800781 20.777344 36.480469 20.5625 36.203125 C 20.351562 36.011719 20.027344 35.914062 19.703125 35.9375 C 19.390625 35.925781 19.097656 36.046875 18.929688 36.246094 C 18.574219 36.796875 18.570312 37.445312 18.921875 38 C 19.101562 38.195312 19.402344 38.304688 19.710938 38.289062 Z M 19.710938 38.289062 "/>
<path style=" stroke:none;fill-rule:nonzero;fill:rgb(47.843137%,47.843137%,47.843137%);fill-opacity:1;" d="M 28.71875 37.589844 C 28.738281 37.953125 28.53125 38.304688 28.15625 38.535156 C 27.699219 38.777344 27.144531 38.898438 26.589844 38.875 C 26.03125 38.890625 25.472656 38.8125 24.957031 38.636719 L 24.957031 37.941406 C 25.230469 38.039062 25.515625 38.117188 25.808594 38.167969 C 26.085938 38.222656 26.367188 38.25 26.652344 38.253906 C 26.949219 38.269531 27.246094 38.214844 27.496094 38.089844 C 27.675781 37.984375 27.777344 37.816406 27.765625 37.644531 C 27.773438 37.480469 27.683594 37.324219 27.519531 37.21875 C 27.207031 37.039062 26.863281 36.898438 26.492188 36.800781 C 26.058594 36.691406 25.671875 36.496094 25.363281 36.234375 C 25.140625 36.015625 25.027344 35.742188 25.039062 35.464844 C 25.019531 35.121094 25.214844 34.792969 25.5625 34.578125 C 25.96875 34.351562 26.460938 34.234375 26.964844 34.253906 C 27.542969 34.253906 28.117188 34.351562 28.644531 34.535156 L 28.34375 35.136719 C 27.902344 34.984375 27.425781 34.898438 26.941406 34.886719 C 26.6875 34.875 26.4375 34.929688 26.234375 35.046875 C 26.074219 35.148438 25.988281 35.296875 25.996094 35.457031 C 25.988281 35.558594 26.023438 35.664062 26.089844 35.753906 C 26.167969 35.851562 26.277344 35.933594 26.40625 35.992188 C 26.664062 36.105469 26.929688 36.203125 27.203125 36.285156 C 27.539062 36.386719 27.855469 36.515625 28.152344 36.667969 C 28.335938 36.777344 28.488281 36.914062 28.597656 37.074219 C 28.683594 37.238281 28.726562 37.410156 28.71875 37.589844 Z M 28.71875 37.589844 "/>
<path style=" stroke:none;fill-rule:nonzero;fill:rgb(47.843137%,47.843137%,47.843137%);fill-opacity:1;" d="M 35.078125 36.550781 C 35.101562 37.03125 34.960938 37.503906 34.671875 37.929688 C 34.414062 38.292969 33.992188 38.570312 33.488281 38.714844 L 34.894531 39.875 L 33.597656 39.875 L 32.492188 38.863281 L 32.332031 38.863281 C 31.570312 38.898438 30.824219 38.679688 30.289062 38.257812 C 29.773438 37.773438 29.519531 37.160156 29.570312 36.539062 C 29.515625 35.917969 29.773438 35.304688 30.289062 34.824219 C 30.824219 34.40625 31.570312 34.191406 32.332031 34.226562 C 33.09375 34.191406 33.835938 34.414062 34.363281 34.835938 C 34.871094 35.320312 35.128906 35.929688 35.078125 36.550781 Z M 30.589844 36.550781 C 30.550781 36.996094 30.703125 37.441406 31.027344 37.8125 C 31.347656 38.109375 31.828125 38.269531 32.324219 38.242188 C 32.820312 38.269531 33.300781 38.109375 33.613281 37.8125 C 33.941406 37.441406 34.097656 36.992188 34.054688 36.546875 C 34.09375 36.101562 33.941406 35.660156 33.625 35.289062 C 33.308594 34.992188 32.828125 34.832031 32.332031 34.863281 C 31.835938 34.835938 31.347656 34.992188 31.027344 35.289062 C 30.707031 35.660156 30.550781 36.105469 30.589844 36.550781 Z M 30.589844 36.550781 "/>
<path style=" stroke:none;fill-rule:nonzero;fill:rgb(47.843137%,47.843137%,47.843137%);fill-opacity:1;" d="M 36.335938 38.816406 L 36.335938 34.304688 L 37.296875 34.304688 L 37.296875 38.179688 L 39.792969 38.179688 L 39.792969 38.816406 Z M 36.335938 38.816406 "/>
</g>
</svg>
