<?xml version="1.0" encoding="UTF-8"?>
<svg xmlns="http://www.w3.org/2000/svg" xmlns:xlink="http://www.w3.org/1999/xlink" width="36px" height="36px" viewBox="0 0 36 36" version="1.1">
<g id="surface1">
<path style=" stroke:none;fill-rule:nonzero;fill:rgb(72.941178%,8.627451%,4.705882%);fill-opacity:1;" d="M 6.964844 35.9375 L 6.296875 35.9375 L 6.296875 31.398438 L 6.964844 31.398438 Z M 6.300781 31.398438 L 6.300781 28.585938 L 6.972656 28.585938 L 6.972656 31.402344 Z M 6.300781 35.9375 L 5.625 35.9375 L 5.625 33.113281 L 1.316406 33.113281 L 1.316406 35.941406 L 0 35.941406 L 0 28.582031 L 1.316406 28.582031 L 1.316406 31.394531 L 6.296875 31.394531 L 6.296875 35.9375 Z M 6.300781 28.585938 L 5.625 28.585938 L 5.625 31.402344 L 6.308594 31.402344 Z M 6.300781 28.585938 "/>
<path style=" stroke:none;fill-rule:nonzero;fill:rgb(72.941178%,8.627451%,4.705882%);fill-opacity:1;" d="M 13.898438 32.207031 C 14.347656 32.566406 14.609375 33.21875 14.578125 33.90625 C 14.589844 34.457031 14.425781 34.984375 14.121094 35.371094 C 13.820312 35.753906 13.410156 35.957031 12.988281 35.929688 L 11.058594 35.929688 L 11.058594 34.21875 L 12.996094 34.21875 C 13.1875 34.21875 13.285156 34.03125 13.285156 33.660156 C 13.285156 33.289062 13.1875 33.101562 12.996094 33.105469 L 11.058594 33.105469 L 11.058594 31.410156 L 12.898438 31.410156 C 13.089844 31.410156 13.1875 31.222656 13.1875 30.851562 C 13.1875 30.480469 13.089844 30.292969 12.898438 30.296875 L 11.058594 30.296875 L 11.058594 28.582031 L 12.898438 28.582031 C 13.347656 28.554688 13.785156 28.785156 14.09375 29.210938 C 14.359375 29.597656 14.5 30.097656 14.488281 30.613281 C 14.507812 31.238281 14.285156 31.835938 13.898438 32.207031 Z M 11.058594 35.941406 L 7.515625 35.941406 L 7.515625 31.410156 L 11.058594 31.410156 L 11.058594 33.109375 L 8.832031 33.109375 L 8.832031 34.222656 L 11.058594 34.222656 Z M 11.058594 30.300781 L 8.832031 30.300781 L 8.832031 31.464844 L 7.515625 31.425781 L 7.515625 28.589844 L 11.058594 28.589844 L 11.058594 30.304688 Z M 11.058594 30.300781 "/>
<path style=" stroke:none;fill-rule:nonzero;fill:rgb(40.000001%,40.000001%,40.000001%);fill-opacity:1;" d="M 15.195312 26.671875 L 15.195312 25.886719 L 16.179688 25.886719 L 16.179688 25.410156 C 16.179688 25.242188 16.136719 25.15625 16.046875 25.15625 L 15.195312 25.15625 L 15.195312 24.375 L 16.046875 24.375 C 16.25 24.363281 16.445312 24.472656 16.582031 24.671875 C 16.714844 24.875 16.789062 25.132812 16.785156 25.402344 L 16.785156 27.746094 L 16.179688 27.746094 L 16.179688 26.671875 Z M 23.226562 27.746094 L 21.222656 27.746094 C 21 27.753906 20.785156 27.648438 20.625 27.449219 C 20.460938 27.253906 20.371094 26.976562 20.375 26.6875 L 20.375 25.441406 C 20.371094 25.152344 20.460938 24.875 20.625 24.679688 C 20.785156 24.480469 21 24.375 21.222656 24.382812 L 23.226562 24.382812 L 23.226562 25.167969 L 21.222656 25.167969 C 21.0625 25.167969 20.980469 25.269531 20.980469 25.464844 L 20.980469 26.703125 C 20.980469 26.898438 21.0625 27 21.222656 27 L 23.226562 27 Z M 29.589844 27.746094 L 28.980469 27.746094 L 28.980469 26.449219 L 27.433594 26.449219 L 27.433594 27.746094 L 26.820312 27.746094 L 26.820312 24.375 L 27.425781 24.375 L 27.425781 25.664062 L 28.972656 25.664062 L 28.972656 24.375 L 29.582031 24.375 Z M 35.957031 25.160156 L 33.796875 25.160156 L 33.796875 25.667969 L 35.816406 25.667969 L 35.816406 26.449219 L 33.796875 26.449219 L 33.796875 26.960938 L 35.953125 26.960938 L 35.953125 27.742188 L 33.183594 27.742188 L 33.183594 24.375 L 35.945312 24.375 L 35.945312 25.160156 Z M 15.195312 24.375 L 15.195312 25.160156 L 14.335938 25.160156 C 14.253906 25.160156 14.210938 25.246094 14.210938 25.414062 L 14.210938 25.886719 L 15.195312 25.886719 L 15.195312 26.675781 L 14.210938 26.675781 L 14.210938 27.746094 L 13.609375 27.746094 L 13.609375 25.410156 C 13.605469 25.144531 13.675781 24.882812 13.8125 24.679688 C 13.945312 24.480469 14.136719 24.375 14.335938 24.382812 L 15.195312 24.382812 Z M 8.390625 26.648438 L 8.390625 25.859375 L 9.277344 25.859375 C 9.363281 25.859375 9.410156 25.746094 9.410156 25.515625 C 9.410156 25.285156 9.363281 25.167969 9.277344 25.160156 L 8.390625 25.160156 L 8.390625 24.375 L 9.277344 24.375 C 9.492188 24.367188 9.695312 24.503906 9.820312 24.734375 C 9.949219 24.960938 10.015625 25.234375 10.011719 25.515625 C 10.019531 25.796875 9.953125 26.074219 9.820312 26.296875 C 9.695312 26.527344 9.492188 26.664062 9.277344 26.65625 Z M 3.183594 27.746094 L 2.574219 27.746094 L 2.574219 26.671875 L 1.59375 26.671875 L 1.59375 25.886719 L 2.574219 25.886719 L 2.574219 25.410156 C 2.574219 25.242188 2.53125 25.15625 2.445312 25.15625 L 1.59375 25.15625 L 1.59375 24.375 L 2.445312 24.375 C 2.644531 24.363281 2.839844 24.472656 2.976562 24.671875 C 3.113281 24.875 3.1875 25.140625 3.183594 25.410156 Z M 8.390625 24.375 L 8.390625 25.160156 L 7.375 25.160156 L 7.375 25.859375 L 8.390625 25.859375 L 8.390625 26.648438 L 7.375 26.648438 L 7.375 27.746094 L 6.769531 27.746094 L 6.769531 24.375 Z M 1.59375 26.671875 L 0.605469 26.671875 L 0.605469 27.746094 L 0 27.746094 L 0 25.410156 C -0.00390625 25.144531 0.0703125 24.882812 0.203125 24.679688 C 0.335938 24.480469 0.53125 24.375 0.730469 24.382812 L 1.59375 24.382812 L 1.59375 25.167969 L 0.730469 25.167969 C 0.644531 25.167969 0.605469 25.253906 0.605469 25.425781 L 0.605469 25.898438 L 1.59375 25.898438 Z M 1.59375 26.671875 "/>
<path style=" stroke:none;fill-rule:nonzero;fill:rgb(72.941178%,8.627451%,4.705882%);fill-opacity:1;" d="M 22.046875 35.941406 L 20.726562 35.941406 L 20.726562 33.597656 L 18.582031 33.597656 L 18.582031 31.882812 L 20.726562 31.882812 L 20.726562 30.855469 C 20.726562 30.484375 20.632812 30.300781 20.441406 30.300781 L 18.582031 30.300781 L 18.582031 28.585938 L 20.457031 28.585938 C 20.898438 28.570312 21.320312 28.816406 21.605469 29.253906 C 21.90625 29.695312 22.066406 30.265625 22.058594 30.851562 Z M 18.582031 33.597656 L 16.4375 33.597656 L 16.4375 35.941406 L 15.117188 35.941406 L 15.117188 30.855469 C 15.109375 30.265625 15.273438 29.695312 15.570312 29.257812 C 15.855469 28.816406 16.277344 28.570312 16.71875 28.585938 L 18.59375 28.585938 L 18.59375 30.300781 L 16.710938 30.300781 C 16.527344 30.300781 16.433594 30.484375 16.433594 30.855469 L 16.433594 31.882812 L 18.582031 31.882812 Z M 18.582031 33.597656 "/>
<path style=" stroke:none;fill-rule:nonzero;fill:rgb(72.941178%,8.627451%,4.705882%);fill-opacity:1;" d="M 29.367188 33.667969 C 29.375 34.246094 29.222656 34.8125 28.9375 35.253906 C 28.648438 35.699219 28.21875 35.953125 27.773438 35.941406 L 22.894531 35.941406 L 22.894531 34.226562 L 27.773438 34.226562 C 27.957031 34.226562 28.046875 34.039062 28.046875 33.667969 C 28.046875 33.296875 27.957031 33.109375 27.773438 33.113281 L 24.222656 33.113281 C 23.777344 33.125 23.347656 32.871094 23.058594 32.425781 C 22.765625 31.996094 22.609375 31.433594 22.621094 30.855469 C 22.613281 30.265625 22.777344 29.699219 23.078125 29.257812 C 23.363281 28.816406 23.789062 28.570312 24.230469 28.585938 L 29.09375 28.585938 L 29.09375 30.300781 L 24.222656 30.300781 C 24.039062 30.300781 23.949219 30.484375 23.949219 30.855469 C 23.949219 31.226562 24.039062 31.40625 24.222656 31.398438 L 27.773438 31.398438 C 28.21875 31.386719 28.648438 31.640625 28.9375 32.085938 C 29.222656 32.527344 29.375 33.089844 29.367188 33.667969 Z M 29.367188 33.667969 "/>
<path style=" stroke:none;fill-rule:nonzero;fill:rgb(72.941178%,8.627451%,4.705882%);fill-opacity:1;" d="M 29.914062 35.9375 L 29.914062 28.582031 L 35.945312 28.582031 L 35.945312 30.296875 L 31.230469 30.296875 L 31.230469 31.398438 L 35.636719 31.398438 L 35.636719 33.113281 L 31.230469 33.113281 L 31.230469 34.226562 L 35.933594 34.226562 L 35.933594 35.941406 Z M 29.914062 35.9375 "/>
<path style=" stroke:none;fill-rule:nonzero;fill:rgb(1.960784%,1.960784%,1.960784%);fill-opacity:1;" d="M 28.679688 15.460938 C 28.644531 15.402344 28.617188 15.332031 28.597656 15.261719 C 28.515625 15.054688 28.375 14.894531 28.203125 14.820312 C 28.089844 14.757812 27.980469 14.675781 27.882812 14.578125 C 27.703125 14.398438 27.550781 14.367188 27.027344 14.386719 C 26.457031 14.410156 26.25 14.304688 26.09375 13.90625 L 26.015625 13.707031 L 25.96875 13.925781 C 25.875 14.355469 25.765625 14.46875 25.476562 14.425781 C 25.328125 14.386719 25.175781 14.441406 25.0625 14.574219 C 24.988281 14.65625 24.972656 14.664062 24.902344 14.621094 C 24.832031 14.578125 24.820312 14.578125 24.753906 14.679688 C 24.699219 14.757812 24.625 14.808594 24.546875 14.816406 C 24.378906 14.855469 24.320312 14.949219 24.261719 15.21875 C 24.167969 15.726562 23.972656 15.597656 23.804688 14.925781 C 23.609375 14.167969 23.769531 13.621094 24.4375 12.789062 C 24.675781 12.546875 24.863281 12.230469 24.984375 11.867188 C 25.027344 11.667969 25.035156 11.660156 25.089844 11.714844 C 25.386719 12.054688 25.667969 12.417969 25.925781 12.804688 C 26.203125 13.222656 26.273438 13.292969 26.3125 13.191406 C 26.351562 13.09375 26.109375 12.714844 25.722656 12.195312 C 24.867188 10.980469 23.699219 10.21875 22.4375 10.058594 C 21.953125 9.992188 21.464844 10.082031 21.019531 10.328125 C 20.707031 10.445312 20.410156 10.613281 20.136719 10.832031 C 19.613281 11.246094 19.121094 11.722656 18.660156 12.246094 C 18.078125 12.886719 18.078125 12.886719 17.320312 12.867188 L 16.515625 12.867188 C 16.207031 12.90625 15.914062 13.023438 15.644531 13.214844 C 15.3125 13.542969 15.027344 13.941406 14.800781 14.394531 C 14.550781 14.910156 14.222656 15.351562 13.839844 15.695312 C 13.546875 15.945312 13.433594 16.101562 13.398438 16.304688 C 13.367188 16.445312 13.398438 16.597656 13.476562 16.699219 C 13.761719 16.875 14.0625 17 14.375 17.0625 C 14.460938 17.085938 14.542969 17.113281 14.621094 17.15625 C 14.421875 17.503906 14.1875 17.816406 13.917969 18.074219 C 13.226562 18.765625 12.476562 19.34375 11.679688 19.796875 C 11.234375 20.046875 10.8125 20.367188 10.425781 20.753906 C 10.230469 20.941406 10.023438 21.121094 9.8125 21.285156 C 9.152344 21.789062 8.449219 21.84375 8.21875 21.410156 C 8.1875 21.339844 8.144531 21.277344 8.09375 21.226562 C 7.882812 21.015625 7.757812 20.6875 7.761719 20.339844 C 7.753906 20.113281 7.738281 19.890625 7.707031 19.667969 C 7.585938 18.902344 7.574219 18.113281 7.671875 17.339844 C 7.960938 15.566406 8.464844 13.859375 9.160156 12.28125 C 9.832031 10.75 10.605469 9.296875 11.464844 7.9375 C 12.246094 6.617188 12.253906 6.605469 12.261719 6.128906 C 12.261719 6.023438 12.230469 5.367188 12.191406 4.671875 C 12.066406 2.496094 12.125 1.628906 12.445312 0.828125 C 12.621094 0.421875 12.917969 0.121094 13.269531 0.00390625 C 13.421875 -0.0117188 13.453125 0.0742188 13.496094 0.625 C 13.53125 1.386719 13.644531 2.140625 13.835938 2.863281 C 13.917969 3.351562 14.105469 3.804688 14.367188 4.171875 C 14.679688 4.566406 14.824219 4.605469 15.613281 4.464844 C 18.382812 4.015625 20.386719 4.292969 22.03125 5.351562 C 23.554688 6.332031 25.085938 8.25 26.441406 10.855469 L 26.695312 11.351562 L 26.972656 11.472656 C 27.589844 11.703125 28.128906 12.199219 28.5 12.878906 C 28.734375 13.414062 28.878906 14.003906 28.921875 14.617188 C 28.949219 15.191406 28.921875 15.457031 28.804688 15.503906 Z M 28.4375 14.335938 C 28.40625 14.15625 28.363281 13.980469 28.308594 13.808594 C 28.117188 13.125 27.726562 12.5625 27.222656 12.25 C 26.832031 11.964844 26.398438 11.796875 25.949219 11.765625 C 25.890625 11.792969 25.890625 11.804688 25.949219 11.96875 C 26.035156 12.160156 26.132812 12.339844 26.242188 12.507812 C 26.351562 12.675781 26.449219 12.855469 26.535156 13.042969 C 26.589844 13.195312 26.59375 13.230469 26.550781 13.339844 C 26.488281 13.476562 26.363281 13.542969 26.246094 13.496094 C 26.179688 13.476562 26.121094 13.472656 26.117188 13.496094 C 26.125 13.554688 26.140625 13.613281 26.167969 13.664062 C 26.289062 13.960938 26.457031 14.015625 27.035156 13.988281 C 27.882812 13.945312 28.078125 14.011719 28.320312 14.429688 C 28.375 14.519531 28.445312 14.464844 28.4375 14.339844 Z M 9.714844 21.011719 C 9.90625 20.867188 10.085938 20.714844 10.265625 20.546875 C 10.742188 20.105469 11.25 19.71875 11.777344 19.386719 C 12.402344 18.996094 13 18.542969 13.570312 18.023438 C 13.832031 17.769531 14.058594 17.496094 14.046875 17.433594 C 13.96875 17.390625 13.886719 17.355469 13.804688 17.339844 C 13.609375 17.273438 13.421875 17.183594 13.242188 17.070312 C 13.128906 16.992188 13.007812 16.925781 12.886719 16.878906 C 12.722656 17.035156 12.585938 17.238281 12.484375 17.46875 C 11.980469 18.40625 11.777344 18.648438 10.785156 19.402344 C 10.460938 19.613281 10.167969 19.902344 9.929688 20.257812 C 9.785156 20.527344 9.597656 20.753906 9.386719 20.933594 C 9.253906 21.042969 9.113281 21.132812 8.964844 21.203125 C 8.660156 21.339844 8.65625 21.476562 8.964844 21.417969 C 9.230469 21.335938 9.484375 21.203125 9.71875 21.019531 Z M 24.289062 14.511719 C 24.324219 14.433594 24.367188 14.363281 24.417969 14.300781 L 24.527344 14.175781 L 24.824219 14.175781 C 25.148438 14.183594 25.464844 14.058594 25.734375 13.816406 L 25.863281 13.578125 C 25.90625 13.496094 25.960938 13.441406 25.996094 13.441406 L 26.054688 13.441406 C 26.054688 13.441406 25.308594 12.351562 25.25 12.292969 L 25.179688 12.222656 L 25.074219 12.4375 C 25.011719 12.554688 24.796875 12.90625 24.59375 13.21875 C 24.074219 14.019531 23.9375 14.371094 24.054688 14.605469 C 24.089844 14.675781 24.113281 14.6875 24.179688 14.65625 C 24.226562 14.636719 24.265625 14.59375 24.289062 14.539062 Z M 11.382812 17.761719 C 11.433594 17.699219 11.472656 17.628906 11.5 17.546875 C 11.554688 17.226562 11.070312 17.46875 11.007812 17.792969 C 10.992188 17.878906 11.007812 17.898438 11.050781 17.933594 C 11.175781 17.957031 11.300781 17.890625 11.378906 17.761719 Z M 12.089844 16.523438 C 12.316406 16.328125 12.527344 16.109375 12.726562 15.875 C 12.902344 15.621094 13.011719 15.300781 13.042969 14.960938 C 13.058594 14.804688 13.097656 14.648438 13.148438 14.503906 C 13.183594 14.429688 13.207031 14.34375 13.210938 14.257812 C 13.132812 13.960938 12.3125 14.171875 11.863281 14.601562 C 11.320312 15.125 10.957031 16.195312 11.09375 16.816406 C 11.179688 17.195312 11.34375 17.144531 12.082031 16.5 Z M 23.808594 10.046875 C 23.667969 9.867188 23.503906 9.722656 23.324219 9.621094 C 22.921875 9.390625 22.484375 9.28125 22.046875 9.292969 C 21.691406 9.277344 21.539062 9.242188 21.519531 9.164062 C 21.519531 9.117188 21.53125 9.070312 21.546875 9.027344 C 21.65625 8.734375 22.515625 8.660156 23.1875 8.871094 C 23.480469 8.964844 23.769531 9.09375 24.042969 9.257812 C 24.253906 9.378906 24.285156 9.390625 24.269531 9.316406 C 24.132812 9.066406 23.957031 8.851562 23.753906 8.691406 C 23.042969 8.101562 22.203125 7.832031 21.367188 7.929688 C 20.757812 7.957031 20.167969 8.203125 19.660156 8.640625 C 19.179688 9.144531 18.78125 9.773438 18.496094 10.488281 C 18.257812 11.089844 17.984375 11.667969 17.683594 12.222656 C 17.621094 12.304688 17.574219 12.40625 17.542969 12.515625 C 17.613281 12.546875 17.6875 12.554688 17.761719 12.546875 L 17.957031 12.546875 L 18.320312 12.097656 C 18.910156 11.332031 19.582031 10.683594 20.3125 10.171875 C 21.28125 9.628906 22.371094 9.554688 23.378906 9.96875 C 23.71875 10.09375 23.832031 10.113281 23.808594 10.050781 Z M 16.710938 16.765625 C 15.78125 17.023438 14.8125 16.988281 13.894531 16.664062 C 13.695312 16.589844 13.632812 16.546875 13.601562 16.464844 C 13.53125 16.261719 13.644531 16.074219 14.019531 15.785156 C 14.394531 15.472656 14.714844 15.050781 14.945312 14.554688 C 15.496094 13.578125 15.742188 13.300781 16.222656 13.128906 C 16.609375 13.027344 17.011719 12.992188 17.40625 13.03125 C 18.625 13.03125 19.921875 13.050781 20.03125 13.085938 C 20.273438 13.160156 20.085938 13.925781 19.660156 14.601562 C 19.289062 15.160156 18.847656 15.628906 18.347656 15.984375 C 17.820312 16.304688 17.273438 16.566406 16.714844 16.761719 Z M 8.355469 13.851562 C 8.308594 13.71875 8.269531 13.582031 8.242188 13.4375 C 8.070312 12.511719 8.160156 11.535156 8.5 10.691406 C 8.609375 10.417969 8.765625 10.179688 8.953125 9.992188 C 9.050781 9.953125 9.144531 10.054688 9.3125 10.394531 C 9.382812 10.542969 9.46875 10.679688 9.566406 10.796875 C 9.617188 10.84375 9.65625 10.886719 9.652344 10.894531 L 9.421875 11.339844 C 9.097656 12.007812 8.808594 12.699219 8.554688 13.410156 C 8.414062 13.820312 8.378906 13.894531 8.347656 13.84375 Z M 8.355469 13.851562 "/>
</g>
</svg>
