<?xml version="1.0" encoding="UTF-8"?>
<svg xmlns="http://www.w3.org/2000/svg" xmlns:xlink="http://www.w3.org/1999/xlink" width="36px" height="36px" viewBox="0 0 36 36" version="1.1">
<g id="surface1">
<path style="fill-rule:nonzero;fill:rgb(0%,0%,0%);fill-opacity:1;stroke-width:1;stroke-linecap:butt;stroke-linejoin:miter;stroke:rgb(98.823529%,93.333334%,12.941177%);stroke-opacity:1;stroke-miterlimit:4;" d="M 113.001365 133.200347 L 116.568965 132.998198 C 116.685936 132.998198 116.727711 133.04312 116.727711 133.162912 L 116.727711 138.39631 L 117.254078 138.523589 L 117.421179 133.170399 L 120.947003 133.005685 L 121.147524 147.770008 C 121.147524 147.844878 121.105749 147.96467 120.988778 147.96467 L 117.579924 147.96467 C 117.496374 147.96467 117.412824 147.844878 117.412824 147.770008 L 117.412824 142.53661 C 117.412824 142.454253 117.371048 142.371896 117.295853 142.371896 L 116.844681 142.371896 C 116.769486 142.371896 116.727711 142.454253 116.727711 142.53661 L 116.727711 147.770008 C 116.727711 147.844878 116.64416 147.96467 116.56061 147.96467 L 113.277081 147.96467 L 113.034785 133.200347 Z M 113.001365 133.200347 " transform="matrix(0.467532,0,0,0.521739,-31.406026,-41.249739)"/>
<path style="fill-rule:nonzero;fill:rgb(0%,0%,0%);fill-opacity:1;stroke-width:1;stroke-linecap:butt;stroke-linejoin:miter;stroke:rgb(98.823529%,93.333334%,12.941177%);stroke-opacity:1;stroke-miterlimit:4;" d="M 135.444389 148.068597 L 135.202093 133.296787 C 135.202093 133.221917 135.277288 133.102126 135.360839 133.102126 L 138.769693 133.102126 L 139.011989 147.821527 Z M 135.444389 148.068597 " transform="matrix(0.467532,0,0,0.521739,-37.574649,-41.280525)"/>
<path style="fill-rule:nonzero;fill:rgb(0%,0%,0%);fill-opacity:1;stroke-width:1;stroke-linecap:butt;stroke-linejoin:miter;stroke:rgb(98.823529%,93.333334%,12.941177%);stroke-opacity:1;stroke-miterlimit:4;" d="M 150.548566 139.548415 C 150.673891 139.713128 150.707311 139.668207 150.707311 139.548415 L 151.559525 133.341709 C 151.6013 133.221917 151.68485 133.102126 151.810176 133.102126 L 155.25245 133.102126 L 152.654035 147.821527 L 148.518292 148.068597 C 148.401322 148.068597 148.317771 147.948805 148.275996 147.821527 L 145.602385 133.296787 C 145.602385 133.221917 145.602385 133.102126 145.719356 133.102126 L 149.295311 133.102126 C 149.412281 133.102126 149.495831 133.139561 149.537607 133.296787 Z M 150.548566 139.548415 " transform="matrix(0.467532,0,0,0.521739,-40.464467,-41.280525)"/>
<path style="fill-rule:nonzero;fill:rgb(0%,0%,0%);fill-opacity:1;stroke-width:1;stroke-linecap:butt;stroke-linejoin:miter;stroke:rgb(98.823529%,93.333334%,12.941177%);stroke-opacity:1;stroke-miterlimit:4;" d="M 170.89937 133.341709 L 178.243446 133.102126 L 178.443967 136.912998 L 174.918142 137.10766 L 174.792817 138.365472 L 176.497244 138.492751 L 176.622569 142.266188 L 174.834592 142.423415 C 174.759396 142.423415 174.717621 142.468337 174.717621 142.588128 L 174.717621 143.763584 L 178.285221 143.883376 L 178.485742 147.81404 L 171.141666 148.016188 L 170.941146 133.341709 Z M 170.89937 133.341709 " transform="matrix(0.467532,0,0,0.521739,-47.494754,-41.280525)"/>
<path style="fill-rule:nonzero;fill:rgb(0%,0%,0%);fill-opacity:1;stroke-width:1;stroke-linecap:butt;stroke-linejoin:miter;stroke:rgb(100%,93.725491%,0%);stroke-opacity:1;stroke-miterlimit:4;" d="M 94.53344 152.815737 L 106.49785 148.802717 C 106.49785 148.802717 94.658766 150.217756 93.27183 148.106428 C 93.27183 148.106428 90.355923 144.055972 91.692728 149.004865 C 89.662455 142.633446 83.496439 154.313133 94.53344 152.815737 Z M 94.53344 152.815737 " transform="matrix(0.467532,0,0,0.521739,-24.498234,-45.4487)"/>
<path style=" stroke:none;fill-rule:nonzero;fill:rgb(0%,0%,0%);fill-opacity:1;" d="M 26.320312 22.152344 C 26.320312 22.152344 24.632812 23.675781 23.324219 24.058594 C 22.03125 24.4375 18.144531 25.304688 17.785156 26.214844 C 17.40625 27.125 17.214844 27.65625 18.296875 29.769531 C 19.378906 31.867188 19.226562 33.328125 20.042969 33.664062 C 20.859375 34.027344 18.5625 34.449219 18.546875 34.449219 C 18.53125 34.449219 14.203125 31.039062 14.148438 30.320312 C 14.089844 29.601562 14.40625 22.320312 15.414062 21.792969 C 16.421875 21.261719 19.566406 18.046875 21.464844 17.984375 C 23.34375 17.917969 26.320312 22.152344 26.320312 22.152344 "/>
<path style=" stroke:none;fill-rule:nonzero;fill:rgb(0%,0%,0%);fill-opacity:1;" d="M 17.21875 24.4375 C 17.550781 25.5 18.058594 26.484375 18.714844 27.335938 C 19.171875 27.960938 19.867188 28.308594 20.589844 28.269531 C 20.335938 28.375 20.066406 28.417969 19.796875 28.394531 C 19.417969 28.3125 18.375 28.058594 17.976562 27.570312 C 17.597656 27.082031 16.535156 25.644531 16.535156 25.644531 L 15.890625 27.65625 C 15.890625 27.65625 17.386719 28.988281 18.277344 29.285156 C 19.285156 29.625 20.042969 29.707031 20.347656 29.476562 C 20.164062 29.640625 19.949219 29.753906 19.71875 29.8125 C 19.3125 29.886719 18.894531 29.886719 18.488281 29.8125 C 18.03125 29.75 16.515625 29.515625 16.515625 29.515625 L 18.46875 31.042969 C 18.980469 31.328125 19.546875 31.472656 20.117188 31.464844 C 19.785156 31.585938 19.441406 31.664062 19.09375 31.695312 C 18.789062 31.695312 16.382812 31.316406 16.382812 31.316406 L 14.695312 27.78125 L 16.058594 23.910156 Z M 17.21875 24.4375 "/>
<path style="fill-rule:nonzero;fill:rgb(98.823529%,93.333334%,12.941177%);fill-opacity:1;stroke-width:1;stroke-linecap:butt;stroke-linejoin:miter;stroke:rgb(0%,0%,0%);stroke-opacity:1;stroke-miterlimit:4;" d="M 62.00307 71.40215 C 60.866786 71.40215 51.659537 72.210743 49.061122 75.819467 C 47.189594 78.380014 44.515983 83.531056 47.51544 93.795704 C 50.840744 105.10853 65.328374 109.211394 67.84324 108.073374 C 70.358105 106.935353 68.085536 105.3556 67.801465 104.704233 C 67.559168 104.097788 64.30906 99.792775 63.623947 98.010874 C 62.888704 96.266407 65.002528 90.104624 65.929937 89.857553 C 66.907476 89.61797 68.411382 89.490691 69.22182 90.381642 C 70.032259 91.280079 72.137728 92.208465 72.380024 88.562306 C 72.647385 85.87448 73.190462 83.22409 74.009255 80.648569 Z M 62.00307 71.40215 " transform="matrix(0.467532,0,0,0.521739,-12.836105,-22.147827)"/>
<path style=" stroke:none;fill-rule:nonzero;fill:rgb(98.823529%,96.470588%,62.352943%);fill-opacity:1;" d="M 10.671875 16.945312 C 9.480469 18.363281 8.816406 20.230469 8.8125 22.171875 C 8.859375 24.488281 9.335938 26.765625 10.214844 28.859375 C 10.59375 29.960938 14.007812 33.515625 16.796875 34.027344 C 19.1875 34.640625 19.222656 33.773438 19.222656 33.773438 C 19.015625 33.835938 17.933594 34.363281 15.867188 33.476562 C 13.78125 32.589844 11.734375 30.46875 11.085938 28.414062 C 10.445312 26.132812 10.105469 23.757812 10.082031 21.367188 C 10.101562 19.652344 11.410156 16.433594 11.410156 16.433594 Z M 10.671875 16.945312 "/>
<path style="fill-rule:nonzero;fill:rgb(0%,0%,0%);fill-opacity:1;stroke-width:1;stroke-linecap:butt;stroke-linejoin:miter;stroke:rgb(0%,0%,0%);stroke-opacity:1;stroke-miterlimit:4;" d="M 67.797066 68.792397 C 67.797066 70.574298 73.478489 83.639077 76.477947 86.03491 C 79.485759 88.430743 84.064318 87.614663 85.041857 87.247801 C 86.011041 86.888426 81.265382 79.663491 80.822565 78.809975 C 80.371393 77.88159 76.03513 66.523842 76.402751 65.468178 C 76.762018 64.412514 73.520264 64.936603 72.342204 65.138751 C 71.20592 65.303465 67.797066 68.792397 67.797066 68.792397 Z M 67.797066 68.792397 " transform="matrix(0.467532,0,0,0.521739,-18.845767,-20.110435)"/>
<path style=" stroke:none;fill-rule:nonzero;fill:rgb(0%,0%,0%);fill-opacity:1;" d="M 18.203125 31.402344 C 18.203125 31.402344 15.773438 31.78125 14.125 31.339844 C 12.996094 31.003906 11.898438 30.535156 10.859375 29.941406 C 10.859375 29.941406 12.929688 32.289062 13.667969 32.671875 C 14.402344 33.054688 18.144531 33.117188 18.710938 32.269531 C 19.300781 31.402344 18.203125 31.402344 18.203125 31.402344 Z M 18.203125 31.402344 "/>
<path style=" stroke:none;fill-rule:nonzero;fill:rgb(0%,0%,0%);fill-opacity:1;" d="M 17.308594 29.878906 C 15.863281 29.867188 14.425781 29.585938 13.0625 29.050781 C 11.761719 28.617188 10.535156 27.9375 9.4375 27.042969 L 8.8125 23.804688 C 8.8125 23.804688 11.257812 26.46875 13.0625 27.167969 C 14.84375 27.867188 16.929688 28.417969 16.929688 28.417969 "/>
<path style=" stroke:none;fill-rule:nonzero;fill:rgb(0%,0%,0%);fill-opacity:1;" d="M 8.964844 20.183594 C 9.699219 21.953125 10.84375 23.464844 12.285156 24.566406 C 13.773438 25.585938 15.410156 26.300781 17.121094 26.683594 L 17.347656 25.941406 C 17.347656 25.941406 16.910156 25.898438 13.613281 23.339844 C 10.332031 20.777344 10.617188 17.074219 10.5 17.09375 C 10.066406 17.179688 9.382812 18.808594 9.382812 18.808594 Z M 8.964844 20.183594 "/>
<path style="fill-rule:nonzero;fill:rgb(98.823529%,93.333334%,12.941177%);fill-opacity:1;stroke-width:1;stroke-linecap:butt;stroke-linejoin:miter;stroke:rgb(0%,0%,0%);stroke-opacity:1;stroke-miterlimit:4;" d="M 110.067766 62.926306 C 109.215552 58.666215 104.511668 56.637244 101.269914 56.023312 C 98.028161 55.409379 88.729007 56.262895 87.433977 59.02559 C 86.180721 61.82572 86.331112 66.894405 86.665314 68.878455 C 86.99116 70.869991 90.232913 71.760942 91.369198 72.329952 C 92.547258 72.854041 94.051164 71.229366 95.38797 72.696814 C 96.683 74.156775 101.879832 77.361202 102.932566 77.31628 C 104.027076 77.31628 106.658912 74.643429 106.658912 74.643429 Z M 110.067766 62.926306 " transform="matrix(0.467532,0,0,0.521739,-24.022754,-17.323304)"/>
<path style=" stroke:none;fill-rule:nonzero;fill:rgb(98.823529%,93.333334%,12.941177%);fill-opacity:1;" d="M 25.976562 12.667969 L 26.886719 9.496094 L 27.210938 8.414062 C 26.5 6.941406 25.6875 5.535156 24.78125 4.203125 C 23.777344 2.890625 22.980469 2.976562 22.980469 2.976562 C 22.144531 2.621094 21.210938 2.683594 20.421875 3.144531 C 19.636719 3.5 18.9375 4.050781 18.371094 4.753906 L 18.996094 4.945312 L 21.367188 10.660156 L 23.605469 13.558594 L 26.226562 14.214844 "/>
<path style=" stroke:none;fill-rule:nonzero;fill:rgb(98.823529%,96.470588%,62.352943%);fill-opacity:1;" d="M 22.582031 2.996094 C 23.355469 3.757812 24.070312 4.585938 24.726562 5.472656 C 25.351562 6.445312 26.375 7.167969 26.070312 9.621094 C 25.769531 12.078125 26.015625 12.839844 26.015625 12.839844 L 27.019531 8.203125 C 26.546875 6.992188 25.925781 5.863281 25.179688 4.839844 C 23.871094 2.996094 23.074219 2.808594 23.074219 2.808594 Z M 22.582031 2.996094 "/>
<path style=" stroke:none;fill-rule:nonzero;fill:rgb(98.823529%,96.470588%,62.352943%);fill-opacity:1;" d="M 23.246094 4.777344 C 23.066406 4.371094 22.808594 4.015625 22.488281 3.738281 C 22.109375 3.503906 21.746094 3.652344 21.5 3.589844 C 21.839844 3.648438 22.15625 3.820312 22.410156 4.078125 C 22.65625 4.4375 23.171875 5.578125 23.417969 6.066406 C 23.664062 6.554688 23.699219 6.191406 24.042969 7.25 C 24.382812 8.332031 25.085938 9.390625 25.066406 9.792969 L 24.6875 7.652344 Z M 23.246094 4.777344 "/>
<path style=" stroke:none;fill-rule:nonzero;fill:rgb(0%,0%,0%);fill-opacity:1;" d="M 25.882812 16.777344 L 26.566406 14.597656 C 26.492188 14.171875 26.359375 13.765625 26.167969 13.390625 C 25.976562 13.15625 27 14.34375 27 14.34375 Z M 25.882812 16.777344 "/>
<path style=" stroke:none;fill-rule:nonzero;fill:rgb(0%,0%,0%);fill-opacity:1;" d="M 26.242188 14.53125 C 26.277344 13.496094 26.363281 12.464844 26.507812 11.441406 C 26.699219 10.703125 27.476562 8.5625 27.476562 8.5625 C 27.476562 8.5625 25.578125 3.191406 23.207031 2.660156 C 20.839844 2.128906 19.871094 2.914062 19.1875 3.695312 C 18.875 4.113281 18.46875 4.433594 18.011719 4.628906 L 20.210938 11.125 C 20.210938 11.125 22.507812 11.761719 23.585938 12.203125 L 22.507812 11.273438 C 21.78125 10.367188 21.105469 9.410156 20.476562 8.417969 C 19.984375 7.503906 18.695312 5.261719 18.695312 5.261719 L 18.582031 4.835938 C 18.582031 4.835938 19.832031 3.398438 20.191406 3.292969 C 20.550781 3.1875 21.214844 2.574219 22.429688 3.101562 C 23.644531 3.609375 22.886719 2.976562 22.886719 2.976562 C 23.269531 3.019531 23.632812 3.191406 23.929688 3.460938 C 24.214844 3.820312 27.058594 6.828125 26.867188 8.753906 C 26.753906 9.9375 25.769531 12.160156 25.84375 12.667969 C 25.945312 13.296875 26.078125 13.917969 26.242188 14.53125 Z M 26.242188 14.53125 "/>
<path style=" stroke:none;fill-rule:nonzero;fill:rgb(0%,0%,0%);fill-opacity:1;" d="M 24.496094 6.597656 C 24.769531 7.515625 24.949219 8.46875 25.027344 9.433594 C 25.027344 9.433594 24.441406 6.808594 23.910156 6.152344 C 23.546875 5.648438 23.269531 5.074219 23.09375 4.457031 C 23.09375 4.457031 23.566406 4.945312 23.757812 5.199219 C 24.023438 5.652344 24.273438 6.117188 24.496094 6.597656 Z M 24.496094 6.597656 "/>
<path style=" stroke:none;fill-rule:nonzero;fill:rgb(98.823529%,93.333334%,12.941177%);fill-opacity:1;" d="M 22.734375 13.242188 L 17.082031 14.066406 L 12.320312 15.675781 L 8.109375 17.367188 L 4.847656 16.925781 L 3.902344 14.171875 L 1.300781 11.167969 C 0.894531 10.0625 0.621094 8.902344 0.488281 7.71875 C 0.410156 6.28125 1.984375 4.480469 1.984375 4.480469 L 4.035156 4.328125 L 5.570312 3.269531 L 7.617188 0.414062 L 9.417969 0.5625 L 10.480469 0.628906 L 15.90625 3.484375 L 19.640625 6.066406 L 21.195312 7.316406 Z M 22.734375 13.242188 "/>
<path style=" stroke:none;fill-rule:nonzero;fill:rgb(98.823529%,96.470588%,62.352943%);fill-opacity:1;" d="M 9.761719 6.554688 C 9.761719 6.554688 11.523438 7.144531 12.1875 7.359375 C 12.851562 7.589844 16.210938 8.308594 16.210938 8.308594 C 16.210938 8.308594 18.371094 8.457031 19.109375 9.769531 C 19.804688 11.242188 20.402344 12.773438 20.894531 14.34375 C 20.894531 14.34375 19.585938 11.84375 17.6875 11.105469 C 16.542969 10.65625 15.335938 10.441406 14.125 10.464844 C 14.476562 10.261719 14.851562 10.105469 15.242188 10 L 15.925781 9.8125 L 15.867188 9.175781 C 15.089844 8.964844 14.324219 8.710938 13.574219 8.414062 C 12.757812 8.015625 9.761719 6.554688 9.761719 6.554688 Z M 9.761719 6.554688 "/>
<path style=" stroke:none;fill-rule:nonzero;fill:rgb(98.823529%,96.470588%,62.352943%);fill-opacity:1;" d="M 6.746094 2.636719 C 6.746094 2.636719 6.765625 2.425781 7.808594 2.660156 C 8.703125 2.894531 9.582031 3.191406 10.445312 3.546875 C 10.445312 3.546875 11.601562 3.925781 13.214844 4.542969 C 14.824219 5.15625 16.835938 5.960938 16.835938 5.960938 C 16.835938 5.960938 18.464844 6.703125 19.015625 7.335938 C 19.585938 7.972656 22.679688 13.007812 22.679688 13.007812 C 21.957031 8.5625 20.269531 6.277344 20.269531 6.277344 C 20.269531 6.277344 12.605469 1.390625 10.578125 0.859375 C 8.546875 0.332031 7.867188 0.585938 7.867188 0.585938 C 7.867188 0.585938 6.746094 1.472656 6.632812 1.980469 C 6.5 2.46875 6.746094 2.636719 6.746094 2.636719 Z M 6.746094 2.636719 "/>
<path style=" stroke:none;fill-rule:nonzero;fill:rgb(0%,0%,0%);fill-opacity:1;" d="M 22.734375 13.242188 C 22.734375 13.242188 21.9375 8.734375 21.558594 7.085938 C 20.898438 6.335938 20.160156 5.683594 19.359375 5.136719 C 19.359375 5.136719 16.683594 3.699219 16.398438 3.359375 C 16.113281 3.019531 13.933594 2.046875 13.574219 1.707031 C 12.523438 1.164062 11.433594 0.730469 10.3125 0.414062 C 9.480469 0.183594 8.625 0.046875 7.769531 0.0117188 C 7.410156 0.0976562 6.917969 0.878906 6.59375 1.15625 C 6.269531 1.453125 4.714844 3.546875 4.222656 3.757812 C 3.648438 3.976562 3.039062 4.039062 2.441406 3.949219 C 2.289062 3.824219 1.605469 3.847656 1.09375 4.753906 C 0.582031 5.664062 -0.101562 7.378906 0.0117188 8.457031 C 0.125 9.558594 0.753906 10.703125 1.683594 11.84375 C 2.628906 13.007812 3.160156 13.261719 3.84375 14.808594 C 4.195312 15.589844 4.488281 16.40625 4.714844 17.242188 C 5.84375 17.4375 6.992188 17.480469 8.128906 17.371094 C 9.644531 17.039062 11.121094 16.511719 12.53125 15.804688 C 13.308594 15.339844 16.246094 14.535156 16.738281 14.21875 C 16.738281 14.21875 13.535156 15 12.511719 15.382812 C 11.488281 15.761719 9.097656 16.988281 7.996094 16.988281 C 6.480469 16.96875 4.980469 16.863281 4.980469 16.863281 C 4.980469 16.863281 4.410156 14.554688 3.824219 13.730469 C 3.234375 12.910156 1.339844 11.191406 0.980469 9.921875 C 0.617188 8.65625 0.429688 7.617188 0.886719 6.472656 C 1.152344 5.777344 1.5625 5.160156 2.078125 4.667969 C 2.558594 4.648438 3.042969 4.660156 3.519531 4.710938 C 4.316406 4.820312 5.105469 5.003906 5.871094 5.261719 C 6.574219 5.515625 9.097656 6.871094 9.097656 6.871094 L 6.347656 5.136719 L 4.527344 4.351562 C 5.117188 3.9375 5.640625 3.414062 6.082031 2.808594 C 6.820312 1.792969 6.875 1.433594 7.371094 1.070312 C 7.757812 0.75 8.238281 0.597656 8.71875 0.648438 C 9.539062 0.757812 10.347656 0.96875 11.125 1.285156 C 12.171875 1.675781 13.191406 2.140625 14.179688 2.683594 C 14.902344 3.148438 15.546875 3.445312 16.265625 3.910156 C 16.988281 4.355469 18.636719 5.265625 19.394531 5.878906 C 20.039062 6.332031 20.601562 6.921875 21.046875 7.613281 C 21.519531 8.375 22.734375 13.242188 22.734375 13.242188 Z M 22.734375 13.242188 "/>
<path style=" stroke:none;fill-rule:nonzero;fill:rgb(0%,0%,0%);fill-opacity:1;" d="M 20.269531 12.628906 C 20.269531 12.628906 19.1875 9.6875 18.941406 9.15625 C 18.648438 8.695312 18.207031 8.382812 17.707031 8.289062 C 17.367188 8.183594 13.820312 8.183594 13.820312 8.183594 L 16.796875 8.667969 C 17.0625 8.695312 17.320312 8.753906 17.574219 8.839844 C 17.847656 8.96875 18.101562 9.140625 18.332031 9.347656 C 18.128906 9.289062 17.917969 9.253906 17.707031 9.242188 C 17.460938 9.242188 17.007812 9.601562 16.855469 9.644531 C 16.660156 9.71875 16.476562 9.816406 16.304688 9.941406 C 16.722656 9.828125 17.152344 9.8125 17.574219 9.898438 C 18.03125 10.089844 18.351562 9.921875 18.695312 10.257812 C 18.921875 10.503906 19.136719 10.765625 19.339844 11.042969 Z M 20.269531 12.628906 "/>
<path style=" stroke:none;fill-rule:nonzero;fill:rgb(98.823529%,93.333334%,12.941177%);fill-opacity:1;" d="M 19.660156 24.925781 L 18.5625 23 C 18.386719 22.101562 18.574219 21.164062 19.074219 20.4375 L 19.910156 19.378906 L 22.65625 15.445312 L 25.710938 14.765625 L 26.960938 14.785156 L 28.441406 19.167969 L 29.710938 19.066406 L 30.929688 18.832031 L 31.25 19.445312 L 29.980469 24.695312 L 27.761719 26.832031 L 25.179688 26.960938 L 23.625 26.007812 L 22.390625 27.0625 L 21.195312 27.1875 L 20.53125 26.53125 Z M 19.660156 24.925781 "/>
<path style=" stroke:none;fill-rule:nonzero;fill:rgb(75.294119%,76.862746%,23.921569%);fill-opacity:1;" d="M 22.257812 24.332031 C 22.257812 24.332031 25.445312 27.632812 27.511719 26.109375 C 28.753906 25.191406 29.703125 23.859375 30.222656 22.300781 C 30.222656 22.300781 30.925781 19.910156 30.871094 19.421875 C 30.8125 18.9375 31.4375 19.613281 31.4375 19.613281 L 30.148438 24.882812 C 30.148438 24.882812 28.253906 27.023438 27.039062 27.125 C 25.824219 27.230469 23.664062 26.027344 23.664062 26.027344 L 22.351562 27.191406 L 21.253906 27.210938 L 21.878906 26.113281 Z M 22.257812 24.332031 "/>
<path style=" stroke:none;fill-rule:nonzero;fill:rgb(75.294119%,76.862746%,23.921569%);fill-opacity:1;" d="M 20.875 24.140625 C 21.09375 23.964844 21.328125 23.816406 21.574219 23.699219 C 21.859375 23.59375 22.503906 23.402344 22.503906 23.402344 L 21.460938 23.335938 Z M 20.875 24.140625 "/>
<path style=" stroke:none;fill-rule:nonzero;fill:rgb(75.294119%,76.862746%,23.921569%);fill-opacity:1;" d="M 28.347656 19.675781 C 28.386719 19.570312 29.03125 19.910156 29.449219 19.761719 C 29.695312 19.667969 29.929688 19.542969 30.148438 19.378906 C 30.285156 19.273438 30.441406 19.199219 30.605469 19.167969 C 30.699219 19.167969 30.90625 19.191406 30.792969 19.273438 C 30.679688 19.355469 29.941406 19.929688 29.941406 19.929688 L 29.105469 20.054688 Z M 28.347656 19.675781 "/>
<path style=" stroke:none;fill-rule:nonzero;fill:rgb(75.294119%,76.862746%,23.921569%);fill-opacity:1;" d="M 21.558594 17.285156 C 21.734375 16.929688 21.941406 16.59375 22.183594 16.289062 C 22.410156 16.078125 23.453125 15.421875 23.453125 15.421875 L 22.164062 15.761719 C 21.964844 16.128906 21.78125 16.511719 21.617188 16.902344 C 21.578125 17.113281 21.558594 17.285156 21.558594 17.285156 Z M 21.558594 17.285156 "/>
<path style=" stroke:none;fill-rule:nonzero;fill:rgb(75.294119%,76.862746%,23.921569%);fill-opacity:1;" d="M 26.546875 14.53125 C 26.546875 14.53125 26.433594 14.492188 26.46875 14.808594 C 26.507812 15.125 26.660156 15.527344 26.449219 15.695312 C 26.242188 15.84375 26.109375 15.925781 26.109375 15.925781 C 26.421875 15.910156 26.734375 16 27 16.183594 C 27.289062 16.441406 27.496094 16.796875 27.589844 17.199219 C 27.644531 17.535156 27.722656 18.214844 27.496094 18.488281 C 27.269531 18.765625 28.011719 19.484375 28.011719 19.484375 L 28.464844 19.207031 L 28.085938 17.050781 Z M 26.546875 14.53125 "/>
<path style=" stroke:none;fill-rule:nonzero;fill:rgb(75.294119%,76.862746%,23.921569%);fill-opacity:1;" d="M 26.601562 18.363281 C 26.597656 18.472656 26.632812 18.578125 26.695312 18.660156 C 26.640625 18.742188 26.601562 18.835938 26.582031 18.933594 C 26.5625 19.078125 26.582031 19.226562 26.640625 19.359375 C 26.640625 19.359375 26.640625 19.441406 26.941406 19.546875 C 27.246094 19.65625 27.550781 19.886719 27.320312 20.058594 C 27.09375 20.226562 27.453125 20.4375 27.453125 20.4375 L 27.890625 19.929688 L 27.757812 19.1875 L 27.242188 18.53125 L 26.617188 18.277344 "/>
<path style=" stroke:none;fill-rule:nonzero;fill:rgb(75.294119%,76.862746%,23.921569%);fill-opacity:1;" d="M 24.34375 17.6875 L 24.269531 17.855469 C 24.382812 18.019531 24.429688 18.226562 24.402344 18.429688 C 24.402344 18.585938 24.390625 18.742188 24.363281 18.894531 L 24.820312 19 C 24.820312 19 23.777344 19.148438 23.304688 19.253906 C 22.855469 19.394531 22.433594 19.617188 22.050781 19.910156 L 21.9375 19.996094 C 21.9375 19.867188 21.984375 19.742188 22.070312 19.65625 C 22.152344 19.539062 22.25 19.429688 22.355469 19.339844 L 22.488281 19.234375 C 22.488281 19.234375 22.296875 19.277344 22.222656 18.832031 C 22.144531 18.386719 22.164062 18.367188 22.164062 18.367188 C 22.035156 18.332031 21.910156 18.289062 21.785156 18.238281 C 22.054688 18.117188 22.335938 18.027344 22.621094 17.964844 L 24.347656 17.691406 "/>
<path style="fill:none;stroke-width:3;stroke-linecap:butt;stroke-linejoin:miter;stroke:rgb(0%,0%,0%);stroke-opacity:1;stroke-miterlimit:4;" d="M 144.643713 76.848249 C 144.601938 76.331647 144.610293 75.815046 144.685488 75.305931 C 144.810814 74.497337 143.632754 72.108991 143.189937 71.412702 C 142.738765 70.716413 141.443735 67.886335 141.443735 67.886335 L 141.401959 67.60183 " transform="matrix(0.467532,0,0,0.521739,-39.297507,-20.969738)"/>
<path style=" stroke:none;fill-rule:nonzero;fill:rgb(0%,0%,0%);fill-opacity:1;" d="M 25.066406 20.859375 C 25.3125 20.664062 25.523438 20.421875 25.691406 20.140625 C 25.804688 19.933594 26.007812 19.804688 26.222656 19.800781 C 26.449219 19.796875 26.671875 19.824219 26.886719 19.886719 C 27.058594 19.949219 27.210938 19.929688 27.285156 20.078125 C 27.363281 20.226562 26.984375 20.226562 26.984375 20.226562 C 26.816406 20.136719 26.636719 20.085938 26.453125 20.078125 C 26.214844 20.039062 25.96875 20.097656 25.769531 20.246094 C 25.617188 20.417969 25.066406 20.859375 25.066406 20.859375 Z M 25.066406 20.859375 "/>
<path style=" stroke:none;fill-rule:nonzero;fill:rgb(0%,0%,0%);fill-opacity:1;" d="M 27.496094 20.332031 C 27.496094 20.332031 26.734375 20.035156 26.46875 20.417969 C 26.269531 20.695312 26.09375 20.992188 25.9375 21.304688 C 25.816406 21.527344 25.675781 21.738281 25.523438 21.9375 C 25.523438 21.9375 26.128906 21.261719 26.242188 21.09375 C 26.34375 20.929688 26.464844 20.789062 26.601562 20.667969 C 26.765625 20.550781 26.960938 20.5 27.152344 20.519531 C 27.257812 20.53125 27.359375 20.558594 27.457031 20.605469 Z M 27.496094 20.332031 "/>
<path style=" stroke:none;fill-rule:nonzero;fill:rgb(0%,0%,0%);fill-opacity:1;" d="M 26.355469 22.828125 C 26.652344 22.425781 26.917969 21.992188 27.152344 21.539062 C 27.265625 21.199219 27.585938 20.246094 27.625 20.015625 C 27.683594 19.734375 27.808594 19.480469 27.984375 19.273438 C 28.15625 19.125 28.195312 19.230469 28.460938 19.1875 C 28.738281 19.148438 29.011719 19.070312 29.273438 18.957031 C 29.40625 18.890625 29.863281 18.574219 29.957031 18.511719 C 30.140625 18.394531 30.339844 18.308594 30.546875 18.257812 C 30.765625 18.296875 30.976562 18.398438 31.152344 18.554688 C 31.328125 18.773438 31.46875 19.023438 31.570312 19.292969 C 31.628906 19.464844 31.097656 24.164062 29.617188 25.792969 C 28.0625 27.507812 27.644531 27.570312 26.242188 27.484375 C 25.363281 27.414062 24.515625 27.09375 23.777344 26.554688 C 23.417969 26.386719 23.550781 26.386719 23.550781 26.386719 C 23.414062 26.597656 23.261719 26.796875 23.09375 26.980469 C 22.710938 27.386719 22.203125 27.621094 21.671875 27.636719 C 21.253906 27.570312 20.570312 27.570312 20.175781 26.894531 C 19.890625 26.367188 19.65625 25.808594 19.472656 25.222656 L 19.242188 24.566406 C 19.0625 24.339844 18.910156 24.09375 18.785156 23.824219 C 18.632812 23.496094 18.519531 23.148438 18.445312 22.785156 C 18.617188 23.128906 18.816406 23.453125 19.035156 23.761719 C 19.300781 24.097656 19.773438 24.605469 19.773438 24.605469 L 20.289062 25.878906 C 20.40625 26.375 20.730469 26.785156 21.160156 26.976562 C 21.601562 27.167969 22.09375 27.128906 22.507812 26.875 C 22.800781 26.628906 23.074219 26.351562 23.320312 26.046875 L 23.019531 25.710938 L 22.675781 26.238281 C 22.53125 26.46875 22.285156 26.597656 22.03125 26.578125 C 21.734375 26.542969 21.449219 26.410156 21.21875 26.195312 L 21.066406 26.070312 C 21.25 26.425781 21.546875 26.691406 21.898438 26.808594 C 21.570312 26.824219 21.246094 26.703125 20.988281 26.472656 C 20.847656 26.292969 20.8125 26.035156 20.894531 25.816406 C 20.996094 25.539062 21.136719 25.28125 21.3125 25.054688 C 21.429688 24.914062 21.539062 24.765625 21.636719 24.609375 C 21.734375 24.347656 21.824219 24.078125 21.902344 23.804688 C 21.921875 23.742188 21.9375 23.761719 21.9375 23.761719 C 22.117188 24.109375 22.339844 24.421875 22.601562 24.695312 C 22.925781 24.988281 23.777344 25.835938 24.097656 26.050781 C 24.417969 26.261719 26.945312 27.996094 28.839844 25.734375 C 29.972656 24.378906 30.714844 22.675781 30.964844 20.84375 C 31.082031 20.46875 31.132812 20.074219 31.117188 19.679688 C 31.039062 19.277344 30.984375 19.085938 30.660156 18.960938 C 30.339844 18.832031 30.246094 19.128906 29.902344 19.296875 C 29.582031 19.46875 29.230469 19.546875 28.878906 19.53125 C 28.519531 19.488281 28.253906 19.488281 28.15625 19.699219 C 27.984375 20.300781 27.78125 20.886719 27.550781 21.457031 C 27.398438 21.667969 27.226562 21.945312 27.132812 22.050781 C 26.980469 22.152344 26.355469 22.828125 26.355469 22.828125 Z M 26.355469 22.828125 "/>
<path style=" stroke:none;fill-rule:nonzero;fill:rgb(0%,0%,0%);fill-opacity:1;" d="M 29.464844 20.160156 C 29.847656 20.128906 30.207031 19.941406 30.472656 19.632812 C 30.578125 19.515625 30.671875 19.386719 30.757812 19.253906 C 30.433594 19.492188 30.082031 19.679688 29.714844 19.800781 C 29.265625 20.011719 28.75 19.957031 28.347656 19.65625 C 28.503906 19.902344 28.730469 20.082031 28.992188 20.164062 C 29.148438 20.191406 29.308594 20.191406 29.464844 20.160156 Z M 29.464844 20.160156 "/>
<path style=" stroke:none;fill-rule:nonzero;fill:rgb(0%,0%,0%);fill-opacity:1;" d="M 21.5 23.484375 C 21.824219 23.390625 22.15625 23.355469 22.488281 23.382812 C 22.144531 23.308594 21.792969 23.257812 21.445312 23.234375 C 21.273438 23.253906 20.894531 24.101562 20.894531 24.101562 Z M 21.5 23.484375 "/>
<path style=" stroke:none;fill-rule:nonzero;fill:rgb(0%,0%,0%);fill-opacity:1;" d="M 24.175781 18.300781 C 24.203125 18.464844 24.183594 18.636719 24.117188 18.785156 C 24.226562 18.789062 24.335938 18.800781 24.441406 18.828125 C 24.574219 18.871094 24.859375 19 24.859375 19 C 24.417969 18.957031 23.972656 18.949219 23.53125 18.976562 C 23.285156 19.023438 23.046875 19.085938 22.808594 19.167969 C 22.675781 19.210938 22.222656 19.441406 22.222656 19.441406 C 22.335938 19.335938 22.457031 19.238281 22.582031 19.144531 C 22.636719 19.125 22.636719 19.082031 22.636719 19.082031 C 22.589844 18.964844 22.542969 18.84375 22.503906 18.722656 C 22.476562 18.53125 22.488281 18.332031 22.542969 18.148438 C 22.4375 18.175781 22.328125 18.1875 22.222656 18.191406 C 22.089844 18.210938 21.765625 18.210938 21.765625 18.210938 C 21.980469 18.121094 22.1875 18.015625 22.390625 17.894531 C 22.589844 17.761719 22.796875 17.65625 23.015625 17.578125 C 23.253906 17.527344 23.5 17.519531 23.738281 17.554688 C 23.988281 17.613281 24.242188 17.65625 24.496094 17.683594 C 24.378906 17.726562 24.257812 17.753906 24.136719 17.769531 C 24.070312 17.761719 24.003906 17.777344 23.945312 17.808594 C 24.042969 17.960938 24.117188 18.125 24.175781 18.300781 Z M 24.175781 18.300781 "/>
<path style=" stroke:none;fill-rule:nonzero;fill:rgb(0%,0%,0%);fill-opacity:1;" d="M 26.773438 18.871094 C 26.738281 19.007812 26.726562 19.152344 26.734375 19.296875 L 26.46875 19.296875 C 26.582031 19.320312 26.691406 19.363281 26.792969 19.421875 C 26.941406 19.503906 27.09375 19.574219 27.246094 19.632812 C 27.402344 19.699219 27.554688 19.777344 27.703125 19.867188 L 28.082031 19.292969 L 28.007812 18.953125 C 27.964844 18.804688 27.894531 18.664062 27.796875 18.550781 C 27.644531 18.464844 27.476562 18.410156 27.304688 18.382812 C 27.210938 18.382812 27.097656 18.445312 27 18.425781 C 26.90625 18.402344 26.601562 18.320312 26.601562 18.320312 L 26.964844 18.53125 C 26.894531 18.640625 26.832031 18.753906 26.773438 18.871094 Z M 26.773438 18.871094 "/>
<path style=" stroke:none;fill-rule:nonzero;fill:rgb(100%,100%,100%);fill-opacity:1;" d="M 26.753906 19.359375 C 26.824219 19.335938 26.894531 19.328125 26.964844 19.335938 C 27.039062 19.351562 27.117188 19.371094 27.191406 19.398438 C 27.238281 19.320312 27.265625 19.222656 27.265625 19.125 C 27.261719 19.027344 27.210938 18.9375 27.132812 18.894531 C 27.054688 18.859375 26.96875 18.859375 26.886719 18.894531 C 26.835938 18.941406 26.792969 19 26.753906 19.0625 Z M 26.753906 19.359375 "/>
<path style=" stroke:none;fill-rule:nonzero;fill:rgb(0%,0%,0%);fill-opacity:1;" d="M 26.714844 15.929688 C 26.84375 15.929688 26.972656 15.949219 27.097656 15.992188 C 27.199219 16.050781 27.292969 16.121094 27.378906 16.207031 L 27.472656 16.394531 C 27.355469 16.273438 27.222656 16.175781 27.074219 16.097656 C 26.964844 16.054688 26.714844 15.929688 26.714844 15.929688 Z M 26.714844 15.929688 "/>
<path style=" stroke:none;fill-rule:nonzero;fill:rgb(0%,0%,0%);fill-opacity:1;" d="M 23.644531 15.398438 C 23.246094 15.425781 22.851562 15.535156 22.488281 15.71875 C 22.230469 15.914062 22 16.148438 21.804688 16.417969 C 21.804688 16.417969 21.9375 15.613281 22.277344 15.464844 C 22.730469 15.375 23.1875 15.351562 23.644531 15.398438 Z M 23.644531 15.398438 "/>
<path style=" stroke:none;fill-rule:nonzero;fill:rgb(100%,100%,100%);fill-opacity:1;" d="M 22.753906 18.449219 C 22.886719 18.386719 23.152344 18.363281 23.226562 18.597656 C 23.304688 18.828125 23.226562 18.851562 23.226562 18.851562 C 23.144531 18.851562 23.0625 18.867188 22.980469 18.894531 C 22.890625 18.925781 22.808594 18.976562 22.734375 19.042969 L 22.695312 19.0625 L 22.5625 18.640625 C 22.605469 18.554688 22.671875 18.488281 22.753906 18.449219 Z M 22.753906 18.449219 "/>
</g>
</svg>
