<svg xmlns="http://www.w3.org/2000/svg" width="37" height="48" fill="none"><g clip-path="url(#a)"><path fill="#E44D26" d="M3.364 44.156 0 9.375h37l-3.364 34.781-15.187 3.846z"/><path fill="#F16529" d="m18.55 45.096 12.13-3.185 2.956-29.63H18.55z"/><path fill="#EBEBEB" d="M18.55 25.125h-6.116l-.51-4.313h6.626V16.5H6.828l.204 1.125 1.121 11.813H18.55zM18.551 36.28h-.102l-5.097-1.312-.306-3.469H8.358l.612 6.75 9.48 2.438h.102z"/><path fill="#000" d="M3.465 0h2.344v2.156H7.95V0h2.344v6.469H7.95V4.313H5.81v2.156H3.464zM13.455 2.156h-2.039V0h6.421v2.156H15.8V6.47h-2.344zM18.857 0h2.447l1.529 2.25L24.36 0h2.447v6.469h-2.345V3.28L22.935 5.53h-.102l-1.634-2.25v3.185h-2.24zM27.928 0h2.344v4.313h3.364v2.156h-5.708z"/><path fill="#fff" d="M18.45 25.125v4.313h5.707l-.51 5.529-5.198 1.314v4.406l9.48-2.438.102-.656 1.12-11.25.103-1.219zM18.45 16.5v4.313h11.212l.101-.938.204-2.25.102-1.125z"/></g><defs><clipPath id="a"><path fill="#fff" d="M0 0h37v48H0z"/></clipPath></defs></svg>