<svg xmlns="http://www.w3.org/2000/svg" width="47" height="48" fill="none"><g clip-path="url(#a)"><path fill="#F7DF1E" d="M47 0H0v48h47z"/><path fill="#000" d="M31.597 37.502c.94 1.572 2.169 2.727 4.338 2.727 1.821 0 2.986-.93 2.986-2.215 0-1.54-1.196-2.085-3.202-2.981l-1.099-.48c-3.172-1.38-5.282-3.11-5.282-6.767 0-3.369 2.513-5.933 6.44-5.933 2.797 0 4.807.994 6.255 3.596l-3.425 2.246c-.753-1.38-1.567-1.925-2.83-1.925a1.9 1.9 0 0 0-.784.087 1.9 1.9 0 0 0-.683.402 1.989 1.989 0 0 0-.637 1.436c0 1.347.817 1.893 2.703 2.727l1.099.48c3.736 1.636 5.846 3.304 5.846 7.055 0 4.044-3.11 6.259-7.285 6.259-4.084 0-6.723-1.988-8.013-4.593zm-15.535.39c.691 1.25 1.32 2.31 2.83 2.31 1.445 0 2.357-.578 2.357-2.82V22.107h4.397v15.331c0 4.65-2.67 6.767-6.567 6.767-3.52 0-5.56-1.86-6.597-4.102z"/></g><defs><clipPath id="a"><path fill="#fff" d="M0 0h47v48H0z"/></clipPath></defs></svg>