<?xml version="1.0" encoding="UTF-8"?>
<svg xmlns="http://www.w3.org/2000/svg" xmlns:xlink="http://www.w3.org/1999/xlink" width="40px" height="40px" viewBox="0 0 40 40" version="1.1">
<g id="surface1">
<path style=" stroke:none;fill-rule:nonzero;fill:rgb(19.607843%,42.745098%,90.196079%);fill-opacity:1;" d="M 12.710938 39.199219 C 11.777344 39.203125 10.894531 38.761719 10.320312 38.007812 L 1.308594 26.496094 C 0.710938 25.742188 0.492188 24.742188 0.71875 23.796875 L 3.933594 9.441406 C 4.140625 8.503906 4.757812 7.714844 5.609375 7.304688 L 18.632812 0.898438 C 19.476562 0.476562 20.464844 0.476562 21.308594 0.898438 L 34.335938 7.273438 C 35.183594 7.683594 35.800781 8.472656 36.007812 9.410156 L 39.226562 23.773438 C 39.4375 24.71875 39.222656 25.710938 38.632812 26.46875 L 29.625 37.976562 C 29.039062 38.722656 28.164062 39.15625 27.230469 39.167969 Z M 12.710938 39.199219 "/>
<path style=" stroke:none;fill-rule:nonzero;fill:rgb(100%,100%,100%);fill-opacity:1;" d="M 19.945312 1.242188 C 20.308594 1.242188 20.671875 1.324219 21 1.480469 L 34.027344 7.855469 C 34.699219 8.191406 35.191406 8.824219 35.363281 9.574219 L 38.582031 23.933594 C 38.761719 24.695312 38.582031 25.5 38.09375 26.105469 L 29.082031 37.609375 C 28.617188 38.214844 27.902344 38.566406 27.152344 38.5625 L 12.703125 38.5625 C 11.953125 38.566406 11.242188 38.214844 10.773438 37.609375 L 1.773438 26.101562 C 1.304688 25.488281 1.128906 24.695312 1.28125 23.933594 L 4.5 9.574219 C 4.667969 8.820312 5.160156 8.1875 5.839844 7.855469 L 18.863281 1.457031 C 19.207031 1.320312 19.574219 1.246094 19.945312 1.242188 Z M 19.945312 0 C 19.394531 0.0078125 18.851562 0.132812 18.355469 0.371094 L 5.324219 6.769531 C 4.304688 7.261719 3.5625 8.207031 3.316406 9.335938 L 0.0976562 23.691406 C -0.164062 24.824219 0.101562 26.019531 0.820312 26.921875 L 9.828125 38.429688 C 10.523438 39.320312 11.574219 39.835938 12.6875 39.832031 L 27.132812 39.832031 C 28.246094 39.835938 29.296875 39.320312 29.992188 38.429688 L 39 26.921875 C 39.71875 26.019531 39.984375 24.824219 39.71875 23.691406 L 36.5 9.335938 C 36.25 8.207031 35.507812 7.261719 34.488281 6.769531 L 21.511719 0.371094 C 21.023438 0.128906 20.488281 0.00390625 19.945312 0 Z M 19.945312 0 "/>
<path style=" stroke:none;fill-rule:nonzero;fill:rgb(100%,100%,100%);fill-opacity:1;" d="M 32.996094 22.796875 L 32.972656 22.796875 C 32.945312 22.796875 32.917969 22.796875 32.917969 22.773438 C 32.863281 22.773438 32.816406 22.746094 32.765625 22.746094 C 32.601562 22.714844 32.4375 22.699219 32.273438 22.691406 C 32.1875 22.695312 32.101562 22.683594 32.015625 22.664062 L 31.992188 22.664062 C 31.523438 22.636719 31.054688 22.554688 30.601562 22.425781 C 30.472656 22.375 30.371094 22.269531 30.320312 22.136719 C 30.320312 22.109375 30.292969 22.109375 30.292969 22.082031 L 29.960938 21.976562 C 30.117188 20.730469 30.058594 19.46875 29.78125 18.246094 C 29.5 17.015625 29.011719 15.84375 28.339844 14.78125 L 28.597656 14.542969 L 28.597656 14.488281 C 28.59375 14.347656 28.636719 14.207031 28.726562 14.09375 C 29.085938 13.78125 29.472656 13.507812 29.882812 13.273438 C 29.960938 13.21875 30.039062 13.191406 30.113281 13.140625 C 30.265625 13.0625 30.414062 12.972656 30.550781 12.875 C 30.578125 12.847656 30.628906 12.820312 30.679688 12.769531 C 30.707031 12.742188 30.734375 12.742188 30.734375 12.714844 C 31.089844 12.429688 31.167969 11.910156 30.914062 11.523438 C 30.773438 11.335938 30.550781 11.230469 30.320312 11.234375 C 30.117188 11.242188 29.917969 11.316406 29.753906 11.445312 L 29.703125 11.5 C 29.648438 11.527344 29.625 11.582031 29.574219 11.605469 C 29.453125 11.722656 29.34375 11.847656 29.238281 11.976562 C 29.183594 12.042969 29.125 12.105469 29.058594 12.160156 C 28.75 12.515625 28.402344 12.835938 28.027344 13.113281 C 27.960938 13.164062 27.878906 13.191406 27.796875 13.191406 C 27.746094 13.195312 27.691406 13.1875 27.644531 13.167969 L 27.589844 13.167969 L 27.28125 13.378906 C 26.949219 13.023438 26.597656 12.6875 26.226562 12.371094 C 24.675781 11.125 22.808594 10.363281 20.847656 10.175781 L 20.820312 9.832031 L 20.765625 9.777344 C 20.660156 9.695312 20.585938 9.570312 20.5625 9.433594 C 20.550781 8.960938 20.578125 8.488281 20.640625 8.015625 L 20.640625 7.988281 C 20.644531 7.898438 20.664062 7.808594 20.695312 7.722656 C 20.71875 7.566406 20.746094 7.40625 20.769531 7.222656 L 20.769531 6.984375 C 20.800781 6.636719 20.613281 6.3125 20.300781 6.175781 C 19.992188 6.035156 19.632812 6.117188 19.40625 6.375 C 19.253906 6.535156 19.167969 6.753906 19.175781 6.980469 L 19.175781 7.195312 C 19.175781 7.367188 19.199219 7.535156 19.253906 7.699219 C 19.277344 7.777344 19.277344 7.855469 19.308594 7.960938 L 19.308594 7.988281 C 19.382812 8.460938 19.40625 8.9375 19.382812 9.414062 C 19.359375 9.554688 19.285156 9.675781 19.179688 9.757812 L 19.125 9.8125 L 19.097656 10.15625 C 18.632812 10.203125 18.167969 10.273438 17.710938 10.371094 C 15.757812 10.808594 13.984375 11.839844 12.613281 13.332031 L 12.355469 13.148438 L 12.304688 13.148438 C 12.25 13.148438 12.199219 13.171875 12.148438 13.171875 C 12.066406 13.171875 11.984375 13.144531 11.917969 13.09375 C 11.542969 12.804688 11.195312 12.476562 10.886719 12.113281 C 10.835938 12.046875 10.773438 11.984375 10.707031 11.929688 C 10.601562 11.800781 10.492188 11.675781 10.375 11.5625 C 10.347656 11.535156 10.296875 11.503906 10.246094 11.453125 C 10.21875 11.429688 10.191406 11.429688 10.191406 11.398438 C 10.03125 11.265625 9.832031 11.191406 9.625 11.1875 C 9.394531 11.183594 9.175781 11.292969 9.03125 11.480469 C 8.777344 11.863281 8.855469 12.382812 9.210938 12.667969 C 9.238281 12.667969 9.238281 12.695312 9.265625 12.695312 C 9.320312 12.722656 9.34375 12.773438 9.394531 12.800781 C 9.535156 12.898438 9.679688 12.988281 9.832031 13.066406 C 9.914062 13.097656 9.992188 13.144531 10.0625 13.195312 C 10.472656 13.433594 10.859375 13.707031 11.222656 14.019531 C 11.320312 14.125 11.367188 14.269531 11.347656 14.414062 L 11.347656 14.46875 L 11.605469 14.707031 C 11.554688 14.773438 11.511719 14.84375 11.476562 14.917969 C 10.203125 16.996094 9.691406 19.472656 10.039062 21.902344 L 9.703125 22.007812 C 9.703125 22.035156 9.679688 22.035156 9.679688 22.0625 C 9.617188 22.191406 9.519531 22.292969 9.394531 22.351562 C 8.941406 22.484375 8.476562 22.5625 8.007812 22.589844 L 7.976562 22.589844 C 7.890625 22.585938 7.804688 22.59375 7.71875 22.617188 C 7.554688 22.625 7.390625 22.640625 7.230469 22.671875 C 7.175781 22.671875 7.125 22.699219 7.074219 22.699219 L 7 22.722656 C 6.558594 22.816406 6.261719 23.246094 6.328125 23.703125 C 6.425781 24.082031 6.769531 24.339844 7.152344 24.3125 C 7.222656 24.316406 7.292969 24.308594 7.359375 24.285156 C 7.382812 24.285156 7.410156 24.285156 7.410156 24.257812 C 7.464844 24.257812 7.515625 24.234375 7.566406 24.234375 C 7.726562 24.1875 7.882812 24.125 8.027344 24.046875 C 8.105469 24.023438 8.183594 23.96875 8.261719 23.941406 L 8.285156 23.941406 C 8.714844 23.761719 9.164062 23.628906 9.625 23.546875 L 9.675781 23.546875 C 9.800781 23.550781 9.917969 23.597656 10.011719 23.679688 C 10.039062 23.679688 10.039062 23.703125 10.066406 23.703125 L 10.425781 23.648438 C 11.046875 25.613281 12.21875 27.34375 13.796875 28.621094 C 14.148438 28.902344 14.515625 29.15625 14.898438 29.390625 L 14.746094 29.734375 C 14.746094 29.757812 14.769531 29.757812 14.769531 29.789062 C 14.84375 29.914062 14.863281 30.066406 14.824219 30.210938 C 14.640625 30.644531 14.414062 31.0625 14.152344 31.453125 L 14.152344 31.46875 C 14.101562 31.546875 14.050781 31.601562 14 31.679688 C 13.898438 31.8125 13.820312 31.945312 13.71875 32.101562 C 13.683594 32.144531 13.660156 32.1875 13.640625 32.234375 L 13.613281 32.289062 C 13.402344 32.699219 13.550781 33.203125 13.949219 33.421875 C 14.042969 33.472656 14.148438 33.5 14.257812 33.5 C 14.582031 33.484375 14.875 33.292969 15.03125 33 C 15.074219 32.894531 15.101562 32.851562 15.132812 32.8125 C 15.191406 32.65625 15.242188 32.496094 15.285156 32.335938 L 15.363281 32.097656 C 15.492188 31.636719 15.667969 31.195312 15.894531 30.777344 C 15.976562 30.664062 16.09375 30.578125 16.226562 30.539062 C 16.253906 30.539062 16.253906 30.539062 16.28125 30.511719 L 16.460938 30.167969 C 17.613281 30.628906 18.839844 30.863281 20.074219 30.867188 C 20.828125 30.871094 21.582031 30.78125 22.316406 30.601562 C 22.769531 30.5 23.214844 30.367188 23.652344 30.207031 L 23.808594 30.496094 C 23.832031 30.496094 23.832031 30.496094 23.859375 30.523438 C 24 30.546875 24.121094 30.632812 24.195312 30.761719 C 24.410156 31.1875 24.589844 31.628906 24.734375 32.082031 L 24.734375 32.109375 L 24.8125 32.347656 C 24.851562 32.507812 24.90625 32.667969 24.96875 32.824219 C 24.992188 32.878906 25.019531 32.902344 25.042969 32.953125 L 25.070312 33.007812 C 25.214844 33.3125 25.515625 33.507812 25.84375 33.511719 C 25.949219 33.511719 26.054688 33.484375 26.152344 33.433594 C 26.335938 33.335938 26.476562 33.164062 26.535156 32.957031 C 26.597656 32.738281 26.578125 32.503906 26.484375 32.296875 C 26.484375 32.269531 26.457031 32.269531 26.457031 32.242188 C 26.4375 32.195312 26.414062 32.148438 26.378906 32.109375 C 26.300781 31.957031 26.207031 31.816406 26.097656 31.6875 C 26.042969 31.605469 25.996094 31.554688 25.945312 31.476562 L 25.945312 31.445312 C 25.671875 31.058594 25.449219 30.640625 25.273438 30.203125 C 25.242188 30.0625 25.25 29.914062 25.300781 29.78125 C 25.300781 29.753906 25.324219 29.753906 25.324219 29.726562 L 25.195312 29.410156 C 27.324219 28.101562 28.917969 26.046875 29.675781 23.621094 L 29.984375 23.675781 C 30.011719 23.675781 30.011719 23.652344 30.039062 23.652344 C 30.136719 23.574219 30.253906 23.53125 30.375 23.519531 L 30.425781 23.519531 C 30.886719 23.597656 31.335938 23.730469 31.765625 23.914062 L 31.789062 23.914062 C 31.863281 23.941406 31.941406 23.992188 32.019531 24.019531 C 32.167969 24.097656 32.320312 24.160156 32.480469 24.203125 C 32.535156 24.203125 32.585938 24.230469 32.636719 24.230469 L 32.714844 24.257812 C 32.78125 24.277344 32.847656 24.289062 32.917969 24.285156 C 33.292969 24.285156 33.625 24.039062 33.742188 23.675781 C 33.695312 23.253906 33.398438 22.902344 32.996094 22.800781 Z M 21.074219 21.503906 L 19.945312 22.0625 L 18.816406 21.507812 L 18.53125 20.261719 L 19.304688 19.257812 L 20.566406 19.257812 L 21.339844 20.261719 L 21.082031 21.507812 Z M 27.796875 18.75 C 27.996094 19.625 28.054688 20.527344 27.976562 21.421875 L 24.035156 20.261719 C 23.679688 20.15625 23.464844 19.785156 23.546875 19.414062 C 23.574219 19.304688 23.625 19.203125 23.703125 19.125 L 26.816406 16.242188 C 27.273438 17.019531 27.601562 17.871094 27.796875 18.757812 Z M 25.582031 14.652344 L 22.210938 17.113281 C 21.914062 17.304688 21.527344 17.234375 21.308594 16.953125 C 21.238281 16.871094 21.195312 16.769531 21.179688 16.664062 L 20.953125 12.351562 C 22.707031 12.5625 24.339844 13.371094 25.585938 14.65625 Z M 18.117188 12.484375 C 18.398438 12.429688 18.65625 12.378906 18.941406 12.324219 L 18.707031 16.558594 C 18.691406 16.9375 18.386719 17.238281 18.015625 17.246094 C 17.90625 17.246094 17.800781 17.21875 17.707031 17.164062 L 14.277344 14.648438 C 15.332031 13.566406 16.660156 12.816406 18.113281 12.480469 Z M 13.050781 16.238281 L 16.105469 19.042969 C 16.386719 19.292969 16.421875 19.726562 16.183594 20.019531 C 16.109375 20.128906 16 20.203125 15.875 20.230469 L 11.886719 21.421875 C 11.722656 19.613281 12.128906 17.796875 13.042969 16.238281 Z M 12.355469 23.410156 L 16.449219 22.695312 C 16.789062 22.675781 17.089844 22.910156 17.164062 23.25 C 17.195312 23.390625 17.1875 23.535156 17.140625 23.671875 L 15.566406 27.558594 C 14.082031 26.570312 12.953125 25.113281 12.347656 23.40625 Z M 21.75 28.667969 C 21.160156 28.804688 20.554688 28.875 19.949219 28.878906 C 19.066406 28.875 18.1875 28.734375 17.347656 28.457031 L 19.382812 24.675781 C 19.582031 24.425781 19.921875 24.347656 20.207031 24.492188 C 20.324219 24.566406 20.429688 24.667969 20.515625 24.78125 L 22.496094 28.460938 C 22.265625 28.539062 22.007812 28.589844 21.75 28.671875 Z M 26.769531 24.992188 C 26.136719 26.019531 25.296875 26.898438 24.300781 27.558594 L 22.679688 23.5625 C 22.59375 23.238281 22.742188 22.894531 23.039062 22.742188 C 23.152344 22.6875 23.273438 22.660156 23.398438 22.664062 L 27.515625 23.375 C 27.359375 23.953125 27.105469 24.5 26.769531 24.988281 Z M 26.769531 24.992188 "/>
</g>
</svg>
