<?xml version="1.0" encoding="UTF-8"?>
<svg xmlns="http://www.w3.org/2000/svg" xmlns:xlink="http://www.w3.org/1999/xlink" width="40px" height="40px" viewBox="0 0 40 40" version="1.1">
<g id="surface1">
<path style=" stroke:none;fill-rule:nonzero;fill:rgb(20.392157%,66.274512%,84.705883%);fill-opacity:1;" d="M 15.898438 29.152344 C 14.046875 28.25 12.527344 27.476562 12.527344 27.433594 C 12.527344 27.347656 19.242188 24.046875 19.328125 24.089844 C 19.414062 24.128906 19.398438 30.722656 19.328125 30.757812 C 19.296875 30.777344 17.742188 30.050781 15.894531 29.148438 Z M 20.253906 30.757812 C 20.230469 30.738281 20.210938 29.234375 20.210938 27.414062 C 20.210938 24.378906 20.210938 24.109375 20.324219 24.109375 C 20.4375 24.109375 26.667969 27.117188 27 27.332031 C 27.117188 27.402344 27.121094 27.425781 27.03125 27.5 C 26.941406 27.574219 21.058594 30.457031 20.511719 30.695312 C 20.4375 30.742188 20.347656 30.761719 20.253906 30.757812 Z M 12.015625 26.675781 C 11.902344 26.5 11.917969 20.269531 12.03125 20.144531 C 12.105469 20.058594 12.472656 20.222656 15.464844 21.683594 C 17.777344 22.8125 18.820312 23.351562 18.804688 23.414062 C 18.792969 23.472656 14.476562 25.644531 12.332031 26.671875 C 12.070312 26.792969 12.070312 26.792969 12.003906 26.671875 Z M 24.136719 25.144531 C 22.289062 24.25 20.789062 23.464844 20.777344 23.414062 C 20.761719 23.367188 21.785156 22.828125 24.117188 21.6875 C 27.097656 20.238281 27.488281 20.0625 27.550781 20.148438 C 27.617188 20.234375 27.640625 20.964844 27.640625 23.417969 C 27.640625 25.867188 27.621094 26.613281 27.550781 26.6875 C 27.484375 26.761719 27.125 26.613281 24.136719 25.144531 Z M 7.636719 25.097656 C 5.820312 24.203125 4.332031 23.445312 4.332031 23.410156 C 4.332031 23.371094 10.9375 20.105469 11.058594 20.105469 C 11.089844 20.105469 11.117188 21.554688 11.117188 23.417969 C 11.117188 26.03125 11.097656 26.730469 11.03125 26.726562 C 10.960938 26.722656 9.457031 25.992188 7.636719 25.097656 Z M 28.476562 23.414062 C 28.476562 20.625 28.492188 20.09375 28.574219 20.109375 C 28.652344 20.128906 30.15625 20.847656 31.980469 21.726562 C 33.117188 22.230469 34.21875 22.792969 35.277344 23.410156 C 35.269531 23.460938 28.863281 26.648438 28.59375 26.714844 C 28.480469 26.738281 28.472656 26.554688 28.472656 23.417969 Z M 3.746094 19.375 L 3.746094 16.03125 L 4.070312 16.171875 C 5.117188 16.617188 10.53125 19.335938 10.53125 19.398438 C 10.53125 19.464844 3.992188 22.714844 3.832031 22.71875 C 3.761719 22.71875 3.746094 22.011719 3.746094 19.375 Z M 15.835938 21.097656 C 14.015625 20.203125 12.527344 19.445312 12.527344 19.402344 C 12.527344 19.3125 19.234375 16.019531 19.324219 16.058594 C 19.355469 16.074219 19.382812 17.578125 19.382812 19.402344 C 19.382812 22.523438 19.382812 22.710938 19.261719 22.707031 C 19.195312 22.714844 17.65625 21.984375 15.835938 21.097656 Z M 20.210938 19.402344 C 20.210938 17.578125 20.238281 16.078125 20.273438 16.058594 C 20.378906 16 27.066406 19.28125 27.066406 19.402344 C 27.066406 19.523438 20.527344 22.714844 20.332031 22.714844 C 20.21875 22.714844 20.210938 22.519531 20.210938 19.402344 Z M 32.40625 21.09375 C 31.257812 20.578125 30.148438 20.011719 29.070312 19.402344 C 29.070312 19.351562 34.128906 16.828125 35.636719 16.140625 C 35.769531 16.078125 35.808594 16.082031 35.859375 16.152344 C 35.910156 16.21875 35.953125 22.472656 35.882812 22.617188 C 35.859375 22.667969 35.824219 22.707031 35.796875 22.707031 C 35.769531 22.707031 34.246094 21.980469 32.410156 21.089844 Z M 7.742188 17.105469 C 5.941406 16.230469 4.429688 15.476562 4.375 15.429688 C 4.320312 15.386719 4.300781 15.335938 4.441406 15.265625 C 5.019531 14.957031 10.984375 12.085938 11.050781 12.085938 C 11.113281 12.085938 11.152344 18.628906 11.066406 18.675781 C 11.035156 18.691406 9.539062 17.984375 7.742188 17.113281 Z M 11.984375 18.617188 C 11.929688 18.496094 11.929688 12.324219 11.984375 12.152344 C 12.011719 12.058594 12.0625 12.027344 12.136719 12.050781 C 12.214844 12.078125 13.722656 12.808594 15.542969 13.695312 C 17.730469 14.765625 18.832031 15.332031 18.816406 15.386719 C 18.804688 15.445312 12.265625 18.710938 12.113281 18.710938 Z M 24.101562 17.089844 C 21.84375 15.976562 20.796875 15.445312 20.796875 15.378906 C 20.796875 15.316406 21.855469 14.769531 24.136719 13.652344 C 25.988281 12.761719 27.5 12.023438 27.523438 12.023438 C 27.546875 12.023438 27.585938 12.082031 27.605469 12.152344 C 27.660156 12.324219 27.660156 18.496094 27.605469 18.621094 C 27.441406 18.710938 25.917969 17.984375 24.101562 17.09375 Z M 28.476562 15.386719 C 28.476562 13.007812 28.5 12.074219 28.554688 12.074219 C 28.722656 12.074219 35.296875 15.304688 35.28125 15.378906 C 35.265625 15.457031 28.675781 18.703125 28.539062 18.703125 C 28.503906 18.703125 28.476562 17.363281 28.476562 15.390625 Z M 3.746094 11.355469 C 3.746094 8.199219 3.746094 8.007812 3.867188 8.054688 C 4.0625 8.117188 10.382812 11.214844 10.492188 11.304688 C 10.558594 11.359375 10.570312 11.40625 10.527344 11.4375 C 10.402344 11.535156 3.984375 14.652344 3.867188 14.671875 C 3.746094 14.691406 3.746094 14.503906 3.746094 11.359375 Z M 15.902344 13.070312 C 14.082031 12.175781 12.59375 11.417969 12.59375 11.375 C 12.59375 11.277344 19.167969 8.054688 19.289062 8.097656 C 19.367188 8.121094 19.378906 8.695312 19.363281 11.390625 C 19.398438 12.484375 19.371094 13.578125 19.277344 14.671875 C 19.230469 14.679688 17.71875 13.957031 15.902344 13.066406 Z M 20.289062 14.628906 C 20.1875 14.546875 20.175781 8.269531 20.269531 8.140625 C 20.4375 8.09375 21.945312 8.824219 23.746094 9.703125 C 24.867188 10.210938 25.957031 10.773438 27.007812 11.378906 C 26.996094 11.429688 25.53125 12.167969 23.75 13.039062 L 20.445312 14.652344 Z M 32.402344 13.070312 C 30.550781 12.175781 29.054688 11.417969 29.042969 11.371094 C 30.082031 10.773438 31.160156 10.222656 32.269531 9.722656 C 34.054688 8.859375 35.578125 8.128906 35.648438 8.097656 C 35.890625 8.1875 35.9375 14.449219 35.871094 14.59375 C 35.847656 14.644531 35.808594 14.683594 35.785156 14.683594 C 35.757812 14.679688 34.234375 13.949219 32.398438 13.0625 Z M 7.742188 9.085938 C 5.941406 8.210938 4.429688 7.453125 4.375 7.40625 C 4.320312 7.363281 4.300781 7.3125 4.441406 7.238281 C 4.972656 6.949219 10.890625 4.09375 10.992188 4.070312 C 11.097656 4.046875 11.117188 4.203125 11.117188 7.332031 C 11.117188 9.140625 11.09375 10.632812 11.0625 10.648438 C 11.03125 10.664062 9.539062 9.957031 7.742188 9.089844 Z M 12.058594 10.644531 C 12.03125 10.621094 12.011719 9.132812 12.011719 7.332031 C 12.011719 4.625 12.027344 4.054688 12.105469 4.054688 C 12.183594 4.054688 17.941406 6.839844 18.6875 7.234375 C 18.824219 7.308594 18.835938 7.332031 18.753906 7.402344 C 18.675781 7.472656 12.15625 10.6875 12.117188 10.6875 Z M 24.214844 9.085938 C 22.421875 8.207031 20.910156 7.453125 20.855469 7.40625 C 20.804688 7.363281 20.78125 7.3125 20.921875 7.242188 C 21.535156 6.914062 27.351562 4.101562 27.460938 4.078125 C 27.570312 4.050781 27.59375 4.097656 27.59375 7.335938 C 27.59375 9.140625 27.570312 10.636719 27.539062 10.652344 C 27.503906 10.667969 25.996094 9.964844 24.203125 9.089844 Z M 28.476562 7.359375 C 28.476562 4.105469 28.476562 4.039062 28.613281 4.070312 C 28.917969 4.136719 35.296875 7.28125 35.28125 7.359375 C 35.265625 7.433594 28.65625 10.6875 28.542969 10.6875 C 28.5 10.6875 28.476562 9.195312 28.476562 7.359375 Z M 15.875 5.046875 C 14.039062 4.15625 12.523438 3.40625 12.5 3.390625 C 12.476562 3.371094 12.5 3.324219 12.5625 3.277344 C 12.683594 3.171875 19.097656 0.0390625 19.257812 0.00390625 C 19.378906 -0.0234375 19.382812 0.128906 19.382812 3.328125 C 19.382812 5.984375 19.367188 6.671875 19.296875 6.671875 C 19.226562 6.671875 17.707031 5.941406 15.875 5.046875 Z M 20.257812 6.636719 C 20.175781 6.570312 20.199219 0.0585938 20.28125 0.0195312 C 20.363281 -0.0234375 27.101562 3.25 27.101562 3.339844 C 27.101562 3.394531 20.738281 6.542969 20.414062 6.644531 Z M 20.257812 6.636719 "/>
<path style=" stroke:none;fill-rule:nonzero;fill:rgb(0.784314%,27.058825%,38.039216%);fill-opacity:1;" d="M 15.917969 29.078125 C 14.113281 28.1875 12.632812 27.457031 12.632812 27.433594 C 12.632812 27.410156 19.183594 24.171875 19.269531 24.171875 C 19.292969 24.171875 19.316406 25.636719 19.316406 27.429688 C 19.316406 29.21875 19.292969 30.683594 19.261719 30.683594 C 19.230469 30.683594 17.726562 29.960938 15.917969 29.078125 Z M 20.324219 30.640625 C 20.257812 30.582031 20.269531 24.238281 20.324219 24.203125 C 20.378906 24.164062 26.925781 27.351562 26.925781 27.429688 C 26.925781 27.503906 20.480469 30.683594 20.382812 30.683594 Z M 12.082031 23.414062 C 12.082031 21.628906 12.101562 20.152344 12.125 20.152344 C 12.148438 20.152344 13.652344 20.878906 15.46875 21.761719 C 18.074219 23.035156 18.75 23.386719 18.679688 23.445312 C 18.613281 23.5 12.359375 26.585938 12.1875 26.640625 C 12.097656 26.671875 12.082031 26.308594 12.082031 23.414062 Z M 24.207031 25.085938 C 22.445312 24.222656 20.964844 23.480469 20.917969 23.445312 C 20.867188 23.40625 21.496094 23.046875 24.132812 21.761719 C 25.949219 20.871094 27.453125 20.152344 27.476562 20.152344 C 27.496094 20.152344 27.511719 21.617188 27.511719 23.40625 C 27.511719 25.199219 27.488281 26.664062 27.460938 26.660156 C 27.429688 26.660156 25.964844 25.953125 24.203125 25.085938 Z M 15.9375 21.058594 C 14.136719 20.183594 12.660156 19.4375 12.648438 19.410156 C 12.636719 19.386719 19.027344 16.199219 19.226562 16.160156 C 19.300781 16.144531 19.316406 16.738281 19.316406 19.398438 C 19.316406 21.183594 19.292969 22.65625 19.261719 22.65625 C 19.234375 22.65625 17.738281 21.9375 15.9375 21.058594 Z M 20.324219 22.621094 C 20.253906 22.5625 20.269531 16.21875 20.339844 16.183594 C 20.414062 16.148438 26.910156 19.304688 26.949219 19.394531 C 26.964844 19.4375 21.742188 22.027344 20.414062 22.636719 Z M 12.082031 15.386719 C 12.082031 12.378906 12.082031 12.128906 12.195312 12.164062 C 12.257812 12.183594 13.761719 12.910156 15.542969 13.777344 C 18.144531 15.046875 18.761719 15.367188 18.683594 15.425781 C 18.605469 15.484375 12.15625 18.648438 12.109375 18.648438 C 12.0625 18.648438 12.082031 17.171875 12.082031 15.386719 Z M 24.1875 17.054688 C 22.414062 16.183594 20.929688 15.445312 20.894531 15.410156 C 20.855469 15.378906 21.882812 14.839844 24.066406 13.773438 C 25.847656 12.90625 27.351562 12.179688 27.410156 12.160156 C 27.46875 12.144531 27.515625 12.488281 27.515625 15.390625 C 27.515625 17.171875 27.492188 18.648438 27.464844 18.644531 C 27.433594 18.640625 25.960938 17.925781 24.1875 17.054688 Z M 15.890625 4.976562 C 14.101562 4.105469 12.648438 3.367188 12.65625 3.335938 C 12.683594 3.261719 19.105469 0.109375 19.226562 0.109375 C 19.296875 0.109375 19.316406 0.792969 19.316406 3.332031 C 19.316406 5.875 19.292969 6.558594 19.226562 6.558594 C 19.164062 6.554688 17.679688 5.847656 15.890625 4.972656 Z M 20.28125 3.347656 C 20.28125 0.796875 20.296875 0.113281 20.367188 0.117188 C 20.488281 0.117188 26.914062 3.269531 26.941406 3.339844 C 26.964844 3.410156 20.667969 6.484375 20.414062 6.542969 C 20.28125 6.574219 20.28125 6.53125 20.28125 3.347656 Z M 20.28125 3.347656 "/>
<path style=" stroke:none;fill-rule:nonzero;fill:rgb(20.392157%,66.274512%,84.705883%);fill-opacity:1;" d="M 19.332031 39.914062 C 18.910156 39.8125 18.511719 39.644531 18.15625 39.425781 C 17.949219 39.316406 17.78125 39.160156 17.664062 38.980469 C 17.820312 38.8125 17.996094 38.664062 18.191406 38.535156 C 18.28125 38.582031 18.363281 38.640625 18.441406 38.699219 C 18.851562 39.070312 19.425781 39.273438 20.023438 39.261719 C 20.933594 39.21875 21.476562 38.667969 21.25 38.015625 C 21.113281 37.613281 20.722656 37.359375 19.851562 37.097656 C 18.792969 36.789062 18.359375 36.515625 18.074219 36.007812 C 17.949219 35.8125 17.902344 35.589844 17.9375 35.375 C 17.910156 35.023438 18.03125 34.675781 18.277344 34.390625 C 18.511719 34.140625 18.828125 33.953125 19.1875 33.847656 C 19.8125 33.707031 20.480469 33.746094 21.078125 33.960938 C 21.355469 34.074219 21.609375 34.226562 21.832031 34.40625 C 21.699219 34.597656 21.535156 34.773438 21.34375 34.925781 C 21.25 34.894531 21.160156 34.851562 21.082031 34.800781 C 20.761719 34.601562 20.367188 34.496094 19.96875 34.507812 C 19.773438 34.488281 19.578125 34.515625 19.398438 34.585938 C 19.042969 34.746094 18.828125 35.066406 18.84375 35.40625 C 18.824219 35.542969 18.859375 35.679688 18.941406 35.800781 C 19.089844 36.023438 19.273438 36.113281 19.972656 36.335938 C 20.308594 36.445312 20.6875 36.578125 20.820312 36.636719 C 21.84375 37.070312 22.316406 37.738281 22.175781 38.546875 C 22.132812 38.894531 21.945312 39.222656 21.648438 39.46875 C 21.214844 39.832031 20.621094 40.023438 20.011719 39.996094 C 19.78125 39.992188 19.554688 39.964844 19.332031 39.914062 Z M 19.332031 39.914062 "/>
<path style=" stroke:none;fill-rule:nonzero;fill:rgb(20.392157%,66.274512%,84.705883%);fill-opacity:1;" d="M 32 36.089844 C 31.777344 35.425781 31.316406 34.839844 30.679688 34.40625 C 29.914062 33.882812 28.929688 33.640625 27.949219 33.734375 C 26.972656 33.832031 26.078125 34.25 25.46875 34.90625 C 25.164062 35.25 24.929688 35.632812 24.773438 36.042969 C 24.660156 36.519531 24.644531 37.011719 24.730469 37.496094 C 24.953125 38.382812 25.613281 39.148438 26.546875 39.601562 C 26.90625 39.757812 27.289062 39.878906 27.6875 39.953125 C 28.148438 40 28.613281 39.996094 29.074219 39.941406 C 30.476562 39.695312 31.597656 38.808594 31.980469 37.644531 C 32.117188 37.132812 32.121094 36.601562 32 36.089844 Z M 30.902344 37.925781 C 30.523438 38.5625 29.839844 39.027344 29.023438 39.203125 C 28.582031 39.277344 28.128906 39.273438 27.691406 39.1875 C 26.917969 39.011719 26.269531 38.570312 25.898438 37.972656 C 25.683594 37.636719 25.574219 37.253906 25.589844 36.871094 C 25.5625 36.226562 25.871094 35.601562 26.433594 35.164062 C 26.929688 34.714844 27.625 34.460938 28.351562 34.472656 C 28.820312 34.457031 29.285156 34.550781 29.695312 34.746094 C 30.207031 34.976562 30.621094 35.335938 30.875 35.777344 C 31.296875 36.445312 31.308594 37.246094 30.902344 37.925781 Z M 30.902344 37.925781 "/>
<path style=" stroke:none;fill-rule:nonzero;fill:rgb(20.392157%,66.274512%,84.705883%);fill-opacity:1;" d="M 35.90625 39.914062 C 35.53125 39.824219 35.175781 39.6875 34.847656 39.511719 C 34.609375 39.378906 34.40625 39.203125 34.257812 39 C 34.320312 38.890625 34.410156 38.796875 34.519531 38.71875 L 34.785156 38.496094 L 34.949219 38.625 C 35.449219 39.109375 36.226562 39.328125 36.972656 39.191406 C 37.472656 39.109375 37.84375 38.75 37.867188 38.320312 C 37.90625 38.035156 37.773438 37.75 37.511719 37.5625 C 37.21875 37.332031 36.859375 37.167969 36.46875 37.089844 C 35.453125 36.792969 34.945312 36.496094 34.683594 36.046875 C 34.46875 35.613281 34.457031 35.125 34.652344 34.683594 C 34.796875 34.40625 35.03125 34.171875 35.324219 34.003906 C 36.0625 33.667969 36.945312 33.648438 37.703125 33.957031 C 37.972656 34.058594 38.214844 34.210938 38.410156 34.402344 C 38.289062 34.585938 38.136719 34.753906 37.953125 34.898438 C 37.855469 34.882812 37.765625 34.84375 37.6875 34.789062 C 37.160156 34.433594 36.433594 34.382812 35.839844 34.65625 C 35.578125 34.832031 35.429688 35.097656 35.441406 35.378906 C 35.4375 35.5 35.460938 35.617188 35.5 35.734375 C 35.601562 35.933594 35.882812 36.101562 36.371094 36.257812 C 36.871094 36.394531 37.351562 36.578125 37.804688 36.808594 C 38.511719 37.164062 38.894531 37.84375 38.765625 38.53125 C 38.640625 39.21875 38.03125 39.773438 37.226562 39.929688 C 36.789062 40.003906 36.339844 40 35.90625 39.914062 Z M 35.90625 39.914062 "/>
<path style=" stroke:none;fill-rule:nonzero;fill:rgb(20.392157%,66.274512%,84.705883%);fill-opacity:1;" d="M 0.265625 39.898438 C 0.25 39.882812 0.234375 38.957031 0.234375 37.835938 C 0.234375 36.128906 0.234375 35.804688 0.292969 35.804688 C 0.46875 35.933594 0.621094 36.085938 0.75 36.25 L 1.144531 36.695312 L 1.144531 39.898438 L 0.730469 39.898438 C 0.574219 39.914062 0.417969 39.914062 0.261719 39.898438 Z M 0.265625 39.898438 "/>
<path style=" stroke:none;fill-rule:nonzero;fill:rgb(20.392157%,66.274512%,84.705883%);fill-opacity:1;" d="M 6.980469 39.898438 C 6.964844 39.882812 6.949219 38.9375 6.949219 37.800781 C 6.949219 36.664062 6.933594 35.730469 6.917969 35.730469 C 6.765625 35.871094 6.628906 36.019531 6.503906 36.179688 C 6.296875 36.425781 5.730469 37.050781 5.25 37.566406 C 4.015625 38.890625 4.078125 38.828125 4 38.773438 C 3.925781 38.71875 1.585938 36.152344 0.902344 35.339844 L 0.242188 34.5625 L 0.242188 34.0625 C 0.226562 33.894531 0.238281 33.726562 0.285156 33.5625 C 0.34375 33.5625 0.460938 33.6875 2.324219 35.730469 C 3.253906 36.75 4.03125 37.585938 4.054688 37.585938 C 4.074219 37.585938 4.886719 36.714844 5.859375 35.648438 C 6.832031 34.585938 7.664062 33.679688 7.710938 33.644531 C 7.753906 33.609375 7.808594 33.578125 7.828125 33.597656 C 7.847656 33.613281 7.859375 35.039062 7.851562 36.765625 L 7.851562 39.90625 L 7.4375 39.90625 C 7.289062 39.917969 7.140625 39.910156 6.992188 39.890625 Z M 6.980469 39.898438 "/>
<path style=" stroke:none;fill-rule:nonzero;fill:rgb(20.392157%,66.274512%,84.705883%);fill-opacity:1;" d="M 10.671875 39.875 C 10.671875 39.851562 10.65625 38.472656 10.671875 36.816406 L 10.671875 33.804688 L 15.117188 33.804688 L 15.117188 34.5 L 13.351562 34.519531 L 11.589844 34.535156 L 11.589844 36.449219 L 13.15625 36.464844 L 14.722656 36.484375 L 14.722656 37.183594 L 13.15625 37.199219 L 11.589844 37.21875 L 11.589844 39.183594 L 13.417969 39.183594 C 15.179688 39.183594 15.25 39.183594 15.292969 39.257812 C 15.34375 39.449219 15.351562 39.644531 15.308594 39.839844 L 15.28125 39.921875 L 12.976562 39.921875 C 11.1875 39.921875 10.6875 39.921875 10.671875 39.875 Z M 10.671875 39.875 "/>
<path style=" stroke:none;fill-rule:nonzero;fill:rgb(0.784314%,27.058825%,38.039216%);fill-opacity:1;" d="M 19.542969 39.914062 C 19.148438 39.839844 18.769531 39.710938 18.421875 39.535156 C 18.113281 39.363281 17.753906 39.089844 17.753906 39.003906 C 17.863281 38.84375 18.019531 38.703125 18.203125 38.597656 C 18.316406 38.660156 18.425781 38.726562 18.523438 38.804688 C 19.34375 39.390625 20.359375 39.472656 20.992188 39.003906 C 21.253906 38.824219 21.386719 38.546875 21.347656 38.269531 C 21.375 38.101562 21.332031 37.929688 21.226562 37.785156 C 21.007812 37.472656 20.628906 37.265625 19.832031 37.035156 C 18.914062 36.765625 18.421875 36.472656 18.167969 36.039062 C 18.058594 35.859375 18.011719 35.660156 18.023438 35.457031 C 17.980469 35.113281 18.074219 34.769531 18.289062 34.476562 C 18.753906 33.863281 19.855469 33.628906 20.882812 33.933594 C 21.203125 34.039062 21.496094 34.195312 21.75 34.390625 C 21.773438 34.449219 21.386719 34.902344 21.332031 34.871094 L 21.070312 34.722656 C 20.4375 34.367188 19.503906 34.359375 19.121094 34.710938 C 18.839844 34.988281 18.738281 35.363281 18.859375 35.714844 C 18.976562 35.921875 19.171875 36.09375 19.417969 36.195312 C 19.496094 36.226562 19.835938 36.339844 20.175781 36.453125 C 20.484375 36.550781 20.78125 36.667969 21.074219 36.796875 C 21.457031 36.992188 21.773438 37.269531 22 37.597656 C 22.125 37.808594 22.128906 37.839844 22.128906 38.265625 C 22.15625 38.492188 22.121094 38.722656 22.027344 38.9375 C 21.84375 39.253906 21.554688 39.519531 21.199219 39.707031 C 20.6875 39.921875 20.109375 39.996094 19.542969 39.914062 Z M 19.542969 39.914062 "/>
<path style=" stroke:none;fill-rule:nonzero;fill:rgb(0.784314%,27.058825%,38.039216%);fill-opacity:1;" d="M 31.949219 36.148438 C 31.601562 34.976562 30.496094 34.074219 29.09375 33.820312 C 28.617188 33.757812 28.132812 33.757812 27.65625 33.820312 C 27.035156 33.9375 26.453125 34.183594 25.964844 34.53125 C 25.417969 34.964844 25.023438 35.515625 24.824219 36.125 C 24.714844 36.613281 24.714844 37.117188 24.824219 37.605469 C 24.972656 38.160156 25.320312 38.660156 25.808594 39.046875 C 26.34375 39.519531 27.042969 39.832031 27.804688 39.9375 C 28.3125 39.980469 28.824219 39.957031 29.324219 39.867188 C 30.617188 39.574219 31.621094 38.714844 31.949219 37.621094 C 32.070312 37.136719 32.070312 36.632812 31.949219 36.148438 Z M 30.9375 37.96875 C 30.554688 38.589844 29.882812 39.046875 29.085938 39.234375 C 28.109375 39.453125 27.070312 39.207031 26.367188 38.597656 C 26.03125 38.316406 25.78125 37.96875 25.636719 37.589844 C 25.492188 37.152344 25.476562 36.691406 25.597656 36.25 C 25.789062 35.6875 26.199219 35.191406 26.765625 34.847656 C 27.605469 34.34375 28.710938 34.277344 29.628906 34.675781 C 30.160156 34.917969 30.605469 35.28125 30.90625 35.726562 C 31.34375 36.425781 31.355469 37.261719 30.9375 37.96875 Z M 30.9375 37.96875 "/>
<path style=" stroke:none;fill-rule:nonzero;fill:rgb(0.784314%,27.058825%,38.039216%);fill-opacity:1;" d="M 36.058594 39.902344 C 35.6875 39.832031 35.332031 39.710938 35.003906 39.546875 C 34.722656 39.410156 34.480469 39.222656 34.289062 39.003906 C 34.40625 38.84375 34.554688 38.707031 34.734375 38.59375 C 34.855469 38.652344 34.964844 38.71875 35.066406 38.796875 C 35.953125 39.421875 37.027344 39.464844 37.617188 38.921875 C 37.816406 38.757812 37.921875 38.527344 37.902344 38.292969 C 37.933594 38.046875 37.839844 37.804688 37.640625 37.625 C 37.300781 37.335938 36.875 37.132812 36.40625 37.03125 C 35.890625 36.917969 35.417969 36.699219 35.023438 36.398438 C 34.726562 36.148438 34.558594 35.8125 34.558594 35.457031 C 34.488281 34.449219 35.234375 33.808594 36.488281 33.800781 C 37.097656 33.777344 37.691406 33.949219 38.164062 34.277344 L 38.339844 34.40625 L 38.222656 34.539062 C 38.160156 34.613281 38.058594 34.71875 37.996094 34.773438 L 37.886719 34.875 L 37.742188 34.78125 C 37.09375 34.359375 36.132812 34.316406 35.695312 34.683594 C 35.464844 34.875 35.34375 35.140625 35.355469 35.414062 C 35.328125 35.5625 35.375 35.71875 35.488281 35.835938 C 35.757812 36.097656 36.117188 36.28125 36.515625 36.363281 C 37.9375 36.808594 38.550781 37.265625 38.695312 38.007812 C 38.785156 38.523438 38.589844 39.046875 38.167969 39.429688 C 37.597656 39.867188 36.8125 40.042969 36.058594 39.898438 Z M 36.058594 39.902344 "/>
<path style=" stroke:none;fill-rule:nonzero;fill:rgb(0.784314%,27.058825%,38.039216%);fill-opacity:1;" d="M 0.316406 39.859375 C 0.265625 39.816406 0.277344 35.878906 0.316406 35.878906 C 0.46875 36.007812 0.605469 36.152344 0.730469 36.304688 L 1.105469 36.730469 L 1.105469 39.851562 L 0.730469 39.851562 C 0.597656 39.859375 0.464844 39.855469 0.332031 39.835938 Z M 0.316406 39.859375 "/>
<path style=" stroke:none;fill-rule:nonzero;fill:rgb(0.784314%,27.058825%,38.039216%);fill-opacity:1;" d="M 7.023438 39.859375 C 7.003906 39.84375 6.992188 38.890625 6.992188 37.734375 C 6.992188 36.484375 6.992188 35.636719 6.957031 35.628906 C 6.785156 35.773438 6.632812 35.933594 6.5 36.105469 C 6.273438 36.375 5.777344 36.925781 5.398438 37.332031 C 5.015625 37.738281 4.570312 38.222656 4.402344 38.40625 C 4.300781 38.527344 4.183594 38.640625 4.050781 38.742188 C 4 38.742188 1.847656 36.371094 0.953125 35.324219 L 0.308594 34.5625 L 0.289062 34.117188 C 0.289062 33.75 0.289062 33.671875 0.332031 33.671875 C 0.375 33.671875 0.625 33.9375 2.695312 36.214844 C 3.117188 36.707031 3.574219 37.179688 4.058594 37.628906 C 4.101562 37.625 4.929688 36.738281 5.910156 35.65625 C 6.886719 34.574219 7.726562 33.683594 7.757812 33.679688 C 7.789062 33.671875 7.8125 34.289062 7.800781 36.761719 L 7.800781 39.859375 L 7.429688 39.859375 C 7.292969 39.871094 7.15625 39.867188 7.023438 39.847656 Z M 7.023438 39.859375 "/>
<path style=" stroke:none;fill-rule:nonzero;fill:rgb(0.784314%,27.058825%,38.039216%);fill-opacity:1;" d="M 10.714844 39.835938 C 10.714844 39.8125 10.699219 38.453125 10.714844 36.8125 L 10.714844 33.835938 L 15.0625 33.835938 L 15.0625 34.460938 L 11.523438 34.460938 L 11.496094 34.546875 C 11.460938 34.652344 11.460938 36.296875 11.496094 36.398438 L 11.523438 36.484375 L 14.691406 36.484375 L 14.691406 37.109375 L 11.523438 37.109375 L 11.496094 37.191406 C 11.480469 37.234375 11.46875 37.683594 11.46875 38.183594 C 11.46875 38.957031 11.46875 39.097656 11.539062 39.148438 C 11.605469 39.199219 11.828125 39.203125 13.410156 39.203125 L 15.214844 39.203125 L 15.214844 39.828125 L 12.980469 39.828125 C 11.226562 39.828125 10.730469 39.828125 10.714844 39.785156 Z M 10.714844 39.835938 "/>
<path style=" stroke:none;fill-rule:nonzero;fill:rgb(0.784314%,27.058825%,38.039216%);fill-opacity:1;" d="M 0 31.765625 L 0.945312 29.683594 L 1.296875 29.683594 L 2.308594 31.765625 L 1.9375 31.765625 L 1.648438 31.136719 L 0.617188 31.136719 L 0.355469 31.765625 Z M 0.710938 30.910156 L 1.550781 30.910156 L 1.285156 30.335938 C 1.203125 30.160156 1.148438 30.015625 1.109375 29.902344 C 1.078125 30.039062 1.035156 30.171875 0.976562 30.300781 Z M 0.710938 30.910156 "/>
<path style=" stroke:none;fill-rule:nonzero;fill:rgb(0.784314%,27.058825%,38.039216%);fill-opacity:1;" d="M 2.527344 32.332031 L 2.527344 30.25 L 2.792969 30.25 L 2.792969 30.445312 C 2.851562 30.375 2.925781 30.316406 3.011719 30.273438 C 3.105469 30.234375 3.207031 30.214844 3.308594 30.21875 C 3.453125 30.214844 3.59375 30.25 3.714844 30.316406 C 3.832031 30.386719 3.925781 30.484375 3.976562 30.597656 C 4.039062 30.722656 4.070312 30.859375 4.066406 30.996094 C 4.070312 31.136719 4.035156 31.28125 3.96875 31.410156 C 3.914062 31.53125 3.820312 31.632812 3.695312 31.703125 C 3.578125 31.765625 3.441406 31.800781 3.300781 31.800781 C 3.210938 31.800781 3.117188 31.785156 3.035156 31.75 C 2.960938 31.714844 2.894531 31.667969 2.839844 31.613281 L 2.839844 32.335938 Z M 2.792969 31.011719 C 2.777344 31.164062 2.828125 31.316406 2.933594 31.441406 C 3.015625 31.53125 3.140625 31.582031 3.273438 31.582031 C 3.40625 31.578125 3.535156 31.527344 3.617188 31.433594 C 3.726562 31.304688 3.773438 31.148438 3.761719 30.988281 C 3.773438 30.835938 3.722656 30.683594 3.621094 30.558594 C 3.539062 30.46875 3.417969 30.414062 3.285156 30.414062 C 3.148438 30.417969 3.019531 30.472656 2.9375 30.566406 C 2.832031 30.699219 2.78125 30.859375 2.800781 31.019531 Z M 2.792969 31.011719 "/>
<path style=" stroke:none;fill-rule:nonzero;fill:rgb(0.784314%,27.058825%,38.039216%);fill-opacity:1;" d="M 5.613281 31.578125 C 5.515625 31.648438 5.40625 31.707031 5.289062 31.746094 C 5.179688 31.78125 5.070312 31.796875 4.953125 31.796875 C 4.792969 31.804688 4.628906 31.761719 4.503906 31.675781 C 4.398438 31.597656 4.339844 31.484375 4.34375 31.367188 C 4.34375 31.296875 4.363281 31.226562 4.40625 31.164062 C 4.441406 31.105469 4.496094 31.054688 4.5625 31.015625 C 4.628906 30.980469 4.699219 30.949219 4.777344 30.933594 C 4.867188 30.914062 4.953125 30.902344 5.042969 30.894531 C 5.222656 30.878906 5.398438 30.851562 5.570312 30.808594 C 5.570312 30.773438 5.570312 30.75 5.570312 30.742188 C 5.582031 30.660156 5.550781 30.578125 5.488281 30.519531 C 5.386719 30.453125 5.265625 30.421875 5.140625 30.429688 C 5.03125 30.421875 4.921875 30.445312 4.828125 30.492188 C 4.746094 30.550781 4.695312 30.628906 4.675781 30.714844 L 4.378906 30.683594 C 4.398438 30.589844 4.445312 30.5 4.511719 30.425781 C 4.582031 30.355469 4.671875 30.300781 4.777344 30.273438 C 4.90625 30.234375 5.042969 30.21875 5.179688 30.21875 C 5.308594 30.214844 5.433594 30.230469 5.554688 30.265625 C 5.632812 30.285156 5.707031 30.324219 5.765625 30.378906 C 5.8125 30.429688 5.84375 30.488281 5.859375 30.550781 C 5.871094 30.628906 5.878906 30.707031 5.875 30.789062 L 5.875 31.128906 C 5.871094 31.277344 5.875 31.425781 5.894531 31.574219 C 5.90625 31.636719 5.933594 31.699219 5.96875 31.753906 L 5.652344 31.753906 C 5.628906 31.699219 5.613281 31.636719 5.613281 31.578125 Z M 5.585938 31.007812 C 5.425781 31.054688 5.261719 31.085938 5.09375 31.101562 C 5.003906 31.109375 4.914062 31.128906 4.828125 31.152344 C 4.742188 31.183594 4.683594 31.25 4.667969 31.324219 C 4.65625 31.402344 4.6875 31.476562 4.757812 31.527344 C 4.832031 31.578125 4.925781 31.601562 5.019531 31.597656 C 5.128906 31.601562 5.238281 31.578125 5.332031 31.535156 C 5.421875 31.496094 5.492188 31.433594 5.535156 31.359375 C 5.570312 31.277344 5.589844 31.1875 5.582031 31.101562 Z M 5.585938 31.007812 "/>
<path style=" stroke:none;fill-rule:nonzero;fill:rgb(0.784314%,27.058825%,38.039216%);fill-opacity:1;" d="M 7.527344 31.21875 L 7.824219 31.253906 C 7.800781 31.410156 7.714844 31.554688 7.574219 31.660156 C 7.4375 31.757812 7.261719 31.808594 7.082031 31.804688 C 6.859375 31.8125 6.644531 31.738281 6.492188 31.601562 C 6.332031 31.441406 6.253906 31.234375 6.269531 31.023438 C 6.265625 30.875 6.296875 30.730469 6.363281 30.59375 C 6.421875 30.480469 6.523438 30.382812 6.65625 30.320312 C 6.785156 30.261719 6.933594 30.230469 7.082031 30.230469 C 7.25 30.222656 7.417969 30.269531 7.554688 30.355469 C 7.683594 30.445312 7.769531 30.570312 7.792969 30.707031 L 7.5 30.746094 C 7.480469 30.660156 7.429688 30.582031 7.351562 30.523438 C 7.28125 30.46875 7.183594 30.441406 7.089844 30.445312 C 6.945312 30.441406 6.808594 30.492188 6.714844 30.585938 C 6.527344 30.859375 6.527344 31.199219 6.710938 31.476562 C 6.796875 31.566406 6.929688 31.617188 7.070312 31.613281 C 7.179688 31.617188 7.285156 31.585938 7.367188 31.523438 C 7.460938 31.441406 7.519531 31.335938 7.523438 31.21875 Z M 7.527344 31.21875 "/>
<path style=" stroke:none;fill-rule:nonzero;fill:rgb(0.784314%,27.058825%,38.039216%);fill-opacity:1;" d="M 8.082031 31.765625 L 8.082031 29.683594 L 8.386719 29.683594 L 8.386719 30.433594 C 8.515625 30.300781 8.710938 30.222656 8.917969 30.222656 C 9.035156 30.222656 9.15625 30.246094 9.261719 30.289062 C 9.355469 30.332031 9.425781 30.394531 9.46875 30.472656 C 9.519531 30.582031 9.539062 30.695312 9.535156 30.8125 L 9.535156 31.765625 L 9.25 31.765625 L 9.25 30.8125 C 9.257812 30.710938 9.222656 30.613281 9.152344 30.535156 C 9.078125 30.472656 8.976562 30.441406 8.875 30.445312 C 8.78125 30.445312 8.6875 30.464844 8.609375 30.503906 C 8.53125 30.539062 8.472656 30.597656 8.441406 30.664062 C 8.402344 30.753906 8.386719 30.847656 8.390625 30.945312 L 8.390625 31.769531 Z M 8.082031 31.765625 "/>
<path style=" stroke:none;fill-rule:nonzero;fill:rgb(0.784314%,27.058825%,38.039216%);fill-opacity:1;" d="M 11.222656 31.277344 L 11.535156 31.3125 C 11.496094 31.453125 11.40625 31.582031 11.269531 31.671875 C 10.917969 31.867188 10.449219 31.835938 10.136719 31.597656 C 9.972656 31.4375 9.890625 31.234375 9.90625 31.023438 C 9.890625 30.808594 9.972656 30.597656 10.136719 30.433594 C 10.292969 30.296875 10.511719 30.21875 10.742188 30.226562 C 10.960938 30.21875 11.175781 30.292969 11.328125 30.429688 C 11.488281 30.59375 11.570312 30.800781 11.554688 31.011719 C 11.554688 31.027344 11.554688 31.046875 11.554688 31.078125 L 10.234375 31.078125 C 10.234375 31.21875 10.292969 31.355469 10.402344 31.460938 C 10.496094 31.546875 10.632812 31.59375 10.773438 31.59375 C 10.875 31.59375 10.976562 31.570312 11.058594 31.519531 C 11.140625 31.453125 11.199219 31.371094 11.222656 31.277344 Z M 10.230469 30.867188 L 11.230469 30.867188 C 11.226562 30.765625 11.1875 30.664062 11.117188 30.582031 C 11.023438 30.484375 10.886719 30.429688 10.742188 30.433594 C 10.609375 30.429688 10.480469 30.472656 10.386719 30.550781 C 10.289062 30.636719 10.234375 30.75 10.230469 30.867188 Z M 10.230469 30.867188 "/>
<path style=" stroke:none;fill-rule:nonzero;fill:rgb(0.784314%,27.058825%,38.039216%);fill-opacity:1;" d="M 38.816406 32.78125 L 38.816406 32.234375 L 38.582031 32.234375 L 38.582031 32.160156 L 39.160156 32.160156 L 39.160156 32.234375 L 38.921875 32.234375 L 38.921875 32.78125 Z M 38.816406 32.78125 "/>
<path style=" stroke:none;fill-rule:nonzero;fill:rgb(0.784314%,27.058825%,38.039216%);fill-opacity:1;" d="M 39.25 32.78125 L 39.25 32.164062 L 39.394531 32.164062 L 39.566406 32.609375 L 39.601562 32.703125 L 39.640625 32.601562 L 39.816406 32.175781 L 39.945312 32.175781 L 39.945312 32.78125 L 39.851562 32.78125 L 39.851562 32.265625 L 39.640625 32.78125 L 39.554688 32.78125 L 39.339844 32.253906 L 39.339844 32.78125 Z M 39.25 32.78125 "/>
</g>
</svg>
