<svg xmlns="http://www.w3.org/2000/svg" width="60" height="14" fill="none"><g clip-path="url(#a)"><path fill="#DF4F4F" d="m35.574 0 12.557 12.952a.59.59 0 0 0 .758-.054.518.518 0 0 0 .086-.683zM39.563 1.23l9.55 10.028a.59.59 0 0 0 .759-.054.518.518 0 0 0 .085-.683zM36.754 3.853l9.578 10.028a.59.59 0 0 0 .759-.054.518.518 0 0 0 .085-.683zM42.934 2.268l6.685 6.995a.46.46 0 0 0 .534-.027.41.41 0 0 0 .056-.492zM37.682 6.886l6.685 6.995a.46.46 0 0 0 .534-.027.41.41 0 0 0 .056-.492zM46.361 3.798l3.034 3.197a.22.22 0 0 0 .253-.027.165.165 0 0 0 .028-.22zM39.367 10.11l3.034 3.197a.22.22 0 0 0 .253-.027.163.163 0 0 0 .028-.219z"/><path fill="#7F7F81" d="M52.275 5.242v8.608h1.995v-2.787h1.516l1.939 2.787H60l-2.135-2.979a3.07 3.07 0 0 0 1.352-1.08c.334-.48.518-1.044.53-1.624a2.6 2.6 0 0 0-.138-1.056 2.7 2.7 0 0 0-.546-.923 2.8 2.8 0 0 0-.87-.647 2.8 2.8 0 0 0-1.059-.27h-4.859zM54.27 6.91v2.487h2.556s.983 0 .983-1.257a1.09 1.09 0 0 0-.292-.893 1.18 1.18 0 0 0-.888-.364zm0 0v2.487h2.556s.983 0 .983-1.257a1.09 1.09 0 0 0-.292-.893 1.18 1.18 0 0 0-.888-.364zM30.113 5.242v8.608h6.714v-1.667h-4.72v-1.804h4.073V8.713h-4.072V6.909h4.719V5.242zM20.422 5.242V6.91h2.64v6.94h1.995V6.91h2.64V5.242zM11.293 5.242v8.608h6.713v-1.667h-4.719v-1.804h4.073V8.713h-4.073V6.909h4.72V5.242zM0 5.242v8.608h1.994V8.44l2.444 3.47 2.444-3.47v5.382h1.994V5.215H6.882L4.438 8.767 1.994 5.215z"/><path fill="#fff" d="M56.685 9.4h-2.388V6.913h2.388c.303.006.592.126.807.335s.338.49.344.786v.245a1.1 1.1 0 0 1-.338.791c-.216.21-.508.329-.813.33"/></g><defs><clipPath id="a"><path fill="#fff" d="M0 0h60v14H0z"/></clipPath></defs></svg>