<?xml version="1.0" encoding="UTF-8"?>
<svg xmlns="http://www.w3.org/2000/svg" xmlns:xlink="http://www.w3.org/1999/xlink" width="36px" height="36px" viewBox="0 0 36 36" version="1.1">
<g id="surface1">
<path style=" stroke:none;fill-rule:nonzero;fill:rgb(30.19608%,78.431374%,92.941177%);fill-opacity:1;" d="M 18.1875 33.085938 L 18.1875 35.832031 C 18.1875 35.960938 18.148438 36 18.007812 36 C 17.699219 36 17.699219 36 17.699219 35.714844 L 17.699219 32.613281 C 17.699219 32.484375 17.734375 32.445312 17.878906 32.445312 C 18.378906 32.445312 18.378906 32.445312 18.621094 32.878906 L 19.960938 35.234375 C 19.980469 35.269531 19.988281 35.320312 20.0625 35.347656 L 20.0625 32.625 C 20.0625 32.46875 20.101562 32.402344 20.273438 32.429688 C 20.5 32.402344 20.554688 32.457031 20.554688 32.628906 C 20.546875 33.523438 20.554688 34.417969 20.554688 35.3125 L 20.554688 35.863281 C 20.554688 35.949219 20.527344 35.980469 20.433594 35.984375 C 19.890625 36.011719 19.890625 36.011719 19.636719 35.558594 C 19.183594 34.753906 18.730469 33.949219 18.277344 33.144531 C 18.261719 33.117188 18.246094 33.09375 18.234375 33.070312 Z M 18.1875 33.085938 "/>
<path style=" stroke:none;fill-rule:nonzero;fill:rgb(30.19608%,78.431374%,92.941177%);fill-opacity:1;" d="M 29.210938 35.550781 C 29.488281 34.84375 29.75 34.167969 30.023438 33.492188 C 30.050781 33.433594 30.050781 33.339844 30.136719 33.332031 C 30.265625 33.316406 30.398438 33.316406 30.53125 33.332031 C 30.589844 33.34375 30.53125 33.421875 30.519531 33.464844 C 30.339844 33.925781 30.160156 34.382812 29.980469 34.839844 C 29.84375 35.179688 29.703125 35.519531 29.574219 35.855469 C 28.894531 35.992188 28.894531 35.992188 28.71875 35.546875 C 28.449219 34.867188 28.179688 34.1875 27.902344 33.5 C 27.828125 33.3125 27.828125 33.3125 28.035156 33.3125 C 28.328125 33.3125 28.324219 33.3125 28.421875 33.574219 C 28.664062 34.175781 28.902344 34.78125 29.144531 35.382812 C 29.152344 35.441406 29.175781 35.496094 29.210938 35.550781 Z M 29.210938 35.550781 "/>
<path style=" stroke:none;fill-rule:nonzero;fill:rgb(30.19608%,78.431374%,92.941177%);fill-opacity:1;" d="M 14.476562 34.539062 L 14.476562 35.257812 C 14.476562 35.523438 14.585938 35.609375 14.867188 35.617188 L 15.175781 35.617188 C 15.410156 35.617188 15.488281 35.722656 15.421875 35.929688 C 15.402344 35.980469 15.367188 35.988281 15.324219 35.984375 C 15.113281 35.996094 14.902344 35.992188 14.691406 35.972656 C 14.191406 35.910156 14.011719 35.695312 14.003906 35.191406 C 14 34.738281 14 34.285156 14.003906 33.824219 C 14.003906 33.699219 13.96875 33.640625 13.824219 33.664062 C 13.679688 33.6875 13.65625 33.613281 13.660156 33.492188 C 13.660156 33.375 13.660156 33.296875 13.820312 33.324219 C 13.980469 33.351562 14 33.28125 14 33.15625 L 14 32.710938 C 14 32.609375 14.023438 32.570312 14.140625 32.570312 C 14.550781 32.582031 14.460938 32.53125 14.472656 32.875 C 14.480469 32.96875 14.480469 33.066406 14.472656 33.164062 C 14.457031 33.304688 14.523438 33.332031 14.652344 33.332031 C 14.863281 33.324219 15.078125 33.332031 15.289062 33.332031 C 15.453125 33.332031 15.410156 33.433594 15.417969 33.515625 C 15.421875 33.597656 15.417969 33.6875 15.28125 33.6875 C 15.0625 33.675781 14.835938 33.6875 14.613281 33.6875 C 14.5 33.6875 14.464844 33.71875 14.46875 33.824219 L 14.46875 34.558594 Z M 14.476562 34.539062 "/>
<path style=" stroke:none;fill-rule:nonzero;fill:rgb(30.19608%,78.431374%,92.941177%);fill-opacity:1;" d="M 25.160156 34.554688 C 25.148438 34.824219 25.160156 35.089844 25.1875 35.359375 C 25.230469 35.558594 25.304688 35.613281 25.519531 35.625 L 25.992188 35.625 C 26.152344 35.625 26.121094 35.710938 26.105469 35.792969 C 26.089844 35.875 26.175781 36 26.007812 36.003906 C 25.75 36.019531 25.488281 36.007812 25.230469 35.964844 C 24.941406 35.921875 24.722656 35.683594 24.71875 35.402344 C 24.667969 34.957031 24.703125 34.503906 24.691406 34.046875 C 24.6875 33.972656 24.6875 33.898438 24.691406 33.824219 C 24.707031 33.703125 24.648438 33.65625 24.523438 33.675781 C 24.363281 33.703125 24.355469 33.613281 24.34375 33.496094 C 24.332031 33.378906 24.375 33.3125 24.523438 33.324219 C 24.675781 33.339844 24.703125 33.28125 24.691406 33.15625 C 24.675781 33.03125 24.691406 32.871094 24.691406 32.730469 C 24.691406 32.617188 24.71875 32.558594 24.851562 32.558594 C 25.230469 32.570312 25.152344 32.527344 25.164062 32.847656 C 25.164062 32.996094 25.097656 33.1875 25.191406 33.277344 C 25.285156 33.371094 25.5 33.304688 25.660156 33.3125 C 25.746094 33.324219 25.832031 33.324219 25.914062 33.3125 C 26.082031 33.292969 26.121094 33.359375 26.117188 33.503906 C 26.117188 33.625 26.074219 33.664062 25.949219 33.660156 L 25.292969 33.660156 C 25.191406 33.660156 25.15625 33.695312 25.160156 33.789062 C 25.171875 34.03125 25.160156 34.261719 25.160156 34.554688 Z M 25.160156 34.554688 "/>
<path style=" stroke:none;fill-rule:nonzero;fill:rgb(30.19608%,78.431374%,92.941177%);fill-opacity:1;" d="M 13.203125 33.820312 C 13.007812 33.75 12.804688 33.691406 12.601562 33.652344 C 12.324219 33.59375 12.035156 33.65625 11.8125 33.820312 C 11.59375 33.988281 11.464844 34.242188 11.464844 34.507812 C 11.445312 34.6875 11.460938 34.871094 11.511719 35.050781 C 11.574219 35.277344 11.734375 35.476562 11.953125 35.589844 C 12.171875 35.707031 12.433594 35.734375 12.671875 35.667969 C 12.820312 35.636719 12.964844 35.59375 13.101562 35.535156 C 13.167969 35.507812 13.195312 35.507812 13.207031 35.585938 C 13.242188 35.847656 13.207031 35.925781 12.929688 35.984375 C 12.417969 36.15625 11.847656 36.0625 11.425781 35.742188 C 11.25 35.59375 11.121094 35.402344 11.054688 35.183594 C 10.953125 34.855469 10.949219 34.5 11.046875 34.167969 C 11.203125 33.585938 11.792969 33.199219 12.425781 33.265625 C 12.625 33.269531 12.824219 33.300781 13.015625 33.351562 C 13.167969 33.390625 13.238281 33.464844 13.210938 33.617188 C 13.203125 33.683594 13.199219 33.753906 13.203125 33.820312 Z M 13.203125 33.820312 "/>
<path style=" stroke:none;fill-rule:nonzero;fill:rgb(30.588236%,78.431374%,93.333334%);fill-opacity:1;" d="M 27.195312 34.671875 L 27.195312 35.835938 C 27.195312 35.953125 27.167969 36.007812 27.035156 35.992188 C 26.664062 35.980469 26.726562 36.03125 26.726562 35.707031 L 26.726562 33.519531 C 26.726562 33.453125 26.683594 33.347656 26.796875 33.332031 C 26.917969 33.304688 27.046875 33.3125 27.167969 33.347656 C 27.214844 33.367188 27.191406 33.429688 27.191406 33.476562 C 27.195312 33.878906 27.195312 34.273438 27.195312 34.671875 Z M 27.195312 34.671875 "/>
<path style=" stroke:none;fill-rule:nonzero;fill:rgb(31.37255%,78.431374%,93.333334%);fill-opacity:1;" d="M 26.726562 32.5625 C 26.726562 32.523438 26.726562 32.480469 26.726562 32.441406 C 26.710938 32.332031 26.75 32.289062 26.875 32.292969 C 27.265625 32.304688 27.183594 32.25 27.195312 32.585938 L 27.195312 32.707031 C 27.203125 32.808594 27.171875 32.863281 27.054688 32.847656 L 27.039062 32.847656 C 26.667969 32.839844 26.734375 32.886719 26.726562 32.5625 Z M 26.726562 32.5625 "/>
<path style=" stroke:none;fill-rule:nonzero;fill:rgb(30.19608%,78.431374%,92.941177%);fill-opacity:1;" d="M 35.707031 14.5 C 35.523438 13.707031 35.070312 12.992188 34.417969 12.464844 C 33.351562 11.554688 32.121094 10.835938 30.78125 10.34375 C 29.933594 10.007812 29.066406 9.726562 28.179688 9.496094 C 28.058594 9.464844 28.027344 9.421875 28.0625 9.3125 C 28.101562 9.203125 28.128906 9.070312 28.160156 8.945312 C 28.484375 7.675781 28.660156 6.371094 28.683594 5.0625 C 28.6875 4.550781 28.648438 4.042969 28.574219 3.539062 C 28.484375 2.796875 28.246094 2.078125 27.871094 1.421875 C 27.515625 0.773438 26.890625 0.292969 26.144531 0.101562 C 25.539062 -0.0351562 24.914062 -0.0351562 24.308594 0.101562 C 23.179688 0.359375 22.105469 0.804688 21.140625 1.421875 C 20.011719 2.109375 18.96875 2.910156 18.019531 3.808594 C 17.921875 3.902344 17.863281 3.910156 17.761719 3.808594 C 17.464844 3.515625 17.144531 3.25 16.816406 2.984375 C 15.667969 2.015625 14.367188 1.214844 12.964844 0.605469 C 12.078125 0.203125 11.101562 0.0117188 10.117188 0.046875 C 9.425781 0.0742188 8.773438 0.355469 8.296875 0.828125 C 7.867188 1.28125 7.5625 1.824219 7.398438 2.40625 C 7.054688 3.640625 6.960938 4.921875 7.121094 6.183594 C 7.21875 7.234375 7.417969 8.273438 7.710938 9.289062 C 7.75 9.425781 7.6875 9.457031 7.574219 9.480469 C 6.023438 9.859375 4.53125 10.429688 3.140625 11.179688 C 2.207031 11.660156 1.382812 12.3125 0.71875 13.097656 C -0.195312 14.097656 -0.242188 15.566406 0.609375 16.617188 C 1.140625 17.324219 1.808594 17.933594 2.582031 18.410156 C 4.089844 19.347656 5.75 20.046875 7.496094 20.480469 C 7.722656 20.542969 7.726562 20.539062 7.675781 20.75 C 7.3125 22.03125 7.101562 23.347656 7.046875 24.671875 C 7.027344 25.242188 7.058594 25.8125 7.144531 26.375 C 7.230469 27.089844 7.457031 27.785156 7.816406 28.417969 C 8.152344 29.042969 8.730469 29.515625 9.433594 29.742188 C 10.054688 29.914062 10.714844 29.941406 11.347656 29.8125 C 12.453125 29.597656 13.507812 29.195312 14.460938 28.628906 C 15.6875 27.925781 16.820312 27.085938 17.835938 26.128906 C 17.921875 26.054688 17.96875 26.03125 18.0625 26.128906 C 18.449219 26.507812 18.867188 26.855469 19.292969 27.191406 C 20.226562 27.960938 21.261719 28.617188 22.367188 29.148438 C 23.316406 29.640625 24.378906 29.898438 25.460938 29.898438 C 26.191406 29.890625 26.886719 29.609375 27.394531 29.113281 C 27.902344 28.589844 28.261719 27.953125 28.4375 27.261719 C 28.742188 26.109375 28.839844 24.917969 28.71875 23.738281 C 28.695312 23.398438 28.644531 23.070312 28.597656 22.738281 C 28.496094 22.007812 28.34375 21.289062 28.140625 20.582031 C 28.113281 20.484375 28.140625 20.453125 28.238281 20.429688 C 28.457031 20.371094 28.679688 20.308594 28.898438 20.242188 C 30.503906 19.789062 32.027344 19.101562 33.414062 18.207031 C 34.148438 17.738281 34.777344 17.132812 35.261719 16.429688 C 35.664062 15.863281 35.820312 15.171875 35.707031 14.5 Z M 18.597656 4.417969 C 19.902344 3.152344 21.429688 2.109375 23.117188 1.339844 C 23.816406 1.015625 24.585938 0.839844 25.371094 0.832031 C 26.070312 0.820312 26.71875 1.175781 27.058594 1.753906 C 27.394531 2.300781 27.605469 2.902344 27.691406 3.53125 C 27.765625 3.953125 27.804688 4.378906 27.808594 4.808594 C 27.796875 6.257812 27.597656 7.703125 27.21875 9.109375 C 27.191406 9.210938 27.144531 9.246094 27.039062 9.21875 C 26.152344 9.011719 25.257812 8.855469 24.359375 8.726562 C 23.730469 8.632812 23.097656 8.554688 22.476562 8.5 L 22.023438 8.460938 C 21.925781 8.457031 21.839844 8.40625 21.785156 8.328125 C 21.113281 7.414062 20.390625 6.535156 19.625 5.691406 C 19.292969 5.324219 18.945312 4.964844 18.597656 4.605469 C 18.535156 4.535156 18.519531 4.496094 18.597656 4.417969 Z M 10.390625 15.9375 C 10.828125 16.75 11.273438 17.535156 11.75 18.308594 C 12.222656 19.082031 12.726562 19.832031 13.261719 20.605469 C 12.722656 20.578125 12.21875 20.511719 11.710938 20.449219 C 10.777344 20.328125 9.847656 20.1875 8.933594 19.980469 C 8.84375 19.960938 8.792969 19.957031 8.828125 19.84375 C 9.25 18.542969 9.753906 17.265625 10.339844 16.023438 C 10.351562 15.992188 10.371094 15.964844 10.386719 15.9375 Z M 9.71875 12.484375 C 9.40625 11.726562 9.121094 10.957031 8.867188 10.175781 C 8.824219 10.042969 8.867188 10.007812 8.988281 9.980469 C 10.117188 9.746094 11.25 9.546875 12.394531 9.421875 C 12.664062 9.390625 12.933594 9.355469 13.246094 9.316406 C 12.195312 10.816406 11.238281 12.375 10.386719 13.984375 C 10.140625 13.476562 9.925781 12.980469 9.71875 12.484375 Z M 11.710938 16.546875 C 11.453125 16.085938 11.210938 15.609375 10.949219 15.148438 C 10.878906 15.035156 10.878906 14.894531 10.949219 14.78125 C 11.726562 13.273438 12.59375 11.808594 13.550781 10.394531 C 13.792969 10.039062 14.046875 9.691406 14.289062 9.335938 C 14.335938 9.261719 14.417969 9.21875 14.511719 9.222656 C 15.410156 9.15625 16.324219 9.136719 17.230469 9.109375 C 18.042969 9.082031 18.847656 9.125 19.660156 9.132812 C 20.199219 9.132812 20.738281 9.195312 21.277344 9.222656 C 21.363281 9.226562 21.4375 9.273438 21.476562 9.347656 C 22.136719 10.253906 22.75 11.1875 23.332031 12.144531 C 23.867188 13.015625 24.371094 13.90625 24.847656 14.8125 C 24.894531 14.890625 24.894531 14.984375 24.847656 15.0625 C 23.863281 16.964844 22.742188 18.800781 21.496094 20.558594 C 21.441406 20.644531 21.339844 20.695312 21.234375 20.695312 C 20.09375 20.773438 18.949219 20.808594 17.734375 20.796875 C 16.996094 20.8125 16.183594 20.785156 15.375 20.753906 C 15.078125 20.742188 14.785156 20.714844 14.488281 20.699219 C 14.410156 20.699219 14.34375 20.65625 14.308594 20.59375 C 13.359375 19.292969 12.492188 17.9375 11.710938 16.539062 Z M 25.378906 15.890625 C 25.652344 16.453125 25.898438 16.992188 26.128906 17.53125 C 26.441406 18.257812 26.71875 18.992188 26.972656 19.734375 C 27.011719 19.851562 26.996094 19.90625 26.855469 19.929688 C 25.902344 20.132812 24.945312 20.308594 23.980469 20.425781 L 22.6875 20.582031 C 22.632812 20.585938 22.574219 20.585938 22.519531 20.582031 C 23.5625 19.066406 24.519531 17.496094 25.382812 15.882812 Z M 25.378906 13.984375 C 24.511719 12.386719 23.554688 10.835938 22.507812 9.332031 C 23.480469 9.4375 24.410156 9.5625 25.335938 9.722656 C 25.8125 9.804688 26.292969 9.90625 26.773438 10.003906 C 26.917969 10.035156 26.953125 10.070312 26.90625 10.203125 C 26.589844 11.148438 26.234375 12.082031 25.828125 12.996094 C 25.6875 13.308594 25.535156 13.621094 25.375 13.976562 Z M 17.734375 5.238281 C 17.863281 5.105469 17.929688 5.121094 18.050781 5.238281 C 18.976562 6.191406 19.839844 7.191406 20.640625 8.234375 C 20.664062 8.265625 20.683594 8.300781 20.726562 8.363281 C 18.824219 8.25 16.917969 8.25 15.015625 8.363281 C 15.238281 8.085938 15.429688 7.839844 15.632812 7.589844 C 16.292969 6.777344 17 6 17.734375 5.238281 Z M 7.925781 4.933594 C 7.871094 3.914062 8.074219 2.894531 8.515625 1.960938 C 8.84375 1.253906 9.601562 0.816406 10.417969 0.859375 C 11.25 0.890625 12.0625 1.085938 12.804688 1.441406 C 13.941406 1.949219 15 2.601562 15.957031 3.375 C 16.378906 3.714844 16.785156 4.054688 17.183594 4.417969 C 17.265625 4.496094 17.257812 4.53125 17.183594 4.605469 C 16.023438 5.769531 14.953125 7.007812 13.980469 8.3125 C 13.917969 8.40625 13.8125 8.460938 13.699219 8.464844 C 13.023438 8.507812 12.355469 8.589844 11.683594 8.683594 C 10.855469 8.796875 10.027344 8.929688 9.207031 9.101562 C 9.042969 9.132812 8.875 9.164062 8.714844 9.203125 C 8.617188 9.230469 8.574219 9.214844 8.546875 9.117188 C 8.328125 8.304688 8.15625 7.484375 8.039062 6.65625 C 7.960938 6.085938 7.921875 5.511719 7.929688 4.933594 Z M 7.789062 19.710938 C 6.914062 19.476562 6.050781 19.1875 5.214844 18.847656 C 4.1875 18.4375 3.230469 17.890625 2.367188 17.222656 C 1.769531 16.789062 1.300781 16.222656 1 15.570312 C 0.917969 15.367188 0.875 15.15625 0.863281 14.9375 C 0.894531 14.398438 1.117188 13.886719 1.5 13.484375 C 2.109375 12.808594 2.847656 12.25 3.675781 11.828125 C 4.976562 11.148438 6.367188 10.625 7.808594 10.269531 C 7.941406 10.234375 7.992188 10.257812 8.03125 10.382812 C 8.523438 11.898438 9.125 13.386719 9.835938 14.824219 C 9.882812 14.917969 9.878906 15.023438 9.824219 15.113281 C 9.171875 16.433594 8.609375 17.789062 8.136719 19.175781 C 8.089844 19.316406 8.039062 19.457031 8 19.601562 C 7.972656 19.726562 7.914062 19.746094 7.792969 19.710938 Z M 17.222656 25.550781 C 15.988281 26.730469 14.554688 27.707031 12.976562 28.441406 C 12.203125 28.8125 11.355469 29.027344 10.492188 29.070312 C 9.5 29.042969 8.828125 28.71875 8.332031 27.5625 C 8.089844 26.949219 7.953125 26.300781 7.921875 25.644531 C 7.863281 24.078125 8.050781 22.515625 8.476562 21 C 8.488281 20.957031 8.507812 20.914062 8.515625 20.867188 C 8.535156 20.769531 8.585938 20.738281 8.695312 20.761719 C 9.398438 20.933594 10.113281 21.050781 10.828125 21.152344 C 11.445312 21.242188 12.058594 21.324219 12.679688 21.371094 C 13.050781 21.402344 13.421875 21.441406 13.796875 21.472656 C 13.875 21.480469 13.941406 21.527344 13.976562 21.589844 C 14.539062 22.335938 15.125 23.058594 15.738281 23.761719 C 16.207031 24.300781 16.699219 24.820312 17.203125 25.328125 C 17.292969 25.40625 17.316406 25.460938 17.21875 25.546875 Z M 18.046875 24.742188 C 17.964844 24.828125 17.914062 24.84375 17.824219 24.742188 C 16.855469 23.761719 15.949219 22.730469 15.105469 21.652344 C 15.085938 21.632812 15.074219 21.609375 15.039062 21.558594 C 16.9375 21.648438 18.839844 21.644531 20.738281 21.550781 C 20.621094 21.742188 20.484375 21.929688 20.332031 22.101562 C 19.625 23.023438 18.863281 23.90625 18.046875 24.742188 Z M 27.375 27.621094 C 27.179688 28.191406 26.742188 28.664062 26.167969 28.925781 C 25.671875 29.101562 25.132812 29.136719 24.617188 29.023438 C 23.484375 28.789062 22.414062 28.347656 21.46875 27.71875 C 20.457031 27.082031 19.515625 26.351562 18.65625 25.542969 C 18.582031 25.472656 18.554688 25.429688 18.644531 25.339844 C 19.597656 24.371094 20.484375 23.34375 21.296875 22.265625 C 21.457031 22.054688 21.628906 21.84375 21.773438 21.621094 C 21.84375 21.515625 21.96875 21.449219 22.101562 21.453125 C 22.785156 21.410156 23.46875 21.328125 24.148438 21.238281 C 25.140625 21.105469 26.128906 20.9375 27.101562 20.714844 C 27.242188 20.683594 27.28125 20.714844 27.3125 20.839844 C 27.5625 21.753906 27.734375 22.6875 27.820312 23.628906 C 27.851562 24.011719 27.890625 24.398438 27.886719 24.785156 C 27.910156 25.753906 27.734375 26.71875 27.375 27.625 Z M 34.28125 16.324219 C 33.597656 17.09375 32.761719 17.726562 31.820312 18.1875 C 30.621094 18.804688 29.347656 19.292969 28.03125 19.640625 C 27.898438 19.679688 27.851562 19.640625 27.816406 19.53125 C 27.308594 18.003906 26.679688 16.515625 25.9375 15.074219 C 25.890625 14.988281 25.890625 14.886719 25.9375 14.800781 C 26.597656 13.476562 27.167969 12.113281 27.640625 10.71875 C 27.683594 10.601562 27.722656 10.480469 27.757812 10.359375 C 27.78125 10.28125 27.808594 10.257812 27.910156 10.28125 C 29.695312 10.707031 31.390625 11.417969 32.925781 12.378906 C 33.632812 12.804688 34.21875 13.386719 34.636719 14.070312 C 34.785156 14.328125 34.871094 14.613281 34.886719 14.90625 C 34.855469 15.429688 34.644531 15.929688 34.28125 16.324219 Z M 34.28125 16.324219 "/>
<path style=" stroke:none;fill-rule:nonzero;fill:rgb(30.19608%,78.431374%,92.941177%);fill-opacity:1;" d="M 4.363281 35.867188 C 4.195312 35.566406 4.042969 35.265625 3.882812 34.964844 C 3.761719 34.707031 3.566406 34.488281 3.320312 34.332031 C 3.472656 34.273438 3.609375 34.183594 3.722656 34.070312 C 3.945312 33.804688 4.007812 33.449219 3.886719 33.128906 C 3.765625 32.808594 3.480469 32.570312 3.128906 32.5 C 2.652344 32.4375 2.171875 32.414062 1.691406 32.433594 C 1.546875 32.433594 1.511719 32.464844 1.511719 32.605469 L 1.511719 35.652344 C 1.511719 36.011719 1.511719 36.007812 1.886719 35.992188 C 1.988281 35.992188 2.019531 35.960938 2.019531 35.863281 L 2.019531 34.921875 C 2.019531 34.488281 2.019531 34.5 2.480469 34.484375 C 2.859375 34.453125 3.21875 34.660156 3.363281 34.992188 C 3.496094 35.214844 3.617188 35.445312 3.722656 35.683594 C 3.789062 35.917969 4.046875 36.058594 4.296875 35.996094 C 4.410156 35.984375 4.410156 35.953125 4.363281 35.867188 Z M 2.875 34.078125 C 2.625 34.105469 2.371094 34.113281 2.117188 34.105469 C 2.019531 34.105469 2.015625 34.050781 2.015625 33.984375 L 2.015625 32.964844 C 2.015625 32.917969 2.003906 32.851562 2.085938 32.855469 C 2.367188 32.832031 2.652344 32.84375 2.933594 32.882812 C 3.21875 32.964844 3.410156 33.21875 3.398438 33.503906 C 3.386719 33.785156 3.171875 34.019531 2.878906 34.078125 Z M 2.875 34.078125 "/>
<path style=" stroke:none;fill-rule:nonzero;fill:rgb(30.19608%,78.431374%,92.941177%);fill-opacity:1;" d="M 10.179688 34.109375 C 10.152344 33.738281 9.871094 33.425781 9.488281 33.335938 C 9.03125 33.230469 8.554688 33.265625 8.121094 33.429688 L 8.042969 33.855469 C 8.277344 33.746094 8.527344 33.675781 8.785156 33.644531 C 9.144531 33.5625 9.515625 33.710938 9.699219 34.015625 C 9.820312 34.289062 9.777344 34.316406 9.488281 34.316406 C 9.125 34.289062 8.761719 34.324219 8.410156 34.414062 C 8.035156 34.53125 7.792969 34.878906 7.824219 35.25 C 7.8125 35.628906 8.097656 35.960938 8.496094 36.03125 C 8.960938 36.15625 9.460938 35.992188 9.742188 35.617188 C 9.761719 36.019531 9.761719 36.019531 10.101562 35.996094 L 10.117188 35.996094 C 10.1875 35.996094 10.21875 35.96875 10.214844 35.902344 C 10.242188 35.304688 10.230469 34.707031 10.179688 34.109375 Z M 9.742188 34.964844 C 9.726562 35.183594 9.613281 35.386719 9.429688 35.523438 C 9.246094 35.664062 9.011719 35.71875 8.78125 35.683594 C 8.535156 35.667969 8.335938 35.496094 8.300781 35.265625 C 8.242188 35.023438 8.402344 34.777344 8.660156 34.71875 C 8.882812 34.664062 9.113281 34.644531 9.34375 34.65625 L 9.46875 34.65625 C 9.773438 34.65625 9.796875 34.675781 9.738281 34.964844 Z M 9.742188 34.964844 "/>
<path style=" stroke:none;fill-rule:nonzero;fill:rgb(30.19608%,78.431374%,92.941177%);fill-opacity:1;" d="M 23.738281 34.273438 C 23.757812 33.769531 23.355469 33.339844 22.824219 33.289062 C 22.472656 33.253906 22.121094 33.285156 21.785156 33.378906 C 21.617188 33.425781 21.542969 33.492188 21.5625 33.660156 C 21.582031 33.832031 21.5625 33.847656 21.742188 33.777344 C 22.058594 33.644531 22.410156 33.605469 22.75 33.660156 C 23.023438 33.703125 23.238281 33.910156 23.269531 34.167969 C 23.277344 34.28125 23.25 34.320312 23.125 34.320312 C 22.808594 34.304688 22.492188 34.316406 22.179688 34.351562 C 21.925781 34.367188 21.6875 34.488281 21.535156 34.679688 C 21.378906 34.871094 21.320312 35.117188 21.371094 35.355469 C 21.425781 35.789062 21.839844 36.105469 22.304688 36.0625 C 22.679688 36.082031 23.039062 35.917969 23.257812 35.632812 C 23.285156 36.007812 23.285156 36.003906 23.605469 35.996094 C 23.703125 35.996094 23.742188 35.96875 23.742188 35.871094 C 23.738281 35.335938 23.753906 34.804688 23.738281 34.273438 Z M 22.433594 35.683594 C 21.984375 35.683594 21.746094 35.410156 21.851562 35.023438 C 21.882812 34.886719 21.988281 34.777344 22.128906 34.734375 C 22.476562 34.652344 22.835938 34.625 23.191406 34.652344 C 23.25 34.652344 23.269531 34.683594 23.273438 34.738281 C 23.316406 34.972656 23.246094 35.210938 23.085938 35.394531 C 22.925781 35.578125 22.6875 35.683594 22.4375 35.6875 Z M 22.433594 35.683594 "/>
<path style=" stroke:none;fill-rule:nonzero;fill:rgb(30.19608%,78.431374%,92.941177%);fill-opacity:1;" d="M 5.285156 34.757812 L 6.917969 34.757812 C 7.25 34.757812 7.261719 34.757812 7.242188 34.4375 C 7.257812 34.011719 7.019531 33.613281 6.625 33.40625 C 6.195312 33.195312 5.679688 33.210938 5.273438 33.453125 C 4.882812 33.683594 4.644531 34.082031 4.636719 34.511719 C 4.523438 35.105469 4.855469 35.695312 5.441406 35.941406 C 5.96875 36.121094 6.550781 36.097656 7.058594 35.878906 C 7.125 35.683594 7.125 35.578125 7.125 35.449219 L 6.972656 35.511719 C 6.664062 35.640625 6.324219 35.699219 5.984375 35.679688 C 5.535156 35.664062 5.167969 35.335938 5.125 34.914062 C 5.121094 34.804688 5.148438 34.757812 5.285156 34.757812 Z M 5.140625 34.316406 C 5.203125 33.921875 5.5625 33.632812 5.984375 33.640625 C 6.351562 33.621094 6.675781 33.855469 6.753906 34.191406 C 6.8125 34.394531 6.789062 34.425781 6.558594 34.425781 L 5.253906 34.425781 C 5.175781 34.421875 5.132812 34.40625 5.144531 34.316406 Z M 5.140625 34.316406 "/>
<path style=" stroke:none;fill-rule:nonzero;fill:rgb(30.19608%,78.431374%,92.941177%);fill-opacity:1;" d="M 31.695312 34.753906 C 32.238281 34.769531 32.761719 34.753906 33.296875 34.753906 C 33.632812 34.753906 33.644531 34.753906 33.625 34.441406 C 33.644531 34.015625 33.40625 33.613281 33.011719 33.40625 C 32.578125 33.191406 32.054688 33.210938 31.644531 33.457031 C 31.261719 33.6875 31.027344 34.078125 31.023438 34.503906 C 30.894531 35.125 31.261719 35.742188 31.886719 35.964844 C 32.296875 36.097656 32.738281 36.097656 33.148438 35.964844 C 33.582031 35.839844 33.507812 35.933594 33.507812 35.480469 C 33.160156 35.609375 32.796875 35.683594 32.429688 35.679688 C 31.972656 35.691406 31.578125 35.378906 31.515625 34.953125 C 31.496094 34.824219 31.515625 34.753906 31.695312 34.753906 Z M 31.515625 34.324219 C 31.570312 33.933594 31.917969 33.644531 32.335938 33.632812 C 32.699219 33.605469 33.035156 33.828125 33.121094 34.160156 C 33.195312 34.390625 33.171875 34.417969 32.925781 34.421875 L 31.644531 34.421875 C 31.574219 34.421875 31.515625 34.425781 31.523438 34.324219 Z M 31.515625 34.324219 "/>
<path style=" stroke:none;fill-rule:nonzero;fill:rgb(30.19608%,78.431374%,92.941177%);fill-opacity:1;" d="M 17.882812 11.859375 C 19.429688 11.867188 20.757812 12.902344 21.054688 14.335938 C 21.347656 15.765625 20.527344 17.195312 19.09375 17.75 C 17.660156 18.300781 16.011719 17.820312 15.160156 16.605469 C 14.304688 15.386719 14.480469 13.773438 15.578125 12.746094 C 16.191406 12.171875 17.019531 11.855469 17.882812 11.859375 Z M 17.882812 11.859375 "/>
</g>
</svg>
