<?xml version="1.0" encoding="UTF-8"?>
<svg xmlns="http://www.w3.org/2000/svg" xmlns:xlink="http://www.w3.org/1999/xlink" width="36px" height="36px" viewBox="0 0 36 36" version="1.1">
<g id="surface1">
<path style=" stroke:none;fill-rule:evenodd;fill:rgb(100%,100%,100%);fill-opacity:1;" d="M 25.386719 24.40625 L 25.707031 23.5 L 25.707031 31.394531 C 25.707031 32.617188 25.191406 33.789062 24.28125 34.652344 C 23.34375 35.523438 22.109375 36.003906 20.832031 36 L 4.875 36 C 3.582031 36 2.34375 35.515625 1.425781 34.652344 C 0.523438 33.808594 0.0078125 32.632812 0 31.394531 L 0 4.605469 C 0 3.382812 0.515625 2.210938 1.425781 1.347656 C 2.363281 0.476562 3.597656 -0.00390625 4.875 0 L 20.832031 0 C 22.125 0 23.367188 0.484375 24.28125 1.347656 C 25.183594 2.191406 25.699219 3.367188 25.707031 4.605469 L 25.707031 9.644531 C 24.652344 9.84375 23.734375 10.558594 23.371094 11.59375 L 22.476562 14.125 C 22.417969 13.417969 22.09375 12.757812 21.574219 12.273438 C 20.363281 11.132812 18.398438 11.132812 17.1875 12.273438 L 13.320312 15.929688 C 12.742188 16.460938 12.410156 17.210938 12.410156 18 C 12.410156 18.785156 12.742188 19.539062 13.320312 20.070312 L 17.1875 23.722656 C 17.839844 24.339844 18.714844 24.625 19.566406 24.578125 C 19.921875 25.386719 20.617188 26.003906 21.460938 26.261719 C 23.085938 26.769531 24.84375 25.941406 25.386719 24.40625 M 16.398438 31.8125 L 9.308594 31.8125 C 8.574219 31.8125 7.980469 31.253906 7.980469 30.558594 C 7.980469 29.867188 8.574219 29.300781 9.308594 29.300781 L 16.398438 29.300781 C 17.132812 29.300781 17.730469 29.867188 17.730469 30.558594 C 17.730469 31.253906 17.132812 31.8125 16.398438 31.8125 M 5.761719 2.511719 L 19.945312 2.511719 L 18.84375 5.117188 C 18.4375 6.074219 17.460938 6.699219 16.371094 6.699219 L 9.335938 6.699219 C 8.246094 6.699219 7.269531 6.074219 6.867188 5.117188 Z M 21.183594 23.078125 L 25.050781 12.121094 C 25.28125 11.460938 26.035156 11.105469 26.730469 11.328125 C 27.429688 11.546875 27.804688 12.257812 27.570312 12.914062 L 23.707031 23.875 C 23.472656 24.53125 22.71875 24.886719 22.023438 24.667969 C 21.328125 24.449219 20.949219 23.738281 21.183594 23.082031 M 31.363281 18 L 28.4375 15.234375 C 28.1875 15.003906 28.046875 14.683594 28.046875 14.34375 C 28.046875 14.007812 28.1875 13.6875 28.4375 13.457031 C 28.96875 12.96875 29.785156 12.96875 30.316406 13.457031 L 34.183594 17.109375 C 34.703125 17.601562 34.703125 18.394531 34.183594 18.886719 L 30.316406 22.539062 C 29.785156 23.027344 28.96875 23.027344 28.4375 22.539062 C 28.1875 22.308594 28.046875 21.988281 28.046875 21.652344 C 28.046875 21.3125 28.1875 20.992188 28.4375 20.761719 Z M 18.4375 13.457031 L 14.570312 17.109375 C 14.324219 17.339844 14.183594 17.660156 14.183594 17.996094 C 14.183594 18.335938 14.324219 18.65625 14.570312 18.886719 L 18.4375 22.539062 C 18.96875 23.027344 19.789062 23.027344 20.320312 22.539062 C 20.566406 22.308594 20.707031 21.988281 20.707031 21.652344 C 20.707031 21.3125 20.566406 20.992188 20.320312 20.761719 L 17.394531 18 L 20.320312 15.234375 C 20.570312 15.007812 20.710938 14.683594 20.710938 14.347656 C 20.710938 14.007812 20.570312 13.6875 20.320312 13.457031 C 19.789062 12.96875 18.972656 12.96875 18.441406 13.457031 "/>
</g>
</svg>
