<?xml version="1.0" encoding="UTF-8"?>
<svg xmlns="http://www.w3.org/2000/svg" xmlns:xlink="http://www.w3.org/1999/xlink" width="36px" height="36px" viewBox="0 0 36 36" version="1.1">
<defs>
<clipPath id="clip1">
  <path d="M 3 16 L 11 16 L 11 33 L 3 33 Z M 3 16 "/>
</clipPath>
<clipPath id="clip2">
  <path d="M 10.558594 16.75 L 7.042969 26.515625 L 10.558594 36.289062 L 6.539062 36.289062 L 5.027344 32.101562 L 3.015625 26.523438 L 6.539062 16.75 Z M 6.539062 0 L 0 18.144531 L 2.011719 23.722656 L 10.558594 0 Z M 6.539062 0 "/>
</clipPath>
<clipPath id="clip3">
  <path d="M 0 0 L 11 0 L 11 24 L 0 24 Z M 0 0 "/>
</clipPath>
<clipPath id="clip4">
  <path d="M 10.558594 16.75 L 7.042969 26.515625 L 10.558594 36.289062 L 6.539062 36.289062 L 5.027344 32.101562 L 3.015625 26.523438 L 6.539062 16.75 Z M 6.539062 0 L 0 18.144531 L 2.011719 23.722656 L 10.558594 0 Z M 6.539062 0 "/>
</clipPath>
<clipPath id="clip5">
  <path d="M 5 26 L 11 26 L 11 36 L 5 36 Z M 5 26 "/>
</clipPath>
<clipPath id="clip6">
  <path d="M 10.558594 16.75 L 7.042969 26.515625 L 10.558594 36.289062 L 6.539062 36.289062 L 5.027344 32.101562 L 3.015625 26.523438 L 6.539062 16.75 Z M 6.539062 0 L 0 18.144531 L 2.011719 23.722656 L 10.558594 0 Z M 6.539062 0 "/>
</clipPath>
<clipPath id="clip7">
  <path d="M 5 26 L 9 26 L 9 33 L 5 33 Z M 5 26 "/>
</clipPath>
<clipPath id="clip8">
  <path d="M 10.558594 16.75 L 7.042969 26.515625 L 10.558594 36.289062 L 6.539062 36.289062 L 5.027344 32.101562 L 3.015625 26.523438 L 6.539062 16.75 Z M 6.539062 0 L 0 18.144531 L 2.011719 23.722656 L 10.558594 0 Z M 6.539062 0 "/>
</clipPath>
<linearGradient id="linear0" gradientUnits="userSpaceOnUse" x1="-889.908997" y1="542.593994" x2="-889.200989" y2="543.643005" gradientTransform="matrix(2.984375,0,0,5.578125,5.03125,26.515625)">
<stop offset="0" style="stop-color:rgb(10.196078%,13.72549%,49.411765%);stop-opacity:0.4;"/>
<stop offset="1" style="stop-color:rgb(10.196078%,13.72549%,49.411765%);stop-opacity:0;"/>
</linearGradient>
<clipPath id="clip9">
  <path d="M 3 20 L 8 20 L 8 33 L 3 33 Z M 3 20 "/>
</clipPath>
<clipPath id="clip10">
  <path d="M 10.558594 16.75 L 7.042969 26.515625 L 10.558594 36.289062 L 6.539062 36.289062 L 5.027344 32.101562 L 3.015625 26.523438 L 6.539062 16.75 Z M 6.539062 0 L 0 18.144531 L 2.011719 23.722656 L 10.558594 0 Z M 6.539062 0 "/>
</clipPath>
<radialGradient id="radial0" gradientUnits="userSpaceOnUse" cx="0.5" cy="0.5" fx="0.5" fy="0.5" r="0.454" gradientTransform="matrix(13.071539,0,0,36.289062,-1.256473,0)">
<stop offset="0" style="stop-color:rgb(100%,100%,100%);stop-opacity:0.101961;"/>
<stop offset="1" style="stop-color:rgb(100%,100%,100%);stop-opacity:0;"/>
</radialGradient>
</defs>
<g id="surface1">
<g clip-path="url(#clip1)" clip-rule="nonzero">
<g clip-path="url(#clip2)" clip-rule="nonzero">
<path style=" stroke:none;fill-rule:nonzero;fill:rgb(22.352941%,80.784315%,99.215686%);fill-opacity:1;" d="M 5.027344 32.101562 L 10.558594 16.75 L 6.539062 16.75 L 3.015625 26.515625 Z M 5.027344 32.101562 "/>
</g>
</g>
<g clip-path="url(#clip3)" clip-rule="nonzero">
<g clip-path="url(#clip4)" clip-rule="nonzero">
<path style=" stroke:none;fill-rule:nonzero;fill:rgb(22.352941%,80.784315%,99.215686%);fill-opacity:1;" d="M 0 18.144531 L 6.539062 0 L 10.558594 0 L 2.011719 23.722656 Z M 0 18.144531 "/>
</g>
</g>
<g clip-path="url(#clip5)" clip-rule="nonzero">
<g clip-path="url(#clip6)" clip-rule="nonzero">
<path style=" stroke:none;fill-rule:nonzero;fill:rgb(1.176471%,33.725491%,60.784316%);fill-opacity:1;" d="M 6.539062 36.289062 L 10.558594 36.289062 L 7.042969 26.515625 L 5.03125 32.09375 Z M 6.539062 36.289062 "/>
</g>
</g>
<g clip-path="url(#clip7)" clip-rule="nonzero">
<g clip-path="url(#clip8)" clip-rule="nonzero">
<path style=" stroke:none;fill-rule:nonzero;fill:url(#linear0);" d="M 7.042969 26.515625 L 5.03125 32.09375 L 8.015625 29.222656 Z M 7.042969 26.515625 "/>
</g>
</g>
<g clip-path="url(#clip9)" clip-rule="nonzero">
<g clip-path="url(#clip10)" clip-rule="nonzero">
<path style=" stroke:none;fill-rule:nonzero;fill:rgb(8.627451%,72.549021%,99.215686%);fill-opacity:1;" d="M 3.015625 26.515625 L 5.027344 20.933594 L 7.039062 26.515625 L 5.027344 32.101562 Z M 3.015625 26.515625 "/>
</g>
</g>
<path style=" stroke:none;fill-rule:nonzero;fill:url(#radial0);" d="M 10.558594 16.75 L 7.042969 26.515625 L 10.558594 36.289062 L 6.539062 36.289062 L 5.027344 32.101562 L 3.015625 26.523438 L 6.539062 16.75 Z M 6.539062 0 L 0 18.144531 L 2.011719 23.722656 L 10.558594 0 Z M 6.539062 0 "/>
<path style=" stroke:none;fill-rule:nonzero;fill:rgb(50.196081%,50.196081%,50.196081%);fill-opacity:1;" d="M 11.835938 9.730469 L 15.359375 9.730469 L 15.359375 11.59375 L 12.574219 11.59375 L 12.574219 17.371094 L 15.089844 17.371094 L 15.089844 19.234375 L 12.574219 19.234375 L 12.574219 26.503906 L 11.867188 26.503906 L 11.867188 9.730469 Z M 11.835938 9.730469 "/>
<path style=" stroke:none;fill-rule:nonzero;fill:rgb(50.196081%,50.196081%,50.196081%);fill-opacity:1;" d="M 16.199219 9.730469 L 16.902344 9.730469 L 16.902344 26.59375 L 16.199219 26.59375 Z M 16.199219 9.730469 "/>
<path style=" stroke:none;fill-rule:nonzero;fill:rgb(50.196081%,50.196081%,50.196081%);fill-opacity:1;" d="M 19.558594 27 C 19.105469 27.0625 18.664062 26.585938 18.347656 25.695312 C 18.0625 24.691406 17.917969 23.433594 17.945312 22.15625 L 17.945312 14.570312 L 18.648438 14.570312 L 18.648438 21.84375 C 18.628906 22.746094 18.722656 23.636719 18.917969 24.363281 C 19.121094 24.933594 19.402344 25.238281 19.691406 25.199219 C 19.921875 25.222656 20.152344 25.023438 20.339844 24.640625 C 20.519531 24.285156 20.664062 23.800781 20.757812 23.238281 C 20.863281 22.660156 20.921875 22.023438 20.925781 21.375 L 20.925781 14.570312 L 21.628906 14.570312 L 21.628906 26.59375 L 20.96875 26.59375 L 20.96875 24.796875 L 20.933594 24.796875 C 20.796875 25.425781 20.601562 25.941406 20.363281 26.289062 C 20.128906 26.761719 19.847656 27.011719 19.558594 27 Z M 19.558594 27 "/>
<path style=" stroke:none;fill-rule:nonzero;fill:rgb(50.196081%,50.196081%,50.196081%);fill-opacity:1;" d="M 24.457031 26.773438 C 24.285156 26.773438 24.113281 26.675781 23.953125 26.496094 C 23.820312 26.335938 23.695312 26.117188 23.585938 25.847656 C 23.476562 25.546875 23.386719 25.199219 23.316406 24.820312 C 23.242188 24.375 23.207031 23.890625 23.214844 23.398438 L 23.214844 16.34375 L 22.441406 16.34375 L 22.441406 14.542969 L 23.214844 14.542969 L 23.214844 11.214844 L 23.917969 11.214844 L 23.917969 14.570312 L 24.972656 14.570312 L 24.972656 16.371094 L 23.921875 16.371094 L 23.921875 22.859375 C 23.90625 23.386719 23.953125 23.910156 24.054688 24.355469 C 24.171875 24.738281 24.34375 24.945312 24.527344 24.910156 C 24.691406 24.933594 24.859375 24.804688 24.996094 24.542969 L 24.996094 26.496094 C 24.894531 26.585938 24.828125 26.683594 24.726562 26.773438 Z M 24.457031 26.773438 "/>
<path style=" stroke:none;fill-rule:nonzero;fill:rgb(50.196081%,50.196081%,50.196081%);fill-opacity:1;" d="M 27.515625 26.773438 C 27.34375 26.773438 27.171875 26.675781 27.011719 26.496094 C 26.878906 26.335938 26.753906 26.117188 26.644531 25.847656 C 26.535156 25.546875 26.445312 25.199219 26.375 24.820312 C 26.300781 24.378906 26.265625 23.890625 26.269531 23.398438 L 26.269531 16.34375 L 25.566406 16.34375 L 25.566406 14.542969 L 26.339844 14.542969 L 26.339844 11.214844 L 27.042969 11.214844 L 27.042969 14.570312 L 28.085938 14.570312 L 28.085938 16.371094 L 27.046875 16.371094 L 27.046875 22.859375 C 27.027344 23.386719 27.074219 23.910156 27.179688 24.355469 C 27.292969 24.738281 27.46875 24.945312 27.648438 24.910156 C 27.816406 24.933594 27.980469 24.804688 28.117188 24.542969 L 28.117188 26.496094 C 28.019531 26.585938 27.949219 26.683594 27.851562 26.773438 Z M 27.515625 26.773438 "/>
<path style=" stroke:none;fill-rule:nonzero;fill:rgb(50.196081%,50.196081%,50.196081%);fill-opacity:1;" d="M 30.703125 27 C 30.3125 26.992188 29.925781 26.679688 29.59375 26.101562 C 29.273438 25.550781 29.007812 24.78125 28.824219 23.867188 C 28.640625 22.863281 28.542969 21.753906 28.539062 20.628906 C 28.542969 19.527344 28.632812 18.445312 28.808594 17.460938 C 28.980469 16.523438 29.234375 15.71875 29.550781 15.128906 C 30.03125 14.269531 30.625 14.007812 31.179688 14.417969 C 31.734375 14.824219 32.203125 15.859375 32.46875 17.269531 C 32.648438 18.253906 32.738281 19.339844 32.738281 20.4375 C 32.746094 20.660156 32.734375 20.882812 32.703125 21.085938 L 29.261719 21.085938 C 29.277344 21.894531 29.359375 22.683594 29.492188 23.398438 C 29.621094 24 29.808594 24.484375 30.03125 24.796875 C 30.242188 25.082031 30.46875 25.242188 30.703125 25.261719 C 31.242188 25.28125 31.734375 24.453125 31.976562 23.121094 L 32.582031 23.957031 C 32.398438 24.902344 32.132812 25.703125 31.808594 26.289062 C 31.464844 26.742188 31.082031 26.960938 30.699219 26.9375 Z M 31.945312 19.359375 C 31.941406 18.820312 31.886719 18.289062 31.785156 17.828125 C 31.675781 17.308594 31.527344 16.863281 31.347656 16.523438 C 31.125 16.132812 30.867188 15.9375 30.605469 15.964844 C 30.285156 15.925781 29.96875 16.25 29.734375 16.867188 C 29.492188 17.523438 29.328125 18.367188 29.265625 19.285156 Z M 31.945312 19.359375 "/>
<path style=" stroke:none;fill-rule:nonzero;fill:rgb(50.196081%,50.196081%,50.196081%);fill-opacity:1;" d="M 33.558594 14.570312 L 34.230469 14.570312 L 34.230469 16.523438 L 34.261719 16.523438 C 34.351562 15.839844 34.53125 15.273438 34.765625 14.941406 C 34.992188 14.5 35.261719 14.273438 35.535156 14.292969 C 35.710938 14.277344 35.882812 14.371094 36.039062 14.570312 L 36.039062 16.714844 C 35.855469 16.441406 35.644531 16.3125 35.4375 16.34375 C 35.234375 16.355469 35.035156 16.515625 34.863281 16.8125 C 34.695312 17.175781 34.546875 17.617188 34.425781 18.117188 C 34.320312 18.667969 34.261719 19.289062 34.257812 19.917969 L 34.257812 26.621094 L 33.554688 26.621094 Z M 33.558594 14.570312 "/>
</g>
</svg>
