<?xml version="1.0" encoding="UTF-8"?>
<svg xmlns="http://www.w3.org/2000/svg" xmlns:xlink="http://www.w3.org/1999/xlink" width="36px" height="36px" viewBox="0 0 36 36" version="1.1">
<defs>
<linearGradient id="linear0" gradientUnits="userSpaceOnUse" x1="-171.466003" y1="-168.179001" x2="-170.869003" y2="-168.563004" gradientTransform="matrix(11.515625,0,0,13.09375,13.097656,11.464844)">
<stop offset="0" style="stop-color:rgb(56.470588%,61.176471%,66.27451%);stop-opacity:1;"/>
<stop offset="1" style="stop-color:rgb(92.941176%,92.941176%,93.333333%);stop-opacity:1;"/>
</linearGradient>
<linearGradient id="linear1" gradientUnits="userSpaceOnUse" x1="-316.122986" y1="-508.178009" x2="-315.239014" y2="-508.178009" gradientTransform="matrix(6.296875,0,0,4.644531,16.035156,0)">
<stop offset="0" style="stop-color:rgb(57.647059%,62.352941%,67.058824%);stop-opacity:1;"/>
<stop offset="1" style="stop-color:rgb(86.27451%,87.058824%,88.235294%);stop-opacity:1;"/>
</linearGradient>
<radialGradient id="radial0" gradientUnits="userSpaceOnUse" cx="0.442" cy="0.435" fx="0.442" fy="0.435" r="0.073" gradientTransform="matrix(-11.5575,-2.146531,3.484,-28.495563,-183.304657,-3854.977023)">
<stop offset="0" style="stop-color:rgb(93.333333%,20.784314%,17.254902%);stop-opacity:1;"/>
<stop offset="1" style="stop-color:rgb(66.27451%,11.372549%,13.333333%);stop-opacity:1;"/>
</radialGradient>
</defs>
<g id="surface1">
<path style=" stroke:none;fill-rule:nonzero;fill:url(#linear0);" d="M 24.515625 11.46875 L 20.523438 13.070312 L 17.050781 14.964844 L 16.082031 15.277344 C 15.839844 15.566406 15.574219 15.855469 15.289062 16.15625 C 14.988281 16.480469 14.695312 16.785156 14.476562 17 C 14.191406 17.292969 13.929688 17.617188 13.6875 17.964844 C 13.4375 18.328125 13.242188 18.738281 13.097656 19.179688 C 12.933594 19.804688 13.019531 20.492188 13.332031 21.027344 C 13.902344 21.921875 14.65625 22.617188 15.515625 23.039062 C 16.136719 23.359375 16.777344 23.625 17.433594 23.835938 C 18.777344 24.210938 20.144531 24.453125 21.523438 24.558594 C 21.699219 24.570312 21.875 24.570312 22.050781 24.558594 C 22.070312 24.535156 22.246094 24.136719 22.441406 23.640625 C 23.042969 22.167969 23.519531 20.621094 23.859375 19.027344 C 24.046875 17.972656 24.167969 16.90625 24.222656 15.832031 C 24.242188 15.46875 24.25 14.261719 24.230469 13.851562 C 24.207031 13.265625 24.160156 12.683594 24.085938 12.105469 C 24.074219 12.054688 24.070312 12 24.074219 11.949219 C 24.25 11.867188 24.429688 11.800781 24.613281 11.742188 L 24.515625 11.464844 Z M 23.605469 12.128906 C 23.699219 12.746094 23.753906 13.371094 23.761719 14 C 23.769531 14.082031 23.769531 14.167969 23.761719 14.25 C 23.742188 14.25 23.253906 13.902344 22.902344 13.621094 C 22.597656 13.394531 22.03125 12.921875 21.933594 12.828125 C 21.902344 12.804688 21.902344 12.804688 22.15625 12.695312 C 22.578125 12.527344 23.574219 12.128906 23.605469 12.128906 Z M 21.570312 12.949219 C 21.664062 12.988281 21.753906 13.046875 21.835938 13.117188 C 22.425781 13.578125 23.035156 13.996094 23.664062 14.375 C 23.773438 14.433594 23.792969 14.410156 23.527344 14.625 C 22.871094 15.15625 22.179688 15.617188 21.453125 16 C 21.308594 16.082031 21.179688 16.144531 21.179688 16.144531 C 21.183594 16.074219 21.195312 16.003906 21.21875 15.9375 C 21.410156 15.085938 21.519531 14.207031 21.542969 13.324219 C 21.542969 12.960938 21.542969 12.960938 21.570312 12.949219 Z M 21.148438 13.15625 C 21.167969 13.515625 21.160156 13.878906 21.128906 14.242188 C 21.074219 14.789062 20.984375 15.328125 20.855469 15.855469 C 20.839844 15.945312 20.816406 16.035156 20.789062 16.121094 C 20.585938 15.917969 20.402344 15.691406 20.230469 15.445312 C 20.015625 15.140625 19.828125 14.804688 19.671875 14.445312 C 19.605469 14.285156 19.550781 14.113281 19.507812 13.9375 C 19.546875 13.890625 21.140625 13.144531 21.148438 13.15625 Z M 19.175781 14.109375 C 19.195312 14.121094 19.214844 14.179688 19.234375 14.242188 C 19.363281 14.632812 19.53125 15.007812 19.730469 15.351562 C 19.9375 15.6875 20.171875 16 20.425781 16.277344 C 20.496094 16.351562 20.5625 16.421875 20.574219 16.433594 C 20.59375 16.460938 20.59375 16.460938 20.101562 16.6875 C 19.535156 16.953125 18.910156 17.214844 18.195312 17.507812 C 18.027344 17.578125 17.851562 17.640625 17.6875 17.710938 C 17.65625 17.722656 17.667969 17.699219 17.746094 17.554688 C 18.207031 16.605469 18.605469 15.617188 18.9375 14.589844 C 18.988281 14.421875 19.035156 14.261719 19.046875 14.226562 C 19.132812 14.121094 19.152344 14.113281 19.171875 14.105469 Z M 18.578125 14.421875 C 18.492188 14.683594 18.394531 14.941406 18.285156 15.191406 C 17.992188 15.894531 17.667969 16.59375 17.246094 17.425781 C 17.179688 17.570312 17.109375 17.703125 17.101562 17.714844 C 17.082031 17.738281 17.082031 17.738281 17.03125 17.617188 C 16.925781 17.339844 16.847656 17.046875 16.796875 16.75 C 16.75 16.378906 16.757812 16.003906 16.816406 15.640625 C 16.855469 15.410156 16.855469 15.410156 16.945312 15.363281 C 17.316406 15.121094 18.558594 14.398438 18.578125 14.421875 Z M 23.78125 14.671875 L 23.78125 14.828125 C 23.777344 15.765625 23.71875 16.699219 23.605469 17.628906 C 23.597656 17.714844 23.585938 17.804688 23.566406 17.890625 C 23.503906 17.875 23.441406 17.851562 23.382812 17.820312 C 22.898438 17.632812 22.433594 17.386719 21.992188 17.085938 C 21.746094 16.925781 21.511719 16.75 21.289062 16.554688 C 21.289062 16.554688 21.414062 16.472656 21.5625 16.375 C 22.128906 16.015625 22.679688 15.617188 23.214844 15.179688 C 23.398438 15.023438 23.675781 14.78125 23.734375 14.710938 L 23.78125 14.675781 Z M 16.296875 15.78125 C 16.308594 15.78125 16.308594 15.804688 16.289062 15.949219 C 16.273438 16.082031 16.261719 16.214844 16.257812 16.347656 C 16.234375 16.867188 16.324219 17.382812 16.523438 17.84375 C 16.582031 18 16.632812 18.121094 16.632812 18.121094 C 16.609375 18.144531 14.617188 18.867188 13.980469 19.074219 C 13.792969 19.132812 13.628906 19.195312 13.617188 19.195312 C 13.597656 19.207031 13.597656 19.195312 13.597656 19.132812 C 13.746094 18.421875 14.050781 17.773438 14.476562 17.265625 C 14.765625 16.890625 15.101562 16.574219 15.464844 16.324219 C 15.78125 16.117188 16.257812 15.792969 16.296875 15.78125 Z M 21.003906 16.820312 C 21.003906 16.820312 21.082031 16.867188 21.171875 16.925781 C 21.894531 17.425781 22.671875 17.796875 23.480469 18.035156 L 23.546875 18.0625 L 23.449219 18.132812 C 22.449219 18.722656 21.421875 19.246094 20.378906 19.703125 C 20.183594 19.785156 19.988281 19.882812 19.949219 19.894531 C 19.878906 19.917969 19.9375 19.785156 20.007812 19.628906 C 20.378906 18.773438 20.699219 17.882812 20.957031 16.964844 C 20.984375 16.878906 21.003906 16.820312 21.003906 16.820312 Z M 20.523438 17.011719 C 20.511719 17.070312 20.496094 17.125 20.476562 17.179688 C 20.167969 18.074219 19.820312 18.941406 19.429688 19.785156 C 19.320312 20.023438 19.226562 20.230469 19.226562 20.230469 C 19.226562 20.230469 19.128906 20.15625 19.019531 20.085938 C 18.425781 19.648438 17.890625 19.089844 17.445312 18.433594 L 17.386719 18.351562 L 17.660156 18.253906 C 18.566406 17.957031 19.453125 17.582031 20.3125 17.132812 C 20.425781 17.0625 20.523438 17.015625 20.523438 17.015625 Z M 23.507812 18.289062 C 23.507812 18.375 23.359375 19.144531 23.234375 19.699219 C 23.125 20.171875 23.039062 20.53125 22.871094 21.171875 C 22.804688 21.449219 22.734375 21.691406 22.734375 21.691406 C 21.855469 21.496094 21.035156 21.207031 20.242188 20.820312 C 20.027344 20.714844 19.730469 20.546875 19.714844 20.53125 C 19.84375 20.445312 19.976562 20.367188 20.113281 20.304688 C 21.484375 19.570312 22.914062 18.722656 23.402344 18.363281 C 23.433594 18.328125 23.46875 18.304688 23.507812 18.289062 Z M 16.621094 18.578125 C 16.632812 18.589844 16.238281 19.265625 15.710938 20.195312 C 15.527344 20.519531 15.308594 20.894531 15.222656 21.039062 C 15.144531 21.183594 15.019531 21.402344 14.949219 21.535156 L 14.820312 21.773438 L 14.683594 21.628906 C 14.484375 21.410156 14.296875 21.171875 14.128906 20.917969 C 13.886719 20.566406 13.714844 20.15625 13.617188 19.710938 C 13.589844 19.53125 13.589844 19.445312 13.617188 19.433594 C 13.667969 19.421875 14.46875 19.183594 15.222656 18.964844 C 15.644531 18.84375 16.132812 18.699219 16.296875 18.652344 C 16.40625 18.636719 16.515625 18.613281 16.621094 18.578125 Z M 17.011719 18.761719 L 17.109375 18.894531 C 17.515625 19.460938 17.996094 19.941406 18.527344 20.316406 C 18.589844 20.351562 18.644531 20.398438 18.695312 20.449219 C 18.675781 20.472656 16.828125 21.269531 15.976562 21.644531 C 15.496094 21.847656 15.105469 22.015625 15.09375 22.015625 L 14.976562 21.921875 L 15.066406 21.765625 C 15.347656 21.257812 15.703125 20.703125 16.484375 19.546875 Z M 19.417969 20.882812 L 19.722656 21.015625 C 20.085938 21.1875 20.457031 21.328125 20.835938 21.4375 C 21.394531 21.601562 21.960938 21.722656 22.53125 21.800781 C 22.597656 21.8125 22.628906 21.8125 22.617188 21.824219 C 22.597656 21.835938 22.148438 22.015625 21.824219 22.148438 C 21.308594 22.355469 19.722656 22.921875 18.429688 23.378906 C 18.195312 23.460938 17.988281 23.535156 17.96875 23.535156 C 17.925781 23.539062 17.882812 23.527344 17.84375 23.5 C 17.890625 23.410156 17.941406 23.328125 18 23.25 C 18.4375 22.601562 18.847656 21.925781 19.222656 21.222656 C 19.328125 21.042969 19.417969 20.898438 19.417969 20.882812 Z M 18.882812 20.90625 C 18.882812 20.90625 18.664062 21.328125 18.292969 22.0625 C 18.136719 22.378906 17.953125 22.726562 17.894531 22.847656 C 17.835938 22.96875 17.746094 23.148438 17.6875 23.257812 L 17.601562 23.449219 L 17.550781 23.4375 C 17.445312 23.402344 16.679688 23.066406 16.476562 22.96875 C 16.222656 22.847656 15.96875 22.691406 15.773438 22.570312 C 15.585938 22.464844 15.410156 22.324219 15.253906 22.160156 C 15.261719 22.160156 15.675781 22.015625 16.171875 21.847656 C 17.492188 21.402344 18.226562 21.148438 18.707031 20.96875 C 18.804688 20.933594 18.882812 20.90625 18.882812 20.90625 Z M 22.648438 21.992188 C 22.667969 22.027344 22.175781 23.703125 21.992188 24.234375 C 21.953125 24.355469 21.933594 24.378906 21.914062 24.378906 C 21.863281 24.378906 21.152344 24.257812 20.71875 24.175781 C 19.96875 24.03125 18.703125 23.765625 18.390625 23.667969 L 18.324219 23.644531 L 18.773438 23.523438 C 19.742188 23.257812 20.203125 23.113281 20.671875 22.933594 C 21.28125 22.699219 21.875 22.417969 22.453125 22.089844 C 22.515625 22.046875 22.582031 22.015625 22.648438 21.992188 Z M 22.648438 21.992188 "/>
<path style=" stroke:none;fill-rule:nonzero;fill:url(#linear1);" d="M 20.398438 0 C 20.328125 -0.0117188 19.261719 0.46875 18.566406 0.808594 C 17.832031 1.15625 17.128906 1.589844 16.464844 2.109375 C 16.304688 2.246094 16.164062 2.417969 16.054688 2.617188 C 16.042969 2.65625 16.035156 2.695312 16.035156 2.738281 L 16.433594 3.207031 L 17.394531 3.582031 L 19.683594 4.089844 L 22.304688 4.644531 L 22.332031 4.367188 L 22.3125 4.367188 L 21.972656 4.292969 L 21.902344 4.136719 C 21.550781 3.363281 21.148438 2.398438 20.925781 1.761719 C 20.757812 1.273438 20.609375 0.773438 20.484375 0.265625 C 20.433594 0.0234375 20.433594 0 20.394531 0 Z M 20.347656 0.195312 C 20.367188 0.269531 20.375 0.34375 20.378906 0.421875 C 20.429688 0.957031 20.527344 1.480469 20.671875 1.988281 C 20.777344 2.398438 20.777344 2.375 20.652344 2.328125 C 20.347656 2.21875 18.96875 1.929688 17.960938 1.761719 C 17.863281 1.753906 17.761719 1.730469 17.667969 1.699219 C 17.65625 1.6875 18.390625 1.21875 18.714844 1.027344 C 19.132812 0.796875 20.269531 0.207031 20.347656 0.195312 Z M 17.441406 1.855469 L 17.558594 1.90625 C 18.582031 2.265625 19.632812 2.511719 20.691406 2.640625 C 20.789062 2.652344 20.875 2.664062 20.875 2.664062 C 20.816406 2.710938 20.753906 2.75 20.691406 2.785156 C 20.261719 3.050781 19.789062 3.375 19.46875 3.617188 C 19.40625 3.667969 19.339844 3.710938 19.273438 3.75 C 19.261719 3.75 19.195312 3.738281 19.136719 3.726562 L 19.019531 3.703125 L 18.714844 3.339844 C 18.1875 2.703125 17.765625 2.21875 17.609375 2.027344 Z M 17.324219 1.976562 L 17.746094 2.628906 C 17.980469 2.992188 18.214844 3.339844 18.265625 3.425781 C 18.3125 3.496094 18.363281 3.570312 18.351562 3.570312 C 18.34375 3.582031 17.734375 3.4375 17.414062 3.339844 C 17.1875 3.285156 16.964844 3.210938 16.746094 3.125 L 16.582031 3.050781 L 16.582031 3 C 16.582031 2.75 16.84375 2.375 17.277344 2 Z M 20.933594 2.871094 C 20.945312 2.871094 20.964844 2.90625 20.992188 3.003906 C 21.09375 3.28125 21.414062 4.027344 21.492188 4.171875 C 21.511719 4.222656 21.5625 4.222656 21.132812 4.136719 C 20.105469 3.929688 19.78125 3.859375 19.78125 3.859375 C 19.78125 3.859375 19.808594 3.835938 19.847656 3.800781 C 20.171875 3.570312 20.480469 3.308594 20.769531 3.015625 C 20.835938 2.941406 20.90625 2.882812 20.914062 2.871094 C 20.925781 2.871094 20.933594 2.859375 20.933594 2.871094 Z M 20.933594 2.871094 "/>
<path style=" stroke:none;fill-rule:nonzero;fill:url(#radial0);" d="M 16.082031 2.570312 C 16.039062 2.671875 16.039062 2.792969 16.082031 2.894531 C 16.15625 3.050781 16.25 3.191406 16.367188 3.304688 C 16.367188 3.304688 17.707031 4.921875 17.871094 5.148438 C 18.585938 6.113281 18.976562 7.375 18.96875 8.683594 C 18.988281 9.609375 18.824219 10.527344 18.488281 11.359375 C 17.863281 13.046875 16.53125 14.921875 14.496094 16.976562 L 14.800781 16.859375 C 15.144531 16.566406 15.503906 16.304688 15.878906 16.074219 C 17.480469 15.007812 19.144531 14.089844 20.855469 13.324219 C 24.144531 11.859375 27.527344 10.742188 30.972656 9.984375 L 31.246094 9.9375 L 31.207031 9.851562 C 30.960938 9.394531 30.796875 9.105469 30.601562 8.804688 C 30.007812 7.90625 29.28125 7.164062 28.457031 6.609375 C 27 5.675781 25.433594 5.027344 23.8125 4.691406 C 23.449219 4.609375 22.648438 4.425781 21.992188 4.304688 C 20.613281 4.042969 19.710938 3.859375 18.734375 3.65625 C 18.382812 3.582031 17.851562 3.476562 17.5 3.378906 C 17.230469 3.308594 16.960938 3.222656 16.699219 3.113281 C 16.464844 2.980469 16.152344 2.882812 16.082031 2.570312 Z M 16.863281 3.496094 C 16.863281 3.496094 16.914062 3.523438 16.980469 3.546875 C 17.097656 3.59375 17.246094 3.652344 17.421875 3.714844 C 17.558594 3.761719 17.6875 3.796875 17.824219 3.847656 L 18.15625 3.953125 C 18.175781 3.976562 18.480469 5.183594 18.585938 5.640625 C 18.625 5.824219 18.65625 5.96875 18.65625 5.96875 C 18.625 5.921875 18.597656 5.875 18.578125 5.824219 C 18.175781 4.984375 17.644531 4.25 17.019531 3.652344 C 16.964844 3.605469 16.914062 3.554688 16.863281 3.496094 Z M 18.339844 4.003906 C 18.398438 4.011719 18.453125 4.023438 18.507812 4.039062 C 19.015625 4.183594 19.945312 4.402344 20.53125 4.523438 C 20.59375 4.53125 20.652344 4.546875 20.707031 4.570312 C 20.707031 4.582031 20.667969 4.605469 20.628906 4.628906 C 20.53125 4.691406 20.132812 4.992188 19.996094 5.101562 C 19.691406 5.347656 19.40625 5.632812 19.144531 5.945312 C 19.054688 6.054688 18.976562 6.136719 18.976562 6.136719 C 18.960938 6.089844 18.953125 6.042969 18.949219 5.992188 C 18.808594 5.367188 18.628906 4.761719 18.410156 4.171875 Z M 20.953125 4.617188 C 21.007812 4.746094 21.042969 4.886719 21.058594 5.027344 C 21.171875 5.585938 21.222656 6.15625 21.207031 6.730469 C 21.195312 6.886719 21.195312 7.03125 21.1875 7.054688 L 21.175781 7.089844 L 21.019531 7.03125 C 20.699219 6.910156 20.167969 6.714844 19.71875 6.558594 C 19.464844 6.476562 19.25 6.390625 19.25 6.390625 C 19.417969 6.160156 19.597656 5.9375 19.789062 5.730469 C 20.101562 5.390625 20.933594 4.609375 20.953125 4.621094 Z M 21.167969 4.65625 C 21.179688 4.644531 22.421875 4.90625 22.976562 5.039062 C 23.398438 5.136719 24.003906 5.292969 24.042969 5.316406 C 24.0625 5.332031 23.996094 5.367188 23.800781 5.484375 C 23.113281 5.859375 22.453125 6.304688 21.824219 6.8125 C 21.667969 6.933594 21.539062 7.039062 21.539062 7.039062 C 21.539062 7.039062 21.53125 6.933594 21.53125 6.800781 C 21.53125 6.105469 21.421875 5.417969 21.207031 4.773438 C 21.179688 4.714844 21.160156 4.65625 21.167969 4.65625 Z M 24.375 5.425781 C 24.367188 5.59375 24.34375 5.757812 24.308594 5.921875 C 24.128906 6.671875 23.875 7.394531 23.546875 8.066406 C 23.511719 8.15625 23.46875 8.238281 23.417969 8.316406 C 23.355469 8.285156 23.292969 8.246094 23.234375 8.199219 C 22.851562 7.925781 22.457031 7.6875 22.050781 7.484375 C 21.933594 7.425781 21.824219 7.367188 21.824219 7.367188 C 22.296875 6.933594 22.785156 6.535156 23.292969 6.171875 C 23.703125 5.871094 24.359375 5.410156 24.378906 5.425781 Z M 24.601562 5.472656 C 24.632812 5.472656 25.179688 5.65625 25.460938 5.765625 C 26.164062 6.023438 26.847656 6.332031 27.515625 6.691406 L 27.742188 6.8125 L 27.585938 6.859375 C 26.398438 7.191406 25.234375 7.636719 24.101562 8.1875 C 24.046875 8.21875 23.988281 8.25 23.925781 8.269531 C 23.9375 8.203125 23.957031 8.136719 23.984375 8.078125 C 24.292969 7.300781 24.488281 6.464844 24.574219 5.609375 C 24.582031 5.535156 24.59375 5.476562 24.601562 5.476562 Z M 19.132812 7.019531 C 19.355469 7.066406 19.574219 7.128906 19.789062 7.210938 C 20.132812 7.332031 20.867188 7.632812 20.867188 7.65625 C 20.867188 7.65625 20.789062 7.742188 20.691406 7.851562 C 20.296875 8.261719 19.917969 8.683594 19.457031 9.226562 C 19.320312 9.382812 19.203125 9.515625 19.203125 9.515625 C 19.191406 9.515625 19.191406 9.488281 19.191406 9.464844 C 19.261719 8.71875 19.25 7.964844 19.152344 7.222656 C 19.144531 7.113281 19.136719 7.03125 19.136719 7.019531 Z M 27.949219 7.03125 C 27.851562 7.242188 27.742188 7.449219 27.625 7.644531 C 27.441406 7.96875 27.175781 8.394531 26.578125 9.320312 C 26.265625 9.8125 25.902344 10.367188 25.785156 10.550781 C 25.667969 10.730469 25.5625 10.886719 25.5625 10.886719 C 25.5625 10.886719 25.523438 10.816406 25.472656 10.742188 C 25.132812 10.117188 24.71875 9.558594 24.25 9.078125 C 24.164062 8.980469 24.066406 8.886719 24.027344 8.847656 C 24.003906 8.832031 23.984375 8.8125 23.96875 8.789062 C 23.96875 8.777344 24.476562 8.511719 24.867188 8.320312 C 25.550781 7.980469 26.480469 7.570312 27.175781 7.304688 C 27.558594 7.160156 27.949219 7.027344 27.949219 7.027344 Z M 28.183594 7.113281 C 28.246094 7.136719 28.304688 7.175781 28.359375 7.222656 C 29.089844 7.738281 29.769531 8.367188 30.375 9.089844 C 30.53125 9.285156 30.933594 9.789062 30.921875 9.789062 C 30.921875 9.789062 30.785156 9.804688 30.617188 9.816406 C 29.113281 9.980469 27.625 10.285156 26.15625 10.730469 C 26.050781 10.753906 25.960938 10.792969 25.953125 10.792969 C 26.035156 10.675781 26.125 10.566406 26.21875 10.464844 C 26.988281 9.628906 27.609375 8.609375 28.046875 7.464844 C 28.085938 7.34375 28.128906 7.226562 28.183594 7.113281 Z M 21.460938 7.957031 C 21.5 7.96875 21.890625 8.199219 22.195312 8.378906 C 22.46875 8.546875 22.871094 8.8125 22.898438 8.839844 C 22.898438 8.839844 22.753906 8.933594 22.578125 9.042969 C 22.007812 9.394531 21.519531 9.71875 21.023438 10.105469 C 20.875 10.210938 20.757812 10.296875 20.757812 10.296875 C 20.746094 10.296875 20.746094 10.285156 20.824219 10.105469 C 21.105469 9.460938 21.316406 8.769531 21.441406 8.054688 C 21.441406 7.992188 21.453125 7.957031 21.460938 7.957031 Z M 21.070312 8.042969 C 21.082031 8.054688 20.972656 8.511719 20.914062 8.765625 C 20.773438 9.285156 20.589844 9.789062 20.375 10.273438 C 20.328125 10.378906 20.257812 10.523438 20.21875 10.609375 L 20.140625 10.753906 L 19.976562 10.550781 C 19.8125 10.347656 19.621094 10.175781 19.417969 10.042969 C 19.363281 10.015625 19.316406 9.980469 19.269531 9.933594 C 19.269531 9.910156 19.789062 9.332031 20.179688 8.910156 C 20.464844 8.621094 21.0625 8.03125 21.070312 8.042969 Z M 23.46875 9.257812 L 23.613281 9.378906 C 23.976562 9.667969 24.320312 9.988281 24.652344 10.332031 C 24.847656 10.527344 25.039062 10.738281 25.21875 10.960938 L 25.257812 11.007812 L 25.011719 11.09375 C 23.632812 11.5625 22.566406 11.984375 21.316406 12.550781 C 21.179688 12.609375 21.0625 12.671875 21.050781 12.671875 C 21.03125 12.671875 21.023438 12.695312 21.324219 12.332031 C 22.089844 11.476562 22.769531 10.515625 23.351562 9.464844 Z M 22.839844 9.453125 C 22.851562 9.464844 22.429688 10.175781 22.1875 10.585938 C 21.894531 11.066406 21.363281 11.875 21.003906 12.40625 C 20.855469 12.621094 20.71875 12.804688 20.71875 12.816406 C 20.710938 12.816406 20.710938 12.769531 20.710938 12.683594 C 20.703125 12.21875 20.617188 11.761719 20.453125 11.34375 C 20.386719 11.175781 20.375 11.125 20.386719 11.113281 C 20.445312 11.054688 21.324219 10.441406 21.875 10.066406 C 22.246094 9.816406 22.832031 9.449219 22.84375 9.449219 Z M 19.027344 10.609375 C 19.035156 10.609375 19.105469 10.65625 19.183594 10.707031 C 19.367188 10.832031 19.539062 10.976562 19.703125 11.140625 C 19.710938 11.152344 19.632812 11.222656 19.527344 11.320312 C 19.242188 11.570312 18.800781 11.984375 18.546875 12.226562 C 18.285156 12.492188 18.273438 12.492188 18.304688 12.441406 C 18.453125 12.167969 18.589844 11.882812 18.703125 11.585938 C 18.800781 11.335938 18.886719 11.078125 18.957031 10.8125 C 18.96875 10.742188 18.992188 10.671875 19.027344 10.609375 Z M 20.046875 11.585938 C 20.066406 11.585938 20.074219 11.609375 20.164062 11.765625 C 20.339844 12.09375 20.457031 12.464844 20.503906 12.851562 L 20.515625 12.925781 L 20.105469 13.117188 C 19.359375 13.46875 18.683594 13.816406 18.226562 14.082031 C 18.097656 14.152344 17.875 14.285156 17.714844 14.382812 C 17.632812 14.445312 17.542969 14.496094 17.453125 14.539062 C 17.453125 14.539062 17.550781 14.453125 17.65625 14.34375 C 18.5 13.609375 19.261719 12.742188 19.925781 11.765625 C 19.957031 11.699219 20 11.636719 20.042969 11.585938 Z M 19.574219 11.730469 C 19.398438 12.007812 19.210938 12.269531 19.007812 12.515625 C 18.445312 13.226562 17.8125 13.855469 17.128906 14.382812 C 17.042969 14.457031 16.953125 14.515625 16.945312 14.527344 C 16.925781 14.539062 16.953125 14.503906 17.265625 14.082031 C 17.449219 13.839844 17.625 13.585938 17.785156 13.324219 C 17.867188 13.183594 17.96875 13.0625 18.089844 12.972656 C 18.539062 12.578125 19.566406 11.722656 19.574219 11.734375 Z M 19.574219 11.730469 "/>
<path style=" stroke:none;fill-rule:nonzero;fill:rgb(13.725491%,12.156863%,12.156863%);fill-opacity:1;" d="M 6.507812 27.125 L 6.335938 27.125 C 5.324219 27.101562 4.402344 27.839844 4.011719 28.992188 C 3.652344 30.136719 3.652344 31.402344 4.011719 32.546875 C 4.410156 33.609375 5.0625 34.160156 6.128906 34.371094 C 6.351562 34.414062 6.507812 34.5625 6.953125 35.199219 L 7.484375 35.984375 L 8.464844 35.984375 L 7.8125 35.179688 C 7.578125 34.910156 7.359375 34.617188 7.160156 34.308594 C 7.160156 34.265625 7.296875 34.203125 7.46875 34.140625 C 8.066406 33.890625 8.550781 33.335938 8.792969 32.617188 C 9.023438 32.109375 9.132812 31.539062 9.121094 30.960938 C 9.222656 28.609375 8.207031 27.125 6.507812 27.125 Z M 7.367188 33.378906 C 6.855469 33.660156 6.28125 33.703125 5.75 33.503906 C 5.226562 33.222656 4.820312 32.683594 4.632812 32.019531 C 4.410156 31.125 4.4375 30.164062 4.699219 29.285156 C 5.113281 28.3125 5.664062 27.84375 6.472656 27.84375 C 7.65625 27.84375 8.34375 28.757812 8.429688 30.429688 C 8.480469 31.871094 8.105469 32.929688 7.363281 33.375 Z M 24.316406 29.179688 C 23.9375 29.164062 23.578125 29.398438 23.371094 29.796875 L 23.199219 30.113281 L 23.199219 29.285156 L 22.496094 29.285156 L 22.496094 34.289062 L 23.199219 34.289062 L 23.199219 32.695312 C 23.199219 31.234375 23.21875 31.066406 23.371094 30.664062 C 23.523438 30.160156 23.941406 29.867188 24.371094 29.964844 L 24.628906 30.046875 L 24.628906 29.179688 Z M 20.121094 29.140625 C 19.976562 29.140625 19.832031 29.160156 19.691406 29.203125 C 18.773438 29.535156 18.167969 30.609375 18.230469 31.789062 C 18.230469 32.761719 18.386719 33.25 18.765625 33.757812 C 19.539062 34.542969 20.242188 34.605469 21.1875 34.183594 C 21.34375 34.097656 21.53125 33.992188 21.53125 33.992188 L 21.53125 33.207031 L 21.1875 33.417969 C 20.414062 33.820312 19.847656 33.820312 19.382812 33.355469 C 19.105469 33 18.9375 32.535156 18.902344 32.042969 L 21.773438 32.042969 L 21.773438 31.363281 C 21.773438 29.964844 21.105469 29.097656 20.125 29.136719 Z M 18.96875 31.320312 C 19.023438 30.867188 19.199219 30.449219 19.46875 30.136719 C 19.648438 29.972656 19.867188 29.882812 20.089844 29.878906 C 20.304688 29.878906 20.519531 29.96875 20.691406 30.136719 C 21.050781 30.472656 21.101562 31.320312 21.101562 31.320312 Z M 1.796875 30.410156 C 1.023438 29.835938 0.679688 29.414062 0.730469 28.925781 C 0.847656 27.570312 2.207031 27.761719 2.964844 28.269531 L 2.964844 27.355469 C 2.640625 27.210938 2.296875 27.132812 1.949219 27.125 C 1.039062 27.101562 0.4375 27.484375 0.160156 28.226562 C -0.25 29.328125 0.109375 30.175781 1.417969 31.105469 C 2.15625 31.636719 2.46875 32.082031 2.46875 32.589844 C 2.46875 33.609375 1.46875 33.96875 0.421875 33.332031 C 0.214844 33.207031 0.0273438 33.097656 0.0273438 33.097656 C 0.00390625 33.429688 -0.00390625 33.765625 0.0078125 34.097656 C 0.261719 34.21875 0.527344 34.3125 0.796875 34.371094 C 1.984375 34.667969 3.050781 33.96875 3.152344 32.867188 C 3.253906 31.808594 2.964844 31.277344 1.792969 30.410156 Z M 30.609375 29.117188 C 30.460938 29.117188 30.308594 29.140625 30.164062 29.179688 C 29.246094 29.507812 28.640625 30.589844 28.71875 31.765625 C 28.71875 32.742188 28.875 33.207031 29.253906 33.714844 C 30.027344 34.5 30.730469 34.5625 31.675781 34.140625 C 31.832031 34.054688 32.019531 33.949219 32.019531 33.949219 L 32.019531 33.164062 L 31.675781 33.375 C 30.902344 33.777344 30.335938 33.777344 29.871094 33.292969 C 29.59375 32.9375 29.421875 32.472656 29.390625 31.976562 L 32.261719 31.976562 L 32.261719 31.300781 C 32.261719 29.964844 31.589844 29.097656 30.609375 29.117188 Z M 29.460938 31.300781 C 29.515625 30.839844 29.6875 30.417969 29.957031 30.09375 C 30.136719 29.929688 30.355469 29.839844 30.578125 29.839844 C 30.792969 29.839844 31.007812 29.925781 31.179688 30.09375 C 31.539062 30.429688 31.589844 31.277344 31.589844 31.277344 Z M 16.410156 30.429688 C 15.636719 29.859375 15.292969 29.433594 15.34375 28.949219 C 15.464844 27.589844 16.824219 27.78125 17.578125 28.289062 L 17.578125 27.378906 C 17.253906 27.234375 16.910156 27.152344 16.566406 27.148438 C 15.652344 27.125 15.050781 27.507812 14.777344 28.25 C 14.363281 29.351562 14.742188 30.199219 16.035156 31.128906 C 16.773438 31.660156 17.082031 32.105469 17.082031 32.59375 C 17.082031 33.609375 16.085938 33.992188 15.035156 33.335938 C 14.828125 33.207031 14.640625 33.101562 14.640625 33.101562 C 14.621094 33.433594 14.613281 33.765625 14.625 34.097656 C 14.882812 34.210938 15.144531 34.304688 15.414062 34.371094 C 16.601562 34.667969 17.683594 33.96875 17.769531 32.867188 C 17.871094 31.828125 17.5625 31.277344 16.410156 30.429688 Z M 34.804688 29.160156 C 34.425781 29.144531 34.066406 29.378906 33.859375 29.773438 L 33.6875 30.09375 L 33.6875 29.265625 L 32.984375 29.265625 L 32.984375 34.265625 L 33.6875 34.265625 L 33.6875 32.675781 C 33.6875 31.214844 33.707031 31.042969 33.859375 30.640625 C 34.007812 30.140625 34.429688 29.84375 34.855469 29.941406 L 35.113281 30.027344 L 35.113281 29.15625 Z M 10.738281 30.410156 L 10.738281 27.230469 L 10.011719 27.230469 L 10.011719 34.265625 L 13.039062 34.265625 L 13.039062 33.441406 L 10.734375 33.441406 L 10.734375 30.410156 Z M 27.34375 31.386719 L 26.761719 33.292969 L 26.191406 31.386719 L 25.609375 29.265625 L 24.867188 29.265625 C 25.347656 30.941406 25.863281 32.613281 26.382812 34.265625 L 27.070312 34.265625 L 27.859375 31.789062 L 28.667969 29.265625 L 27.960938 29.265625 C 27.980469 29.265625 27.671875 30.261719 27.34375 31.386719 Z M 12.386719 25.304688 C 12.554688 25.304688 12.703125 25.179688 12.765625 24.988281 C 12.832031 24.796875 12.796875 24.578125 12.679688 24.433594 C 12.597656 24.347656 12.492188 24.304688 12.386719 24.308594 C 12.21875 24.308594 12.070312 24.433594 12.003906 24.621094 C 11.941406 24.8125 11.976562 25.03125 12.09375 25.175781 C 12.175781 25.257812 12.28125 25.304688 12.386719 25.304688 Z M 12.144531 24.496094 C 12.269531 24.335938 12.464844 24.304688 12.617188 24.425781 C 12.769531 24.542969 12.832031 24.777344 12.765625 24.984375 C 12.699219 25.1875 12.523438 25.308594 12.347656 25.265625 C 12.171875 25.226562 12.042969 25.035156 12.042969 24.816406 C 12.039062 24.695312 12.074219 24.578125 12.144531 24.496094 Z M 12.316406 24.859375 L 12.367188 24.859375 C 12.402344 24.859375 12.4375 24.898438 12.453125 24.964844 L 12.507812 25.113281 L 12.59375 25.113281 L 12.523438 24.945312 C 12.492188 24.882812 12.472656 24.839844 12.4375 24.820312 C 12.472656 24.796875 12.507812 24.796875 12.539062 24.753906 C 12.570312 24.605469 12.558594 24.5625 12.539062 24.523438 C 12.507812 24.480469 12.453125 24.480469 12.386719 24.480469 L 12.230469 24.480469 L 12.230469 25.117188 L 12.296875 25.117188 L 12.316406 24.863281 Z M 12.316406 24.5625 L 12.386719 24.5625 C 12.417969 24.566406 12.453125 24.570312 12.488281 24.582031 C 12.503906 24.605469 12.503906 24.625 12.503906 24.667969 C 12.503906 24.730469 12.46875 24.773438 12.402344 24.773438 L 12.316406 24.773438 L 12.316406 24.558594 Z M 0.453125 24.792969 C 0.460938 24.632812 0.453125 24.46875 0.4375 24.308594 C 0.449219 24.394531 0.46875 24.476562 0.488281 24.5625 L 1.175781 26.46875 L 1.296875 26.46875 L 1.984375 24.5625 C 2.007812 24.484375 2.023438 24.40625 2.035156 24.328125 C 2.023438 24.488281 2.015625 24.652344 2.019531 24.816406 L 2.019531 26.488281 L 2.257812 26.488281 L 2.257812 23.988281 L 1.96875 23.988281 L 1.332031 25.726562 C 1.300781 25.828125 1.269531 25.929688 1.230469 26.023438 L 1.246094 26.023438 C 1.230469 25.960938 1.195312 25.855469 1.160156 25.726562 L 0.542969 23.96875 L 0.214844 23.96875 L 0.214844 26.46875 L 0.4375 26.46875 L 0.453125 24.796875 Z M 2.792969 24.792969 L 3 24.792969 L 3 26.34375 L 2.792969 26.34375 Z M 2.894531 24.222656 C 2.929688 24.222656 2.964844 24.207031 2.996094 24.179688 C 3.027344 24.148438 3.042969 24.101562 3.046875 24.054688 C 2.859375 23.886719 2.820312 23.902344 2.792969 23.929688 C 2.761719 23.960938 2.742188 24.007812 2.742188 24.054688 C 2.824219 24.203125 2.859375 24.21875 2.894531 24.222656 Z M 4.457031 26.382812 L 4.457031 26.109375 C 4.355469 26.210938 4.230469 26.261719 4.097656 26.257812 C 3.960938 26.265625 3.828125 26.195312 3.738281 26.066406 C 3.644531 25.929688 3.59375 25.757812 3.601562 25.578125 C 3.597656 25.394531 3.644531 25.214844 3.738281 25.070312 C 3.828125 24.941406 3.960938 24.871094 4.097656 24.878906 C 4.21875 24.878906 4.339844 24.921875 4.441406 25.003906 L 4.441406 24.707031 C 4.339844 24.648438 4.226562 24.617188 4.113281 24.625 C 3.90625 24.609375 3.707031 24.710938 3.566406 24.898438 C 3.425781 25.089844 3.351562 25.339844 3.359375 25.597656 C 3.347656 25.835938 3.414062 26.066406 3.546875 26.234375 C 3.675781 26.402344 3.859375 26.496094 4.046875 26.488281 C 4.191406 26.511719 4.335938 26.472656 4.457031 26.382812 Z M 5.027344 25.558594 C 5.019531 25.386719 5.054688 25.214844 5.128906 25.070312 C 5.183594 24.972656 5.273438 24.917969 5.367188 24.921875 C 5.429688 24.914062 5.492188 24.9375 5.539062 24.984375 L 5.539062 24.6875 C 5.496094 24.671875 5.449219 24.664062 5.40625 24.667969 C 5.324219 24.671875 5.246094 24.707031 5.179688 24.773438 C 5.105469 24.851562 5.054688 24.953125 5.027344 25.070312 L 5.027344 24.710938 L 4.804688 24.710938 L 4.804688 26.488281 L 5.027344 26.488281 Z M 6.367188 26.511719 C 6.5625 26.527344 6.75 26.433594 6.882812 26.257812 C 7.019531 26.070312 7.085938 25.828125 7.074219 25.578125 C 7.085938 25.335938 7.027344 25.089844 6.902344 24.902344 C 6.773438 24.730469 6.589844 24.636719 6.402344 24.648438 C 6.210938 24.636719 6.027344 24.722656 5.886719 24.878906 C 5.738281 25.074219 5.664062 25.335938 5.679688 25.601562 C 5.664062 25.84375 5.734375 26.082031 5.871094 26.257812 C 5.996094 26.429688 6.179688 26.519531 6.367188 26.511719 Z M 6.039062 25.050781 C 6.132812 24.9375 6.257812 24.878906 6.382812 24.882812 C 6.511719 24.875 6.636719 24.933594 6.726562 25.050781 C 6.890625 25.359375 6.890625 25.757812 6.726562 26.066406 C 6.640625 26.1875 6.515625 26.257812 6.382812 26.257812 C 6.253906 26.257812 6.128906 26.1875 6.039062 26.066406 C 5.945312 25.921875 5.894531 25.742188 5.90625 25.558594 C 5.890625 25.371094 5.941406 25.1875 6.039062 25.050781 Z M 8.085938 26.339844 C 8.171875 26.25 8.222656 26.121094 8.222656 25.980469 C 8.226562 25.863281 8.1875 25.746094 8.121094 25.664062 C 8.039062 25.578125 7.945312 25.511719 7.84375 25.472656 C 7.769531 25.429688 7.695312 25.378906 7.621094 25.324219 C 7.585938 25.273438 7.566406 25.203125 7.570312 25.132812 C 7.566406 25.066406 7.59375 25.003906 7.636719 24.964844 C 7.695312 24.921875 7.761719 24.898438 7.828125 24.902344 C 7.945312 24.902344 8.058594 24.945312 8.15625 25.027344 L 8.15625 24.753906 C 8.058594 24.691406 7.953125 24.660156 7.84375 24.667969 C 7.714844 24.65625 7.585938 24.707031 7.484375 24.816406 C 7.394531 24.898438 7.34375 25.035156 7.351562 25.175781 C 7.347656 25.289062 7.378906 25.402344 7.4375 25.492188 C 7.511719 25.574219 7.597656 25.640625 7.695312 25.683594 C 7.777344 25.730469 7.859375 25.785156 7.933594 25.851562 C 7.96875 25.898438 7.988281 25.957031 7.984375 26.019531 C 7.984375 26.1875 7.898438 26.273438 7.710938 26.273438 C 7.574219 26.269531 7.441406 26.210938 7.332031 26.105469 L 7.332031 26.402344 C 7.441406 26.484375 7.566406 26.519531 7.695312 26.507812 C 7.839844 26.519531 7.980469 26.460938 8.089844 26.339844 Z M 9.1875 24.644531 C 8.996094 24.632812 8.808594 24.71875 8.671875 24.878906 C 8.523438 25.074219 8.449219 25.335938 8.464844 25.601562 C 8.449219 25.839844 8.519531 26.078125 8.652344 26.257812 C 8.789062 26.429688 8.976562 26.519531 9.171875 26.511719 C 9.363281 26.527344 9.554688 26.433594 9.6875 26.257812 C 9.820312 26.070312 9.890625 25.828125 9.875 25.578125 C 9.882812 25.335938 9.820312 25.097656 9.703125 24.898438 C 9.574219 24.71875 9.382812 24.625 9.1875 24.644531 Z M 9.632812 25.578125 C 9.644531 25.761719 9.601562 25.941406 9.515625 26.085938 C 9.425781 26.207031 9.300781 26.277344 9.171875 26.277344 C 9.039062 26.277344 8.914062 26.207031 8.824219 26.085938 C 8.730469 25.945312 8.683594 25.761719 8.691406 25.578125 C 8.683594 25.386719 8.730469 25.199219 8.824219 25.046875 C 9.019531 24.824219 9.320312 24.824219 9.515625 25.046875 C 9.605469 25.203125 9.648438 25.390625 9.632812 25.578125 Z M 10.269531 26.46875 L 10.492188 26.46875 L 10.492188 24.917969 L 10.835938 24.917969 L 10.835938 24.6875 L 10.496094 24.6875 L 10.496094 24.410156 C 10.496094 24.15625 10.582031 24.03125 10.734375 24.03125 C 10.789062 24.035156 10.839844 24.046875 10.890625 24.070312 L 10.890625 23.816406 C 10.835938 23.796875 10.777344 23.789062 10.71875 23.796875 C 10.601562 23.789062 10.492188 23.84375 10.410156 23.945312 C 10.300781 24.0625 10.242188 24.234375 10.253906 24.410156 L 10.253906 24.707031 L 10.011719 24.707031 L 10.011719 24.941406 L 10.253906 24.941406 L 10.273438 26.464844 Z M 11.214844 25.980469 C 11.214844 26.320312 11.335938 26.511719 11.59375 26.511719 C 11.671875 26.511719 11.75 26.492188 11.816406 26.449219 L 11.816406 26.191406 C 11.773438 26.238281 11.71875 26.261719 11.664062 26.257812 C 11.597656 26.269531 11.53125 26.238281 11.492188 26.171875 C 11.449219 26.097656 11.429688 26.007812 11.4375 25.917969 L 11.4375 24.921875 L 11.800781 24.921875 L 11.800781 24.691406 L 11.441406 24.691406 L 11.441406 24.160156 C 11.367188 24.195312 11.292969 24.222656 11.21875 24.242188 L 11.21875 24.667969 L 10.976562 24.667969 L 10.976562 24.902344 L 11.21875 24.902344 L 11.21875 25.980469 Z M 36.023438 29.246094 C 35.941406 29.160156 35.839844 29.117188 35.730469 29.121094 C 35.566406 29.121094 35.414062 29.246094 35.351562 29.433594 C 35.285156 29.625 35.320312 29.84375 35.441406 29.988281 C 35.523438 30.074219 35.625 30.121094 35.730469 30.117188 C 35.898438 30.113281 36.050781 29.992188 36.113281 29.800781 C 36.179688 29.609375 36.144531 29.390625 36.023438 29.246094 Z M 35.992188 29.925781 C 35.867188 30.085938 35.667969 30.117188 35.519531 29.996094 C 35.367188 29.878906 35.304688 29.644531 35.371094 29.4375 C 35.4375 29.234375 35.613281 29.113281 35.789062 29.15625 C 35.964844 29.195312 36.09375 29.386719 36.09375 29.605469 C 36.101562 29.726562 36.066406 29.84375 35.992188 29.921875 Z M 35.785156 29.628906 L 35.886719 29.5625 C 35.917969 29.414062 35.90625 29.371094 35.886719 29.332031 C 35.851562 29.289062 35.800781 29.289062 35.730469 29.289062 L 35.578125 29.289062 L 35.578125 29.925781 L 35.644531 29.925781 L 35.644531 29.671875 L 35.695312 29.671875 C 35.730469 29.671875 35.765625 29.714844 35.78125 29.777344 L 35.832031 29.925781 L 35.917969 29.925781 L 35.851562 29.757812 C 35.84375 29.707031 35.820312 29.664062 35.785156 29.632812 Z M 35.734375 29.585938 L 35.648438 29.585938 L 35.648438 29.375 L 35.714844 29.375 C 35.765625 29.375 35.800781 29.375 35.816406 29.394531 C 35.832031 29.417969 35.835938 29.4375 35.835938 29.480469 C 35.835938 29.542969 35.800781 29.585938 35.730469 29.585938 Z M 22.839844 24.605469 L 22.90625 24.605469 L 22.90625 23.964844 L 23.078125 23.964844 L 23.078125 23.882812 L 22.667969 23.882812 L 22.667969 23.964844 L 22.839844 23.964844 Z M 23.234375 24.136719 L 23.234375 23.988281 L 23.457031 24.605469 L 23.492188 24.605469 L 23.699219 24.054688 C 23.699219 24.03125 23.714844 24.011719 23.714844 23.988281 L 23.714844 24.605469 L 23.78125 24.605469 L 23.78125 23.882812 L 23.695312 23.882812 L 23.523438 24.371094 C 23.523438 24.390625 23.507812 24.410156 23.492188 24.453125 C 23.492188 24.433594 23.472656 24.410156 23.457031 24.371094 L 23.285156 23.859375 L 23.199219 23.859375 L 23.199219 24.582031 L 23.269531 24.582031 Z M 23.234375 24.136719 "/>
</g>
</svg>
