<svg xmlns="http://www.w3.org/2000/svg" width="47" height="28" fill="none"><g fill="#1E1E1E" clip-path="url(#a)"><path d="M11.09 7.303h8.864V8h-8.051v5.235h7.571v.698h-7.571v5.747h8.144v.698H11.09zm9.659 0h.942l4.173 5.749 4.266-5.75L35.935 0l-9.532 13.658 4.91 6.718h-.98l-4.469-6.113-4.487 6.113h-.96l4.948-6.72zM31.663 8v-.697h10.1V8h-4.654v12.376h-.81V7.998zM-.002 7.303h1.017L15.022 28l-5.789-7.626L.85 8.292.812 20.375h-.814zM41.685 19.47a.3.3 0 0 0 .273-.177.29.29 0 0 0-.061-.319.294.294 0 0 0-.42.412.28.28 0 0 0 .208.084m.798-.766a.78.78 0 0 0 .254.594.8.8 0 0 0 .616.207.82.82 0 0 0 .653-.24.8.8 0 0 0 .228-.653v-1.994h-.442v1.994c0 .314-.16.482-.443.482a.4.4 0 0 1-.396-.231.4.4 0 0 1-.034-.157zm2.33-.025c.032.504.457.826 1.09.826.675 0 1.099-.338 1.099-.877 0-.424-.242-.659-.827-.794l-.314-.076c-.372-.086-.522-.2-.522-.403 0-.254.233-.42.583-.42a.55.55 0 0 1 .603.422h.43a.92.92 0 0 0-.345-.615.93.93 0 0 0-.682-.194c-.622 0-1.037.334-1.037.837 0 .414.235.66.753.78l.368.087c.377.088.543.217.543.432 0 .249-.26.431-.616.431-.381 0-.646-.17-.684-.437z"/></g><defs><clipPath id="a"><path fill="#fff" d="M0 0h47v28H0z"/></clipPath></defs></svg>