<svg xmlns="http://www.w3.org/2000/svg" width="60" height="60" fill="none"><g clip-path="url(#a)"><path fill="#fff" d="M56.828 27.38c.275-.552.62-1.035.896-1.518s.552-.896.828-1.38c.276-.413.483-.896.69-1.379.068-.138.137-.344.275-.551V6.62c0-.07-.069-.07-.069-.138-.345-1.104-1.103-2.414-2.896-2.414-.483 0-.966.069-1.449.276-.069 0-.138 0-.206.069h-.07l-.413.069-.138-.345c-.345-.897-.897-1.517-1.724-1.862a2.9 2.9 0 0 0-1.104-.207c-.483 0-.965.138-1.448.345l-.483.207-.207-.552C48.897 1.034 48.138.345 46.965 0h-1.034C44.966.345 44.345.69 44 1.31l-.207.345-.414-.138-.62-.207c-.414-.138-.759-.276-1.104-.276h-.414c-.965 0-1.793.483-2.344 1.38-.207.345-.552.69-1.173.69h-9.172c-.414 0-.897-.138-1.31-.345-.552-.276-1.035-.621-1.587-.897a13 13 0 0 0-1.31-.759c-.414-.275-.897-.482-1.31-.69-.138-.068-.345-.137-.483-.275h-16c-.07.069-.207.069-.276.138-.897.276-1.517.827-1.931 1.586-.345.759-.414 1.655-.07 2.483l.07.207.069.138.138.482-.483.207c-.966.345-1.517.966-1.862 1.724-.345.828-.276 1.656.138 2.552l.276.552-.552.207C1.034 10.759.345 11.517 0 12.759v1.034c.276.966.759 1.586 1.31 2l.345.207-.138.414c-.069.207-.138.414-.207.551-.138.345-.276.69-.276 1.035-.137 1.172.276 2.138 1.31 2.828.346.207.69.551.622 1.172v9.172c0 .552-.207 1.035-.345 1.31-.276.553-.621 1.035-.897 1.518-.276.414-.552.897-.758 1.31-.276.483-.483.897-.69 1.38A2 2 0 0 1 0 37.24v16c.069.07.069.138.069.207.276 1.31 1.586 2.345 2.965 2.345.414 0 .828-.069 1.242-.276.069-.069.207-.069.276-.069h.069l.413-.069.138.414c.345.897.966 1.517 1.725 1.862.344.138.758.207 1.103.207.483 0 .966-.138 1.448-.345l.552-.276.207.552c.414 1.035 1.172 1.724 2.345 2.07h1.034c.966-.277 1.586-.69 2-1.38l.207-.345.414.138c.138.069.345.138.552.207.344.138.62.276.896.276.207 0 .414.069.62.069 1.035 0 1.863-.483 2.415-1.38.275-.413.62-.62 1.172-.62h9.241c.414 0 .897.137 1.31.344.553.276 1.035.621 1.518.897.414.276.897.552 1.31.759.483.275.897.482 1.38.69.138.068.344.137.551.275h15.932c.068 0 .068-.069.137-.069 1.035-.345 1.794-.896 2.138-1.655q.517-1.138 0-2.69c0-.069-.069-.138-.069-.207v-.069l-.069-.413.345-.138c.897-.345 1.517-.966 1.862-1.724.345-.828.276-1.656-.138-2.552l-.276-.483.414-.414c1.035-.413 1.724-1.172 2.07-2.344V46c-.277-.965-.76-1.586-1.38-2l-.345-.207.138-.414c.069-.207.138-.344.207-.551.138-.345.276-.621.276-.897.207-1.241-.276-2.276-1.38-3.034-.275-.207-.551-.621-.551-1.035v-9.31c0-.345.138-.828.345-1.173m-54.483-8c-.483-.621-.62-1.38-.276-2.07.345-.758 1.034-1.172 1.862-1.172h5.448c.138 0 .552-.069.552-.483 0-.138 0-.276-.138-.345-.069-.138-.276-.138-.414-.138H3.172c-1.379 0-2.344-.896-2.344-2.069 0-1.24.965-2 2.344-2h6.07c.413 0 .689-.206.689-.482 0-.138 0-.207-.138-.345a.78.78 0 0 0-.552-.207H5.034c-.482 0-.965-.138-1.379-.414-.69-.414-.965-1.38-.69-2.207C3.242 6.552 4 6 4.898 6h6.551A.544.544 0 0 0 12 5.448c0-.414-.414-.482-.552-.482H7.034c-1.034 0-1.793-.552-2.068-1.518a1.87 1.87 0 0 1 .896-2.207A3.2 3.2 0 0 1 7.31.897h14.414c.483 0 1.035.137 1.448.413 1.242.69 2.483 1.449 3.518 2.07a3.53 3.53 0 0 0 1.93.551h9.656v10.552l-.828-.69c-.207-.138-.345-.345-.551-.483-.345-.276-.76-.62-1.104-.896a2.98 2.98 0 0 0-1.793-.62c-1.241 0-2.345.827-2.62 2-.07.344-.07.689-.07 1.103v1.172h-3.517c-.896 0-1.655.345-2.345 1.034a1178 1178 0 0 1-9.379 9.242l-.069.069c-.345.345-.759.62-1.103.69-.138.068-.345.068-.483.068-.552 0-1.104-.275-1.448-.827-.414-.69-.345-1.448.137-2.07.552-.689 1.104-1.31 1.656-2l.69-.827.206-.207.138-.206c.207-.276.207-.414.138-.621s-.207-.276-.552-.276H4.138c-.759.069-1.38-.207-1.793-.759m40 12.62a1.8 1.8 0 0 1-.483 1.172c-1.655 1.656-3.31 3.31-5.034 4.966l-3.656 3.586c-.413.483-.965.69-1.517.69H27.38c-.344 0-.827-.207-1.103-.483-3.448-3.448-6.138-6.207-8.69-8.759-.345-.344-.551-.896-.551-1.379-.07-1.517 0-3.034 0-4.345 0-.345.206-.758.482-1.034 3.518-3.518 6.207-6.207 8.759-8.69.345-.345.965-.552 1.38-.552h2.413c.276-.069.552-.069.828-.069 1.586 0 2.62.897 3.517 1.862 1.793 1.932 3.724 3.794 5.517 5.656l1.655 1.655c.483.483.69 1.034.69 1.655v1.862c.069.759.069 1.517.069 2.207m-21.31 11.655c-.207-.069-.414-.138-.621-.138h-.138c-.138 0-.207.276-.207.483v11.172c0 .483-.138 1.035-.414 1.449a1.94 1.94 0 0 1-1.655.896c-.207 0-.414 0-.552-.069a2.09 2.09 0 0 1-1.448-2V50c0-.276-.138-.62-.483-.62-.276 0-.482.206-.482.551V56c0 .276 0 .62-.138.965-.276.828-1.035 1.449-1.931 1.449h-.138c-.966-.07-1.725-.828-1.862-1.793-.07-.483-.07-.966-.07-1.38v-5.103c0-.828-.344-.828-.482-.828s-.483 0-.483.828v4.276c0 1.034-.759 1.862-1.793 2H8c-.897 0-1.724-.62-1.931-1.517C6 54.62 6 54.276 6 54v-6.276c-.069-.276-.207-.414-.483-.414a.47.47 0 0 0-.483.483V52c0 .483-.068.828-.206 1.172-.276.69-1.035 1.242-1.794 1.242-.137 0-.275 0-.344-.07-1.035-.206-1.656-1.034-1.724-2.137V37.586q0-.724.413-1.448c.69-1.31 1.449-2.483 2.138-3.517a3.77 3.77 0 0 0 .552-2v-9.586h10.552l-.69.827-.414.483c-.276.345-.551.69-.827.965-.621.759-1.242 1.931-.483 3.31.483.897 1.31 1.38 2.483 1.38.207 0 .413 0 .69-.069h.275l.552-.069v3.241c-.138 1.31.345 2.345 1.38 3.38 2.413 2.345 4.758 4.758 7.034 7.034.62.69 1.31 1.31 1.93 2 .346.345.552.69.69 1.035.207.758-.069 1.517-.69 1.93-.344.208-.62.277-.965.277-.414 0-.758-.138-1.103-.414l-2.07-1.655-.827-.69c-.069-.069-.138-.069-.138-.138l-.069-.069zm36.482-2.069c-.069 1.035-.965 1.862-2.069 1.862h-5.311c-.275 0-.62.07-.689.483 0 .138.07.207.138.345.138.138.276.207.552.207h6.345c1.034 0 1.862.758 2.069 1.724.138.896-.414 1.862-1.242 2.138-.345.138-.69.207-1.172.207h-5.931c-.69 0-.69.345-.69.483 0 .137.07.206.138.344q.207.207.62.207h4.07c.276 0 .62 0 .965.138.897.276 1.449 1.242 1.31 2.207-.206 1.035-1.034 1.724-2.068 1.724H48c-.345 0-.552.207-.552.552 0 .414.345.483.552.483h4.414c.62 0 1.172.276 1.586.69.345.344.552.896.552 1.379 0 1.034-.966 1.93-2.138 2h-14.69c-.483 0-1.034-.138-1.448-.414-1.242-.69-2.483-1.448-3.517-2.07a3.53 3.53 0 0 0-1.931-.55h-9.656v-10.69l.828.69c.207.137.345.344.552.482.345.345.69.62 1.103.896.552.414 1.173.621 1.793.621 1.242 0 2.345-.827 2.621-2 .069-.345.069-.69.069-1.103v-1.173h3.31c.966 0 1.724-.345 2.483-1.103l8.276-8.276.965-.966c.345-.344.759-.62 1.104-.69.138-.068.345-.068.483-.068.551 0 1.103.276 1.448.827.414.69.345 1.449-.138 2.07-.552.689-1.104 1.31-1.655 2l-.69.827-.138.207-.138.207c-.207.276-.207.414-.138.62.07.207.207.276.552.276h11.035c.206 0 .413 0 .62.07 1.31.137 2.07 1.034 2 2.137M56.07 26.69l-.069.138c-.345.551-.483 1.172-.483 1.862v9.655H44.965l.69-.828.414-.483.828-1.034c.827-1.035.965-2.276.344-3.31-.482-.828-1.31-1.31-2.344-1.31-.207 0-.483 0-.69.068h-.828V28.07c.07-.966-.276-1.724-1.034-2.552-3.035-2.965-6-6.069-8.966-9.034l-.344-.345c-.345-.345-.621-.69-.69-1.104-.207-.69.069-1.379.69-1.862.275-.207.62-.275.965-.275.414 0 .828.137 1.172.413.552.414 1.104.897 1.587 1.31.413.346.827.69 1.172.966.069.07.138.138.207.138.207.207.414.345.62.345.07 0 .139 0 .207-.069.276-.138.276-.276.276-.828V3.931C39.38 2.759 40.207 2 41.311 2h.137a2.05 2.05 0 0 1 1.931 2.069v4.965c0 .966.345.966.483.966v.276-.207c.138 0 .483 0 .483-1.035v-6c0-.965.62-1.793 1.586-2.068.138-.07.276-.07.414-.07.758 0 1.448.414 1.724 1.104.207.483.276.966.276 1.31v5.724c0 .966.345.966.483.966.206 0 .551 0 .551-1.034V5.103c0-1.31.828-2.206 2-2.206s2 .965 2 2.206v6.345c0 .345.207.552.483.552.345 0 .483-.207.483-.552V7.172c0-.482.138-.965.345-1.379.345-.552.965-.965 1.655-.965.207 0 .345 0 .552.069.965.275 1.517 1.103 1.517 2.069v14.551c0 .483-.138 1.035-.414 1.448-.552 1.449-1.241 2.621-1.931 3.725"/></g><defs><clipPath id="a"><path fill="#fff" d="M0 0h60v60H0z"/></clipPath></defs></svg>