<?xml version="1.0" encoding="UTF-8"?>
<svg xmlns="http://www.w3.org/2000/svg" xmlns:xlink="http://www.w3.org/1999/xlink" width="40px" height="40px" viewBox="0 0 40 40" version="1.1">
<g id="surface1">
<path style=" stroke:none;fill-rule:nonzero;fill:rgb(0%,0%,0%);fill-opacity:1;" d="M 1.46875 31.105469 L 1.46875 30.367188 L 0.503906 30.367188 L 0.503906 31.101562 L 0 31.101562 L 0 29.335938 L 0.503906 29.335938 L 0.503906 30.078125 L 1.464844 30.078125 L 1.464844 29.335938 L 1.96875 29.335938 L 1.96875 31.105469 Z M 3.777344 31.105469 L 3.394531 31.105469 L 3.359375 31.011719 C 3.183594 31.085938 2.984375 31.125 2.78125 31.125 C 2.429688 31.125 2.277344 30.964844 2.277344 30.746094 C 2.277344 30.523438 2.449219 30.394531 2.835938 30.394531 L 3.300781 30.394531 L 3.300781 30.261719 C 3.300781 30.121094 3.242188 30.070312 2.9375 30.070312 C 2.757812 30.070312 2.578125 30.082031 2.402344 30.109375 L 2.34375 29.863281 C 2.5625 29.820312 2.789062 29.800781 3.019531 29.796875 C 3.621094 29.796875 3.789062 29.941406 3.789062 30.257812 Z M 3.273438 30.625 L 2.949219 30.625 C 2.792969 30.625 2.757812 30.652344 2.757812 30.75 C 2.757812 30.851562 2.800781 30.886719 2.949219 30.886719 C 3.074219 30.882812 3.199219 30.863281 3.3125 30.820312 Z M 4.78125 31.136719 C 4.558594 31.132812 4.335938 31.109375 4.121094 31.0625 L 4.183594 30.816406 C 4.375 30.851562 4.566406 30.871094 4.761719 30.871094 C 4.976562 30.871094 5.007812 30.84375 5.007812 30.738281 C 5.007812 30.636719 5.007812 30.621094 4.671875 30.570312 C 4.207031 30.496094 4.171875 30.417969 4.171875 30.171875 C 4.171875 29.925781 4.339844 29.800781 4.886719 29.800781 C 5.082031 29.800781 5.277344 29.816406 5.464844 29.847656 L 5.421875 30.101562 C 5.253906 30.078125 5.085938 30.066406 4.917969 30.0625 C 4.707031 30.0625 4.671875 30.09375 4.671875 30.171875 C 4.671875 30.253906 4.671875 30.285156 4.945312 30.324219 C 5.480469 30.417969 5.53125 30.46875 5.53125 30.726562 C 5.53125 30.984375 5.371094 31.121094 4.792969 31.121094 Z M 6.984375 31.105469 L 6.984375 30.214844 C 6.984375 30.144531 6.9375 30.113281 6.828125 30.113281 C 6.652344 30.125 6.480469 30.164062 6.324219 30.222656 L 6.324219 31.105469 L 5.828125 31.105469 L 5.828125 29.3125 L 6.332031 29.359375 L 6.332031 29.921875 C 6.550781 29.847656 6.789062 29.804688 7.035156 29.796875 C 7.351562 29.796875 7.464844 29.949219 7.464844 30.175781 L 7.464844 31.101562 Z M 7.871094 29.652344 L 7.871094 29.339844 L 8.371094 29.339844 L 8.371094 29.652344 Z M 7.871094 31.109375 L 7.871094 29.828125 L 8.371094 29.828125 L 8.371094 31.101562 Z M 8.738281 29.84375 C 8.738281 29.523438 9.015625 29.339844 9.667969 29.339844 C 9.90625 29.339844 10.148438 29.359375 10.378906 29.398438 L 10.324219 29.683594 C 10.109375 29.648438 9.894531 29.628906 9.671875 29.621094 C 9.332031 29.621094 9.21875 29.699219 9.21875 29.886719 L 9.21875 30.554688 C 9.21875 30.738281 9.332031 30.820312 9.671875 30.820312 C 9.890625 30.816406 10.105469 30.804688 10.316406 30.777344 L 10.371094 31.0625 C 10.140625 31.101562 9.898438 31.121094 9.660156 31.121094 C 9.007812 31.121094 8.730469 30.9375 8.730469 30.617188 Z M 11.445312 31.136719 C 10.785156 31.136719 10.609375 30.894531 10.609375 30.632812 L 10.609375 30.320312 C 10.609375 30.050781 10.785156 29.816406 11.445312 29.816406 C 12.109375 29.816406 12.28125 30.058594 12.28125 30.320312 L 12.28125 30.640625 C 12.28125 30.890625 12.101562 31.132812 11.445312 31.132812 Z M 11.445312 30.089844 C 11.191406 30.089844 11.089844 30.164062 11.089844 30.308594 L 11.089844 30.65625 C 11.089844 30.800781 11.191406 30.875 11.445312 30.875 C 11.703125 30.875 11.800781 30.800781 11.800781 30.65625 L 11.800781 30.304688 C 11.800781 30.148438 11.695312 30.070312 11.441406 30.070312 Z M 13.632812 30.109375 C 13.457031 30.164062 13.289062 30.226562 13.128906 30.292969 L 13.128906 31.121094 L 12.628906 31.121094 L 12.628906 29.824219 L 13.0625 29.824219 L 13.0625 29.957031 C 13.21875 29.886719 13.390625 29.832031 13.566406 29.789062 Z M 15.558594 30.664062 C 15.585938 30.785156 15.527344 30.910156 15.402344 31 C 15.277344 31.089844 15.101562 31.132812 14.921875 31.117188 C 14.753906 31.113281 14.585938 31.101562 14.421875 31.078125 L 14.421875 31.601562 L 13.917969 31.648438 L 13.917969 29.828125 L 14.304688 29.828125 L 14.347656 29.933594 C 14.527344 29.847656 14.738281 29.800781 14.957031 29.800781 C 15.34375 29.800781 15.550781 29.953125 15.550781 30.242188 Z M 14.410156 30.808594 C 14.550781 30.828125 14.695312 30.839844 14.839844 30.84375 C 15.011719 30.84375 15.078125 30.785156 15.078125 30.671875 L 15.078125 30.238281 C 15.078125 30.136719 15.019531 30.074219 14.84375 30.074219 C 14.683594 30.078125 14.535156 30.121094 14.414062 30.191406 Z M 14.410156 30.808594 "/>
<path style=" stroke:none;fill-rule:nonzero;fill:rgb(0%,0%,0%);fill-opacity:1;" d="M 0 32.53125 L 4.109375 32.53125 C 6.546875 32.53125 7.445312 33.226562 7.445312 34.507812 L 7.445312 35.503906 C 7.445312 36.773438 6.441406 37.464844 4.015625 37.464844 L 2.007812 37.464844 L 2.007812 39.835938 L 0 39.835938 Z M 4.019531 33.746094 L 2.007812 33.746094 L 2.007812 36.242188 L 4.019531 36.242188 C 5.144531 36.242188 5.476562 35.953125 5.476562 35.351562 L 5.476562 34.613281 C 5.457031 34.011719 5.09375 33.746094 4.019531 33.746094 Z M 4.019531 33.746094 "/>
<path style=" stroke:none;fill-rule:nonzero;fill:rgb(0%,0%,0%);fill-opacity:1;" d="M 14.1875 39.835938 L 12.605469 39.835938 L 12.464844 39.484375 C 11.785156 39.792969 10.988281 39.957031 10.175781 39.957031 C 8.769531 39.957031 8.164062 39.289062 8.164062 38.367188 C 8.164062 37.28125 8.84375 36.863281 10.410156 36.863281 L 12.261719 36.863281 L 12.261719 36.304688 C 12.261719 35.710938 12.023438 35.503906 10.789062 35.503906 C 10.070312 35.507812 9.351562 35.558594 8.648438 35.664062 L 8.410156 34.640625 C 9.269531 34.472656 10.15625 34.382812 11.050781 34.375 C 13.46875 34.375 14.179688 34.964844 14.179688 36.304688 Z M 12.265625 37.820312 L 10.832031 37.820312 C 10.195312 37.820312 10.019531 37.941406 10.019531 38.347656 C 10.019531 38.753906 10.195312 38.882812 10.792969 38.882812 C 11.304688 38.875 11.808594 38.78125 12.253906 38.605469 Z M 12.265625 37.820312 "/>
<path style=" stroke:none;fill-rule:nonzero;fill:rgb(0%,0%,0%);fill-opacity:1;" d="M 15.335938 37.894531 L 15.335938 36.433594 C 15.335938 35 16.238281 34.382812 18.65625 34.382812 C 19.296875 34.382812 19.929688 34.453125 20.542969 34.578125 L 20.304688 35.675781 C 19.78125 35.585938 19.246094 35.539062 18.707031 35.535156 C 17.601562 35.535156 17.269531 35.761719 17.269531 36.421875 L 17.269531 37.90625 C 17.269531 38.566406 17.601562 38.792969 18.707031 38.792969 C 19.246094 38.792969 19.78125 38.746094 20.304688 38.652344 L 20.542969 39.746094 C 19.929688 39.878906 19.296875 39.945312 18.65625 39.945312 C 16.242188 39.945312 15.335938 39.328125 15.335938 37.894531 Z M 15.335938 37.894531 "/>
<path style=" stroke:none;fill-rule:nonzero;fill:rgb(0%,0%,0%);fill-opacity:1;" d="M 21.761719 39.835938 L 21.761719 32.3125 L 23.6875 32.121094 L 23.6875 39.832031 Z M 28.3125 34.492188 L 26.050781 37.136719 L 28.40625 39.835938 L 26.285156 39.835938 L 23.960938 37.136719 L 26.160156 34.492188 Z M 28.3125 34.492188 "/>
<path style=" stroke:none;fill-rule:nonzero;fill:rgb(0%,0%,0%);fill-opacity:1;" d="M 32.324219 38.847656 C 33.121094 38.847656 33.917969 38.765625 34.679688 38.601562 L 34.984375 39.613281 C 34.074219 39.84375 33.117188 39.960938 32.152344 39.960938 C 29.730469 39.960938 28.894531 39.179688 28.894531 37.898438 L 28.894531 36.476562 C 28.894531 35.347656 29.625 34.386719 32.089844 34.386719 C 34.558594 34.386719 35.105469 35.382812 35.105469 36.539062 L 35.105469 37.675781 L 30.8125 37.675781 L 30.8125 37.953125 C 30.8125 38.601562 31.148438 38.847656 32.324219 38.847656 Z M 30.8125 36.597656 L 33.265625 36.597656 L 33.265625 36.332031 C 33.265625 35.828125 33.042969 35.472656 32.09375 35.472656 C 31.75 35.4375 31.398438 35.511719 31.148438 35.683594 C 30.894531 35.851562 30.773438 36.089844 30.8125 36.332031 Z M 30.8125 36.597656 "/>
<path style=" stroke:none;fill-rule:nonzero;fill:rgb(0%,0%,0%);fill-opacity:1;" d="M 40.261719 35.609375 C 39.554688 35.835938 38.875 36.09375 38.222656 36.390625 L 38.222656 39.832031 L 36.296875 39.832031 L 36.296875 34.492188 L 37.925781 34.492188 L 38.050781 35.082031 C 38.671875 34.792969 39.347656 34.558594 40.058594 34.390625 Z M 40.261719 35.609375 "/>
<path style=" stroke:none;fill-rule:nonzero;fill:rgb(11.372549%,68.235296%,100%);fill-opacity:1;" d="M 8.246094 3.296875 L 20.847656 8.347656 L 20.847656 26.972656 L 8.246094 21.925781 Z M 8.246094 3.296875 "/>
<path style=" stroke:none;fill-rule:nonzero;fill:rgb(11.372549%,58.039218%,86.666667%);fill-opacity:1;" d="M 27.089844 5.476562 L 13.390625 0 L 13.390625 3.800781 L 22.703125 7.535156 L 22.703125 18.9375 L 27.089844 20.671875 C 29.804688 21.761719 32.019531 21.109375 32.019531 19.226562 L 32.019531 10.871094 C 32.023438 8.988281 29.804688 6.5625 27.089844 5.476562 Z M 27.089844 5.476562 "/>
</g>
</svg>
