<svg xmlns="http://www.w3.org/2000/svg" width="35" height="35" fill="none"><g clip-path="url(#a)"><path fill="#000" d="M17.5 19.25c1.87 0 3.604-.587 5.026-1.586a5.18 5.18 0 0 0 3.724 1.585A5.25 5.25 0 0 0 31.5 14c0-2.898-2.401-5.339-5.424-5.245A8.75 8.75 0 0 0 17.5 1.75a8.75 8.75 0 0 0-8.576 7.005A5.24 5.24 0 0 0 3.5 14a5.25 5.25 0 0 0 5.25 5.25 5.2 5.2 0 0 0 3.726-1.586A8.7 8.7 0 0 0 17.5 19.25m8.75-8.75c1.93 0 3.5 1.57 3.5 3.5s-1.57 3.5-3.5 3.5c-.935 0-1.78-.37-2.408-.971A8.72 8.72 0 0 0 26.25 10.5m-8.75-7c3.86 0 7 3.14 7 7s-3.14 7-7 7-7-3.14-7-7 3.14-7 7-7m-8.75 14c-1.93 0-3.5-1.57-3.5-3.5s1.57-3.5 3.5-3.5a8.72 8.72 0 0 0 2.402 6.021 3.45 3.45 0 0 1-2.402.979M35 28a8.75 8.75 0 0 0-8.75-8.75 8.6 8.6 0 0 0-3.67.83c-1.488-.538-3.362-.83-5.08-.83-1.812 0-3.294.326-4.89.922a8.6 8.6 0 0 0-3.86-.923A8.75 8.75 0 0 0 0 28h4.514A13.9 13.9 0 0 0 3.5 33.25h28c0-1.867-.332-3.637-.942-5.25zM1.972 26.25A7.01 7.01 0 0 1 8.75 21c.576 0 1.132.077 1.665.214a14 14 0 0 0-5.043 5.036zm3.4 5.25C6.214 25.488 11.35 21 17.75 21c6.257 0 11.106 4.406 11.888 10.5zm19.471-10.35q.682-.148 1.407-.15c3.256 0 6 2.234 6.778 5.25h-3.273a13.35 13.35 0 0 0-4.912-5.1"/></g><defs><clipPath id="a"><path fill="#fff" d="M0 0h35v35H0z"/></clipPath></defs></svg>