<svg xmlns="http://www.w3.org/2000/svg" width="36" height="36" fill="none"><g clip-path="url(#a)"><path fill="#3178C6" d="M3.516 0h28.968A3.516 3.516 0 0 1 36 3.516v28.968A3.516 3.516 0 0 1 32.484 36H3.516A3.516 3.516 0 0 1 0 32.484V3.516A3.516 3.516 0 0 1 3.516 0"/><path fill="#3178C6" d="M3.516 0h28.968A3.516 3.516 0 0 1 36 3.516v28.968A3.516 3.516 0 0 1 32.484 36H3.516A3.516 3.516 0 0 1 0 32.484V3.516A3.516 3.516 0 0 1 3.516 0"/><path fill="#fff" fill-rule="evenodd" d="M22.285 28.647v3.52q.858.44 2.03.66t2.47.22c1.492 0 3.126-.213 4.402-1.04 1.27-.822 1.86-2.19 1.86-3.668 0-1.1-.341-2.157-1.112-2.959-1.155-1.201-2.778-1.689-4.236-2.403-.73-.358-1.739-.914-1.739-1.854q0-.363.187-.654c.502-.782 1.616-.94 2.465-.94.965 0 1.982.215 2.878.615q.468.209.864.484V17.34a8.6 8.6 0 0 0-1.755-.456 14 14 0 0 0-2.185-.149q-1.255 0-2.377.27t-1.975.841a4.2 4.2 0 0 0-1.348 1.458q-.495.885-.495 2.117 0 1.573.908 2.684.908 1.11 2.756 1.881c.83.34 1.691.674 2.438 1.177.517.349.984.835.984 1.496 0 .48-.27.886-.665 1.139-.584.373-1.332.456-2.009.456a6.766 6.766 0 0 1-4.347-1.606m-5.918-8.672h4.516v-2.89H8.297v2.89h4.493v12.86h3.577z" clip-rule="evenodd"/></g><defs><clipPath id="a"><path fill="#fff" d="M0 0h36v36H0z"/></clipPath></defs></svg>