<svg id="virtual-reality" xmlns="http://www.w3.org/2000/svg" width="18" height="18" viewBox="0 0 18 18">
  <path id="Path_77274" data-name="Path 77274" d="M185.289,81.03l.994.994a2.109,2.109,0,0,1,2.983,0l.994-.994a3.516,3.516,0,0,0-4.972,0Z" transform="translate(-178.775 -77.188)" fill="#fff"/>
  <path id="Path_77275" data-name="Path 77275" d="M133.2,1.406a4.89,4.89,0,0,1,3.48,1.442l.994-.994a6.328,6.328,0,0,0-8.949,0l.994.994a4.89,4.89,0,0,1,3.48-1.442Z" transform="translate(-124.196)" fill="#fff"/>
  <path id="Path_77276" data-name="Path 77276" d="M16.594,154.933v-.824A2.112,2.112,0,0,0,14.484,152H3.516a2.112,2.112,0,0,0-2.109,2.109v.824A2.113,2.113,0,0,0,0,156.922v5.625a2.112,2.112,0,0,0,2.109,2.109H8.3v-.7a.7.7,0,0,1,1.406,0v.7h6.188A2.112,2.112,0,0,0,18,162.547v-5.625A2.113,2.113,0,0,0,16.594,154.933ZM3.516,153.406H14.484a.7.7,0,0,1,.7.7v.7H2.813v-.7A.7.7,0,0,1,3.516,153.406Zm13.078,9.141a.7.7,0,0,1-.7.7h-4.9a2.11,2.11,0,0,0-3.978,0h-4.9a.7.7,0,0,1-.7-.7v-5.625a.7.7,0,0,1,.7-.7H15.891a.7.7,0,0,1,.7.7Z" transform="translate(0 -146.656)" fill="#fff"/>
  <path id="Path_77277" data-name="Path 77277" d="M82.109,312a2.109,2.109,0,1,0,2.109,2.109A2.112,2.112,0,0,0,82.109,312Zm0,2.813a.7.7,0,1,1,.7-.7A.7.7,0,0,1,82.109,314.813Z" transform="translate(-77.188 -301.031)" fill="#fff"/>
  <path id="Path_77278" data-name="Path 77278" d="M314.109,312a2.109,2.109,0,1,0,2.109,2.109A2.112,2.112,0,0,0,314.109,312Zm0,2.813a.7.7,0,1,1,.7-.7A.7.7,0,0,1,314.109,314.813Z" transform="translate(-301.031 -301.031)" fill="#fff"/>
</svg>
