<svg xmlns="http://www.w3.org/2000/svg" width="18" height="18" viewBox="0 0 18 18">
  <g id="_x30_6" transform="translate(-2 -2)">
    <path id="Path_77271" data-name="Path 77271" d="M12.214,12H9.643A.643.643,0,0,0,9,12.643v2.571a.643.643,0,0,0,.643.643h2.571a.643.643,0,0,0,.643-.643V12.643A.643.643,0,0,0,12.214,12Zm-.643,2.571H10.286V13.286h1.286Z" transform="translate(-2.5 -3.571)" fill="#fff"/>
    <path id="Path_77272" data-name="Path 77272" d="M17.643,15.857h2.571a.643.643,0,0,0,.643-.643V12.643A.643.643,0,0,0,20.214,12H17.643a.643.643,0,0,0-.643.643v2.571A.643.643,0,0,0,17.643,15.857Zm.643-2.571h1.286v1.286H18.286Z" transform="translate(-5.357 -3.571)" fill="#fff"/>
    <path id="Path_77273" data-name="Path 77273" d="M18.714,17.429a1.281,1.281,0,0,0-1.107.643H14.214V16.786h.643a.643.643,0,0,0,.643-.643V14.857a4.5,4.5,0,0,0,.48-8.974,5.135,5.135,0,0,0-9.961,0,4.5,4.5,0,0,0,.48,8.974v1.286a.643.643,0,0,0,.643.643h.643v1.286H4.393a1.286,1.286,0,1,0,0,1.286H8.429a.643.643,0,0,0,.643-.643V16.786h.643a.643.643,0,0,0,.643-.643V13.571a.643.643,0,0,0-.643-.643H7.143a.643.643,0,0,0-.643.643,3.214,3.214,0,0,1-.63-6.365.638.638,0,0,0,1.273-.064,3.857,3.857,0,1,1,7.714,0,.638.638,0,0,0,1.273.064,3.214,3.214,0,0,1-.63,6.365.643.643,0,0,0-.643-.643H12.286a.643.643,0,0,0-.643.643v2.571a.643.643,0,0,0,.643.643h.643v1.929a.643.643,0,0,0,.643.643h4.036a1.283,1.283,0,1,0,1.107-1.929ZM9.071,14.214V15.5H7.786V14.214Zm3.857,0h1.286V15.5H12.929Z" fill="#fff"/>
  </g>
</svg>
