<svg id="Mobile_Commerce_App_Development" data-name="Mobile Commerce App Development" xmlns="http://www.w3.org/2000/svg" width="29.214" height="26.263" viewBox="0 0 29.214 26.263">
  <g id="Group_1036" data-name="Group 1036" transform="translate(0 0)">
    <circle id="Ellipse_3" data-name="Ellipse 3" cx="1.806" cy="1.806" r="1.806" transform="translate(8.95 22.65)" fill="#fff"/>
    <circle id="Ellipse_4" data-name="Ellipse 4" cx="1.806" cy="1.806" r="1.806" transform="translate(19.479 22.65)" fill="#fff"/>
    <path id="Path_1927" data-name="Path 1927" d="M277.587,115.393H255.94l-.915-3.539h-5.6c-.715,0-1.056.732-1.056,1.447s.4,1.382,1.111,1.382h3.389l4.68,18.106h14.971c.719,0,1.321-.222,1.3-1.565a1.38,1.38,0,0,0-1.352-1.382H259.7l-.316-1.622h14.433Zm-19.007,10.236-1.72-6.917h16.96l-1.953,6.917Z" transform="translate(-248.373 -111.854)" fill="#fff"/>
  </g>
</svg>
