<svg xmlns="http://www.w3.org/2000/svg" width="25.653" height="26.136" viewBox="0 0 25.653 26.136">
  <g id="Building_an_MVP" data-name="Building an MVP" transform="translate(-451.552 -1080.06)">
    <g id="Group_1019" data-name="Group 1019" transform="translate(451.552 1080.06)">
      <g id="Group_651" data-name="Group 651" transform="translate(0 0)">
        <g id="Group_1027" data-name="Group 1027">
          <path id="Path_2495" data-name="Path 2495" d="M184.766,127.647v20.847l12.775,5.289L210.42,148.5V127.655l-12.874,5.283Zm22.992,3.976v15.09l-8.884,3.648V135.269Zm-20.331,0,8.785,3.636v15.088l-8.785-3.636Z" transform="translate(-184.766 -127.647)" fill="#fff"/>
          <g id="Group_1026" data-name="Group 1026" transform="translate(3.243 7.815)">
            <g id="Group_1020" data-name="Group 1020" transform="translate(0 0)">
              <path id="Path_2496" data-name="Path 2496" d="M195.111,141.319a1.056,1.056,0,0,1-.359-.062l-5.273-1.889a1.065,1.065,0,1,1,.718-2.005l5.274,1.889a1.065,1.065,0,0,1-.359,2.067Z" transform="translate(-188.773 -137.301)" fill="#fff"/>
            </g>
            <g id="Group_1021" data-name="Group 1021" transform="translate(0 3.48)">
              <path id="Path_2497" data-name="Path 2497" d="M195.111,145.618a1.057,1.057,0,0,1-.359-.062l-5.273-1.889a1.065,1.065,0,1,1,.718-2.005l5.274,1.889a1.065,1.065,0,0,1-.359,2.067Z" transform="translate(-188.773 -141.6)" fill="#fff"/>
            </g>
            <g id="Group_1022" data-name="Group 1022" transform="translate(0 6.957)">
              <path id="Path_2498" data-name="Path 2498" d="M195.111,149.916a1.058,1.058,0,0,1-.359-.066l-5.273-1.888a1.065,1.065,0,1,1,.718-2.005l5.274,1.888a1.066,1.066,0,0,1-.359,2.068Z" transform="translate(-188.773 -145.895)" fill="#fff"/>
            </g>
            <g id="Group_1023" data-name="Group 1023" transform="translate(11.764 0)">
              <path id="Path_2499" data-name="Path 2499" d="M204.37,141.319a1.065,1.065,0,0,1-.359-2.067l5.274-1.888a1.065,1.065,0,1,1,.718,2.005l-5.273,1.888A1.056,1.056,0,0,1,204.37,141.319Z" transform="translate(-203.305 -137.301)" fill="#fff"/>
            </g>
            <g id="Group_1024" data-name="Group 1024" transform="translate(11.764 3.48)">
              <path id="Path_2500" data-name="Path 2500" d="M204.37,145.618a1.065,1.065,0,0,1-.359-2.067l5.274-1.889a1.065,1.065,0,1,1,.718,2.005l-5.273,1.888a1.058,1.058,0,0,1-.36.063Z" transform="translate(-203.305 -141.6)" fill="#fff"/>
            </g>
            <g id="Group_1025" data-name="Group 1025" transform="translate(11.766 6.96)">
              <path id="Path_2501" data-name="Path 2501" d="M204.371,149.917a1.066,1.066,0,0,1-.359-2.068l5.274-1.888a1.065,1.065,0,1,1,.718,2.005l-5.273,1.888A1.057,1.057,0,0,1,204.371,149.917Z" transform="translate(-203.307 -145.899)" fill="#fff"/>
            </g>
          </g>
        </g>
      </g>
    </g>
  </g>
</svg>
