<svg xmlns="http://www.w3.org/2000/svg" width="28.654" height="26.264" viewBox="0 0 28.654 26.264">
  <g id="noun_Heart_25955" transform="translate(-1 -5.088)">
    <path id="Path_13890" data-name="Path 13890" d="M15.327,31.351l-.649-.413C14.12,30.583,1,22.147,1,14.328,1,9.351,3.293,5.945,7.135,5.219a8.139,8.139,0,0,1,8.9,4.821,1.208,1.208,0,1,1-2.25.882,5.662,5.662,0,0,0-6.2-3.329c-2.648.5-4.167,2.956-4.167,6.735,0,5.085,8.062,11.56,11.911,14.147,3.848-2.587,11.911-9.062,11.911-14.147,0-3.074-1.016-5.3-2.861-6.282a5.474,5.474,0,0,0-5.552.483,1.208,1.208,0,0,1-1.359-2,7.912,7.912,0,0,1,8.041-.62c1.549.82,4.147,3,4.147,8.417,0,7.819-13.12,16.256-13.678,16.611Z" fill="#fff"/>
  </g>
</svg>
