<svg xmlns="http://www.w3.org/2000/svg" width="20.574" height="18" viewBox="0 0 20.574 18">
  <g id="iot_1_" data-name="iot (1)" transform="translate(0 -32.023)">
    <path id="Path_77264" data-name="Path 77264" d="M395.483,158.253h-4.878v1.205h1.829v6.65h1.206v-6.65h1.844Z" transform="translate(-374.909 -121.158)" fill="#fff"/>
    <path id="Path_77265" data-name="Path 77265" d="M4.037,164.9H2.621v-5.445H4.037v-1.205H0v1.205H1.416V164.9H0v1.205H4.037Z" transform="translate(0 -121.158)" fill="#fff"/>
    <path id="Path_77266" data-name="Path 77266" d="M149.669,166.108a3.928,3.928,0,1,0-3.928-3.928A3.932,3.932,0,0,0,149.669,166.108Zm0-6.65a2.722,2.722,0,1,1-2.722,2.722A2.725,2.725,0,0,1,149.669,159.458Z" transform="translate(-139.885 -121.158)" fill="#fff"/>
    <path id="Path_77267" data-name="Path 77267" d="M138.73,95.138a6.441,6.441,0,0,0-4.386,1.72l.819.885a5.246,5.246,0,0,1,7.134,0l.819-.885A6.441,6.441,0,0,0,138.73,95.138Z" transform="translate(-128.946 -60.579)" fill="#fff"/>
    <path id="Path_77268" data-name="Path 77268" d="M97.632,33.228A7.766,7.766,0,0,1,102.92,35.3l.819-.885a8.982,8.982,0,0,0-12.212,0l.819.885A7.766,7.766,0,0,1,97.632,33.228Z" transform="translate(-87.848)" fill="#fff"/>
    <path id="Path_77269" data-name="Path 77269" d="M138.73,354.641a6.441,6.441,0,0,0,4.386-1.72l-.819-.885a5.246,5.246,0,0,1-7.134,0l-.819.885A6.441,6.441,0,0,0,138.73,354.641Z" transform="translate(-128.946 -307.154)" fill="#fff"/>
    <path id="Path_77270" data-name="Path 77270" d="M97.632,400.43a7.766,7.766,0,0,1-5.288-2.074l-.819.885a8.982,8.982,0,0,0,12.212,0l-.819-.885A7.766,7.766,0,0,1,97.632,400.43Z" transform="translate(-87.848 -351.613)" fill="#fff"/>
  </g>
</svg>
