<svg width="20" height="21" viewBox="0 0 20 21" fill="none" xmlns="http://www.w3.org/2000/svg">
<g clip-path="url(#clip0_7141_608)">
<path d="M5.35162 12.9203C5.53838 12.8125 5.60232 12.5734 5.49459 12.3867C5.38671 12.2001 5.14776 12.136 4.96099 12.2437C4.77422 12.3516 4.71014 12.5907 4.81802 12.7773C4.92574 12.9641 5.16485 13.0282 5.35162 12.9203Z" fill="white"/>
<path d="M3.74938 15.6171L5.71655 19.0246C6.14105 19.7607 7.09594 20.0332 7.8511 19.5966C8.59832 19.1648 8.85513 18.2101 8.42285 17.4622L7.25097 15.4322L8.26583 14.8463C8.4526 14.7382 8.51669 14.4994 8.40881 14.3127L7.90084 13.4328C7.96142 13.4211 8.35968 13.343 15.3828 11.9652C16.2511 11.9181 16.7712 10.9685 16.3327 10.2094L15.0345 7.96088L15.8641 6.70432C15.9456 6.58072 15.9505 6.42188 15.8765 6.2937L15.0952 4.94055C15.0212 4.81238 14.8807 4.7373 14.7334 4.746L13.2306 4.83618L11.7894 2.33984C11.5807 1.97821 11.2067 1.75925 10.7892 1.75406C10.7841 1.75391 10.7793 1.75391 10.7742 1.75391C10.3708 1.75391 10.0046 1.95471 9.78759 2.29422L4.68475 8.79477L1.36733 10.7101C0.0625548 11.4631 -0.389411 13.137 0.36651 14.4453C1.05712 15.6415 2.51312 16.1121 3.74938 15.6171ZM7.74642 17.853C7.96218 18.2262 7.83447 18.7038 7.46017 18.92C7.08465 19.1372 6.60644 19.0038 6.39312 18.6341L4.44 15.2508L5.79315 14.4695C8.05358 18.3852 7.71011 17.7903 7.74642 17.853ZM6.86035 14.7555L6.46972 14.0789L7.1463 13.6883L7.53692 14.3648L6.86035 14.7555ZM14.5393 5.54022L15.0792 6.47528L14.5978 7.20435L13.6673 5.59256L14.5393 5.54022ZM10.441 2.72253C10.5458 2.55103 10.7121 2.53333 10.7796 2.53516C10.8462 2.53592 11.0124 2.55667 11.1127 2.73032L15.6561 10.6C15.8041 10.8562 15.6242 11.1783 15.3274 11.1857C15.2742 11.1869 15.2496 11.1965 15.1132 11.222L10.3072 2.89755C10.408 2.76785 10.421 2.75534 10.441 2.72253ZM9.78729 3.55978L14.3028 11.381L7.48794 12.7177L5.4158 9.12863L9.78729 3.55978ZM1.04308 14.0546C0.871576 13.7578 0.780939 13.4209 0.780939 13.08C0.780939 12.3833 1.15539 11.7345 1.75796 11.3866L4.80255 9.62881L6.75567 13.0117L3.71108 14.7697C2.77831 15.308 1.58157 14.9872 1.04308 14.0546Z" fill="white"/>
<path d="M4.14461 13.168C4.03674 12.9813 3.79778 12.9172 3.61102 13.025L2.93444 13.4157C2.74798 13.5234 2.50857 13.4592 2.40084 13.2727C2.29296 13.0859 2.05401 13.0218 1.86724 13.1297C1.68047 13.2376 1.61639 13.4766 1.72427 13.6633C2.04577 14.2203 2.76293 14.4166 3.32507 14.0922L4.00164 13.7016C4.18841 13.5937 4.25249 13.3549 4.14461 13.168Z" fill="white"/>
<path d="M19.4243 2.58848L17.2476 3.79972C17.0592 3.9047 16.9913 4.14259 17.0963 4.33104C17.2009 4.51933 17.4387 4.58754 17.6276 4.4824L19.8041 3.27116C19.9927 3.16618 20.0604 2.92829 19.9555 2.73985C19.8506 2.55125 19.6127 2.4835 19.4243 2.58848Z" fill="white"/>
<path d="M19.1887 6.63262L17.6794 6.22826C17.471 6.17241 17.2568 6.29601 17.2009 6.50444C17.1451 6.71288 17.2688 6.92696 17.4772 6.98281L18.9866 7.38716C19.1963 7.44347 19.4095 7.31789 19.465 7.11098C19.5209 6.90255 19.3971 6.68831 19.1887 6.63262Z" fill="white"/>
<path d="M15.4026 1.16851L14.9978 2.67791C14.9419 2.88634 15.0655 3.10042 15.274 3.15642C15.4823 3.21212 15.6965 3.08882 15.7525 2.88024L16.1572 1.37084C16.213 1.1624 16.0894 0.94817 15.881 0.892322C15.6727 0.836475 15.4585 0.960071 15.4026 1.16851Z" fill="white"/>
</g>
<defs>
<clipPath id="clip0_7141_608">
<rect width="20" height="20" fill="white" transform="translate(0 0.332031)"/>
</clipPath>
</defs>
</svg>
