<svg width="27" height="33" viewBox="0 0 27 33" fill="none" xmlns="http://www.w3.org/2000/svg">
<path d="M24.5971 15.832L14.6719 21.5631L16.8583 24.5098L26.7836 18.7799L24.5971 15.832Z" fill="white"/>
<path d="M13.3931 20.2901L21.4747 15.6239V0.389726C21.4747 0.174565 21.299 0 21.085 0H5.70125C5.48609 0 5.31152 0.174565 5.31152 0.389726V15.625L13.3931 20.2901ZM19.2645 14.8398H16.0748C15.5946 14.8398 15.2049 14.4506 15.2049 13.9698C15.2049 13.4891 15.5946 13.0999 16.0748 13.0999H19.2645C19.7447 13.0999 20.1345 13.4891 20.1345 13.9698C20.1345 14.4506 19.7447 14.8398 19.2645 14.8398ZM20.1345 5.06934C20.1345 5.55012 19.7447 5.93927 19.2645 5.93927H17.1141C16.6339 5.93927 16.2442 5.55012 16.2442 5.06934C16.2442 4.58857 16.6339 4.19942 17.1141 4.19942H19.2645C19.7447 4.19942 20.1345 4.58857 20.1345 5.06934ZM17.5856 8.03579C17.5856 8.51657 17.1959 8.90572 16.7157 8.90572H12.2332C11.7524 8.90572 11.3633 8.51657 11.3633 8.03579C11.3633 7.55501 11.7524 7.16586 12.2332 7.16586H16.7157C17.1964 7.16586 17.5856 7.55501 17.5856 8.03579ZM14.4742 1.23239H17.1141C17.5943 1.23239 17.984 1.62154 17.984 2.10232C17.984 2.5831 17.5943 2.97224 17.1141 2.97224H14.4742C13.994 2.97224 13.6042 2.5831 13.6042 2.10232C13.6042 1.62154 13.994 1.23239 14.4742 1.23239ZM7.15808 1.23239H11.5384C12.0192 1.23239 12.4084 1.62154 12.4084 2.10232C12.4084 2.5831 12.0192 2.97224 11.5384 2.97224H7.15808C6.67731 2.97224 6.28816 2.5831 6.28816 2.10232C6.28816 1.62154 6.67731 1.23239 7.15808 1.23239ZM7.15808 4.19942H14.0079C14.4881 4.19942 14.8778 4.58857 14.8778 5.06934C14.8778 5.55012 14.4881 5.93927 14.0079 5.93927H7.15808C6.67731 5.93927 6.28816 5.55012 6.28816 5.06934C6.28816 4.58857 6.67731 4.19942 7.15808 4.19942ZM7.15808 7.16586H9.34856C9.82934 7.16586 10.2185 7.55501 10.2185 8.03579C10.2185 8.51657 9.82876 8.90572 9.34856 8.90572H7.15808C6.67731 8.90572 6.28816 8.51657 6.28816 8.03579C6.28816 7.55501 6.67731 7.16586 7.15808 7.16586ZM7.15808 10.1329H17.5566C18.0362 10.1329 18.4265 10.522 18.4265 11.0028C18.4265 11.4836 18.0362 11.8727 17.5566 11.8727H7.15808C6.67731 11.8727 6.28816 11.4836 6.28816 11.0028C6.28816 10.522 6.67731 10.1329 7.15808 10.1329ZM7.15808 13.0999H13.2911C13.7718 13.0999 14.161 13.4891 14.161 13.9698C14.161 14.4506 13.7707 14.8398 13.2911 14.8398H7.15808C6.67731 14.8398 6.28816 14.4506 6.28816 13.9698C6.28816 13.4891 6.67731 13.0999 7.15808 13.0999Z" fill="white"/>
<path d="M2.18641 15.832L0 18.7805L9.92527 24.5098L12.1117 21.5625L2.18641 15.832Z" fill="white"/>
<path d="M16.9434 26.4482C16.9179 26.4586 16.8935 26.472 16.8674 26.4795C16.7862 26.5039 16.7039 26.5184 16.621 26.5184C16.5496 26.5184 16.4794 26.5079 16.411 26.4911C16.3884 26.4853 16.3681 26.4755 16.3466 26.4679C16.3014 26.4528 16.2567 26.4366 16.2138 26.414C16.1889 26.4012 16.1663 26.3832 16.1425 26.3676C16.1065 26.3438 16.0717 26.3194 16.0393 26.2899C16.0166 26.2696 15.9964 26.2464 15.9761 26.2232C15.9587 26.2035 15.9384 26.1878 15.9221 26.1663L14.2617 23.9277V32.9999L23.9643 27.3982V22.4141L17.0559 26.4024C17.02 26.4233 16.9811 26.4331 16.9434 26.4482Z" fill="white"/>
<path d="M12.5223 23.9266L10.8607 26.1658C10.8457 26.1855 10.8265 26.2006 10.8109 26.2185C10.7882 26.2441 10.7668 26.269 10.7419 26.2916C10.7111 26.3194 10.6781 26.3426 10.6438 26.3653C10.6189 26.3821 10.5951 26.4006 10.5684 26.4146C10.5267 26.4366 10.4832 26.4517 10.4385 26.4673C10.4159 26.4749 10.395 26.4853 10.3718 26.4911C10.3028 26.5079 10.2327 26.5184 10.1619 26.5184C10.0795 26.5184 9.9972 26.5039 9.916 26.4795C9.88933 26.4714 9.86497 26.4586 9.83887 26.4476C9.80175 26.4325 9.76348 26.4221 9.72752 26.4018L2.82031 22.4141V27.3976L12.5229 32.9999L12.5223 23.9266Z" fill="white"/>
</svg>
