<svg width="20" height="20" viewBox="0 0 20 20" fill="none" xmlns="http://www.w3.org/2000/svg">
<g clip-path="url(#clip0_7144_647)">
<path d="M19.6547 5.74319L14.971 1.05202C14.7472 0.827609 14.4489 0.703857 14.1314 0.703857C13.8809 0.703857 13.6375 0.783306 13.4359 0.929209L13.306 1.00327L7.2795 1.83216C7.14147 1.83728 7.00776 1.85916 6.87996 1.89539L6.66848 1.69656C6.6598 1.68842 6.65091 1.6804 6.64189 1.67266C6.42684 1.48764 6.1522 1.38577 5.86847 1.38577C5.55108 1.38577 5.25275 1.50952 5.02861 1.73427L0.34551 6.42484C-0.0732115 6.8445 -0.116639 7.51524 0.244179 7.9852C0.256635 8.00129 0.26963 8.01704 0.283163 8.03219L2.29268 10.2755C2.35778 10.5469 2.44706 10.8265 2.55863 11.1131C2.07123 11.7001 2.10193 12.5751 2.65188 13.1253C2.65282 13.1262 2.65376 13.1271 2.65471 13.128L2.66124 13.1345C2.93722 13.4095 3.30174 13.5626 3.69017 13.5694C3.68296 13.6296 3.67798 13.6901 3.67798 13.7516C3.67798 14.1503 3.83297 14.5252 4.11448 14.8077L4.12047 14.8137C4.12141 14.8147 4.12229 14.8156 4.12323 14.8166C4.40581 15.0992 4.78151 15.2549 5.18118 15.2549C5.2275 15.2549 5.27328 15.2523 5.31886 15.2482C5.32331 15.2532 5.32809 15.2583 5.3326 15.2634C5.33179 15.2836 5.32964 15.3037 5.32964 15.324C5.32964 15.7229 5.4847 16.0979 5.76627 16.3803L5.77246 16.3866C5.77334 16.3875 5.77415 16.3883 5.77502 16.3892C6.05754 16.6717 6.43323 16.8273 6.8329 16.8273C6.83391 16.8273 6.83485 16.8272 6.83586 16.8272L6.97847 16.9698C6.99503 17.3441 7.14686 17.6938 7.41348 17.9604C7.41517 17.962 7.41692 17.9638 7.4186 17.9654L7.42378 17.9706C7.68987 18.2352 8.03837 18.3858 8.41104 18.4023L8.80525 18.7966C9.12729 19.1187 9.55644 19.296 10.0136 19.296C10.5397 19.296 11.0287 19.0595 11.3551 18.647C11.5326 18.4229 11.6443 18.1655 11.6919 17.899L11.9394 18.1466C12.2665 18.4736 12.7182 18.6612 13.1787 18.6612C13.559 18.6612 13.9309 18.5326 14.226 18.299C14.5538 18.0396 14.7737 17.6699 14.8475 17.2631C15.1636 17.5335 15.5723 17.6865 15.9882 17.6865C16.3684 17.6865 16.7404 17.5578 17.0355 17.3243C17.4178 17.0216 17.6533 16.569 17.6816 16.0824C17.7078 15.6303 17.554 15.1874 17.2572 14.8512C17.5317 14.8028 17.7919 14.6875 18.0102 14.5148C18.3926 14.2122 18.6281 13.7595 18.6563 13.273C18.6846 12.7856 18.5036 12.3088 18.1597 11.965L17.5246 11.3299C17.5478 11.3068 17.5699 11.2827 17.5903 11.2567C18.7796 9.74128 19.4201 8.61385 19.6562 7.61637C19.6747 7.58378 19.6911 7.54984 19.7049 7.51483L19.8361 7.18438C20.107 6.72546 20.039 6.12832 19.6547 5.74319ZM3.71703 12.7628C3.54096 12.7628 3.36496 12.6956 3.23051 12.5613L3.22324 12.5541C2.95466 12.2855 2.95466 11.8498 3.22324 11.5812L3.76147 11.043C3.89579 10.9086 4.07179 10.8414 4.24792 10.8414C4.42406 10.8414 4.60012 10.9086 4.73458 11.043L4.74165 11.0502C5.01043 11.3188 5.01043 11.7545 4.74165 12.0231L4.20355 12.5613C4.06916 12.6956 3.8931 12.7628 3.71703 12.7628ZM5.66777 14.2453C5.53338 14.3797 5.35731 14.4469 5.18118 14.4469C5.00511 14.4469 4.82904 14.3797 4.69459 14.2453L4.68745 14.2381C4.41874 13.9694 4.41874 13.5338 4.68745 13.2651L5.96078 11.9918C6.09524 11.8574 6.27131 11.7902 6.44744 11.7902C6.62357 11.7902 6.79964 11.8574 6.93403 11.9918L6.94123 11.9989C7.20988 12.2676 7.20988 12.7033 6.94123 12.9719L5.66777 14.2453ZM7.31936 15.8178C7.1851 15.9522 7.00903 16.0193 6.8329 16.0193C6.65677 16.0193 6.4807 15.9522 6.34638 15.8178L6.33911 15.8106C6.0704 15.5419 6.0704 15.1062 6.33911 14.8375L7.16315 14.0133C7.29754 13.879 7.47354 13.8119 7.64967 13.8119C7.82574 13.8119 8.00181 13.879 8.13626 14.0133L8.14353 14.0206C8.41211 14.2893 8.41211 14.725 8.14353 14.9937L7.31936 15.8178ZM8.4785 17.5976C8.30243 17.5976 8.12643 17.5304 7.99204 17.3961L7.98477 17.389C7.71599 17.1203 7.71599 16.6845 7.98477 16.4158L8.3596 16.041C8.49399 15.9067 8.67005 15.8395 8.84618 15.8395C9.02225 15.8395 9.19839 15.9067 9.33278 16.041L9.33998 16.0483C9.60856 16.317 9.60856 16.7526 9.33998 17.0213L8.96509 17.3961C8.83063 17.5304 8.65457 17.5976 8.4785 17.5976ZM10.7216 18.1456C10.5409 18.3739 10.2773 18.488 10.0137 18.488C9.78274 18.488 9.5518 18.4005 9.37661 18.2253L9.30699 18.1557C9.38859 18.1012 9.46541 18.0384 9.53631 17.9674L9.91107 17.5927C10.175 17.3287 10.3182 16.9897 10.3433 16.6437L10.6314 16.9318C10.958 17.2582 11.0082 17.7836 10.7216 18.1456ZM17.5884 12.5362C17.9637 12.9114 17.9371 13.5422 17.5088 13.8812C17.3483 14.0082 17.156 14.069 16.9629 14.069C16.7203 14.069 16.4768 13.9729 16.295 13.791L13.0283 10.5243C12.9434 10.4395 12.8324 10.3971 12.7212 10.3971C12.6101 10.3971 12.4989 10.4395 12.4141 10.5243C12.2423 10.696 12.2423 10.9744 12.4141 11.146L16.6136 15.3456C16.9888 15.7208 16.9623 16.3516 16.534 16.6907C16.3735 16.8176 16.1812 16.8785 15.9882 16.8785C15.7455 16.8785 15.502 16.7823 15.3202 16.6005L11.1403 12.4206C11.0544 12.3347 10.9417 12.2917 10.829 12.2917C10.7164 12.2917 10.6038 12.3347 10.5178 12.4206C10.3484 12.59 10.3484 12.8646 10.5178 13.034L13.8042 16.3204C14.1793 16.6955 14.1528 17.3263 13.7245 17.6653C13.5641 17.7923 13.3717 17.8531 13.1787 17.8531C12.936 17.8531 12.6926 17.757 12.5107 17.5751L9.11463 14.179C9.05484 13.9114 8.92254 13.657 8.71483 13.4492L8.70749 13.4418C8.47305 13.2075 8.1743 13.0622 7.85153 13.0189C7.91569 12.8506 7.95064 12.6709 7.95064 12.4854C7.95064 12.0858 7.79504 11.7101 7.51252 11.4275C7.51172 11.4267 7.51091 11.4259 7.5101 11.4251L7.50377 11.4189C7.22139 11.1372 6.84623 10.9821 6.44737 10.9821C6.1831 10.9821 5.92995 11.0514 5.70668 11.1793C5.64279 10.9179 5.51055 10.6774 5.3159 10.4818L5.31105 10.4769C5.3093 10.4751 5.30755 10.4733 5.3058 10.4715C5.02322 10.189 4.64752 10.0333 4.24786 10.0333C3.84812 10.0333 3.47242 10.189 3.18991 10.4717L3.18755 10.4741C3.13537 10.3117 3.09107 10.1508 3.05653 9.99195C3.04434 9.9364 3.02098 9.88416 2.9863 9.83905L0.885021 7.49309C0.769483 7.34267 0.783219 7.12991 0.917137 6.99566L5.60071 2.30475C5.6743 2.23096 5.77118 2.19372 5.86854 2.19372C5.95614 2.19372 6.04387 2.22395 6.11503 2.28516L6.15213 2.31997C5.83851 2.62854 5.64346 3.05722 5.64346 3.53082C5.64346 4.46623 6.40273 5.22745 7.33733 5.23075L10.3209 5.26859L17.5884 12.5362ZM19.1149 6.81117L18.9539 7.21677C18.9192 7.26188 18.8958 7.31406 18.8837 7.36967C18.6561 8.41402 17.8539 9.61208 16.9547 10.7578C15.8108 9.6139 10.6643 4.46488 10.6643 4.46488L7.34339 4.42273C6.85283 4.42273 6.45141 4.02131 6.45141 3.53075C6.45141 3.04019 6.85283 2.63884 7.34339 2.63884L13.5702 1.78241C13.5709 1.78234 13.5715 1.782 13.572 1.7816L13.8848 1.60318C13.9559 1.54197 14.0437 1.51174 14.1313 1.51174C14.2285 1.51174 14.3255 1.54904 14.3991 1.62277L19.0827 6.31368C19.2167 6.448 19.2304 6.66076 19.1149 6.81117Z" fill="white"/>
</g>
<defs>
<clipPath id="clip0_7144_647">
<rect width="20" height="20" fill="white"/>
</clipPath>
</defs>
</svg>
