<svg width="19" height="33" viewBox="0 0 19 33" fill="none" xmlns="http://www.w3.org/2000/svg">
<path d="M6.94134 1.8271H12.0505C12.3299 1.8271 12.5838 1.71294 12.7678 1.52885C12.9519 1.34477 13.0661 1.0909 13.0661 0.811512V0H5.92578V0.811532C5.92578 1.09091 6.03995 1.34479 6.22401 1.52887C6.40809 1.71293 6.66195 1.8271 6.94134 1.8271Z" fill="white"/>
<path d="M18.9989 28.9582V0H13.9697V0.811532C13.9697 1.34049 13.7542 1.82049 13.4066 2.16809C13.0591 2.51568 12.5791 2.7312 12.0501 2.7312H6.94094C6.412 2.7312 5.93198 2.51568 5.58439 2.1681C5.23681 1.82051 5.0213 1.34049 5.0213 0.811552V0H0V28.9582H18.9989ZM15.3667 15.7967C15.3669 15.8108 15.367 15.8248 15.367 15.8389C15.367 15.8543 15.3668 15.8697 15.3667 15.8851C15.3261 16.2827 14.7423 16.6831 13.8188 17.0135C13.3361 17.1862 12.7706 17.3299 12.1445 17.4367C12.191 16.9254 12.2157 16.3907 12.2157 15.8408C12.2157 15.2908 12.191 14.7562 12.1445 14.2449C12.7706 14.3517 13.3361 14.4954 13.8188 14.6681C14.7424 14.9985 15.3263 15.399 15.3667 15.7967ZM13.649 11.6913L13.6491 11.6913C14.3991 12.4413 14.9035 13.3439 15.1623 14.2992C14.8657 14.1196 14.5164 13.9579 14.1225 13.817C13.5259 13.6035 12.8172 13.4309 12.0322 13.3119C11.9132 12.5269 11.7406 11.8183 11.5271 11.2216C11.3857 10.8262 11.2233 10.4758 11.0429 10.1784C11.9975 10.4374 12.8994 10.9417 13.649 11.6912L13.649 11.6913ZM7.96465 10.1771C7.7839 10.4747 7.62122 10.8257 7.47956 11.2216C7.2661 11.8183 7.09348 12.5269 6.97451 13.3119C6.18949 13.4309 5.48083 13.6036 4.88417 13.817C4.48815 13.9587 4.13716 14.1214 3.83952 14.3022C4.09816 13.3458 4.60283 12.4421 5.3536 11.6913L5.35365 11.6913L5.35369 11.6912C6.10451 10.9404 7.00823 10.4357 7.96465 10.1771ZM3.84075 17.3801C4.13811 17.5606 4.48868 17.7231 4.88417 17.8646C5.48085 18.078 6.18951 18.2506 6.97451 18.3696C7.09348 19.1546 7.2661 19.8633 7.47956 20.4599C7.62051 20.8539 7.78228 21.2033 7.96193 21.5C7.00652 21.2412 6.10378 20.7367 5.35369 19.9867L5.35365 19.9866L5.3536 19.9866C4.60398 19.2369 4.09971 18.3348 3.84075 17.3801ZM9.46095 21.7043C9.06273 21.6654 8.66157 21.0812 8.33064 20.1562C8.15794 19.6735 8.01423 19.108 7.90742 18.4819C8.41878 18.5284 8.95342 18.5531 9.50335 18.5531C10.0533 18.5531 10.5879 18.5284 11.0993 18.4819C10.9925 19.108 10.8488 19.6735 10.6761 20.1562C10.3452 21.081 9.94414 21.6651 9.546 21.7043C9.53112 21.7044 9.51621 21.7046 9.50133 21.7046C9.48787 21.7046 9.47441 21.7044 9.46095 21.7043ZM11.0456 21.4987C11.2249 21.2023 11.3864 20.8533 11.5271 20.4599C11.7406 19.8633 11.9132 19.1546 12.0322 18.3696C12.8172 18.2506 13.5259 18.078 14.1225 17.8646C14.5159 17.7238 14.8647 17.5624 15.1611 17.3831C14.9019 18.3367 14.3979 19.2377 13.6491 19.9865L13.649 19.9866L13.649 19.9866C12.9001 20.7355 11.9992 21.2395 11.0456 21.4987ZM14.2882 11.052L14.2882 11.0521L14.2883 11.0521C15.5902 12.3541 16.251 14.0544 16.2706 15.7607C16.2723 15.7872 16.2732 15.814 16.2732 15.8408C16.2732 15.8678 16.2722 15.8947 16.2706 15.9215C16.2499 17.6263 15.5891 19.3249 14.2883 20.6258L14.2882 20.6258L14.2882 20.6259C12.9866 21.9274 11.2869 22.5882 9.58121 22.6082C9.55538 22.6097 9.52942 22.6106 9.50335 22.6106C9.47748 22.6106 9.45172 22.6098 9.42609 22.6082C7.7188 22.5894 6.01722 21.9286 4.71449 20.6259L4.71444 20.6258L4.71439 20.6258C3.39254 19.3039 2.7316 17.5714 2.7316 15.8389C2.7316 14.1065 3.39254 12.374 4.71439 11.0521L4.71444 11.0521L4.71449 11.052C6.03635 9.73016 7.76886 9.0692 9.50133 9.0692C11.2338 9.0692 12.9663 9.73016 14.2882 11.052ZM11.2246 14.1196C11.2812 14.6647 11.3116 15.2423 11.3116 15.8408C11.3116 16.4393 11.2812 17.0168 11.2246 17.562C10.6794 17.6186 10.1019 17.649 9.50334 17.649C8.90482 17.649 8.32725 17.6186 7.78211 17.562C7.72549 17.0168 7.69511 16.4393 7.69511 15.8408C7.69511 15.2423 7.72551 14.6647 7.78213 14.1196C8.32728 14.063 8.90482 14.0326 9.50333 14.0326C10.1019 14.0326 10.6794 14.063 11.2246 14.1196ZM6.86216 14.2448C6.81573 14.7562 6.79104 15.2908 6.79104 15.8408C6.79104 16.3907 6.81573 16.9254 6.86216 17.4367C6.23607 17.3299 5.67058 17.1862 5.18786 17.0135C4.23006 16.6708 3.63762 16.2528 3.63762 15.8408C3.63762 15.4287 4.23007 15.0107 5.18786 14.6681C5.6706 14.4954 6.23608 14.3516 6.86216 14.2448ZM11.0993 13.1996C10.5879 13.1532 10.0533 13.1285 9.50335 13.1285C8.95342 13.1285 8.41878 13.1532 7.90742 13.1996C8.01422 12.5735 8.15795 12.008 8.33064 11.5253C8.67332 10.5675 9.09132 9.97506 9.50335 9.97506C9.91539 9.97506 10.3334 10.5675 10.6761 11.5253C10.8488 12.008 10.9925 12.5735 11.0993 13.1996Z" fill="white"/>
<path fill-rule="evenodd" clip-rule="evenodd" d="M11.8382 30.9762C12.0878 30.9762 12.2902 31.1786 12.2902 31.4282C12.2902 31.6779 12.0878 31.8803 11.8382 31.8803H7.15285C6.90321 31.8803 6.70082 31.6779 6.70082 31.4282C6.70082 31.1786 6.90322 30.9762 7.15285 30.9762H11.8382ZM0 33.001H18.9989V29.8633H0V33.001Z" fill="white"/>
</svg>
