<svg width="32" height="13" viewBox="0 0 32 13" fill="none" xmlns="http://www.w3.org/2000/svg">
<path d="M23.5508 9.8904L24.4752 7.55268H27.1444L25.8776 4.00647L27.462 0L31.9993 12.0483H28.653L27.8783 9.8904H23.5508Z" fill="white"/>
<path d="M20.6964 12.0486L25.5543 0H22.3337L19.0108 7.78623L16.6478 0H14.1722L11.6351 7.78623L9.84587 4.23796L8.22656 9.22782L9.87048 12.0495H13.0398L15.3327 5.06641L17.5186 12.0486H20.6964Z" fill="white"/>
<path d="M3.05703 7.91245H5.04067C5.58246 7.92007 6.12269 7.85236 6.64585 7.71126L7.15896 6.13069L8.59258 1.71341C8.48245 1.53913 8.35726 1.37483 8.21845 1.2224C7.48235 0.407467 6.40532 0 4.98735 0H0V12.0483H3.05703V7.91245ZM5.68274 2.77199C5.82945 2.92647 5.94331 3.10909 6.01745 3.30881C6.09158 3.50854 6.12444 3.72122 6.11405 3.93401C6.13678 4.35543 6.00151 4.77018 5.73469 5.09717C5.45747 5.41616 4.94702 5.57565 4.20333 5.57565H3.05703V2.33771H4.21176C4.90487 2.33771 5.3952 2.48247 5.68274 2.77199Z" fill="white"/>
</svg>
