<svg width="34" height="33" viewBox="0 0 34 33" fill="none" xmlns="http://www.w3.org/2000/svg">
<path d="M31.8889 12.9357H29.3504C29.0375 11.8925 28.6202 10.8841 28.0986 9.94521L29.9068 8.13699C30.3589 7.68493 30.3589 6.98946 29.9068 6.57218L26.4642 3.12961C26.0122 2.67756 25.3167 2.67756 24.8647 3.12961L23.0564 4.93783C22.0828 4.38145 21.0744 3.99895 20.0659 3.68599V1.11275C20.0659 0.486828 19.5791 0 18.9532 0H14.0849C13.459 0 12.9721 0.486828 12.9721 1.11275V3.65121C11.9289 3.9294 10.9205 4.34668 9.94685 4.90306L8.13863 3.09484C7.68658 2.64278 6.99111 2.64278 6.53905 3.09484L3.09648 6.53741C2.64443 6.98946 2.64443 7.68493 3.09648 8.13699L4.9047 9.94521C4.34832 10.9189 3.93104 11.9273 3.65286 12.9705H1.11439C0.488472 12.9705 -0.0331294 13.4921 0.00164407 14.0832V18.9515C0.00164407 19.5774 0.488472 20.0643 1.11439 20.0643H3.65286C3.93104 21.1075 4.34832 22.1159 4.9047 23.0548L3.09648 24.863C2.6792 25.2803 2.6792 26.0105 3.09648 26.4626L6.53905 29.9052C6.95633 30.3224 7.68658 30.3224 8.13863 29.9052L9.94685 28.0969C10.8857 28.6185 11.9289 29.0358 12.9374 29.3488V31.8872C12.9374 32.5132 13.4242 33 14.0501 33H18.9184C19.5443 33 20.0659 32.4784 20.0311 31.8872V29.3488C20.7266 29.1401 21.3873 28.8967 22.048 28.5838L17.91 24.411C15.4411 24.863 12.7635 24.098 10.851 22.1855C7.72135 19.0558 7.72135 13.9789 10.851 10.8493C13.9806 7.71971 19.0575 7.71971 22.1871 10.8493C24.0996 12.7619 24.8647 15.4046 24.4126 17.9083L28.6202 22.1159C28.9332 21.4552 29.1766 20.7597 29.3852 20.0643H31.9237C32.5496 20.0643 33.0712 19.5427 33.0364 18.9515V14.0832C33.0364 13.4225 32.5148 12.9357 31.8889 12.9357Z" fill="white"/>
<path d="M20.9003 18.012C21.4567 16.3776 21.0742 14.4999 19.7528 13.1785C18.6053 12.0309 17.0404 11.5789 15.58 11.8571C15.1975 11.9266 15.0584 12.4134 15.3365 12.6916L16.9709 14.326C17.7011 15.0562 17.7011 16.2037 16.9709 16.934C16.2407 17.6642 15.0931 17.6642 14.3629 16.934L12.7285 15.2996C12.4504 15.0215 11.9635 15.1605 11.894 15.5431C11.6506 17.0035 12.0678 18.6031 13.2154 19.7159C14.5368 21.0373 16.4145 21.385 18.0489 20.8634L25.4904 28.3049C26.2902 29.1047 27.5768 29.1047 28.3418 28.3049C29.1416 27.5051 29.1416 26.2185 28.3418 25.4535L20.9003 18.012Z" fill="white"/>
</svg>
