<svg xmlns="http://www.w3.org/2000/svg" width="53.72" height="48.445" viewBox="0 0 53.72 48.445">
  <g id="Group_2778" data-name="Group 2778" transform="translate(-111.121 -253.71)">
    <g id="Group_2776" data-name="Group 2776" transform="translate(122.651 253.71)">
      <path id="Path_18204" data-name="Path 18204" d="M229.826,331.362H249.1v15.862s-.294,1.412-1.412,1.412h-2.148v5.091a2.149,2.149,0,0,1-4.3,0v-4.944h-3.53v5.091a1.943,1.943,0,0,1-2.208,1.913,2.041,2.041,0,0,1-2.059-2.059v-5.033h-2.089a1.431,1.431,0,0,1-1.531-1.531Z" transform="translate(-224.235 -320.162)" fill="#70b333"/>
      <path id="Path_18205" data-name="Path 18205" d="M372.342,333.448a2.047,2.047,0,0,1,2.09-2.089,1.941,1.941,0,0,1,2.1,2.1v9.108a1.772,1.772,0,0,1-1.964,1.964c-2.17,0-2.229-1.434-2.229-2.052Z" transform="translate(-346.195 -320.159)" fill="#70b333"/>
      <path id="Path_18206" data-name="Path 18206" d="M191.061,333.448a2.046,2.046,0,0,1,2.09-2.089,1.941,1.941,0,0,1,2.1,2.1v9.108a1.772,1.772,0,0,1-1.965,1.964c-2.17,0-2.229-1.434-2.229-2.052Z" transform="translate(-191.061 -320.159)" fill="#70b333"/>
      <path id="Path_18207" data-name="Path 18207" d="M244,256.737l1.667-2.468c.282-.4-.071-.493-.071-.493-.235-.187-.423.141-.423.141l-1.729,2.572a11.014,11.014,0,0,0-8.132-.023c-.519-.749-1.863-2.68-1.958-2.736-.117-.071-.282.071-.282.071-.3.235-.164.352-.164.352l1.759,2.6a8.675,8.675,0,0,0-4.991,6.689h19.291A8.6,8.6,0,0,0,244,256.737Z" transform="translate(-224.106 -253.71)" fill="#70b333"/>
      <path id="Path_18208" data-name="Path 18208" d="M320.131,289.389a1.074,1.074,0,1,1-1.074-1.074A1.074,1.074,0,0,1,320.131,289.389Z" transform="translate(-299.677 -283.324)" fill="#fff"/>
      <path id="Path_18209" data-name="Path 18209" d="M262.883,289.389a1.074,1.074,0,1,1-1.074-1.074A1.075,1.075,0,0,1,262.883,289.389Z" transform="translate(-250.685 -283.324)" fill="#fff"/>
    </g>
    <g id="Group_2777" data-name="Group 2777" transform="translate(111.121 294.577)">
      <path id="Path_18210" data-name="Path 18210" d="M116.165,546.786v-1.58h-2.055s-1.656-.628-1.561-2.094a2.166,2.166,0,0,1,1.39-1.94H117.4v5.557h1.56v-7.156h-4.738a3.429,3.429,0,0,0-3.1,3.6,3.784,3.784,0,0,0,3.331,3.6Z" transform="translate(-111.121 -539.209)" fill="#515255"/>
      <path id="Path_18211" data-name="Path 18211" d="M434.655,545.142v1.446l4.107-.056a3.271,3.271,0,0,0,2.947-3.559s.179-3.273-2.928-3.559h-4.09v1.542h3.662a1.889,1.889,0,0,1,1.732,2.15,1.771,1.771,0,0,1-1.821,2.018Z" transform="translate(-387.99 -539.073)" fill="#515255"/>
      <path id="Path_18212" data-name="Path 18212" d="M237.593,544.56v1.446l4.106-.057a3.271,3.271,0,0,0,2.947-3.559s.179-3.274-2.929-3.558h-4.089v1.541h3.661a1.89,1.89,0,0,1,1.732,2.151,1.77,1.77,0,0,1-1.821,2.017Z" transform="translate(-219.351 -538.575)" fill="#515255"/>
      <path id="Path_18213" data-name="Path 18213" d="M178.54,544.57h-1.446l.057-4.378a3.381,3.381,0,0,1,3.559-3.14,3.332,3.332,0,0,1,3.559,3.121v4.358h-1.541v-3.9a1.948,1.948,0,0,0-2.151-1.846,1.8,1.8,0,0,0-2.017,1.941Z" transform="translate(-167.578 -537.051)" fill="#515255"/>
      <path id="Path_18214" data-name="Path 18214" d="M297.521,540.933V539.4h4.035a2.315,2.315,0,0,1,2.219,2.545,2.634,2.634,0,0,1-1.118,2.142.1.1,0,0,0-.038.166.362.362,0,0,0,.038.035,2.575,2.575,0,0,1,.9,2.313h-1.552s-.093-1.97-1.661-1.97h-2.871V542.92h3.849a.943.943,0,0,0,.869-1.056s.108-.946-1.055-.946Z" transform="translate(-270.596 -539.059)" fill="#515255"/>
      <path id="Path_18215" data-name="Path 18215" d="M354.478,537.789a3.732,3.732,0,1,0,3.74,3.731A3.736,3.736,0,0,0,354.478,537.789Zm0,5.881a2.15,2.15,0,1,1,2.153-2.15A2.152,2.152,0,0,1,354.478,543.67Z" transform="translate(-316.177 -537.683)" fill="#515255"/>
      <rect id="Rectangle_1337" data-name="Rectangle 1337" width="1.63" height="7.2" transform="translate(43.547 0.355)" fill="#515255"/>
    </g>
  </g>
</svg>
