<svg id="google-cloud-seeklogo.com" xmlns="http://www.w3.org/2000/svg" width="48.849" height="39.269" viewBox="0 0 48.849 39.269">
  <path id="Path_18270" data-name="Path 18270" d="M57.342,10.842,61.588,6.6l.283-1.788A19.128,19.128,0,0,0,34.858,6.472a19.627,19.627,0,0,0-4.141,7.757l1.521-.214,8.492-1.4.656-.671a10.638,10.638,0,0,1,14.526-1.177Z" transform="translate(-24.855 0)" fill="#ea4335"/>
  <path id="Path_18271" data-name="Path 18271" d="M141.5,34.493a19.129,19.129,0,0,0-5.766-9.3l-5.96,5.96a10.593,10.593,0,0,1,3.889,8.4v1.058a5.274,5.274,0,1,1,0,10.548H123.041L122,52.3v6.362l1.043,1h10.623A13.757,13.757,0,0,0,141.5,34.493" transform="translate(-98.719 -20.388)" fill="#4285f4"/>
  <path id="Path_18272" data-name="Path 18272" d="M36.552,167.761H47.16v-8.492H36.552a5.2,5.2,0,0,1-2.175-.477l-1.5.462L28.6,163.5l-.372,1.445a13.766,13.766,0,0,0,8.328,2.816" transform="translate(-22.838 -128.492)" fill="#34a853"/>
  <path id="Path_18273" data-name="Path 18273" d="M13.714,61.425A13.8,13.8,0,0,0,5.385,86.157L11.539,80a5.3,5.3,0,1,1,7.017-7.017l6.153-6.153a13.781,13.781,0,0,0-11-5.408" transform="translate(0 -49.704)" fill="#fbbc05"/>
</svg>
