<svg id="node-sass-seeklogo.com" xmlns="http://www.w3.org/2000/svg" width="43.766" height="50.018" viewBox="0 0 43.766 50.018">
  <path id="Path_18237" data-name="Path 18237" d="M13.449,30.607a19.615,19.615,0,0,0-2.919,2.178c-1.521,1.437-1.84,3.429-1.037,3.895.742.43,2.475-.082,3.716-1.434a5.381,5.381,0,0,0,1.284-5.265c-.065.039-.129.078-.192.114v0l-.084.048c-.324.193-.588.353-.769.462Zm22.34-.645c-.45.978-.473,1.293-.336,1.391A2.373,2.373,0,0,0,37.2,29.037a2.4,2.4,0,0,0-.129-.725,5.27,5.27,0,0,0-1.278,1.65ZM42.8,27a8.193,8.193,0,0,0-4.165.482A4.992,4.992,0,0,1,39,29.06a3.262,3.262,0,0,1-1.6,2.661,5.306,5.306,0,0,1-1.454.748A2.245,2.245,0,0,1,34.8,32.7c-.73-.148-1.119-.8-.622-2.227a7.385,7.385,0,0,1,2.291-2.968,12.252,12.252,0,0,1-.764-1.732,14.1,14.1,0,0,1-.415-1.735,35.841,35.841,0,0,1-2.358,4.076c-.077.113-.153.223-.23.334a5.465,5.465,0,0,1,.494,1.894,3.025,3.025,0,0,1-1.3,2.679,5.312,5.312,0,0,1-1.361.717,4.8,4.8,0,0,1-1.583.36A1.686,1.686,0,0,1,27.9,33.93.69.69,0,0,1,27.709,33a24.321,24.321,0,0,1,2.018-2.528c.237-.282.463-.571.665-.838l0-.011s.155-.2.408-.55a16.186,16.186,0,0,1-.9-2.015,14.134,14.134,0,0,1-.415-1.735S28.437,28,27.35,30.136c-.841,1.654-1.4,2.657-1.656,3.1l0,.018s-.038.064-.1.164l-.049.082v-.008c-.282.417-.915,1.233-1.545,1.233-1.728,0-1.094-3.509-1.094-3.509s-.505,1.3-1.075,2.416c-.464.91-.886,1.68-1.811,1.68a1.405,1.405,0,0,1-1.037-.34A5.964,5.964,0,0,1,17.7,30.815a10.644,10.644,0,0,1,.562-2.863c-.474.258-1.022.565-1.58.892l-.858.506.028.05a7.285,7.285,0,0,1-.648,6.69,6.714,6.714,0,0,1-7.234,2.935c-.906-.252-2.274-2.126-1.094-4.737,1.041-2.3,5.2-4.48,6.3-5.023l.3-.165c-2.186-1.913-7.643-4.492-8.408-8.455-.216-1.116.307-3.783,3.583-6.85A29.884,29.884,0,0,1,18.77,7.982c5.948-2.114,12.232-.867,13.2,2.925.951,3.729-2.285,8.19-6.428,9.794a13.085,13.085,0,0,1-8.015.792,4.053,4.053,0,0,1-2.47-1.944c-.08-.208-.218-.558,0-.679.134-.074.188-.056.547.34.341.376,1.713,1.387,4.319,1.094,6.838-.767,10.958-6.083,9.656-8.944-.912-2-6.182-2.906-12.767.378C8.772,15.745,8.335,19.049,8.266,20.3c-.188,3.452,4.257,5.268,6.663,7.835l.093.1,1.392-.767c1.213-.667,2.357-1.291,2.889-1.583.847-1.231,2.564-2.589,3.8-2.589,1.983,0,1.3,2.85,1.3,2.85s.04-.13.094-.132a.784.784,0,0,1,.887-.152c.629.231.486.673.49.718.008.088-.744,2.621-1.056,4.246a2.709,2.709,0,0,0-.019,1.34c.061,0,.187-.2.3-.409l0-.006s.088-.16.235-.449l.029-.06v0c.173-.339.416-.837.7-1.454.55-1.213,2.651-5.9,2.829-6.416s.271-1.054.359-1.284.829-.4,1.7-.4.956.376.962.453a15,15,0,0,0-.509,1.831,5.4,5.4,0,0,0,.075,1.7,5.232,5.232,0,0,0,.6,1.478,30.765,30.765,0,0,0,2.63-5.063,8.527,8.527,0,0,1,.359-1.284c.088-.23.829-.4,1.7-.4s.955.376.962.453a14.75,14.75,0,0,0-.509,1.831,5.4,5.4,0,0,0,.075,1.7,8.14,8.14,0,0,0,.872,2.021,8.768,8.768,0,0,1,3.883-.907,6.836,6.836,0,0,1,1.721.176v-12a2.349,2.349,0,0,0-1.167-2.05L23.014.317a2.356,2.356,0,0,0-2.361,0L1.124,11.63A2.314,2.314,0,0,0,0,13.681V36.328a2.317,2.317,0,0,0,1.125,2.05L20.685,49.7a2.334,2.334,0,0,0,2.352,0L42.607,38.378a2.347,2.347,0,0,0,1.159-2.05V27.175A6.394,6.394,0,0,0,42.8,27ZM21.732,25.817a9.345,9.345,0,0,0-1.471,2.7c-.666,2.016-.377,4.065.094,4.189.55.144,1.454-2.551,1.886-3.605.271-.66,1.324-3.59,1.094-3.981-.18-.306-.927-.059-1.6.7Zm7.619,6.8s-.133.126-.075.161c.078.047.246-.014.429-.109a3.125,3.125,0,0,0,1.683-2.343c0-.035,0-.069,0-.105-.27.354-.518.669-.732.936-.366.455-1.3,1.461-1.3,1.461Z" fill="#8cc84b"/>
</svg>
