<svg xmlns="http://www.w3.org/2000/svg" xmlns:xlink="http://www.w3.org/1999/xlink" width="53.209" height="34.85" viewBox="0 0 53.209 34.85">
  <defs>
    <linearGradient id="linear-gradient" y1="1.037" x2="1" y2="1.037" gradientUnits="objectBoundingBox">
      <stop offset="0" stop-color="#ff572d"/>
      <stop offset="0.09" stop-color="#ff6424"/>
      <stop offset="0.31" stop-color="#ff7c12"/>
      <stop offset="0.45" stop-color="#ff850b"/>
      <stop offset="1" stop-color="#ff9300"/>
    </linearGradient>
  </defs>
  <path id="Path_74419" data-name="Path 74419" d="M40.817,34.85A17.218,17.218,0,0,1,26.18,26.8l1.135-.687a15.891,15.891,0,0,0,13.5,7.408h.03A16.069,16.069,0,0,0,54.528,25.8l1.145.667A17.423,17.423,0,0,1,40.817,34.85Zm8.5-10.893a.661.661,0,0,1-.667-.667V20.034h-1.6V23.3a.661.661,0,0,1-.667.667H34.634a.661.661,0,0,1-.667-.667V20.043H32.354V23.3a.661.661,0,0,1-.667.667H19.967A.661.661,0,0,1,19.3,23.3V11.56a.661.661,0,0,1,.667-.667H31.716a.661.661,0,0,1,.667.667v4.232H34V11.56a.661.661,0,0,1,.667-.667H46.413a.661.661,0,0,1,.667.667v4.232h1.613V11.56a.661.661,0,0,1,.667-.667H61.11a.661.661,0,0,1,.667.667v2.28h4.949L65.63,12.2l1.1-.737,1.782,2.668a.662.662,0,0,1,0,.737l-1.782,2.668-1.1-.737,1.1-1.643H61.11a.661.661,0,0,1-.667-.667v-2.27H50v4.232a.661.661,0,0,1-.667.667H46.393a.661.661,0,0,1-.667-.667V12.217H35.311v4.232a.661.661,0,0,1-.667.667H31.716a.661.661,0,0,1-.667-.667V12.217H20.624V22.642H31.049V19.386a.661.661,0,0,1,.667-.667h2.937a.661.661,0,0,1,.667.667v3.256H45.746V19.386a.661.661,0,0,1,.667-.667H49.35a.661.661,0,0,1,.667.667v3.256H60.442v-2.27a.661.661,0,0,1,.667-.667h9.519l-1.1-1.643,1.1-.737,1.782,2.668a.665.665,0,0,1-.02.727l-1.8,2.678-1.1-.737,1.1-1.643H61.727V23.3a.661.661,0,0,1-.667.667H49.32Zm2.927-2.927a.661.661,0,0,1-.667-.667V14.487a.661.661,0,0,1,.667-.667h5.875a.661.661,0,0,1,.667.667v5.875a.661.661,0,0,1-.667.667Zm.667-1.334h4.55v-4.55h-4.55ZM37.571,21.029a.661.661,0,0,1-.667-.667V14.487a.661.661,0,0,1,.667-.667h5.875a.661.661,0,0,1,.667.667v5.875a.661.661,0,0,1-.667.667Zm.667-1.334h4.55v-4.55h-4.55ZM22.9,21.029a.661.661,0,0,1-.667-.667V14.487a.661.661,0,0,1,.667-.667h5.875a.661.661,0,0,1,.667.667v5.875a.661.661,0,0,1-.667.667Zm.647-1.334H28.1v-4.55h-4.55Zm2.609-11.3A17.4,17.4,0,0,1,41.016,0,17.218,17.218,0,0,1,55.653,8.045l-1.135.687a15.891,15.891,0,0,0-13.5-7.408A16.094,16.094,0,0,0,27.305,9.051Z" transform="translate(-19.3)" fill-rule="evenodd" fill="url(#linear-gradient)"/>
</svg>
