<svg xmlns="http://www.w3.org/2000/svg" width="44.946" height="44.945" viewBox="0 0 44.946 44.945">
  <path id="Path_74519" data-name="Path 74519" d="M163.273,0a22.473,22.473,0,1,0,22.473,22.473A22.463,22.463,0,0,0,163.273,0Zm-3.008,30.752a.908.908,0,0,1-.8.463h-8.382a.92.92,0,0,1-.8-1.388L162.5,8.717a.918.918,0,0,1,1.594,0l4.14,7.174a.984.984,0,0,1,0,.926Zm15.222.463h-8.871a.92.92,0,0,1-.8-1.388l4.4-7.714a.918.918,0,0,1,1.594,0l4.448,7.714A.9.9,0,0,1,175.486,31.215Z" transform="translate(-140.8)" fill="#e84142"/>
</svg>
