<svg xmlns="http://www.w3.org/2000/svg" width="70.175" height="61.611" viewBox="0 0 70.175 61.611">
  <g id="Group_104306" data-name="Group 104306" transform="translate(-1056.436 -7589.647)">
    <g id="Group_2353" data-name="Group 2353" transform="translate(-240 192.084)">
      <path id="Path_14029" data-name="Path 14029" d="M171.873,93.684h-1.482a21.038,21.038,0,0,0-42,0H126.91a12.106,12.106,0,0,0,0,24.211H139.18a1.647,1.647,0,1,0,0-3.294H126.91a8.812,8.812,0,0,1,0-17.624h3.13a1.5,1.5,0,0,0,1.153-.494,2.068,2.068,0,0,0,.494-1.153v-.412a17.706,17.706,0,0,1,35.411,0v.412a1.5,1.5,0,0,0,.494,1.153,2.068,2.068,0,0,0,1.153.494h3.13a8.812,8.812,0,0,1,0,17.624H159.521a1.647,1.647,0,1,0,0,3.294h12.271a12.106,12.106,0,1,0,.082-24.211Z" transform="translate(1182.132 7324.143)" stroke="#000" stroke-width="1"/>
      <path id="Path_14030" data-name="Path 14030" d="M268.39,124.32A13.6,13.6,0,0,0,254.8,137.908a1.647,1.647,0,1,0,3.294,0,10.3,10.3,0,0,1,10.294-10.294,1.647,1.647,0,0,0,0-3.294Z" transform="translate(1062.722 7281.155)" stroke="#000" stroke-width="1"/>
      <path id="Path_14031" data-name="Path 14031" d="M262.574,348.65a1.592,1.592,0,0,0,0,2.306l7.576,7.576a1.592,1.592,0,0,0,2.306,0l7.576-7.576a1.63,1.63,0,1,0-2.306-2.306l-4.776,4.776V338.768a1.647,1.647,0,0,0-3.294,0v14.659l-4.776-4.776a1.754,1.754,0,0,0-2.306,0Z" transform="translate(1056.514 7099.647)" stroke="#000" stroke-width="1"/>
      <path id="Path_14032" data-name="Path 14032" d="M321.7,258.223a1.652,1.652,0,0,0,1.647-1.647V241.917l4.776,4.776a1.592,1.592,0,0,0,2.306,0,1.592,1.592,0,0,0,0-2.306l-7.576-7.576a1.592,1.592,0,0,0-2.306,0l-7.576,7.576a1.63,1.63,0,0,0,2.306,2.306l4.776-4.776v14.741a1.583,1.583,0,0,0,1.647,1.565Z" transform="translate(1013.527 7185.628)" stroke="#000" stroke-width="1"/>
    </g>
  </g>
</svg>
