<svg xmlns="http://www.w3.org/2000/svg" width="49.897" height="49.745" viewBox="0 0 49.897 49.745">
  <g id="Data_analytics" data-name="Data analytics" transform="translate(-769.595 -764.616)">
    <path id="Path_1527" data-name="Path 1527" d="M817.4,769.752H771.684a2.089,2.089,0,0,0-2.089,2.089v45.566a2.089,2.089,0,0,0,2.089,2.089H817.4a2.089,2.089,0,0,0,2.09-2.089V771.841a2.089,2.089,0,0,0-2.09-2.089Zm-2.089,45.568H773.775V773.932h41.539Z" transform="translate(0 -5.136)"/>
    <path id="Path_1528" data-name="Path 1528" d="M786.321,815.707a2.089,2.089,0,0,0,2.771-1.023l4.922-10.729,6.781,7.119a2.089,2.089,0,0,0,3.254-.284l12.58-18.927a2.091,2.091,0,0,0-3.481-2.313L802.017,806.3l-7.1-7.458a2.089,2.089,0,0,0-3.412.571l-6.208,13.531A2.089,2.089,0,0,0,786.321,815.707Z" transform="translate(-6.551 -12.484)"/>
  </g>
</svg>
