<svg xmlns="http://www.w3.org/2000/svg" width="43.313" height="48.451" viewBox="0 0 43.313 48.451">
  <g id="Group_105587" data-name="Group 105587" transform="translate(-8133.001 -12213.698)">
    <path id="Path_74877" data-name="Path 74877" d="M28.185,54H15.124a8.6,8.6,0,0,0-7.451,4.3L1.149,69.61a8.6,8.6,0,0,0,0,8.6L7.673,89.517a8.6,8.6,0,0,0,7.451,4.3H28.185a8.6,8.6,0,0,0,7.445-4.3L42.16,78.2a8.6,8.6,0,0,0,0-8.6L35.628,58.3A8.6,8.6,0,0,0,28.185,54Z" transform="translate(8133.003 12168.337)" fill="#0b476d"/>
    <path id="Path_74878" data-name="Path 74878" d="M142.312,9.25a24.508,24.508,0,0,1,1.879,9.483,4.705,4.705,0,0,0,.11.779,23.107,23.107,0,0,1-2.6,11.14c-.7.708-.894,1.719-1.477,2.5-.363.48-.676,1.011-1.014,1.517a1.953,1.953,0,0,1-1.666.11c-.429-.334-.253-.772-.174-1.175.571-2.92,1.119-5.842,1.759-8.746a4.317,4.317,0,0,0-.368-2.926,23.914,23.914,0,0,0-2.275-3.455,2.465,2.465,0,0,1-.328-.64,35.351,35.351,0,0,1-.07-4.136c0-1.759-.09-3.5.061-5.254a3.542,3.542,0,0,0,.122-1.1c0-2.1-.013-5.025.01-7.13,0-.328-.128-.229.339-.229a32.749,32.749,0,0,1,4.925,7.56C141.81,8.118,142.076,8.644,142.312,9.25Z" transform="translate(8018.692 12213.727)" fill="#398588"/>
    <path id="Path_74879" data-name="Path 74879" d="M95.782,8.537V18.1a1.183,1.183,0,0,1-.013.13,1.411,1.411,0,0,1-.395.678c-.214.27-.408.558-.63.822a6.7,6.7,0,0,0-1.439,6.517c.654,2.4,1.02,4.881,1.5,7.331.07.366.3.771-.08,1.119a2.272,2.272,0,0,1-1.815-.115A47.019,47.019,0,0,1,90.486,30.4a2.729,2.729,0,0,1-.751-1.38,29.319,29.319,0,0,1-1.96-8.935,3.213,3.213,0,0,0,.03-.553,6.217,6.217,0,0,0,.241-2.117A25.231,25.231,0,0,1,89.872,9.3c.209-.532.526-1.119.959-2.093A29.512,29.512,0,0,1,95.181.535c.16-.189.248-.5.59-.467a8.059,8.059,0,0,1,.07,1.57C95.816,3.941,95.94,6.241,95.782,8.537Z" transform="translate(8059.262 12213.647)" fill="#78bd96"/>
    <path id="Path_74883" data-name="Path 74883" d="M93.761,246.372a7.68,7.68,0,0,0-2.058-1.487,3.4,3.4,0,0,1-2.032-2.1,1.975,1.975,0,0,0-1.618-1.373,1.748,1.748,0,0,1-1.332-1.119,9.658,9.658,0,0,1-.614-2.056,1.123,1.123,0,0,0-.576-.9.681.681,0,0,0-.24-.061.43.43,0,0,0-.334.144,2.176,2.176,0,0,0-.3.9,8.29,8.29,0,0,1-.694,2.119,1.222,1.222,0,0,1-1.052.737,1.915,1.915,0,0,0-1.847,1.4,3.625,3.625,0,0,1-2.779,2.482,4.731,4.731,0,0,0-2.016,1.1,4.549,4.549,0,0,0-.849,1.065,8.586,8.586,0,0,0,3.067.556H91.548a8.586,8.586,0,0,0,2.944-.521C94.444,246.917,93.974,246.562,93.761,246.372Z" transform="translate(8069.64 12014.362)" fill="#d6f0ef"/>
    <path id="Path_74884" data-name="Path 74884" d="M55.25,228.58a4.179,4.179,0,0,1,1.46-.8,4.149,4.149,0,0,0,3.378-2.99,1.4,1.4,0,0,1,1.477-.988,1.354,1.354,0,0,0,1.294-.852,17.066,17.066,0,0,0,.959-3.182,7.284,7.284,0,0,0-.4-3,.52.52,0,0,0-.344-.4,8.82,8.82,0,0,0-1.86.062,2.231,2.231,0,0,0-.16,1.007,16.789,16.789,0,0,1-.365,2.438,6.77,6.77,0,0,1-1.751,3.143c-.515.574-.819.79-1.573.553a2.426,2.426,0,0,0-2.488.708c-.665.675-1.166,1.481-2.27,1.367a.209.209,0,0,0-.144.062,6.63,6.63,0,0,1-2.4.691,8.6,8.6,0,0,0,4.45,3.377A2.922,2.922,0,0,1,55.25,228.58Z" transform="translate(8090.937 12031.947)" fill="#9adbd8"/>
    <path id="Path_74885" data-name="Path 74885" d="M149.377,226.569a.942.942,0,0,1-.875-.526,1.206,1.206,0,0,0-1.6-.508.9.9,0,0,1-1.327-.248.6.6,0,0,0-.32-.232c-1.255-.206-1.877-1.161-2.656-2.029a6.176,6.176,0,0,1-1.535-2.811,18.036,18.036,0,0,1-.4-3.559l-1.778-.066c-.432.16-.384.588-.48.926a17.1,17.1,0,0,1-.537,2.293,1.039,1.039,0,0,0-.08.233.959.959,0,0,1,.5.745,7.253,7.253,0,0,0,.64,2.2c.245.48.452,1.106,1.1,1.154a2.215,2.215,0,0,1,2.042,1.719,2.467,2.467,0,0,0,1.468,1.575,9.514,9.514,0,0,1,2.378,1.578,1.021,1.021,0,0,1,.515.931c.013,0,.029.029.046.08a8.6,8.6,0,0,0,3.9-2.512.6.6,0,0,1,.027-.064A.922.922,0,0,0,149.377,226.569Z" transform="translate(8017.242 12031.744)" fill="#9adbd8"/>
    <path id="Path_74887" data-name="Path 74887" d="M75.179,121.8c.433,1.079.241,2.238.462,3.358a32.042,32.042,0,0,0,1.971,6.765c.106.24.16.5.249.75l-1.6,6.743c-.024.1-.042.209-.075.31-.093.278-.037.657-.536.632-.433-.022-.424-.341-.48-.608-.48-2.123-.98-4.245-1.439-6.375-.333-1.559-.6-3.131-.91-4.7a4.288,4.288,0,0,1,.16-2.277A30.44,30.44,0,0,1,75.179,121.8Z" transform="translate(8071.892 12111.377)" fill="#f9b166"/>
    <path id="Path_74888" data-name="Path 74888" d="M171.35,133.328a2.663,2.663,0,0,1,.1-.616,27.13,27.13,0,0,0,2.389-10.311c0-.07.064-.141.1-.211q.775,1.525,1.548,3.052a7.181,7.181,0,0,1,.62,5.008c-.735,3.289-1.418,6.589-2.224,9.864-.069.278,0,.694-.5.675s-.408-.446-.472-.713C172.381,137.829,171.87,135.578,171.35,133.328Z" transform="translate(7989.048 12111.05)" fill="#f0645d"/>
    <path id="Path_74889" data-name="Path 74889" d="M138.44,131.317c-.2.894-.408,1.788-.616,2.678-.062.267,0,.59-.333.739a1.286,1.286,0,0,1-.209-.91V116.04c0-.334-.16-.774.341-.95a25.252,25.252,0,0,1,1.959,2.705,5.6,5.6,0,0,1,.6,4.714c-.64,2.733-1.146,5.5-1.7,8.252A4.955,4.955,0,0,0,138.44,131.317Z" transform="translate(8017.689 12117.015)" fill="#f0645d"/>
    <path id="Path_74890" data-name="Path 74890" d="M136.684,113.208c-.23.281-.118.614-.12.921q-.018,9.362-.019,18.723l-.146.034v-.067a3.227,3.227,0,0,1-.256-1.709q-.016-8.463-.008-16.926a2.531,2.531,0,0,1,.261-1.234l.018-.1Z" transform="translate(8018.634 12118.896)" fill="#cb7567"/>
    <path id="Path_74891" data-name="Path 74891" d="M121.756,113.47v19.87h-.289l-.7-3.335a.2.2,0,0,0-.016-.15c-.64-3.335-1.279-6.672-1.951-10a3.805,3.805,0,0,1,.32-2.632A14.8,14.8,0,0,1,121.756,113.47Z" transform="translate(8033.278 12118.375)" fill="#f9b166"/>
  </g>
</svg>
