<svg xmlns="http://www.w3.org/2000/svg" width="25.969" height="37.293" viewBox="0 0 25.969 37.293">
  <path id="Path_74532" data-name="Path 74532" d="M13.01,0l6.8,8.935a4.8,4.8,0,0,0,.477.612c2.208,2.044,2.417,4.863,3,7.548.88,4.043,1.745,8.1,2.64,12.143.119.537,0,.716-.477,1.014-3.371,2.074-6.877,4-10.308,6.012-.209.1-.492.149-.612.283-1.089,1.238-2.074.716-3.207,0C7.789,34.4,4.179,32.371.584,30.327a.862.862,0,0,1-.537-1.089c0-.015.015-.03.015-.045C1.3,23.674,2.493,18.139,3.731,12.62a1.83,1.83,0,0,1,.3-.806Zm-.045,32.55c.3-.731.537-1.238.716-1.73,2.074-5.937,4.132-11.874,6.221-17.811a1.066,1.066,0,0,0-.194-1.1c-.731-.925-1.432-1.85-2.148-2.8-1.492-2-3-3.938-4.55-5.937-.179.209-.313.343-.433.507-1.895,2.461-3.774,5-5.728,7.414A2.256,2.256,0,0,0,6.4,13.858a10.773,10.773,0,0,1,.507,1.372l4.8,13.754ZM20.886,15.9,14.472,34.295c.239.134.343,0,.462-.075,2.864-1.641,5.728-3.312,8.607-4.953.4-.239.373-.492.3-.85-.507-2.3-.985-4.609-1.522-6.907A36.061,36.061,0,0,0,20.886,15.9ZM11.608,34.563c-2.193-6.34-4.326-12.411-6.444-18.483-.418.149-.358.418-.418.612L3.657,21.72c-.477,2.163-.94,4.266-1.4,6.4-.09.418-.3.85.283,1.193,2.969,1.671,5.907,3.4,9.1,5.236Z" transform="translate(-0.002)"/>
</svg>
