<svg xmlns="http://www.w3.org/2000/svg" width="42.73" height="42.718" viewBox="0 0 42.73 42.718">
  <g id="Group_105572" data-name="Group 105572" transform="translate(-8280.77 -11215.084)">
    <path id="Path_74554" data-name="Path 74554" d="M196.739,108.333h9.706c.407,0,.932-.2.932.59.012,3.918.155,7.841-1.373,11.582a23.767,23.767,0,0,1-3.79,6.33c-.432.514-.694.621-1.226.071-1.684-1.76-3.417-3.469-5.163-5.171-.405-.4-.466-.66-.078-1.122a12.577,12.577,0,0,0,1.976-3.444c.32-.777.249-1.024-.674-1.01-3.31.05-6.622-.008-9.934.039-.826.012-1.12-.155-1.087-1.05.075-1.939.061-3.883,0-5.822-.023-.794.193-1.03,1-1.019C190.263,108.361,193.5,108.333,196.739,108.333Z" transform="translate(8116.115 11123.601)" fill="#01577e"/>
    <path id="Path_74555" data-name="Path 74555" d="M189.195,204.7c0-1.218.019-2.436-.008-3.654-.011-.516.137-.719.69-.769a11.961,11.961,0,0,0,6.824-2.868c.449-.381.718-.362,1.125.056q2.548,2.617,5.163,5.168c.466.449.506.713,0,1.159a21.04,21.04,0,0,1-10.863,5.174c-2.922.447-2.93.4-2.93-2.558Q189.195,205.556,189.195,204.7Z" transform="translate(8113.444 11048.568)" fill="#02b2d1"/>
    <path id="Path_74556" data-name="Path 74556" d="M52.962,57.568c-1.219,0-2.437-.017-3.657,0-.637.012-.9-.224-.831-.881a21.924,21.924,0,0,1,5.26-12.517c.55-.631.9-.823,1.581-.095,1.553,1.67,3.183,3.273,4.836,4.847.579.551.537.865.042,1.459a10.916,10.916,0,0,0-2.641,6.2c-.061.786-.409,1.033-1.17,1C55.249,57.529,54.1,57.57,52.962,57.568Z" transform="translate(8232.306 11178.25)" fill="#6cc3d7"/>
    <path id="Path_74557" data-name="Path 74557" d="M53.451,139.515c1.181,0,2.361.014,3.542,0,.513-.009.845.043.9.693a12.13,12.13,0,0,0,2.836,6.961.47.47,0,0,1-.037.764c-1.839,1.822-3.677,3.646-5.491,5.494-.457.466-.68.2-.986-.148a20.653,20.653,0,0,1-5.05-11.052c-.357-2.708-.29-2.717,2.457-2.717Z" transform="translate(8231.842 11097.245)" fill="#46bdd5"/>
    <path id="Path_74558" data-name="Path 74558" d="M105.655,204.814c0,1.179-.039,2.358.016,3.534.034.733-.252.917-.932.862a21.507,21.507,0,0,1-12.957-5.527c-.455-.405-.328-.621.036-.982q2.641-2.6,5.238-5.241c.4-.409.652-.466,1.114-.068a11.934,11.934,0,0,0,6.813,2.874c.565.051.687.287.677.788C105.639,202.305,105.655,203.56,105.655,204.814Z" transform="translate(8195.965 11048.583)" fill="#02b6d3"/>
    <path id="Path_74559" data-name="Path 74559" d="M189.358,4.477c0-1.216.016-2.431,0-3.646-.009-.55.123-.881.758-.82a21.778,21.778,0,0,1,12.609,5.174c.6.523.614.873.026,1.435-1.706,1.628-3.349,3.324-5.013,4.983-.3.3-.527.621-1.021.188a11.946,11.946,0,0,0-6.478-2.809c-.777-.107-.913-.421-.892-1.087C189.386,6.756,189.358,5.616,189.358,4.477Z" transform="translate(8113.309 11215.081)" fill="#a6d1db"/>
    <path id="Path_74560" data-name="Path 74560" d="M107.014,4.481c0,1.177-.022,2.355.009,3.532.016.579-.113.878-.777.971a12.882,12.882,0,0,0-6.44,2.666.688.688,0,0,1-1.076-.079c-1.76-1.785-3.523-3.563-5.319-5.311-.573-.558-.068-.777.242-1.053A21.033,21.033,0,0,1,103.236.466c.96-.205,1.945-.289,2.917-.444.648-.1.889.155.87.8C106.989,2.049,107.014,3.262,107.014,4.481Z" transform="translate(8194.563 11215.084)" fill="#8bcad8"/>
  </g>
</svg>
