<svg xmlns="http://www.w3.org/2000/svg" width="50.888" height="56.621" viewBox="0 0 50.888 56.621">
  <g id="Group_2410" data-name="Group 2410" transform="translate(-1341.23 -6561.605)">
    <g id="Group_2409" data-name="Group 2409" transform="translate(1341.733 6562.149)">
      <path id="Path_63616" data-name="Path 63616" d="M50.107,28.113c0,4.189-.023,8.368.016,12.551a2.162,2.162,0,0,1-1.25,2.12q-11.262,6.3-22.492,12.653a2.193,2.193,0,0,1-2.4-.012q-11.27-6.376-22.565-12.7A2.027,2.027,0,0,1,.251,40.75q.031-12.736,0-25.47a2.027,2.027,0,0,1,1.177-1.969Q12.729,6.99,23.993.61a2.169,2.169,0,0,1,2.388,0q11.268,6.38,22.565,12.7a2.027,2.027,0,0,1,1.166,1.981c-.028,4.274-.012,8.549-.012,12.825M3.2,17.342c0,7.618-.009,15.039.028,22.459a1.351,1.351,0,0,0,.655.915c6.845,3.882,13.71,7.729,20.558,11.607a1.319,1.319,0,0,0,1.486.014q10.195-5.775,20.419-11.485a1.389,1.389,0,0,0,.847-1.405c-.035-7.026-.02-14.052-.02-21.078v-.993c-.442.235-.759.395-1.07.572q-9.292,5.224-18.591,10.437a1.448,1.448,0,0,0-.882,1.474c.045,3.724.028,7.45.014,11.177a1.474,1.474,0,0,1-1.459,1.64,1.5,1.5,0,0,1-1.459-1.646c-.007-.213,0-.427,0-.64,0-3.574-.016-7.146.016-10.72a1.182,1.182,0,0,0-.717-1.205Q15.183,24.1,7.38,19.679c-1.351-.757-2.7-1.512-4.182-2.346M4.778,14.8c.242.169.353.262.478.332q9.683,5.447,19.357,10.905a1.17,1.17,0,0,0,1.331-.116Q35.382,20.6,44.828,15.293c.227-.128.439-.281.73-.466-.2-.135-.313-.227-.439-.3Q35.441,9.079,25.767,3.622a1.108,1.108,0,0,0-1.251.062c-2.462,1.405-4.936,2.789-7.4,4.179L4.778,14.8" transform="translate(-0.247 -0.252)" stroke="#000" stroke-width="1"/>
      <path id="Path_63617" data-name="Path 63617" d="M50.107,28.113c0,4.189-.023,8.368.016,12.551a2.162,2.162,0,0,1-1.25,2.12q-11.262,6.3-22.492,12.653a2.193,2.193,0,0,1-2.4-.012q-11.27-6.376-22.565-12.7A2.027,2.027,0,0,1,.251,40.75q.031-12.736,0-25.47a2.027,2.027,0,0,1,1.177-1.969Q12.729,6.99,23.993.61a2.169,2.169,0,0,1,2.388,0q11.268,6.38,22.565,12.7a2.027,2.027,0,0,1,1.166,1.981C50.091,19.563,50.107,23.837,50.107,28.113ZM3.2,17.342c0,7.618-.009,15.039.028,22.459a1.351,1.351,0,0,0,.655.915c6.845,3.882,13.71,7.729,20.558,11.607a1.319,1.319,0,0,0,1.486.014q10.195-5.775,20.419-11.485a1.389,1.389,0,0,0,.847-1.405c-.035-7.026-.02-14.052-.02-21.078v-.993c-.442.235-.759.395-1.07.572q-9.292,5.224-18.591,10.437a1.448,1.448,0,0,0-.882,1.474c.045,3.724.028,7.45.014,11.177a1.474,1.474,0,0,1-1.459,1.64,1.5,1.5,0,0,1-1.459-1.646c-.007-.213,0-.427,0-.64,0-3.574-.016-7.146.016-10.72a1.182,1.182,0,0,0-.717-1.205Q15.183,24.1,7.38,19.679C6.027,18.927,4.679,18.171,3.2,17.342ZM4.778,14.8c.242.169.353.262.478.332q9.683,5.447,19.357,10.905a1.17,1.17,0,0,0,1.331-.116Q35.382,20.6,44.828,15.293c.227-.128.439-.281.73-.466-.2-.135-.313-.227-.439-.3Q35.441,9.079,25.767,3.622a1.108,1.108,0,0,0-1.251.062c-2.462,1.405-4.936,2.789-7.4,4.179Z" transform="translate(-0.247 -0.252)" fill="none" stroke="#000" stroke-miterlimit="10" stroke-width="0.5"/>
      <path id="Path_63618" data-name="Path 63618" d="M11.809,22.71a1.459,1.459,0,1,1,1.467-1.448,1.459,1.459,0,0,1-1.467,1.448" transform="translate(13.119 25.579)" stroke="#000" stroke-width="1"/>
      <path id="Path_63619" data-name="Path 63619" d="M11.809,22.71a1.459,1.459,0,1,1,1.467-1.448,1.459,1.459,0,0,1-1.467,1.448Z" transform="translate(13.119 25.579)" fill="none" stroke="#000" stroke-miterlimit="10" stroke-width="0.75"/>
    </g>
  </g>
</svg>
