<svg xmlns="http://www.w3.org/2000/svg" width="38.533" height="38.456" viewBox="0 0 38.533 38.456">
  <path id="Path_74573" data-name="Path 74573" d="M30.842,1.969,22.812,13.89A.851.851,0,0,0,24.089,15L32,8.122a.306.306,0,0,1,.508.262V29.873a.32.32,0,0,1-.554.215L8.03,1.446A3.95,3.95,0,0,0,4.907,0H4.046A4.084,4.084,0,0,0,0,4.107V34.365a4.107,4.107,0,0,0,7.614,2.123l8.03-11.921a.851.851,0,0,0-1.277-1.108l-7.907,6.83a.306.306,0,0,1-.508-.262V8.583a.32.32,0,0,1,.554-.215L30.442,36.995a4.017,4.017,0,0,0,3.123,1.446h.861a4.106,4.106,0,0,0,4.107-4.107V4.107A4.213,4.213,0,0,0,34.349,0,4.145,4.145,0,0,0,30.842,1.969Z"/>
</svg>
