<svg xmlns="http://www.w3.org/2000/svg" width="41.76" height="41.761" viewBox="0 0 41.76 41.761">
  <g id="Layer_2" data-name="Layer 2" transform="translate(0)">
    <g id="design" transform="translate(0)">
      <rect id="Rectangle_44160" data-name="Rectangle 44160" width="41.76" height="41.76" fill="#ed1c24"/>
      <path id="Path_74438" data-name="Path 74438" d="M49.655,150.409H51.94l-1.2-1.945-2.219,3.515H47.509l2.7-4.213a.642.642,0,0,1,1.047,0l2.7,4.218H52.946l-.471-.785H50.161l-.5-.794Zm10.466.785v-3.663h-.854v4.021a.416.416,0,0,0,.122.3.429.429,0,0,0,.314.131h3.9l.5-.785Zm-14.149-.655a1.5,1.5,0,0,0,0-3H42.229v4.446h.854v-3.66h2.824a.724.724,0,0,1,0,1.447h-2.4l2.556,2.219H47.3l-1.71-1.457Zm-9,1.439a2.224,2.224,0,0,1,0-4.448h2.581a2.224,2.224,0,0,1,0,4.448Zm2.53-.785a1.439,1.439,0,1,0,0-2.878H37.035a1.439,1.439,0,1,0-.009,2.878Zm16.239.785a2.224,2.224,0,0,1,0-4.448h3.07l-.5.785H55.8a1.439,1.439,0,0,0,0,2.878h3.078l-.5.785Zm10.458-.785a1.452,1.452,0,0,1-1.387-1.047h3.65l.5-.785H64.814a1.444,1.444,0,0,1,1.387-1.047h2.512l.5-.785H66.144a2.224,2.224,0,0,0,0,4.448h2.643l.5-.785Z" transform="translate(-31.143 -132.619)" fill="#fff"/>
      <path id="Path_74439" data-name="Path 74439" d="M36.75,218.9h1.982a1.4,1.4,0,0,1,.93.3.969.969,0,0,1,.353.781,1.039,1.039,0,0,1-.418.878,1.1,1.1,0,0,1-.2.126,1.55,1.55,0,0,1,.389.2,1.043,1.043,0,0,1,.442.893,1.2,1.2,0,0,1-.431.983,1.835,1.835,0,0,1-1.2.354H36.75Zm.61,1.916H38.45a1.183,1.183,0,0,0,.727-.18.673.673,0,0,0,.23-.566.578.578,0,0,0-.212-.5,1.118,1.118,0,0,0-.666-.158H37.36Zm0,2.068H38.6a1.2,1.2,0,0,0,.769-.2.782.782,0,0,0,.244-.638.63.63,0,0,0-.254-.557,1.43,1.43,0,0,0-.8-.177h-1.2Z" transform="translate(-32.941 -196.815)" fill="#fff"/>
      <path id="Path_74440" data-name="Path 74440" d="M77.52,218.91h.553v4.51H77.52Z" transform="translate(-69.599 -196.829)" fill="#fff"/>
      <path id="Path_74441" data-name="Path 74441" d="M89.242,233.084a2.082,2.082,0,0,1,0-2.513,1.513,1.513,0,0,1,2.211,0,2.086,2.086,0,0,1,0,2.513,1.513,1.513,0,0,1-2.211,0Zm1.8-.338a1.76,1.76,0,0,0,0-1.836.872.872,0,0,0-1.385,0,1.772,1.772,0,0,0,0,1.836.874.874,0,0,0,1.385,0Z" transform="translate(-79.759 -206.883)" fill="#fff"/>
      <path id="Path_74442" data-name="Path 74442" d="M125.89,232.289a1.518,1.518,0,0,1-.439.945,1.33,1.33,0,0,1-.939.325,1.286,1.286,0,0,1-1.043-.469,1.917,1.917,0,0,1-.389-1.264,1.88,1.88,0,0,1,.4-1.266,1.509,1.509,0,0,1,2.029-.147,1.226,1.226,0,0,1,.377.892h-.531a.809.809,0,0,0-1.462-.4,1.576,1.576,0,0,0-.238.925,1.646,1.646,0,0,0,.221.942.824.824,0,0,0,1.2.109,1.054,1.054,0,0,0,.286-.588Z" transform="translate(-110.563 -206.88)" fill="#fff"/>
      <path id="Path_74443" data-name="Path 74443" d="M156.41,218.91h.553v2.6l1.386-1.373h.706l-1.249,1.217,1.331,2.066h-.721l-1.021-1.667-.433.422v1.246h-.553Z" transform="translate(-140.532 -196.829)" fill="#fff"/>
      <path id="Path_74444" data-name="Path 74444" d="M186.45,232.289a1.518,1.518,0,0,1-.439.945,1.33,1.33,0,0,1-.939.325,1.286,1.286,0,0,1-1.043-.469,1.917,1.917,0,0,1-.389-1.264,1.88,1.88,0,0,1,.4-1.266,1.509,1.509,0,0,1,2.029-.147,1.226,1.226,0,0,1,.377.892h-.531a.751.751,0,0,0-.807-.739.76.76,0,0,0-.655.336,1.576,1.576,0,0,0-.238.925,1.646,1.646,0,0,0,.221.942.824.824,0,0,0,1.2.109,1.054,1.054,0,0,0,.286-.588Z" transform="translate(-165.015 -206.88)" fill="#fff"/>
      <path id="Path_74445" data-name="Path 74445" d="M216.92,218.91h.552v1.672l.095-.123a1.115,1.115,0,0,1,2.03.711v2.249h-.551v-2.11a.9.9,0,0,0-.156-.588.614.614,0,0,0-.5-.18.807.807,0,0,0-.663.3,1.259,1.259,0,0,0-.245.818v1.758h-.552Z" transform="translate(-194.938 -196.829)" fill="#fff"/>
      <path id="Path_74446" data-name="Path 74446" d="M250.035,233.561a1.09,1.09,0,0,1-.764-.257.9.9,0,0,1-.283-.7.94.94,0,0,1,.265-.706,1.3,1.3,0,0,1,.775-.325l.751-.095a1.149,1.149,0,0,0,.174-.03.281.281,0,0,0,.165-.11.354.354,0,0,0,.058-.209V231.1a.486.486,0,0,0-.2-.413.908.908,0,0,0-.556-.149.814.814,0,0,0-.533.158.7.7,0,0,0-.232.471h-.5a1.068,1.068,0,0,1,.38-.807,1.568,1.568,0,0,1,.975-.271,1.383,1.383,0,0,1,.908.259.939.939,0,0,1,.313.757v1.8a.181.181,0,0,0,.05.133.185.185,0,0,0,.136.05.625.625,0,0,0,.072-.006q.047-.006.1-.018v.4a1.078,1.078,0,0,1-.168.049.759.759,0,0,1-.15.018.555.555,0,0,1-.454-.171.721.721,0,0,1-.132-.322,1.181,1.181,0,0,1-.141.147A1.463,1.463,0,0,1,250.035,233.561Zm1.145-1.39v-.355a1.179,1.179,0,0,1-.341.1l-.5.074a1.356,1.356,0,0,0-.583.186.413.413,0,0,0-.184.354.571.571,0,0,0,.15.425.58.58,0,0,0,.427.148,1.155,1.155,0,0,0,.736-.236.8.8,0,0,0,.273-.374.619.619,0,0,0,.018-.126,1.933,1.933,0,0,0,.007-.195Z" transform="translate(-223.771 -206.882)" fill="#fff"/>
      <path id="Path_74447" data-name="Path 74447" d="M284.57,218.91h.565v.626h-.565Zm.006,1.228h.553v3.283h-.553Z" transform="translate(-255.765 -196.829)" fill="#fff"/>
      <path id="Path_74448" data-name="Path 74448" d="M297.61,230.207h.525v.485l.123-.162a1.115,1.115,0,0,1,2.03.711v2.249h-.552v-2.063a.941.941,0,0,0-.167-.624.685.685,0,0,0-.542-.192.757.757,0,0,0-.632.3,1.305,1.305,0,0,0-.233.818v1.758h-.552Z" transform="translate(-267.489 -206.899)" fill="#fff"/>
    </g>
  </g>
</svg>
