<svg id="rust" xmlns="http://www.w3.org/2000/svg" width="52.767" height="27.07" viewBox="0 0 52.767 27.07">
  <path id="Path_74626" data-name="Path 74626" d="M26.865,13.194l-1.137-.7c-.011-.108-.022-.216-.032-.336l.974-.909a.407.407,0,0,0,.119-.357.4.4,0,0,0-.249-.292L25.3,10.131l-.1-.325.779-1.082a.393.393,0,0,0,.043-.379.384.384,0,0,0-.292-.238l-1.321-.216L24.246,7.6,24.8,6.386a.394.394,0,0,0-.032-.379.388.388,0,0,0-.336-.173l-1.342.043c-.065-.087-.141-.173-.206-.26l.3-1.3a.392.392,0,0,0-.108-.368.421.421,0,0,0-.368-.108l-1.3.3c-.087-.076-.173-.141-.26-.206L21.193,2.6a.415.415,0,0,0-.173-.336.394.394,0,0,0-.379-.032l-1.212.552-.292-.162L18.92,1.3a.368.368,0,0,0-.238-.292.393.393,0,0,0-.379.043l-1.082.779-.325-.1L16.453.509A.4.4,0,0,0,16.16.26.4.4,0,0,0,15.8.379l-.909.974-.336-.032-.7-1.137A.368.368,0,0,0,13.53,0a.4.4,0,0,0-.336.184l-.7,1.137-.336.032L11.246.379A.407.407,0,0,0,10.889.26.4.4,0,0,0,10.6.509l-.465,1.245-.325.1L8.724,1.072a.393.393,0,0,0-.379-.043.384.384,0,0,0-.238.292L7.891,2.641,7.6,2.8,6.386,2.251a.394.394,0,0,0-.379.032.388.388,0,0,0-.173.336l.043,1.342c-.087.065-.173.141-.26.206l-1.3-.3a.392.392,0,0,0-.368.108.421.421,0,0,0-.108.368l.3,1.3c-.076.087-.141.173-.206.26L2.619,5.845a.415.415,0,0,0-.336.173.394.394,0,0,0-.032.379L2.8,7.609,2.641,7.9l-1.321.216a.368.368,0,0,0-.292.238.393.393,0,0,0,.043.379l.779,1.082-.1.325-1.245.465A.4.4,0,0,0,.26,10.9a.4.4,0,0,0,.119.357l.974.909c-.011.108-.022.216-.032.336l-1.137.7A.368.368,0,0,0,0,13.53a.385.385,0,0,0,.184.336l1.137.7c.011.108.022.216.032.336l-.974.909a.407.407,0,0,0-.119.357.4.4,0,0,0,.249.292l1.245.465.1.325-.779,1.082a.393.393,0,0,0-.043.379.383.383,0,0,0,.3.238l1.321.216.162.292-.552,1.212a.394.394,0,0,0,.032.379.388.388,0,0,0,.336.173l1.331-.043c.065.087.141.173.206.26l-.3,1.3a.392.392,0,0,0,.108.368.421.421,0,0,0,.368.108l1.3-.3c.087.076.173.141.26.206L5.845,24.44a.415.415,0,0,0,.173.336.394.394,0,0,0,.379.032l1.212-.552.292.162.216,1.321a.4.4,0,0,0,.238.3A.393.393,0,0,0,8.735,26l1.082-.779.325.1.465,1.245a.4.4,0,0,0,.292.249.4.4,0,0,0,.357-.119l.909-.974.336.032.7,1.137a.385.385,0,0,0,.336.184.4.4,0,0,0,.336-.184l.7-1.137.336-.032.909.974a.407.407,0,0,0,.357.119.4.4,0,0,0,.292-.249l.465-1.245.325-.1L18.347,26a.393.393,0,0,0,.379.043.383.383,0,0,0,.238-.3l.216-1.321.292-.162,1.212.552a.394.394,0,0,0,.379-.032.415.415,0,0,0,.173-.336L21.193,23.1c.087-.065.173-.141.26-.206l1.3.3a.392.392,0,0,0,.368-.108.421.421,0,0,0,.108-.368l-.3-1.3c.076-.087.141-.173.206-.26l1.342.043a.388.388,0,0,0,.336-.173.394.394,0,0,0,.032-.379l-.552-1.212.162-.292,1.321-.216a.368.368,0,0,0,.292-.238.393.393,0,0,0-.043-.379l-.779-1.082.1-.325,1.245-.465a.4.4,0,0,0,.249-.292.4.4,0,0,0-.119-.357l-.974-.909c.011-.108.022-.216.032-.336l1.137-.7a.385.385,0,0,0,.184-.336.577.577,0,0,0-.227-.314Zm-7.6,9.438a.81.81,0,0,1-.617-.953.8.8,0,1,1,.617.953Zm-.39-2.609a.717.717,0,0,0-.866.563l-.4,1.883a9.931,9.931,0,0,1-4.081.877,9.747,9.747,0,0,1-4.167-.92l-.4-1.883a.727.727,0,0,0-.866-.563l-1.667.357a9.664,9.664,0,0,1-.855-1.017h8.1c.087,0,.152-.022.152-.1V16.355c0-.087-.065-.1-.152-.1H11.3V14.45h2.554a1.6,1.6,0,0,1,1.569,1.364c.1.4.325,1.7.476,2.111.152.465.769,1.4,1.429,1.4h4.037a.617.617,0,0,0,.141-.011,9.612,9.612,0,0,1-.92,1.072l-1.7-.368ZM7.685,22.6a.8.8,0,1,1,.617-.953A.81.81,0,0,1,7.685,22.6ZM4.6,10.164a.8.8,0,1,1-1.061-.411A.8.8,0,0,1,4.6,10.164Zm-.942,2.23,1.732-.769a.721.721,0,0,0,.368-.963L5.412,9.85h1.4v6.31H3.994a9.805,9.805,0,0,1-.379-2.717c0-.357.022-.714.054-1.061Zm7.6-.606V9.926h3.334c.173,0,1.223.195,1.223.985,0,.649-.8.877-1.461.877h-3.1Zm12.134,1.667c0,.249-.011.487-.032.736H22.341c-.1,0-.141.065-.141.162v.465c0,1.093-.617,1.342-1.158,1.4-.52.054-1.093-.216-1.158-.53a3.518,3.518,0,0,0-1.613-2.717,3.659,3.659,0,0,0,2.035-2.814,3.175,3.175,0,0,0-1.548-2.609,4.42,4.42,0,0,0-2.122-.7H6.137a9.948,9.948,0,0,1,5.531-3.128l1.234,1.3a.735.735,0,0,0,1.039.022l1.385-1.321A9.9,9.9,0,0,1,22.1,8.551l-.953,2.143a.73.73,0,0,0,.368.963l1.829.812a9.849,9.849,0,0,1,.043.985ZM12.891,2.619a.8.8,0,1,1-.022,1.137.794.794,0,0,1,.022-1.137ZM22.308,10.2a.8.8,0,1,1,.411,1.061A.793.793,0,0,1,22.308,10.2Z" transform="translate(0 0)"/>
  <g id="Group_104294" data-name="Group 104294" transform="translate(28.759 7.717)">
    <path id="Path_74627" data-name="Path 74627" d="M271.047,96.1c0,.985-.6,2.143-1.559,2.143s-1.331-.476-1.331-1.667.022-4.481.022-4.481H265.7v4.752c0,2.078.974,3.247,2.782,3.247a3.028,3.028,0,0,0,2.587-1.375v1.169h2.479V92.1h-2.49C271.047,92.1,271.047,95.12,271.047,96.1Z" transform="translate(-265.7 -89.849)"/>
    <path id="Path_74628" data-name="Path 74628" d="M360.346,93.571c-1.613-.087-1.948-.346-1.948-.779s.433-.758,1.4-.758a14.326,14.326,0,0,1,2.966.649v-1.84a10.614,10.614,0,0,0-3.031-.444c-2.089,0-3.529.5-3.529,2.381,0,2.176,1.829,2.446,2.922,2.533s1.8.292,1.8.79-.465.833-1.559.833a7.631,7.631,0,0,1-3.031-.693V98.02s.866.574,3.431.574,3.507-1.082,3.507-2.652S361.958,93.658,360.346,93.571Z" transform="translate(-346.404 -88.333)"/>
    <path id="Path_74629" data-name="Path 74629" d="M436.045,75.283V73.551h-2.511V71.3h-2.511v2.262H429.8v1.732h1.223v3.972a2.056,2.056,0,0,0,2.057,2.057h2.76V79.656h-1.5a.8.8,0,0,1-.8-.8V75.283Z" transform="translate(-412.038 -71.3)"/>
  </g>
</svg>
