<svg xmlns="http://www.w3.org/2000/svg" width="51.272" height="24.226" viewBox="0 0 51.272 24.226">
  <g id="solidity-coverage" transform="translate(-1)">
    <g id="Group_104300" data-name="Group 104300" transform="translate(1 0)" opacity="0.8">
      <path id="Path_74898" data-name="Path 74898" d="M4.354,12.36C2.231,12.36,1.107,11.129,1,8.676l1.919-.4c.048,1.6.5,2.394,1.367,2.394a.9.9,0,0,0,.746-.31,1.265,1.265,0,0,0,.242-.824,2.2,2.2,0,0,0-.184-.921,2.608,2.608,0,0,0-.427-.688,7.889,7.889,0,0,0-.688-.659L2.4,5.9a4.4,4.4,0,0,1-1.037-1.28,3.49,3.49,0,0,1-.339-1.648A2.829,2.829,0,0,1,1.843.795,3.212,3.212,0,0,1,4.112,0,3.61,3.61,0,0,1,5.285.165,2.677,2.677,0,0,1,6.128.62a2.288,2.288,0,0,1,.553.717,3.807,3.807,0,0,1,.33.892,6.2,6.2,0,0,1,.155,1.028l-1.881.368c-.01-.242-.029-.456-.048-.63a2.717,2.717,0,0,0-.116-.543,1.745,1.745,0,0,0-.2-.446.936.936,0,0,0-.339-.271.922.922,0,0,0-.494-.078,1.03,1.03,0,0,0-.746.32,1.139,1.139,0,0,0-.262.795,1.8,1.8,0,0,0,.233.96,3.691,3.691,0,0,0,.717.8L5.6,5.9a9.2,9.2,0,0,1,.688.688,5.367,5.367,0,0,1,.553.766,3.8,3.8,0,0,1,.407.95,4.04,4.04,0,0,1,.136,1.1,2.892,2.892,0,0,1-.834,2.142A3.017,3.017,0,0,1,4.354,12.36Z" transform="translate(-1 0)"/>
      <path id="Path_74899" data-name="Path 74899" d="M81.48,12.36A3.255,3.255,0,0,1,78.8,11.352,4.663,4.663,0,0,1,78,8.385V3.926a6.541,6.541,0,0,1,.184-1.667,3.4,3.4,0,0,1,.582-1.221A2.428,2.428,0,0,1,79.852.262,4.554,4.554,0,0,1,81.48,0a3.23,3.23,0,0,1,2.666,1,4.542,4.542,0,0,1,.814,2.928V8.385a6.646,6.646,0,0,1-.184,1.667,3.428,3.428,0,0,1-.591,1.241,2.463,2.463,0,0,1-1.086.795A4.254,4.254,0,0,1,81.48,12.36Zm-.553-1.726a1.374,1.374,0,0,0,.553.1,1.3,1.3,0,0,0,.543-.1.827.827,0,0,0,.359-.252,1.108,1.108,0,0,0,.213-.4,3.005,3.005,0,0,0,.107-.494,5.116,5.116,0,0,0,.029-.591V3.412a3.892,3.892,0,0,0-.048-.727,1.837,1.837,0,0,0-.174-.553.861.861,0,0,0-.378-.388,1.737,1.737,0,0,0-1.3,0,.775.775,0,0,0-.378.388,1.82,1.82,0,0,0-.165.553,4.949,4.949,0,0,0-.048.727V8.9a5.117,5.117,0,0,0,.029.591,2.257,2.257,0,0,0,.107.494,1.023,1.023,0,0,0,.2.4A.879.879,0,0,0,80.928,10.634Z" transform="translate(-70.536 0)"/>
      <path id="Path_74900" data-name="Path 74900" d="M166.4,13.479V1.4h2.2V11.947h2.889v1.532Z" transform="translate(-150.366 -1.264)"/>
      <path id="Path_74901" data-name="Path 74901" d="M231.6,13.479V1.4h2.171V13.479Z" transform="translate(-209.245 -1.264)"/>
      <path id="Path_74902" data-name="Path 74902" d="M273.2,13.479V1.4h2.811a6.568,6.568,0,0,1,1.832.223,2.641,2.641,0,0,1,1.183.688,2.66,2.66,0,0,1,.63,1.163,6.523,6.523,0,0,1,.184,1.7V9.524a7.019,7.019,0,0,1-.194,1.755,2.918,2.918,0,0,1-.62,1.221,2.452,2.452,0,0,1-1.154.737,5.831,5.831,0,0,1-1.774.233h-2.9Zm2.191-1.541h.63a2.474,2.474,0,0,0,.572-.058,2.635,2.635,0,0,0,.417-.136.726.726,0,0,0,.281-.262,1.9,1.9,0,0,0,.174-.339,1.889,1.889,0,0,0,.087-.465c.019-.2.029-.378.039-.523s.01-.359.01-.65V5.084c0-.291-.01-.514-.019-.688a3.226,3.226,0,0,0-.068-.523.992.992,0,0,0-.165-.407,1.048,1.048,0,0,0-.281-.262,1.109,1.109,0,0,0-.436-.165A3.876,3.876,0,0,0,276,2.99h-.6v8.948Z" transform="translate(-246.813 -1.264)"/>
      <path id="Path_74903" data-name="Path 74903" d="M358.9,13.479V1.4h2.171V13.479Z" transform="translate(-324.205 -1.264)"/>
      <path id="Path_74904" data-name="Path 74904" d="M393.826,13.479V3.029H391.8V1.4h6.185V3.029h-1.958v10.45Z" transform="translate(-353.915 -1.264)"/>
      <path id="Path_74905" data-name="Path 74905" d="M460.062,13.479v-4.6L457.6,1.4h2.055l1.493,4.808L462.573,1.4h2.036l-2.443,7.474v4.6Z" transform="translate(-413.337 -1.264)"/>
    </g>
    <g id="Group_104302" data-name="Group 104302" transform="translate(1 16.984)">
      <g id="Group_104301" data-name="Group 104301" transform="translate(0)">
        <path id="Path_74906" data-name="Path 74906" d="M5.207,180.59a3.391,3.391,0,0,1-1.415.242A2.579,2.579,0,0,1,1,178.089,2.75,2.75,0,0,1,3.918,175.2a3.108,3.108,0,0,1,1.328.242l-.223.795a2.622,2.622,0,0,0-1.066-.213,1.824,1.824,0,0,0-1.919,2.016,1.793,1.793,0,0,0,1.91,1.968,2.711,2.711,0,0,0,1.086-.2Z" transform="translate(-1 -175.2)" fill="#333"/>
        <path id="Path_74907" data-name="Path 74907" d="M52.8,192.925a1.956,1.956,0,0,1-2.026,2.1,1.908,1.908,0,0,1-1.978-2.036,1.952,1.952,0,0,1,2.045-2.094A1.886,1.886,0,0,1,52.8,192.925Zm-2.976.039c0,.766.378,1.338.979,1.338.572,0,.969-.562.969-1.357,0-.62-.271-1.318-.96-1.318C50.109,191.626,49.828,192.3,49.828,192.964Z" transform="translate(-44.166 -189.377)" fill="#333"/>
        <path id="Path_74908" data-name="Path 74908" d="M94.466,191.7l.64,2.007c.116.349.194.669.271.989h.029c.078-.32.165-.63.271-.989l.62-2.007h1.057l-1.512,3.955h-.979L93.4,191.7Z" transform="translate(-84.443 -190.1)" fill="#333"/>
        <path id="Path_74909" data-name="Path 74909" d="M137.75,193.146c.029.717.582,1.018,1.221,1.018a3.12,3.12,0,0,0,1.1-.174l.145.688a3.77,3.77,0,0,1-1.377.242,1.869,1.869,0,0,1-2.036-2,1.956,1.956,0,0,1,1.929-2.123,1.721,1.721,0,0,1,1.706,1.919,3.819,3.819,0,0,1-.029.427Zm1.735-.7a.852.852,0,0,0-.824-.969.986.986,0,0,0-.921.969Z" transform="translate(-123.635 -189.288)" fill="#333"/>
        <path id="Path_74910" data-name="Path 74910" d="M182.229,192.257c0-.533-.01-.921-.029-1.27h.872l.029.756h.029a1.175,1.175,0,0,1,1.076-.843.849.849,0,0,1,.233.029v.94a1.223,1.223,0,0,0-.291-.029.882.882,0,0,0-.892.756,1.467,1.467,0,0,0-.029.31v2.045h-1Z" transform="translate(-164.634 -189.378)" fill="#333"/>
        <path id="Path_74911" data-name="Path 74911" d="M211.111,194.842l-.068-.436h-.029a1.464,1.464,0,0,1-1.173.523,1.17,1.17,0,0,1-1.241-1.173c0-1,.882-1.5,2.346-1.493V192.2c0-.262-.107-.688-.8-.688a2.179,2.179,0,0,0-1.066.291l-.194-.65a2.884,2.884,0,0,1,1.425-.349,1.476,1.476,0,0,1,1.629,1.667v1.425a6.548,6.548,0,0,0,.058.95Zm-.126-1.929c-.708-.019-1.377.136-1.377.737a.529.529,0,0,0,.572.572.805.805,0,0,0,.776-.543.615.615,0,0,0,.029-.223Z" transform="translate(-188.475 -189.288)" fill="#333"/>
        <path id="Path_74912" data-name="Path 74912" d="M255.449,190.8c-.019.271-.029.591-.029,1.134v2.239a2.327,2.327,0,0,1-.582,1.793,2.25,2.25,0,0,1-1.522.475,2.754,2.754,0,0,1-1.377-.32l.223-.756a2.381,2.381,0,0,0,1.154.3,1.048,1.048,0,0,0,1.134-1.192v-.339h-.019a1.324,1.324,0,0,1-1.154.582,1.754,1.754,0,0,1-1.677-1.929,1.891,1.891,0,0,1,1.793-2.084,1.233,1.233,0,0,1,1.144.62h.019l.039-.523Zm-1.028,1.59a1.293,1.293,0,0,0-.029-.271.825.825,0,0,0-.814-.64c-.562,0-.969.485-.969,1.289,0,.669.339,1.221.969,1.221a.861.861,0,0,0,.814-.6,1.454,1.454,0,0,0,.039-.359v-.64Z" transform="translate(-227.307 -189.197)" fill="#333"/>
        <path id="Path_74913" data-name="Path 74913" d="M300.45,193.146c.029.717.582,1.018,1.221,1.018a3.12,3.12,0,0,0,1.1-.174l.145.688a3.77,3.77,0,0,1-1.377.242,1.869,1.869,0,0,1-2.036-2,1.956,1.956,0,0,1,1.929-2.123,1.721,1.721,0,0,1,1.706,1.919,3.824,3.824,0,0,1-.029.427Zm1.735-.7a.852.852,0,0,0-.824-.969.986.986,0,0,0-.921.969Z" transform="translate(-270.563 -189.288)" fill="#333"/>
      </g>
    </g>
  </g>
</svg>
