<svg xmlns="http://www.w3.org/2000/svg" width="42.028" height="35.585" viewBox="0 0 42.028 35.585">
  <g id="Group_105577" data-name="Group 105577" transform="translate(-8654.94 -11430.002)">
    <g id="Group_104277" data-name="Group 104277" transform="translate(8654.94 11430.003)">
      <path id="Path_74589" data-name="Path 74589" d="M36.1,4.641,31.034,7.216,6.6,19.675a14.142,14.142,0,0,1-.128-1.906A14.56,14.56,0,0,1,28.133,5.082l2.9-1.479.427-.228A17.8,17.8,0,0,0,3.229,17.769c0,.455.014.91.057,1.351a3.247,3.247,0,0,1-1.764,3.129L0,23.031v3.627l4.494-2.29,1.451-.74L7.382,22.9,33.139,9.776l2.9-1.479,5.988-3.044V1.612Z" transform="translate(0 0.011)"/>
      <path id="Path_74590" data-name="Path 74590" d="M42.028,62.5,8.847,79.4,5.959,80.876,0,83.905v3.627l5.917-3.015,5.063-2.574L35.443,69.483A14.551,14.551,0,0,1,13.9,84.09l-.185.1L10.568,85.8A17.769,17.769,0,0,0,38.786,71.418c0-.455-.014-.91-.057-1.365a3.259,3.259,0,0,1,1.749-3.129l1.536-.782V62.5Z" transform="translate(0 -53.609)"/>
    </g>
  </g>
</svg>
