<svg xmlns="http://www.w3.org/2000/svg" width="41.091" height="35.536" viewBox="0 0 41.091 35.536">
  <g id="Group_105582" data-name="Group 105582" transform="translate(-7153.866 -11689.614)">
    <path id="Path_74630" data-name="Path 74630" d="M106.536,76.4,101.4,85.3l5.136,8.878,5.136-8.878Z" transform="translate(7067.875 11630.971)" fill="#202222"/>
    <path id="Path_74631" data-name="Path 74631" d="M106.536,0,101.4,8.878l5.136,8.878,5.136-8.878Z" transform="translate(7067.875 11689.614)" fill="#505252"/>
    <path id="Path_74632" data-name="Path 74632" d="M62.336,0,57.2,8.878l5.136,8.878,5.136-8.878Z" transform="translate(7101.803 11689.614)" fill="#505252"/>
    <path id="Path_74633" data-name="Path 74633" d="M150.736,0,145.6,8.878l5.136,8.878,5.136-8.878Z" transform="translate(7033.948 11689.614)" fill="#505252"/>
    <path id="Path_74634" data-name="Path 74634" d="M128.636,38.2,123.5,47.078l5.136,8.9,5.136-8.9Z" transform="translate(7050.912 11660.293)" fill="#3b3d3d"/>
    <path id="Path_74635" data-name="Path 74635" d="M84.436,38.2,79.3,47.078l5.136,8.9,5.136-8.9Z" transform="translate(7084.839 11660.293)" fill="#3b3d3d"/>
    <path id="Path_74636" data-name="Path 74636" d="M40.236,8.878,45.373,0H35.1Z" transform="translate(7118.766 11689.614)" fill="#8e8f8f"/>
    <path id="Path_74637" data-name="Path 74637" d="M172.836,8.878,177.973,0H167.7Z" transform="translate(7016.985 11689.614)" fill="#8e8f8f"/>
  </g>
</svg>
