<svg xmlns="http://www.w3.org/2000/svg" width="39.993" height="39.992" viewBox="0 0 39.993 39.992">
  <g id="webassembly" transform="translate(-1 1)">
    <path id="Path_74643" data-name="Path 74643" d="M24.571,0V.216a4.585,4.585,0,0,1-9.171,0h0V0H0V39.992H39.993V0Z" transform="translate(1 -1)" fill="#654ff0"/>
    <path id="Path_74644" data-name="Path 74644" d="M142.16,329.81h2.65l1.809,9.637h.033l2.175-9.637h2.479l1.964,9.755h.039l2.062-9.755h2.6l-3.378,14.16h-2.63l-1.948-9.637h-.051l-2.085,9.637H145.2Zm18.8,0h4.178l4.15,14.16h-2.734l-.9-3.151h-4.76l-.7,3.151h-2.663Zm1.591,3.49-1.156,5.2h3.6l-1.327-5.2Z" transform="translate(-132.87 -308.258)" fill="#fff"/>
  </g>
</svg>
