<svg width="32" height="18" viewBox="0 0 32 18" fill="none" xmlns="http://www.w3.org/2000/svg">
<path id="path80319" d="M23.8067 5.40766L26.4626 0.808874C26.534 0.68539 26.5535 0.538666 26.5169 0.400821C26.4803 0.262976 26.3906 0.14524 26.2674 0.0733852C26.2064 0.0375339 26.1389 0.0142044 26.0688 0.00476144C25.9987 -0.00468156 25.9274 -4.84838e-05 25.8591 0.0183897C25.7908 0.0368278 25.7269 0.0687008 25.671 0.112144C25.6152 0.155588 25.5686 0.209729 25.5339 0.271401L22.844 4.92676C20.6904 3.96456 18.3582 3.46723 15.9994 3.46723C13.6407 3.46723 11.3084 3.96456 9.15486 4.92676L6.46523 0.269421C6.39063 0.152544 6.27376 0.0690174 6.13902 0.0362955C6.00428 0.00357354 5.86211 0.0241883 5.74221 0.0938319C5.62232 0.163476 5.53398 0.276759 5.49565 0.410011C5.45732 0.543262 5.47197 0.686171 5.53654 0.808874L8.19109 5.4071C5.89798 6.65973 3.95018 8.45991 2.52107 10.6474C1.09197 12.8349 0.225912 15.3418 0 17.9449H32C31.774 15.3416 30.9077 12.8346 29.4781 10.6471C28.0486 8.45969 26.1003 6.65976 23.8067 5.40766ZM8.65303 13.45C8.38778 13.45 8.12848 13.3713 7.90793 13.2239C7.68739 13.0766 7.51549 12.8671 7.41398 12.622C7.31247 12.377 7.28591 12.1073 7.33766 11.8472C7.38941 11.587 7.51714 11.3481 7.7047 11.1605C7.89226 10.9729 8.13123 10.8452 8.39139 10.7934C8.65154 10.7417 8.9212 10.7683 9.16626 10.8698C9.41132 10.9713 9.62078 11.1432 9.76814 11.3637C9.91551 11.5843 9.99417 11.8436 9.99417 12.1088C9.99417 12.4645 9.85287 12.8056 9.60136 13.0571C9.34984 13.3087 9.00872 13.45 8.65303 13.45ZM23.3433 13.45C23.078 13.45 22.8187 13.3713 22.5982 13.2239C22.3776 13.0766 22.2058 12.8671 22.1042 12.622C22.0027 12.377 21.9762 12.1073 22.0279 11.8472C22.0797 11.587 22.2074 11.3481 22.395 11.1605C22.5825 10.9729 22.8215 10.8452 23.0816 10.7934C23.3418 10.7417 23.6115 10.7683 23.8565 10.8698C24.1016 10.9713 24.311 11.1432 24.4584 11.3637C24.6058 11.5843 24.6844 11.8436 24.6844 12.1088C24.6844 12.4645 24.5431 12.8056 24.2916 13.0571C24.0401 13.3087 23.699 13.45 23.3433 13.45Z" fill="white"/>
</svg>
