<svg xmlns="http://www.w3.org/2000/svg" width="20.065" height="18" viewBox="0 0 20.065 18">
  <g id="_3d-cube" data-name="3d-cube" transform="translate(0 -26.345)">
    <path id="Path_77263" data-name="Path 77263" d="M18.105,40.426a1.952,1.952,0,0,0-1.322.513l-1.429-.83V34.634L10.62,31.9V30.176a1.961,1.961,0,1,0-1.176,0V31.9L4.71,34.634V40.11l-1.429.829a1.961,1.961,0,1,0,.59,1.017l1.434-.832,4.726,2.729,4.726-2.729,1.435.833a1.96,1.96,0,1,0,1.912-1.531ZM1.96,43.17a.785.785,0,1,1,.785-.785A.785.785,0,0,1,1.96,43.17ZM9.247,28.306a.785.785,0,1,1,.785.785.786.786,0,0,1-.785-.785Zm.2,13.849L5.886,40.1V35.992l3.558,2.054Zm-2.97-7.181,3.558-2.054,3.558,2.054-3.558,2.054Zm7.7,5.127L10.62,42.155V38.046l3.558-2.054Zm3.927,3.07a.785.785,0,1,1,.785-.785A.785.785,0,0,1,18.105,43.17Z" transform="translate(0 0)" fill="#fff"/>
  </g>
</svg>
