<svg id="Layer_1" data-name="Layer 1" xmlns="http://www.w3.org/2000/svg" viewBox="0 0 1082.25 256.41"><defs><style>.cls-1{fill:#fff;fill-rule:evenodd;}</style></defs><title>Caring Approach Logo new white</title><path class="cls-1" d="M12.24,173.41A122.64,122.64,0,0,1,0,120.06,120.06,120.06,0,1,1,120.06,240.12a118.22,118.22,0,0,1-88.61-39.56c-.32-.86-.64-1.68-1-2.48l.43-.3c18.25-13.06,43.46-10.11,61.93.91,25,14.94,18-5.31,45.22-.94,1.36.21,5.36-2.07,8.83-5.62,10.33-10.6,24.25-32.49,15.84-33-4.75-.31-7.26,9.89-9.7,12,.06-2.85,1.5-6.49.87-7.9-3.07-6.87-12,14.86-11.74,13.73,2.21-10.33-2.75-7.25-4.65-2.6-1.37,3.34-2,5.51-3.08,8.7-1.54,1.5-5.19,2.58-9.78,3-3.67.32-24.55-5.74-29.44-9.4-.86-.64,3.43-2.44,8.62-2.67,11-.5,16.2,1.22,19.52.54,8.84-1.82,8.92-12.9.16-13.26-7.62-.31-21.37,3.88-27.42,1.29-9.86-4.23-21.83-6.25-31.37-4.73-19.08,3.05-37.87,11.41-51.24,16.92ZM120.6,9.39C162,34.21,175.52,91,122.41,145.16,107.52,126.27,91.92,109,89.54,88.83,85.53,54.91,115.88,48.49,120.6,9.39Zm83.86,46.33c-14.25.44-28.09,2.86-37.54,11,4.32,16.28.49,33.28-8.53,47.41,7-7.86,25.44-13.33,45.71-12.11C209.92,93.8,211.54,72.16,204.46,55.72ZM41.91,49.58C56.16,50,72.5,56.39,82,64.55c-5.41,9.79-8.32,21.11.33,43.55-7-6.87-26.25-12.42-46.52-14.37C34.3,73.05,37.25,59.89,41.91,49.58ZM3.28,117.83c24-16.9,72.13-14.47,105.78,26.55-17.19-4.49-43,.69-58.85.63C24.55,144.91,18.83,127.78,3.28,117.83Zm231.79,10.11c-24-18.9-64.92-25-98.57,17.88,18.42-.81,32.55,6.8,47.66,4.6,25.4-3.69,23.43-11.45,50.91-22.48"/><path class="cls-1" d="M978.66,169.06A36.06,36.06,0,0,0,966,157.26c-5.41-2.93-11.89-4.4-19.38-4.4a35.09,35.09,0,0,0-25.15,9.85,32.34,32.34,0,0,0-10.32,24.35,31.94,31.94,0,0,0,10.38,24.25c6.9,6.48,15.46,9.75,25.62,9.75a39.41,39.41,0,0,0,19.68-4.8,31.66,31.66,0,0,0,12.07-11.82l9.16,8a42.75,42.75,0,0,1-12.19,11.42q-11.91,7.47-28.12,7.48-20.78,0-35.11-12.95T898.3,187.22q0-18.63,14.51-31.58t35.29-12.95q15.6,0,27.47,7.38a44.42,44.42,0,0,1,12.14,11.06ZM379.75,186.62q0-13.38-10.91-23.34a36,36,0,0,0-25.09-10q-15.44,0-26.28,10A32.27,32.27,0,0,0,306.62,188q0,14,10.82,23.7a37.59,37.59,0,0,0,25.95,9.67,36,36,0,0,0,25.51-10.19Q379.75,201,379.75,186.62Zm0,29.25a38.31,38.31,0,0,1-15.54,11.4,54.34,54.34,0,0,1-21.11,4.11q-21.09,0-35.11-12.64t-14-31.21q0-18.85,14.33-31.55t35.85-12.67a50.82,50.82,0,0,1,20.27,3.94,39.81,39.81,0,0,1,15.34,11.34v-13.4h12v84h-12Zm31-70.68h12.13V158.9q5.22-7.11,14.95-11.34a50.78,50.78,0,0,1,20.67-4.25q21.71,0,35.94,12.65a40.5,40.5,0,0,1,14.24,31.57q0,18.5-14.06,31.18t-35.14,12.67a53.73,53.73,0,0,1-21.05-4,40.16,40.16,0,0,1-15.55-11.55v40.54H410.76Zm12.13,41.43q0,14.35,10.82,24.56a35.81,35.81,0,0,0,25.45,10.19A37.44,37.44,0,0,0,485,211.7Q495.87,202,495.84,188A32.24,32.24,0,0,0,485,163.28q-10.83-10-26.28-10a35.62,35.62,0,0,0-25,10C426.49,170,422.89,177.75,422.89,186.62Zm100.22-41.43h12.13V158.9c3.47-4.74,8.47-8.52,15-11.34a50.73,50.73,0,0,1,20.66-4.25q21.72,0,35.94,12.65A40.47,40.47,0,0,1,621,187.53Q621,206,607,218.71t-35.14,12.67a53.68,53.68,0,0,1-21-4,40.08,40.08,0,0,1-15.55-11.55v40.54H523.11Zm12.13,41.43q0,14.35,10.81,24.56a35.81,35.81,0,0,0,25.45,10.19,37.46,37.46,0,0,0,25.87-9.67Q608.2,202,608.19,188a32.27,32.27,0,0,0-10.85-24.72q-10.83-10-26.28-10a35.65,35.65,0,0,0-25,10C538.83,170,535.24,177.75,535.24,186.62ZM648.11,229.2H635.63v-84h11.62v9.72a27,27,0,0,1,22.27-11l.09,11.73c-7.67.6-13.2,2.63-16.5,6.07s-5,9-5,16.77Zm40-42.14a31.84,31.84,0,0,0,10.56,24.35c7,6.55,15.78,9.8,26.21,9.8s18.94-3.25,25.9-9.8a32.12,32.12,0,0,0,10.46-24.48q0-14.9-10.58-24.48c-7.08-6.39-16-9.59-26.91-9.59a35.52,35.52,0,0,0-25.15,9.85A32.11,32.11,0,0,0,688.07,187.06Zm-12.84.21q0-18.5,14.45-31.6a49.16,49.16,0,0,1,34.21-13.14q20.83,0,35.5,12.9t14.66,30.77q0,18.77-14.36,32.07t-34.85,13.27q-20.77,0-35.2-13T675.23,187.27Zm196.32-.65c0-8.92-3.64-16.68-10.91-23.34a36.05,36.05,0,0,0-25.09-10q-15.43,0-26.28,10A32.24,32.24,0,0,0,798.42,188q0,14,10.82,23.7a37.62,37.62,0,0,0,26,9.67,36,36,0,0,0,25.51-10.19Q871.53,201,871.55,186.62Zm0,29.25A38.17,38.17,0,0,1,856,227.27a54.12,54.12,0,0,1-21.11,4.11q-21.09,0-35.1-12.64t-14-31.21q0-18.85,14.33-31.55t35.85-12.67a50.84,50.84,0,0,1,20.28,3.94,39.88,39.88,0,0,1,15.34,11.34v-13.4h12v84h-12ZM1002,118h12.13V155a34.05,34.05,0,0,1,12.76-8.66,45.84,45.84,0,0,1,16.71-2.89q20.19,0,29.43,10.11t9.24,32.91V229.2h-12.13V186.33q0-18.26-6.27-25.39t-21-7.15a34.44,34.44,0,0,0-14.68,3,23.8,23.8,0,0,0-10,8.44A21.88,21.88,0,0,0,1015,173c-.63,2.92-.93,8-.93,15.3V229.2H1002ZM374.32,42.65a36.06,36.06,0,0,0-12.67-11.8q-8.13-4.39-19.38-4.4a35.09,35.09,0,0,0-25.15,9.85A32.3,32.3,0,0,0,306.8,60.65,31.91,31.91,0,0,0,317.18,84.9c6.9,6.48,15.46,9.75,25.62,9.75a39.54,39.54,0,0,0,19.68-4.79A31.87,31.87,0,0,0,374.55,78l9.16,8a42.75,42.75,0,0,1-12.19,11.42Q359.61,105,343.39,105q-20.77,0-35.1-13T294,60.81q0-18.62,14.5-31.58t35.29-12.95q15.62,0,27.47,7.38a44.61,44.61,0,0,1,12.15,11.06Zm103,17.4q0-13.38-10.91-23.33a36,36,0,0,0-25.09-10q-15.44,0-26.28,10a32.22,32.22,0,0,0-10.85,24.71q0,14,10.81,23.7a37.61,37.61,0,0,0,26,9.68,36,36,0,0,0,25.51-10.2Q477.28,74.4,477.3,60.05Zm0,29.26a38.31,38.31,0,0,1-15.55,11.39,54.13,54.13,0,0,1-21.11,4.12q-21.09,0-35.1-12.65T391.5,61q0-18.84,14.33-31.54t35.85-12.67A51.08,51.08,0,0,1,462,20.68,40.08,40.08,0,0,1,477.3,32V18.63h11.95v84H477.3ZM521,102.63H508.48v-84h11.63v9.72A28.86,28.86,0,0,1,530,20.14a29.36,29.36,0,0,1,12.43-2.77l.08,11.74c-7.67.59-13.2,2.63-16.5,6.07s-5,9-5,16.76Zm32.46,0v-84h12.31v84Zm32.14-84h11.95v9.51a35.68,35.68,0,0,1,13.11-8.47,53.37,53.37,0,0,1,35.82.67,30.71,30.71,0,0,1,13,9.86,29.45,29.45,0,0,1,4.75,10.59q1.42,6.06,1.43,17.91v43.93H653.53V55.57c0-9.94-2.17-17.13-6.48-21.62s-11.27-6.72-20.78-6.72a34.33,34.33,0,0,0-14.69,2.95,23.7,23.7,0,0,0-10,8.44,22,22,0,0,0-3.18,7.82q-.93,4.38-.92,15.31v40.88H585.57Zm116,90.88a21.68,21.68,0,0,0,10.11,11.4Q719,125,729.43,125c10.91,0,19.68-3.18,26.25-9.57s9.9-14.86,9.9-25.52V87.69a46.85,46.85,0,0,1-15.85,12.56,44.62,44.62,0,0,1-19.59,4.26q-21.63,0-35.91-12.65T680,60.37c0-12.39,4.7-22.76,14.12-31.19s21-12.59,34.9-12.59q12.13,0,21,3.8a42.13,42.13,0,0,1,15.64,12V18.63h11.95V88.68q0,22-12.58,34.41t-34.69,12.39q-16.28,0-27.94-7.07t-15.05-18.9ZM693,59.89a32.36,32.36,0,0,0,10.67,24.67,37.48,37.48,0,0,0,50.87,0q10.88-10,10.88-23.42a32.47,32.47,0,0,0-10.73-24.51A35.49,35.49,0,0,0,729.4,26.45a37,37,0,0,0-25.69,9.67A30.71,30.71,0,0,0,693,59.89"/></svg>