<svg id="Layer_1" data-name="Layer 1" xmlns="http://www.w3.org/2000/svg" viewBox="0 0 2475.92 449.71"><defs><style>.cls-1{fill:#fff;}</style></defs><title>continental w</title><path class="cls-1" d="M2496.55,434.53H2162V423.18h334.58ZM2329.83,371l31.75-30.62,12.48,12.47-34,28.36c-2.27,3.4-4.54,9.07-6.81,12.47h-24.95A42.18,42.18,0,0,1,2329.83,371ZM2223.21,178.2c-1.13,0-26.08,6.81-26.08,6.81a161.15,161.15,0,0,0-17,7.93c-5.68,3.41-11.35,9.08-11.35,12.48l22.69,5.67a86.36,86.36,0,0,1,10.21-10.21l5.67-2.26,18.14-19.29c1.14-1.13,1.14-2.26-2.83-1.13Zm153.12,61.25a506.31,506.31,0,0,1-38.56-47.64,137.43,137.43,0,0,0,9.07-66.92A173.91,173.91,0,0,0,2331,101.08c-2.27-3.41-12.47-14.75-17-14.75-1.13,0-2.27,0-2.27,1.14l1.14,12.47c-14.75,9.08-31.76,20.42-46.51,31.76a46.84,46.84,0,0,0,1.14,13.61,28.46,28.46,0,0,0,7.94,4.54,291.93,291.93,0,0,1,30.62-5.68l-19.28,28.36-22.68,15.88-27.22-9.08c-2.27,0-3.41,0-4.54,1.14L2211.87,202a5.91,5.91,0,0,0-2.27,4.53l-1.13,23.82v7.94a41.43,41.43,0,0,0,7.94,26.09l12.48-19.28a49.26,49.26,0,0,1-5.68-13.61V211.09l12.48-9.07,34,23.82a171.4,171.4,0,0,0,18.14,27.22,323,323,0,0,0,48.77,35.16,145,145,0,0,0,6.81,26.08l40.83,42-23.82,30.62a29.84,29.84,0,0,0-15.88,24.95h28.36l3.4-15.88,34-37.43c2.26-2.26,2.26-3.4,1.13-5.67l-9.07-31.75A59.89,59.89,0,0,0,2417.16,286c0-30.63-30.62-38.56-40.83-47.07Zm51,49.9a148.8,148.8,0,0,0-7.94-21.55s1.13-1.13,4.53,0,20.42,13.61,20.42,13.61c9.07,12.48,14.74,66.92,14.74,86.2a99.43,99.43,0,0,1-27.22-17Zm-868.79-12.48c0-20.41-6.8-36.29-23.81-36.29s-25,15.88-25,36.29v135h20.42v21.55H1415.68V411.84h21.55v-186h-21.55v-21h89.6V240h1.13a65.44,65.44,0,0,1,60.11-39.69A57.51,57.51,0,0,1,1626.64,248a219.57,219.57,0,0,1,3.4,37.43v127h27.22V434h-99.81l1.13-157.65m-463.88,0c0-20.42-6.8-36.3-23.81-36.3s-25,15.88-25,36.3v135h20.42v21.55H951.8V411.27h21.55V225.84H951.8v-21h89.6V240h1.13a65.44,65.44,0,0,1,60.11-39.69A57.51,57.51,0,0,1,1162.76,248a219.57,219.57,0,0,1,3.4,37.43v127h27.22V434h-99.81Zm661.23-51v169A13.62,13.62,0,0,0,1768.3,409a15.76,15.76,0,0,0,2.38,0,49.54,49.54,0,0,0,13.61-2.27v20.41a85,85,0,0,1-44.24,9.08c-35.16,0-56.71-17-56.71-54.44v-156h-23.81V211.09c27.22-21.55,59-46.5,83.93-66.92h13.61v60.68h34.59v20.42ZM325.73,86.33s55.57,55.58,80.53,83.93v21.55a177.41,177.41,0,0,0-118-46.5c-103.21,0-167.86,78.26-167.86,174.66S181.69,493.5,288.3,493.5A162.49,162.49,0,0,0,407.39,443v20.42C375.63,507.68,316.66,536,242.93,536c-131.56,1.14-222.3-94.13-222.3-215.49C21.5,199.4,120.41,101.9,241.55,102.76l1.38,0a263.39,263.39,0,0,1,82.8,13.61Zm1055.92,287a61,61,0,0,1-49.9,21.55c-20.42,0-53.31-11.34-54.44-64.65H1399.8c0-4.54,1.13-12.48,1.13-17,0-64.65-26.08-112.29-95.27-112.29S1201.32,254.19,1201.32,320s35.16,118,104.34,118a93.7,93.7,0,0,0,89.6-53.31ZM1276.17,307.5c0-60.11,4.54-82.8,25-82.8s24.95,21.55,26.08,82.8ZM265.62,318.84c0-70.32,6.8-100.94,30.62-100.94s30.62,30.62,30.62,100.94-6.8,100.94-30.62,100.94-30.62-30.62-30.62-100.94M180.55,320c0,69.19,42,125.9,115.69,125.9S411.93,389.16,411.93,320,370,193.51,296.24,193.51s-115.69,56.71-115.69,125.9M573,276.31c0-20.42-6.8-36.3-23.82-36.3s-24.95,15.88-24.95,36.3v135h19.85v21.55h-114V411.27h21.55V225.84H430.07v-21h89.6V240h1.14a65.43,65.43,0,0,1,60.11-39.69A57.49,57.49,0,0,1,641,248a217.56,217.56,0,0,1,3.4,37.43v127h27.22V434h-99.8V276.87Zm259.73-132.7c0,20.41,18.15,34,44.23,34s44.23-13.61,44.23-34-18.14-34-44.23-34-44.23,14.75-44.23,34m-62.38,81.66v169A13.61,13.61,0,0,0,782.7,409a13.4,13.4,0,0,0,2.37,0,49.54,49.54,0,0,0,13.61-2.27v20.41a84.94,84.94,0,0,1-44.23,9.08c-35.16,0-56.71-17-56.71-54.44v-156H673.92V211.09c27.22-21.55,59-46.5,83.93-66.92h13v60.68h28.35v20.42ZM2108.66,412.41H2137V434h-101v-292h-25V120.36h98.11V413Zm-193.94-91.87a21.69,21.69,0,0,0-15.88-4.54c-21.55,0-26.09,21.55-26.09,43.1s6.81,38.56,25,38.56a20,20,0,0,0,17-6.8Zm2.27,86.2a70.08,70.08,0,0,1-60.12,31.75c-37.42,0-60.11-31.75-60.11-70.31,0-45.37,32.89-74.86,85.07-74.86a96.52,96.52,0,0,1,32.89,4.54V283.11a38.79,38.79,0,0,0-42-42,63.83,63.83,0,0,0-52.17,27.22l-12.48-15.88a109,109,0,0,1,90.74-52.17c55.57,0,88.46,32.89,88.46,82.79v129.3h23.82V434h-93ZM820.23,434V412.41h20.42V225.84H820.23v-21h93V412.41h21.54V434Z" transform="translate(-20.63 -86.33)"/></svg>