<svg width="42" height="33" viewBox="0 0 42 33" fill="none" xmlns="http://www.w3.org/2000/svg">
<path fill-rule="evenodd" clip-rule="evenodd" d="M15.2126 8.82916C15.0791 8.70719 15.0065 8.53413 15.0131 8.35448C15.0181 8.17318 15.1021 8.00507 15.2422 7.89132L17.9782 5.68439C18.2452 5.47013 18.6342 5.51133 18.8485 5.77834C19.0627 6.0437 19.0215 6.43432 18.7545 6.64858L16.5789 8.40223L18.6507 10.2993H18.6524C18.9045 10.53 18.921 10.9223 18.6903 11.1745C18.4595 11.4266 18.0689 11.4431 17.8168 11.2124L15.2126 8.82916ZM19.572 13.9865C19.6181 13.998 19.6659 14.003 19.7137 14.003C20.0005 14.003 20.2494 13.8052 20.3153 13.525L22.4316 4.40908C22.5091 4.07615 22.303 3.74322 21.9701 3.66575C21.6372 3.58664 21.3042 3.79431 21.2251 4.12727L19.1072 13.2419C19.071 13.4018 19.0973 13.5699 19.1847 13.71C19.272 13.8484 19.4105 13.9473 19.5703 13.9852L19.572 13.9865ZM22.7645 6.93551C22.631 6.83498 22.5453 6.68334 22.5255 6.51852C22.5058 6.35206 22.5536 6.18559 22.659 6.05537C22.7629 5.92516 22.9162 5.84275 23.0826 5.82792C23.2491 5.81144 23.4139 5.86418 23.5424 5.97296L26.2768 8.17824C26.4169 8.29197 26.4993 8.46008 26.5059 8.63976C26.5108 8.81941 26.4383 8.99411 26.3065 9.11608L23.7023 11.4993H23.7007C23.4485 11.7301 23.0579 11.712 22.8271 11.4598C22.5964 11.2076 22.6129 10.8154 22.8651 10.5846L24.9385 8.68754L22.7645 6.93551ZM11.801 8.82599C11.801 11.1664 12.7305 13.4112 14.3853 15.066C16.0418 16.7208 18.2866 17.6503 20.627 17.6503C22.9674 17.6503 25.2105 16.7208 26.867 15.0643C28.5218 13.4096 29.4514 11.1647 29.4514 8.82435C29.4514 6.48396 28.5218 4.23918 26.8654 2.58435C25.2106 0.929565 22.9657 0 20.6254 0C18.2866 0.00329658 16.0436 0.932856 14.3887 2.58764C12.7339 4.24243 11.8026 6.48565 11.801 8.82599ZM3.92091 28.0818H37.3314V7.11041C37.3298 5.927 36.3705 4.96778 35.1871 4.96778H29.9197C31.2086 8.07297 30.8625 11.6166 28.9951 14.4136C27.1277 17.209 23.988 18.8883 20.6256 18.8883C17.2632 18.8883 14.1236 17.2087 12.2561 14.4136C10.3903 11.6167 10.0426 8.07322 11.3331 4.96778H6.06396C4.88221 4.96778 3.92298 5.927 3.92133 7.11041L3.92091 28.0818ZM41.206 29.8157L41.2077 29.8174C41.2077 29.5421 40.9852 29.3196 40.7116 29.3196H0.496111C0.222512 29.3213 0 29.5421 0 29.8174V30.9612C0 31.8776 0.756529 33 1.64158 33H39.5697C40.4532 33 41.2113 31.8793 41.2113 30.9629L41.2097 29.8174L41.206 29.8157ZM21.9848 30.5393L21.9864 30.5409C22.3276 30.5409 22.6045 30.8178 22.6045 31.1607C22.6045 31.5018 22.3276 31.7787 21.9864 31.7787H19.2224C19.056 31.7837 18.8928 31.721 18.7741 31.604C18.6538 31.487 18.5862 31.3271 18.5862 31.159C18.5862 30.9925 18.6538 30.8326 18.7741 30.7156C18.8928 30.5986 19.056 30.536 19.2224 30.5409L21.9848 30.5393ZM2.39098 30.5211C2.73215 30.5228 3.00903 30.7997 3.01071 31.1409V31.1788C3.00083 31.515 2.72722 31.782 2.39098 31.782C2.05639 31.782 1.78115 31.515 1.77124 31.1788V31.1409C1.77124 30.7997 2.04813 30.5228 2.39098 30.5211ZM5.28684 30.5211C5.62966 30.5228 5.90658 30.7997 5.90658 31.1409V31.1788C5.89834 31.515 5.62309 31.782 5.28853 31.782C4.9523 31.782 4.67871 31.515 4.66879 31.1788V31.1409C4.66879 30.7997 4.94568 30.5228 5.28684 30.5211ZM8.18435 30.5211C8.52717 30.5228 8.80409 30.7997 8.80409 31.1409V31.1788C8.7942 31.515 8.5206 31.782 8.18435 31.782C7.84977 31.782 7.57453 31.515 7.5663 31.1788V31.1409C7.5663 30.7997 7.8432 30.5228 8.18435 30.5211Z" fill="white"/>
</svg>
