<svg width="24" height="24" viewBox="0 0 24 24" fill="none" xmlns="http://www.w3.org/2000/svg">
<path fill-rule="evenodd" clip-rule="evenodd" d="M14.0562 2.53699L14.6152 1.97793C15.0492 1.54396 15.4231 1.17009 15.7564 0.887064C16.1063 0.57079 16.5156 0.327297 16.9605 0.170768C17.6618 -0.0569228 18.4171 -0.0569228 19.1185 0.170768C19.5634 0.32728 19.9727 0.570775 20.3225 0.887064C20.6559 1.17009 21.0304 1.54466 21.4637 1.97793L22.0228 2.53699C22.4567 2.97096 22.8306 3.34483 23.1136 3.67817C23.4299 4.02803 23.6734 4.43734 23.8299 4.88225C24.0576 5.58355 24.0576 6.33891 23.8299 7.04022C23.6734 7.48513 23.4299 7.89443 23.1136 8.24429C22.8306 8.57763 22.456 8.9522 22.0228 9.38547L21.4637 9.94453C21.0297 10.3785 20.6559 10.7524 20.3225 11.0354C19.9727 11.3517 19.5634 11.5952 19.1185 11.7517C18.4171 11.9794 17.6618 11.9794 16.9605 11.7517C16.5156 11.5952 16.1062 11.3517 15.7564 11.0354C15.4231 10.7559 15.0492 10.3778 14.6152 9.94453L14.0562 9.38547C13.6222 8.9515 13.2483 8.57763 12.9653 8.24429C12.649 7.89443 12.4055 7.48513 12.249 7.04022C12.0213 6.33891 12.0213 5.58355 12.249 4.88225C12.4055 4.43734 12.649 4.02803 12.9653 3.67817C13.2448 3.34483 13.6229 2.97026 14.0562 2.53699ZM14.7396 5.18763C14.6205 5.30827 14.5256 5.4506 14.4601 5.60693C14.3841 5.8406 14.3841 6.09234 14.4601 6.32602C14.5256 6.48235 14.6205 6.62467 14.7396 6.74531C14.9535 6.99759 15.2595 7.30437 15.734 7.77888L16.2281 8.27295C16.7026 8.74745 17.0094 9.05283 17.2617 9.26737C17.3823 9.38646 17.5246 9.48135 17.681 9.5469C17.9147 9.62278 18.1664 9.62278 18.4001 9.5469C18.5564 9.48135 18.6987 9.38646 18.8194 9.26737C19.0716 9.05353 19.3784 8.74745 19.8529 8.27295L20.3463 7.77888C20.8208 7.30437 21.1262 6.99759 21.3407 6.74531C21.4598 6.62467 21.5547 6.48235 21.6202 6.32602C21.6962 6.09234 21.6962 5.8406 21.6202 5.60693C21.5547 5.4506 21.4598 5.30827 21.3407 5.18763C21.1269 4.93536 20.8208 4.62857 20.3463 4.15407L19.8466 3.65721C19.3721 3.1827 19.0653 2.87732 18.8131 2.66278C18.6924 2.54369 18.5501 2.4488 18.3938 2.38325C18.1601 2.30737 17.9084 2.30737 17.6747 2.38325C17.5184 2.4488 17.376 2.54369 17.2554 2.66278C17.0031 2.87662 16.6963 3.1827 16.2218 3.65721L15.7278 4.15128C15.2595 4.62857 14.9549 4.93256 14.7396 5.18763ZM5.63113 13.5253H4.84286C4.22929 13.5253 3.70028 13.5253 3.26421 13.561C2.79318 13.5848 2.33161 13.7022 1.90639 13.9062C1.24969 14.241 0.715721 14.775 0.38086 15.4317C0.177035 15.8565 0.0596875 16.3176 0.0356402 16.7881C8.33064e-08 17.2256 0 17.7553 0 18.3682V19.1564C0 19.77 8.33064e-08 20.299 0.0356402 20.7351C0.0595038 21.2061 0.176856 21.6677 0.38086 22.0929C0.715721 22.7496 1.24969 23.2836 1.90639 23.6184C2.33161 23.8225 2.79318 23.9398 3.26421 23.9637C3.70028 23.9993 4.22929 23.9993 4.84286 23.9993H5.63043C6.244 23.9993 6.77301 23.9993 7.20908 23.9637C7.68011 23.9398 8.14168 23.8225 8.56689 23.6184C9.22359 23.2836 9.75757 22.7496 10.0924 22.0929C10.2964 21.6677 10.4137 21.2061 10.4376 20.7351C10.4733 20.299 10.4733 19.77 10.4733 19.1564V18.3689C10.4733 17.7553 10.4733 17.2263 10.4376 16.7902C10.4137 16.3192 10.2964 15.8576 10.0924 15.4324C9.75757 14.7757 9.22359 14.2417 8.56689 13.9069C8.14168 13.7029 7.68011 13.5855 7.20908 13.5617C6.77301 13.526 6.244 13.526 5.63043 13.526L5.63113 13.5253ZM2.96302 15.9803C3.11834 15.9166 3.28433 15.8829 3.4522 15.8811C3.78204 15.8545 4.21531 15.8531 4.88618 15.8531H5.58501C6.25588 15.8531 6.68915 15.8531 7.019 15.8811C7.18686 15.8829 7.35286 15.9166 7.50818 15.9803C7.72722 16.0919 7.9053 16.27 8.01692 16.489C8.08062 16.6444 8.1143 16.8103 8.11615 16.9782C8.14341 17.3081 8.14411 17.7413 8.14411 18.4122V19.111C8.14411 19.7819 8.14411 20.2152 8.11615 20.545C8.1143 20.7129 8.08062 20.8789 8.01692 21.0342C7.90534 21.2533 7.72725 21.4314 7.50818 21.5429C7.35286 21.6066 7.18686 21.6403 7.019 21.6422C6.68915 21.6687 6.25588 21.6701 5.58501 21.6701H4.88618C4.21531 21.6701 3.78204 21.6701 3.4522 21.6422C3.28433 21.6403 3.11834 21.6066 2.96302 21.5429C2.74395 21.4314 2.56585 21.2533 2.45427 21.0342C2.39057 20.8789 2.3569 20.7129 2.35504 20.545C2.32779 20.2152 2.32709 19.7819 2.32709 19.111V18.4122C2.32709 17.7413 2.32709 17.3081 2.35504 16.9782C2.3569 16.8103 2.39057 16.6444 2.45427 16.489C2.56589 16.27 2.74398 16.0919 2.96302 15.9803ZM18.4322 13.526H17.6439C17.0304 13.526 16.5014 13.526 16.0653 13.5617C15.5943 13.5855 15.1327 13.7029 14.7075 13.9069C14.0508 14.2417 13.5168 14.7757 13.1819 15.4324C12.9779 15.8576 12.8606 16.3192 12.8367 16.7902C12.8011 17.2263 12.8011 17.7553 12.8011 18.3689V19.1571C12.8011 19.7707 12.8011 20.2997 12.8367 20.7358C12.8606 21.2068 12.9779 21.6684 13.1819 22.0936C13.5168 22.7503 14.0508 23.2843 14.7075 23.6191C15.1327 23.8232 15.5943 23.9405 16.0653 23.9644C16.5014 24 17.0304 24 17.6439 24H18.4322C19.0458 24 19.5748 24 20.0109 23.9644C20.4819 23.9405 20.9435 23.8232 21.3687 23.6191C22.0254 23.2843 22.5593 22.7503 22.8942 22.0936C23.0982 21.6684 23.2155 21.2068 23.2394 20.7358C23.2751 20.2997 23.2751 19.7707 23.2751 19.1571V18.3689C23.2751 17.7553 23.2751 17.2263 23.2394 16.7902C23.2155 16.3192 23.0982 15.8576 22.8942 15.4324C22.5593 14.7757 22.0254 14.2417 21.3687 13.9069C20.9435 13.7029 20.4819 13.5855 20.0109 13.5617C19.5748 13.526 19.0458 13.526 18.4322 13.526ZM15.7641 15.9803C15.9194 15.9166 16.0854 15.8829 16.2533 15.8811C16.5831 15.8545 17.0164 15.8531 17.6873 15.8531H18.3861C19.057 15.8531 19.4902 15.8531 19.8201 15.8811C19.9879 15.8829 20.1539 15.9166 20.3092 15.9803C20.5283 16.0919 20.7064 16.27 20.818 16.489C20.8817 16.6444 20.9154 16.8103 20.9172 16.9782C20.9445 17.3081 20.9452 17.7413 20.9452 18.4122V19.111C20.9452 19.7819 20.9452 20.2152 20.9172 20.545C20.9154 20.7129 20.8817 20.8789 20.818 21.0342C20.7065 21.2533 20.5283 21.4314 20.3092 21.5429C20.1539 21.6066 19.9879 21.6403 19.8201 21.6422C19.4902 21.6687 19.057 21.6701 18.3861 21.6701H17.6873C17.0164 21.6701 16.5831 21.6701 16.2533 21.6422C16.0854 21.6403 15.9194 21.6066 15.7641 21.5429C15.5451 21.4313 15.367 21.2532 15.2553 21.0342C15.1916 20.8789 15.158 20.7129 15.1561 20.545C15.1289 20.2152 15.1282 19.7819 15.1282 19.111V18.4122C15.1282 17.7413 15.1282 17.3081 15.1561 16.9782C15.158 16.8103 15.1916 16.6444 15.2553 16.489C15.367 16.27 15.5451 16.0919 15.7641 15.9803ZM5.63113 0.724936H4.84286C4.22929 0.724936 3.70028 0.724936 3.26421 0.760576C2.79319 0.78444 2.33162 0.901792 1.90639 1.1058C1.2498 1.44048 0.71584 1.97419 0.38086 2.63063C0.176856 3.05586 0.0595038 3.51742 0.0356402 3.98845C8.33064e-08 4.42452 0 4.95353 0 5.56709V6.35537C0 6.96894 8.33064e-08 7.49795 0.0356402 7.93401C0.0595038 8.40504 0.176856 8.86661 0.38086 9.29183C0.715721 9.94853 1.24969 10.4825 1.90639 10.8174C2.33161 11.0214 2.79318 11.1387 3.26421 11.1626C3.70028 11.1982 4.22929 11.1982 4.84286 11.1982H5.63043C6.244 11.1982 6.77301 11.1982 7.20908 11.1626C7.68011 11.1387 8.14168 11.0214 8.56689 10.8174C9.22359 10.4825 9.75757 9.94853 10.0924 9.29183C10.2964 8.86659 10.4137 8.40503 10.4376 7.93401C10.4733 7.49795 10.4733 6.96894 10.4733 6.35537V5.56709C10.4733 4.95353 10.4733 4.42452 10.4376 3.98845C10.4137 3.51743 10.2964 3.05587 10.0924 2.63063C9.75775 1.97404 9.22403 1.44008 8.56759 1.1051C8.14237 0.901093 7.6808 0.783741 7.20978 0.759878C6.77371 0.724238 6.2447 0.724936 5.63113 0.724936ZM2.96302 3.17851C3.11834 3.11481 3.28433 3.08113 3.4522 3.07928C3.78204 3.05202 4.21531 3.05132 4.88618 3.05132H5.58501C6.25588 3.05132 6.68915 3.05132 7.019 3.07928C7.18686 3.08113 7.35286 3.11481 7.50818 3.17851C7.72725 3.29009 7.90534 3.46819 8.01692 3.68726C8.08062 3.84258 8.1143 4.00857 8.11615 4.17643C8.14341 4.50628 8.14411 4.93955 8.14411 5.61042V6.30925C8.14411 6.98012 8.14411 7.41339 8.11615 7.74324C8.1143 7.9111 8.08062 8.07709 8.01692 8.23241C7.90534 8.45148 7.72725 8.62958 7.50818 8.74116C7.35286 8.80486 7.18686 8.83854 7.019 8.84039C6.68915 8.86765 6.25588 8.86834 5.58501 8.86834H4.88618C4.21531 8.86834 3.78204 8.86834 3.4522 8.84039C3.28433 8.83854 3.11834 8.80486 2.96302 8.74116C2.74395 8.62958 2.56585 8.45148 2.45427 8.23241C2.39057 8.07709 2.3569 7.9111 2.35504 7.74324C2.32779 7.41339 2.32709 6.98012 2.32709 6.30925V5.61042C2.32709 4.93955 2.32709 4.50628 2.35504 4.17643C2.3569 4.00857 2.39057 3.84258 2.45427 3.68726C2.56585 3.46819 2.74395 3.29009 2.96302 3.17851Z" fill="white"/>
</svg>
