<svg id="Layer_1" data-name="Layer 1" xmlns="http://www.w3.org/2000/svg" viewBox="0 0 2426.49 530.92"><defs><style>.cls-1{fill:#fff;fill-rule:evenodd;}</style></defs><title>ENKEI white</title><path class="cls-1" d="M1615.85,400.92,1872.48,242c76-46.17,141.21-93.69,236.27-150.72,4.08,0,47.53-14.94,51.61-14.94,104.55,0,190.09,85.55,190.09,188.75,0,104.56-85.55,190.09-190.09,190.09-54.33,0-101.86-23.07-137.17-58.39l243.08-148V144.26c-38,24.44-298.73,190.1-446.74,270.21-31.23,27.16-78.75,39.37-100.47,40.74-104.56,0-190.11-85.55-190.11-190.1,0-103.2,85.55-188.75,190.11-188.75A190.42,190.42,0,0,1,1869.79,151l-1.37,1.35L1615.85,311.3v89.62Zm340.81,35.29a268.22,268.22,0,0,0,203.69,93.71c146.62,0,266.14-118.12,266.14-264.78C2426.49,119.84,2307,.35,2160.35.35,2068,.35,1987.89,47.87,1939,118.48,1891.48,47.87,1810,.35,1719.05.35c-146.67,0-266.15,119.49-266.15,264.79,0,146.66,119.49,264.78,266.15,264.78,52.94,0,101.84-14.94,143.91-42.1l1.37,1.36ZM1226.15-1h122.2V529.92h-122.2ZM0-1H247.14V99.48H126.29v103.2H247.14v82.84H126.29V441.66H247.14v88.26H0V-1ZM938.27-1h247.14V99.48H1064.56v103.2h120.85v82.84H1064.56V441.66h120.85v88.26H938.27V-1ZM290.59-1H403.28L459,77.75V-1h112.7V529.92H459V380.56c-4.07-78.75-12.22-153.45-55.68-154.81V529.9H290.59ZM615.12-1V529.92h114V312.65c2.71-39.37,63.83-66.52,58.39,0V529.92H898.91V285.52c-2.71-38-17.67-66.55-43.45-82.84,25.78-14.94,40.74-48.89,43.45-103.2V-1H787.56V99.48c-5.43,44.81-24.44,67.89-58.39,69.24V-1Z" transform="translate(0 1)"/></svg>