<svg width="25" height="23" viewBox="0 0 25 23" fill="none" xmlns="http://www.w3.org/2000/svg">
<path d="M12.1544 10.0225H0.994337C0.863662 10.0225 0.734255 10.0482 0.613541 10.0983C0.492826 10.1483 0.383252 10.2215 0.290899 10.314C0.198546 10.4064 0.125209 10.5162 0.0752963 10.637C0.0253839 10.7578 -0.000136143 10.8871 5.46193e-07 11.0178V18.1317C5.46193e-07 18.3954 0.104665 18.6482 0.291153 18.8347C0.47764 19.0212 0.730604 19.126 0.994337 19.126H12.1544C12.285 19.1262 12.4145 19.1005 12.5353 19.0506C12.6561 19.0007 12.7657 18.9275 12.8582 18.8351C12.9506 18.7428 13.024 18.6331 13.074 18.5123C13.1241 18.3916 13.1498 18.2624 13.1498 18.1317V11.022C13.1498 10.8913 13.1241 10.7619 13.074 10.6411C13.024 10.5203 12.9508 10.4106 12.8583 10.3182C12.7659 10.2257 12.6561 10.1524 12.5353 10.1023C12.4145 10.0523 12.2851 10.0265 12.1544 10.0265V10.0225ZM11.1589 17.1362H1.9888V12.0113H11.1589V17.1362Z" fill="white"/>
<path d="M10.1316 20.4707H3.00228C2.73854 20.4707 2.48558 20.5755 2.29909 20.762C2.1126 20.9485 2.00781 21.2014 2.00781 21.4652C2.00781 21.7289 2.1126 21.9817 2.29909 22.1682C2.48558 22.3547 2.73854 22.4595 3.00228 22.4595H10.1316C10.3954 22.4595 10.6483 22.3547 10.8348 22.1682C11.0213 21.9817 11.126 21.7289 11.126 21.4652C11.126 21.2014 11.0213 20.9485 10.8348 20.762C10.6483 20.5755 10.3954 20.4707 10.1316 20.4707Z" fill="white"/>
<path d="M23.1526 10.1665H16.925C16.7944 10.1664 16.665 10.192 16.5442 10.2419C16.4235 10.2918 16.3137 10.365 16.2212 10.4574C16.1288 10.5498 16.0555 10.6593 16.0055 10.78C15.9555 10.9008 15.9297 11.0302 15.9297 11.1608V21.4638C15.9297 21.5945 15.9555 21.7239 16.0055 21.8446C16.0555 21.9653 16.1288 22.075 16.2212 22.1674C16.3137 22.2597 16.4235 22.3329 16.5442 22.3828C16.665 22.4327 16.7944 22.4584 16.925 22.4583H23.1526C23.4164 22.4583 23.6693 22.3535 23.8558 22.167C24.0423 21.9805 24.1471 21.7275 24.1471 21.4638V11.1608C24.1471 10.8971 24.0423 10.6443 23.8558 10.4578C23.6693 10.2713 23.4164 10.1665 23.1526 10.1665ZM22.1582 20.4695H17.9237V12.1481H22.1613L22.1582 20.4695Z" fill="white"/>
<path d="M16.1461 7.41118C16.2731 7.54668 16.4356 7.644 16.615 7.69192C16.7945 7.73984 16.9837 7.73653 17.1614 7.6824C17.3391 7.62826 17.498 7.52537 17.6203 7.38553C17.7425 7.24569 17.8231 7.07441 17.853 6.89109L18.5198 2.90105C18.5632 2.6409 18.5016 2.37407 18.3484 2.15939C18.1951 1.94472 17.9628 1.79983 17.7027 1.75638C17.4425 1.71293 17.1758 1.77456 16.9612 1.92779C16.7465 2.08102 16.6015 2.31318 16.558 2.57333L16.222 4.58092L12.2246 0.316233C12.0442 0.123123 11.7945 0.00954831 11.5303 0.000575066C11.2662 -0.00839818 11.0093 0.0879442 10.8162 0.268364C10.6231 0.448784 10.5095 0.698534 10.5006 0.96266C10.4916 1.22679 10.5879 1.48365 10.7684 1.67676L16.1461 7.41118Z" fill="white"/>
<path d="M8.52787 1.73078C8.40085 1.59527 8.2384 1.49809 8.05896 1.45016C7.87951 1.40224 7.69013 1.40555 7.51246 1.45969C7.33479 1.51382 7.17594 1.61659 7.0537 1.75643C6.93147 1.89627 6.85084 2.06755 6.82096 2.25086L6.15422 6.24205C6.11077 6.50233 6.17243 6.76919 6.32576 6.98396C6.47908 7.19873 6.71139 7.34378 6.97168 7.38723C7.23196 7.43068 7.49894 7.36901 7.71372 7.21569C7.92849 7.06236 8.07354 6.82993 8.11699 6.56964L8.45296 4.56218L12.4504 8.82687C12.6308 9.01998 12.8805 9.13343 13.1447 9.1424C13.4088 9.15137 13.6657 9.05516 13.8588 8.87474C14.0519 8.69432 14.1653 8.44457 14.1743 8.18044C14.1833 7.91632 14.0871 7.65945 13.9066 7.46634L8.52787 1.73078Z" fill="white"/>
</svg>
