<svg width="32" height="16" viewBox="0 0 32 16" fill="none" xmlns="http://www.w3.org/2000/svg">
<path id="ios-logo" d="M0.143862 15.6255H2.79017V4.3586H0.143862V15.6255ZM1.46191 2.88113C1.65418 2.88608 1.8455 2.85249 2.02458 2.78234C2.20366 2.71218 2.36689 2.60688 2.50463 2.47265C2.64237 2.33841 2.75184 2.17795 2.82658 2.00074C2.90133 1.82352 2.93984 1.63314 2.93984 1.4408C2.93984 1.24847 2.90133 1.05808 2.82658 0.880869C2.75184 0.703654 2.64237 0.543198 2.50463 0.408961C2.36689 0.274724 2.20366 0.169424 2.02458 0.0992688C1.8455 0.0291134 1.65418 -0.00447688 1.46191 0.00047828C1.27097 -0.00236279 1.08136 0.0327932 0.904119 0.103901C0.72688 0.175009 0.565551 0.28065 0.429513 0.414678C0.293476 0.548707 0.185447 0.708447 0.11171 0.884608C0.0379729 1.06077 0 1.24983 0 1.4408C0 1.63177 0.0379729 1.82084 0.11171 1.997C0.185447 2.17316 0.293476 2.3329 0.429513 2.46693C0.565551 2.60096 0.72688 2.7066 0.904119 2.77771C1.08136 2.84881 1.27097 2.88397 1.46191 2.88113ZM11.6024 0.0323615C7.12757 0.0323615 4.3212 3.08295 4.3212 7.96204C4.3212 12.8411 7.12693 15.8809 11.6024 15.8809C16.066 15.8809 18.8718 12.8408 18.8718 7.96204C18.8718 3.08327 16.067 0.0323615 11.6024 0.0323615ZM11.6024 2.37068C14.3341 2.37068 16.0772 4.53874 16.0772 7.96172C16.0772 11.3732 14.3341 13.5413 11.6024 13.5413C8.86042 13.5413 7.12757 11.3732 7.12757 7.96172C7.12757 4.53906 8.8601 2.37068 11.6024 2.37068ZM19.9896 11.3101C20.1066 14.1375 22.4235 15.8809 25.9517 15.8809C29.6614 15.8809 32 14.0527 32 11.1402C32 8.85477 30.6819 7.56924 27.5682 6.85665L25.8038 6.45269C23.9227 6.00632 23.1463 5.41106 23.1463 4.39048C23.1463 3.11515 24.3155 2.26451 26.0477 2.26451C27.8013 2.26451 29.0027 3.12535 29.1302 4.5601H31.7446C31.6808 1.86023 29.449 0.0326804 26.0694 0.0326804C22.7319 0.0326804 20.3623 1.87139 20.3623 4.59198C20.3623 6.78172 21.7014 8.14218 24.5288 8.79069L26.5164 9.25841C28.4511 9.71562 29.2376 10.3533 29.2376 11.4584C29.2376 12.7337 27.9515 13.6481 26.1022 13.6481C24.2313 13.6481 22.8183 12.7235 22.6477 11.3098L19.9896 11.3101Z" fill="white"/>
</svg>
