<svg xmlns="http://www.w3.org/2000/svg" width="18" height="18" viewBox="0 0 18 18">
  <path id="metaverse" d="M17.846,17.1l-5.084-5.084a.527.527,0,0,0-.373-.154h-.744l.106-1.279A1.66,1.66,0,0,0,12.917,9V7.305a3.915,3.915,0,0,0-2.295-3.567,2.221,2.221,0,1,0-3.243,0A3.917,3.917,0,0,0,5.084,7.305V9a1.66,1.66,0,0,0,1.165,1.583l.106,1.279H5.611a.527.527,0,0,0-.373.154L.155,17.1a.527.527,0,0,0,.373.9H17.473a.527.527,0,0,0,.373-.9ZM9,1.054A1.167,1.167,0,1,1,7.833,2.222,1.169,1.169,0,0,1,9,1.054ZM5.8,16.945h-4l1.77-1.77H6.386ZM4.625,14.121l1.2-1.2h.613l.1,1.2Zm2.283,2.824.59-1.77H10.5l.59,1.77Zm3.826-6.859L10.4,14.121H7.6l-.335-4.035A.527.527,0,0,0,6.741,9.6a.6.6,0,0,1-.6-.6V7.305a2.862,2.862,0,0,1,5.723,0V9a.6.6,0,0,1-.6.6A.527.527,0,0,0,10.734,10.086Zm.823,2.83h.613l1.2,1.2H11.457Zm.647,4.029-.59-1.77H14.43l1.77,1.77Z" transform="translate(0 0)" fill="#fff"/>
</svg>
