<svg width="32" height="29" viewBox="0 0 32 29" fill="none" xmlns="http://www.w3.org/2000/svg">
<path d="M15.9992 17.0608C17.5649 17.0608 18.8343 15.7915 18.8343 14.2257C18.8343 12.6599 17.5649 11.3906 15.9992 11.3906C14.4334 11.3906 13.1641 12.6599 13.1641 14.2257C13.1641 15.7915 14.4334 17.0608 15.9992 17.0608Z" fill="white"/>
<path d="M16 20.8587C12.0117 20.8587 8.51644 20.3857 5.89448 19.4939C2.25822 18.2489 0 16.232 0 14.2266C0 12.2972 2.09067 10.4143 5.59438 9.18953C8.95747 8.11991 12.4713 7.60067 16 7.65189C19.4803 7.6041 22.9458 8.11355 26.2651 9.1609C29.8563 10.4016 32 12.2961 32 14.2304C32 16.242 29.6628 18.2537 25.8993 19.5045C22.6878 20.4576 19.3495 20.9143 16 20.8587ZM16 9.28285C12.6545 9.23837 9.32327 9.72607 6.13096 10.7277C3.03977 11.8088 1.6299 13.3009 1.6299 14.2272C1.6299 15.2632 3.27359 16.874 6.421 17.9504C8.8754 18.7887 12.1882 19.2277 16 19.2277C19.176 19.2856 22.3421 18.8564 25.3881 17.9552C28.8112 16.8237 30.369 15.2309 30.369 14.2282C30.369 13.2993 28.9189 11.8009 25.7338 10.7076C22.5863 9.71499 19.2999 9.23397 16 9.28285Z" fill="white"/>
<path d="M9.57148 28.5002C9.01587 28.5125 8.46695 28.3771 7.98082 28.1078C6.30584 27.1439 5.71889 24.3909 6.41295 20.743C7.16882 17.2962 8.4741 13.9933 10.2788 10.9609C11.9784 7.92184 14.1523 5.17357 16.7184 2.81989C19.5853 0.318827 22.2974 -0.586263 23.9723 0.377682C25.7093 1.38511 26.2926 4.41639 25.4978 8.2955C24.7217 11.5558 23.449 14.6775 21.7242 17.5511C19.7258 21.0097 17.5699 23.8077 15.4888 25.6248C13.3589 27.4943 11.2332 28.5002 9.57148 28.5002ZM11.6924 11.7706C9.98372 14.6471 8.74173 17.7762 8.01263 21.0415C7.40075 24.2584 7.9893 26.225 8.79365 26.6879C9.69238 27.2075 11.9119 26.5818 14.414 24.3962C16.362 22.6895 18.4008 20.0373 20.3101 16.7366C21.9497 14.0144 23.1602 11.0559 23.8992 7.96517C24.6219 4.44449 24.0201 2.2886 23.1569 1.78754C22.3541 1.32466 20.3302 1.83261 17.7921 4.04258C15.3628 6.27869 13.3045 8.88691 11.6945 11.7695L11.6924 11.7706Z" fill="white"/>
<path d="M22.4325 28.5015C20.8583 28.5015 18.8769 27.5624 16.8249 25.7973C14.2173 23.4233 12.0094 20.6445 10.2862 17.5677C8.50151 14.5778 7.20611 11.3218 6.44899 7.92298C5.72152 4.19446 6.28144 1.38481 7.958 0.41927C9.69978 -0.588153 12.6187 0.41927 15.5773 3.0513C18.0156 5.35132 20.0846 8.01357 21.7114 10.9442C23.7231 14.4113 25.0646 17.6732 25.589 20.3774C26.335 24.1478 25.7199 27.1112 23.9813 28.1128C23.5084 28.3766 22.974 28.5107 22.4325 28.5015ZM11.7056 16.7496C13.3418 19.6645 15.4307 22.301 17.8944 24.5603C20.3721 26.696 22.3737 27.169 23.1786 26.7013C24.0757 26.1849 24.6457 23.9553 23.9999 20.6945C23.4967 18.1648 22.2279 15.0741 20.3117 11.7623C18.7705 8.98361 16.8127 6.45748 14.5062 4.27187C11.9294 1.98343 9.67804 1.31482 8.77984 1.83284C7.97497 2.29891 7.40127 4.30739 8.04708 7.61227C8.77382 10.8319 10.0056 13.9162 11.6966 16.7507L11.7056 16.7496Z" fill="white"/>
</svg>
