<svg width="21" height="20" viewBox="0 0 21 20" fill="none" xmlns="http://www.w3.org/2000/svg">
<path d="M18.3707 9.83716C18.6415 9.8095 18.8387 9.56792 18.811 9.29757C18.3895 5.13295 15.1702 1.91613 11.1249 1.40642L11.2322 0.988178C11.2935 0.746375 11.24 0.486058 11.0885 0.291769C10.9442 0.105956 10.7296 0 10.499 0H9.50656C9.26944 0 9.05039 0.111532 8.90607 0.306045C8.75506 0.509703 8.70933 0.777381 8.78316 1.02208L8.89804 1.40352C4.82554 1.90631 1.59512 5.14455 1.18981 9.33705C1.16371 9.60785 1.36179 9.84854 1.63259 9.87531C1.64865 9.87665 1.66471 9.87709 1.68078 9.87709C1.93172 9.87709 2.14587 9.68682 2.17063 9.43185C2.56277 5.37341 5.92994 2.31251 10.0022 2.31251C14.056 2.31251 17.4211 5.3578 17.8307 9.39616C17.8583 9.66719 18.1006 9.86371 18.3707 9.83716ZM9.80123 0.984832H10.2155L10.1265 1.33326C10.0847 1.33281 10.0441 1.32746 10.0022 1.32746C9.96942 1.32746 9.93797 1.33147 9.9054 1.33192L9.80123 0.984832Z" fill="white"/>
<path d="M19.6375 10.4082H18.7486H1.25429H0.492527C0.220834 10.4082 0 10.629 0 10.901C0 11.1729 0.220834 11.3937 0.492527 11.3937H0.834263C1.05287 12.2077 1.79032 12.8117 2.67299 12.8117H4.54963C5.16284 13.5588 6.98818 15.7707 6.98818 15.7707C7.00067 15.7852 7.01383 15.7995 7.02811 15.8133L9.9226 18.5748L10.2141 18.828L9.81932 19.1022C9.59625 19.2576 9.54071 19.5652 9.69619 19.7879C9.7921 19.9259 9.94557 20 10.1008 20C10.1985 20 10.2965 19.971 10.3821 19.9114L14.1889 17.2485L15.5452 18.5222C15.6404 18.6119 15.7618 18.656 15.8829 18.656C16.0138 18.656 16.145 18.6041 16.2418 18.501C16.4281 18.3022 16.4182 17.9904 16.2204 17.8046L14.5287 16.215C14.3741 16.0703 14.1526 16.0497 13.9723 16.1401C13.9001 15.9047 13.8911 15.6549 13.9549 15.412C14.0578 15.0221 14.2543 14.6571 14.5226 14.3578L15.6476 13.1055C15.7214 13.0236 15.7638 12.9197 15.7716 12.8119H17.3308C18.213 12.8119 18.95 12.2079 19.1686 11.3939H19.6375C19.9099 11.3939 20.1303 11.1731 20.1303 10.9012C20.1303 10.6293 19.9097 10.4082 19.6375 10.4082ZM13.7897 13.6997C13.4171 14.1149 13.1443 14.6197 13.002 15.161C12.8588 15.7064 12.9172 16.2741 13.1648 16.7758L11.0486 18.248L10.5862 17.847L7.72965 15.1204C7.57885 14.9384 6.54852 13.689 5.82623 12.8117H6.56235C6.56235 12.8117 8.22909 14.2347 8.24158 14.2436C8.79813 14.6362 10.0754 14.9855 10.6908 14.9855C11.5626 14.9855 12.4049 14.6179 13.0018 13.977C13.2017 13.7627 13.3859 13.5728 13.5291 13.4267C13.7707 13.1802 14.0355 13.0007 14.3154 12.8923C14.422 12.8517 14.5097 12.8289 14.5802 12.8182L13.7897 13.6997ZM12.282 13.3047C11.8702 13.7468 11.2902 14.0002 10.6908 14.0002C10.2215 14.0002 9.19161 13.6946 8.82556 13.4495L8.07919 12.8117H12.7522C12.617 12.9514 12.4582 13.1158 12.282 13.3047ZM17.3308 11.8267H14.6766C14.6694 11.8267 14.6621 11.8267 14.6543 11.8267H2.67299C2.34374 11.8267 2.05376 11.6536 1.88981 11.3937H18.1131C17.9491 11.6536 17.6601 11.8267 17.3308 11.8267Z" fill="white"/>
<path d="M15.8466 8.11438C16.1064 8.03385 16.2514 7.75747 16.1704 7.49782C15.2519 4.54824 12.6489 3.69769 12.5385 3.66245C12.2804 3.58237 12.004 3.72446 11.9217 3.98321C11.8394 4.24152 11.9822 4.51879 12.2407 4.602C12.3313 4.63144 14.4685 5.34659 15.2293 7.79026C15.2954 8.0015 15.4897 8.1369 15.6998 8.1369C15.7486 8.13713 15.7982 8.12954 15.8466 8.11438Z" fill="white"/>
</svg>
