<svg width="15" height="24" viewBox="0 0 15 24" fill="none" xmlns="http://www.w3.org/2000/svg">
<path d="M11.7949 4H2.35897V1.6C2.36192 0.717005 3.06372 0.0029952 3.93162 0H10.2222C11.0901 0.00300006 11.7919 0.717005 11.7949 1.6V4ZM2.35897 22.4C2.36192 23.283 3.06372 23.997 3.93162 24H10.2222C11.0901 23.997 11.7919 23.283 11.7949 22.4V20H2.35897V22.4ZM14.1538 7.2V16.8C14.1499 18.124 13.0962 19.196 11.7949 19.2H2.35897C1.0576 19.196 0.00392533 18.124 0 16.8V7.2C0.00393162 5.87599 1.0576 4.80399 2.35897 4.8H11.7949C13.0962 4.804 14.1499 5.87599 14.1538 7.2ZM9.86844 12.9359L7.8633 11.5679V7.9998C7.8633 7.55779 7.51143 7.1998 7.07697 7.1998C6.64252 7.1998 6.29065 7.55779 6.29065 7.9998V11.9998C6.29163 12.2678 6.42432 12.5168 6.64448 12.6638L9.00346 14.2638C9.13025 14.3538 9.28163 14.4018 9.43595 14.3998C9.78095 14.3978 10.0856 14.1668 10.1849 13.8308C10.2842 13.4938 10.1554 13.1309 9.86844 12.9359Z" fill="white"/>
</svg>
