<svg xmlns="http://www.w3.org/2000/svg" width="48" height="26"><defs><radialGradient id="b" cx="0" cy="0" r="1" fx="0" fy="0" gradientTransform="matrix(30.6378 0 0 30.72756 14.684 5.005)" gradientUnits="userSpaceOnUse"><stop offset="0" style="stop-color:#aeb2d5;stop-opacity:1"/><stop offset=".3" style="stop-color:#aeb2d5;stop-opacity:1"/><stop offset=".75" style="stop-color:#484c89;stop-opacity:1"/><stop offset="1" style="stop-color:#484c89;stop-opacity:1"/></radialGradient><clipPath id="a"><path d="M.676 12.988c0 6.797 10.445 12.309 23.332 12.309 12.883 0 23.332-5.512 23.332-12.309 0-6.8-10.45-12.312-23.332-12.312C11.12.676.676 6.188.676 12.988"/></clipPath></defs><g clip-path="url(#a)"><path d="M.676 12.988c0 6.797 10.445 12.309 23.332 12.309 12.883 0 23.332-5.512 23.332-12.309 0-6.8-10.45-12.312-23.332-12.312C11.12.676.676 6.188.676 12.988" style="stroke:none;fill-rule:nonzero;fill:url(#b)"/></g><path d="M24.008 24.383c12.383 0 22.418-5.102 22.418-11.395 0-6.297-10.035-11.398-22.418-11.398S1.586 6.69 1.586 12.988c0 6.293 10.039 11.395 22.422 11.395" style="stroke:none;fill-rule:nonzero;fill:#777bb3;fill-opacity:1"/><path d="M13.352 14.398c1.02 0 1.777-.187 2.257-.558.477-.367.805-1.004.977-1.89q.242-1.251-.18-1.723c-.289-.32-.91-.48-1.847-.48h-1.63l-.902 4.651Zm-5.32 5.735a.25.25 0 0 1-.196-.094.24.24 0 0 1-.055-.207l2.39-12.336a.255.255 0 0 1 .25-.207h5.153c1.617 0 2.824.441 3.582 1.313.762.875.996 2.093.7 3.632a6 6 0 0 1-.622 1.727 5.8 5.8 0 0 1-1.14 1.434 5 5 0 0 1-1.875 1.125c-.676.222-1.543.335-2.578.335h-2.086l-.598 3.075a.25.25 0 0 1-.246.203Zm0 0" style="stroke:none;fill-rule:nonzero;fill:#000;fill-opacity:1"/><path d="M13.14 10h1.419c1.132 0 1.523.246 1.66.395.218.246.261.77.12 1.503q-.242 1.245-.882 1.739c-.437.34-1.145.508-2.105.508h-1.016Zm2.434-2.965h-5.152a.51.51 0 0 0-.5.41l-2.39 12.336a.52.52 0 0 0 .109.422.5.5 0 0 0 .39.184h2.68c.242 0 .45-.172.496-.41l.555-2.868h1.879c1.062 0 1.953-.117 2.656-.347a5.24 5.24 0 0 0 1.969-1.184 5.9 5.9 0 0 0 1.187-1.492 6 6 0 0 0 .649-1.805c.312-1.617.058-2.91-.758-3.847-.805-.926-2.074-1.399-3.77-1.399m-3.851 7.617h1.629q1.623.001 2.414-.613c.527-.406.886-1.09 1.07-2.043.176-.918.098-1.562-.242-1.941q-.511-.563-2.035-.563h-1.836zm3.851-7.109c1.547 0 2.68.41 3.39 1.227.712.812.923 1.953.641 3.414a5.6 5.6 0 0 1-.593 1.652q-.416.75-1.09 1.371a4.8 4.8 0 0 1-1.781 1.074q-.985.318-2.5.32h-2.297l-.633 3.278H8.03l2.39-12.336z" style="stroke:none;fill-rule:nonzero;fill:#fff;fill-opacity:1"/><path d="M25.996 16.855a.26.26 0 0 1-.195-.093.26.26 0 0 1-.051-.211l1.055-5.457c.101-.52.078-.89-.07-1.051-.087-.094-.356-.258-1.15-.258h-1.913l-1.328 6.863a.26.26 0 0 1-.25.207h-2.657a.25.25 0 0 1-.195-.093.25.25 0 0 1-.055-.211l2.391-12.336a.25.25 0 0 1 .25-.203h2.656a.25.25 0 0 1 .196.09.27.27 0 0 1 .054.21l-.578 2.977h2.063c1.566 0 2.633.277 3.254.848.632.586.828 1.515.586 2.77l-1.114 5.741a.255.255 0 0 1-.246.207Zm0 0" style="stroke:none;fill-rule:nonzero;fill:#000;fill-opacity:1"/><path d="M24.484 3.758h-2.656a.51.51 0 0 0-.5.41l-2.39 12.336c-.028.148.011.3.109.418a.5.5 0 0 0 .39.187h2.657a.51.51 0 0 0 .496-.414l1.289-6.656h1.707c.793 0 .957.172.965.18.047.05.11.289.008.824l-1.059 5.46a.508.508 0 0 0 .496.605l2.703.001a.51.51 0 0 0 .496-.414l1.11-5.738c.261-1.348.039-2.36-.66-3.004-.672-.617-1.793-.918-3.426-.918h-1.754l.515-2.676a.504.504 0 0 0-.496-.602m0 .509-.636 3.277h2.37q2.233.001 3.083.781.848.785.508 2.535l-1.11 5.743h-2.703l1.059-5.461q.179-.93-.133-1.27c-.211-.226-.652-.34-1.336-.34h-2.121l-1.371 7.07h-2.657l2.391-12.335z" style="stroke:none;fill-rule:nonzero;fill:#fff;fill-opacity:1"/><path d="M34.266 14.398c1.015 0 1.777-.187 2.257-.558.477-.367.805-1.004.977-1.89q.24-1.251-.184-1.723c-.285-.32-.906-.48-1.847-.48h-1.625l-.903 4.651Zm-5.325 5.735a.26.26 0 0 1-.195-.094.25.25 0 0 1-.05-.207l2.39-12.336a.25.25 0 0 1 .246-.207h5.152c1.621 0 2.825.441 3.582 1.313.762.875.996 2.093.7 3.632a5.8 5.8 0 0 1-.618 1.727 5.9 5.9 0 0 1-1.14 1.434 5 5 0 0 1-1.88 1.125c-.675.222-1.542.335-2.577.335h-2.086l-.594 3.075a.255.255 0 0 1-.25.203Zm0 0" style="stroke:none;fill-rule:nonzero;fill:#000;fill-opacity:1"/><path d="M34.05 10h1.419c1.133 0 1.527.246 1.66.395.223.246.266.77.121 1.503-.16.829-.457 1.41-.883 1.739-.433.34-1.14.508-2.101.508H33.25Zm2.434-2.965h-5.152a.506.506 0 0 0-.496.41l-2.39 12.336a.53.53 0 0 0 .105.422.51.51 0 0 0 .39.184h2.68a.5.5 0 0 0 .496-.41l.559-2.868h1.875c1.062 0 1.957-.117 2.656-.347a5.2 5.2 0 0 0 1.973-1.184c.484-.445.886-.95 1.187-1.492.305-.547.52-1.152.649-1.805.312-1.617.058-2.91-.758-3.847-.809-.926-2.078-1.399-3.774-1.399m-3.851 7.617h1.633q1.617.001 2.41-.613c.531-.406.886-1.09 1.074-2.043.176-.918.094-1.562-.242-1.941q-.51-.563-2.04-.563h-1.831zm3.851-7.109q2.326 0 3.391 1.227c.71.812.926 1.953.645 3.414a5.6 5.6 0 0 1-.594 1.652q-.416.75-1.09 1.371-.802.752-1.785 1.074-.978.318-2.5.32h-2.293l-.637 3.278h-2.68l2.391-12.336z" style="stroke:none;fill-rule:nonzero;fill:#fff;fill-opacity:1"/></svg>