<svg width="116" height="52" viewBox="0 0 116 52" fill="none" xmlns="http://www.w3.org/2000/svg">
<rect x="0.348604" y="0.347627" width="115.292" height="50.8536" rx="12.2011" stroke="#5B5B5B" stroke-opacity="0.5" stroke-width="0.697208"/>
<g clip-path="url(#clip0_17281_2674)">
<path d="M66.5 14.8418L85.4781 34.9663C85.4781 34.9663 86.115 35.4333 86.6245 34.8814C87.1339 34.3294 86.7518 33.8199 86.7518 33.8199L66.5 14.8418Z" fill="#DF4F4F"/>
<path d="M72.5312 16.752L86.9665 32.3336C86.9665 32.3336 87.6034 32.8006 88.1129 32.2486C88.6223 31.6967 88.2402 31.1872 88.2402 31.1872L72.5312 16.752Z" fill="#DF4F4F"/>
<path d="M68.2891 20.8281L82.7668 36.4097C82.7668 36.4097 83.4036 36.8768 83.9131 36.3248C84.4226 35.7729 84.0405 35.2634 84.0405 35.2634L68.2891 20.8281Z" fill="#DF4F4F"/>
<path d="M77.625 18.3652L87.7297 29.2341C87.7297 29.2341 88.1967 29.5313 88.5364 29.1917C88.876 28.852 88.6213 28.4275 88.6213 28.4275L77.625 18.3652Z" fill="#DF4F4F"/>
<path d="M69.6875 25.541L79.7922 36.4099C79.7922 36.4099 80.2592 36.7071 80.5989 36.3675C80.9385 36.0278 80.6838 35.6033 80.6838 35.6033L69.6875 25.541Z" fill="#DF4F4F"/>
<path d="M82.8047 20.7432L87.39 25.7106C87.39 25.7106 87.6023 25.838 87.7721 25.6681C87.9419 25.4983 87.8146 25.3285 87.8146 25.3285L82.8047 20.7432Z" fill="#DF4F4F"/>
<path d="M72.2344 30.5508L76.8197 35.5182C76.8197 35.5182 77.032 35.6456 77.2018 35.4758C77.3716 35.3059 77.2443 35.1361 77.2443 35.1361L72.2344 30.5508Z" fill="#DF4F4F"/>
<path d="M91.7422 22.9863V36.3602H94.7566V32.0296H97.0493L99.9788 36.3602H103.418L100.191 31.7324C100.191 31.7324 103.036 30.6285 103.036 27.5292C103.036 23.1986 99.0872 23.0288 99.0872 23.0288H91.7422V22.9863ZM94.7566 25.5762V29.4397H98.6202C98.6202 29.4397 100.106 29.4397 100.106 27.4867C100.106 25.4488 98.323 25.5337 98.323 25.5337L94.7566 25.5762ZM94.7566 25.5762V29.4397H98.6202C98.6202 29.4397 100.106 29.4397 100.106 27.4867C100.106 25.4488 98.323 25.5337 98.323 25.5337L94.7566 25.5762Z" fill="#D2D2D2"/>
<path d="M58.25 22.9863V36.3602H68.3972V33.7703H61.2644V30.9682H67.4206V28.3783H61.2644V25.5762H68.3972V22.9863H58.25Z" fill="#D2D2D2"/>
<path d="M43.6016 22.9863V25.5762H47.5925V36.3602H50.6069V25.5762H54.5978V22.9863H43.6016Z" fill="#D2D2D2"/>
<path d="M29.8047 22.9863V36.3602H39.9518V33.7703H32.8191V30.9682H38.9753V28.3783H32.8191V25.5762H39.9518V22.9863H29.8047Z" fill="#D2D2D2"/>
<path d="M12.7344 22.9868V36.3607H15.7488V27.9542L19.4425 33.3462L23.1363 27.9542V36.3182H26.1507V22.9443H23.1363L19.4425 28.4637L15.7488 22.9443L12.7344 22.9868Z" fill="#D2D2D2"/>
<path d="M98.4135 29.4466H94.8047V25.583H98.4135C99.3476 25.583 100.154 26.3897 100.154 27.3237V27.7058C100.154 28.6823 99.3476 29.4466 98.4135 29.4466Z" fill="#0F0F0F"/>
</g>
<defs>
<clipPath id="clip0_17281_2674">
<rect width="90.6875" height="21.8652" fill="white" transform="translate(12.6484 14.8418)"/>
</clipPath>
</defs>
</svg>
