<svg width="141" height="52" viewBox="0 0 141 52" fill="none" xmlns="http://www.w3.org/2000/svg">
<rect x="0.348604" y="1.17478" width="140.303" height="50.3028" rx="12.2011" stroke="#5B5B5B" stroke-opacity="0.5" stroke-width="0.697208"/>
<g clip-path="url(#clip0_16271_6610)">
<path d="M55.2128 20.1805H60.2253L57.5787 15.9099L52.7166 23.6292H50.501C59.1326 10.4863 56.0549 10.6567 64.6464 23.6492H62.4308L61.3983 21.9249H56.3256L55.2128 20.1805ZM78.1802 21.9149V13.8748H76.3055C76.7466 26.0352 73.4785 23.3485 85.8193 23.6392L86.9321 21.9149H78.1802ZM47.1326 20.4713C51.4634 20.3911 51.4634 13.955 47.1326 13.8848H38.9221V23.6492H40.7968V15.6091H46.9922C47.8745 15.6091 48.5562 16.3209 48.5562 17.1931C48.5562 18.0653 47.8444 18.7871 46.9922 18.7871H41.709L47.313 23.6693H50.0298L46.2805 20.4713H47.1326ZM27.3832 23.6292C20.9973 23.5991 20.9973 13.8948 27.3832 13.8748H33.0474C39.4333 13.9049 39.4233 23.6091 33.0474 23.6392C33.0474 23.6292 27.3832 23.6292 27.3832 23.6292ZM32.9371 21.9149C37.0875 21.8447 37.0875 15.6693 32.9371 15.5991C30.1702 15.8196 24.4258 14.376 24.3356 18.747C24.4258 23.1379 30.1702 21.6843 32.9371 21.9149ZM68.5662 23.6292C62.1802 23.5991 62.1902 13.8948 68.5662 13.8648H75.303L74.2003 15.5991C71.4233 15.8397 65.6188 14.346 65.5286 18.757C65.5286 20.5013 66.9421 21.9149 68.6865 21.9149H75.4434L74.3306 23.6392H68.5662V23.6292ZM91.5136 21.9149C90.08 21.9149 88.8569 20.9425 88.4659 19.6191H96.486L97.5988 17.8948H88.4659C89.3582 14.4562 94.491 15.8698 97.0273 15.5991L98.1401 13.8748C93.9697 14.0452 86.7115 12.4612 86.5211 18.757C86.7316 24.7018 93.1075 23.5891 97.1978 23.6392L98.3105 21.9149H91.5136Z" fill="#ED1C24"/>
<path d="M99.1355 14.907C99.1154 13.7942 100.87 13.7942 100.86 14.907C100.87 16.0197 99.1154 16.0197 99.1355 14.907ZM99.9977 16.0097C101.431 15.9997 101.411 13.8243 99.9977 13.8243C98.5841 13.8142 98.5841 16.0298 99.9977 16.0097ZM99.8874 14.2553C100.359 14.1852 100.649 14.6463 100.278 14.937C100.258 14.937 100.258 14.9571 100.218 14.9571L100.499 15.4784H100.228L99.9776 14.9972H99.8272V15.4984H99.5766V14.2553H99.8874ZM99.9776 14.8268C100.188 14.8769 100.298 14.6062 100.108 14.4859C100.048 14.4659 99.9175 14.4659 99.8172 14.4659V14.8067H99.9676L99.9776 14.8268Z" fill="#ED1C24"/>
<path d="M27.3509 30.9268C24.2431 30.7262 23.5113 35.1473 25.0852 37.0521C26.0978 38.235 27.8522 38.0846 29.386 37.6435V38.5157C26.198 39.5984 23.1003 38.2651 23.2306 34.4355C23.0903 30.7162 26.6291 29.1022 29.7168 30.5257L29.2958 31.3779C28.6542 31.0872 28.0025 30.9268 27.3509 30.9268Z" fill="#D2D2D2"/>
<path d="M36.6756 35.5192C36.866 40.0104 30.5903 39.9402 30.7708 35.5192C30.5603 31.058 36.856 31.0881 36.6756 35.5192ZM31.7733 35.5192C31.5728 38.9177 35.8635 38.9177 35.663 35.5192C35.8735 32.1708 31.5527 32.1407 31.7733 35.5192Z" fill="#D2D2D2"/>
<path d="M46.5733 38.737V34.5565C46.5733 33.5941 46.2024 33.0227 45.2199 33.0227C43.8866 33.0327 43.4555 33.8347 43.4455 35.148V38.737H42.473V34.5565C42.463 33.5841 42.1021 33.0227 41.1197 33.0227C38.473 32.9124 39.5758 37.1129 39.3552 38.747H38.3828V32.3209H39.1748L39.3352 33.2032H39.3853C40.1171 31.8297 42.7638 31.8798 43.255 33.2934H43.3051C43.9267 32.0603 46.1322 31.8498 47.0144 32.7621C47.9768 33.6042 47.4154 37.5641 47.5557 38.747H46.5733V38.737Z" fill="#D2D2D2"/>
<path d="M57.7374 38.737V34.5565C57.7374 33.5941 57.3664 33.0227 56.384 33.0227C55.0506 33.0327 54.6196 33.8347 54.6095 35.148V38.737H53.6371V34.5565C53.6271 33.5841 53.2662 33.0227 52.2837 33.0227C49.6371 32.9124 50.7399 37.1129 50.5193 38.747H49.5469V32.3209H50.3389L50.4993 33.2032H50.5494C51.2812 31.8297 53.9278 31.8798 54.4191 33.2934H54.4692C55.0907 32.0603 57.2962 31.8498 58.1785 32.7621C59.1308 33.6042 58.5795 37.5641 58.7198 38.747H57.7374V38.737Z" fill="#D2D2D2"/>
<path d="M63.443 38.8579C60.3854 39.0584 59.5533 35.0684 61.1372 33.1035C62.0194 31.9406 64.1849 31.8704 65.1072 32.9832C65.7287 33.6148 65.859 34.7276 65.8089 35.7H61.3778C61.3077 38.1862 63.7337 38.3967 65.5282 37.5747V38.4469C64.7763 38.7576 64.2851 38.8579 63.443 38.8579ZM63.1723 33.0133C62.0595 33.0133 61.4881 33.8253 61.3979 34.918H64.7563C64.7663 33.7952 64.2951 33.0133 63.1723 33.0133Z" fill="#D2D2D2"/>
<path d="M70.3961 32.1904C70.6768 32.1904 70.9374 32.2105 71.168 32.2606L71.0377 33.1629C67.6693 32.421 68.5515 36.7819 68.4412 38.7368H67.4688V32.3107H68.2708L68.381 33.5037H68.4312C68.8622 32.7318 69.5239 32.1904 70.3961 32.1904Z" fill="#D2D2D2"/>
<path d="M74.9413 38.8575C71.9138 39.068 71.2521 34.9177 72.796 33.0731C73.598 32.0705 75.5027 31.9803 76.6656 32.5317L76.3649 33.3638C74.6506 32.632 72.9163 33.1934 73.0265 35.5593C72.9163 37.8751 74.6907 38.4966 76.5654 37.6645V38.5267C76.1343 38.7472 75.593 38.8575 74.9413 38.8575Z" fill="#D2D2D2"/>
<path d="M80.8024 38.8579C77.7447 39.0584 76.9127 35.0684 78.4966 33.1035C79.3788 31.9406 81.5442 31.8704 82.4665 32.9832C83.0881 33.6148 83.2184 34.7276 83.1683 35.7H78.7372C78.667 38.1862 81.0931 38.3967 82.8876 37.5747V38.4469C82.1457 38.7576 81.6445 38.8579 80.8024 38.8579ZM80.5417 33.0133C79.4289 33.0133 78.8575 33.8253 78.7673 34.918H82.1257C82.1257 33.7952 81.6545 33.0133 80.5417 33.0133Z" fill="#D2D2D2"/>
<path d="M91.7728 30.9268C88.665 30.7262 87.9332 35.1473 89.5071 37.0521C90.5196 38.235 92.274 38.0846 93.8079 37.6435V38.5157C90.6199 39.5884 87.5222 38.2551 87.6525 34.4355C87.5121 30.7162 91.051 29.1022 94.1387 30.5257L93.7176 31.3779C93.066 31.0872 92.4244 30.9268 91.7728 30.9268Z" fill="#D2D2D2"/>
<path d="M96.5115 38.7363H95.5391V29.6035H96.5115V38.7363Z" fill="#D2D2D2"/>
<path d="M104.129 35.5192C104.319 40.0104 98.0435 39.9402 98.2239 35.5192C98.0134 31.058 104.309 31.0881 104.129 35.5192ZM99.2264 35.5192C99.0259 38.9177 103.317 38.9177 103.116 35.5192C103.327 32.1708 99.0059 32.1407 99.2264 35.5192Z" fill="#D2D2D2"/>
<path d="M106.741 32.3108V36.4812C106.741 37.5138 107.182 38.0451 108.215 38.0451C109.719 38.0251 110.14 37.203 110.16 35.6893V32.3108H111.132V38.7369H110.33L110.19 37.8747H110.14C109.448 39.0777 107.213 39.1278 106.34 38.2958C105.308 37.4737 105.909 33.4938 105.759 32.3008H106.741V32.3108Z" fill="#D2D2D2"/>
<path d="M117.583 37.8739H117.533C116.751 39.1471 114.425 39.1772 113.553 37.9942C113.082 37.4228 112.852 36.6007 112.852 35.5381C112.852 34.4754 113.082 33.6534 113.553 33.0719C114.425 31.8789 116.701 31.899 117.523 33.1421H117.603C117.503 32.5205 117.543 30.2749 117.543 29.6133H118.516V38.7461H117.724L117.583 37.8739ZM115.639 38.0444C117.202 38.0544 117.563 37.0318 117.533 35.5481C117.503 33.9642 117.192 33.0519 115.629 33.0118C113.243 32.9015 113.202 38.1947 115.639 38.0444Z" fill="#D2D2D2"/>
</g>
<defs>
<clipPath id="clip0_16271_6610">
<rect width="96" height="25.0627" fill="white" transform="translate(22.5 13.7949)"/>
</clipPath>
</defs>
</svg>
