<svg width="76" height="52" viewBox="0 0 76 52" fill="none" xmlns="http://www.w3.org/2000/svg">
<rect x="0.825166" y="0.348604" width="74.3546" height="50.8536" rx="12.2011" stroke="#5B5B5B" stroke-opacity="0.5" stroke-width="0.697208"/>
<g clip-path="url(#clip0_16271_6437)">
<path d="M35.1848 12.3198C36.2709 11.1954 37.7915 10.467 39.4654 10.467C41.7143 10.467 43.6565 11.732 44.6915 13.5721C45.586 13.1632 46.5826 12.9459 47.6176 12.9459C51.6299 12.9459 54.9137 16.2298 54.9137 20.2932C54.9137 24.3565 51.6682 27.6404 47.6176 27.6404C47.1193 27.6404 46.621 27.5893 46.1737 27.4999C45.2793 29.1226 43.5159 30.2471 41.5354 30.2471C40.6793 30.2471 39.9126 30.0682 39.1971 29.7104C38.2515 31.8699 36.1304 33.4032 33.6131 33.4032C31.0065 33.4032 28.7448 31.7421 27.8887 29.4421C27.5309 29.5315 27.122 29.5826 26.7131 29.5826C23.6081 29.5826 21.0781 27.0143 21.0781 23.9093C21.0781 21.7882 22.2026 19.9482 23.9148 18.9515C23.557 18.1465 23.3781 17.2904 23.3781 16.3448C23.3781 12.7415 26.3042 9.81538 29.9587 9.81538C32.1181 9.76427 34.0093 10.7482 35.1848 12.3198Z" fill="#00A1E0"/>
<path d="M26.0391 22.0054V22.0948C26.0902 22.1459 26.1796 22.1843 26.218 22.2354C26.5757 22.4143 26.8952 22.4654 27.2146 22.4654C27.8918 22.4654 28.3391 22.1076 28.3391 21.5198C28.3391 20.9831 27.8407 20.7531 27.3935 20.6254H27.3424C26.9846 20.5359 26.7163 20.3954 26.7163 20.1781C26.7163 19.9993 26.8952 19.8587 27.1635 19.8587C27.483 19.8587 27.7896 19.9481 28.058 20.0887C28.058 20.0887 28.1091 20.1398 28.1474 20.0887C28.1474 20.0376 28.288 19.7309 28.288 19.7309C28.288 19.6798 28.288 19.6798 28.2368 19.6415C27.9685 19.4626 27.6107 19.3731 27.2402 19.3731H27.1507C26.5246 19.3731 26.0646 19.782 26.0646 20.3187C26.0646 20.9065 26.563 21.0854 27.0102 21.2131L27.0996 21.2643C27.4191 21.3537 27.7257 21.4431 27.7257 21.6731C27.7257 21.9031 27.5468 22.0309 27.2274 22.0309C27.0868 22.0309 26.7291 22.0309 26.333 21.7626C26.2818 21.7115 26.2435 21.7115 26.1924 21.6731C26.1924 21.6731 26.103 21.622 26.103 21.7243L26.0391 22.0054ZM36.1719 22.0054V22.0948C36.223 22.1459 36.3124 22.1843 36.3507 22.2354C36.7085 22.4143 37.028 22.4654 37.3474 22.4654C38.0246 22.4654 38.4719 22.1076 38.4719 21.5198C38.4719 20.9831 37.9735 20.7531 37.5263 20.6254H37.4752C37.1174 20.5359 36.8491 20.3954 36.8491 20.1781C36.8491 19.9993 37.028 19.8587 37.2963 19.8587C37.6158 19.8587 37.9224 19.9481 38.1908 20.0887C38.1908 20.0887 38.2419 20.1398 38.2802 20.0887C38.2802 20.0376 38.4208 19.7309 38.4208 19.7309C38.4208 19.6798 38.4208 19.6798 38.3696 19.6415C38.1013 19.4626 37.7435 19.3731 37.373 19.3731H37.2835C36.6574 19.3731 36.1974 19.782 36.1974 20.3187C36.1974 20.9065 36.6958 21.0854 37.143 21.2131L37.2324 21.2643C37.5519 21.3537 37.8585 21.4431 37.8585 21.6731C37.8585 21.9031 37.6796 22.0309 37.3602 22.0309C37.2196 22.0309 36.8619 22.0309 36.4657 21.7626C36.4146 21.7115 36.3763 21.7115 36.3252 21.6731C36.3252 21.6731 36.2357 21.622 36.2357 21.7243L36.1719 22.0054ZM43.698 20.2548C43.6469 20.0759 43.5574 19.897 43.4297 19.7565C43.2891 19.6159 43.1613 19.4881 42.9824 19.437C42.8035 19.3476 42.5735 19.2965 42.3563 19.2965C42.1263 19.2965 41.9091 19.3476 41.7302 19.437C41.5513 19.5265 41.4108 19.6159 41.283 19.7948C41.1424 19.9354 41.053 20.1143 41.0146 20.2931C40.9763 20.472 40.9252 20.702 40.9252 20.9193C40.9252 21.1493 40.9763 21.3665 41.0146 21.5454C41.0658 21.7243 41.1552 21.9031 41.283 22.0437C41.4235 22.1843 41.5513 22.312 41.7302 22.3631C41.9091 22.4526 42.1391 22.5037 42.3563 22.5037C42.5863 22.5037 42.8035 22.4526 42.9824 22.3631C43.1613 22.2737 43.3019 22.1843 43.4297 22.0437C43.5702 21.9031 43.6597 21.7243 43.698 21.5454C43.7491 21.3665 43.7874 21.1365 43.7874 20.9193C43.7874 20.6509 43.7363 20.4337 43.698 20.2548ZM43.1102 20.8426C43.1102 21.162 43.0591 21.4304 42.9313 21.6093C42.8035 21.7881 42.6119 21.8776 42.3435 21.8776C42.0752 21.8776 41.8963 21.7881 41.8069 21.6093C41.6663 21.4304 41.628 21.162 41.628 20.8426C41.628 20.5231 41.6791 20.2548 41.8069 20.0759C41.9474 19.897 42.1263 19.8076 42.3435 19.8076C42.6119 19.8076 42.7908 19.897 42.9313 20.0759C43.0591 20.2548 43.1102 20.5231 43.1102 20.8426ZM48.4258 21.8265C48.4258 21.7754 48.3363 21.7754 48.3363 21.7754C48.2469 21.8265 48.1574 21.8265 48.068 21.8648C47.9786 21.8648 47.838 21.9159 47.7486 21.9159C47.4802 21.9159 47.2502 21.8265 47.0713 21.6476C46.8924 21.4687 46.803 21.2004 46.803 20.8426C46.803 20.5231 46.8924 20.2548 47.033 20.0759C47.1735 19.897 47.3908 19.8076 47.6591 19.8076C47.8891 19.8076 48.068 19.8587 48.2852 19.897C48.2852 19.897 48.3363 19.897 48.3363 19.8459C48.3874 19.7054 48.4258 19.6159 48.4769 19.437C48.4769 19.3859 48.4769 19.3859 48.4258 19.3476C48.3363 19.2965 48.1574 19.2581 48.0169 19.2581C47.8763 19.2581 47.7486 19.207 47.5697 19.207C47.3397 19.207 47.1224 19.2581 46.9436 19.3476C46.7647 19.437 46.5858 19.5265 46.4963 19.667C46.3558 19.8076 46.2663 19.9865 46.228 20.1654C46.1897 20.3443 46.1385 20.5743 46.1385 20.7915C46.1385 21.2898 46.2791 21.6476 46.5474 21.967C46.8158 22.2354 47.1735 22.4143 47.6719 22.4143C47.9913 22.4143 48.2597 22.3631 48.4769 22.2737C48.4769 22.2737 48.528 22.2737 48.528 22.1843L48.4258 21.8265ZM51.3902 20.1143C51.3391 19.9354 51.2113 19.7565 51.1219 19.667C50.9813 19.5265 50.8536 19.437 50.7641 19.3987C50.5852 19.3093 50.4063 19.2581 50.2274 19.2581C49.9974 19.2581 49.7802 19.3093 49.6013 19.3987C49.4224 19.4881 49.2819 19.5776 49.1541 19.7565C49.0136 19.897 48.9241 20.0759 48.8858 20.2548C48.8474 20.4337 48.7963 20.6637 48.7963 20.8809C48.7963 21.1109 48.8474 21.3281 48.8858 21.507C48.9369 21.6859 49.0263 21.8648 49.1541 22.0054C49.2819 22.1459 49.4736 22.2737 49.6524 22.3248C49.8313 22.4143 50.0997 22.4654 50.368 22.4654C50.9558 22.4654 51.2241 22.3248 51.3647 22.2865C51.3647 22.2865 51.4158 22.2354 51.3647 22.197L51.2241 21.8393C51.2241 21.7881 51.1347 21.7881 51.1347 21.7881C50.9941 21.8393 50.7769 21.9287 50.3297 21.9287C50.0102 21.9287 49.793 21.8393 49.6524 21.6987C49.5119 21.5581 49.4224 21.3409 49.4224 21.0726H51.3647C51.3647 21.0726 51.4158 21.0726 51.4158 21.0215C51.4413 20.932 51.5308 20.5615 51.3902 20.1143ZM49.4608 20.5231C49.5119 20.3443 49.5502 20.1654 49.6397 20.0759C49.7802 19.897 49.9591 19.8076 50.1763 19.8076C50.4063 19.8076 50.5852 19.897 50.713 20.0759C50.8024 20.2165 50.8536 20.3443 50.8536 20.5231H49.4608ZM35.7246 20.1143C35.6735 19.9354 35.5457 19.7565 35.4563 19.667C35.3157 19.5265 35.188 19.437 35.0985 19.3987C34.9196 19.3093 34.7407 19.2581 34.5619 19.2581C34.3319 19.2581 34.1146 19.3093 33.9357 19.3987C33.7569 19.4881 33.6163 19.5776 33.4885 19.7565C33.348 19.897 33.2585 20.0759 33.2202 20.2548C33.1691 20.4337 33.1307 20.6637 33.1307 20.8809C33.1307 21.1109 33.1819 21.3281 33.2202 21.507C33.2713 21.6859 33.3607 21.8648 33.4885 22.0054C33.6291 22.1459 33.808 22.2737 33.9869 22.3248C34.1657 22.4143 34.4341 22.4654 34.7024 22.4654C35.2902 22.4654 35.5585 22.3248 35.6991 22.2865C35.6991 22.2865 35.7502 22.2354 35.6991 22.197L35.5585 21.8393C35.5585 21.7881 35.4691 21.7881 35.4691 21.7881C35.3285 21.8393 35.1113 21.9287 34.6641 21.9287C34.3446 21.9287 34.1274 21.8393 33.9869 21.6987C33.8463 21.5581 33.7569 21.3409 33.7569 21.0726H35.6991C35.6991 21.0726 35.7502 21.0726 35.7502 21.0215C35.763 20.932 35.8524 20.5615 35.7246 20.1143ZM33.7824 20.5231C33.8335 20.3443 33.8719 20.1654 33.9613 20.0759C34.1019 19.897 34.2807 19.8076 34.498 19.8076C34.7663 19.8076 34.9069 19.897 35.0346 20.0759C35.1241 20.2165 35.1752 20.3443 35.1752 20.5231H33.7824ZM30.3196 20.4337H30.0002C29.8213 20.4337 29.6807 20.4337 29.5018 20.4848C29.3613 20.5359 29.2335 20.5743 29.093 20.6637C28.9524 20.7531 28.863 20.8426 28.8246 20.9831C28.7352 21.1237 28.7352 21.2515 28.7352 21.4304C28.7352 21.6093 28.7863 21.7498 28.8246 21.8776C28.8757 22.0181 28.9652 22.1076 29.093 22.197C29.1824 22.2865 29.323 22.3376 29.5018 22.3759C29.6424 22.427 29.8213 22.427 30.0385 22.427C30.2174 22.427 30.4474 22.427 30.6263 22.3759C30.8052 22.3248 31.0352 22.2865 31.1246 22.2865C31.1757 22.2865 31.2652 22.2354 31.2652 22.2354C31.3163 22.2354 31.3163 22.1843 31.3163 22.1843V20.3826C31.3163 19.9737 31.2268 19.7054 30.9968 19.5265C30.7668 19.3476 30.4985 19.2581 30.1024 19.2581C29.9618 19.2581 29.6935 19.2581 29.5657 19.3093C29.5657 19.3093 29.1568 19.3987 28.978 19.5393C28.978 19.5393 28.9268 19.5904 28.978 19.6287L29.1185 19.9865C29.1185 20.0376 29.1696 20.0376 29.1696 20.0376H29.2207C29.5785 19.8076 30.0768 19.8587 30.0768 19.8587C30.3068 19.8587 30.4346 19.9098 30.5752 19.9993C30.6646 20.0887 30.7541 20.2293 30.7541 20.4465V20.5359C30.4474 20.472 30.3196 20.4337 30.3196 20.4337ZM29.553 21.8265C29.4635 21.7754 29.4635 21.737 29.4124 21.6859C29.3613 21.6348 29.3613 21.5454 29.3613 21.4176C29.3613 21.2387 29.4124 21.0981 29.5402 21.0598C29.5402 21.0598 29.7191 20.9193 30.128 20.9193C30.3963 20.9193 30.6646 20.9704 30.6646 20.9704V21.8648C30.6646 21.8648 30.3963 21.9159 30.128 21.9543C29.6807 21.967 29.553 21.8265 29.553 21.8265ZM46.0747 19.437C46.0747 19.3859 46.0747 19.3859 46.0235 19.3476C45.9724 19.3476 45.8447 19.2965 45.7041 19.2965C45.4741 19.2965 45.3463 19.3476 45.2058 19.3859C45.0652 19.437 44.9374 19.5265 44.8863 19.6159V19.3859C44.8863 19.3348 44.8352 19.3348 44.8352 19.3348H44.3369C44.2858 19.3348 44.2858 19.3859 44.2858 19.3859V22.3248C44.2858 22.3759 44.3369 22.3759 44.3369 22.3759H44.8352C44.8863 22.3759 44.8863 22.3248 44.8863 22.3248V20.8809C44.8863 20.702 44.8863 20.472 44.9374 20.3826C44.9885 20.242 45.0269 20.1526 45.1163 20.1143C45.2058 20.0248 45.2569 19.9737 45.3463 19.9737C45.4358 19.9226 45.5252 19.9226 45.6147 19.9226C45.7041 19.9226 45.8447 19.9737 45.8447 19.9737C45.8958 19.9737 45.8958 19.9737 45.9341 19.9226C45.9852 19.7565 46.0747 19.4881 46.0747 19.437Z" fill="white"/>
<path d="M41.2568 18.096C41.2056 18.096 41.1162 18.0449 41.0779 18.0449H40.8095C40.4518 18.0449 40.1834 18.1344 40.0045 18.3644C39.8256 18.5433 39.6851 18.8627 39.5956 19.2588L39.5445 19.3994H39.0973C39.0973 19.3994 39.0462 19.3994 39.0462 19.4505L38.9568 19.8594C38.9568 19.9105 38.9568 19.9105 39.0079 19.9105H39.4551L39.0079 22.3383C38.9568 22.5172 38.9184 22.696 38.8673 22.8366C38.8162 22.9772 38.7779 23.0666 38.7267 23.1049C38.6756 23.1433 38.6373 23.1944 38.5479 23.2455C38.4584 23.2966 38.4073 23.2966 38.3179 23.2966H38.1773C38.1262 23.2966 38.0879 23.2966 38.0879 23.2455C38.0879 23.2455 38.0367 23.2455 37.9984 23.2966C37.9984 23.3477 37.8579 23.6544 37.8579 23.7055C37.8579 23.7566 37.8579 23.7949 37.909 23.7949C37.9601 23.7949 37.9984 23.846 38.0879 23.846C38.1773 23.8972 38.2667 23.8972 38.3562 23.8972C38.5351 23.8972 38.714 23.846 38.8545 23.8077C38.9951 23.7566 39.1229 23.6672 39.2123 23.5394C39.3529 23.3988 39.3912 23.271 39.4806 23.0922C39.5701 22.9133 39.6212 22.6833 39.6595 22.4149L40.1068 19.936H40.7329C40.7329 19.936 40.784 19.936 40.784 19.8849L40.8734 19.476C40.8734 19.4249 40.8734 19.4249 40.8223 19.4249H40.1962C40.1962 19.4249 40.2473 19.1949 40.2856 18.9777C40.3368 18.8883 40.3751 18.7988 40.4262 18.7477C40.4773 18.6966 40.5156 18.6583 40.6051 18.6583C40.6562 18.6583 40.7456 18.6071 40.8351 18.6071H41.014C41.0523 18.6071 41.1034 18.6071 41.1034 18.6583C41.1545 18.6583 41.1929 18.6583 41.1929 18.6071L41.3334 18.1983C41.3079 18.096 41.3079 18.096 41.2568 18.096ZM32.5295 22.3255C32.5295 22.3766 32.4784 22.3766 32.4784 22.3766H31.9417C31.8906 22.3766 31.8906 22.3255 31.8906 22.3255V18.1344C31.8906 18.0833 31.9417 18.0833 31.9417 18.0833H32.4784C32.5295 18.0833 32.5295 18.1344 32.5295 18.1344V22.3255Z" fill="white"/>
<path d="M10.7611 41.492C10.5567 41.5942 10.0967 41.7475 9.52167 41.7475C8.21833 41.7348 7.375 40.8531 7.375 39.537C7.375 38.2081 8.28222 37.2498 9.68778 37.2498C10.1478 37.2498 10.5567 37.3648 10.7739 37.467L10.595 38.0675C10.4033 37.9653 10.1095 37.8631 9.68778 37.8631C8.70389 37.8631 8.16722 38.5914 8.16722 39.4987C8.16722 40.4953 8.80611 41.1087 9.66223 41.1087C10.1094 41.1087 10.4033 40.9937 10.6206 40.8914L10.7611 41.492ZM15.5272 39.4603C15.5272 41.0575 14.4283 41.7475 13.3806 41.7475C12.2178 41.7475 11.3106 40.8914 11.3106 39.5242C11.3106 38.0803 12.2561 37.237 13.4445 37.237C14.6967 37.237 15.5272 38.1442 15.5272 39.4603ZM12.1028 39.4987C12.1028 40.4442 12.6522 41.1598 13.4061 41.1598C14.16 41.1598 14.7095 40.457 14.7095 39.4859C14.7095 38.7575 14.3389 37.8248 13.4189 37.8248C12.5117 37.8248 12.1028 38.6809 12.1028 39.4987ZM16.5239 38.502C16.5239 38.0548 16.5111 37.697 16.4856 37.3392H17.1756L17.2139 38.0292H17.2395C17.4822 37.6203 17.8784 37.237 18.5939 37.237C19.1817 37.237 19.6289 37.5948 19.8078 38.1059H19.8206C19.9484 37.8631 20.1272 37.6842 20.3061 37.5437C20.5617 37.352 20.8556 37.237 21.2645 37.237C21.8395 37.237 22.6828 37.6075 22.6828 39.1025V41.6453H21.9161V39.2048C21.9161 38.3742 21.6095 37.8759 20.9834 37.8759C20.5361 37.8759 20.1911 38.2081 20.0634 38.5914C20.025 38.6937 19.9995 38.847 19.9995 38.9875V41.6453H19.2328V39.0642C19.2328 38.3742 18.9261 37.8759 18.3384 37.8759C17.8528 37.8759 17.495 38.272 17.3672 38.6553C17.3289 38.7703 17.3034 38.8981 17.3034 39.0387V41.6453H16.5367V38.502H16.5239ZM23.9478 38.502C23.9478 38.0548 23.935 37.697 23.9095 37.3392H24.5995L24.6378 38.0292H24.6634C24.9061 37.6203 25.3023 37.237 26.0178 37.237C26.6056 37.237 27.0528 37.5948 27.2317 38.1059H27.2445C27.3723 37.8631 27.5512 37.6842 27.73 37.5437C27.9856 37.352 28.2795 37.237 28.6884 37.237C29.2634 37.237 30.1067 37.6075 30.1067 39.1025V41.6453H29.34V39.2048C29.34 38.3742 29.0334 37.8759 28.4073 37.8759C27.96 37.8759 27.615 38.2081 27.4873 38.5914C27.4489 38.6937 27.4234 38.847 27.4234 38.9875V41.6453H26.6567V39.0642C26.6567 38.3742 26.35 37.8759 25.7623 37.8759C25.2767 37.8759 24.9189 38.272 24.7911 38.6553C24.7528 38.7703 24.7273 38.8981 24.7273 39.0387V41.6453H23.9606V38.502H23.9478ZM31.8189 39.6392C31.8317 40.6998 32.5089 41.1342 33.3012 41.1342C33.8634 41.1342 34.1956 41.032 34.4895 40.917L34.6173 41.4792C34.3362 41.607 33.8634 41.7475 33.1862 41.7475C31.8573 41.7475 31.065 40.8787 31.065 39.5753C31.065 38.272 31.8317 37.2498 33.0839 37.2498C34.4895 37.2498 34.8601 38.4892 34.8601 39.2814C34.8601 39.4475 34.8473 39.5625 34.8345 39.652H31.8189V39.6392ZM34.1189 39.077C34.1317 38.5787 33.9145 37.7992 33.0328 37.7992C32.2406 37.7992 31.8956 38.5275 31.8317 39.077H34.1189ZM35.8439 38.6809C35.8439 38.1698 35.8312 37.7353 35.8056 37.3392H36.4956L36.5212 38.1825H36.5595C36.7512 37.6075 37.2239 37.237 37.7478 37.237C37.8373 37.237 37.9012 37.2498 37.9651 37.2625V38.0037C37.8884 37.9909 37.799 37.9781 37.6967 37.9781C37.1473 37.9781 36.7512 38.3998 36.6489 38.9875C36.6362 39.0898 36.6106 39.2175 36.6106 39.3581V41.6581H35.8312V38.6809H35.8439ZM41.7473 41.492C41.5428 41.5942 41.0828 41.7475 40.5078 41.7475C39.2045 41.7475 38.3612 40.8659 38.3612 39.5498C38.3612 38.2209 39.2684 37.2625 40.674 37.2625C41.134 37.2625 41.5428 37.3775 41.7601 37.4798L41.5812 38.0803C41.3895 37.9781 41.0956 37.8759 40.674 37.8759C39.6901 37.8759 39.1534 38.6042 39.1534 39.5114C39.1534 40.5081 39.7923 41.1214 40.6484 41.1214C41.0956 41.1214 41.3895 41.0064 41.6067 40.9042L41.7473 41.492ZM43.0506 39.6392C43.0634 40.6998 43.7406 41.1342 44.5329 41.1342C45.0951 41.1342 45.4273 41.032 45.7212 40.917L45.849 41.4792C45.5679 41.607 45.0951 41.7475 44.4179 41.7475C43.089 41.7475 42.2967 40.8787 42.2967 39.5753C42.2967 38.272 43.0634 37.2498 44.3156 37.2498C45.7212 37.2498 46.0917 38.4892 46.0917 39.2814C46.0917 39.4475 46.079 39.5625 46.0662 39.652H43.0506V39.6392ZM45.3506 39.077C45.3634 38.5787 45.1462 37.7992 44.2645 37.7992C43.4723 37.7992 43.1273 38.5275 43.0634 39.077H45.3506ZM52.0462 41.492C51.8418 41.5942 51.3818 41.7475 50.8068 41.7475C49.5034 41.7475 48.6601 40.8659 48.6601 39.5498C48.6601 38.2209 49.5673 37.2625 50.9729 37.2625C51.4329 37.2625 51.8418 37.3775 52.059 37.4798L51.8801 38.0803C51.6884 37.9781 51.3945 37.8759 50.9729 37.8759C49.989 37.8759 49.4523 38.6042 49.4523 39.5114C49.4523 40.5081 50.0912 41.1214 50.9473 41.1214C51.3945 41.1214 51.6884 41.0064 51.9056 40.9042L52.0462 41.492ZM52.9662 35.3203H53.7457V41.6453H52.9662V35.3203ZM58.959 39.4603C58.959 41.0575 57.8601 41.7475 56.8123 41.7475C55.6495 41.7475 54.7423 40.8914 54.7423 39.5242C54.7423 38.0803 55.6879 37.237 56.8762 37.237C58.1284 37.237 58.959 38.1442 58.959 39.4603ZM55.5473 39.4987C55.5473 40.4442 56.0968 41.1598 56.8507 41.1598C57.6045 41.1598 58.154 40.457 58.154 39.4859C58.154 38.7575 57.7834 37.8248 56.8634 37.8248C55.9434 37.8248 55.5473 38.6809 55.5473 39.4987ZM63.559 40.4698C63.559 40.917 63.5718 41.3131 63.5973 41.6453H62.9073L62.869 40.9425H62.8562C62.6518 41.2875 62.1918 41.7475 61.4251 41.7475C60.7479 41.7475 59.9429 41.377 59.9429 39.8564V37.3392H60.7223V39.7287C60.7223 40.5464 60.9779 41.0959 61.6807 41.0959C62.2046 41.0959 62.5751 40.7253 62.7157 40.3803C62.754 40.2653 62.7923 40.1248 62.7923 39.9842V37.3392H63.5718V40.4698H63.559ZM68.5935 35.3203V40.5337C68.5935 40.917 68.6062 41.3514 68.6318 41.6453H67.929L67.8907 40.8914H67.8779C67.6351 41.377 67.1112 41.7348 66.4085 41.7348C65.3607 41.7348 64.5685 40.8531 64.5685 39.5498C64.5557 38.1187 65.4501 37.237 66.4979 37.237C67.1623 37.237 67.5968 37.5436 67.8012 37.9014H67.814V35.3331H68.5935V35.3203ZM67.8012 39.0898C67.8012 38.9875 67.7885 38.8598 67.7629 38.7575C67.6479 38.2592 67.2135 37.8503 66.6257 37.8503C65.8207 37.8503 65.3351 38.5659 65.3351 39.5114C65.3351 40.3803 65.7568 41.1087 66.6129 41.1087C67.1368 41.1087 67.6223 40.7637 67.7629 40.1759C67.7885 40.0737 67.8012 39.9587 67.8012 39.8437V39.0898Z" fill="#D2D2D2"/>
</g>
<defs>
<clipPath id="clip0_16271_6437">
<rect width="61.2568" height="31.9445" fill="white" transform="translate(7.375 9.80273)"/>
</clipPath>
</defs>
</svg>
