<svg xmlns="http://www.w3.org/2000/svg" width="56.602" height="64.52" viewBox="0 0 56.602 64.52">
  <g id="Artificial_intelligence" data-name="Artificial intelligence" transform="translate(-475.137 -291.21)">
    <path id="Path_2092" data-name="Path 2092" d="M498.311,355.729a2.506,2.506,0,0,1-2.347-1.63l-1.772-4.754c-3.264-.1-8.962-.417-11.141-1.448-2.4-1.137-3.359-5.111-2.855-11.823-4.563-1.6-4.88-3.348-5.009-4.055-.133-.731-.377-2.08,4.943-13.913-.5-2.773-1.059-10.808,6.8-18.9,9.114-9.379,21.233-7.99,22.378-7.836,1.168.122,13.756,1.681,19.139,12.985,4.947,10.389,4.356,18.749-2.027,27.731l3.434,13.16a2.505,2.505,0,1,1-4.848,1.264l-4.039-15.483.73-.968c5.928-7.865,6.554-14.468,2.227-23.55-4.283-9-15.04-10.147-15.149-10.158l-.134-.017c-.094-.011-10.575-1.4-18.119,6.362-7.362,7.576-5.452,14.672-5.366,14.97l.25.882-.372.858c-1.883,4.16-3.966,9.137-4.663,11.3a19.74,19.74,0,0,0,3.156,1.145l2.069.559-.23,2.131c-.395,3.627-.309,7.677.164,8.943a58,58,0,0,0,10.446.881l1.715.023,2.965,7.954a2.505,2.505,0,0,1-2.347,3.38Z"/>
    <path id="Path_2093" data-name="Path 2093" d="M506.761,333.169v9.551a2.087,2.087,0,1,1-4.174,0v-7.146l-8.666-4.992v-4.433a3.967,3.967,0,1,1,4.174.008v2.012Z" transform="translate(-2.793 -4.559)"/>
    <path id="Path_2094" data-name="Path 2094" d="M514.982,311.035a3.966,3.966,0,0,1-1.887,3.381V326.9a2.087,2.087,0,0,1-4.174,0V314.408a3.965,3.965,0,1,1,6.061-3.373Z" transform="translate(-5.271 -2.62)"/>
    <path id="Path_2095" data-name="Path 2095" d="M529.139,322.792a3.917,3.917,0,0,1-1.887,3.364v4.425l-8.657,4.992v7.146a2.087,2.087,0,1,1-4.174,0v-9.551l8.657-5v-2.02a3.965,3.965,0,1,1,6.061-3.356Z" transform="translate(-6.488 -4.559)"/>
  </g>
</svg>
