<svg xmlns="http://www.w3.org/2000/svg" width="45.924" height="45.908" viewBox="0 0 45.924 45.908">
  <g id="Group_105568" data-name="Group 105568" transform="translate(-8461.645 -11103.013)">
    <path id="Path_74529" data-name="Path 74529" d="M45.2,28.58A22.961,22.961,0,1,1,28.5.747,22.951,22.951,0,0,1,45.2,28.58Z" transform="translate(8461.679 11102.953)" fill="#f7931a"/>
    <path id="Path_74530" data-name="Path 74530" d="M83.026,55.348c.459-3.068-1.874-4.722-5.052-5.787L79,45.409l-2.5-.625-1.029,4.023-2.058-.459,1.029-4.023-2.5-.625-1.029,4.152-1.6-.4L65.885,46.6l-.68,2.664,1.819.459a1.351,1.351,0,0,1,1.194,1.47l-1.194,4.722a2.132,2.132,0,0,0,.294.055,2.132,2.132,0,0,0-.294-.055l-1.635,6.577a.943.943,0,0,1-1.139.625c0,.055-1.819-.459-1.819-.459l-1.231,2.9,3.289.79,1.819.459-1.029,4.17,2.5.625,1.029-4.152,1.966.514-1.029,4.152,2.5.625,1.029-4.17c4.317.79,7.5.514,8.855-3.417,1.084-3.123-.055-4.924-2.333-6.136a3.894,3.894,0,0,0,3.233-3.693Zm-5.732,8.12c-.79,3.123-6.026,1.415-7.735,1.029l1.36-5.567c1.709.4,7.165,1.231,6.393,4.538Zm.79-8.12c-.68,2.848-5.107,1.415-6.54,1.029l1.231-5.052c1.433.386,6.026,1.01,5.291,4.005Z" transform="translate(8411.694 11067.331)" fill="#fff"/>
  </g>
</svg>
