<svg xmlns="http://www.w3.org/2000/svg" width="29" height="47.656" viewBox="0 0 29 47.656">
  <g id="Group_105578" data-name="Group 105578" transform="translate(-8860.512 -11395.431)">
    <path id="Path_74538" data-name="Path 74538" d="M14.461,75.861c.063-.381-.254-.635-.444-.888C9.574,68.627,5.069,62.345.627,56c-.063-.063-.063-.19-.127-.254.444-.254.761.063,1.079.254,4.252,2.475,8.44,5.013,12.691,7.488.127.063.317.127.444.19v11.1a.834.834,0,0,0,.19.635V75.8A1.239,1.239,0,0,1,14.461,75.861Z" transform="translate(8860.329 11367.227)" fill="#8d95b4"/>
    <path id="Path_74540" data-name="Path 74540" d="M0,36.487c1.206-2.348,2.665-4.569,4-6.853,3.3-5.521,6.6-10.978,9.963-16.5.127-.254.19-.571.508-.635V30.014c0,.063,0,.127-.063.127a3.875,3.875,0,0,0-.825.19c-2.411,1.079-4.759,2.221-7.171,3.236C4.315,34.583,2.158,35.535,0,36.487Z" transform="translate(8860.512 11382.995)" fill="#8d95b4"/>
    <path id="Path_74541" data-name="Path 74541" d="M22.8,29.914V12.4c1.46,2.031,2.665,4.252,4,6.409,3.49,5.711,6.917,11.486,10.407,17.2.063.127.063.254.127.381-2.6-1.206-5.2-2.348-7.869-3.554C27.242,31.881,25.021,30.929,22.8,29.914Z" transform="translate(8852.18 11383.031)" fill="#63688e"/>
    <path id="Path_74542" data-name="Path 74542" d="M22.8,40c2.221,1.015,4.442,1.967,6.663,2.982,2.6,1.142,5.2,2.348,7.869,3.554,0,.508-.508.508-.761.7C32,49.963,27.432,52.628,22.863,55.293V51.8c0-3.871-.063-7.678-.063-11.549C22.8,40.127,22.8,40.063,22.8,40Z" transform="translate(8852.18 11372.945)" fill="#464a75"/>
    <path id="Path_74543" data-name="Path 74543" d="M14.468,40.3c0,3.871.063,7.678.063,11.549v3.49c-3.3-1.967-6.663-3.871-9.963-5.838-1.333-.761-2.665-1.586-4-2.348C.381,47.026,0,47.026,0,46.582l6.473-2.856c2.411-1.079,4.759-2.158,7.171-3.236A3.148,3.148,0,0,1,14.468,40.3Z" transform="translate(8860.512 11372.836)" fill="#63688e"/>
    <path id="Path_74544" data-name="Path 74544" d="M22.99,75.352c-.19-.127-.19-.381-.19-.635v-11.1c3.49-2.031,6.98-4.125,10.47-6.155,1.206-.7,2.411-1.46,3.681-2.158l.19.19c-.635.888-1.269,1.777-1.9,2.6l-11.8,16.753A3.178,3.178,0,0,1,22.99,75.352Z" transform="translate(8852.18 11367.354)" fill="#63688e"/>
  </g>
</svg>
