<svg xmlns="http://www.w3.org/2000/svg" width="32.373" height="41.06" viewBox="0 0 32.373 41.06">
  <g id="Group_105569" data-name="Group 105569" transform="translate(-8568.956 -11066)">
    <path id="Path_74552" data-name="Path 74552" d="M14.424.385a4.232,4.232,0,0,1,3.526,0L28.11,5.737A1.744,1.744,0,0,1,29.1,7.02h0V33.912a1.67,1.67,0,0,1-.994,1.41L17.95,40.675a4.232,4.232,0,0,1-3.526,0L4.263,35.322a1.734,1.734,0,0,1-.994-1.41V7.02h0a1.626,1.626,0,0,1,.962-1.282ZM27.5,22.02l-9.584,5.032a4.232,4.232,0,0,1-3.526,0L4.872,22.02V33.848l9.552,4.968a4.26,4.26,0,0,0,1.635.609h.1a4.386,4.386,0,0,0,1.7-.545l9.648-5.1V22.02ZM1.6,33.3a5.175,5.175,0,0,0,.353,2.18A2.647,2.647,0,0,0,2.981,36.54l.032.032c.128.064.256.16.417.256l.192.128.577.353-.833,1.378L2.724,38.3l-.1-.064c-.192-.128-.353-.224-.481-.321C.577,36.861,0,35.739,0,33.367V33.3ZM15.353,14.808l-.192.1L4.968,20.225a.031.031,0,0,0-.032.032h.032l10.193,5.385.192.1V14.808Zm1.6,0v10.9l.192-.1,10.161-5.353a.031.031,0,0,0,.032-.032h-.032L17.18,14.9A1.563,1.563,0,0,0,16.956,14.808ZM27.5,8.911l-9.135,4.808L27.5,18.526ZM4.872,8.943v9.584l9.1-4.776ZM17.18,1.795a2.464,2.464,0,0,0-2.019,0L4.968,7.148a.031.031,0,0,0-.032.032h.032l10.161,5.353a2.464,2.464,0,0,0,2.019,0L27.309,7.18a.031.031,0,0,0,.032-.032h-.032ZM29.008,2.4l.641.385.1.064c.192.128.353.224.481.321,1.539,1.026,2.115,2.18,2.148,4.519v.064h-1.6a5.175,5.175,0,0,0-.353-2.18,2.646,2.646,0,0,0-1.026-1.058l-.032-.032c-.128-.064-.256-.16-.417-.256L28.751,4.1l-.577-.353Z" transform="translate(8568.956 11066)" fill="#1969ff"/>
  </g>
</svg>
