<svg xmlns="http://www.w3.org/2000/svg" width="46.117" height="45.981" viewBox="0 0 46.117 45.981">
  <g id="Group_105573" data-name="Group 105573" transform="translate(-8425.921 -11248.672)">
    <path id="path48" d="M7.361-41.625a.847.847,0,0,1-1.127.4L.477-43.97a.847.847,0,0,1-.4-1.127l1-2.092a.847.847,0,0,1,1.127-.4l5.752,2.744a.847.847,0,0,1,.4,1.127Zm18.645,8.9a.847.847,0,0,1-1.127.4l-9.416-4.493a.847.847,0,0,1-.4-1.127l1-2.092a.851.851,0,0,1,1.132-.4l9.411,4.493a.851.851,0,0,1,.4,1.132l-1,2.087" transform="translate(8425.926 11324.252)" fill="#f03d41"/>
    <path id="path50" d="M61.258-106.5a.847.847,0,0,1-1.127.4l-9.36-4.468a.847.847,0,0,1-.4-1.127l1-2.1a.847.847,0,0,1,1.127-.4l9.36,4.468a.847.847,0,0,1,.4,1.127Zm15,7.157a.847.847,0,0,1-1.127.4l-5.762-2.749a.847.847,0,0,1-.4-1.127l1-2.092a.851.851,0,0,1,1.132-.4l5.762,2.749a.851.851,0,0,1,.4,1.132l-1.006,2.087" transform="translate(8394.696 11365.606)" fill="#f03d41"/>
    <path id="path52" d="M30.836-90.82a.847.847,0,0,1-1.127.4l-5.752-2.744a.851.851,0,0,1-.4-1.132l1-2.092a.847.847,0,0,1,1.127-.4l5.752,2.744a.851.851,0,0,1,.4,1.132l-1,2.092" transform="translate(8411.347 11354.803)" fill="#f03d41"/>
    <path id="path54" d="M74.02-70.213a.851.851,0,0,1-1.132.4l-9.411-4.493a.851.851,0,0,1-.4-1.132l1-2.1a.847.847,0,0,1,1.127-.4l9.411,4.493a.847.847,0,0,1,.4,1.127l-1,2.1" transform="translate(8386.807 11343.096)" fill="#f03d41"/>
    <path id="path56" d="M83.248-35.61a.847.847,0,0,1-1.127.4l-5.777-2.755a.847.847,0,0,1-.4-1.127l1-2.1a.847.847,0,0,1,1.127-.4l5.777,2.755a.847.847,0,0,1,.4,1.127l-1,2.1" transform="translate(8378.817 11320.526)" fill="#f03d41"/>
    <path id="path58" d="M37.741-57.326a.847.847,0,0,1-1.127.4L27.224-61.4a.847.847,0,0,1-.4-1.127l1-2.1a.847.847,0,0,1,1.127-.4l9.391,4.478a.847.847,0,0,1,.4,1.127l-1,2.1" transform="translate(8409.317 11335.081)" fill="#f03d41"/>
    <path id="path60" d="M10.835-70.3a.847.847,0,0,1-1.127.4l-2.1-1a.851.851,0,0,1-.4-1.132L11.7-81.443a.851.851,0,0,1,1.132-.4l2.1,1a.847.847,0,0,1,.4,1.127l-4.5,9.411" transform="translate(8421.496 11345.521)" fill="#9bddd4"/>
    <path id="path62" d="M34.3-113.4a.851.851,0,0,1-1.132.4l-2.092-1a.847.847,0,0,1-.4-1.127l2.719-5.7a.847.847,0,0,1,1.127-.4l2.1,1a.851.851,0,0,1,.4,1.132L34.3-113.4" transform="translate(8406.925 11369.97)" fill="#9bddd4"/>
    <path id="path64" d="M77.555-14.218a.847.847,0,0,1-1.127.4l-2.1-1a.847.847,0,0,1-.4-1.127l2.719-5.7a.847.847,0,0,1,1.127-.4l2.1,1a.847.847,0,0,1,.4,1.127l-2.719,5.7" transform="translate(8380.067 11308.39)" fill="#9bddd4"/>
    <path id="path66" d="M96.355-59.7a.847.847,0,0,1-1.127.4l-2.1-1a.851.851,0,0,1-.4-1.132l4.493-9.411a.847.847,0,0,1,1.127-.4l2.1,1a.847.847,0,0,1,.4,1.127L96.355-59.7" transform="translate(8368.395 11338.939)" fill="#9bddd4"/>
    <path id="path68" d="M83.488-89.925a.847.847,0,0,1-1.127.4l-2.1-1a.847.847,0,0,1-.4-1.127l2.719-5.7a.847.847,0,0,1,1.127-.4l2.1,1a.847.847,0,0,1,.4,1.127l-2.719,5.7" transform="translate(8376.383 11355.398)" fill="#9bddd4"/>
    <path id="path70" d="M60.013-46.823a.851.851,0,0,1-1.132.4l-2.1-1a.847.847,0,0,1-.4-1.127l4.493-9.411a.847.847,0,0,1,1.127-.4l2.1,1a.847.847,0,0,1,.4,1.127l-4.488,9.411" transform="translate(8390.963 11330.942)" fill="#9bddd4"/>
    <path id="path72" d="M28.382-37.7a.847.847,0,0,1-1.127.4l-2.1-1a.847.847,0,0,1-.4-1.127l2.719-5.7a.847.847,0,0,1,1.127-.4l2.1,1a.851.851,0,0,1,.4,1.132L28.382-37.7" transform="translate(8410.601 11322.969)" fill="#9bddd4"/>
    <path id="path74" d="M47.168-83.157a.847.847,0,0,1-1.127.4l-2.1-1a.847.847,0,0,1-.4-1.127L48.038-94.3a.851.851,0,0,1,1.132-.4l2.1,1a.851.851,0,0,1,.4,1.132l-4.5,9.406" transform="translate(8398.936 11353.503)" fill="#9bddd4"/>
  </g>
</svg>
