<svg xmlns="http://www.w3.org/2000/svg" width="62.136" height="56.471" viewBox="0 0 62.136 56.471">
  <g id="IoT" transform="translate(-621.143 -616.053)">
    <path id="Path_1886" data-name="Path 1886" d="M623.846,627.748a2.7,2.7,0,0,0-2.7,2.7V663.84a2.7,2.7,0,1,0,5.394,0v-33.4a2.7,2.7,0,0,0-2.694-2.7Z" transform="translate(0 -2.684)"/>
    <path id="Path_1887" data-name="Path 1887" d="M694.515,646.866a2.7,2.7,0,1,0,0-5.394h-6.678v-9.7a2.7,2.7,0,0,0-5.394,0v31.239a3.415,3.415,0,0,0,3.014,3.1h8.216a2.7,2.7,0,1,0,0-5.394h-5.837V646.866Z" transform="translate(-14.063 -2.989)"/>
    <path id="Path_1888" data-name="Path 1888" d="M651.48,631.616a16.243,16.243,0,1,0,16.243,16.243,16.243,16.243,0,0,0-16.243-16.243Zm0,27.093a10.85,10.85,0,1,1,10.849-10.85A10.85,10.85,0,0,1,651.48,658.709Z" transform="translate(-3.232 -3.571)"/>
    <path id="Path_1889" data-name="Path 1889" d="M654.729,645.78a5.329,5.329,0,1,0,5.329,5.329,5.329,5.329,0,0,0-5.329-5.329Zm-.065,5.329a.065.065,0,0,1,.13,0c.006.072-.129.072-.129,0Z" transform="translate(-6.482 -6.821)"/>
    <path id="Path_1890" data-name="Path 1890" d="M665.1,675.6a22.848,22.848,0,0,1-28.6.056,2.7,2.7,0,1,0-3.371,4.209,28.239,28.239,0,0,0,35.356-.067,2.7,2.7,0,0,0-3.387-4.2Z" transform="translate(-2.516 -13.526)"/>
    <path id="Path_1891" data-name="Path 1891" d="M634.819,627.036a2.686,2.686,0,0,0,1.683-.591,22.849,22.849,0,0,1,27.536-.748,2.7,2.7,0,1,0,3.138-4.387,28.242,28.242,0,0,0-34.045.924,2.7,2.7,0,0,0,1.688,4.8Z" transform="translate(-2.517)"/>
  </g>
</svg>
