<svg xmlns="http://www.w3.org/2000/svg" width="50.546" height="15.325" viewBox="0 0 50.546 15.325">
  <g id="poa-network" transform="translate(0 -0.016)">
    <path id="Path_74574" data-name="Path 74574" d="M8.691,12.35H7.9v2.275a.779.779,0,0,1-.791.765H.789A.778.778,0,0,1,0,14.621V.862H0V.839A.778.778,0,0,1,.789.07h7.9a6.23,6.23,0,0,1,6.318,6.138A6.235,6.235,0,0,1,8.691,12.35Z" transform="translate(0 -0.049)" fill="#5332a0"/>
    <path id="Path_74575" data-name="Path 74575" d="M173.9.07a7.776,7.776,0,0,1,7.892,7.659,7.9,7.9,0,0,1-15.793,0A7.784,7.784,0,0,1,173.9.07Z" transform="translate(-149.418 -0.049)" fill="#5332a0"/>
    <path id="Path_74576" data-name="Path 74576" d="M335.2,14.853a.48.48,0,0,1-.488.472H316.8a.413.413,0,0,1-.063.012.484.484,0,0,1-.49-.478.458.458,0,0,1,.1-.273l-.009-.017L325.235.392h.019a.48.48,0,0,1,.938,0h.02l8.99,14.273-.031.041a.459.459,0,0,1,.033.148Z" transform="translate(-284.659)" fill="#5332a0"/>
  </g>
</svg>
