<svg xmlns="http://www.w3.org/2000/svg" width="60.521" height="13.688" viewBox="0 0 60.521 13.688">
  <g id="polkadot" transform="translate(-0.015 -0.371)">
    <path id="Path_74577" data-name="Path 74577" d="M101.266,12.444H99.48a7.792,7.792,0,0,1,.242,1.211,5.238,5.238,0,0,1-1.816,4.388,3.155,3.155,0,0,1-4.085.061,2.981,2.981,0,0,1-2.239.7,1.917,1.917,0,0,1-1.816-1.332c-1.6,1.574-2.572,1.755-4.116.757-1.241.938-3.329.817-3.874-.787A3.021,3.021,0,0,1,79.325,18.8a2.332,2.332,0,0,1-2.27-1.483c-.212.212-.393.454-.605.636a3,3,0,0,1-2.845.787,2.164,2.164,0,0,1-1.634-1.846,6.1,6.1,0,0,1-.061-1.816c0-.182.121-.212.242-.242a3.012,3.012,0,0,0,1.6-1.059c.333-.393.424-.938.212-1.18a.913.913,0,0,0-1.059-.091,3.2,3.2,0,0,0-2.058,2.209,30.629,30.629,0,0,0-.757,3.3c-.121.514-.333.726-.757.757a.7.7,0,0,1-.7-.908c.393-1.907.817-3.843,1.241-5.75.272-1.332.575-2.663.847-3.995.121-.514.454-.787.878-.7a.779.779,0,0,1,.545,1c-.242,1.089-.484,2.209-.726,3.329.151.03.212-.091.3-.151a3.258,3.258,0,0,1,2.633-.575,1.4,1.4,0,0,1,1.211,1.453,3.261,3.261,0,0,1-1.786,3.117c-.575.333-.575.333-.454.938a1,1,0,0,0,.938.817,1.653,1.653,0,0,0,1.3-.545,6.061,6.061,0,0,0,1.362-2.482,5.792,5.792,0,0,1,1.059-2.058A3.875,3.875,0,0,1,82.5,11.234a.709.709,0,1,1-.484,1.332,3.123,3.123,0,0,0-1.271-.212,2.53,2.53,0,0,0-2.209,1.937,3.711,3.711,0,0,0-.091,2.149,1.051,1.051,0,0,0,1.6.7,2.917,2.917,0,0,0,1.12-1.15,7.811,7.811,0,0,0,.7-1.634.752.752,0,0,1,.968-.605c.393.121.575.484.484,1a7.581,7.581,0,0,0-.182,1.664c.061.757.454,1.029,1.18.847.545-.121.605-.272.545-.817a4.959,4.959,0,0,1,1.755-4.782,3.52,3.52,0,0,1,3.753-.454.186.186,0,0,0,.182.03l.636-3c.03-.091.03-.151.061-.242a.747.747,0,0,1,.878-.636.727.727,0,0,1,.575.968c-.333,1.6-.7,3.208-1.059,4.812a18.025,18.025,0,0,0-.484,2.845v.424c.061.787.514,1.059,1.271.787l.363-.182a.52.52,0,0,0,.272-.636,5.079,5.079,0,0,1,2.391-5.114,3.791,3.791,0,0,1,1.634-.363h4.237c.242,0,.333-.061.393-.3.091-.514.212-1.029.333-1.543a.726.726,0,0,1,.878-.605.712.712,0,0,1,.575.878c-.091.514-.212,1.029-.333,1.574h1.634a.716.716,0,0,1,.3,1.362.768.768,0,0,1-.363.061h-1.634c-.151,0-.242.03-.272.212a30.05,30.05,0,0,0-.575,3.3,2.092,2.092,0,0,0,.121.968.633.633,0,0,0,.757.454,1.68,1.68,0,0,0,1.089-.514,4.913,4.913,0,0,0,1.089-1.725c.212-.484.575-.666.968-.514a.736.736,0,0,1,.363,1.029,6,6,0,0,1-1.664,2.482,3.2,3.2,0,0,1-2.542.7,1.967,1.967,0,0,1-1.664-2.028,11.473,11.473,0,0,1,.393-3.359C101.145,13.11,101.266,12.777,101.266,12.444Zm-6.779,3.117c.03.242.03.484.061.726a1.184,1.184,0,0,0,1.241,1.059,1.671,1.671,0,0,0,1.18-.484,3.974,3.974,0,0,0,1.18-3.6.99.99,0,0,0-1-.878,1.918,1.918,0,0,0-1.574.545A3.9,3.9,0,0,0,94.487,15.561Zm-8.231.121a1.972,1.972,0,0,0,.061.545c.212,1.089,1,1.392,1.937.757a3.378,3.378,0,0,0,.938-1.029,9.078,9.078,0,0,0,.938-2.905.23.23,0,0,0-.151-.272,2.063,2.063,0,0,0-2.663.151A3.694,3.694,0,0,0,86.255,15.682Z" transform="translate(-47.842 -4.862)" fill="#030303"/>
    <path id="Path_74578" data-name="Path 74578" d="M3.884,9.489C4.641,9.307,5.337,9.368,6,9.217A3.7,3.7,0,0,0,8.908,5.343a3.657,3.657,0,0,0-3.541-3.48A3.729,3.729,0,0,0,1.645,6.7c.151.514-.03.908-.424,1.029a.762.762,0,0,1-.968-.605A5.193,5.193,0,1,1,5.458,10.79a5.876,5.876,0,0,0-.726.061,1.783,1.783,0,0,0-1.453,1.332c-.091.363-.182.757-.272,1.12a.717.717,0,1,1-1.392-.333c.545-2.512,1.059-5.024,1.6-7.535A.714.714,0,0,1,4.1,4.828a.76.76,0,0,1,.545.968c-.242,1.089-.454,2.179-.7,3.268C3.914,9.217,3.914,9.307,3.884,9.489Z" transform="translate(0)" fill="#030303"/>
    <path id="Path_74579" data-name="Path 74579" d="M40.107,22.26a4.855,4.855,0,0,1-2.421,4.388,2.875,2.875,0,0,1-3.268-.121,2.568,2.568,0,0,1-1-1.816,5.172,5.172,0,0,1,1.695-4.6,3.44,3.44,0,0,1,3.3-.726,2.213,2.213,0,0,1,1.574,1.846A3.835,3.835,0,0,1,40.107,22.26Zm-1.543,0a2.588,2.588,0,0,0,0-.484A1.13,1.13,0,0,0,37.2,20.686a2.146,2.146,0,0,0-1.513.847,3.926,3.926,0,0,0-.817,2.814,1.289,1.289,0,0,0,1.967,1.12,2.018,2.018,0,0,0,.757-.575A3.836,3.836,0,0,0,38.564,22.26Z" transform="translate(-23.271 -13.164)" fill="#030303"/>
    <path id="Path_74580" data-name="Path 74580" d="M61.344,8.458c-.121.636-.3,1.392-.454,2.118l-1.634,7.535a1.339,1.339,0,0,1-.151.454.68.68,0,0,1-.878.3.754.754,0,0,1-.454-.847l.817-3.813c.454-1.967.878-3.964,1.3-5.962a.736.736,0,0,1,.817-.666C61.1,7.641,61.344,7.944,61.344,8.458Z" transform="translate(-40.271 -5.022)" fill="#030303"/>
    <path id="Path_74581" data-name="Path 74581" d="M195.008,39.8a.9.9,0,0,1,.878.908.893.893,0,0,1-1.786-.03A.925.925,0,0,1,195.008,39.8Z" transform="translate(-135.35 -27.497)" fill="#e6087e"/>
  </g>
</svg>
