<svg xmlns="http://www.w3.org/2000/svg" xmlns:xlink="http://www.w3.org/1999/xlink" width="39.651" height="35.357" viewBox="0 0 39.651 35.357">
  <defs>
    <linearGradient id="linear-gradient" x1="0.085" y1="0.043" x2="0.904" y2="1.078" gradientUnits="objectBoundingBox">
      <stop offset="0.08" stop-color="#9945ff"/>
      <stop offset="0.3" stop-color="#8752f3"/>
      <stop offset="0.5" stop-color="#5497d5"/>
      <stop offset="0.6" stop-color="#43b4ca"/>
      <stop offset="0.72" stop-color="#28e0b9"/>
      <stop offset="0.97" stop-color="#19fb9b"/>
    </linearGradient>
  </defs>
  <path id="Path_74582" data-name="Path 74582" d="M39.28,27.982l-6.526,7c-.119.119-.356.237-.475.356a1.07,1.07,0,0,1-.593.119H.72a.9.9,0,0,1-.475-.119c-.119-.119-.237-.237-.237-.356s0-.237,0-.356.119-.237.237-.356l6.526-7c.119-.119.356-.237.475-.356a1.07,1.07,0,0,1,.593-.119H38.806a.9.9,0,0,1,.475.119c.119.119.237.237.237.356.119.119.119.237,0,.475S39.4,27.863,39.28,27.982ZM32.755,13.863c-.119-.119-.356-.237-.475-.356a1.07,1.07,0,0,0-.593-.119H.72a.9.9,0,0,0-.475.119c-.119.119-.237.237-.237.356s-.119.237,0,.475c0,.119.119.237.237.356l6.526,7c.119.119.356.237.475.356a1.07,1.07,0,0,0,.593.119H38.806a.436.436,0,0,0,.356-.119c.119-.119.237-.237.237-.356s.119-.237,0-.475c0-.119-.119-.237-.237-.356ZM.72,8.88H31.687a1.07,1.07,0,0,0,.593-.119,1.638,1.638,0,0,0,.475-.356l6.526-7c.119-.119.119-.237.237-.356s0-.356,0-.475C39.4.456,39.4.337,39.28.219S39.043.1,38.806.1H7.839a1.07,1.07,0,0,0-.593.119,1.638,1.638,0,0,0-.475.356l-6.526,7c-.119.119-.237.237-.237.356v.475c0,.237.119.237.237.356.237,0,.356.119.475.119Z" transform="translate(0.044 -0.1)" fill="url(#linear-gradient)"/>
</svg>
