<svg xmlns="http://www.w3.org/2000/svg" width="40.663" height="40.662" viewBox="0 0 40.663 40.662">
  <g id="Group_105574" data-name="Group 105574" transform="translate(-8882.34 -11276.444)">
    <g id="Group_104280" data-name="Group 104280" transform="translate(8882.34 11276.444)">
      <circle id="Ellipse_531" data-name="Ellipse 531" cx="20.331" cy="20.331" r="20.331" transform="translate(0)" fill="#172852"/>
      <g id="Group_104279" data-name="Group 104279" transform="translate(8.453 8.336)">
        <path id="Path_74598" data-name="Path 74598" d="M94.129,52.328a11.69,11.69,0,0,1,7.426-.161,11.952,11.952,0,0,1,7.168,6.312,7.366,7.366,0,0,1,.791,2.664,28.063,28.063,0,0,0-5.634-2.292c-3.1-1.114-6.344-1.889-9.266-3.422-.694-.4-1.566-.823-1.743-1.679-.081-.726.71-1.146,1.259-1.421" transform="translate(-86.325 -51.641)" fill="#ffd83d"/>
        <path id="Path_74599" data-name="Path 74599" d="M53.025,74.859A11.511,11.511,0,0,1,56.351,70a15,15,0,0,0,3.987,8.588,14.308,14.308,0,0,0,10.4,4.439,20.855,20.855,0,0,0,4.569-.6,11.741,11.741,0,0,1-20.954,2.938A11.881,11.881,0,0,1,53.025,74.859Z" transform="translate(-52.357 -67.036)" fill="#ffd83d"/>
      </g>
      <path id="Path_74600" data-name="Path 74600" d="M161.1,96.3a26.633,26.633,0,0,1,5.634,2.292l.113.065a11.939,11.939,0,0,1,.065,3.713,11.1,11.1,0,0,1-2.357-1.614A9.646,9.646,0,0,1,161.1,96.3" transform="translate(-135.093 -80.754)" fill="#ff6f03"/>
    </g>
  </g>
</svg>
