<svg xmlns="http://www.w3.org/2000/svg" width="27.649" height="38.624" viewBox="0 0 27.649 38.624">
  <path id="tezos" d="M49.841,36.195c-.4-7.093-9.324-10.317-10.178-10.649-.035-.017-.035-.052-.017-.087l9.2-9.237v-.993a.305.305,0,0,0-.3-.3H31.594V7.7L25.337,9.007v.941h.349a1.5,1.5,0,0,1,1.534,1.534v3.433H22.374a.187.187,0,0,0-.174.174v2.178h5.037V29.1c0,3.712,2.388,6.292,6.57,5.943a5.2,5.2,0,0,0,2.405-.871,1.1,1.1,0,0,0,.505-.924V32.082a4.581,4.581,0,0,1-2.51.854c-2.649,0-2.6-3.364-2.6-3.364v-12.3h12.2l-8.784,8.853c-.017,1.168-.035,2.074-.035,2.091a.046.046,0,0,0,.052.052c8.052,1.359,10.23,6.57,10.23,8.087,0,0,.871,7.372-6.5,7.877,0,0-4.828.209-5.682-1.725a.127.127,0,0,1,.07-.174A2.182,2.182,0,0,0,34.5,40.29a2.461,2.461,0,0,0-2.7-2.6,2.661,2.661,0,0,0-2.7,2.6s-.7,6.2,9.655,6.03C50.573,46.111,49.841,36.195,49.841,36.195Z" transform="translate(-22.2 -7.7)" fill="#0d61ff"/>
</svg>
