<svg xmlns="http://www.w3.org/2000/svg" width="41.67" height="41.157" viewBox="0 0 41.67 41.157">
  <g id="Group_105585" data-name="Group 105585" transform="translate(-7506.267 -12052.641)">
    <g id="Group_104297" data-name="Group 104297" transform="translate(7506.267 12052.641)">
      <ellipse id="Ellipse_539" data-name="Ellipse 539" cx="20.341" cy="20.578" rx="20.341" ry="20.578" transform="translate(0.445)" fill="#5e464d"/>
      <path id="Path_74646" data-name="Path 74646" d="M14.389,78.132c.832.284,3.627,1.193,3.745.3.064-.488-1.41-.987-3.407-2.045A32.034,32.034,0,0,1,7.021,70.7a17.693,17.693,0,0,1-5.3-12.3A17.51,17.51,0,0,1,7.986,43.89,20.526,20.526,0,0,0,.008,59.635a19.193,19.193,0,0,0,3.506,11.75A13.4,13.4,0,0,0,6.066,73.9a31.957,31.957,0,0,0,8.323,4.231" transform="translate(0 -39.307)" fill="#fff"/>
      <path id="Path_74647" data-name="Path 74647" d="M124.582,24.964c-1.261-5.931-5.182-10.084-10.426-13.017,4.019,2.855,9.661,8.925,6.326,14.28-2.821,4.289-9.671,3.449-13.428,1.41-4.457-2.418-10.033-7.857-4.533-13.174,3.566-3.441,14.909.417,12.912,5.561-1.164,2.992-5.7,2.327-7.737.864-1.5-1.08-2.768-2.935-2.1-4.851.214-.614.183-1.567-.685-.866a3.447,3.447,0,0,0-1.086,2.192c-.949,6.707,11,11.907,14.546,5.418,1.839-3.369-1.142-8.26-4.9-10.263a16.6,16.6,0,0,0-9.354-2.315c-5.754.4-10.581,4.009-11.188,9.888-.6,5.843,3.3,11.1,7.9,14.246,4.835,3.3,11.335,5.482,17.282,3.512,5.331-1.767,7.533-7.886,6.461-12.88" transform="translate(-83.176 -9.102)" fill="#fff"/>
      <path id="Path_74648" data-name="Path 74648" d="M147.438,28.953c.572-3.844-2.9-6.483-6.113-7.682-3.784-1.41-8.782-.794-11.538,2.339-2.015,2.3-1.884,5.641-.844,8.345a14.279,14.279,0,0,0,9.25,8.311,16.366,16.366,0,0,0,9.457.345c4.338-1.4,5.75-5.919,4.853-10.064a11.9,11.9,0,0,0-.878-2.595c-.548-1.15-2.226-3.479.087-.643a10.012,10.012,0,0,1,.669.989,11.122,11.122,0,0,1,1.126,2.5c1.261,3.868.272,8.381-3.224,10.716-2.682,1.787-6.091,2-9.2,1.553a17.4,17.4,0,0,1-10.833-5.861c-2.494-2.956-4.2-7.2-3.171-11.081a8.61,8.61,0,0,1,5.816-5.843,12.98,12.98,0,0,1,10.477,1.231,9.36,9.36,0,0,1,3.828,3.85,5.712,5.712,0,0,1,.574,2.4,4.981,4.981,0,0,1-.079,1.007c-.022.121-.278.461-.242.181" transform="translate(-113.535 -17.634)" fill="#3fe0c5"/>
    </g>
  </g>
</svg>
