<svg xmlns="http://www.w3.org/2000/svg" width="47.249" height="33.195" viewBox="0 0 47.249 33.195">
  <g id="Group_105588" data-name="Group 105588" transform="translate(-8438.974 -12038.777)">
    <g id="use104" transform="translate(8438.974 12043.217)">
      <path id="t" d="M-8.746,21.38,12.888,8.447a1.415,1.415,0,0,1,1.426,0L35.762,20.836l.4-.257,1.078-.312V23.39c-.076-.035-.151-.076-.227-.111a1.389,1.389,0,0,1-.489.464L14.017,36.817a1.415,1.415,0,0,1-1.426,0L-9.285,24.171a1.421,1.421,0,0,1-.705-1.365V20.7Z" transform="translate(9.996 -8.254)" fill="#ffae47"/>
    </g>
    <path id="path106" d="M14.319-4.676,36.528,8.151a1.428,1.428,0,0,1,0,2.469L14.022,23.695a1.415,1.415,0,0,1-1.426,0L-9.281,11.049a1.432,1.432,0,0,1-.71-1.234,1.432,1.432,0,0,1,.71-1.234L12.893-4.676A1.415,1.415,0,0,1,14.319-4.676Z" transform="translate(8448.966 12043.646)" fill="#fcc062"/>
    <g id="g112" transform="translate(8464.761 12054.13)">
      <path id="path108" d="M153.758,89.529v.01a.684.684,0,0,1-.343.595l-4.177,2.413a.761.761,0,0,1-.146.065l-.549.317a.674.674,0,0,1-.675,0l-4.882-2.821a.683.683,0,0,1,0-1.179l4.877-2.826a.674.674,0,0,1,.675,0l4.877,2.826a.689.689,0,0,1,.343.6Z" transform="translate(-142.648 -86.012)" fill="#da7d17"/>
      <path id="path110" d="M150.716,99.861a.324.324,0,0,0,.317,0l4.378-2.544.464-.277-4.842-2.821a.314.314,0,0,0-.312,0l-4.852,2.791.474.307Z" transform="translate(-145.325 -92.798)" fill="#f7931e"/>
    </g>
    <g id="g118" transform="translate(8448.881 12054.21)">
      <path id="path114" d="M59.747,90.011v.01a.684.684,0,0,1-.343.595l-4.177,2.413a.762.762,0,0,1-.146.066l-.549.317a.674.674,0,0,1-.675,0l-4.877-2.826a.683.683,0,0,1,0-1.179l4.877-2.826a.674.674,0,0,1,.675,0l4.877,2.826a.7.7,0,0,1,.338.6Z" transform="translate(-48.643 -86.49)" fill="#da7d17"/>
      <path id="path116" d="M56.706,100.368a.324.324,0,0,0,.317,0L61.4,97.824l.464-.277-4.842-2.821a.314.314,0,0,0-.312,0l-4.847,2.791.474.307,4.368,2.544Z" transform="translate(-51.32 -93.299)" fill="#f7931e"/>
    </g>
    <g id="g124" transform="translate(8456.761 12058.734)">
      <path id="path120" d="M106.392,116.793v.01a.684.684,0,0,1-.343.595l-4.177,2.413a.762.762,0,0,1-.146.065l-.549.317a.674.674,0,0,1-.675,0l-4.877-2.826a.683.683,0,0,1,0-1.179l4.877-2.826a.674.674,0,0,1,.675,0l4.877,2.826a.709.709,0,0,1,.338.6Z" transform="translate(-95.288 -113.272)" fill="#da7d17"/>
      <path id="path122" d="M103.35,127.15a.324.324,0,0,0,.317,0l4.378-2.544.464-.277-4.842-2.821a.314.314,0,0,0-.312,0L98.509,124.3l.474.307Z" transform="translate(-97.965 -120.081)" fill="#f7931e"/>
    </g>
    <g id="g133" transform="translate(8438.975 12038.778)" opacity="0.619" style="mix-blend-mode: multiply;isolation: isolate">
      <g id="use129" transform="translate(0 0)">
        <path id="u_1_" d="M-8.026,11.795c-.076-.06-.317-.2-.564-.348a3.983,3.983,0,0,1-1.1-.771,1.133,1.133,0,0,1-.3-.857,1.432,1.432,0,0,1,.71-1.234L12.3-4.313l.035-.02.015-.01.539-.322.035-.02a2.028,2.028,0,0,1,.307-.121,1.434,1.434,0,0,1,.685-.015,2.232,2.232,0,0,1,.4.156l.212.116c.121.065.247.146.388.232Q35.112,7.268,36.608,8.223a1.4,1.4,0,0,1,.428,1.935,1.471,1.471,0,0,1-.474.458l-1.915,1.119L32.92,13.246c-1.773-.524-2.947-.61-3.522-.247-.2.126-.564-.106-.877-.3s-1.038.408-1.386.705a.638.638,0,0,0-.207.539.757.757,0,0,1-.408.7c-2.358-.635-3.9-.418-5.043.166-.509.262-.942.494-1.3.69a.248.248,0,0,0-.1.333.216.216,0,0,0,.071.081l.161.121a.4.4,0,0,1,.081.559.41.41,0,0,1-.1.091l-.262.176c-.786-.433-1.194-.665-1.224-.705a3.252,3.252,0,0,0-.322.116,1.3,1.3,0,0,1-.131.04,2.045,2.045,0,0,1-1.683-.227.8.8,0,0,0-1.189.126c-.146.121-.121.811-.106,1.134,0,.02.005.237,0,.257a3.126,3.126,0,0,1-.408.322,1.62,1.62,0,0,1-.907.307,1.881,1.881,0,0,1-1.26-.519A.906.906,0,0,1,12.339,17c.081-.927-.232-1.2-.932-.841-.776.4-.967.731-1.794.333q-.824-.4-2.993,1.119l-1.1.685a2.575,2.575,0,0,1-2.776-.04.376.376,0,0,0-.06-.035c-.559-.3-.741,1.466-.766,1.784a7.652,7.652,0,0,0,.1,1.935,2.826,2.826,0,0,0,.358.851c.312.816-.166,1.179-.589,1.154S1,23.484,1.239,22.788a6.268,6.268,0,0,0,.312-.851A4.018,4.018,0,0,0,1.683,20C1.436,18.788,1.038,17.09.111,16.5c-1.26-.811-2.655-1.476-3.214-.786-.181.222-.368.312-.549.156s-.232-.3-.574-1.018a4.945,4.945,0,0,0-.393-.67,4.8,4.8,0,0,0-2.035-1.607c-.458-.257-.917-.514-1.37-.776Z" transform="translate(9.991 4.856)" fill="#623400"/>
      </g>
      <g id="use131" transform="translate(0 0)">
        <path id="u_2_" d="M-8.026,11.795c-.076-.06-.317-.2-.564-.348a3.983,3.983,0,0,1-1.1-.771,1.133,1.133,0,0,1-.3-.857,1.432,1.432,0,0,1,.71-1.234L12.3-4.313l.035-.02.015-.01.539-.322.035-.02a2.028,2.028,0,0,1,.307-.121,1.434,1.434,0,0,1,.685-.015,2.232,2.232,0,0,1,.4.156l.212.116c.121.065.247.146.388.232Q35.112,7.268,36.608,8.223a1.4,1.4,0,0,1,.428,1.935,1.471,1.471,0,0,1-.474.458l-1.915,1.119L32.92,13.246c-1.773-.524-2.947-.61-3.522-.247-.2.126-.564-.106-.877-.3s-1.038.408-1.386.705a.638.638,0,0,0-.207.539.757.757,0,0,1-.408.7c-2.358-.635-3.9-.418-5.043.166-.509.262-.942.494-1.3.69a.248.248,0,0,0-.1.333.216.216,0,0,0,.071.081l.161.121a.4.4,0,0,1,.081.559.41.41,0,0,1-.1.091l-.262.176c-.786-.433-1.194-.665-1.224-.705a3.252,3.252,0,0,0-.322.116,1.3,1.3,0,0,1-.131.04,2.045,2.045,0,0,1-1.683-.227.8.8,0,0,0-1.189.126c-.146.121-.121.811-.106,1.134,0,.02.005.237,0,.257a3.126,3.126,0,0,1-.408.322,1.62,1.62,0,0,1-.907.307,1.881,1.881,0,0,1-1.26-.519A.906.906,0,0,1,12.339,17c.081-.927-.232-1.2-.932-.841-.776.4-.967.731-1.794.333q-.824-.4-2.993,1.119l-1.1.685a2.575,2.575,0,0,1-2.776-.04.376.376,0,0,0-.06-.035c-.559-.3-.741,1.466-.766,1.784a7.652,7.652,0,0,0,.1,1.935,2.826,2.826,0,0,0,.358.851c.312.816-.166,1.179-.589,1.154S1,23.484,1.239,22.788a6.268,6.268,0,0,0,.312-.851A4.018,4.018,0,0,0,1.683,20C1.436,18.788,1.038,17.09.111,16.5c-1.26-.811-2.655-1.476-3.214-.786-.181.222-.368.312-.549.156s-.232-.3-.574-1.018a4.945,4.945,0,0,0-.393-.67,4.8,4.8,0,0,0-2.035-1.607c-.458-.257-.917-.514-1.37-.776Z" transform="translate(9.991 4.856)" fill="#623400"/>
      </g>
    </g>
    <g id="g147" transform="translate(8456.965 12040.508)">
      <g id="g139" transform="translate(0 0)">
        <g id="use135" transform="translate(0)">
          <path id="z" d="M1.059-1.285v.01A.684.684,0,0,1,.716-.68L-3.461,1.733a.761.761,0,0,1-.146.065l-.549.317a.674.674,0,0,1-.675,0L-9.713-.706a.688.688,0,0,1-.338-.589.683.683,0,0,1,.338-.589l4.877-2.826a.674.674,0,0,1,.675,0L.716-1.884a.7.7,0,0,1,.343.6Z" transform="translate(10.051 4.802)" fill="#673f21"/>
        </g>
        <g id="use137" transform="translate(0)">
          <path id="z_1_" d="M1.059-1.285v.01A.684.684,0,0,1,.716-.68L-3.461,1.733a.761.761,0,0,1-.146.065l-.549.317a.674.674,0,0,1-.675,0L-9.713-.706a.688.688,0,0,1-.338-.589.683.683,0,0,1,.338-.589l4.877-2.826a.674.674,0,0,1,.675,0L.716-1.884a.7.7,0,0,1,.343.6Z" transform="translate(10.051 4.802)" fill="#673f21"/>
        </g>
      </g>
      <g id="g145" transform="translate(0.549 1.379)">
        <g id="use141" transform="translate(0)">
          <path id="C" d="M-1.958,9.047a.324.324,0,0,0,.317,0L2.738,6.5,3.2,6.226-1.641,3.4a.314.314,0,0,0-.312,0L-6.8,6.2l.474.307Z" transform="translate(6.8 -3.363)" fill="#704525"/>
        </g>
        <g id="use143" transform="translate(0)">
          <path id="C_1_" d="M-1.958,9.047a.324.324,0,0,0,.317,0L2.738,6.5,3.2,6.226-1.641,3.4a.314.314,0,0,0-.312,0L-6.8,6.2l.474.307Z" transform="translate(6.8 -3.363)" fill="#704525"/>
        </g>
      </g>
    </g>
    <g id="g161" transform="translate(8464.848 12045.071)">
      <g id="g153" transform="translate(0 0)">
        <g id="use149" transform="translate(0 0)">
          <path id="E" d="M1.024-1.34v.01a.684.684,0,0,1-.343.595L-3.5,1.678a.761.761,0,0,1-.146.065l-.549.317a.674.674,0,0,1-.675,0L-9.743-.765a.688.688,0,0,1-.338-.589.683.683,0,0,1,.338-.589l4.877-2.826a.674.674,0,0,1,.675,0L.686-1.944a.709.709,0,0,1,.338.6Z" transform="translate(10.081 4.861)" fill="#673f21"/>
        </g>
        <g id="use151" transform="translate(0 0)">
          <path id="E_1_" d="M1.024-1.34v.01a.684.684,0,0,1-.343.595L-3.5,1.678a.761.761,0,0,1-.146.065l-.549.317a.674.674,0,0,1-.675,0L-9.743-.765a.688.688,0,0,1-.338-.589.683.683,0,0,1,.338-.589l4.877-2.826a.674.674,0,0,1,.675,0L.686-1.944a.709.709,0,0,1,.338.6Z" transform="translate(10.081 4.861)" fill="#673f21"/>
        </g>
      </g>
      <g id="g159" transform="translate(0.544 1.384)">
        <g id="use155" transform="translate(0 0)">
          <path id="G" d="M-2.018,9.017a.324.324,0,0,0,.317,0L2.678,6.473,3.142,6.2-1.7,3.374a.314.314,0,0,0-.312,0L-6.86,6.166l.474.307Z" transform="translate(6.86 -3.333)" fill="#704525"/>
        </g>
        <g id="use157" transform="translate(0 0)">
          <path id="G_1_" d="M-2.018,9.017a.324.324,0,0,0,.317,0L2.678,6.473,3.142,6.2-1.7,3.374a.314.314,0,0,0-.312,0L-6.86,6.166l.474.307Z" transform="translate(6.86 -3.333)" fill="#704525"/>
        </g>
      </g>
    </g>
    <g id="g175" transform="translate(8456.923 12049.644)">
      <g id="g167" transform="translate(0 0)">
        <g id="use163" transform="translate(0 0)">
          <path id="I" d="M1.059-1.34v.01a.684.684,0,0,1-.343.595L-3.461,1.678a.761.761,0,0,1-.146.065l-.549.317a.674.674,0,0,1-.675,0L-9.713-.765a.688.688,0,0,1-.338-.589.683.683,0,0,1,.338-.589l4.877-2.826a.674.674,0,0,1,.675,0L.716-1.944a.7.7,0,0,1,.343.6Z" transform="translate(10.051 4.861)" fill="#673f21"/>
        </g>
        <g id="use165" transform="translate(0 0)">
          <path id="I_1_" d="M1.059-1.34v.01a.684.684,0,0,1-.343.595L-3.461,1.678a.761.761,0,0,1-.146.065l-.549.317a.674.674,0,0,1-.675,0L-9.713-.765a.688.688,0,0,1-.338-.589.683.683,0,0,1,.338-.589l4.877-2.826a.674.674,0,0,1,.675,0L.716-1.944a.7.7,0,0,1,.343.6Z" transform="translate(10.051 4.861)" fill="#673f21"/>
        </g>
      </g>
      <g id="g173" transform="translate(0.549 1.384)">
        <g id="use169" transform="translate(0 0)">
          <path id="K" d="M-1.958,9.012a.324.324,0,0,0,.317,0L2.738,6.468,3.2,6.191-1.641,3.374a.314.314,0,0,0-.312,0L-6.8,6.166l.474.307Z" transform="translate(6.8 -3.333)" fill="#704525"/>
        </g>
        <g id="use171" transform="translate(0 0)">
          <path id="K_1_" d="M-1.958,9.012a.324.324,0,0,0,.317,0L2.738,6.468,3.2,6.191-1.641,3.374a.314.314,0,0,0-.312,0L-6.8,6.166l.474.307Z" transform="translate(6.8 -3.333)" fill="#704525"/>
        </g>
      </g>
    </g>
    <g id="g189" transform="translate(8464.764 12054.128)">
      <g id="g181" transform="translate(0 0)">
        <g id="use177" transform="translate(0 0)">
          <path id="M" d="M1.024-1.369v.01a.684.684,0,0,1-.343.595L-3.5,1.649a.761.761,0,0,1-.146.065l-.549.317a.674.674,0,0,1-.675,0L-9.743-.795a.688.688,0,0,1-.338-.589.683.683,0,0,1,.338-.589L-4.866-4.8a.674.674,0,0,1,.675,0L.686-1.974a.7.7,0,0,1,.338.6Z" transform="translate(10.081 4.891)" fill="#673f21"/>
        </g>
        <g id="use179" transform="translate(0 0)">
          <path id="M_1_" d="M1.024-1.369v.01a.684.684,0,0,1-.343.595L-3.5,1.649a.761.761,0,0,1-.146.065l-.549.317a.674.674,0,0,1-.675,0L-9.743-.795a.688.688,0,0,1-.338-.589.683.683,0,0,1,.338-.589L-4.866-4.8a.674.674,0,0,1,.675,0L.686-1.974a.7.7,0,0,1,.338.6Z" transform="translate(10.081 4.891)" fill="#673f21"/>
        </g>
      </g>
      <g id="g187" transform="translate(0.544 1.379)">
        <g id="use183" transform="translate(0 0)">
          <path id="O" d="M-2.018,8.958a.324.324,0,0,0,.317,0L2.678,6.413l.464-.277L-1.7,3.315a.314.314,0,0,0-.312,0l-4.847,2.8.474.307Z" transform="translate(6.86 -3.273)" fill="#704525"/>
        </g>
        <g id="use185" transform="translate(0 0)">
          <path id="O_1_" d="M-2.018,8.958a.324.324,0,0,0,.317,0L2.678,6.413l.464-.277L-1.7,3.315a.314.314,0,0,0-.312,0l-4.847,2.8.474.307Z" transform="translate(6.86 -3.273)" fill="#704525"/>
        </g>
      </g>
    </g>
    <g id="g203" transform="translate(8448.878 12054.217)">
      <g id="g195" transform="translate(0 0)">
        <g id="use191" transform="translate(0 0)">
          <path id="Q" d="M1.113-1.345v.01A.684.684,0,0,1,.771-.74L-3.406,1.673a.761.761,0,0,1-.146.065l-.549.317a.674.674,0,0,1-.675,0L-9.653-.77a.688.688,0,0,1-.338-.589.683.683,0,0,1,.338-.589l4.877-2.821a.674.674,0,0,1,.675,0L.776-1.944a.672.672,0,0,1,.338.6Z" transform="translate(9.991 4.861)" fill="#673f21"/>
        </g>
        <g id="use193" transform="translate(0 0)">
          <path id="Q_1_" d="M1.113-1.345v.01A.684.684,0,0,1,.771-.74L-3.406,1.673a.761.761,0,0,1-.146.065l-.549.317a.674.674,0,0,1-.675,0L-9.653-.77a.688.688,0,0,1-.338-.589.683.683,0,0,1,.338-.589l4.877-2.821a.674.674,0,0,1,.675,0L.776-1.944a.672.672,0,0,1,.338.6Z" transform="translate(9.991 4.861)" fill="#673f21"/>
        </g>
      </g>
      <g id="g201" transform="translate(0.544 1.374)">
        <g id="use197" transform="translate(0 0)">
          <path id="S" d="M-1.928,8.958a.324.324,0,0,0,.317,0L2.767,6.413l.464-.277L-1.611,3.315a.314.314,0,0,0-.312,0L-6.77,6.106l.474.307Z" transform="translate(6.77 -3.273)" fill="#704525"/>
        </g>
        <g id="use199" transform="translate(0 0)">
          <path id="S_1_" d="M-1.928,8.958a.324.324,0,0,0,.317,0L2.767,6.413l.464-.277L-1.611,3.315a.314.314,0,0,0-.312,0L-6.77,6.106l.474.307Z" transform="translate(6.77 -3.273)" fill="#704525"/>
        </g>
      </g>
    </g>
    <g id="g217" transform="translate(8456.755 12058.737)">
      <g id="g209" transform="translate(0 0)">
        <g id="use205" transform="translate(0 0)">
          <path id="U" d="M1.059-1.4v.01a.684.684,0,0,1-.343.595L-3.461,1.619a.761.761,0,0,1-.146.065L-4.156,2a.674.674,0,0,1-.675,0L-9.713-.825a.688.688,0,0,1-.338-.589A.683.683,0,0,1-9.713-2L-4.836-4.83a.674.674,0,0,1,.675,0L.716-2a.7.7,0,0,1,.343.6Z" transform="translate(10.051 4.921)" fill="#673f21"/>
        </g>
        <g id="use207" transform="translate(0 0)">
          <path id="U_1_2" data-name="U_1_" d="M1.059-1.4v.01a.684.684,0,0,1-.343.595L-3.461,1.619a.761.761,0,0,1-.146.065L-4.156,2a.674.674,0,0,1-.675,0L-9.713-.825a.688.688,0,0,1-.338-.589A.683.683,0,0,1-9.713-2L-4.836-4.83a.674.674,0,0,1,.675,0L.716-2a.7.7,0,0,1,.343.6Z" transform="translate(10.051 4.921)" fill="#673f21"/>
        </g>
      </g>
      <g id="g215" transform="translate(0.549 1.379)">
        <g id="use211" transform="translate(0 0)">
          <path id="W" d="M-1.958,8.928a.324.324,0,0,0,.317,0L2.738,6.383,3.2,6.106-1.641,3.285a.314.314,0,0,0-.312,0L-6.8,6.076l.474.307Z" transform="translate(6.8 -3.243)" fill="#704525"/>
        </g>
        <g id="use213" transform="translate(0 0)">
          <path id="W_1_" d="M-1.958,8.928a.324.324,0,0,0,.317,0L2.738,6.383,3.2,6.106-1.641,3.285a.314.314,0,0,0-.312,0L-6.8,6.076l.474.307Z" transform="translate(6.8 -3.243)" fill="#704525"/>
        </g>
      </g>
    </g>
    <g id="g231" transform="translate(8472.642 12049.603)">
      <g id="g223" transform="translate(0 0)">
        <g id="use219" transform="translate(0 0)">
          <path id="Y" d="M.969-1.34v.01a.684.684,0,0,1-.343.595L-3.55,1.678a.761.761,0,0,1-.146.065l-.549.317a.674.674,0,0,1-.675,0L-9.8-.765a.688.688,0,0,1-.338-.589A.683.683,0,0,1-9.8-1.944l4.877-2.826a.674.674,0,0,1,.675,0L.627-1.944a.7.7,0,0,1,.343.6Z" transform="translate(10.14 4.861)" fill="#673f21"/>
        </g>
        <g id="use221" transform="translate(0 0)">
          <path id="Y_1_" d="M.969-1.34v.01a.684.684,0,0,1-.343.595L-3.55,1.678a.761.761,0,0,1-.146.065l-.549.317a.674.674,0,0,1-.675,0L-9.8-.765a.688.688,0,0,1-.338-.589A.683.683,0,0,1-9.8-1.944l4.877-2.826a.674.674,0,0,1,.675,0L.627-1.944a.7.7,0,0,1,.343.6Z" transform="translate(10.14 4.861)" fill="#673f21"/>
        </g>
      </g>
      <g id="g229" transform="translate(0.549 1.384)">
        <g id="use225" transform="translate(0 0)">
          <path id="aa" d="M-2.048,9.012a.324.324,0,0,0,.317,0L2.648,6.468l.464-.277L-1.73,3.374a.314.314,0,0,0-.312,0L-6.889,6.166l.474.307Z" transform="translate(6.889 -3.333)" fill="#704525"/>
        </g>
        <g id="use227" transform="translate(0 0)">
          <path id="aa_1_" d="M-2.048,9.012a.324.324,0,0,0,.317,0L2.648,6.468l.464-.277L-1.73,3.374a.314.314,0,0,0-.312,0L-6.889,6.166l.474.307Z" transform="translate(6.889 -3.333)" fill="#704525"/>
        </g>
      </g>
    </g>
    <g id="g245" transform="translate(8449.088 12045.08)">
      <g id="g237" transform="translate(0 0)">
        <g id="use233" transform="translate(0)">
          <path id="ac" d="M1.113-1.29v.01a.684.684,0,0,1-.343.595L-3.406,1.728a.761.761,0,0,1-.146.065l-.549.317a.674.674,0,0,1-.675,0L-9.653-.716a.688.688,0,0,1-.338-.589.683.683,0,0,1,.338-.589l4.877-2.816a.674.674,0,0,1,.675,0L.776-1.884a.68.68,0,0,1,.338.595Z" transform="translate(9.991 4.802)" fill="#673f21"/>
        </g>
        <g id="use235" transform="translate(0)">
          <path id="ac_1_" d="M1.113-1.29v.01a.684.684,0,0,1-.343.595L-3.406,1.728a.761.761,0,0,1-.146.065l-.549.317a.674.674,0,0,1-.675,0L-9.653-.716a.688.688,0,0,1-.338-.589.683.683,0,0,1,.338-.589l4.877-2.816a.674.674,0,0,1,.675,0L.776-1.884a.68.68,0,0,1,.338.595Z" transform="translate(9.991 4.802)" fill="#673f21"/>
        </g>
      </g>
      <g id="g243" transform="translate(0.544 1.374)">
        <g id="use239" transform="translate(0 0)">
          <path id="ae" d="M-1.928,9.017a.324.324,0,0,0,.317,0L2.767,6.473,3.231,6.2-1.611,3.374a.314.314,0,0,0-.312,0L-6.77,6.166l.474.307Z" transform="translate(6.77 -3.333)" fill="#704525"/>
        </g>
        <g id="use241" transform="translate(0 0)">
          <path id="ae_1_" d="M-1.928,9.017a.324.324,0,0,0,.317,0L2.767,6.473,3.231,6.2-1.611,3.374a.314.314,0,0,0-.312,0L-6.77,6.166l.474.307Z" transform="translate(6.77 -3.333)" fill="#704525"/>
        </g>
      </g>
    </g>
    <g id="g259" transform="translate(8441.122 12049.77)">
      <g id="g251" transform="translate(0 0)">
        <g id="use247" transform="translate(0 0)">
          <path id="ag" d="M1.148-1.34v.01a.684.684,0,0,1-.343.595L-3.371,1.678a.761.761,0,0,1-.146.065l-.549.317a.674.674,0,0,1-.675,0L-9.624-.765a.688.688,0,0,1-.338-.589.683.683,0,0,1,.338-.589l4.877-2.826a.674.674,0,0,1,.675,0L.806-1.944a.691.691,0,0,1,.343.6Z" transform="translate(9.961 4.861)" fill="#673f21"/>
        </g>
        <g id="use249" transform="translate(0 0)">
          <path id="ag_1_" d="M1.148-1.34v.01a.684.684,0,0,1-.343.595L-3.371,1.678a.761.761,0,0,1-.146.065l-.549.317a.674.674,0,0,1-.675,0L-9.624-.765a.688.688,0,0,1-.338-.589.683.683,0,0,1,.338-.589l4.877-2.826a.674.674,0,0,1,.675,0L.806-1.944a.691.691,0,0,1,.343.6Z" transform="translate(9.961 4.861)" fill="#673f21"/>
        </g>
      </g>
      <g id="g257" transform="translate(0.549 1.384)">
        <g id="use253" transform="translate(0 0)">
          <path id="ai" d="M-1.869,9.012a.324.324,0,0,0,.317,0L2.827,6.468,3.291,6.2-1.551,3.374a.314.314,0,0,0-.312,0L-6.71,6.166l.474.307Z" transform="translate(6.71 -3.333)" fill="#704525"/>
        </g>
        <g id="use255" transform="translate(0 0)">
          <path id="ai_1_" d="M-1.869,9.012a.324.324,0,0,0,.317,0L2.827,6.468,3.291,6.2-1.551,3.374a.314.314,0,0,0-.312,0L-6.71,6.166l.474.307Z" transform="translate(6.71 -3.333)" fill="#704525"/>
        </g>
      </g>
    </g>
  </g>
</svg>
