<svg xmlns="http://www.w3.org/2000/svg" width="44" height="30" fill="none"><g clip-path="url(#a)"><path fill="#27AE60" d="M0 30V20h44v10z"/><path fill="#fff" d="M0 20V10h44v10z"/><path fill="#F39C12" d="M0 10V0h44v10z"/><path fill="#008" d="M22.006 19.373c2.363 0 4.279-1.96 4.279-4.376s-1.916-4.377-4.28-4.377c-2.363 0-4.278 1.96-4.278 4.377s1.915 4.376 4.279 4.376"/><path fill="#fff" d="M22.006 18.826c2.068 0 3.744-1.715 3.744-3.83 0-2.114-1.676-3.828-3.744-3.828s-3.744 1.714-3.744 3.829c0 2.114 1.676 3.829 3.744 3.829"/><path fill="#008" d="M22.003 15.763a.757.757 0 0 0 .749-.766.757.757 0 0 0-.75-.766.757.757 0 0 0-.748.766c0 .423.335.766.749.766M25.695 15.687a.19.19 0 0 0 .21-.165.19.19 0 0 0-.16-.215.19.19 0 0 0-.21.165.19.19 0 0 0 .16.215"/><path fill="#008" d="m22.007 18.826.129-2.297-.129-1.094-.128 1.094zM25.393 16.639a.185.185 0 0 0 .245-.101.194.194 0 0 0-.102-.25.185.185 0 0 0-.244.1.194.194 0 0 0 .101.25M21.039 18.695l.705-2.183.151-1.092-.402 1.022zM24.863 17.479c.083.065.2.05.263-.033a.195.195 0 0 0-.036-.269.184.184 0 0 0-.262.034.195.195 0 0 0 .035.268M20.136 18.312l1.234-1.922.422-1.013-.646.88zM24.134 18.151c.063.084.18.101.263.037a.194.194 0 0 0 .034-.268.185.185 0 0 0-.263-.037.194.194 0 0 0-.034.268M19.356 17.703l1.68-1.529.665-.867-.848.68zM23.262 18.608c.04.098.149.143.245.102a.194.194 0 0 0 .103-.25.185.185 0 0 0-.245-.102.194.194 0 0 0-.103.25M18.76 16.913l2.01-1.039.864-.66-.99.436zM22.306 18.82a.186.186 0 0 0 .21.163.193.193 0 0 0 .164-.215.187.187 0 0 0-.21-.164.193.193 0 0 0-.164.215M18.39 15.988l2.203-.47 1.002-.409-1.067.158zM21.33 18.77a.19.19 0 0 0 .162.215.19.19 0 0 0 .21-.169.19.19 0 0 0-.161-.215.19.19 0 0 0-.21.169M18.259 15.016l2.246.085 1.07-.124-1.07-.099zM20.399 18.462c-.04.099.006.21.101.25a.187.187 0 0 0 .245-.105.193.193 0 0 0-.102-.25.187.187 0 0 0-.245.105M18.388 14.009l2.138.72 1.066.15-1-.41zM19.577 17.917a.195.195 0 0 0 .035.269c.083.065.2.05.263-.033a.195.195 0 0 0-.036-.269.184.184 0 0 0-.262.033M18.762 13.08l1.883 1.264.99.435-.863-.66zM18.92 17.175a.194.194 0 0 0-.034.268c.063.085.18.102.263.038a.194.194 0 0 0 .034-.268.185.185 0 0 0-.263-.038M19.356 12.287l1.5 1.718.847.683-.667-.866zM18.473 16.285a.19.19 0 0 0-.101.25c.04.098.149.145.244.105a.193.193 0 0 0 .101-.25.187.187 0 0 0-.244-.105M20.133 11.68l1.012 2.055.646.884-.424-1.013zM18.27 15.305a.19.19 0 0 0-.162.215.19.19 0 0 0 .21.167.19.19 0 0 0 .162-.214.19.19 0 0 0-.21-.168M21.038 11.296l.456 2.254.401 1.025-.152-1.09zM18.316 14.309a.186.186 0 0 0-.21.161c-.014.104.059.2.161.215a.186.186 0 0 0 .21-.161.19.19 0 0 0-.161-.215M21.995 11.168l-.106 2.296.125 1.095.113-1.094zM18.619 13.355a.185.185 0 0 0-.245.101c-.04.097.006.21.101.25a.185.185 0 0 0 .245-.1.194.194 0 0 0-.101-.25M22.973 11.298l-.705 2.184-.151 1.091.401-1.021zM19.149 12.515a.184.184 0 0 0-.263.033.195.195 0 0 0 .036.268c.082.065.2.05.262-.033a.195.195 0 0 0-.035-.268M23.876 11.681l-1.234 1.922-.422 1.014.646-.88zM19.874 11.843a.185.185 0 0 0-.262-.038.194.194 0 0 0-.035.268c.063.085.18.102.263.038a.194.194 0 0 0 .034-.268M24.652 12.29l-1.68 1.529-.665.867.848-.679zM20.746 11.385a.185.185 0 0 0-.245-.102.194.194 0 0 0-.103.25c.04.097.149.143.244.102a.194.194 0 0 0 .104-.25M25.248 13.081l-2.01 1.038-.864.66.99-.435zM21.702 11.174a.187.187 0 0 0-.21-.164.193.193 0 0 0-.164.215.187.187 0 0 0 .21.164.193.193 0 0 0 .164-.215M25.62 14.005l-2.205.47-1.002.41 1.067-.158zM22.677 11.223a.19.19 0 0 0-.161-.215.19.19 0 0 0-.21.169.19.19 0 0 0 .16.215.19.19 0 0 0 .211-.169M25.746 14.976l-2.247-.082-1.07.124 1.07.097zM23.613 11.53a.193.193 0 0 0-.101-.25.187.187 0 0 0-.245.107c-.04.098.006.21.102.25a.187.187 0 0 0 .244-.106M25.624 15.984l-2.138-.72-1.066-.15 1 .412zM24.43 12.075a.194.194 0 0 0-.034-.269.185.185 0 0 0-.262.037.194.194 0 0 0 .034.268c.082.064.2.048.262-.036M25.245 16.91l-1.882-1.262-.99-.431.862.661zM25.087 12.817a.194.194 0 0 0 .035-.268.184.184 0 0 0-.262-.034.194.194 0 0 0-.035.268c.063.084.18.099.262.034M24.65 17.705l-1.497-1.718-.847-.68.665.867zM25.535 13.708a.193.193 0 0 0 .101-.25.185.185 0 0 0-.244-.103.193.193 0 0 0-.102.25c.04.098.15.143.245.103M23.875 18.313l-1.012-2.056-.646-.88.423 1.013zM25.742 14.687a.19.19 0 0 0 .162-.215.187.187 0 0 0-.21-.164.19.19 0 0 0-.162.215.187.187 0 0 0 .21.164M22.97 18.696l-.456-2.254-.401-1.022.152 1.09z"/></g><defs><clipPath id="a"><path fill="#fff" d="M0 0h44v30H0z"/></clipPath></defs></svg>