<svg xmlns="http://www.w3.org/2000/svg" width="32" height="32" fill="none"><g clip-path="url(#a)"><path fill="#2B2B2B" d="M16 0C7.163 0 0 7.163 0 16s7.163 16 16 16 16-7.163 16-16S24.837 0 16 0m-4.475 22.694H8.406v-9.981h3.119zM9.881 11.463h-.025c-1.131 0-1.862-.763-1.862-1.732C7.994 8.744 8.75 8 9.9 8s1.856.744 1.881 1.731c.006.963-.725 1.732-1.9 1.732M24 22.693h-3.538v-5.162c0-1.35-.55-2.275-1.768-2.275-.931 0-1.45.625-1.688 1.225-.087.213-.075.513-.075.819v5.394h-3.506s.044-9.15 0-9.981h3.506v1.568c.206-.687 1.325-1.662 3.113-1.662 2.218 0 3.956 1.437 3.956 4.525z"/></g><defs><clipPath id="a"><path fill="#fff" d="M0 0h32v32H0z"/></clipPath></defs></svg>