<svg xmlns="http://www.w3.org/2000/svg" width="52" height="52" fill="none"><g clip-path="url(#a)"><path fill="#2B2B2B" d="M47.378 28.187a4.63 4.63 0 0 0-4.228 2.765l-5.375-1.793h-11.05V22.84h11.05l5.375-1.793a4.62 4.62 0 0 0 4.228 2.765 4.62 4.62 0 0 0 4.617-4.617 4.62 4.62 0 0 0-4.617-4.617 4.62 4.62 0 0 0-4.616 4.617q.002.226.024.438l-5.244 1.75H26.724v-6.319h6.678l6.395-5.754c.763.56 1.7.895 2.721.895a4.62 4.62 0 0 0 4.617-4.617A4.62 4.62 0 0 0 42.518.972a4.62 4.62 0 0 0-4.616 4.617c0 1 .325 1.93.87 2.682l-5.925 5.336H26.73V6.562A6.57 6.57 0 0 0 20.169 0a6.57 6.57 0 0 0-6.523 5.837c-.092 0-.184-.005-.282-.005a7.54 7.54 0 0 0-7.532 7.533c0 .495.053.996.155 1.491A13.27 13.27 0 0 0 0 26c0 4.53 2.226 8.655 5.987 11.144a7.4 7.4 0 0 0-.155 1.492 7.54 7.54 0 0 0 7.533 7.532q.144.001.281-.005A6.57 6.57 0 0 0 20.168 52a6.57 6.57 0 0 0 6.561-6.56v-7.047h6.118l5.925 5.336a4.6 4.6 0 0 0-.87 2.682 4.62 4.62 0 0 0 4.616 4.617 4.62 4.62 0 0 0 4.617-4.617 4.62 4.62 0 0 0-4.617-4.617 4.6 4.6 0 0 0-2.72.895l-6.396-5.754h-6.678v-6.318h10.818l5.244 1.75a4 4 0 0 0-.024.437 4.62 4.62 0 0 0 4.616 4.616 4.62 4.62 0 0 0 4.617-4.616 4.62 4.62 0 0 0-4.617-4.617"/></g><defs><clipPath id="a"><path fill="#fff" d="M0 0h52v52H0z"/></clipPath></defs></svg>