<?xml version="1.0" encoding="UTF-8"?>
<svg xmlns="http://www.w3.org/2000/svg" xmlns:xlink="http://www.w3.org/1999/xlink" width="40px" height="40px" viewBox="0 0 40 40" version="1.1">
<g id="surface1">
<path style=" stroke:none;fill-rule:nonzero;fill:rgb(32.156864%,58.039218%,81.176472%);fill-opacity:1;" d="M 26.097656 40.125 L 26.652344 40.125 L 35.699219 36.144531 L 35.855469 35.953125 L 35.855469 4.167969 L 35.699219 3.976562 L 26.652344 0 L 26.09375 0 L 26.09375 40.125 "/>
<path style=" stroke:none;fill-rule:nonzero;fill:rgb(12.156863%,35.686275%,59.607846%);fill-opacity:1;" d="M 14.332031 40.125 L 13.769531 40.125 L 4.738281 36.148438 L 4.554688 35.875 L 4.460938 4.328125 L 4.734375 3.980469 L 13.769531 0 L 14.339844 0 L 14.339844 40.125 "/>
<path style=" stroke:none;fill-rule:nonzero;fill:rgb(17.647059%,44.705883%,72.156864%);fill-opacity:1;" d="M 13.785156 0 L 26.644531 0 L 26.644531 40.125 L 13.785156 40.125 Z M 13.785156 0 "/>
<path style=" stroke:none;fill-rule:nonzero;fill:rgb(10.196079%,27.843139%,43.529412%);fill-opacity:1;" d="M 40.429688 19.164062 L 40.113281 19.105469 L 35.753906 18.746094 L 35.6875 18.777344 L 26.636719 18.457031 L 13.785156 18.457031 L 4.734375 18.777344 L 4.734375 12.695312 L 4.726562 12.695312 L 4.734375 12.679688 L 13.785156 10.828125 L 26.644531 10.828125 L 35.695312 12.675781 L 39.023438 14.234375 L 39.023438 13.234375 L 40.425781 13.097656 L 40.28125 12.847656 L 35.828125 10.042969 L 35.691406 10.082031 L 26.640625 7.617188 L 13.785156 7.617188 L 4.738281 10.085938 L 4.738281 3.980469 L 0.00390625 8.863281 L 0.00390625 13.128906 L 0.0390625 13.105469 L 1.40625 13.246094 L 1.40625 14.265625 L 0.00390625 14.933594 L 0.00390625 19.179688 L 0.0351562 19.179688 L 1.40625 19.195312 L 1.40625 20.976562 L 0.222656 20.988281 L 0.00390625 20.960938 L 0.00390625 25.203125 L 1.40625 25.867188 L 1.40625 26.902344 L 0.0585938 27.039062 L 0.00390625 26.996094 L 0.00390625 31.269531 L 4.734375 36.152344 L 4.734375 30.042969 L 13.785156 32.507812 L 26.644531 32.507812 L 35.726562 30.027344 L 35.84375 30.074219 L 40.238281 27.3125 L 40.429688 27.035156 L 39.027344 26.898438 L 39.027344 25.890625 L 38.839844 25.828125 L 35.835938 27.253906 L 35.726562 27.457031 L 26.644531 29.292969 L 13.785156 29.292969 L 4.738281 27.449219 L 4.738281 21.347656 L 13.789062 21.664062 L 13.789062 21.671875 L 26.644531 21.671875 L 35.695312 21.347656 L 35.902344 21.429688 L 40.128906 21.109375 L 40.425781 20.980469 L 39.023438 20.964844 L 39.023438 19.183594 L 40.425781 19.164062 "/>
<path style=" stroke:none;fill-rule:nonzero;fill:rgb(17.647059%,44.705883%,72.156864%);fill-opacity:1;" d="M 35.695312 30.042969 L 35.695312 36.144531 L 40.429688 31.257812 L 40.429688 27.023438 L 35.722656 30.03125 L 35.695312 30.039062 "/>
<path style=" stroke:none;fill-rule:nonzero;fill:rgb(17.647059%,44.705883%,72.156864%);fill-opacity:1;" d="M 35.695312 27.460938 L 35.722656 27.460938 L 40.425781 25.234375 L 40.425781 20.957031 L 35.691406 21.339844 L 35.691406 27.453125 "/>
<path style=" stroke:none;fill-rule:nonzero;fill:rgb(17.647059%,44.705883%,72.156864%);fill-opacity:1;" d="M 35.722656 12.6875 L 35.695312 12.6875 L 35.695312 18.78125 L 40.429688 19.171875 L 40.429688 14.910156 L 35.722656 12.695312 "/>
<path style=" stroke:none;fill-rule:nonzero;fill:rgb(17.647059%,44.705883%,72.156864%);fill-opacity:1;" d="M 35.722656 10.113281 L 40.425781 13.105469 L 40.425781 8.867188 L 35.691406 3.980469 L 35.691406 10.085938 L 35.71875 10.097656 L 35.71875 10.113281 "/>
</g>
</svg>
