<?xml version="1.0" encoding="UTF-8"?>
<svg xmlns="http://www.w3.org/2000/svg" xmlns:xlink="http://www.w3.org/1999/xlink" width="40px" height="40px" viewBox="0 0 40 40" version="1.1">
<g id="surface1">
<path style=" stroke:none;fill-rule:nonzero;fill:rgb(10.196079%,9.803922%,9.411765%);fill-opacity:1;" d="M 40.214844 20.105469 C 40.214844 31.210938 31.210938 40.214844 20.105469 40.214844 C 9 40.210938 0 31.210938 0 20.105469 C 0 9 9.003906 0 20.105469 0 C 31.210938 0 40.214844 9 40.214844 20.105469 "/>
<path style=" stroke:none;fill-rule:nonzero;fill:rgb(100%,100%,100%);fill-opacity:1;" d="M 20.445312 12.285156 L 25.648438 25.128906 L 17.789062 18.933594 Z M 29.6875 28.082031 L 21.6875 8.824219 C 21.496094 8.304688 21 7.960938 20.445312 7.972656 C 19.886719 7.960938 19.375 8.300781 19.171875 8.824219 L 10.386719 29.949219 L 13.394531 29.949219 L 16.871094 21.238281 L 27.246094 29.621094 C 27.542969 29.917969 27.9375 30.09375 28.355469 30.113281 C 28.742188 30.121094 29.117188 29.976562 29.394531 29.703125 C 29.671875 29.433594 29.828125 29.0625 29.824219 28.675781 C 29.8125 28.472656 29.765625 28.273438 29.6875 28.082031 Z M 29.6875 28.082031 "/>
</g>
</svg>
