<svg xmlns="http://www.w3.org/2000/svg" width="27" height="28" fill="none"><g clip-path="url(#a)"><path fill="#fff" fill-rule="evenodd" d="M11.47.477c.294.306.46.72.46 1.15v3.908c0 .431-.165.845-.46 1.151a1.54 1.54 0 0 1-1.11.477H1.57c-.417 0-.815-.172-1.11-.477A1.66 1.66 0 0 1 0 5.535V1.628C0 1.197.166.783.46.477A1.54 1.54 0 0 1 1.57 0h8.79c.417 0 .816.172 1.11.477m15.07 20.837c.294.306.46.72.46 1.151v3.907c0 .431-.166.845-.46 1.151a1.55 1.55 0 0 1-1.11.477h-8.79c-.417 0-.815-.172-1.11-.477a1.66 1.66 0 0 1-.46-1.15v-3.908c0-.431.165-.845.46-1.151a1.55 1.55 0 0 1 1.11-.477h8.79c.417 0 .815.172 1.11.477m-15.514 5.748 1.884-1.953a1 1 0 0 0 0-1.38l-1.884-1.954a.917.917 0 0 0-1.331 0c-.368.38-.368 1 0 1.38l1.217 1.264-1.217 1.263c-.368.38-.368 1 0 1.38a.917.917 0 0 0 1.331 0M13.891 14l1.217 1.263c.367.38.367 1 0 1.38a.917.917 0 0 1-1.332 0l-1.883-1.953a1 1 0 0 1 0-1.38l1.883-1.954a.917.917 0 0 1 1.332 0c.367.38.367 1 0 1.38zm9.97-5.21c0 2.338-1.828 4.233-4.082 4.233h-3.11c-.52 0-.942.438-.942.977 0 .54.422.977.941.977h3.111c3.294 0 5.965-2.77 5.965-6.186 0-1.641-.628-3.214-1.747-4.375a5.86 5.86 0 0 0-4.218-1.811H13.5c-.52 0-.942.437-.942.976 0 .54.422.977.942.977h6.28c1.082 0 2.12.446 2.885 1.24a4.3 4.3 0 0 1 1.195 2.993M7.22 13.024h2.54c.52 0 .942.438.942.977 0 .54-.422.977-.942.977h-2.54a4 4 0 0 0-2.886 1.24 4.3 4.3 0 0 0-1.195 2.992c0 2.338 1.827 4.233 4.08 4.233.52 0 .943.437.943.977 0 .539-.422.976-.942.976-3.294 0-5.965-2.77-5.965-6.186 0-1.64.628-3.214 1.747-4.374a5.86 5.86 0 0 1 4.218-1.812" clip-rule="evenodd"/></g><defs><clipPath id="a"><path fill="#fff" d="M0 0h27v28H0z"/></clipPath></defs></svg>