<svg xmlns="http://www.w3.org/2000/svg" width="27" height="27" fill="none"><g fill="#fff" fill-rule="evenodd" clip-path="url(#a)" clip-rule="evenodd"><path d="M21.977 8.477a3.453 3.453 0 0 0-3.454-3.454H8.477a3.453 3.453 0 0 0-3.454 3.454v10.046a3.453 3.453 0 0 0 3.454 3.454h10.046a3.453 3.453 0 0 0 3.454-3.454zm-5.965 2.512v5.023a.942.942 0 0 0 1.883 0v-5.023a.942.942 0 0 0-1.883 0m-1.256 5.023v-3.768a2.2 2.2 0 0 0-2.198-2.197h-1.255a2.2 2.2 0 0 0-2.198 2.197v3.768a.942.942 0 0 0 1.884 0v-.942h1.883v.942a.942.942 0 0 0 1.884 0m-3.767-2.826h1.883v-.942a.314.314 0 0 0-.314-.314h-1.255a.314.314 0 0 0-.314.314z"/><path d="M21.036 14.442h5.023a.942.942 0 0 0 0-1.884h-5.024a.942.942 0 0 0 0 1.884M14.442 5.965V.942a.942.942 0 0 0-1.883 0v5.023a.942.942 0 0 0 1.883 0M12.559 21.035v5.023a.942.942 0 0 0 1.883 0v-5.023a.942.942 0 0 0-1.883 0M5.965 12.558H.942a.942.942 0 0 0 0 1.884h5.023a.942.942 0 0 0 0-1.884M21.036 10.674h3.14a.942.942 0 0 0 0-1.883h-3.14a.942.942 0 0 0 0 1.883M10.675 5.965v-3.14a.942.942 0 0 0-1.884 0v3.14a.942.942 0 0 0 1.884 0M8.791 21.035v3.14a.942.942 0 0 0 1.884 0v-3.14a.942.942 0 0 0-1.884 0M5.964 8.79h-3.14a.942.942 0 0 0 0 1.884h3.14a.942.942 0 0 0 0-1.883M21.036 18.21h3.14a.942.942 0 0 0 0-1.884h-3.14a.942.942 0 0 0 0 1.883M18.21 5.965v-3.14a.942.942 0 0 0-1.884 0v3.14a.942.942 0 0 0 1.884 0M16.326 21.035v3.14a.942.942 0 0 0 1.884 0v-3.14a.942.942 0 0 0-1.884 0M5.964 16.326h-3.14a.942.942 0 0 0 0 1.883h3.14a.942.942 0 0 0 0-1.883"/></g><defs><clipPath id="a"><path fill="#fff" d="M0 0h27v27H0z"/></clipPath></defs></svg>