<?xml version="1.0" encoding="UTF-8"?>
<svg xmlns="http://www.w3.org/2000/svg" xmlns:xlink="http://www.w3.org/1999/xlink" width="40px" height="40px" viewBox="0 0 40 40" version="1.1">
<g id="surface1">
<path style=" stroke:none;fill-rule:nonzero;fill:rgb(0%,47.058824%,84.313726%);fill-opacity:1;" d="M 27.035156 0 L 13.386719 0 L 6.566406 10.296875 L 13.386719 20.660156 L 27.035156 20.660156 L 33.804688 10.296875 Z M 27.035156 0 "/>
<path style=" stroke:none;fill-rule:nonzero;fill:rgb(100%,100%,100%);fill-opacity:1;" d="M 18.269531 11.558594 C 17.453125 11.558594 16.890625 12.203125 16.890625 13.355469 C 16.890625 14.484375 17.402344 15.148438 18.191406 15.148438 C 19.0625 15.148438 19.574219 14.503906 19.574219 13.355469 C 19.597656 12.203125 19.035156 11.558594 18.269531 11.558594 Z M 18.21875 14.703125 C 17.707031 14.703125 17.402344 14.214844 17.402344 13.355469 C 17.402344 12.421875 17.785156 11.9375 18.21875 11.9375 C 18.730469 11.9375 19.035156 12.425781 19.035156 13.289062 C 19.035156 14.148438 18.652344 14.703125 18.21875 14.703125 Z M 18.21875 14.703125 "/>
<path style=" stroke:none;fill-rule:nonzero;fill:rgb(100%,100%,100%);fill-opacity:1;" d="M 21.71875 9.988281 C 22.585938 9.988281 23.097656 9.34375 23.097656 8.195312 C 23.097656 7.109375 22.585938 6.464844 21.796875 6.464844 C 20.980469 6.464844 20.414062 7.109375 20.414062 8.261719 C 20.414062 9.324219 20.980469 9.988281 21.71875 9.988281 Z M 20.980469 8.195312 C 20.980469 7.261719 21.363281 6.777344 21.796875 6.777344 C 22.308594 6.777344 22.613281 7.265625 22.613281 8.128906 C 22.613281 8.988281 22.308594 9.542969 21.796875 9.542969 C 21.289062 9.542969 20.980469 9.125 20.980469 8.195312 Z M 20.980469 8.195312 "/>
<path style=" stroke:none;fill-rule:nonzero;fill:rgb(100%,100%,100%);fill-opacity:1;" d="M 18.910156 6.355469 L 18.394531 6.355469 L 17.09375 6.953125 L 17.351562 7.375 L 18.269531 6.886719 L 18.269531 9.5 L 17.222656 9.5 L 17.222656 9.988281 L 19.777344 9.988281 L 19.777344 9.5 L 18.910156 9.5 Z M 18.910156 6.355469 "/>
<path style=" stroke:none;fill-rule:nonzero;fill:rgb(100%,100%,100%);fill-opacity:1;" d="M 22.152344 14.4375 L 22.152344 11.292969 L 21.667969 11.292969 L 20.339844 11.828125 L 20.519531 12.273438 L 21.539062 11.78125 L 21.539062 14.441406 L 20.464844 14.441406 L 20.464844 14.863281 L 23.097656 14.863281 L 23.097656 14.441406 Z M 22.152344 14.4375 "/>
<path style=" stroke:none;fill-rule:nonzero;fill:rgb(100%,100%,100%);fill-opacity:1;" d="M 24.171875 4.496094 L 15.023438 4.496094 C 14.019531 4.511719 13.203125 5.199219 13.160156 6.066406 L 13.160156 15.234375 C 13.164062 15.660156 13.363281 16.0625 13.714844 16.359375 C 14.066406 16.652344 14.535156 16.8125 15.023438 16.808594 L 25.167969 16.808594 C 26.171875 16.792969 26.988281 16.101562 27.035156 15.234375 L 27.035156 6.953125 Z M 26.164062 15.414062 C 26.160156 15.828125 25.773438 16.160156 25.296875 16.164062 L 14.894531 16.164062 C 14.4375 16.164062 14.054688 15.855469 14.027344 15.457031 L 14.027344 6.023438 C 14.027344 5.625 14.386719 5.296875 14.84375 5.269531 L 23.96875 5.269531 L 23.96875 7.484375 L 26.164062 7.484375 Z M 26.164062 15.414062 "/>
<path style=" stroke:none;fill-rule:nonzero;fill:rgb(37.64706%,37.64706%,37.64706%);fill-opacity:1;" d="M 5.339844 29.695312 L 4.292969 29.695312 L 3.78125 28.433594 L 1.535156 28.433594 L 1.046875 29.695312 L 0 29.695312 L 2.144531 24.734375 L 3.21875 24.734375 Z M 3.550781 27.746094 L 2.757812 25.777344 C 2.726562 25.675781 2.699219 25.570312 2.683594 25.464844 L 2.65625 25.464844 C 2.640625 25.570312 2.613281 25.675781 2.582031 25.777344 L 1.789062 27.746094 Z M 3.550781 27.746094 "/>
<path style=" stroke:none;fill-rule:nonzero;fill:rgb(37.64706%,37.64706%,37.64706%);fill-opacity:1;" d="M 9.046875 26.484375 L 6.847656 29.078125 L 9.046875 29.078125 L 9.046875 29.699219 L 5.542969 29.699219 L 5.542969 29.386719 L 7.792969 26.773438 L 5.75 26.773438 L 5.75 26.152344 L 9.046875 26.152344 Z M 9.046875 26.484375 "/>
<path style=" stroke:none;fill-rule:nonzero;fill:rgb(37.64706%,37.64706%,37.64706%);fill-opacity:1;" d="M 13.390625 29.695312 L 12.46875 29.695312 L 12.46875 29.144531 L 12.445312 29.144531 C 12.203125 29.546875 11.71875 29.796875 11.191406 29.785156 C 10.222656 29.785156 9.734375 29.277344 9.734375 28.277344 L 9.734375 26.152344 L 10.65625 26.152344 L 10.65625 28.191406 C 10.65625 28.832031 10.9375 29.144531 11.5 29.144531 C 11.757812 29.15625 12.007812 29.054688 12.164062 28.875 C 12.347656 28.683594 12.4375 28.4375 12.421875 28.191406 L 12.421875 26.152344 L 13.339844 26.152344 L 13.339844 29.695312 Z M 13.390625 29.695312 "/>
<path style=" stroke:none;fill-rule:nonzero;fill:rgb(37.64706%,37.64706%,37.64706%);fill-opacity:1;" d="M 16.964844 26.90625 C 16.820312 26.828125 16.652344 26.789062 16.480469 26.796875 C 16.199219 26.796875 15.9375 26.921875 15.792969 27.128906 C 15.59375 27.390625 15.496094 27.699219 15.511719 28.011719 L 15.511719 29.71875 L 14.589844 29.71875 L 14.589844 26.175781 L 15.511719 26.175781 L 15.511719 26.90625 L 15.535156 26.90625 C 15.613281 26.6875 15.753906 26.488281 15.945312 26.328125 C 16.125 26.199219 16.351562 26.128906 16.582031 26.132812 C 16.714844 26.121094 16.847656 26.144531 16.964844 26.199219 Z M 16.964844 26.90625 "/>
<path style=" stroke:none;fill-rule:nonzero;fill:rgb(37.64706%,37.64706%,37.64706%);fill-opacity:1;" d="M 21.027344 28.144531 L 18.242188 28.144531 C 18.226562 28.429688 18.359375 28.707031 18.601562 28.898438 C 18.859375 29.085938 19.1875 29.179688 19.523438 29.164062 C 19.953125 29.167969 20.375 29.050781 20.722656 28.832031 L 20.722656 29.476562 C 20.273438 29.695312 19.757812 29.804688 19.242188 29.785156 C 18.710938 29.820312 18.195312 29.636719 17.835938 29.296875 C 17.480469 28.917969 17.296875 28.4375 17.324219 27.949219 C 17.296875 27.449219 17.5 26.964844 17.886719 26.597656 C 18.246094 26.25 18.757812 26.054688 19.292969 26.0625 C 19.785156 26.039062 20.265625 26.210938 20.597656 26.527344 C 20.925781 26.902344 21.089844 27.367188 21.058594 27.835938 L 21.058594 28.144531 Z M 20.136719 27.570312 C 20.152344 27.332031 20.070312 27.09375 19.90625 26.902344 C 19.746094 26.742188 19.511719 26.652344 19.265625 26.660156 C 19.015625 26.660156 18.773438 26.746094 18.597656 26.902344 C 18.410156 27.089844 18.292969 27.320312 18.265625 27.570312 Z M 20.136719 27.570312 "/>
<path style=" stroke:none;fill-rule:nonzero;fill:rgb(37.64706%,37.64706%,37.64706%);fill-opacity:1;" d="M 24.25 29.695312 L 24.25 24.734375 L 26.0625 24.734375 C 26.523438 24.714844 26.980469 24.824219 27.367188 25.046875 C 27.679688 25.230469 27.863281 25.539062 27.851562 25.867188 C 27.855469 26.128906 27.757812 26.386719 27.570312 26.597656 C 27.375 26.8125 27.105469 26.964844 26.804688 27.042969 L 26.804688 27.0625 C 27.160156 27.085938 27.496094 27.21875 27.75 27.441406 C 27.992188 27.667969 28.121094 27.972656 28.109375 28.28125 C 28.113281 28.691406 27.894531 29.074219 27.519531 29.324219 C 27.105469 29.597656 26.589844 29.738281 26.066406 29.722656 L 24.25 29.722656 Z M 25.195312 25.378906 L 25.195312 26.796875 L 25.808594 26.796875 C 26.085938 26.8125 26.355469 26.742188 26.578125 26.597656 C 26.765625 26.449219 26.867188 26.238281 26.859375 26.019531 C 26.859375 25.597656 26.523438 25.375 25.886719 25.375 Z M 25.195312 27.460938 L 25.195312 29.03125 L 26.011719 29.03125 C 26.308594 29.054688 26.601562 28.976562 26.828125 28.808594 C 27.027344 28.667969 27.132812 28.453125 27.109375 28.234375 C 27.109375 27.722656 26.699219 27.457031 25.882812 27.457031 Z M 25.195312 27.460938 "/>
<path style=" stroke:none;fill-rule:nonzero;fill:rgb(37.64706%,37.64706%,37.64706%);fill-opacity:1;" d="M 30.023438 29.695312 L 29.105469 29.695312 L 29.105469 24.449219 L 30.023438 24.449219 Z M 30.023438 29.695312 "/>
<path style=" stroke:none;fill-rule:nonzero;fill:rgb(37.64706%,37.64706%,37.64706%);fill-opacity:1;" d="M 33.039062 29.761719 C 32.480469 29.789062 31.933594 29.613281 31.53125 29.273438 C 31.144531 28.921875 30.941406 28.453125 30.964844 27.96875 C 30.914062 27.453125 31.128906 26.945312 31.546875 26.582031 C 31.964844 26.214844 32.546875 26.023438 33.136719 26.0625 C 33.691406 26.03125 34.230469 26.210938 34.621094 26.550781 C 34.996094 26.921875 35.1875 27.410156 35.15625 27.902344 C 35.183594 28.402344 34.972656 28.890625 34.570312 29.253906 C 34.171875 29.609375 33.609375 29.796875 33.039062 29.761719 Z M 33.089844 26.707031 C 32.757812 26.699219 32.4375 26.820312 32.222656 27.039062 C 32.003906 27.300781 31.894531 27.621094 31.914062 27.945312 C 31.890625 28.269531 32.007812 28.585938 32.246094 28.832031 C 32.453125 29.046875 32.765625 29.164062 33.089844 29.144531 C 33.410156 29.152344 33.71875 29.039062 33.933594 28.832031 C 34.144531 28.574219 34.246094 28.261719 34.210938 27.945312 C 34.230469 27.625 34.132812 27.308594 33.933594 27.039062 C 33.726562 26.816406 33.414062 26.695312 33.089844 26.707031 Z M 33.089844 26.707031 "/>
<path style=" stroke:none;fill-rule:nonzero;fill:rgb(37.64706%,37.64706%,37.64706%);fill-opacity:1;" d="M 37.050781 29.1875 L 37.023438 29.695312 L 36.105469 29.695312 L 36.105469 24.449219 L 37.023438 24.449219 L 37.023438 26.773438 L 37.050781 26.773438 C 37.320312 26.332031 37.851562 26.054688 38.429688 26.066406 C 38.894531 26.042969 39.339844 26.21875 39.632812 26.53125 C 39.9375 26.902344 40.089844 27.355469 40.066406 27.8125 C 40.101562 28.320312 39.929688 28.824219 39.578125 29.230469 C 39.253906 29.589844 38.75 29.785156 38.226562 29.765625 C 37.742188 29.773438 37.292969 29.550781 37.050781 29.1875 Z M 37.023438 27.769531 L 37.023438 28.214844 C 37.019531 28.457031 37.121094 28.695312 37.304688 28.878906 C 37.488281 29.054688 37.75 29.152344 38.023438 29.144531 C 38.347656 29.152344 38.65625 29.019531 38.839844 28.789062 C 39.054688 28.5 39.152344 28.15625 39.121094 27.816406 C 39.140625 27.523438 39.039062 27.234375 38.839844 26.996094 C 38.664062 26.800781 38.386719 26.695312 38.101562 26.707031 C 37.796875 26.703125 37.503906 26.816406 37.308594 27.019531 C 37.117188 27.234375 37.015625 27.5 37.023438 27.769531 Z M 37.023438 27.769531 "/>
<path style=" stroke:none;fill-rule:nonzero;fill:rgb(37.64706%,37.64706%,37.64706%);fill-opacity:1;" d="M 6.335938 38 L 6.335938 37.160156 C 6.429688 37.230469 6.53125 37.292969 6.644531 37.335938 C 6.761719 37.402344 6.890625 37.445312 7.027344 37.46875 C 7.15625 37.492188 7.308594 37.539062 7.4375 37.558594 C 7.566406 37.578125 7.691406 37.585938 7.820312 37.582031 C 8.132812 37.597656 8.441406 37.535156 8.714844 37.402344 C 8.910156 37.292969 9.019531 37.097656 8.996094 36.894531 C 9.003906 36.785156 8.964844 36.675781 8.894531 36.582031 C 8.8125 36.492188 8.71875 36.410156 8.613281 36.339844 C 8.484375 36.273438 8.355469 36.207031 8.203125 36.140625 C 8.046875 36.074219 7.871094 36.007812 7.691406 35.941406 C 7.503906 35.863281 7.324219 35.773438 7.152344 35.675781 C 6.992188 35.589844 6.847656 35.484375 6.71875 35.363281 C 6.59375 35.257812 6.496094 35.128906 6.4375 34.988281 C 6.363281 34.832031 6.328125 34.667969 6.335938 34.5 C 6.320312 34.289062 6.382812 34.078125 6.515625 33.902344 C 6.636719 33.730469 6.800781 33.585938 7 33.480469 C 7.203125 33.367188 7.429688 33.285156 7.667969 33.238281 C 7.917969 33.183594 8.175781 33.15625 8.433594 33.148438 C 8.878906 33.128906 9.320312 33.1875 9.738281 33.324219 L 9.738281 34.144531 C 9.367188 33.929688 8.929688 33.820312 8.484375 33.832031 C 8.347656 33.835938 8.207031 33.851562 8.074219 33.878906 C 7.941406 33.90625 7.816406 33.941406 7.691406 33.988281 C 7.582031 34.035156 7.484375 34.105469 7.410156 34.1875 C 7.335938 34.277344 7.296875 34.386719 7.308594 34.5 C 7.304688 34.597656 7.332031 34.699219 7.382812 34.789062 C 7.4375 34.875 7.519531 34.953125 7.613281 35.007812 C 7.734375 35.085938 7.863281 35.152344 7.996094 35.207031 C 8.164062 35.28125 8.335938 35.351562 8.507812 35.40625 C 8.707031 35.492188 8.894531 35.585938 9.074219 35.695312 C 9.25 35.78125 9.40625 35.894531 9.535156 36.027344 C 9.667969 36.148438 9.777344 36.28125 9.867188 36.425781 C 9.953125 36.585938 9.996094 36.761719 9.996094 36.9375 C 10.007812 37.160156 9.945312 37.382812 9.816406 37.578125 C 9.695312 37.75 9.527344 37.894531 9.332031 38 C 9.113281 38.109375 8.882812 38.191406 8.640625 38.242188 C 8.371094 38.289062 8.097656 38.3125 7.824219 38.308594 C 7.703125 38.3125 7.582031 38.304688 7.464844 38.289062 C 7.316406 38.273438 7.171875 38.253906 7.03125 38.222656 C 6.890625 38.207031 6.753906 38.175781 6.621094 38.132812 C 6.542969 38.089844 6.414062 38.046875 6.335938 38 Z M 6.335938 38 "/>
<path style=" stroke:none;fill-rule:nonzero;fill:rgb(37.64706%,37.64706%,37.64706%);fill-opacity:1;" d="M 12.878906 38.15625 C 12.652344 38.246094 12.40625 38.285156 12.160156 38.265625 C 11.367188 38.265625 10.957031 37.933594 10.957031 37.269531 L 10.957031 35.277344 L 10.273438 35.277344 L 10.273438 34.65625 L 10.960938 34.65625 L 10.960938 33.839844 L 11.882812 33.617188 L 11.882812 34.65625 L 12.851562 34.65625 L 12.851562 35.277344 L 11.882812 35.277344 L 11.882812 37.050781 C 11.871094 37.207031 11.914062 37.363281 12.007812 37.496094 C 12.121094 37.59375 12.28125 37.644531 12.445312 37.628906 C 12.589844 37.625 12.730469 37.585938 12.855469 37.519531 L 12.855469 38.160156 Z M 12.878906 38.15625 "/>
<path style=" stroke:none;fill-rule:nonzero;fill:rgb(37.64706%,37.64706%,37.64706%);fill-opacity:1;" d="M 15.433594 38.265625 C 14.875 38.292969 14.328125 38.117188 13.925781 37.777344 C 13.539062 37.425781 13.335938 36.957031 13.363281 36.472656 C 13.308594 35.957031 13.523438 35.449219 13.941406 35.085938 C 14.359375 34.71875 14.941406 34.527344 15.535156 34.566406 C 16.085938 34.535156 16.625 34.714844 17.015625 35.054688 C 17.390625 35.425781 17.582031 35.914062 17.550781 36.40625 C 17.578125 36.90625 17.367188 37.394531 16.964844 37.757812 C 16.566406 38.117188 16.007812 38.304688 15.433594 38.265625 Z M 15.484375 35.210938 C 15.152344 35.203125 14.832031 35.324219 14.617188 35.542969 C 14.398438 35.804688 14.289062 36.125 14.308594 36.449219 C 14.285156 36.773438 14.402344 37.089844 14.640625 37.335938 C 14.847656 37.550781 15.160156 37.667969 15.484375 37.648438 C 15.804688 37.65625 16.113281 37.542969 16.328125 37.335938 C 16.539062 37.078125 16.640625 36.765625 16.609375 36.449219 C 16.625 36.128906 16.527344 35.8125 16.328125 35.542969 C 16.125 35.320312 15.808594 35.199219 15.484375 35.210938 Z M 15.484375 35.210938 "/>
<path style=" stroke:none;fill-rule:nonzero;fill:rgb(37.64706%,37.64706%,37.64706%);fill-opacity:1;" d="M 20.875 35.410156 C 20.730469 35.332031 20.5625 35.292969 20.390625 35.300781 C 20.109375 35.296875 19.847656 35.425781 19.699219 35.632812 C 19.503906 35.894531 19.402344 36.203125 19.417969 36.515625 L 19.417969 38.222656 L 18.5 38.222656 L 18.5 34.679688 L 19.417969 34.679688 L 19.417969 35.410156 L 19.445312 35.410156 C 19.523438 35.191406 19.664062 34.992188 19.855469 34.832031 C 20.035156 34.703125 20.261719 34.632812 20.496094 34.632812 C 20.625 34.625 20.757812 34.648438 20.878906 34.699219 Z M 20.875 35.410156 "/>
<path style=" stroke:none;fill-rule:nonzero;fill:rgb(37.64706%,37.64706%,37.64706%);fill-opacity:1;" d="M 24.683594 38.199219 L 23.761719 38.199219 L 23.761719 37.648438 C 23.523438 38.050781 23.035156 38.300781 22.511719 38.289062 C 22.164062 38.3125 21.820312 38.207031 21.566406 38 C 21.339844 37.800781 21.21875 37.527344 21.234375 37.246094 C 21.234375 36.582031 21.667969 36.183594 22.5625 36.074219 L 23.789062 35.917969 C 23.789062 35.410156 23.507812 35.167969 22.945312 35.167969 C 22.457031 35.171875 21.984375 35.332031 21.617188 35.609375 L 21.617188 34.902344 C 22.066406 34.675781 22.578125 34.5625 23.097656 34.570312 C 24.121094 34.570312 24.65625 35.015625 24.65625 35.898438 L 24.65625 38.203125 Z M 23.789062 36.449219 L 22.921875 36.5625 C 22.699219 36.578125 22.488281 36.636719 22.304688 36.738281 C 22.164062 36.84375 22.085938 37 22.097656 37.160156 C 22.09375 37.300781 22.15625 37.441406 22.277344 37.535156 C 22.417969 37.628906 22.589844 37.675781 22.765625 37.671875 C 23.027344 37.675781 23.28125 37.578125 23.453125 37.402344 C 23.636719 37.226562 23.734375 36.996094 23.734375 36.761719 L 23.734375 36.449219 Z M 23.789062 36.449219 "/>
<path style=" stroke:none;fill-rule:nonzero;fill:rgb(37.64706%,37.64706%,37.64706%);fill-opacity:1;" d="M 29.511719 37.910156 C 29.511719 39.21875 28.746094 39.859375 27.238281 39.859375 C 26.757812 39.871094 26.277344 39.796875 25.832031 39.636719 L 25.832031 38.90625 C 26.21875 39.113281 26.660156 39.226562 27.109375 39.238281 C 28.082031 39.238281 28.566406 38.820312 28.566406 38 L 28.566406 37.601562 L 28.542969 37.601562 C 28.28125 37.984375 27.828125 38.234375 27.316406 38.28125 C 26.804688 38.324219 26.300781 38.152344 25.960938 37.820312 C 25.632812 37.464844 25.46875 37.015625 25.5 36.558594 C 25.464844 36.046875 25.636719 35.539062 25.984375 35.121094 C 26.3125 34.765625 26.816406 34.566406 27.339844 34.585938 C 27.832031 34.566406 28.296875 34.792969 28.539062 35.164062 L 28.566406 35.164062 L 28.566406 34.675781 L 29.484375 34.675781 L 29.484375 37.910156 Z M 28.617188 36.5625 L 28.617188 36.097656 C 28.617188 35.859375 28.519531 35.632812 28.335938 35.453125 C 28.15625 35.277344 27.890625 35.179688 27.617188 35.1875 C 27.300781 35.171875 26.992188 35.296875 26.800781 35.519531 C 26.574219 35.796875 26.46875 36.132812 26.492188 36.472656 C 26.480469 36.769531 26.582031 37.066406 26.773438 37.3125 C 26.964844 37.511719 27.246094 37.625 27.542969 37.625 C 27.835938 37.625 28.117188 37.511719 28.308594 37.3125 C 28.523438 37.109375 28.632812 36.835938 28.617188 36.5625 Z M 28.617188 36.5625 "/>
<path style=" stroke:none;fill-rule:nonzero;fill:rgb(37.64706%,37.64706%,37.64706%);fill-opacity:1;" d="M 34.1875 36.648438 L 31.402344 36.648438 C 31.386719 36.933594 31.519531 37.210938 31.761719 37.402344 C 32.019531 37.589844 32.347656 37.683594 32.683594 37.667969 C 33.113281 37.671875 33.535156 37.554688 33.882812 37.335938 L 33.882812 37.980469 C 33.429688 38.199219 32.917969 38.308594 32.402344 38.292969 C 31.871094 38.324219 31.355469 38.140625 30.996094 37.800781 C 30.636719 37.421875 30.457031 36.941406 30.484375 36.453125 C 30.457031 35.953125 30.660156 35.46875 31.046875 35.101562 C 31.402344 34.753906 31.917969 34.558594 32.453125 34.566406 C 32.945312 34.542969 33.425781 34.714844 33.753906 35.03125 C 34.085938 35.40625 34.25 35.871094 34.21875 36.339844 L 34.21875 36.648438 Z M 33.292969 36.074219 C 33.3125 35.835938 33.230469 35.597656 33.0625 35.40625 C 32.90625 35.246094 32.671875 35.15625 32.425781 35.164062 C 32.175781 35.164062 31.933594 35.253906 31.757812 35.40625 C 31.566406 35.59375 31.449219 35.824219 31.425781 36.074219 Z M 33.292969 36.074219 "/>
</g>
</svg>
