<?xml version="1.0" encoding="UTF-8"?>
<svg xmlns="http://www.w3.org/2000/svg" xmlns:xlink="http://www.w3.org/1999/xlink" width="40px" height="40px" viewBox="0 0 40 40" version="1.1">
<defs>
<linearGradient id="linear0" gradientUnits="userSpaceOnUse" x1="0.514" y1="3.58" x2="0.491" y2="2.317" gradientTransform="matrix(28.859375,0,0,25.101562,5.472656,3.097656)">
<stop offset="0" style="stop-color:rgb(19.607843%,83.137255%,96.078431%);stop-opacity:1;"/>
<stop offset="0.23" style="stop-color:rgb(19.215686%,81.568627%,94.509804%);stop-opacity:1;"/>
<stop offset="0.46" style="stop-color:rgb(17.254902%,76.470588%,90.196078%);stop-opacity:1;"/>
<stop offset="0.7" style="stop-color:rgb(14.509804%,68.627451%,83.137255%);stop-opacity:1;"/>
<stop offset="0.94" style="stop-color:rgb(10.980392%,57.254902%,72.941176%);stop-opacity:1;"/>
<stop offset="1" style="stop-color:rgb(9.803922%,54.117647%,70.196078%);stop-opacity:1;"/>
</linearGradient>
</defs>
<g id="surface1">
<path style=" stroke:none;fill-rule:nonzero;fill:rgb(27.450982%,31.764707%,32.941177%);fill-opacity:1;" d="M 3.574219 40.054688 L 2.875 40.054688 L 2.53125 38.882812 L 1.027344 38.882812 L 0.695312 40.054688 L 0 40.054688 L 1.433594 35.453125 L 2.148438 35.453125 Z M 2.363281 38.261719 L 1.832031 36.425781 C 1.808594 36.332031 1.792969 36.234375 1.78125 36.136719 L 1.769531 36.136719 C 1.757812 36.234375 1.742188 36.332031 1.71875 36.425781 L 1.191406 38.261719 Z M 2.363281 38.261719 "/>
<path style=" stroke:none;fill-rule:nonzero;fill:rgb(27.450982%,31.764707%,32.941177%);fill-opacity:1;" d="M 6.1875 37.082031 L 4.710938 39.472656 L 6.183594 39.472656 L 6.183594 40.054688 L 3.835938 40.054688 L 3.835938 39.773438 L 5.347656 37.347656 L 3.980469 37.347656 L 3.980469 36.769531 L 6.1875 36.769531 Z M 6.1875 37.082031 "/>
<path style=" stroke:none;fill-rule:nonzero;fill:rgb(27.450982%,31.764707%,32.941177%);fill-opacity:1;" d="M 9.058594 40.054688 L 8.441406 40.054688 L 8.441406 39.535156 L 8.429688 39.535156 C 8.273438 39.917969 7.945312 40.148438 7.59375 40.132812 C 6.941406 40.132812 6.617188 39.664062 6.617188 38.726562 L 6.617188 36.761719 L 7.234375 36.761719 L 7.234375 38.636719 C 7.234375 39.226562 7.425781 39.523438 7.804688 39.523438 C 7.976562 39.53125 8.144531 39.441406 8.257812 39.285156 C 8.378906 39.109375 8.445312 38.878906 8.433594 38.648438 L 8.433594 36.761719 L 9.054688 36.761719 Z M 9.058594 40.054688 "/>
<path style=" stroke:none;fill-rule:nonzero;fill:rgb(27.450982%,31.764707%,32.941177%);fill-opacity:1;" d="M 11.378906 37.480469 C 11.285156 37.402344 11.171875 37.367188 11.058594 37.375 C 10.871094 37.375 10.699219 37.488281 10.597656 37.671875 C 10.464844 37.910156 10.402344 38.195312 10.414062 38.484375 L 10.414062 40.054688 L 9.792969 40.054688 L 9.792969 36.773438 L 10.414062 36.773438 L 10.414062 37.445312 L 10.421875 37.445312 C 10.472656 37.238281 10.570312 37.050781 10.703125 36.90625 C 10.816406 36.78125 10.96875 36.714844 11.121094 36.714844 C 11.210938 36.707031 11.296875 36.726562 11.378906 36.773438 Z M 11.378906 37.480469 "/>
<path style=" stroke:none;fill-rule:nonzero;fill:rgb(27.450982%,31.764707%,32.941177%);fill-opacity:1;" d="M 14.125 38.613281 L 12.261719 38.613281 C 12.253906 38.878906 12.339844 39.132812 12.496094 39.316406 C 12.667969 39.492188 12.886719 39.578125 13.109375 39.5625 C 13.398438 39.566406 13.683594 39.453125 13.914062 39.25 L 13.914062 39.847656 C 13.613281 40.054688 13.273438 40.152344 12.925781 40.132812 C 12.570312 40.15625 12.226562 39.992188 11.980469 39.683594 C 11.734375 39.332031 11.609375 38.882812 11.636719 38.425781 C 11.617188 37.964844 11.753906 37.515625 12.011719 37.175781 C 12.253906 36.859375 12.597656 36.683594 12.953125 36.691406 C 13.28125 36.667969 13.601562 36.828125 13.820312 37.125 C 14.039062 37.46875 14.148438 37.894531 14.128906 38.328125 Z M 13.527344 38.089844 C 13.535156 37.863281 13.480469 37.644531 13.371094 37.464844 C 13.265625 37.308594 13.109375 37.222656 12.941406 37.230469 C 12.769531 37.226562 12.605469 37.3125 12.488281 37.464844 C 12.359375 37.632812 12.28125 37.847656 12.261719 38.078125 Z M 13.527344 38.089844 "/>
<path style=" stroke:none;fill-rule:nonzero;fill:rgb(27.450982%,31.764707%,32.941177%);fill-opacity:1;" d="M 16.289062 40.054688 L 16.289062 35.457031 L 17.390625 35.457031 C 18.800781 35.457031 19.507812 36.203125 19.507812 37.699219 C 19.53125 38.34375 19.316406 38.96875 18.921875 39.40625 C 18.484375 39.859375 17.917969 40.089844 17.34375 40.050781 Z M 16.921875 36.109375 L 16.921875 39.414062 L 17.433594 39.414062 C 17.816406 39.445312 18.191406 39.285156 18.476562 38.972656 C 18.738281 38.632812 18.875 38.183594 18.851562 37.722656 C 18.851562 36.648438 18.386719 36.109375 17.457031 36.109375 Z M 16.921875 36.109375 "/>
<path style=" stroke:none;fill-rule:nonzero;fill:rgb(27.450982%,31.764707%,32.941177%);fill-opacity:1;" d="M 22.171875 40.054688 L 21.570312 40.054688 L 21.570312 39.539062 L 21.5625 39.539062 C 21.402344 39.914062 21.078125 40.140625 20.730469 40.128906 C 20.5 40.148438 20.273438 40.050781 20.101562 39.867188 C 19.945312 39.683594 19.859375 39.425781 19.871094 39.164062 C 19.871094 38.539062 20.167969 38.179688 20.765625 38.082031 L 21.578125 37.945312 C 21.578125 37.476562 21.394531 37.242188 21.023438 37.242188 C 20.699219 37.238281 20.382812 37.382812 20.140625 37.644531 L 20.140625 36.988281 C 20.445312 36.78125 20.789062 36.675781 21.140625 36.683594 C 21.421875 36.632812 21.707031 36.742188 21.914062 36.984375 C 22.117188 37.226562 22.214844 37.566406 22.175781 37.90625 Z M 21.574219 38.441406 L 21 38.535156 C 20.859375 38.546875 20.722656 38.601562 20.597656 38.6875 C 20.5 38.785156 20.449219 38.9375 20.464844 39.085938 C 20.460938 39.21875 20.507812 39.34375 20.589844 39.429688 C 20.683594 39.523438 20.800781 39.570312 20.921875 39.5625 C 21.097656 39.570312 21.269531 39.484375 21.390625 39.328125 C 21.519531 39.167969 21.589844 38.949219 21.585938 38.726562 Z M 21.574219 38.441406 "/>
<path style=" stroke:none;fill-rule:nonzero;fill:rgb(27.450982%,31.764707%,32.941177%);fill-opacity:1;" d="M 24.308594 40.019531 C 24.160156 40.097656 23.996094 40.132812 23.832031 40.125 C 23.300781 40.125 23.035156 39.820312 23.035156 39.210938 L 23.035156 37.351562 L 22.578125 37.351562 L 22.578125 36.769531 L 23.035156 36.769531 L 23.035156 36.007812 L 23.65625 35.796875 L 23.65625 36.769531 L 24.308594 36.769531 L 24.308594 37.351562 L 23.65625 37.351562 L 23.65625 38.996094 C 23.644531 39.140625 23.675781 39.289062 23.746094 39.410156 C 23.820312 39.503906 23.929688 39.550781 24.039062 39.535156 C 24.136719 39.539062 24.230469 39.5 24.308594 39.429688 Z M 24.308594 40.019531 "/>
<path style=" stroke:none;fill-rule:nonzero;fill:rgb(27.450982%,31.764707%,32.941177%);fill-opacity:1;" d="M 26.964844 40.054688 L 26.378906 40.054688 L 26.378906 39.539062 L 26.367188 39.539062 C 26.210938 39.914062 25.886719 40.140625 25.539062 40.128906 C 25.308594 40.148438 25.082031 40.050781 24.90625 39.867188 C 24.75 39.683594 24.667969 39.425781 24.679688 39.164062 C 24.679688 38.539062 24.976562 38.179688 25.570312 38.082031 L 26.382812 37.945312 C 26.382812 37.476562 26.199219 37.242188 25.828125 37.242188 C 25.503906 37.238281 25.191406 37.382812 24.949219 37.644531 L 24.949219 36.988281 C 25.25 36.78125 25.597656 36.675781 25.945312 36.683594 C 26.230469 36.632812 26.515625 36.742188 26.71875 36.984375 C 26.921875 37.226562 27.019531 37.566406 26.980469 37.90625 Z M 26.378906 38.441406 L 25.804688 38.535156 C 25.660156 38.546875 25.523438 38.597656 25.402344 38.6875 C 25.304688 38.785156 25.253906 38.933594 25.265625 39.085938 C 25.261719 39.214844 25.308594 39.339844 25.390625 39.425781 C 25.484375 39.519531 25.601562 39.566406 25.722656 39.5625 C 25.902344 39.566406 26.074219 39.480469 26.195312 39.324219 C 26.324219 39.164062 26.394531 38.949219 26.390625 38.726562 Z M 26.378906 38.441406 "/>
<path style=" stroke:none;fill-rule:nonzero;fill:rgb(27.450982%,31.764707%,32.941177%);fill-opacity:1;" d="M 31.421875 40.054688 L 29.308594 40.054688 L 29.308594 35.457031 L 29.945312 35.457031 L 29.945312 39.410156 L 31.429688 39.410156 Z M 31.421875 40.054688 "/>
<path style=" stroke:none;fill-rule:nonzero;fill:rgb(27.450982%,31.764707%,32.941177%);fill-opacity:1;" d="M 34.066406 40.054688 L 33.464844 40.054688 L 33.464844 39.539062 L 33.453125 39.539062 C 33.296875 39.914062 32.972656 40.140625 32.625 40.128906 C 32.390625 40.148438 32.164062 40.050781 31.992188 39.867188 C 31.835938 39.683594 31.753906 39.425781 31.761719 39.164062 C 31.761719 38.539062 32.0625 38.179688 32.65625 38.082031 L 33.46875 37.945312 C 33.46875 37.476562 33.285156 37.242188 32.914062 37.242188 C 32.589844 37.238281 32.277344 37.382812 32.035156 37.644531 L 32.035156 36.988281 C 32.335938 36.78125 32.683594 36.675781 33.03125 36.683594 C 33.3125 36.632812 33.601562 36.742188 33.804688 36.984375 C 34.007812 37.226562 34.105469 37.566406 34.066406 37.90625 Z M 33.46875 38.441406 L 32.894531 38.535156 C 32.75 38.546875 32.613281 38.601562 32.492188 38.6875 C 32.394531 38.785156 32.34375 38.9375 32.355469 39.085938 C 32.351562 39.21875 32.398438 39.34375 32.480469 39.429688 C 32.574219 39.523438 32.691406 39.570312 32.8125 39.5625 C 32.992188 39.570312 33.164062 39.484375 33.285156 39.328125 C 33.414062 39.167969 33.484375 38.949219 33.480469 38.726562 Z M 33.46875 38.441406 "/>
<path style=" stroke:none;fill-rule:nonzero;fill:rgb(27.450982%,31.764707%,32.941177%);fill-opacity:1;" d="M 37.253906 40.054688 L 36.46875 40.054688 L 35.40625 38.476562 L 35.398438 38.476562 L 35.398438 40.054688 L 34.773438 40.054688 L 34.773438 35.191406 L 35.398438 35.191406 L 35.398438 38.273438 L 35.40625 38.273438 L 36.410156 36.769531 L 37.15625 36.769531 L 36.027344 38.351562 Z M 37.253906 40.054688 "/>
<path style=" stroke:none;fill-rule:nonzero;fill:rgb(27.450982%,31.764707%,32.941177%);fill-opacity:1;" d="M 39.804688 38.613281 L 37.941406 38.613281 C 37.933594 38.878906 38.019531 39.132812 38.175781 39.316406 C 38.347656 39.492188 38.566406 39.578125 38.789062 39.5625 C 39.078125 39.566406 39.359375 39.453125 39.59375 39.25 L 39.59375 39.847656 C 39.292969 40.054688 38.949219 40.152344 38.605469 40.132812 C 38.25 40.15625 37.902344 39.992188 37.65625 39.683594 C 37.414062 39.332031 37.289062 38.882812 37.3125 38.425781 C 37.296875 37.964844 37.433594 37.515625 37.691406 37.175781 C 37.933594 36.859375 38.273438 36.683594 38.632812 36.691406 C 38.960938 36.667969 39.28125 36.828125 39.5 37.125 C 39.71875 37.46875 39.828125 37.894531 39.804688 38.328125 Z M 39.207031 38.089844 C 39.214844 37.863281 39.160156 37.644531 39.050781 37.464844 C 38.945312 37.308594 38.785156 37.222656 38.621094 37.230469 C 38.449219 37.226562 38.285156 37.3125 38.167969 37.464844 C 38.039062 37.632812 37.957031 37.847656 37.9375 38.078125 Z M 39.207031 38.089844 "/>
<path style=" stroke:none;fill-rule:nonzero;fill:rgb(0%,35.686275%,63.137257%);fill-opacity:1;" d="M 33.652344 3.136719 L 21.074219 3.136719 C 20.9375 3.144531 20.808594 3.09375 20.699219 2.996094 L 17.101562 0.121094 C 16.988281 0.0429688 16.859375 0 16.726562 0 L 6.152344 0 C 5.78125 0 5.480469 0.351562 5.472656 0.792969 L 5.472656 27.480469 C 5.480469 27.925781 5.78125 28.277344 6.152344 28.277344 L 33.652344 28.277344 C 34.023438 28.277344 34.324219 27.925781 34.332031 27.480469 L 34.332031 3.953125 C 34.332031 3.503906 34.027344 3.136719 33.652344 3.136719 Z M 33.652344 3.136719 "/>
<path style=" stroke:none;fill-rule:nonzero;fill:rgb(100%,100%,100%);fill-opacity:1;" d="M 8.648438 1.546875 L 14.113281 1.546875 C 14.414062 1.546875 14.65625 1.839844 14.65625 2.203125 L 14.65625 2.460938 C 14.65625 2.824219 14.414062 3.117188 14.113281 3.117188 L 8.648438 3.117188 C 8.347656 3.117188 8.101562 2.824219 8.101562 2.460938 L 8.101562 2.203125 C 8.101562 1.839844 8.347656 1.546875 8.648438 1.546875 Z M 8.648438 1.546875 "/>
<path style=" stroke:none;fill-rule:nonzero;fill:rgb(10.196079%,76.47059%,94.901961%);fill-opacity:1;" d="M 8.480469 1.546875 L 9.035156 1.546875 C 9.242188 1.546875 9.410156 1.75 9.410156 2 L 9.410156 2.664062 C 9.410156 2.914062 9.242188 3.117188 9.035156 3.117188 L 8.480469 3.117188 C 8.273438 3.117188 8.101562 2.914062 8.101562 2.664062 L 8.101562 2 C 8.101562 1.75 8.273438 1.546875 8.480469 1.546875 Z M 8.480469 1.546875 "/>
<path style=" stroke:none;fill-rule:nonzero;fill:url(#linear0);" d="M 33.652344 3.097656 L 19.902344 3.097656 C 19.722656 3.089844 19.550781 3.175781 19.425781 3.332031 L 17.136719 5.988281 C 17.007812 6.132812 16.835938 6.21875 16.660156 6.226562 L 6.152344 6.226562 C 5.777344 6.226562 5.472656 6.585938 5.472656 7.035156 L 5.472656 27.40625 C 5.480469 27.847656 5.78125 28.199219 6.152344 28.199219 L 33.652344 28.199219 C 34.023438 28.199219 34.324219 27.847656 34.332031 27.40625 L 34.332031 3.957031 C 34.351562 3.507812 34.0625 3.128906 33.6875 3.105469 Z M 33.652344 3.097656 "/>
<path style=" stroke:none;fill-rule:nonzero;fill:rgb(100%,100%,100%);fill-opacity:1;" d="M 21.90625 7.417969 C 21.859375 7.402344 21.8125 7.402344 21.769531 7.417969 C 21.679688 7.417969 21.597656 7.46875 21.546875 7.558594 L 16.183594 16.910156 C 16.136719 17.007812 16.136719 17.132812 16.183594 17.234375 C 16.234375 17.347656 16.332031 17.425781 16.4375 17.4375 L 19.617188 17.4375 L 18.207031 23.101562 C 18.179688 23.164062 18.175781 23.234375 18.191406 23.304688 C 18.210938 23.371094 18.25 23.425781 18.304688 23.457031 L 18.324219 23.457031 C 18.363281 23.472656 18.402344 23.472656 18.441406 23.457031 C 18.535156 23.480469 18.628906 23.421875 18.664062 23.316406 L 24.199219 13.832031 L 24.199219 13.628906 C 24.1875 13.445312 24.0625 13.304688 23.910156 13.304688 L 20.515625 13.304688 L 21.882812 7.738281 C 21.949219 7.648438 21.960938 7.515625 21.90625 7.417969 Z M 21.90625 7.417969 "/>
</g>
</svg>
