<svg xmlns="http://www.w3.org/2000/svg" width="35" height="35" fill="none"><g fill="#6F1FBA" clip-path="url(#a)"><path d="M21.933 19.536c-.606-.549-1.441-.812-2.528-.812h-6.32v6.382h6.32c1.087 0 1.933-.28 2.528-.846.6-.56.904-1.361.904-2.39 0-1.013-.298-1.785-.904-2.334M21.062 15.424c.572-.492.858-1.19.858-2.104q0-1.546-.772-2.174t-2.23-.629h-5.834v5.64h5.833c.858 0 1.573-.241 2.145-.733"/><path d="M29.167 0H5.833C2.625 0 0 2.625 0 5.833v23.334C0 32.375 2.625 35 5.833 35h23.334C32.375 35 35 32.375 35 29.167V5.833C35 2.625 32.375 0 29.167 0M25.98 24.574a4.5 4.5 0 0 1-1.344 1.802c-.612.503-1.39.903-2.344 1.2q-1.432.447-3.403.447H9.51V7.606h9.923q2.746-.001 4.404 1.258c1.103.841 1.658 2.105 1.658 3.803q0 1.544-.755 2.643c-.503.732-1.224 1.304-2.162 1.704v.057q1.89.404 2.86 1.784c.646.927.972 2.082.972 3.477q0 1.203-.429 2.242"/></g><defs><clipPath id="a"><path fill="#fff" d="M0 0h35v35H0z"/></clipPath></defs></svg>