<?xml version="1.0" encoding="UTF-8"?>
<svg xmlns="http://www.w3.org/2000/svg" xmlns:xlink="http://www.w3.org/1999/xlink" width="40px" height="40px" viewBox="0 0 40 40" version="1.1">
<g id="surface1">
<path style=" stroke:none;fill-rule:nonzero;fill:rgb(26.274511%,32.549021%,38.82353%);fill-opacity:1;" d="M 20.121094 29.191406 C 15.441406 29.191406 11.527344 25.636719 11.085938 20.980469 C 10.640625 16.320312 13.816406 12.089844 18.410156 11.210938 C 23.003906 10.332031 27.515625 13.09375 28.820312 17.585938 L 32.347656 17.585938 C 31.046875 11.320312 25.21875 7.050781 18.851562 7.703125 C 12.484375 8.355469 7.640625 13.71875 7.640625 20.121094 C 7.640625 26.523438 12.484375 31.886719 18.851562 32.539062 C 25.21875 33.191406 31.046875 28.921875 32.347656 22.65625 L 28.820312 22.65625 C 27.679688 26.515625 24.144531 29.171875 20.121094 29.191406 "/>
<path style=" stroke:none;fill-rule:nonzero;fill:rgb(26.274511%,32.549021%,38.82353%);fill-opacity:1;" d="M 14.023438 26.214844 C 15.636719 27.84375 17.832031 28.753906 20.121094 28.75 L 20.121094 25.15625 C 18.785156 25.15625 17.503906 24.625 16.558594 23.683594 Z M 14.023438 26.214844 "/>
<path style=" stroke:none;fill-rule:nonzero;fill:rgb(95.294118%,54.509807%,0%);fill-opacity:1;" d="M 11.492188 20.125 C 11.488281 21.324219 11.738281 22.515625 12.230469 23.613281 L 15.535156 22.140625 C 15.242188 21.507812 15.089844 20.816406 15.09375 20.121094 C 15.089844 18.785156 15.617188 17.503906 16.5625 16.558594 C 17.507812 15.613281 18.789062 15.085938 20.125 15.089844 L 20.125 11.492188 C 17.832031 11.488281 15.636719 12.398438 14.015625 14.015625 C 12.398438 15.636719 11.488281 17.832031 11.492188 20.125 "/>
<path style=" stroke:none;fill-rule:nonzero;fill:rgb(26.274511%,32.549021%,38.82353%);fill-opacity:1;" d="M 23.242188 12.078125 L 21.957031 15.421875 C 23.023438 15.835938 23.917969 16.597656 24.492188 17.585938 L 28.417969 17.585938 C 27.613281 15.0625 25.710938 13.039062 23.242188 12.078125 "/>
<path style=" stroke:none;fill-rule:nonzero;fill:rgb(95.294118%,54.509807%,0%);fill-opacity:1;" d="M 21.957031 24.820312 L 23.277344 28.199219 C 25.75 27.234375 27.644531 25.191406 28.417969 22.65625 L 24.492188 22.65625 C 23.894531 23.625 23.007812 24.382812 21.957031 24.820312 "/>
<path style=" stroke:none;fill-rule:nonzero;fill:rgb(26.274511%,32.549021%,38.82353%);fill-opacity:1;" d="M 4.148438 24.96875 C 4.078125 24.777344 4.03125 24.582031 4.003906 24.378906 L 4.003906 24.34375 C 3.96875 24.15625 3.921875 23.972656 3.855469 23.792969 C 3.816406 23.609375 3.78125 23.425781 3.75 23.207031 C 3.75 23.132812 3.710938 23.058594 3.710938 22.984375 C 3.675781 22.878906 3.675781 22.726562 3.640625 22.617188 C 3.640625 22.511719 3.601562 22.398438 3.601562 22.289062 C 3.5 21.558594 3.449219 20.820312 3.453125 20.085938 L 0 20.085938 C -0.00390625 20.894531 0.0429688 21.703125 0.148438 22.503906 L 0.148438 22.542969 C 0.191406 22.761719 0.214844 22.980469 0.222656 23.203125 C 0.222656 23.277344 0.257812 23.308594 0.257812 23.386719 C 0.292969 23.570312 0.332031 23.753906 0.363281 23.898438 C 0.371094 24 0.394531 24.101562 0.4375 24.195312 C 0.476562 24.324219 0.5 24.460938 0.511719 24.597656 C 0.550781 24.714844 0.578125 24.839844 0.585938 24.964844 C 0.621094 25.070312 0.621094 25.183594 0.65625 25.296875 L 0.761719 25.738281 C 0.761719 25.808594 0.800781 25.84375 0.800781 25.921875 C 1.027344 26.699219 1.308594 27.460938 1.640625 28.195312 L 4.761719 26.839844 C 4.542969 26.214844 4.320312 25.589844 4.140625 24.964844 Z M 4.148438 24.96875 "/>
<path style=" stroke:none;fill-rule:nonzero;fill:rgb(95.294118%,54.509807%,0%);fill-opacity:1;" d="M 20.121094 36.828125 C 15.691406 36.820312 11.441406 35.066406 8.296875 31.941406 L 5.875 34.363281 C 11.300781 39.808594 19.355469 41.679688 26.625 39.191406 C 33.898438 36.699219 39.109375 30.28125 40.058594 22.652344 L 36.605469 22.652344 C 35.378906 30.808594 28.367188 36.832031 20.121094 36.828125 M 20.121094 3.414062 C 23.726562 3.414062 27.230469 4.585938 30.109375 6.753906 L 32.164062 4 C 28.691406 1.390625 24.464844 -0.0117188 20.121094 0 C 11.828125 0.0117188 4.386719 5.09375 1.359375 12.8125 L 4.554688 14.0625 C 7.046875 7.640625 13.230469 3.410156 20.121094 3.414062 "/>
<path style=" stroke:none;fill-rule:nonzero;fill:rgb(26.274511%,32.549021%,38.82353%);fill-opacity:1;" d="M 36.640625 17.625 L 40.09375 17.625 C 39.722656 14.730469 38.734375 11.949219 37.191406 9.472656 L 34.292969 11.273438 C 35.507812 13.203125 36.308594 15.367188 36.640625 17.625 "/>
<path style=" stroke:none;fill-rule:nonzero;fill:rgb(95.294118%,54.509807%,0%);fill-opacity:1;" d="M 32.746094 17.625 L 36.199219 17.625 C 35.277344 11.890625 31.394531 7.074219 25.988281 4.957031 L 24.738281 8.113281 C 28.863281 9.699219 31.882812 13.292969 32.738281 17.625 "/>
<path style=" stroke:none;fill-rule:nonzero;fill:rgb(26.274511%,32.549021%,38.82353%);fill-opacity:1;" d="M 20.121094 7.234375 L 20.121094 3.820312 C 13.402344 3.8125 7.375 7.945312 4.957031 14.210938 L 8.113281 15.457031 C 10.039062 10.503906 14.804688 7.238281 20.121094 7.234375 "/>
<path style=" stroke:none;fill-rule:nonzero;fill:rgb(95.294118%,54.509807%,0%);fill-opacity:1;" d="M 7.234375 20.121094 L 3.820312 20.121094 C 3.839844 26.777344 7.890625 32.757812 14.0625 35.246094 L 15.3125 32.089844 C 10.445312 30.101562 7.253906 25.378906 7.234375 20.121094 "/>
<path style=" stroke:none;fill-rule:nonzero;fill:rgb(26.274511%,32.549021%,38.82353%);fill-opacity:1;" d="M 20.121094 33.007812 L 20.121094 36.421875 C 28.136719 36.40625 34.953125 30.570312 36.203125 22.65625 L 32.753906 22.65625 C 31.535156 28.667969 26.257812 32.996094 20.121094 33.007812 "/>
</g>
</svg>
