<svg xmlns="http://www.w3.org/2000/svg" width="37" height="48" fill="none"><g clip-path="url(#a)"><path fill="#264DE4" d="M18.449 48 3.364 44.154 0 9.375h37l-3.364 34.687z"/><path fill="#2965F1" d="m30.68 41.906 2.854-29.718H18.551v32.814l12.13-3.094z"/><path fill="#EBEBEB" d="m7.644 25.125.407 4.313h10.397v-4.313zM6.828 16.5l.408 4.313h11.212V16.5zm11.62 19.781L13.25 34.97l-.305-3.376H8.255l.714 6.657 9.48 2.438z"/><path fill="#000" d="M8.664 0h5.606v2.156h-3.261v2.157h3.262v2.156H8.664zm6.73 0H21v1.875h-3.264v.375h3.262v4.313h-5.604v-1.97h3.262V4.22h-3.262zm6.73 0h5.6v1.875h-3.261v.375h3.262v4.313h-5.606v-1.97h3.262V4.22h-3.262V0z"/><path fill="#fff" d="m29.254 25.125.815-8.625H18.45v4.313h6.523l-.407 4.312h-6.116v4.313h5.708l-.51 5.53-5.198 1.313v4.5l9.48-2.438.102-.75 1.12-11.25.103-1.22z"/></g><defs><clipPath id="a"><path fill="#fff" d="M0 0h37v48H0z"/></clipPath></defs></svg>