<svg xmlns="http://www.w3.org/2000/svg" width="27" height="27" fill="none"><g clip-path="url(#a)"><path fill="#fff" d="M13.496 0A13.48 13.48 0 0 0 0 13.496C0 20.96 6.032 27 13.496 27S27 20.96 27 13.496 20.96 0 13.496 0M9.51 7.797l2.552 1.896a.81.81 0 0 1 0 1.3L9.51 12.89a.81.81 0 0 1-.964-1.299l.59-.438h-.255a2.35 2.35 0 0 0-2.383 2.334 2.364 2.364 0 0 0 2.383 2.36c.95.04 1.624-.116 2.223-.502.595-.39 1.122-1.044 1.62-2.168 1.192-2.435 3.163-3.625 5.395-3.642 2.204 0 4.018 1.79 4.018 3.986-.014 2.185-1.83 3.957-4.024 3.944h-.26l.593.439a.81.81 0 1 1-.964 1.299l-2.558-1.896a.81.81 0 0 1 0-1.3l2.558-1.898c.4-.27.815-.216 1.133.17a.81.81 0 0 1-.17 1.13l-.588.438h.262a2.35 2.35 0 0 0 2.383-2.334 2.364 2.364 0 0 0-2.383-2.36c-1.706.014-2.935.701-3.93 2.71-.56 1.288-1.28 2.237-2.2 2.839-.912.597-1.984.805-3.116.757-2.2-.006-4.01-1.786-4.01-3.978.014-2.183 1.828-3.955 4.018-3.946h.253l-.588-.439a.81.81 0 0 1-.167-1.132c.268-.412.873-.379 1.13-.167"/></g><defs><clipPath id="a"><path fill="#fff" d="M0 0h27v27H0z"/></clipPath></defs></svg>