<svg xmlns="http://www.w3.org/2000/svg" width="27" height="24" fill="none"><g clip-path="url(#a)"><path fill="#fff" d="M24.385 0H1.855C.83 0 0 .83 0 1.863V17.16c0 1.024.83 1.855 1.854 1.855h5.65L4.863 22.6a.87.87 0 0 0-.079.918.87.87 0 0 0 .779.481h15.113c.324 0 .63-.184.779-.481a.87.87 0 0 0-.079-.918l-2.641-3.586h5.65c1.023 0 1.854-.831 1.854-1.855V1.863A1.857 1.857 0 0 0 24.385 0m-14.23 12.315c.56.516.13 1.513-.613 1.487a.85.85 0 0 1-.62-.254l-3.42-3.42a.87.87 0 0 1 0-1.233l3.42-3.42a.856.856 0 0 1 1.233 0 .87.87 0 0 1 0 1.233l-2.8 2.8zm1.023 1.924 2.169-9.83a.876.876 0 0 1 1.05-.666c.472.105.77.569.664 1.041l-2.169 9.831a.884.884 0 0 1-1.05.665.87.87 0 0 1-.664-1.04m9.56-4.11-3.42 3.42a.85.85 0 0 1-.621.253c-.744.026-1.172-.971-.612-1.487l2.798-2.808-2.798-2.798c-.805-.814.42-2.038 1.233-1.234l3.42 3.42a.87.87 0 0 1 0 1.233M18.945 22.25H7.295l2.387-3.236h6.875z"/></g><defs><clipPath id="a"><path fill="#fff" d="M0 0h27v24H0z"/></clipPath></defs></svg>