<?xml version="1.0" encoding="UTF-8"?>
<svg xmlns="http://www.w3.org/2000/svg" xmlns:xlink="http://www.w3.org/1999/xlink" width="40px" height="40px" viewBox="0 0 40 40" version="1.1">
<g id="surface1">
<path style=" stroke:none;fill-rule:nonzero;fill:rgb(91.764706%,26.274511%,20.784314%);fill-opacity:1;" d="M 6.945312 12.164062 L 7.296875 12.195312 L 8.25 8.464844 L 8.300781 6.898438 C 7.511719 4.199219 6.503906 2.707031 5.457031 2.695312 C 3.53125 2.699219 1.84375 7.746094 1.339844 15.015625 C 1.441406 14.734375 1.667969 14.953125 1.667969 14.953125 L 3.566406 13.730469 C 3.566406 13.730469 3.660156 13.105469 3.710938 13.136719 C 4.550781 9.507812 5.972656 9.082031 6.945312 12.164062 Z M 6.945312 12.164062 "/>
<path style=" stroke:none;fill-rule:nonzero;fill:rgb(25.882354%,52.156866%,95.686275%);fill-opacity:1;" d="M 9.582031 15.046875 C 9.363281 11.90625 8.917969 9.082031 8.292969 6.929688 L 6.945312 12.164062 C 7.503906 13.917969 7.828125 16.574219 7.828125 19.375 L 7.828125 20.316406 C 8.253906 20.292969 8.652344 21.171875 8.867188 22.617188 C 9.085938 24.0625 9.085938 25.847656 8.867188 27.292969 C 8.652344 28.738281 8.253906 29.617188 7.828125 29.59375 L 5.464844 29.59375 L 5.222656 30.535156 L 5.222656 36.113281 L 5.464844 37.023438 L 7.835938 37.023438 C 9.183594 37.035156 10.378906 33.601562 10.78125 28.558594 C 11.183594 23.511719 10.695312 18.035156 9.582031 15.046875 Z M 9.582031 15.046875 "/>
<path style=" stroke:none;fill-rule:nonzero;fill:rgb(20.392157%,65.882355%,32.549021%);fill-opacity:1;" d="M 3.085938 37.023438 L 5.457031 37.023438 L 5.457031 29.59375 L 3.085938 29.59375 C 2.917969 29.585938 2.75 29.449219 2.59375 29.1875 L 2.25 29.59375 L 1.296875 33.324219 L 1.21875 34.578125 C 1.753906 36.183594 2.410156 37.042969 3.085938 37.023438 Z M 3.085938 37.023438 "/>
<path style=" stroke:none;fill-rule:nonzero;fill:rgb(98.431373%,73.725492%,1.960784%);fill-opacity:1;" d="M 3.085938 12.886719 C 1.757812 12.882812 0.582031 16.195312 0.160156 21.113281 C -0.261719 26.03125 0.167969 31.453125 1.226562 34.578125 L 2.605469 29.1875 C 2.125 28.335938 1.84375 26.347656 1.917969 24.304688 C 1.992188 22.257812 2.402344 20.652344 2.925781 20.363281 C 3.449219 20.070312 3.957031 21.164062 4.171875 23.042969 L 5.550781 17.652344 C 4.957031 14.671875 4.050781 12.914062 3.085938 12.886719 Z M 3.085938 12.886719 "/>
<path style=" stroke:none;fill-rule:nonzero;fill:rgb(37.254903%,38.82353%,40.784314%);fill-opacity:1;" d="M 16.351562 18.308594 C 15.722656 18.332031 15.121094 17.359375 14.675781 15.613281 C 14.222656 13.9375 13.96875 11.597656 13.972656 9.15625 C 13.964844 6.710938 14.21875 4.363281 14.675781 2.699219 C 15.121094 0.953125 15.722656 -0.0195312 16.351562 0.00390625 C 16.949219 -0.03125 17.527344 0.871094 17.953125 2.511719 L 17.503906 4.261719 C 16.839844 1.820312 15.800781 1.890625 15.160156 4.421875 C 14.839844 5.664062 14.664062 7.359375 14.667969 9.121094 C 14.660156 10.886719 14.835938 12.589844 15.160156 13.824219 C 15.46875 15.101562 15.902344 15.804688 16.351562 15.769531 C 16.792969 15.820312 17.222656 15.164062 17.539062 13.949219 C 17.738281 13.085938 17.859375 11.984375 17.882812 10.816406 L 16.351562 10.816406 L 16.351562 8.308594 L 18.507812 8.308594 C 18.53125 8.824219 18.542969 9.347656 18.539062 9.875 C 18.566406 12.042969 18.367188 14.160156 17.988281 15.738281 C 17.558594 17.464844 16.964844 18.398438 16.351562 18.308594 Z M 21.359375 16.648438 C 21.074219 17.753906 20.6875 18.351562 20.285156 18.308594 C 19.886719 18.339844 19.5 17.738281 19.210938 16.648438 C 18.917969 15.554688 18.761719 14.027344 18.773438 12.445312 C 18.761719 10.867188 18.921875 9.34375 19.210938 8.246094 C 19.496094 7.140625 19.886719 6.542969 20.285156 6.585938 C 20.6875 6.558594 21.074219 7.15625 21.359375 8.246094 C 21.652344 9.339844 21.8125 10.867188 21.800781 12.445312 C 21.804688 14.023438 21.648438 15.542969 21.359375 16.648438 Z M 19.683594 14.984375 C 19.835938 15.652344 20.054688 16.019531 20.285156 15.988281 C 20.511719 15.992188 20.726562 15.628906 20.882812 14.984375 C 21.050781 14.292969 21.140625 13.367188 21.132812 12.414062 C 21.144531 11.460938 21.054688 10.535156 20.882812 9.84375 C 20.726562 9.203125 20.511719 8.839844 20.285156 8.839844 C 20.058594 8.832031 19.839844 9.195312 19.683594 9.84375 C 19.515625 10.535156 19.425781 11.460938 19.4375 12.414062 C 19.421875 13.371094 19.511719 14.300781 19.683594 14.984375 Z M 24.652344 16.648438 C 24.367188 17.753906 23.980469 18.351562 23.578125 18.308594 C 23.175781 18.339844 22.792969 17.738281 22.503906 16.648438 C 22.210938 15.554688 22.050781 14.027344 22.0625 12.445312 C 22.054688 10.867188 22.214844 9.339844 22.503906 8.246094 C 22.789062 7.140625 23.179688 6.542969 23.578125 6.585938 C 23.980469 6.554688 24.367188 7.152344 24.652344 8.246094 C 24.945312 9.339844 25.105469 10.867188 25.09375 12.445312 C 25.101562 14.027344 24.941406 15.550781 24.652344 16.648438 Z M 22.984375 14.984375 C 23.136719 15.652344 23.355469 16.019531 23.585938 15.988281 C 23.8125 15.992188 24.027344 15.628906 24.183594 14.984375 C 24.351562 14.292969 24.441406 13.367188 24.433594 12.414062 C 24.441406 11.460938 24.355469 10.535156 24.183594 9.84375 C 24.027344 9.203125 23.8125 8.839844 23.585938 8.839844 C 23.359375 8.832031 23.140625 9.195312 22.984375 9.84375 C 22.816406 10.535156 22.726562 11.460938 22.734375 12.414062 C 22.722656 13.371094 22.8125 14.300781 22.984375 14.984375 Z M 26.820312 23.605469 C 26.519531 23.652344 26.21875 23.277344 25.980469 22.539062 C 25.765625 21.910156 25.597656 21.066406 25.492188 20.09375 L 26.070312 19.15625 C 26.132812 19.734375 26.230469 20.242188 26.359375 20.628906 C 26.492188 21.042969 26.660156 21.261719 26.832031 21.253906 C 27.050781 21.289062 27.265625 20.972656 27.425781 20.378906 C 27.578125 19.664062 27.65625 18.742188 27.640625 17.808594 L 27.640625 16.960938 L 27.617188 16.960938 C 27.421875 17.867188 27.128906 18.367188 26.824219 18.308594 C 26.441406 18.3125 26.074219 17.6875 25.8125 16.582031 C 25.53125 15.480469 25.375 13.976562 25.382812 12.414062 C 25.375 10.84375 25.53125 9.328125 25.8125 8.210938 C 26.074219 7.105469 26.441406 6.480469 26.824219 6.488281 C 26.984375 6.480469 27.140625 6.609375 27.289062 6.863281 C 27.414062 7.082031 27.527344 7.402344 27.617188 7.808594 L 27.640625 7.808594 L 27.640625 6.867188 L 28.265625 6.867188 L 28.265625 17.460938 C 28.300781 19.148438 28.15625 20.816406 27.867188 22.070312 C 27.589844 23.128906 27.210938 23.6875 26.824219 23.609375 Z M 26.871094 15.988281 C 27.089844 16.003906 27.304688 15.636719 27.449219 14.984375 C 27.601562 14.28125 27.6875 13.375 27.679688 12.445312 C 27.6875 11.507812 27.605469 10.589844 27.449219 9.875 C 27.304688 9.214844 27.09375 8.835938 26.871094 8.839844 C 26.644531 8.828125 26.425781 9.207031 26.277344 9.875 C 26.113281 10.574219 26.023438 11.496094 26.027344 12.445312 C 26.023438 13.386719 26.109375 14.304688 26.277344 14.984375 C 26.429688 15.640625 26.644531 16.007812 26.871094 15.988281 Z M 29.378906 0.628906 L 29.378906 17.964844 L 28.714844 17.964844 L 28.714844 0.628906 Z M 31.1875 18.308594 C 30.789062 18.351562 30.402344 17.738281 30.125 16.617188 C 29.839844 15.503906 29.6875 13.984375 29.699219 12.414062 C 29.683594 10.839844 29.832031 9.308594 30.117188 8.183594 C 30.378906 7.105469 30.742188 6.503906 31.125 6.523438 C 31.296875 6.515625 31.46875 6.644531 31.628906 6.902344 C 31.773438 7.117188 31.90625 7.460938 32.015625 7.90625 C 32.109375 8.265625 32.191406 8.664062 32.261719 9.09375 C 32.320312 9.472656 32.367188 9.847656 32.414062 10.253906 L 32.488281 10.914062 L 30.476562 14.175781 C 30.601562 15.296875 30.890625 16.003906 31.203125 15.960938 C 31.507812 15.96875 31.792969 15.347656 31.949219 14.332031 L 32.460938 15.679688 C 32.335938 16.414062 32.167969 17.03125 31.972656 17.496094 C 31.738281 18.066406 31.464844 18.347656 31.1875 18.3125 Z M 30.347656 12.226562 L 31.695312 10.03125 C 31.652344 9.632812 31.578125 9.308594 31.476562 9.121094 C 31.371094 8.898438 31.253906 8.777344 31.132812 8.773438 C 30.925781 8.796875 30.730469 9.132812 30.589844 9.714844 C 30.417969 10.375 30.332031 11.289062 30.347656 12.222656 Z M 30.347656 12.226562 "/>
<path style=" stroke:none;fill-rule:nonzero;fill:rgb(37.254903%,38.82353%,40.784314%);fill-opacity:1;" d="M 16.265625 31.726562 C 16.285156 33.046875 16.167969 34.339844 15.9375 35.300781 C 15.671875 36.175781 15.328125 36.613281 14.984375 36.523438 L 14.308594 36.523438 L 14.308594 27.085938 L 15.054688 27.085938 C 15.382812 27.011719 15.707031 27.449219 15.949219 28.308594 C 16.167969 29.242188 16.28125 30.46875 16.265625 31.726562 Z M 15.847656 31.789062 C 15.847656 29.527344 15.574219 28.402344 15.039062 28.402344 L 14.695312 28.402344 L 14.695312 35.273438 L 14.972656 35.273438 C 15.550781 35.238281 15.847656 34.078125 15.847656 31.789062 Z M 15.847656 31.789062 "/>
<path style=" stroke:none;fill-rule:nonzero;fill:rgb(37.254903%,38.82353%,40.784314%);fill-opacity:1;" d="M 17.539062 36.679688 C 17.289062 36.738281 17.050781 36.382812 16.871094 35.707031 C 16.703125 34.980469 16.617188 34.019531 16.632812 33.042969 C 16.617188 32.046875 16.695312 31.066406 16.855469 30.285156 C 17.011719 29.613281 17.234375 29.246094 17.464844 29.28125 C 17.675781 29.234375 17.882812 29.542969 18.035156 30.128906 C 18.179688 30.773438 18.253906 31.617188 18.242188 32.476562 L 18.242188 33.289062 L 17.023438 33.289062 C 17.023438 33.871094 17.074219 34.441406 17.167969 34.890625 C 17.269531 35.285156 17.410156 35.492188 17.554688 35.453125 C 17.65625 35.460938 17.757812 35.417969 17.859375 35.328125 C 17.960938 35.230469 18.058594 35.09375 18.152344 34.921875 L 18.152344 36.152344 C 18.0625 36.332031 17.964844 36.460938 17.863281 36.527344 C 17.757812 36.644531 17.648438 36.695312 17.539062 36.679688 Z M 17.464844 30.410156 C 17.355469 30.390625 17.246094 30.5625 17.167969 30.882812 C 17.085938 31.261719 17.039062 31.734375 17.03125 32.230469 L 17.867188 32.230469 C 17.875 31.742188 17.832031 31.257812 17.753906 30.882812 C 17.679688 30.5625 17.574219 30.390625 17.464844 30.414062 Z M 17.464844 30.410156 "/>
<path style=" stroke:none;fill-rule:nonzero;fill:rgb(37.254903%,38.82353%,40.784314%);fill-opacity:1;" d="M 19.101562 36.554688 L 18.402344 29.40625 L 18.8125 29.40625 L 19.179688 33.578125 C 19.234375 34.121094 19.273438 34.6875 19.289062 35.269531 L 19.308594 35.269531 C 19.332031 34.695312 19.371094 34.128906 19.417969 33.578125 L 19.785156 29.40625 L 20.203125 29.40625 L 19.507812 36.554688 Z M 19.101562 36.554688 "/>
<path style=" stroke:none;fill-rule:nonzero;fill:rgb(37.254903%,38.82353%,40.784314%);fill-opacity:1;" d="M 21.292969 36.679688 C 21.046875 36.738281 20.804688 36.382812 20.628906 35.707031 C 20.460938 34.980469 20.375 34.019531 20.390625 33.042969 C 20.375 32.046875 20.453125 31.066406 20.613281 30.285156 C 20.769531 29.613281 20.992188 29.246094 21.222656 29.28125 C 21.433594 29.234375 21.640625 29.542969 21.792969 30.128906 C 21.9375 30.773438 22.011719 31.617188 22 32.476562 L 22 33.289062 L 20.78125 33.289062 C 20.78125 33.871094 20.832031 34.441406 20.925781 34.890625 C 21.027344 35.285156 21.167969 35.492188 21.308594 35.453125 C 21.414062 35.460938 21.515625 35.417969 21.613281 35.328125 C 21.71875 35.230469 21.816406 35.09375 21.910156 34.921875 L 21.910156 36.152344 C 21.820312 36.332031 21.722656 36.460938 21.621094 36.527344 C 21.515625 36.644531 21.40625 36.695312 21.292969 36.679688 Z M 21.222656 30.410156 C 21.109375 30.390625 21.003906 30.5625 20.925781 30.882812 C 20.84375 31.261719 20.796875 31.734375 20.789062 32.230469 L 21.613281 32.230469 C 21.621094 31.742188 21.582031 31.257812 21.503906 30.882812 C 21.433594 30.558594 21.328125 30.386719 21.222656 30.414062 Z M 21.222656 30.410156 "/>
<path style=" stroke:none;fill-rule:nonzero;fill:rgb(37.254903%,38.82353%,40.784314%);fill-opacity:1;" d="M 22.832031 36.554688 L 22.449219 36.554688 L 22.449219 26.492188 L 22.832031 26.492188 Z M 22.832031 36.554688 "/>
<path style=" stroke:none;fill-rule:nonzero;fill:rgb(37.254903%,38.82353%,40.784314%);fill-opacity:1;" d="M 25.003906 32.949219 C 25.015625 33.941406 24.933594 34.917969 24.773438 35.675781 C 24.605469 36.351562 24.371094 36.707031 24.128906 36.648438 C 23.972656 36.660156 23.820312 36.507812 23.683594 36.214844 C 23.550781 35.90625 23.445312 35.460938 23.378906 34.929688 C 23.304688 34.3125 23.269531 33.636719 23.273438 32.953125 C 23.257812 31.96875 23.335938 30.992188 23.496094 30.226562 C 23.664062 29.550781 23.898438 29.195312 24.136719 29.253906 C 24.375 29.214844 24.601562 29.582031 24.761719 30.257812 C 24.933594 30.992188 25.019531 31.960938 25.003906 32.949219 Z M 23.675781 32.949219 C 23.675781 34.609375 23.828125 35.425781 24.136719 35.425781 C 24.441406 35.425781 24.601562 34.609375 24.601562 32.949219 C 24.601562 31.320312 24.449219 30.503906 24.136719 30.503906 C 24 30.464844 23.867188 30.699219 23.785156 31.132812 C 23.703125 31.683594 23.664062 32.3125 23.671875 32.949219 Z M 23.675781 32.949219 "/>
<path style=" stroke:none;fill-rule:nonzero;fill:rgb(37.254903%,38.82353%,40.784314%);fill-opacity:1;" d="M 26.382812 36.679688 C 26.171875 36.726562 25.972656 36.359375 25.84375 35.707031 L 25.820312 35.707031 C 25.835938 36.304688 25.84375 36.679688 25.84375 36.804688 L 25.84375 39.722656 L 25.460938 39.722656 L 25.460938 29.40625 L 25.773438 29.40625 C 25.78125 29.53125 25.796875 29.839844 25.828125 30.347656 L 25.84375 30.347656 C 25.96875 29.679688 26.164062 29.277344 26.375 29.25 C 26.585938 29.226562 26.785156 29.585938 26.917969 30.222656 C 27.175781 31.902344 27.175781 33.996094 26.917969 35.675781 C 26.789062 36.328125 26.589844 36.699219 26.382812 36.679688 Z M 26.285156 30.507812 C 26.160156 30.46875 26.035156 30.667969 25.949219 31.039062 C 25.867188 31.542969 25.832031 32.136719 25.84375 32.730469 L 25.84375 32.953125 C 25.832031 33.605469 25.867188 34.261719 25.949219 34.832031 C 26.03125 35.238281 26.160156 35.460938 26.292969 35.425781 C 26.421875 35.445312 26.539062 35.191406 26.605469 34.769531 C 26.6875 34.207031 26.726562 33.5625 26.71875 32.917969 C 26.726562 32.285156 26.691406 31.65625 26.613281 31.101562 C 26.53125 30.722656 26.414062 30.503906 26.285156 30.503906 Z M 26.285156 30.507812 "/>
<path style=" stroke:none;fill-rule:nonzero;fill:rgb(37.254903%,38.82353%,40.784314%);fill-opacity:1;" d="M 28.351562 36.679688 C 28.105469 36.738281 27.863281 36.382812 27.6875 35.707031 C 27.519531 34.980469 27.433594 34.019531 27.449219 33.042969 C 27.433594 32.046875 27.511719 31.066406 27.671875 30.285156 C 27.828125 29.613281 28.050781 29.246094 28.28125 29.28125 C 28.492188 29.234375 28.699219 29.542969 28.847656 30.128906 C 28.996094 30.773438 29.070312 31.617188 29.058594 32.476562 L 29.058594 33.289062 L 27.839844 33.289062 C 27.839844 33.871094 27.890625 34.441406 27.984375 34.890625 C 28.085938 35.285156 28.226562 35.492188 28.367188 35.453125 C 28.472656 35.460938 28.574219 35.417969 28.671875 35.328125 C 28.773438 35.230469 28.875 35.09375 28.96875 34.921875 L 28.96875 36.152344 C 28.878906 36.332031 28.78125 36.460938 28.679688 36.527344 C 28.574219 36.648438 28.464844 36.699219 28.351562 36.679688 Z M 28.289062 30.410156 C 28.175781 30.390625 28.070312 30.5625 27.992188 30.882812 C 27.910156 31.261719 27.863281 31.734375 27.855469 32.230469 L 28.679688 32.230469 C 28.6875 31.742188 28.648438 31.257812 28.570312 30.882812 C 28.5 30.558594 28.394531 30.386719 28.289062 30.414062 Z M 28.289062 30.410156 "/>
<path style=" stroke:none;fill-rule:nonzero;fill:rgb(37.254903%,38.82353%,40.784314%);fill-opacity:1;" d="M 30.4375 29.28125 C 30.5 29.28125 30.566406 29.300781 30.628906 29.34375 L 30.589844 30.753906 C 30.53125 30.703125 30.476562 30.683594 30.421875 30.691406 C 30.277344 30.667969 30.140625 30.886719 30.042969 31.289062 C 29.945312 31.707031 29.894531 32.257812 29.898438 32.824219 L 29.898438 36.554688 L 29.515625 36.554688 L 29.515625 29.40625 L 29.820312 29.40625 L 29.867188 30.660156 L 29.882812 30.660156 C 29.9375 30.25 30.023438 29.902344 30.125 29.65625 C 30.214844 29.410156 30.324219 29.28125 30.4375 29.28125 Z M 30.4375 29.28125 "/>
<path style=" stroke:none;fill-rule:nonzero;fill:rgb(37.254903%,38.82353%,40.784314%);fill-opacity:1;" d="M 32.71875 36.554688 L 32.328125 36.554688 L 32.328125 28.433594 L 31.613281 28.433594 L 31.613281 27.117188 L 33.425781 27.117188 L 33.425781 28.433594 L 32.710938 28.433594 L 32.710938 36.554688 Z M 32.71875 36.554688 "/>
<path style=" stroke:none;fill-rule:nonzero;fill:rgb(37.254903%,38.82353%,40.784314%);fill-opacity:1;" d="M 35.378906 32.949219 C 35.390625 33.941406 35.308594 34.917969 35.144531 35.675781 C 34.980469 36.351562 34.746094 36.707031 34.503906 36.648438 C 34.347656 36.660156 34.195312 36.507812 34.058594 36.214844 C 33.925781 35.90625 33.820312 35.460938 33.753906 34.929688 C 33.679688 34.308594 33.644531 33.632812 33.648438 32.949219 C 33.632812 31.960938 33.710938 30.988281 33.871094 30.222656 C 34.039062 29.546875 34.273438 29.191406 34.511719 29.25 C 34.75 29.207031 34.976562 29.574219 35.136719 30.253906 C 35.304688 30.996094 35.390625 31.960938 35.378906 32.949219 Z M 34.050781 32.949219 C 34.050781 34.609375 34.199219 35.425781 34.511719 35.425781 C 34.816406 35.425781 34.976562 34.609375 34.976562 32.949219 C 34.976562 31.320312 34.824219 30.503906 34.511719 30.503906 C 34.375 30.464844 34.242188 30.699219 34.160156 31.132812 C 34.074219 31.675781 34.035156 32.3125 34.046875 32.949219 Z M 34.050781 32.949219 "/>
<path style=" stroke:none;fill-rule:nonzero;fill:rgb(37.254903%,38.82353%,40.784314%);fill-opacity:1;" d="M 37.445312 32.949219 C 37.460938 33.941406 37.375 34.914062 37.214844 35.675781 C 37.046875 36.351562 36.8125 36.707031 36.574219 36.648438 C 36.417969 36.660156 36.261719 36.507812 36.125 36.214844 C 35.992188 35.90625 35.886719 35.460938 35.820312 34.929688 C 35.746094 34.3125 35.710938 33.636719 35.714844 32.953125 C 35.699219 31.96875 35.78125 30.992188 35.941406 30.226562 C 36.105469 29.550781 36.339844 29.195312 36.582031 29.253906 C 36.816406 29.214844 37.046875 29.582031 37.207031 30.257812 C 37.371094 31 37.457031 31.964844 37.445312 32.949219 Z M 36.117188 32.949219 C 36.117188 34.609375 36.269531 35.425781 36.582031 35.425781 C 36.886719 35.425781 37.046875 34.609375 37.046875 32.949219 C 37.046875 31.320312 36.894531 30.503906 36.582031 30.503906 C 36.445312 30.464844 36.3125 30.699219 36.226562 31.132812 C 36.144531 31.675781 36.105469 32.3125 36.117188 32.949219 Z M 36.117188 32.949219 "/>
<path style=" stroke:none;fill-rule:nonzero;fill:rgb(37.254903%,38.82353%,40.784314%);fill-opacity:1;" d="M 38.277344 36.554688 L 37.894531 36.554688 L 37.894531 26.492188 L 38.277344 26.492188 Z M 38.277344 36.554688 "/>
<path style=" stroke:none;fill-rule:nonzero;fill:rgb(37.254903%,38.82353%,40.784314%);fill-opacity:1;" d="M 40.058594 34.515625 C 40.066406 35.140625 39.992188 35.742188 39.867188 36.117188 C 39.699219 36.535156 39.503906 36.734375 39.304688 36.679688 C 39.105469 36.710938 38.902344 36.5625 38.71875 36.246094 L 38.71875 34.925781 C 38.90625 35.28125 39.113281 35.484375 39.320312 35.519531 C 39.558594 35.519531 39.679688 35.238281 39.679688 34.675781 C 39.683594 34.515625 39.667969 34.359375 39.640625 34.238281 C 39.605469 34.085938 39.558594 33.957031 39.511719 33.863281 C 39.429688 33.695312 39.34375 33.550781 39.253906 33.429688 C 39.097656 33.238281 38.949219 32.90625 38.832031 32.457031 C 38.753906 32.109375 38.714844 31.660156 38.71875 31.203125 C 38.710938 30.628906 38.785156 30.085938 38.910156 29.792969 C 39.066406 29.421875 39.246094 29.25 39.425781 29.289062 C 39.632812 29.28125 39.84375 29.453125 40.035156 29.792969 L 39.90625 30.921875 C 39.75 30.644531 39.582031 30.484375 39.410156 30.453125 C 39.199219 30.453125 39.105469 30.671875 39.105469 31.140625 C 39.105469 31.371094 39.132812 31.585938 39.183594 31.707031 C 39.292969 31.972656 39.414062 32.183594 39.535156 32.332031 C 39.652344 32.488281 39.761719 32.699219 39.867188 32.960938 C 39.929688 33.121094 39.984375 33.347656 40.015625 33.617188 C 40.042969 33.90625 40.058594 34.210938 40.058594 34.515625 Z M 40.058594 34.515625 "/>
</g>
</svg>
