<?xml version="1.0" encoding="UTF-8"?>
<svg xmlns="http://www.w3.org/2000/svg" xmlns:xlink="http://www.w3.org/1999/xlink" width="40px" height="40px" viewBox="0 0 40 40" version="1.1">
<g id="surface1">
<path style=" stroke:none;fill-rule:nonzero;fill:rgb(27.450982%,51.372552%,92.941177%);fill-opacity:1;" d="M 24.707031 0 L 15.21875 0 C 14.613281 -0.00390625 14.054688 0.402344 13.753906 1.0625 L 9.011719 11.382812 C 8.707031 12.039062 8.707031 12.851562 9.011719 13.507812 L 13.753906 23.828125 C 14.058594 24.484375 14.613281 24.886719 15.21875 24.890625 L 24.707031 24.890625 C 25.3125 24.894531 25.871094 24.488281 26.167969 23.828125 L 30.910156 13.507812 C 31.214844 12.851562 31.214844 12.039062 30.910156 11.382812 L 26.167969 1.0625 C 25.867188 0.40625 25.308594 0 24.707031 0 Z M 24.707031 0 "/>
<path style=" stroke:none;fill-rule:nonzero;fill:rgb(25.490198%,48.235294%,86.274511%);fill-opacity:1;" d="M 23.882812 9.789062 L 22.183594 9.789062 L 21.964844 11.042969 L 20.96875 9.789062 L 19.257812 9.726562 L 19.132812 11.144531 L 18.042969 9.777344 L 16.351562 11.90625 L 17.507812 13.359375 L 16.304688 13.417969 L 16.34375 15.566406 L 23.742188 24.855469 L 24.683594 24.855469 C 25.289062 24.855469 25.847656 24.449219 26.144531 23.792969 L 29.398438 16.71875 Z M 23.882812 9.789062 "/>
<path style=" stroke:none;fill-rule:nonzero;fill:rgb(100%,100%,100%);fill-opacity:1;" d="M 17.835938 11.925781 L 16.359375 11.925781 C 16.300781 11.925781 16.246094 11.898438 16.207031 11.847656 C 16.167969 11.796875 16.144531 11.726562 16.144531 11.652344 L 16.144531 9.789062 C 16.144531 9.714844 16.167969 9.648438 16.207031 9.597656 C 16.246094 9.546875 16.300781 9.515625 16.359375 9.515625 L 17.835938 9.515625 C 17.894531 9.515625 17.949219 9.546875 17.988281 9.597656 C 18.03125 9.648438 18.054688 9.714844 18.054688 9.789062 L 18.054688 11.644531 C 18.054688 11.796875 17.957031 11.921875 17.835938 11.925781 Z M 17.835938 11.925781 "/>
<path style=" stroke:none;fill-rule:nonzero;fill:rgb(100%,100%,100%);fill-opacity:1;" d="M 20.753906 9.519531 L 19.273438 9.519531 C 19.21875 9.515625 19.164062 9.546875 19.121094 9.597656 C 19.082031 9.648438 19.058594 9.714844 19.058594 9.789062 L 19.058594 11.644531 C 19.058594 11.714844 19.082031 11.785156 19.121094 11.835938 C 19.164062 11.886719 19.21875 11.914062 19.273438 11.914062 L 20.753906 11.914062 C 20.808594 11.914062 20.863281 11.886719 20.90625 11.835938 C 20.945312 11.785156 20.96875 11.714844 20.96875 11.644531 L 20.96875 9.789062 C 20.96875 9.714844 20.945312 9.648438 20.90625 9.597656 C 20.863281 9.546875 20.808594 9.515625 20.753906 9.519531 Z M 20.59375 11.445312 L 19.441406 11.445312 L 19.441406 10 L 20.59375 10 Z M 20.59375 11.445312 "/>
<path style=" stroke:none;fill-rule:nonzero;fill:rgb(100%,100%,100%);fill-opacity:1;" d="M 23.667969 9.519531 L 22.191406 9.519531 C 22.132812 9.515625 22.078125 9.546875 22.039062 9.597656 C 21.996094 9.648438 21.976562 9.714844 21.976562 9.789062 L 21.976562 11.644531 C 21.976562 11.714844 21.996094 11.785156 22.039062 11.835938 C 22.078125 11.886719 22.132812 11.914062 22.191406 11.914062 L 23.667969 11.914062 C 23.726562 11.914062 23.78125 11.886719 23.820312 11.835938 C 23.863281 11.785156 23.882812 11.714844 23.882812 11.644531 L 23.882812 9.789062 C 23.882812 9.714844 23.863281 9.648438 23.820312 9.597656 C 23.78125 9.546875 23.726562 9.515625 23.667969 9.519531 Z M 23.507812 11.445312 L 22.359375 11.445312 L 22.359375 10 L 23.507812 10 Z M 23.507812 11.445312 "/>
<path style=" stroke:none;fill-rule:nonzero;fill:rgb(100%,100%,100%);fill-opacity:1;" d="M 17.835938 13.179688 L 16.359375 13.179688 C 16.300781 13.179688 16.246094 13.207031 16.207031 13.257812 C 16.167969 13.308594 16.144531 13.378906 16.144531 13.449219 L 16.144531 15.304688 C 16.144531 15.375 16.167969 15.445312 16.207031 15.496094 C 16.246094 15.546875 16.300781 15.574219 16.359375 15.574219 L 17.835938 15.574219 C 17.894531 15.574219 17.949219 15.546875 17.988281 15.496094 C 18.03125 15.445312 18.054688 15.375 18.054688 15.304688 L 18.054688 13.449219 C 18.054688 13.378906 18.03125 13.308594 17.988281 13.257812 C 17.949219 13.207031 17.894531 13.179688 17.835938 13.179688 Z M 17.675781 15.105469 L 16.527344 15.105469 L 16.527344 13.660156 L 17.675781 13.660156 Z M 17.675781 15.105469 "/>
<path style=" stroke:none;fill-rule:nonzero;fill:rgb(100%,100%,100%);fill-opacity:1;" d="M 20.753906 15.585938 L 19.273438 15.585938 C 19.21875 15.585938 19.164062 15.558594 19.121094 15.507812 C 19.082031 15.457031 19.058594 15.386719 19.058594 15.316406 L 19.058594 13.460938 C 19.058594 13.386719 19.082031 13.316406 19.121094 13.265625 C 19.164062 13.214844 19.21875 13.1875 19.273438 13.1875 L 20.753906 13.1875 C 20.808594 13.1875 20.863281 13.214844 20.90625 13.265625 C 20.945312 13.316406 20.96875 13.386719 20.96875 13.460938 L 20.96875 15.316406 C 20.964844 15.464844 20.871094 15.582031 20.753906 15.585938 Z M 20.753906 15.585938 "/>
<path style=" stroke:none;fill-rule:nonzero;fill:rgb(100%,100%,100%);fill-opacity:1;" d="M 23.667969 15.585938 L 22.191406 15.585938 C 22.132812 15.585938 22.078125 15.558594 22.039062 15.507812 C 21.996094 15.457031 21.976562 15.386719 21.976562 15.316406 L 21.976562 13.460938 C 21.976562 13.386719 21.996094 13.316406 22.039062 13.265625 C 22.078125 13.214844 22.132812 13.1875 22.191406 13.1875 L 23.667969 13.1875 C 23.726562 13.1875 23.78125 13.214844 23.820312 13.265625 C 23.863281 13.316406 23.882812 13.386719 23.882812 13.460938 L 23.882812 15.316406 C 23.882812 15.464844 23.785156 15.582031 23.667969 15.585938 Z M 23.667969 15.585938 "/>
<path style=" stroke:none;fill-rule:nonzero;fill:rgb(47.843137%,47.843137%,47.843137%);fill-opacity:1;" d="M 13.242188 29.496094 L 14.601562 29.496094 L 14.601562 31.824219 C 14.394531 31.910156 14.179688 31.976562 13.960938 32.011719 C 13.742188 32.054688 13.523438 32.074219 13.300781 32.074219 C 12.816406 32.109375 12.34375 31.882812 12.003906 31.449219 C 11.679688 30.960938 11.519531 30.332031 11.550781 29.695312 C 11.519531 29.046875 11.707031 28.410156 12.0625 27.941406 C 12.445312 27.5 12.957031 27.273438 13.476562 27.308594 C 13.851562 27.304688 14.226562 27.402344 14.570312 27.589844 L 14.355469 28.222656 C 14.070312 28.054688 13.765625 27.964844 13.453125 27.960938 C 13.101562 27.941406 12.761719 28.109375 12.515625 28.421875 C 12.273438 28.773438 12.152344 29.230469 12.171875 29.695312 C 12.148438 30.160156 12.257812 30.621094 12.484375 30.988281 C 12.714844 31.292969 13.039062 31.453125 13.371094 31.429688 C 13.578125 31.429688 13.789062 31.398438 13.992188 31.34375 L 13.992188 30.148438 L 13.226562 30.148438 L 13.226562 29.496094 Z M 13.242188 29.496094 "/>
<path style=" stroke:none;fill-rule:nonzero;fill:rgb(47.843137%,47.843137%,47.843137%);fill-opacity:1;" d="M 17.902344 30.246094 C 17.921875 30.734375 17.796875 31.214844 17.550781 31.59375 C 17.296875 31.921875 16.941406 32.097656 16.574219 32.074219 C 16.332031 32.082031 16.089844 32.003906 15.878906 31.851562 C 15.679688 31.699219 15.519531 31.476562 15.417969 31.210938 C 15.308594 30.90625 15.253906 30.578125 15.257812 30.246094 C 15.234375 29.761719 15.359375 29.285156 15.609375 28.914062 C 15.863281 28.578125 16.222656 28.402344 16.589844 28.433594 C 16.953125 28.40625 17.304688 28.585938 17.550781 28.921875 C 17.792969 29.292969 17.917969 29.765625 17.902344 30.246094 Z M 15.863281 30.246094 C 15.863281 31.058594 16.105469 31.460938 16.582031 31.460938 C 17.054688 31.460938 17.292969 31.0625 17.292969 30.246094 C 17.292969 29.445312 17.054688 29.042969 16.582031 29.042969 C 16.371094 29.019531 16.164062 29.140625 16.039062 29.355469 C 15.910156 29.625 15.847656 29.933594 15.863281 30.246094 Z M 15.863281 30.246094 "/>
<path style=" stroke:none;fill-rule:nonzero;fill:rgb(47.843137%,47.843137%,47.843137%);fill-opacity:1;" d="M 21.0625 30.246094 C 21.085938 30.734375 20.960938 31.214844 20.710938 31.59375 C 20.460938 31.921875 20.101562 32.097656 19.738281 32.074219 C 19.496094 32.082031 19.253906 32.003906 19.042969 31.851562 C 18.84375 31.699219 18.679688 31.476562 18.578125 31.210938 C 18.472656 30.90625 18.417969 30.578125 18.421875 30.246094 C 18.398438 29.761719 18.523438 29.285156 18.773438 28.914062 C 19.027344 28.578125 19.386719 28.402344 19.753906 28.433594 C 20.117188 28.40625 20.46875 28.585938 20.714844 28.921875 C 20.957031 29.292969 21.082031 29.765625 21.0625 30.246094 Z M 19.027344 30.246094 C 19.027344 31.058594 19.265625 31.460938 19.746094 31.460938 C 20.21875 31.460938 20.457031 31.0625 20.457031 30.246094 C 20.457031 29.445312 20.21875 29.042969 19.746094 29.042969 C 19.535156 29.019531 19.328125 29.140625 19.203125 29.355469 C 19.074219 29.625 19.011719 29.933594 19.027344 30.246094 Z M 19.027344 30.246094 "/>
<path style=" stroke:none;fill-rule:nonzero;fill:rgb(47.843137%,47.843137%,47.843137%);fill-opacity:1;" d="M 24.109375 28.503906 L 24.109375 28.914062 L 23.628906 29.023438 C 23.675781 29.109375 23.714844 29.199219 23.742188 29.296875 C 23.769531 29.40625 23.785156 29.519531 23.78125 29.636719 C 23.792969 29.960938 23.683594 30.277344 23.484375 30.488281 C 23.25 30.710938 22.957031 30.824219 22.664062 30.800781 C 22.582031 30.800781 22.5 30.789062 22.421875 30.769531 C 22.3125 30.835938 22.242188 30.96875 22.230469 31.121094 C 22.230469 31.195312 22.265625 31.265625 22.320312 31.300781 C 22.421875 31.351562 22.535156 31.371094 22.644531 31.359375 L 23.132812 31.359375 C 23.382812 31.335938 23.632812 31.425781 23.835938 31.613281 C 24 31.789062 24.089844 32.050781 24.074219 32.324219 C 24.085938 32.695312 23.9375 33.050781 23.683594 33.246094 C 23.339844 33.488281 22.945312 33.597656 22.550781 33.566406 C 22.25 33.59375 21.945312 33.503906 21.679688 33.316406 C 21.484375 33.160156 21.371094 32.882812 21.378906 32.59375 C 21.371094 32.394531 21.429688 32.199219 21.535156 32.050781 C 21.660156 31.894531 21.820312 31.785156 21.992188 31.742188 C 21.914062 31.699219 21.84375 31.628906 21.792969 31.539062 C 21.742188 31.453125 21.714844 31.347656 21.710938 31.238281 C 21.710938 31.121094 21.742188 31.003906 21.800781 30.90625 C 21.875 30.796875 21.964844 30.707031 22.0625 30.636719 C 21.917969 30.554688 21.796875 30.425781 21.710938 30.257812 C 21.621094 30.070312 21.574219 29.855469 21.578125 29.632812 C 21.5625 29.300781 21.667969 28.976562 21.863281 28.75 C 22.097656 28.527344 22.386719 28.414062 22.679688 28.441406 C 22.757812 28.441406 22.835938 28.449219 22.925781 28.460938 C 23.015625 28.46875 23.078125 28.492188 23.125 28.5 L 24.109375 28.5 Z M 21.910156 32.554688 C 21.910156 32.710938 21.976562 32.855469 22.089844 32.925781 C 22.238281 33.023438 22.40625 33.070312 22.574219 33.054688 C 22.824219 33.074219 23.070312 33.015625 23.292969 32.886719 C 23.4375 32.800781 23.53125 32.621094 23.535156 32.425781 C 23.542969 32.296875 23.496094 32.171875 23.40625 32.105469 C 23.253906 32.023438 23.085938 31.988281 22.917969 32.003906 L 22.472656 32.003906 C 22.324219 31.996094 22.183594 32.046875 22.0625 32.152344 C 21.964844 32.246094 21.90625 32.398438 21.910156 32.554688 Z M 22.167969 29.636719 C 22.160156 29.824219 22.207031 30.003906 22.300781 30.148438 C 22.40625 30.277344 22.550781 30.34375 22.695312 30.328125 C 23.039062 30.328125 23.214844 30.097656 23.214844 29.636719 C 23.222656 29.445312 23.179688 29.253906 23.085938 29.101562 C 22.863281 28.851562 22.527344 28.847656 22.304688 29.09375 C 22.203125 29.246094 22.15625 29.441406 22.167969 29.636719 Z M 22.167969 29.636719 "/>
<path style=" stroke:none;fill-rule:nonzero;fill:rgb(47.843137%,47.843137%,47.843137%);fill-opacity:1;" d="M 25.21875 32.011719 L 24.625 32.011719 L 24.625 27.078125 L 25.21875 27.078125 Z M 25.21875 32.011719 "/>
<path style=" stroke:none;fill-rule:nonzero;fill:rgb(47.843137%,47.843137%,47.843137%);fill-opacity:1;" d="M 27.285156 32.074219 C 26.90625 32.097656 26.535156 31.925781 26.265625 31.59375 C 26.007812 31.234375 25.875 30.761719 25.898438 30.277344 C 25.875 29.789062 25.996094 29.308594 26.242188 28.925781 C 26.476562 28.589844 26.820312 28.410156 27.175781 28.433594 C 27.5 28.410156 27.816406 28.5625 28.046875 28.855469 C 28.269531 29.171875 28.386719 29.59375 28.363281 30.019531 L 28.363281 30.417969 L 26.503906 30.417969 C 26.492188 30.707031 26.574219 30.984375 26.726562 31.199219 C 26.882812 31.390625 27.09375 31.488281 27.308594 31.46875 C 27.464844 31.472656 27.621094 31.453125 27.773438 31.410156 C 27.929688 31.367188 28.082031 31.304688 28.226562 31.21875 L 28.226562 31.820312 C 28.089844 31.910156 27.941406 31.972656 27.789062 32.003906 C 27.625 32.054688 27.457031 32.078125 27.285156 32.074219 Z M 27.175781 29.003906 C 27.003906 28.992188 26.839844 29.074219 26.71875 29.226562 C 26.59375 29.410156 26.523438 29.640625 26.519531 29.878906 L 27.789062 29.878906 C 27.804688 29.640625 27.742188 29.402344 27.621094 29.21875 C 27.5 29.074219 27.339844 29 27.175781 29.003906 Z M 27.175781 29.003906 "/>
<path style=" stroke:none;fill-rule:nonzero;fill:rgb(47.843137%,47.843137%,47.843137%);fill-opacity:1;" d="M 1.742188 35.753906 C 1.425781 35.734375 1.125 35.90625 0.925781 36.214844 C 0.714844 36.585938 0.609375 37.035156 0.632812 37.488281 C 0.605469 37.949219 0.707031 38.40625 0.917969 38.785156 C 1.125 39.085938 1.433594 39.246094 1.75 39.226562 C 1.902344 39.226562 2.054688 39.207031 2.203125 39.164062 C 2.347656 39.125 2.5 39.074219 2.660156 39.015625 L 2.660156 39.667969 C 2.347656 39.8125 2.011719 39.882812 1.675781 39.878906 C 1.210938 39.914062 0.753906 39.6875 0.429688 39.253906 C 0.121094 38.753906 -0.03125 38.125 0 37.488281 C -0.0078125 37.054688 0.0664062 36.621094 0.207031 36.226562 C 0.339844 35.878906 0.550781 35.589844 0.8125 35.394531 C 1.101562 35.195312 1.421875 35.09375 1.75 35.101562 C 2.113281 35.097656 2.46875 35.203125 2.796875 35.402344 L 2.582031 36.035156 C 2.449219 35.960938 2.316406 35.898438 2.179688 35.84375 C 2.039062 35.785156 1.890625 35.753906 1.742188 35.753906 Z M 1.742188 35.753906 "/>
<path style=" stroke:none;fill-rule:nonzero;fill:rgb(47.843137%,47.843137%,47.843137%);fill-opacity:1;" d="M 3.976562 39.804688 L 3.386719 39.804688 L 3.386719 34.871094 L 3.976562 34.871094 Z M 3.976562 39.804688 "/>
<path style=" stroke:none;fill-rule:nonzero;fill:rgb(47.843137%,47.843137%,47.843137%);fill-opacity:1;" d="M 7.308594 38.050781 C 7.332031 38.539062 7.207031 39.019531 6.957031 39.394531 C 6.703125 39.726562 6.347656 39.902344 5.984375 39.875 C 5.738281 39.882812 5.5 39.808594 5.289062 39.652344 C 5.085938 39.5 4.925781 39.277344 4.824219 39.011719 C 4.714844 38.710938 4.660156 38.382812 4.664062 38.050781 C 4.644531 37.566406 4.769531 37.089844 5.015625 36.714844 C 5.273438 36.382812 5.632812 36.207031 6 36.234375 C 6.363281 36.210938 6.714844 36.390625 6.957031 36.726562 C 7.203125 37.097656 7.328125 37.570312 7.308594 38.050781 Z M 5.273438 38.050781 C 5.273438 38.863281 5.511719 39.265625 5.992188 39.265625 C 6.460938 39.265625 6.703125 38.863281 6.703125 38.050781 C 6.703125 37.25 6.460938 36.847656 5.992188 36.847656 C 5.777344 36.824219 5.574219 36.941406 5.449219 37.160156 C 5.316406 37.425781 5.253906 37.738281 5.273438 38.050781 Z M 5.273438 38.050781 "/>
<path style=" stroke:none;fill-rule:nonzero;fill:rgb(47.843137%,47.843137%,47.843137%);fill-opacity:1;" d="M 9.960938 39.808594 L 9.882812 39.34375 L 9.847656 39.34375 C 9.765625 39.511719 9.640625 39.644531 9.496094 39.726562 C 9.335938 39.820312 9.15625 39.871094 8.976562 39.867188 C 8.699219 39.917969 8.417969 39.796875 8.21875 39.542969 C 8.019531 39.289062 7.929688 38.933594 7.972656 38.582031 L 7.972656 36.285156 L 8.570312 36.285156 L 8.570312 38.453125 C 8.554688 38.664062 8.601562 38.878906 8.699219 39.054688 C 8.804688 39.195312 8.957031 39.269531 9.113281 39.253906 C 9.324219 39.277344 9.527344 39.171875 9.664062 38.972656 C 9.804688 38.691406 9.867188 38.359375 9.84375 38.03125 L 9.84375 36.285156 L 10.441406 36.285156 L 10.441406 39.796875 L 9.960938 39.796875 Z M 9.960938 39.808594 "/>
<path style=" stroke:none;fill-rule:nonzero;fill:rgb(47.843137%,47.843137%,47.843137%);fill-opacity:1;" d="M 12.222656 39.875 C 11.90625 39.894531 11.601562 39.71875 11.40625 39.40625 C 11.195312 39.011719 11.09375 38.542969 11.113281 38.070312 C 11.089844 37.59375 11.191406 37.121094 11.40625 36.726562 C 11.601562 36.410156 11.910156 36.230469 12.230469 36.246094 C 12.5625 36.222656 12.878906 36.417969 13.070312 36.757812 L 13.101562 36.757812 C 13.074219 36.5625 13.0625 36.363281 13.058594 36.167969 L 13.058594 34.890625 L 13.660156 34.890625 L 13.660156 39.824219 L 13.195312 39.824219 L 13.09375 39.363281 L 13.070312 39.363281 C 12.871094 39.699219 12.554688 39.890625 12.222656 39.875 Z M 12.382812 39.265625 C 12.582031 39.285156 12.78125 39.191406 12.917969 39.003906 C 13.046875 38.753906 13.109375 38.457031 13.09375 38.160156 L 13.09375 38.058594 C 13.117188 37.730469 13.054688 37.398438 12.917969 37.117188 C 12.785156 36.917969 12.585938 36.8125 12.382812 36.835938 C 12.1875 36.828125 12.003906 36.949219 11.902344 37.15625 C 11.777344 37.433594 11.71875 37.75 11.734375 38.070312 C 11.71875 38.378906 11.777344 38.691406 11.902344 38.960938 C 12.003906 39.167969 12.1875 39.285156 12.382812 39.265625 Z M 12.382812 39.265625 "/>
<path style=" stroke:none;fill-rule:nonzero;fill:rgb(47.843137%,47.843137%,47.843137%);fill-opacity:1;" d="M 18.90625 37.449219 C 18.945312 38.097656 18.757812 38.738281 18.394531 39.203125 C 17.992188 39.640625 17.464844 39.859375 16.933594 39.816406 L 15.902344 39.816406 L 15.902344 35.183594 L 17.046875 35.183594 C 17.546875 35.144531 18.042969 35.359375 18.421875 35.773438 C 18.761719 36.222656 18.941406 36.828125 18.90625 37.449219 Z M 18.277344 37.46875 C 18.277344 36.359375 17.859375 35.804688 17.039062 35.804688 L 16.511719 35.804688 L 16.511719 39.175781 L 16.941406 39.175781 C 17.828125 39.175781 18.277344 38.601562 18.277344 37.46875 Z M 18.277344 37.46875 "/>
<path style=" stroke:none;fill-rule:nonzero;fill:rgb(47.843137%,47.843137%,47.843137%);fill-opacity:1;" d="M 21.390625 39.808594 L 21.273438 39.316406 L 21.25 39.316406 C 21.140625 39.5 21.003906 39.644531 20.839844 39.746094 C 20.671875 39.828125 20.492188 39.871094 20.3125 39.867188 C 20.078125 39.886719 19.847656 39.785156 19.675781 39.585938 C 19.515625 39.371094 19.429688 39.085938 19.441406 38.792969 C 19.429688 38.46875 19.550781 38.15625 19.761719 37.972656 C 20.058594 37.761719 20.394531 37.660156 20.734375 37.671875 L 21.214844 37.648438 L 21.214844 37.460938 C 21.226562 37.277344 21.183594 37.097656 21.085938 36.960938 C 20.980469 36.835938 20.839844 36.773438 20.695312 36.789062 C 20.554688 36.789062 20.414062 36.816406 20.28125 36.867188 C 20.152344 36.917969 20.027344 36.980469 19.90625 37.058594 L 19.714844 36.527344 C 20.027344 36.328125 20.371094 36.21875 20.71875 36.214844 C 21.007812 36.191406 21.292969 36.292969 21.527344 36.503906 C 21.722656 36.742188 21.824219 37.078125 21.796875 37.417969 L 21.796875 39.785156 L 21.390625 39.785156 Z M 20.507812 39.304688 C 20.699219 39.316406 20.882812 39.234375 21.027344 39.074219 C 21.160156 38.910156 21.234375 38.679688 21.226562 38.441406 L 21.226562 38.140625 L 20.867188 38.160156 C 20.65625 38.148438 20.445312 38.210938 20.257812 38.34375 C 20.128906 38.445312 20.054688 38.632812 20.066406 38.824219 C 20.0625 38.957031 20.101562 39.089844 20.179688 39.183594 C 20.273438 39.269531 20.386719 39.3125 20.503906 39.304688 Z M 20.507812 39.304688 "/>
<path style=" stroke:none;fill-rule:nonzero;fill:rgb(47.843137%,47.843137%,47.843137%);fill-opacity:1;" d="M 23.683594 39.265625 C 23.832031 39.265625 23.976562 39.234375 24.117188 39.175781 L 24.117188 39.734375 C 24.035156 39.78125 23.949219 39.8125 23.859375 39.824219 C 23.753906 39.847656 23.648438 39.863281 23.542969 39.863281 C 22.980469 39.863281 22.695312 39.492188 22.695312 38.753906 L 22.695312 36.859375 L 22.308594 36.859375 L 22.308594 36.527344 L 22.71875 36.257812 L 22.917969 35.515625 L 23.285156 35.515625 L 23.285156 36.296875 L 24.082031 36.296875 L 24.082031 36.859375 L 23.285156 36.859375 L 23.285156 38.734375 C 23.265625 38.875 23.300781 39.019531 23.378906 39.125 C 23.457031 39.230469 23.570312 39.28125 23.683594 39.265625 Z M 23.683594 39.265625 "/>
<path style=" stroke:none;fill-rule:nonzero;fill:rgb(47.843137%,47.843137%,47.843137%);fill-opacity:1;" d="M 26.425781 39.808594 L 26.304688 39.316406 L 26.28125 39.316406 C 26.175781 39.5 26.035156 39.644531 25.871094 39.746094 C 25.707031 39.832031 25.527344 39.875 25.347656 39.867188 C 25.113281 39.886719 24.878906 39.785156 24.707031 39.585938 C 24.546875 39.371094 24.460938 39.085938 24.476562 38.792969 C 24.460938 38.46875 24.582031 38.15625 24.792969 37.972656 C 25.089844 37.761719 25.429688 37.660156 25.769531 37.671875 L 26.246094 37.648438 L 26.246094 37.460938 C 26.261719 37.277344 26.214844 37.097656 26.121094 36.960938 C 26.011719 36.835938 25.871094 36.777344 25.726562 36.789062 C 25.585938 36.789062 25.449219 36.816406 25.3125 36.867188 C 25.183594 36.917969 25.058594 36.980469 24.9375 37.058594 L 24.746094 36.527344 C 25.058594 36.328125 25.402344 36.21875 25.753906 36.214844 C 26.039062 36.191406 26.324219 36.292969 26.558594 36.503906 C 26.753906 36.742188 26.855469 37.078125 26.832031 37.417969 L 26.832031 39.785156 L 26.421875 39.785156 Z M 25.539062 39.304688 C 25.730469 39.316406 25.914062 39.234375 26.058594 39.074219 C 26.195312 38.910156 26.265625 38.679688 26.257812 38.441406 L 26.257812 38.140625 L 25.898438 38.160156 C 25.6875 38.148438 25.476562 38.210938 25.292969 38.34375 C 25.160156 38.445312 25.089844 38.632812 25.097656 38.824219 C 25.09375 38.957031 25.132812 39.089844 25.210938 39.183594 C 25.304688 39.269531 25.421875 39.3125 25.535156 39.304688 Z M 25.539062 39.304688 "/>
<path style=" stroke:none;fill-rule:nonzero;fill:rgb(47.843137%,47.843137%,47.843137%);fill-opacity:1;" d="M 29.554688 38.8125 C 29.566406 39.121094 29.457031 39.417969 29.261719 39.605469 C 29.003906 39.804688 28.707031 39.898438 28.40625 39.875 C 28.097656 39.894531 27.792969 39.820312 27.511719 39.664062 L 27.511719 39.015625 C 27.796875 39.191406 28.109375 39.285156 28.429688 39.292969 C 28.796875 39.292969 28.980469 39.152344 28.980469 38.882812 C 28.984375 38.800781 28.960938 38.722656 28.917969 38.660156 C 28.863281 38.585938 28.792969 38.523438 28.71875 38.480469 C 28.621094 38.421875 28.496094 38.351562 28.335938 38.257812 C 28.09375 38.160156 27.871094 38 27.679688 37.789062 C 27.566406 37.617188 27.503906 37.398438 27.511719 37.175781 C 27.503906 36.894531 27.613281 36.628906 27.800781 36.472656 C 28.035156 36.289062 28.3125 36.203125 28.589844 36.222656 C 28.914062 36.21875 29.230469 36.304688 29.523438 36.472656 L 29.332031 37.035156 C 29.09375 36.894531 28.835938 36.816406 28.574219 36.804688 C 28.261719 36.804688 28.101562 36.914062 28.101562 37.144531 C 28.105469 37.257812 28.148438 37.363281 28.222656 37.425781 C 28.390625 37.554688 28.570312 37.660156 28.757812 37.738281 C 28.9375 37.8125 29.105469 37.917969 29.261719 38.046875 C 29.359375 38.128906 29.4375 38.238281 29.492188 38.367188 C 29.535156 38.511719 29.558594 38.660156 29.554688 38.8125 Z M 29.554688 38.8125 "/>
<path style=" stroke:none;fill-rule:nonzero;fill:rgb(47.843137%,47.843137%,47.843137%);fill-opacity:1;" d="M 31.242188 39.265625 C 31.386719 39.265625 31.53125 39.234375 31.671875 39.175781 L 31.671875 39.734375 C 31.589844 39.78125 31.503906 39.8125 31.417969 39.824219 C 31.3125 39.847656 31.203125 39.863281 31.097656 39.863281 C 30.539062 39.863281 30.25 39.492188 30.25 38.753906 L 30.25 36.859375 L 29.867188 36.859375 L 29.867188 36.527344 L 30.273438 36.257812 L 30.472656 35.515625 L 30.839844 35.515625 L 30.839844 36.296875 L 31.640625 36.296875 L 31.640625 36.859375 L 30.839844 36.859375 L 30.839844 38.734375 C 30.832031 38.878906 30.867188 39.023438 30.945312 39.132812 C 31.027344 39.222656 31.132812 39.269531 31.242188 39.265625 Z M 31.242188 39.265625 "/>
<path style=" stroke:none;fill-rule:nonzero;fill:rgb(47.843137%,47.843137%,47.843137%);fill-opacity:1;" d="M 34.707031 38.050781 C 34.730469 38.539062 34.605469 39.019531 34.355469 39.394531 C 34.101562 39.726562 33.746094 39.902344 33.382812 39.875 C 33.136719 39.882812 32.898438 39.808594 32.6875 39.652344 C 32.484375 39.5 32.324219 39.277344 32.222656 39.011719 C 32.113281 38.710938 32.058594 38.382812 32.0625 38.050781 C 32.042969 37.566406 32.167969 37.089844 32.414062 36.714844 C 32.671875 36.382812 33.03125 36.207031 33.398438 36.234375 C 33.761719 36.210938 34.113281 36.390625 34.355469 36.726562 C 34.601562 37.097656 34.726562 37.570312 34.707031 38.050781 Z M 32.679688 38.050781 C 32.679688 38.863281 32.917969 39.265625 33.398438 39.265625 C 33.867188 39.265625 34.109375 38.863281 34.109375 38.050781 C 34.109375 37.25 33.867188 36.847656 33.398438 36.847656 C 33.1875 36.824219 32.980469 36.941406 32.855469 37.160156 C 32.722656 37.425781 32.660156 37.738281 32.679688 38.050781 Z M 32.679688 38.050781 "/>
<path style=" stroke:none;fill-rule:nonzero;fill:rgb(47.843137%,47.843137%,47.843137%);fill-opacity:1;" d="M 36.808594 36.234375 C 36.90625 36.234375 37.007812 36.242188 37.105469 36.265625 L 37.046875 36.957031 C 36.960938 36.929688 36.875 36.917969 36.785156 36.917969 C 36.570312 36.90625 36.359375 37.011719 36.210938 37.207031 C 36.058594 37.417969 35.976562 37.691406 35.984375 37.972656 L 35.984375 39.808594 L 35.394531 39.808594 L 35.394531 36.296875 L 35.859375 36.296875 L 35.9375 36.917969 L 35.96875 36.917969 C 36.058594 36.71875 36.183594 36.546875 36.328125 36.417969 C 36.472656 36.296875 36.636719 36.234375 36.808594 36.234375 Z M 36.808594 36.234375 "/>
<path style=" stroke:none;fill-rule:nonzero;fill:rgb(47.843137%,47.843137%,47.843137%);fill-opacity:1;" d="M 38.84375 39.875 C 38.464844 39.902344 38.09375 39.726562 37.824219 39.394531 C 37.566406 39.035156 37.433594 38.5625 37.457031 38.082031 C 37.433594 37.59375 37.554688 37.109375 37.800781 36.726562 C 38.035156 36.394531 38.378906 36.210938 38.734375 36.234375 C 39.058594 36.214844 39.375 36.367188 39.605469 36.65625 C 39.828125 36.976562 39.945312 37.394531 39.921875 37.820312 L 39.921875 38.222656 L 38.0625 38.222656 C 38.050781 38.507812 38.132812 38.789062 38.285156 39.003906 C 38.441406 39.191406 38.652344 39.289062 38.867188 39.273438 C 39.023438 39.273438 39.179688 39.253906 39.332031 39.214844 C 39.488281 39.171875 39.640625 39.105469 39.785156 39.023438 L 39.785156 39.625 C 39.648438 39.714844 39.5 39.773438 39.347656 39.804688 C 39.183594 39.855469 39.015625 39.882812 38.84375 39.875 Z M 38.734375 36.796875 C 38.5625 36.785156 38.398438 36.867188 38.277344 37.019531 C 38.152344 37.203125 38.082031 37.433594 38.078125 37.671875 L 39.347656 37.671875 C 39.363281 37.433594 39.300781 37.195312 39.179688 37.011719 C 39.058594 36.867188 38.898438 36.792969 38.734375 36.796875 Z M 38.734375 36.796875 "/>
</g>
</svg>
