<svg xmlns="http://www.w3.org/2000/svg" width="35" height="35" fill="none"><g fill="#000" clip-path="url(#a)"><path d="M9.071 16.022a8.6 8.6 0 0 0-.08 1.17c0 4.693 3.817 8.511 8.51 8.511s8.51-3.818 8.51-8.51q0-.597-.08-1.171a8.52 8.52 0 0 0 4.387-7.443c0-4.693-3.818-8.51-8.51-8.51-1.57 0-3.043.427-4.307 1.172A8.46 8.46 0 0 0 13.194.068c-4.692 0-8.51 3.818-8.51 8.511a8.52 8.52 0 0 0 4.387 7.443m8.43 8.656c-4.128 0-7.485-3.358-7.485-7.486q0-.357.033-.705a8.5 8.5 0 0 0 3.145.603c1.57 0 3.043-.428 4.307-1.173a8.46 8.46 0 0 0 4.307 1.173c1.11 0 2.171-.214 3.145-.603q.033.35.033.705c0 4.128-3.358 7.486-7.485 7.486m0-9.98a7.5 7.5 0 0 1-2.973-4.375 7.45 7.45 0 0 1 2.973-.616c1.056 0 2.061.22 2.973.616a7.5 7.5 0 0 1-2.973 4.375m3.907-3.888a7.5 7.5 0 0 1 3.373 4.638 7.4 7.4 0 0 1-2.973.616 7.44 7.44 0 0 1-3.357-.796 8.54 8.54 0 0 0 2.957-4.458m-4.857 4.458c-1.01.51-2.15.796-3.357.796a7.4 7.4 0 0 1-2.973-.616 7.5 7.5 0 0 1 3.373-4.638 8.54 8.54 0 0 0 2.957 4.458m5.257-14.174c4.127 0 7.485 3.358 7.485 7.485a7.49 7.49 0 0 1-3.578 6.383 8.55 8.55 0 0 0-4.09-5.213q.079-.574.08-1.17c0-2.71-1.274-5.13-3.254-6.689a7.44 7.44 0 0 1 3.357-.796M20.68 8.579q0 .357-.034.705a8.5 8.5 0 0 0-3.145-.602c-1.11 0-2.172.214-3.145.602A7.482 7.482 0 0 1 17.5 2.46a7.48 7.48 0 0 1 3.179 6.12m-7.486-7.485a7.44 7.44 0 0 1 3.357.796 8.5 8.5 0 0 0-3.173 7.86 8.55 8.55 0 0 0-4.09 5.212 7.49 7.49 0 0 1-3.579-6.383c0-4.127 3.358-7.485 7.485-7.485M4.102 33.223h7.512l-1.04 1.038.726.726 2.79-2.79H4.101zM2.05 32.197h1.026v1.026H2.051zM0 32.197h1.025v1.026H0zM23.7 24.28l-2.79 2.79h9.988v-1.025h-7.512l1.038-1.039zM31.922 26.045h1.025v1.025h-1.025zM33.977 26.045h1.025v1.025h-1.025zM19.04 27.07h-3.077v1.026H.035v3.076h15.928v1.025h3.076v-1.025h15.928v-3.076H19.039zm-3.077 3.076H1.06v-1.025h14.902zm2.05 1.026h-1.025v-3.076h1.026zm15.928-2.05v1.024H19.04v-1.025z"/><path d="M13.194 3.145V2.119c-2.028 0-3.9.928-5.135 2.545l.814.622a5.4 5.4 0 0 1 4.32-2.141M7.76 8.58c0-.244.016-.49.048-.73l-1.016-.136a6.5 6.5 0 0 0-.053 1.11l1.024-.038zM7.878 9.714l-1.003.214c.15.705.417 1.375.792 1.993l.876-.532a5.4 5.4 0 0 1-.665-1.675M8.371 6.076 7.462 5.6a6.4 6.4 0 0 0-.427 1.027l.977.31q.142-.446.36-.862M25.857 3.55a6.5 6.5 0 0 0-.921-.622l-.498.896q.41.229.776.524zM23.917 2.474a6.4 6.4 0 0 0-2.112-.355v1.026c.608 0 1.206.1 1.776.298zM27.32 5.213a6.5 6.5 0 0 0-.66-.895l-.77.677a5.5 5.5 0 0 1 .556.754zM27.242 8.58c0 .992-.272 1.963-.785 2.81l.876.531a6.44 6.44 0 0 0 .934-3.342c0-.818-.151-1.615-.45-2.37l-.954.377c.252.634.379 1.305.379 1.993M15.906 23.452c.359.09.728.15 1.098.179l.077-1.023a5.5 5.5 0 0 1-.924-.15zM12.934 21.76a6.4 6.4 0 0 0 1.924 1.327l.419-.936a5.4 5.4 0 0 1-1.618-1.116zM18.02 22.6l.096 1.02a6.46 6.46 0 0 0 3.951-1.86l-.725-.725A5.44 5.44 0 0 1 18.02 22.6M15.96 10.938h1.026v1.025h-1.025zM18.012 10.938h1.025v1.025h-1.025z"/></g><defs><clipPath id="a"><path fill="#fff" d="M0 0h35v35H0z"/></clipPath></defs></svg>