<svg xmlns="http://www.w3.org/2000/svg" width="32" height="32" fill="none"><g clip-path="url(#a)"><mask id="b" width="32" height="32" x="0" y="0" maskUnits="userSpaceOnUse" style="mask-type:luminance"><path fill="#fff" d="M32 0H0v32h32z"/></mask><g fill="#fff" mask="url(#b)"><path d="M2.813 11.312H.937a.937.937 0 1 0 0 1.875h1.876a.937.937 0 1 0 0-1.875M3.264 6.624 1.938 5.298A.937.937 0 1 0 .613 6.624L1.938 7.95a.937.937 0 1 0 1.326-1.326M3.264 16.549a.937.937 0 0 0-1.326 0L.613 17.874A.937.937 0 1 0 1.938 19.2l1.326-1.326a.937.937 0 0 0 0-1.325M31.063 11.312h-1.875a.937.937 0 1 0 0 1.875h1.875a.937.937 0 1 0 0-1.875M31.389 5.298a.937.937 0 0 0-1.326 0l-1.325 1.326a.937.937 0 1 0 1.325 1.326l1.326-1.326a.937.937 0 0 0 0-1.326M31.389 17.874l-1.326-1.326a.937.937 0 1 0-1.325 1.326l1.325 1.326a.937.937 0 1 0 1.326-1.326M23.09 2.515C20.446.365 16.977-.462 13.584.252c-4.232.883-7.678 4.38-8.575 8.61-.763 3.6.178 7.212 2.58 9.913a7.2 7.2 0 0 1 1.759 3.787h2.902v-8.438c0-.363 2.749-5.72 2.911-6.044.319-.636 1.359-.636 1.677 0 .17.34 2.912 5.7 2.912 6.044v8.438h2.905c.2-1.368.81-2.709 1.81-3.848a11.22 11.22 0 0 0 2.785-7.402c0-3.403-1.517-6.65-4.16-8.797"/><path d="M16 15.917c-.634 0-1.265-.11-1.875-.312v6.957h3.75v-6.957a6 6 0 0 1-1.875.312M9.438 24.437v.937a2.816 2.816 0 0 0 2.812 2.813h7.5a2.816 2.816 0 0 0 2.813-2.813v-.937zM16 10.596l-1.549 3.098c1.001.41 2.098.41 3.099 0zM11.486 30.062c.389 1.088 1.42 1.937 2.64 1.937h3.75c1.22 0 2.252-.848 2.64-1.937z"/></g></g><defs><clipPath id="a"><path fill="#fff" d="M0 0h32v32H0z"/></clipPath></defs></svg>