<?xml version="1.0" encoding="UTF-8"?>
<svg xmlns="http://www.w3.org/2000/svg" xmlns:xlink="http://www.w3.org/1999/xlink" width="36px" height="36px" viewBox="0 0 36 36" version="1.1">
<g id="surface1">
<path style=" stroke:none;fill-rule:nonzero;fill:rgb(0%,0%,0%);fill-opacity:1;" d="M 2.519531 29.703125 C 1.820312 29.71875 1.152344 30.0625 0.679688 30.652344 C 0.203125 31.238281 -0.0429688 32.023438 0 32.820312 C 0 34.632812 1.121094 35.914062 2.519531 35.914062 C 3.167969 35.941406 3.785156 35.613281 4.1875 35.035156 L 4.1875 35.417969 C 4.195312 35.625 4.339844 35.792969 4.523438 35.800781 L 5.355469 35.800781 L 5.355469 29.835938 L 4.183594 29.835938 L 4.183594 30.59375 C 3.785156 30.011719 3.167969 29.679688 2.519531 29.703125 Z M 2.726562 30.921875 C 3.605469 30.988281 4.289062 31.816406 4.289062 32.816406 C 4.289062 33.820312 3.609375 34.648438 2.730469 34.714844 C 2.300781 34.703125 1.894531 34.492188 1.605469 34.132812 C 1.316406 33.773438 1.167969 33.292969 1.191406 32.804688 C 1.167969 32.320312 1.316406 31.847656 1.605469 31.488281 C 1.898438 31.132812 2.300781 30.929688 2.726562 30.921875 Z M 2.726562 30.921875 "/>
<path style=" stroke:none;fill-rule:nonzero;fill:rgb(0%,0%,0%);fill-opacity:1;" d="M 6.980469 35.800781 C 6.890625 35.804688 6.804688 35.765625 6.738281 35.691406 C 6.675781 35.621094 6.640625 35.519531 6.644531 35.417969 L 6.644531 29.835938 L 7.8125 29.835938 L 7.8125 30.574219 C 8.175781 29.996094 8.769531 29.667969 9.390625 29.699219 C 9.925781 29.6875 10.441406 29.925781 10.816406 30.359375 C 11.191406 30.789062 11.398438 31.375 11.382812 31.984375 L 11.382812 35.800781 L 10.570312 35.800781 C 10.375 35.800781 10.214844 35.617188 10.214844 35.394531 L 10.214844 32.277344 C 10.234375 31.929688 10.132812 31.589844 9.925781 31.332031 C 9.71875 31.074219 9.429688 30.925781 9.125 30.921875 C 8.304688 30.921875 7.8125 31.804688 7.8125 32.636719 L 7.8125 35.800781 Z M 6.980469 35.800781 "/>
<path style=" stroke:none;fill-rule:nonzero;fill:rgb(0%,0%,0%);fill-opacity:1;" d="M 14.796875 29.703125 C 14.09375 29.71875 13.429688 30.0625 12.953125 30.652344 C 12.476562 31.238281 12.234375 32.023438 12.273438 32.820312 C 12.273438 34.632812 13.398438 35.914062 14.796875 35.914062 C 15.441406 35.941406 16.0625 35.613281 16.460938 35.035156 L 16.460938 35.417969 C 16.46875 35.625 16.617188 35.792969 16.796875 35.800781 L 17.632812 35.800781 L 17.632812 26.855469 L 16.460938 26.855469 L 16.460938 30.59375 C 16.0625 30.011719 15.445312 29.679688 14.796875 29.703125 Z M 15.003906 30.921875 C 15.882812 30.988281 16.5625 31.816406 16.5625 32.816406 C 16.566406 33.820312 15.882812 34.648438 15.003906 34.714844 C 14.578125 34.703125 14.171875 34.492188 13.878906 34.132812 C 13.589844 33.773438 13.441406 33.292969 13.464844 32.804688 C 13.441406 32.320312 13.589844 31.84375 13.882812 31.488281 C 14.171875 31.132812 14.578125 30.929688 15.003906 30.921875 Z M 15.003906 30.921875 "/>
<path style=" stroke:none;fill-rule:nonzero;fill:rgb(0%,0%,0%);fill-opacity:1;" d="M 19.257812 35.800781 C 19.167969 35.804688 19.078125 35.765625 19.015625 35.691406 C 18.953125 35.621094 18.917969 35.519531 18.917969 35.417969 L 18.917969 29.835938 L 20.089844 29.835938 L 20.089844 30.832031 C 20.308594 30.167969 20.875 29.738281 21.496094 29.769531 C 21.636719 29.769531 21.777344 29.785156 21.914062 29.816406 L 21.914062 31.195312 C 21.734375 31.121094 21.546875 31.082031 21.359375 31.082031 C 20.539062 31.082031 20.089844 31.964844 20.089844 32.796875 L 20.089844 35.804688 Z M 19.257812 35.800781 "/>
<path style=" stroke:none;fill-rule:nonzero;fill:rgb(0%,0%,0%);fill-opacity:1;" d="M 29.015625 35.800781 C 28.925781 35.804688 28.835938 35.765625 28.773438 35.691406 C 28.710938 35.621094 28.675781 35.519531 28.675781 35.417969 L 28.675781 29.835938 L 29.847656 29.835938 L 29.847656 35.804688 Z M 29.015625 35.800781 "/>
<path style=" stroke:none;fill-rule:nonzero;fill:rgb(0%,0%,0%);fill-opacity:1;" d="M 33.277344 29.703125 C 32.578125 29.71875 31.910156 30.0625 31.4375 30.652344 C 30.960938 31.238281 30.714844 32.023438 30.757812 32.820312 C 30.757812 34.632812 31.882812 35.914062 33.277344 35.914062 C 33.925781 35.941406 34.542969 35.613281 34.945312 35.035156 L 34.945312 35.417969 C 34.953125 35.625 35.097656 35.792969 35.28125 35.800781 L 36.113281 35.800781 L 36.113281 26.855469 L 34.945312 26.855469 L 34.945312 30.59375 C 34.546875 30.011719 33.925781 29.679688 33.277344 29.703125 Z M 33.488281 30.921875 C 34.363281 30.988281 35.046875 31.816406 35.046875 32.816406 C 35.046875 33.820312 34.367188 34.648438 33.488281 34.714844 C 33.058594 34.703125 32.652344 34.492188 32.363281 34.132812 C 32.074219 33.773438 31.925781 33.292969 31.949219 32.804688 C 31.925781 32.320312 32.074219 31.84375 32.363281 31.488281 C 32.65625 31.132812 33.058594 30.929688 33.488281 30.921875 Z M 33.488281 30.921875 "/>
<path style=" stroke:none;fill-rule:nonzero;fill:rgb(0%,0%,0%);fill-opacity:1;" d="M 30.027344 27.667969 C 30.027344 27.183594 29.679688 26.789062 29.253906 26.789062 C 28.824219 26.789062 28.480469 27.183594 28.480469 27.667969 C 28.480469 28.15625 28.824219 28.550781 29.253906 28.550781 C 29.679688 28.550781 30.027344 28.15625 30.027344 27.667969 Z M 30.027344 27.667969 "/>
<path style=" stroke:none;fill-rule:nonzero;fill:rgb(0%,0%,0%);fill-opacity:1;" d="M 25 29.699219 C 24.273438 29.691406 23.574219 30.015625 23.0625 30.597656 C 22.546875 31.183594 22.261719 31.980469 22.273438 32.808594 C 22.253906 33.640625 22.535156 34.441406 23.050781 35.027344 C 23.566406 35.613281 24.269531 35.933594 25 35.914062 C 25.984375 35.933594 26.902344 35.347656 27.402344 34.378906 C 27.898438 33.410156 27.898438 32.210938 27.402344 31.238281 C 26.90625 30.269531 25.988281 29.679688 25 29.699219 Z M 25.003906 30.945312 C 25.433594 30.949219 25.84375 31.148438 26.136719 31.5 C 26.433594 31.851562 26.589844 32.324219 26.574219 32.8125 C 26.605469 33.472656 26.316406 34.09375 25.820312 34.4375 C 25.328125 34.777344 24.707031 34.78125 24.210938 34.445312 C 23.714844 34.109375 23.417969 33.488281 23.441406 32.832031 C 23.421875 32.34375 23.574219 31.863281 23.871094 31.507812 C 24.167969 31.152344 24.574219 30.949219 25.007812 30.945312 Z M 25.003906 30.945312 "/>
<path style=" stroke:none;fill-rule:nonzero;fill:rgb(19.607843%,87.058824%,51.764709%);fill-opacity:1;" d="M 26.871094 6.949219 L 29.867188 1.042969 C 30.035156 0.710938 29.9375 0.285156 29.648438 0.09375 C 29.507812 0 29.34375 -0.0234375 29.1875 0.0234375 C 29.03125 0.0703125 28.898438 0.1875 28.820312 0.347656 L 25.785156 6.332031 C 20.871094 3.832031 15.257812 3.832031 10.34375 6.332031 L 7.3125 0.347656 C 7.136719 0.0390625 6.78125 -0.0585938 6.5 0.125 C 6.21875 0.3125 6.117188 0.714844 6.265625 1.042969 L 9.261719 6.949219 C 4.007812 10.21875 0.539062 16.265625 0.0234375 23.058594 L 36.113281 23.058594 C 35.59375 16.265625 32.125 10.21875 26.871094 6.949219 Z M 9.78125 17.28125 C 8.945312 17.28125 8.269531 16.511719 8.269531 15.558594 C 8.269531 14.609375 8.945312 13.835938 9.78125 13.835938 C 10.617188 13.835938 11.292969 14.609375 11.292969 15.558594 C 11.292969 16.511719 10.617188 17.28125 9.78125 17.28125 Z M 26.347656 17.28125 C 25.515625 17.28125 24.835938 16.511719 24.835938 15.558594 C 24.835938 14.609375 25.515625 13.835938 26.347656 13.835938 C 27.183594 13.835938 27.863281 14.609375 27.863281 15.558594 C 27.863281 16.511719 27.183594 17.28125 26.347656 17.28125 Z M 26.347656 17.28125 "/>
</g>
</svg>
