<svg xmlns="http://www.w3.org/2000/svg" width="32" height="32" fill="none"><path fill="#fff" fill-rule="evenodd" d="m21.839 11.32-2.908 8.728a1 1 0 1 0 1.897.632l2.908-8.728a1 1 0 1 0-1.897-.632M24.385 13.799 26.586 16l-2.201 2.201a1 1 0 0 0 1.414 1.415l2.908-2.91a1 1 0 0 0 0-1.413L25.8 12.384a1 1 0 1 0-1.414 1.415M16.867 12.384l-2.908 2.91a1 1 0 0 0 0 1.413l2.908 2.909a1 1 0 1 0 1.415-1.415L16.08 16l2.202-2.201a1 1 0 0 0-1.415-1.415" clip-rule="evenodd"/><path fill="#fff" fill-rule="evenodd" d="m22.333 20.379-.241.722a2.335 2.335 0 0 1-4.376.136 2.33 2.33 0 0 1-1.79-.678l-2.909-2.91a2.33 2.33 0 0 1 0-3.298l2.908-2.91a2.334 2.334 0 0 1 3.978 1.474l.672-2.016a2.33 2.33 0 0 1 1.758-1.551V5.333c0-.972-.386-1.905-1.073-2.593a3.67 3.67 0 0 0-2.593-1.073h-12c-.972 0-1.906.386-2.594 1.073A3.67 3.67 0 0 0 3 5.333v21.334c0 .972.387 1.905 1.073 2.593a3.67 3.67 0 0 0 2.594 1.073h12c.972 0 1.905-.386 2.593-1.073a3.67 3.67 0 0 0 1.073-2.593zM10 27h5.333a1 1 0 0 0 0-2H10a1 1 0 0 0 0 2m8-23.333H7.333l.831 2.076A2 2 0 0 0 10.021 7h5.291c.819 0 1.553-.497 1.857-1.257z" clip-rule="evenodd"/></svg>