<?xml version="1.0" encoding="UTF-8"?>
<svg xmlns="http://www.w3.org/2000/svg" xmlns:xlink="http://www.w3.org/1999/xlink" width="36px" height="36px" viewBox="0 0 36 36" version="1.1">
<g id="surface1">
<path style=" stroke:none;fill-rule:nonzero;fill:rgb(0%,0%,0%);fill-opacity:1;" d="M 0.167969 35.269531 L 3.152344 35.269531 L 3.152344 9.835938 L 0.167969 9.835938 Z M 1.65625 6.503906 C 2.246094 6.535156 2.800781 5.921875 3.101562 4.902344 C 3.402344 3.882812 3.402344 2.617188 3.101562 1.597656 C 2.800781 0.578125 2.246094 -0.03125 1.65625 0 C 1.070312 -0.0195312 0.523438 0.597656 0.226562 1.609375 C -0.0703125 2.625 -0.0703125 3.878906 0.226562 4.890625 C 0.523438 5.90625 1.070312 6.519531 1.65625 6.503906 Z M 13.101562 0.0703125 C 8.050781 0.0703125 4.882812 6.957031 4.882812 17.972656 C 4.882812 28.984375 8.050781 35.847656 13.101562 35.847656 C 18.140625 35.847656 21.308594 28.984375 21.308594 17.972656 C 21.308594 6.957031 18.140625 0.0703125 13.101562 0.0703125 Z M 13.101562 5.351562 C 16.183594 5.351562 18.152344 10.246094 18.152344 17.972656 C 18.152344 25.671875 16.1875 30.570312 13.101562 30.570312 C 10.007812 30.570312 8.050781 25.675781 8.050781 17.972656 C 8.050781 10.246094 10.003906 5.351562 13.101562 5.351562 Z M 22.566406 25.527344 C 22.699219 31.910156 25.3125 35.847656 29.296875 35.847656 C 33.484375 35.847656 36.121094 31.71875 36.121094 25.144531 C 36.121094 19.992188 34.636719 17.082031 31.121094 15.476562 L 29.128906 14.566406 C 27.003906 13.554688 26.128906 12.214844 26.128906 9.910156 C 26.128906 7.03125 27.449219 5.109375 29.40625 5.109375 C 31.382812 5.109375 32.738281 7.054688 32.882812 10.292969 L 35.832031 10.292969 C 35.761719 4.199219 33.242188 0.0703125 29.429688 0.0703125 C 25.660156 0.0703125 22.988281 4.222656 22.988281 10.367188 C 22.988281 15.308594 24.496094 18.378906 27.691406 19.84375 L 29.933594 20.898438 C 32.117188 21.929688 33.003906 23.371094 33.003906 25.863281 C 33.003906 28.746094 31.554688 30.808594 29.464844 30.808594 C 27.355469 30.808594 25.757812 28.71875 25.566406 25.527344 Z M 22.566406 25.527344 "/>
</g>
</svg>
