<?xml version="1.0" encoding="UTF-8"?>
<svg xmlns="http://www.w3.org/2000/svg" xmlns:xlink="http://www.w3.org/1999/xlink" width="36px" height="36px" viewBox="0 0 36 36" version="1.1">
<g id="surface1">
<path style=" stroke:none;fill-rule:nonzero;fill:rgb(20.392157%,59.607846%,85.882354%);fill-opacity:1;" d="M 4.273438 35.789062 L 2.90625 33 L 1.507812 35.789062 L 0 35.789062 L 2.132812 32.191406 L 0.210938 28.617188 L 1.746094 28.617188 L 2.992188 31.332031 L 4.339844 28.617188 L 5.738281 28.617188 L 3.757812 32.171875 L 5.761719 35.792969 Z M 9.152344 35.789062 L 9.152344 35.007812 L 9.132812 35.007812 C 8.800781 35.597656 8.199219 35.949219 7.554688 35.925781 C 7.101562 35.953125 6.65625 35.792969 6.3125 35.472656 C 6.003906 35.152344 5.839844 34.703125 5.859375 34.242188 C 5.859375 33.144531 6.441406 32.519531 7.605469 32.367188 L 9.160156 32.140625 C 9.160156 31.371094 8.820312 30.984375 8.140625 30.984375 C 7.507812 30.988281 6.894531 31.210938 6.390625 31.613281 L 6.390625 30.484375 C 6.660156 30.328125 6.949219 30.210938 7.246094 30.136719 C 7.578125 30.039062 7.921875 29.988281 8.269531 29.984375 C 9.644531 29.984375 10.332031 30.722656 10.332031 32.199219 L 10.332031 35.792969 L 9.152344 35.792969 Z M 8.011719 33.191406 C 7.734375 33.203125 7.46875 33.296875 7.246094 33.464844 C 7.089844 33.636719 7.011719 33.867188 7.03125 34.101562 C 7.03125 34.328125 7.125 34.542969 7.289062 34.683594 C 7.46875 34.839844 7.695312 34.917969 7.925781 34.90625 C 8.261719 34.917969 8.585938 34.773438 8.8125 34.511719 C 9.046875 34.246094 9.171875 33.894531 9.160156 33.53125 L 9.160156 33.019531 L 8.007812 33.179688 Z M 18.015625 35.789062 L 18.015625 32.578125 C 18.042969 32.171875 17.960938 31.765625 17.78125 31.40625 C 17.59375 31.128906 17.277344 30.980469 16.957031 31.019531 C 16.632812 31.023438 16.335938 31.203125 16.164062 31.492188 C 15.941406 31.816406 15.828125 32.207031 15.839844 32.605469 L 15.839844 35.789062 L 14.640625 35.789062 L 14.640625 32.476562 C 14.640625 31.511719 14.289062 31.027344 13.59375 31.027344 C 13.273438 31.023438 12.972656 31.183594 12.785156 31.460938 C 12.566406 31.792969 12.457031 32.195312 12.472656 32.601562 L 12.472656 35.785156 L 11.273438 35.785156 L 11.273438 30.121094 L 12.472656 30.121094 L 12.472656 30.996094 L 12.496094 30.996094 C 12.832031 30.347656 13.484375 29.957031 14.183594 29.980469 C 14.515625 29.976562 14.84375 30.078125 15.121094 30.28125 C 15.394531 30.476562 15.597656 30.761719 15.699219 31.09375 C 16.046875 30.390625 16.742188 29.960938 17.488281 29.984375 C 18.648438 29.984375 19.226562 30.75 19.226562 32.285156 L 19.226562 35.789062 Z M 23.222656 35.789062 L 23.222656 35.007812 L 23.203125 35.007812 C 22.875 35.597656 22.269531 35.949219 21.625 35.925781 C 21.171875 35.953125 20.726562 35.792969 20.386719 35.472656 C 20.082031 35.148438 19.921875 34.703125 19.945312 34.246094 C 19.945312 33.144531 20.527344 32.519531 21.6875 32.367188 L 23.246094 32.140625 C 23.246094 31.371094 22.90625 30.984375 22.222656 30.984375 C 21.585938 30.984375 20.964844 31.207031 20.457031 31.613281 L 20.457031 30.484375 C 20.726562 30.328125 21.019531 30.210938 21.320312 30.136719 C 21.652344 30.042969 21.996094 29.988281 22.339844 29.984375 C 23.714844 29.984375 24.402344 30.722656 24.402344 32.199219 L 24.402344 35.792969 L 23.222656 35.792969 Z M 22.082031 33.191406 C 21.808594 33.203125 21.539062 33.296875 21.316406 33.464844 C 21.160156 33.636719 21.082031 33.867188 21.101562 34.101562 C 21.101562 34.328125 21.195312 34.542969 21.359375 34.683594 C 21.539062 34.839844 21.765625 34.917969 21.996094 34.90625 C 22.332031 34.917969 22.65625 34.773438 22.882812 34.511719 C 23.117188 34.246094 23.242188 33.894531 23.230469 33.53125 L 23.230469 33.019531 L 22.078125 33.179688 Z M 28.4375 31.367188 C 28.226562 31.234375 27.984375 31.167969 27.742188 31.171875 C 27.402344 31.167969 27.082031 31.347656 26.890625 31.648438 C 26.664062 32.015625 26.550781 32.449219 26.570312 32.890625 L 26.570312 35.792969 L 25.367188 35.792969 L 25.367188 30.121094 L 26.570312 30.121094 L 26.570312 31.222656 L 26.59375 31.222656 C 26.847656 30.421875 27.304688 30.019531 27.957031 30.019531 C 28.121094 30.011719 28.285156 30.039062 28.441406 30.097656 L 28.441406 31.367188 Z M 29.636719 28.851562 C 29.449219 28.855469 29.265625 28.777344 29.125 28.640625 C 28.988281 28.503906 28.910156 28.3125 28.914062 28.113281 C 28.90625 27.910156 28.984375 27.710938 29.125 27.570312 C 29.421875 27.277344 29.878906 27.277344 30.171875 27.570312 C 30.308594 27.707031 30.386719 27.898438 30.386719 28.101562 C 30.386719 28.300781 30.308594 28.492188 30.171875 28.628906 C 30.03125 28.777344 29.839844 28.855469 29.640625 28.851562 Z M 29.023438 35.789062 L 29.023438 30.121094 L 30.222656 30.121094 L 30.222656 35.789062 Z M 34.773438 35.789062 L 34.773438 32.605469 C 34.773438 31.554688 34.417969 31.027344 33.707031 31.027344 C 33.359375 31.023438 33.027344 31.183594 32.804688 31.464844 C 32.558594 31.769531 32.429688 32.164062 32.445312 32.566406 L 32.445312 35.789062 L 31.242188 35.789062 L 31.242188 30.121094 L 32.445312 30.121094 L 32.445312 31.027344 L 32.476562 31.027344 C 32.816406 30.359375 33.488281 29.953125 34.203125 29.980469 C 35.398438 29.980469 35.992188 30.757812 35.992188 32.308594 L 35.992188 35.792969 L 34.777344 35.792969 Z M 34.773438 35.789062 "/>
<path style=" stroke:none;fill-rule:nonzero;fill:rgb(20.392157%,59.607846%,85.882354%);fill-opacity:1;" d="M 30.765625 11.273438 L 25.25 1.085938 C 24.886719 0.425781 24.222656 0.0117188 23.503906 0 L 12.472656 0 C 11.753906 0.0117188 11.089844 0.425781 10.726562 1.085938 L 5.210938 11.273438 C 4.859375 11.945312 4.859375 12.757812 5.210938 13.429688 L 10.726562 23.621094 C 11.089844 24.28125 11.753906 24.691406 12.472656 24.707031 L 23.503906 24.707031 C 24.226562 24.691406 24.890625 24.28125 25.253906 23.621094 L 30.769531 13.421875 C 31.117188 12.753906 31.113281 11.945312 30.765625 11.277344 Z M 23.359375 18.734375 L 21.453125 18.734375 C 21.363281 18.730469 21.285156 18.675781 21.238281 18.59375 L 18.019531 12.488281 C 18.003906 12.457031 17.992188 12.425781 17.988281 12.390625 C 17.984375 12.425781 17.976562 12.457031 17.957031 12.488281 L 14.730469 18.601562 C 14.6875 18.679688 14.609375 18.734375 14.523438 18.738281 L 12.621094 18.738281 C 12.53125 18.734375 12.453125 18.683594 12.410156 18.605469 C 12.367188 18.523438 12.367188 18.425781 12.40625 18.34375 L 15.554688 12.351562 L 12.40625 6.351562 C 12.371094 6.28125 12.371094 6.195312 12.402344 6.121094 C 12.4375 6.046875 12.496094 5.992188 12.570312 5.972656 L 14.519531 5.972656 C 14.605469 5.976562 14.683594 6.027344 14.726562 6.101562 L 17.957031 12.21875 C 17.972656 12.246094 17.984375 12.28125 17.988281 12.316406 C 17.992188 12.28125 18.003906 12.246094 18.019531 12.21875 L 21.238281 6.097656 C 21.285156 6.019531 21.367188 5.972656 21.453125 5.972656 L 23.355469 5.972656 C 23.441406 5.980469 23.515625 6.027344 23.558594 6.105469 C 23.601562 6.183594 23.605469 6.277344 23.570312 6.359375 L 20.421875 12.351562 L 23.574219 18.34375 C 23.609375 18.425781 23.605469 18.523438 23.5625 18.601562 C 23.519531 18.679688 23.441406 18.730469 23.355469 18.734375 Z M 23.359375 18.734375 "/>
</g>
</svg>
