<?xml version="1.0" encoding="UTF-8"?>
<svg xmlns="http://www.w3.org/2000/svg" xmlns:xlink="http://www.w3.org/1999/xlink" width="40px" height="40px" viewBox="0 0 40 40" version="1.1">
<g id="surface1">
<path style=" stroke:none;fill-rule:nonzero;fill:rgb(76.078433%,12.941177%,20%);fill-opacity:1;" d="M 37.761719 7.703125 C 37.363281 6.941406 36.898438 6.210938 36.367188 5.519531 L 30.644531 7.441406 C 31.300781 8.066406 31.867188 8.769531 32.324219 9.53125 Z M 12.484375 13.542969 L 6.761719 15.464844 C 6.835938 16.308594 6.988281 17.144531 7.214844 17.964844 L 12.648438 16.140625 C 12.46875 15.285156 12.414062 14.414062 12.480469 13.542969 "/>
<path style=" stroke:none;fill-rule:nonzero;fill:rgb(85.882354%,12.941177%,18.039216%);fill-opacity:1;" d="M 25.175781 6.210938 C 26.332031 6.710938 27.375 7.398438 28.265625 8.242188 L 33.988281 6.320312 C 29.71875 0.800781 21.992188 -1.414062 15.089844 0.902344 C 8.1875 3.222656 3.808594 9.503906 4.382812 16.265625 L 10.105469 14.34375 C 10.359375 11.132812 12.3125 8.242188 15.324219 6.617188 C 18.335938 4.992188 22.019531 4.839844 25.175781 6.210938 "/>
<path style=" stroke:none;fill-rule:nonzero;fill:rgb(85.882354%,12.941177%,18.039216%);fill-opacity:1;" d="M 31.277344 15.855469 C 31.183594 17.03125 30.855469 18.179688 30.316406 19.246094 C 27.832031 24.152344 21.511719 26.273438 16.191406 23.992188 C 15.035156 23.492188 13.988281 22.804688 13.097656 21.960938 L 7.390625 23.878906 C 9.019531 26 11.21875 27.691406 13.773438 28.785156 C 21.960938 32.300781 31.683594 29.03125 35.511719 21.480469 C 36.703125 19.128906 37.210938 16.527344 36.984375 13.9375 Z M 31.277344 15.855469 "/>
<path style=" stroke:none;fill-rule:nonzero;fill:rgb(92.156863%,12.941177%,14.901961%);fill-opacity:1;" d="M 32.683594 9.410156 L 27.25 11.234375 C 28.269531 12.917969 28.730469 14.839844 28.578125 16.761719 L 34.285156 14.84375 C 34.121094 12.957031 33.578125 11.113281 32.683594 9.410156 M 7.570312 17.84375 L 2.136719 19.675781 C 2.636719 21.511719 3.503906 23.242188 4.691406 24.789062 L 10.398438 22.871094 C 8.945312 21.484375 7.960938 19.738281 7.570312 17.847656 "/>
<path style=" stroke:none;fill-rule:nonzero;fill:rgb(67.843139%,12.941177%,23.137255%);fill-opacity:1;" d="M 36.933594 6.3125 C 36.753906 6.042969 36.566406 5.777344 36.367188 5.519531 L 30.644531 7.441406 C 30.894531 7.679688 31.128906 7.929688 31.347656 8.1875 Z M 12.460938 14.601562 C 12.445312 14.25 12.453125 13.894531 12.480469 13.542969 L 6.761719 15.464844 C 6.792969 15.804688 6.835938 16.140625 6.890625 16.472656 Z M 12.460938 14.601562 "/>
<path style=" stroke:none;fill-rule:nonzero;fill:rgb(72.941178%,12.941177%,20%);fill-opacity:1;" d="M 36.984375 13.9375 L 31.277344 15.855469 C 31.214844 16.625 31.050781 17.386719 30.792969 18.121094 L 37.007812 16.03125 C 37.050781 15.332031 37.042969 14.632812 36.984375 13.9375 M 7.390625 23.882812 C 7.832031 24.457031 8.320312 25 8.84375 25.511719 L 15.058594 23.421875 C 14.34375 23.007812 13.683594 22.519531 13.097656 21.964844 Z M 7.390625 23.882812 "/>
<path style=" stroke:none;fill-rule:nonzero;fill:rgb(14.117648%,12.156863%,12.941177%);fill-opacity:1;" d="M 36.6875 35.050781 L 36.6875 35.527344 L 38.183594 35.527344 L 38.183594 39.738281 L 38.75 39.738281 L 38.75 35.527344 L 40.246094 35.527344 L 40.246094 35.050781 Z M 33.257812 35.527344 L 33.257812 37.082031 L 34.652344 37.082031 L 34.652344 37.558594 L 33.257812 37.558594 L 33.257812 39.738281 L 32.691406 39.738281 L 32.691406 35.050781 L 35.675781 35.050781 L 35.675781 35.527344 Z M 30.667969 35.050781 L 31.234375 35.050781 L 31.234375 39.738281 L 30.667969 39.738281 Z M 28.648438 39.738281 L 28.648438 37.527344 L 26.121094 37.527344 L 26.121094 39.738281 L 25.554688 39.738281 L 25.554688 35.050781 L 26.121094 35.050781 L 26.121094 37.054688 L 28.644531 37.054688 L 28.644531 35.050781 L 29.210938 35.050781 L 29.210938 39.738281 Z M 22.609375 39.8125 C 21.972656 39.8125 21.359375 39.582031 20.90625 39.164062 L 21.285156 38.777344 C 21.632812 39.121094 22.121094 39.324219 22.632812 39.339844 C 23.308594 39.339844 23.730469 39.03125 23.730469 38.535156 C 23.730469 38.101562 23.445312 37.851562 22.515625 37.542969 C 21.421875 37.183594 21.050781 36.855469 21.050781 36.179688 C 21.050781 35.429688 21.6875 34.980469 22.640625 34.980469 C 23.207031 34.964844 23.757812 35.144531 24.1875 35.484375 L 23.824219 35.894531 C 23.492188 35.609375 23.054688 35.453125 22.605469 35.457031 C 21.90625 35.457031 21.617188 35.777344 21.617188 36.148438 C 21.617188 36.535156 21.808594 36.757812 22.820312 37.09375 C 23.945312 37.46875 24.296875 37.816406 24.296875 38.511719 C 24.296875 39.25 23.671875 39.816406 22.613281 39.816406 M 18.609375 39.738281 L 16.746094 37.179688 C 16.625 37.003906 16.457031 36.769531 16.390625 36.652344 C 16.390625 36.824219 16.40625 37.414062 16.40625 37.675781 L 16.40625 39.738281 L 15.40625 39.738281 L 15.40625 35.050781 L 16.378906 35.050781 L 18.179688 37.53125 C 18.300781 37.703125 18.46875 37.941406 18.53125 38.058594 C 18.53125 37.882812 18.519531 37.296875 18.519531 37.035156 L 18.519531 35.050781 L 19.519531 35.050781 L 19.519531 39.738281 Z M 10.601562 39.738281 L 10.601562 35.050781 L 14.128906 35.050781 L 14.128906 35.96875 L 11.621094 35.96875 L 11.621094 36.78125 L 13.078125 36.78125 L 13.078125 37.691406 L 11.621094 37.691406 L 11.621094 38.824219 L 14.238281 38.824219 L 14.238281 39.738281 Z M 7.714844 38.078125 L 6.601562 38.078125 L 6.601562 39.738281 L 5.585938 39.738281 L 5.585938 35.050781 L 7.808594 35.050781 C 8.261719 35.003906 8.714844 35.144531 9.050781 35.429688 C 9.382812 35.714844 9.570312 36.117188 9.558594 36.539062 C 9.558594 37.625 8.773438 38.082031 7.722656 38.082031 M 7.773438 35.964844 L 6.609375 35.964844 L 6.609375 37.167969 L 7.792969 37.167969 C 8.261719 37.167969 8.515625 36.96875 8.515625 36.558594 C 8.515625 36.152344 8.226562 35.964844 7.777344 35.964844 M 2.234375 39.8125 C 0.90625 39.8125 0 38.917969 0 37.402344 C 0 35.886719 0.921875 34.976562 2.25 34.976562 C 3.578125 34.976562 4.476562 35.875 4.476562 37.386719 C 4.476562 38.898438 3.554688 39.8125 2.234375 39.8125 M 2.226562 35.910156 C 1.515625 35.910156 1.046875 36.4375 1.046875 37.390625 C 1.046875 38.339844 1.539062 38.882812 2.25 38.882812 C 2.960938 38.882812 3.433594 38.355469 3.433594 37.402344 C 3.433594 36.453125 2.9375 35.910156 2.226562 35.910156 "/>
</g>
</svg>
