<svg xmlns="http://www.w3.org/2000/svg" width="24" height="24" fill="none"><g fill="#fff" clip-path="url(#a)"><path d="M22.4 14.4h-7.209a1.3 1.3 0 0 0-.346-1.01c-.508-.543-1.244-2.775-1.244-5.39V6a6 6 0 0 0-12 0v2c0 2.615-.736 4.847-1.24 5.388a1.28 1.28 0 0 0-.245 1.417c.07.153.17.29.295.402q.418.376.91.65A5.97 5.97 0 0 0 0 19.6v1.6a1.2 1.2 0 0 0 1.2 1.2h11.6a1.6 1.6 0 0 0 1.6 1.6h8a1.6 1.6 0 0 0 1.6-1.6V16a1.6 1.6 0 0 0-1.6-1.6M2.4 6a5.2 5.2 0 1 1 10.4 0v.62a1.6 1.6 0 0 0-.413-.173 3.05 3.05 0 0 0-1.389-2.44 1.35 1.35 0 0 0-1.625.118c-.739.633-2.377.92-4.617.811a1.866 1.866 0 0 0-1.92 1.507q-.231.056-.435.176zm.8 1.2a.4.4 0 0 0 .4-.4 1.064 1.064 0 0 1 1.063-1.067h.054c1.726.085 4.028-.02 5.176-1.003a.56.56 0 0 1 .67-.054A2.35 2.35 0 0 1 11.602 6.8a.4.4 0 0 0 .4.4.8.8 0 0 1 0 1.6.4.4 0 0 0-.386.294c-.011.042-1.16 4.106-4.014 4.106S3.598 9.136 3.587 9.094a.4.4 0 0 0-.386-.294.8.8 0 0 1 0-1.6m3.2 6.68v-.08c.778.27 1.623.27 2.4 0v.08l-1.2 1.8zm.635 2.394-1.182.71a.1.1 0 0 1-.134-.04L4.552 14.61a5.2 5.2 0 0 1 1.24-.2zm2.373-1.862c.42.015.837.08 1.242.197l-1.165 2.333a.1.1 0 0 1-.063.051.1.1 0 0 1-.07-.007l-1.186-.712zm-8.458.206a.46.46 0 0 1-.116-.517.5.5 0 0 1 .107-.163c.597-.64 1.21-2.431 1.4-4.594.169.11.358.188.556.227.245.746 1.058 2.833 2.704 3.853v.196a5.97 5.97 0 0 0-3.72 1.631 4.2 4.2 0 0 1-.93-.634zM12.8 16v5.6H1.2a.4.4 0 0 1-.4-.4v-1.6a5.2 5.2 0 0 1 3-4.705l1.205 2.412a.9.9 0 0 0 1.258.364l1.338-.804 1.34.806a.9.9 0 0 0 1.257-.37l1.203-2.41c.521.245.999.575 1.412.978-.003.043-.012.085-.012.129m.315-.943A5.92 5.92 0 0 0 9.6 13.62v-.196c1.646-1.019 2.458-3.107 2.704-3.853.199-.04.387-.117.556-.227.19 2.163.803 3.955 1.4 4.596a.49.49 0 0 1 .12.462 1.6 1.6 0 0 0-1.266.655M23.2 22.4a.8.8 0 0 1-.8.8h-8a.8.8 0 0 1-.8-.8V16a.8.8 0 0 1 .8-.8h8a.8.8 0 0 1 .8.8z"/><path d="M17.6 16.4a.4.4 0 0 0-.4.4v2h-1.6v-2a.4.4 0 0 0-.8 0v4.8a.4.4 0 1 0 .8 0v-2h1.6v2a.4.4 0 1 0 .8 0v-4.8a.4.4 0 0 0-.4-.4M20.4 16.4h-1.2a.4.4 0 0 0-.4.4v4.8a.4.4 0 1 0 .8 0v-2h.8a.8.8 0 0 1 .8.8v1.2a.4.4 0 1 0 .8 0v-1.2a1.6 1.6 0 0 0-.552-1.2 1.594 1.594 0 0 0-1.047-2.8m0 2.4h-.8v-1.6h.8a.8.8 0 0 1 0 1.6"/></g><defs><clipPath id="a"><path fill="#fff" d="M0 0h24v24H0z"/></clipPath></defs></svg>