<svg xmlns="http://www.w3.org/2000/svg" width="16" height="16" fill="none"><g clip-path="url(#a)"><path stroke="#fff" stroke-linecap="round" stroke-linejoin="round" d="M10.032 3.333a3.33 3.33 0 0 1 2.633 2.634m-2.633-5.3a6 6 0 0 1 5.3 5.293m-.667 5.32v2a1.334 1.334 0 0 1-1.453 1.333 13.2 13.2 0 0 1-5.754-2.046 13 13 0 0 1-4-4 13.2 13.2 0 0 1-2.046-5.78 1.333 1.333 0 0 1 1.326-1.454h2A1.33 1.33 0 0 1 6.072 2.48a8.6 8.6 0 0 0 .466 1.873 1.33 1.33 0 0 1-.3 1.407l-.846.847a10.67 10.67 0 0 0 4 4l.846-.847a1.33 1.33 0 0 1 1.407-.3 8.6 8.6 0 0 0 1.873.467 1.333 1.333 0 0 1 1.147 1.353"/></g><defs><clipPath id="a"><path fill="#fff" d="M0 0h16v16H0z"/></clipPath></defs></svg>