<?xml version="1.0" encoding="UTF-8"?>
<svg xmlns="http://www.w3.org/2000/svg" xmlns:xlink="http://www.w3.org/1999/xlink" width="40px" height="40px" viewBox="0 0 40 40" version="1.1">
<g id="surface1">
<path style="fill-rule:nonzero;fill:rgb(13.725491%,12.156863%,12.54902%);fill-opacity:1;stroke-width:4.11;stroke-linecap:butt;stroke-linejoin:miter;stroke:rgb(13.725491%,12.156863%,12.54902%);stroke-opacity:1;stroke-miterlimit:4;" d="M 27.642773 24.00918 C 27.872852 22.388867 27.809766 22.149805 29.227344 22.41875 L 29.591016 22.41875 C 30.733984 22.461914 31.876953 22.299219 32.960547 21.940625 C 34.771484 21.256641 35.843945 20.041406 34.062695 20.346875 C 29.962109 21.030859 29.709766 19.888672 29.709766 19.888672 C 34.00332 14.479883 35.799414 7.593555 34.251953 5.940039 C 30.006641 1.374609 22.696094 3.546094 22.558789 3.602539 L 22.52168 3.602539 C 21.616211 3.449805 20.70332 3.370117 19.786719 3.363477 C 18.272656 3.29043 16.773438 3.668945 15.482031 4.455859 C 15.482031 4.455859 2.412109 -0.10625 3.020703 10.19668 C 3.143164 12.391406 6.731641 26.77832 10.995508 22.432031 C 12.572656 20.848242 14.075586 19.523438 14.075586 19.523438 C 14.862305 19.961719 15.760352 20.157617 16.658398 20.08125 L 16.736328 20.028125 C 16.70293 20.233984 16.70293 20.443164 16.736328 20.649023 C 15.663867 21.668359 15.983008 21.854297 13.812109 22.259375 C 11.6375 22.664453 12.891797 23.338477 13.749023 23.521094 C 14.780664 23.740234 17.166797 24.058984 18.792188 22.156445 L 18.729102 22.375586 C 19.15957 22.667773 19.133594 24.477344 19.192969 25.788867 C 19.185547 26.87793 19.341406 27.960352 19.664258 29.00293 C 19.972266 29.683594 20.350781 31.542969 23.230469 31.051562 C 25.642578 30.613281 27.486914 29.985742 27.657617 24.11875 " transform="matrix(1.052632,0,0,1.176471,0,0)"/>
<path style=" stroke:none;fill-rule:nonzero;fill:rgb(19.607843%,40.000001%,56.470591%);fill-opacity:1;" d="M 35.84375 23.960938 C 31.53125 24.765625 31.261719 23.421875 31.261719 23.421875 C 35.789062 17.054688 37.679688 8.953125 36.046875 7.007812 C 31.59375 1.617188 23.890625 4.175781 23.746094 4.238281 L 23.707031 4.238281 C 22.753906 4.058594 21.792969 3.964844 20.828125 3.957031 C 19.234375 3.871094 17.65625 4.316406 16.296875 5.242188 C 16.296875 5.242188 2.539062 -0.125 3.179688 11.996094 C 3.308594 14.578125 7.078125 31.503906 11.574219 26.390625 C 13.234375 24.527344 14.816406 22.96875 14.816406 22.96875 C 15.644531 23.484375 16.589844 23.714844 17.535156 23.625 L 17.617188 23.5625 C 17.582031 23.804688 17.582031 24.050781 17.617188 24.292969 C 16.488281 25.492188 16.824219 25.710938 14.539062 26.1875 C 12.25 26.664062 13.570312 27.457031 14.472656 27.675781 C 15.558594 27.929688 18.070312 28.304688 19.78125 26.066406 L 19.714844 26.324219 C 20.167969 26.667969 20.484375 28.558594 20.433594 30.277344 C 20.289062 31.558594 20.382812 32.855469 20.703125 34.09375 C 21.054688 35.019531 21.421875 37.085938 24.457031 36.507812 C 26.992188 35.992188 28.308594 34.660156 28.496094 32.421875 C 28.625 30.816406 28.921875 31.070312 28.941406 29.660156 L 29.179688 28.992188 C 29.453125 26.84375 29.222656 26.15625 30.792969 26.476562 L 31.175781 26.476562 C 32.378906 26.527344 33.578125 26.335938 34.722656 25.914062 C 36.628906 25.109375 37.757812 23.679688 35.878906 24.039062 Z M 35.84375 23.960938 "/>
<path style="fill:none;stroke-width:1.37;stroke-linecap:round;stroke-linejoin:round;stroke:rgb(100%,100%,100%);stroke-opacity:1;stroke-miterlimit:4;" d="M 18.951758 21.445898 C 18.844141 24.8625 18.951758 28.279102 19.374805 29.099219 C 19.801563 29.919336 20.606836 31.546289 23.475391 31.025 C 25.8875 30.586719 26.770703 29.740039 27.145508 27.860742 C 27.416406 26.496094 27.965625 22.654492 28.032422 21.870898 M 15.489453 4.366211 C 15.489453 4.366211 2.404688 -0.149414 3.020703 10.160156 C 3.161719 12.351562 6.724219 26.741797 10.991797 22.388867 C 12.550391 20.798437 13.960547 19.520117 13.960547 19.520117 M 22.558789 3.552734 C 22.109766 3.682227 29.835938 1.162109 34.222266 5.916797 C 35.773438 7.596875 33.977344 14.463281 29.680078 19.86875 " transform="matrix(1.052632,0,0,1.176471,0,0)"/>
<path style="fill:none;stroke-width:1.37;stroke-linecap:round;stroke-linejoin:bevel;stroke:rgb(100%,100%,100%);stroke-opacity:1;stroke-miterlimit:4;" d="M 29.672656 19.86875 C 29.672656 19.86875 29.947266 21.0375 34.025586 20.326953 C 35.806836 20.014844 34.708398 21.203516 32.923438 21.920703 C 31.442773 22.501758 28.14375 22.651172 28.054688 21.844336 C 27.909961 19.792383 29.802539 20.39668 29.672656 19.86875 C 29.542773 19.344141 28.704102 18.939062 28.140039 17.820117 C 27.579688 16.697852 21.438086 9.081055 29.861914 10.229883 C 30.169922 10.173438 27.661328 3.436523 19.779297 3.326953 C 11.893555 3.217383 12.15332 11.524805 12.15332 11.524805 " transform="matrix(1.052632,0,0,1.176471,0,0)"/>
<path style="fill:none;stroke-width:1.37;stroke-linecap:butt;stroke-linejoin:round;stroke:rgb(100%,100%,100%);stroke-opacity:1;stroke-miterlimit:4;" d="M 16.747461 20.585938 C 15.645313 21.625195 15.968164 21.811133 13.775 22.196289 C 11.581836 22.578125 12.854688 23.275391 13.715625 23.458008 C 14.747266 23.677148 17.129688 23.995898 18.755078 22.093359 C 19.248633 21.512305 18.755078 20.575977 18.072266 20.336914 C 17.85332 20.230664 17.604688 20.200781 17.363477 20.250586 C 17.125977 20.300391 16.907031 20.426562 16.747461 20.60918 Z M 16.747461 20.585938 " transform="matrix(1.052632,0,0,1.176471,0,0)"/>
<path style="fill:none;stroke-width:1.37;stroke-linecap:round;stroke-linejoin:round;stroke:rgb(100%,100%,100%);stroke-opacity:1;stroke-miterlimit:4;" d="M 16.673242 20.566016 C 16.673242 19.792383 16.884766 19.035352 17.281836 18.371289 C 17.838477 17.096289 19.133594 15.817969 18.098242 11.760547 C 17.326367 8.739062 12.157031 11.129687 12.157031 11.541406 C 12.283203 12.879492 12.253516 14.227539 12.067969 15.558984 C 11.652344 18.092383 13.967969 20.230664 16.636133 20.011523 " transform="matrix(1.052632,0,0,1.176471,0,0)"/>
<path style="fill-rule:nonzero;fill:rgb(100%,100%,100%);fill-opacity:1;stroke-width:0.46;stroke-linecap:butt;stroke-linejoin:miter;stroke:rgb(100%,100%,100%);stroke-opacity:1;stroke-miterlimit:4;" d="M 15.441211 11.47832 C 15.500586 11.631055 15.59707 11.763867 15.726953 11.860156 C 15.853125 11.959766 16.005273 12.022852 16.164844 12.039453 C 16.324414 12.062695 16.487695 12.039453 16.632422 11.973047 C 16.777148 11.90332 16.895898 11.79375 16.977539 11.657617 C 16.977539 11.521484 16.676953 11.362109 16.253906 11.315625 C 15.830859 11.26582 15.441211 11.322266 15.441211 11.47832 Z M 15.441211 11.47832 " transform="matrix(1.052632,0,0,1.176471,0,0)"/>
<path style="fill-rule:nonzero;fill:rgb(100%,100%,100%);fill-opacity:1;stroke-width:0.23;stroke-linecap:butt;stroke-linejoin:miter;stroke:rgb(100%,100%,100%);stroke-opacity:1;stroke-miterlimit:4;" d="M 28.347852 11.199414 C 28.288477 11.348828 28.191992 11.481641 28.06582 11.58125 C 27.935938 11.680859 27.783789 11.740625 27.624219 11.760547 C 27.464648 11.787109 27.297656 11.763867 27.149219 11.694141 C 27.004492 11.627734 26.87832 11.514844 26.79668 11.375391 C 26.79668 11.232617 27.097266 11.083203 27.520313 11.033398 C 27.943359 10.986914 28.307031 11.033398 28.333008 11.199414 Z M 28.347852 11.199414 " transform="matrix(1.052632,0,0,1.176471,0,0)"/>
<path style="fill:none;stroke-width:1.37;stroke-linecap:round;stroke-linejoin:round;stroke:rgb(100%,100%,100%);stroke-opacity:1;stroke-miterlimit:4;" d="M 29.861914 10.229883 C 29.932422 11.328906 29.583594 12.072656 29.542773 13.241406 C 29.475977 14.944727 30.500195 16.883789 28.960156 18.832812 " transform="matrix(1.052632,0,0,1.176471,0,0)"/>
</g>
</svg>
