<?xml version="1.0" encoding="UTF-8"?>
<svg xmlns="http://www.w3.org/2000/svg" xmlns:xlink="http://www.w3.org/1999/xlink" width="40px" height="40px" viewBox="0 0 40 40" version="1.1">
<g id="surface1">
<path style=" stroke:none;fill-rule:nonzero;fill:rgb(98.431373%,54.901963%,4.705882%);fill-opacity:1;" d="M 22.136719 14.417969 L 39.847656 14.417969 L 39.847656 25.949219 L 22.136719 25.949219 Z M 22.136719 14.417969 "/>
<path style=" stroke:none;fill-rule:nonzero;fill:rgb(98.431373%,54.901963%,4.705882%);fill-opacity:1;" d="M 12.175781 36.042969 L 6.640625 36.042969 L 6.640625 32.441406 L 12.175781 32.441406 Z M 18.816406 28.117188 L 0 28.117188 L 0 40.367188 L 18.816406 40.367188 Z M 18.816406 28.117188 "/>
<path style=" stroke:none;fill-rule:nonzero;fill:rgb(98.431373%,54.901963%,4.705882%);fill-opacity:1;" d="M 11.339844 10.0625 L 15.65625 7.25 L 26.839844 14.53125 L 22.519531 17.34375 Z M 11.339844 10.0625 "/>
<path style=" stroke:none;fill-rule:nonzero;fill:rgb(98.431373%,54.901963%,4.705882%);fill-opacity:1;" d="M 14.320312 28.097656 L 23.175781 22.34375 L 27.488281 25.15625 L 18.632812 30.910156 Z M 14.320312 28.097656 "/>
<path style=" stroke:none;fill-rule:nonzero;fill:rgb(98.431373%,54.901963%,4.705882%);fill-opacity:1;" d="M 12.175781 7.929688 L 6.640625 7.929688 L 6.640625 4.324219 L 12.175781 4.324219 Z M 18.816406 0 L 0 0 L 0 12.253906 L 18.816406 12.253906 Z M 18.816406 0 "/>
</g>
</svg>
