<svg xmlns="http://www.w3.org/2000/svg" width="37" height="48" fill="none"><g fill="#00D8FF" clip-path="url(#a)"><path d="M18.5 20.417c1.81 0 3.278-1.519 3.278-3.393s-1.468-3.392-3.278-3.392-3.277 1.519-3.277 3.393 1.467 3.392 3.277 3.392"/><path d="M18.5 24.962c-4.611 0-8.65-.566-11.685-1.634C2.613 21.838 0 19.424 0 17.025c0-2.31 2.417-4.563 6.469-6.029A36.7 36.7 0 0 1 18.5 9.157c4.024-.058 8.031.55 11.87 1.803C34.52 12.445 37 14.712 37 17.03c0 2.408-2.702 4.816-7.053 6.311a36.8 36.8 0 0 1-11.447 1.62m0-13.854c-3.868-.053-7.72.53-11.411 1.73-3.575 1.293-5.205 3.08-5.205 4.187 0 1.24 1.903 3.168 5.54 4.456 2.838 1.003 6.668 1.529 11.076 1.529a34.8 34.8 0 0 0 10.857-1.525c3.958-1.354 5.76-3.26 5.76-4.46 0-1.112-1.677-2.906-5.36-4.214A34.6 34.6 0 0 0 18.5 11.108"/><path d="M11.065 34.11a3.53 3.53 0 0 1-1.838-.47c-1.939-1.154-2.617-4.447-1.814-8.814a40.2 40.2 0 0 1 4.47-11.707 39 39 0 0 1 7.447-9.744C22.645.383 25.78-.702 27.72.451c2.008 1.202 2.682 4.834 1.763 9.477a40 40 0 0 1-4.367 11.08c-2.31 4.137-4.804 7.484-7.21 9.66-2.46 2.238-4.918 3.442-6.841 3.442m2.452-20.023a38.7 38.7 0 0 0-4.252 11.096c-.708 3.85-.027 6.204.903 6.757 1.04.622 3.606-.124 6.498-2.743 2.252-2.043 4.61-5.216 6.818-9.167a37.8 37.8 0 0 0 4.15-10.498c.836-4.213.14-6.79-.86-7.392-.929-.553-3.268.054-6.203 2.699a37.1 37.1 0 0 0-7.05 9.247z"/><path d="M25.936 34.11c-1.82 0-4.112-1.124-6.484-3.238a39.1 39.1 0 0 1-7.56-9.848A40 40 0 0 1 7.455 9.481C6.614 5.02 7.261 1.656 9.197.501c2.014-1.202 5.389 0 8.81 3.15a38.9 38.9 0 0 1 7.095 9.445c2.326 4.147 3.877 8.053 4.484 11.29.863 4.512.15 8.062-1.858 9.256a3.46 3.46 0 0 1-1.793.468M13.53 20.046a37.6 37.6 0 0 0 7.159 9.346c2.864 2.557 5.179 3.123 6.11 2.563 1.036-.618 1.695-3.287.95-7.19-.581-3.027-2.05-6.725-4.265-10.69A37.1 37.1 0 0 0 16.77 5.11c-2.98-2.738-5.583-3.539-6.619-2.921-.929.558-1.592 2.962-.847 6.918a38.2 38.2 0 0 0 4.22 10.938zM10.66 47.84l-2.206-3.387a2.2 2.2 0 0 0 1.532-.77 2.37 2.37 0 0 0 .564-1.663 2.5 2.5 0 0 0-.168-.999 2.5 2.5 0 0 0-.543-.843 2.4 2.4 0 0 0-.826-.545 2.3 2.3 0 0 0-.967-.154h-3.22v8.359h1.021v-3.333h1.584l2.047 3.335zM7.948 43.66h-2.1v-3.175h2.1c.208-.017.417.01.614.084.196.072.375.188.525.338s.267.332.344.533c.076.2.11.416.1.632a1.6 1.6 0 0 1-.109.628c-.078.199-.195.38-.344.529-.15.149-.327.265-.522.339a1.44 1.44 0 0 1-.61.091zm6.441 4.338c.428.022.854-.051 1.252-.216a3 3 0 0 0 1.05-.737l-.46-.634a2.5 2.5 0 0 1-1.795.742 2 2 0 0 1-.8-.142 2 2 0 0 1-.684-.456 2.1 2.1 0 0 1-.456-.696 2.2 2.2 0 0 1-.156-.826h4.755v-.265c0-1.803-1.021-3.228-2.81-3.228a2.8 2.8 0 0 0-1.137.257 2.9 2.9 0 0 0-.949.698 3 3 0 0 0-.607 1.027 3.1 3.1 0 0 0-.17 1.192c0 2.006 1.226 3.28 2.96 3.28zm1.84-3.546h-3.836a2.03 2.03 0 0 1 .546-1.407 1.9 1.9 0 0 1 1.345-.6c.257-.005.511.043.75.142.237.1.453.247.634.434.181.188.324.412.42.658s.142.51.137.775zm6.9 3.387V43.71c0-1.48-1.02-2.062-2.248-2.062a3 3 0 0 0-1.28.239c-.406.173-.771.433-1.072.764l.407.634c.218-.271.491-.488.801-.634s.647-.22.988-.213c.87 0 1.482.475 1.482 1.27v1.111a2.4 2.4 0 0 0-.873-.658 2.3 2.3 0 0 0-1.065-.188 1.9 1.9 0 0 0-.777.116 1.9 1.9 0 0 0-.667.427 2 2 0 0 0-.448.667 2.086 2.086 0 0 0 .008 1.588c.105.25.258.475.449.662.19.188.416.333.663.428.246.095.509.138.772.125.363.012.724-.058 1.059-.204s.634-.365.88-.643v.688zm-2.504-.476a1.24 1.24 0 0 1-1.004-.326 1.3 1.3 0 0 1-.317-.45 1.4 1.4 0 0 1-.11-.546c.004-.186.044-.37.12-.54.075-.169.183-.32.317-.444a1.265 1.265 0 0 1 .994-.338c.302-.018.604.04.88.17.276.128.517.324.704.57v1.164c-.19.242-.432.435-.707.563-.275.129-.575.19-.877.177m6.9.634c.415.017.826-.07 1.2-.255.375-.184.7-.46.95-.802l-.613-.581c-.166.248-.388.45-.646.59s-.546.212-.837.212c-1.227 0-1.993-1.003-1.993-2.328s.775-2.328 1.993-2.328c.292-.006.582.064.841.204.26.14.48.346.642.599l.612-.582a2.6 2.6 0 0 0-.945-.813 2.5 2.5 0 0 0-1.203-.264 3.03 3.03 0 0 0-2.065.987 3.24 3.24 0 0 0-.843 2.187c0 .813.302 1.596.843 2.187s1.28.944 2.065.987m4.907 0c.392.028.777-.106 1.074-.371l-.256-.688a.753.753 0 0 1-.613.265c-.406 0-.612-.317-.612-.802v-3.746H33.2v-.847h-1.176v-1.64h-.92v1.64h-.97v.846h.97v3.967c-.024.187-.005.376.054.554.058.177.156.339.284.472s.284.233.456.294.355.08.535.056z"/></g><defs><clipPath id="a"><path fill="#fff" d="M0 0h37v48H0z"/></clipPath></defs></svg>