<svg xmlns="http://www.w3.org/2000/svg" width="32" height="32" fill="none"><path fill="#fff" d="M30 6a2 2 0 0 0-2-2H13.41l2 2z"/><path fill="#fff" d="M14.29 7.71 10.59 4H4a2 2 0 0 0-2 2v20a2 2 0 0 0 2 2h24a2 2 0 0 0 2-2V8H15a1 1 0 0 1-.71-.29M5 8a1 1 0 1 1 0-2 1 1 0 0 1 0 2m3-1a1 1 0 1 1 2 0 1 1 0 0 1-2 0m4.69 12.29a1.002 1.002 0 0 1-.325 1.639 1 1 0 0 1-1.095-.219l-2-2a1 1 0 0 1 0-1.42l2-2a1.004 1.004 0 0 1 1.42 1.42L11.41 18zm6.58-2.58a1.004 1.004 0 1 1 1.42-1.42l2 2a1 1 0 0 1 0 1.42l-2 2a1.002 1.002 0 0 1-1.639-.325 1 1 0 0 1 .219-1.095L20.59 18zm-2-2.66a1 1 0 0 1 .73 1.27l-2 6a1 1 0 0 1-1 .68 1.3 1.3 0 0 1-.32-.05 1 1 0 0 1-.63-1.27l2-6a1 1 0 0 1 1.27-.63z"/></svg>