<svg xmlns="http://www.w3.org/2000/svg" width="36" height="36" fill="none"><path fill="#000" d="M31.484 3.961H4.516A2.27 2.27 0 0 0 2.25 6.227v17.47a2.27 2.27 0 0 0 2.266 2.267H15.53c.069 1.333-2.167 3.69-3.949 5.067a.563.563 0 0 0 .344 1.008h12.15a.566.566 0 0 0 .326-1.021c-.038-.027-3.517-2.534-3.803-5.054h10.886a2.27 2.27 0 0 0 2.266-2.266V6.227a2.27 2.27 0 0 0-2.266-2.266M4.516 5.086h26.968a1.14 1.14 0 0 1 1.141 1.14v14.816H3.375V6.227a1.14 1.14 0 0 1 1.14-1.141m17.99 25.828h-9.044c1.323-1.204 3.22-3.235 3.192-4.95h2.82c.17 1.99 1.83 3.85 3.033 4.95m8.978-6.075H4.516a1.14 1.14 0 0 1-1.141-1.141v-1.531h29.25v1.53a1.14 1.14 0 0 1-1.14 1.142"/><path fill="#000" d="M19.245 22.782h-2.662a.563.563 0 0 0 0 1.125h2.662a.563.563 0 0 0 0-1.125M8.696 16.52a2.255 2.255 0 0 0 2.468-2.228V10.69a.562.562 0 0 0-1.125 0v3.602a1.103 1.103 0 0 1-1.102 1.103 1.143 1.143 0 0 1-1.34-1.099v-3.583a.562.562 0 1 0-1.124 0v3.583a2.226 2.226 0 0 0 2.223 2.224M12.088 16.412a.563.563 0 0 0 .785-.125l1.374-1.893 1.272 1.878a.562.562 0 0 0 .932-.63l-1.502-2.217 1.744-2.404a.563.563 0 0 0-.911-.66l-1.504 2.073-1.394-2.059a.562.562 0 0 0-.932.63l1.624 2.398-1.613 2.224a.56.56 0 0 0 .125.785M17.137 18.182a.563.563 0 0 0 .75-.265l4.116-8.623a.562.562 0 1 0-1.015-.484l-4.117 8.622a.56.56 0 0 0 .266.75M24.903 16.52a2.256 2.256 0 0 0 2.469-2.228V10.69a.562.562 0 1 0-1.125 0v3.602a1.104 1.104 0 0 1-1.103 1.103 1.144 1.144 0 0 1-1.34-1.099v-3.583a.562.562 0 1 0-1.124 0v3.583a2.225 2.225 0 0 0 2.223 2.224M28.965 16.52a.56.56 0 0 0 .562-.563V10.69a.562.562 0 1 0-1.125 0v5.267a.564.564 0 0 0 .563.563"/></svg>