<svg xmlns="http://www.w3.org/2000/svg" width="38" height="44" fill="none"><g clip-path="url(#a)"><path fill="#000" d="M7.991 33.54a.67.67 0 0 0-.365.11.44.44 0 0 0-.212.357.25.25 0 0 0 .03.15l-.012-.026 2.22 7.121a.5.5 0 0 0 .241.295.7.7 0 0 0 .339.08.595.595 0 0 0 .59-.372l2.217-7.147v-.03c0 .036.01.016.01-.062a.44.44 0 0 0-.217-.357.7.7 0 0 0-.381-.119.46.46 0 0 0-.43.296l-1.789 5.908-1.796-5.895a.4.4 0 0 0-.182-.243.5.5 0 0 0-.262-.065m17.672.367a.62.62 0 0 0-.554.387.6.6 0 0 0 .145.654.615.615 0 0 0 1.038-.438.61.61 0 0 0-.19-.43.63.63 0 0 0-.44-.173m-5.202 2.28a2.2 2.2 0 0 0-1.536.606c-.412.394-.65.932-.664 1.499v1.177a2.03 2.03 0 0 0 .699 1.575 2.65 2.65 0 0 0 1.757.591c.432.01.859-.084 1.247-.271q.204-.1.363-.262a.48.48 0 0 0 .156-.33.5.5 0 0 0-.123-.318.45.45 0 0 0-.348-.18.5.5 0 0 0-.27.091c-.073.045-.143.095-.226.142-.237.134-.507.2-.78.187a1.63 1.63 0 0 1-1.046-.33 1.08 1.08 0 0 1-.395-.866v-.22h2.228c.252.023.506-.027.73-.144a.96.96 0 0 0 .367-.867 2.09 2.09 0 0 0-.642-1.486 2.13 2.13 0 0 0-1.517-.599zm8.37 0a1.93 1.93 0 0 0-1.416.514 1.55 1.55 0 0 0-.434 1.086 1.26 1.26 0 0 0 .475 1.041c.29.202.616.348.96.43q.449.108.861.316a.59.59 0 0 1 .328.566.46.46 0 0 1-.18.39c-.22.14-.48.206-.741.184a1.57 1.57 0 0 1-.88-.22c-.092-.055-.168-.114-.24-.165a.5.5 0 0 0-.28-.11.4.4 0 0 0-.315.178.53.53 0 0 0-.102.307c.007.139.067.27.167.367q.17.175.39.282c.401.192.843.287 1.288.279.49.025.974-.118 1.37-.405a1.41 1.41 0 0 0 .513-1.121 1.44 1.44 0 0 0-.47-1.135 2.55 2.55 0 0 0-.97-.474 6 6 0 0 1-.876-.293c-.216-.11-.318-.215-.318-.453a.6.6 0 0 1 .184-.417.97.97 0 0 1 .697-.226c.23 0 .457.045.668.134q.126.053.23.1.107.056.227.06a.43.43 0 0 0 .352-.212.55.55 0 0 0 .108-.317.4.4 0 0 0-.19-.322 1.4 1.4 0 0 0-.371-.19 3.1 3.1 0 0 0-1.034-.174m-15.18.063a.48.48 0 0 0-.47.254.5.5 0 0 0-.053.18v2.805c0 .575.231 1.126.642 1.533.411.406.968.635 1.55.635.58 0 1.138-.229 1.549-.635.41-.407.642-.958.642-1.533v-2.816a.4.4 0 0 0-.167-.313.57.57 0 0 0-.347-.11.6.6 0 0 0-.348.11.4.4 0 0 0-.175.316v2.815a1.13 1.13 0 0 1-.329.824 1.16 1.16 0 0 1-.825.344 1.17 1.17 0 0 1-.826-.344 1.14 1.14 0 0 1-.33-.824v-2.807a.4.4 0 0 0-.166-.311.55.55 0 0 0-.347-.122m12.012 0a.58.58 0 0 0-.35.106.4.4 0 0 0-.163.318v5.17c.018.307-.02.615-.112.91-.086.196-.187.284-.477.284a.5.5 0 0 0-.336.148.48.48 0 0 0-.135.339.47.47 0 0 0 .127.325.54.54 0 0 0 .396.15 1.4 1.4 0 0 0 1.225-.635c.258-.465.379-.992.35-1.522v-5.17a.4.4 0 0 0-.177-.32.6.6 0 0 0-.347-.103zm-5.214.847c.307.003.601.125.817.34.216.217.337.508.336.812a.4.4 0 0 1-.013.124c-.007.019-.006.016-.016.022a.9.9 0 0 1-.329.04h-1.949v-.228c.005-.299.129-.583.345-.791.217-.208.508-.323.81-.32zm3.293 3.209a.67.67 0 0 0-.63.395.66.66 0 0 0 .133.726.67.67 0 0 0 1.148-.456.66.66 0 0 0-.188-.464.67.67 0 0 0-.463-.201"/><path fill="#fff" d="M7.719.134h6.828l4.464 7.328L23.459.134h6.823L19.045 19.417z"/><path fill="#41B883" d="m.27.187 7.44-.05 11.327 19.281L30.274.136l7.455.008L19.036 31.88z"/></g><defs><clipPath id="a"><path fill="#fff" d="M0 0h38v44H0z"/></clipPath></defs></svg>