<svg width="260" height="56" viewBox="0 0 260 56" fill="none" xmlns="http://www.w3.org/2000/svg">
<g clip-path="url(#clip0_12158_673)">
<path fill-rule="evenodd" clip-rule="evenodd" d="M171.864 20.457C174.565 20.457 176.754 22.6285 176.754 25.307C176.754 27.9855 174.565 30.1569 171.864 30.1569C169.163 30.1569 166.974 27.9855 166.974 25.307C166.974 22.6285 169.163 20.457 171.864 20.457ZM237.783 38.2692C238.031 30.1348 251.208 29.3919 258.847 33.9794L256.025 39.4824C253.395 37.6692 251.117 36.823 248.22 37.0574C245.472 37.28 245.175 40.2475 249.631 40.1355C256.589 39.96 260.345 43.5879 259.975 48.2492C259.379 55.7762 247.424 58.8572 236.936 52.2589L240.792 46.663C243.706 48.3244 246.612 49.8073 249.537 49.4609C252.573 49.1012 254.104 46.6733 248.692 46.1028C241.319 45.3274 237.639 42.9938 237.783 38.2692ZM180.293 55.875V32.6954H188.801V35.9474C192.102 30.5166 204.939 30.4355 204.94 38.9178L204.943 55.875H196.459L196.365 44.2203C196.328 39.5591 194.619 39.1212 192.315 39.3792C190.403 39.593 188.691 40.2814 188.691 44.2203V55.875H180.295H180.293ZM167.445 32.2797H176.284V55.875H167.445V32.2797ZM124.343 55.875V32.6954H132.851V35.9474C135.4 31.7284 145.226 29.6705 148.049 36.2127C152.059 30.269 163.79 30.5402 163.787 38.6171L163.778 55.875H154.759V43.1943C154.759 39.7876 154.173 39.4618 151.286 39.5885C148.925 39.6917 148.386 41.6347 148.376 43.8415L148.32 55.8764H139.835L139.742 44.2218C139.705 39.5605 138.673 39.164 136.363 39.3807C134.076 39.5944 133.075 39.9099 133.075 44.2218V55.8764H124.343V55.875ZM109.002 30.9736C115.936 30.9736 121.556 36.5474 121.556 43.4243C121.556 50.3012 115.936 55.875 109.002 55.875C102.068 55.875 96.448 50.3012 96.448 43.4243C96.448 36.5474 102.068 30.9736 109.002 30.9736ZM109.002 38.9945C111.469 38.9945 113.469 40.9772 113.469 43.4243C113.469 45.8714 111.469 47.8541 109.002 47.8541C106.535 47.8541 104.535 45.8714 104.535 43.4243C104.535 40.9772 106.535 38.9945 109.002 38.9945ZM61.9507 55.875V23.053H71.7905C74.9134 23.053 77.5859 23.2211 79.7932 23.5586C82.0004 23.8947 83.8064 24.4151 85.1857 25.1198C88.1184 26.6116 90.3583 28.5943 91.9265 31.0576C93.4872 33.5224 94.2675 36.3307 94.2675 39.4824C94.2675 42.6341 93.4872 45.4203 91.9339 47.8688C90.3806 50.3174 88.1332 52.3001 85.1843 53.8067C83.7573 54.5261 81.9365 55.0538 79.7367 55.3826C77.5369 55.7113 74.5804 55.872 70.8898 55.872H61.9492L61.9507 55.875ZM71.7757 47.2055V31.724H75.7948C77.0701 31.724 78.1611 31.8036 79.0634 31.9628C79.9656 32.122 80.7028 32.3667 81.2662 32.6984C82.4642 33.403 83.3783 34.3376 84.0204 35.4993C84.6581 36.6609 84.9762 37.9861 84.9762 39.4736C84.9762 40.961 84.6581 42.2744 84.0234 43.4302C83.3887 44.5859 82.4716 45.5205 81.2662 46.2311C80.6835 46.5701 79.9388 46.8192 79.0411 46.974C78.1433 47.1288 76.9349 47.2055 75.4277 47.2055H71.7757ZM219.837 30.9736C226.769 30.9736 232.391 36.5474 232.391 43.4243C232.391 50.3012 226.771 55.875 219.837 55.875C212.903 55.875 207.283 50.3012 207.283 43.4243C207.283 36.5474 212.903 30.9736 219.837 30.9736ZM219.837 38.9945C222.304 38.9945 224.303 40.9772 224.303 43.4243C224.303 45.8714 222.304 47.8541 219.837 47.8541C217.369 47.8541 215.37 45.8714 215.37 43.4243C215.37 40.9772 217.369 38.9945 219.837 38.9945ZM235.01 20.5101C236.945 20.5101 238.608 21.6585 239.348 23.3036C239.918 24.5714 239.962 26.1871 239.617 27.5344C239.087 29.61 237.321 31.6399 233.602 33.5652L232.576 32.1883C233.305 31.5869 234.052 30.9648 234.354 30.5107C234.895 29.6985 234.189 29.899 233.593 29.7147C231.662 29.1177 230.261 27.3295 230.261 25.2185C230.261 22.6181 232.386 20.5086 235.01 20.5086V20.5101Z" fill="white"/>
<path d="M147.246 54.877C147.342 54.877 147.434 54.9005 147.524 54.9492C147.615 54.9978 147.685 55.0671 147.735 55.157C147.786 55.247 147.811 55.3413 147.811 55.4386C147.811 55.5359 147.786 55.6288 147.737 55.7172C147.688 55.8071 147.617 55.8764 147.527 55.9251C147.438 55.9752 147.343 55.9988 147.245 55.9988C147.147 55.9988 147.053 55.9737 146.963 55.9251C146.872 55.8764 146.802 55.8071 146.753 55.7172C146.702 55.6288 146.677 55.5344 146.677 55.4386C146.677 55.3428 146.702 55.247 146.753 55.157C146.803 55.0671 146.875 54.9978 146.965 54.9492C147.056 54.9005 147.148 54.877 147.243 54.877H147.246ZM147.246 54.9698C147.166 54.9698 147.089 54.9905 147.015 55.0303C146.939 55.0701 146.881 55.129 146.838 55.2042C146.795 55.2794 146.774 55.3575 146.774 55.4386C146.774 55.5197 146.795 55.5963 146.836 55.6715C146.878 55.7452 146.936 55.8042 147.012 55.8455C147.087 55.8867 147.165 55.9074 147.246 55.9074C147.328 55.9074 147.407 55.8867 147.481 55.8455C147.557 55.8042 147.615 55.7467 147.657 55.6715C147.698 55.5978 147.719 55.5197 147.719 55.4386C147.719 55.3575 147.698 55.2794 147.655 55.2042C147.614 55.129 147.554 55.0715 147.478 55.0303C147.402 54.9905 147.325 54.9698 147.246 54.9698ZM146.998 55.7482V55.1438H147.208C147.279 55.1438 147.331 55.1497 147.364 55.16C147.397 55.1718 147.422 55.1909 147.441 55.219C147.46 55.247 147.469 55.2764 147.469 55.3074C147.469 55.3516 147.453 55.39 147.422 55.4224C147.391 55.4548 147.347 55.474 147.295 55.4769C147.316 55.4858 147.334 55.4961 147.347 55.5094C147.373 55.5329 147.402 55.5727 147.438 55.6288L147.512 55.7467H147.392L147.339 55.6509C147.295 55.5757 147.261 55.5285 147.236 55.5108C147.218 55.4976 147.191 55.4902 147.157 55.4902H147.099V55.7467H147.001L146.998 55.7482ZM147.096 55.4091H147.215C147.272 55.4091 147.31 55.4003 147.331 55.3841C147.352 55.3678 147.362 55.3443 147.362 55.3162C147.362 55.2986 147.358 55.2823 147.347 55.2676C147.337 55.2543 147.324 55.2425 147.306 55.2366C147.288 55.2293 147.255 55.2263 147.206 55.2263H147.095V55.4091H147.096Z" fill="white"/>
<path fill-rule="evenodd" clip-rule="evenodd" d="M19.0866 17.6268L36.3791 0.535544C37.1029 -0.179419 38.2846 -0.176471 39.004 0.539966L55.32 16.7777C56.0409 17.4956 56.0394 18.6661 55.3155 19.3811L38.0215 36.4724L19.0851 17.6254L19.0866 17.6268ZM34.582 14.593C36.3984 12.799 39.337 12.8034 41.1459 14.6048C42.9548 16.4062 42.9503 19.3206 41.134 21.1147C39.3176 22.9087 36.3791 22.9043 34.5702 21.1029C32.7612 19.3015 32.7657 16.3871 34.582 14.593Z" fill="white"/>
<path fill-rule="evenodd" clip-rule="evenodd" d="M21.5183 34.1989C23.3346 32.4048 26.2732 32.4093 28.0821 34.2107C29.891 36.0121 29.8866 38.9265 28.0702 40.7205C26.2554 42.5146 23.3153 42.5101 21.5064 40.7087C19.6975 38.9088 19.7019 35.9929 21.5183 34.1989ZM7.93131 34.2402C9.74766 32.4461 12.6862 32.4505 14.4951 34.2519C16.3041 36.0534 16.2996 38.9678 14.4833 40.7618C12.6684 42.5558 9.72834 42.5514 7.91942 40.75C6.1105 38.9501 6.11496 36.0342 7.93131 34.2402ZM0.544016 35.9516L17.838 18.8604L36.7745 37.7074L19.4805 54.7986C18.7566 55.5136 17.5764 55.5107 16.8555 54.7942L0.539557 38.5565C-0.181336 37.8386 -0.179849 36.6681 0.544016 35.9531V35.9516Z" fill="white"/>
<path d="M25.4913 55.416V53.1163H24.6084V52.7153H26.8335V53.1163H25.9447V55.416H25.4913ZM27.1397 55.416V52.7139H27.8086L28.4968 54.872L29.1612 52.7139H29.8167V55.416H29.402V53.1487L28.7004 55.416H28.2902L27.5574 53.1163V55.416H27.1397Z" fill="white"/>
</g>
<defs>
<clipPath id="clip0_12158_673">
<rect width="260" height="56" fill="white"/>
</clipPath>
</defs>
</svg>
