<svg width="171" height="56" viewBox="0 0 171 56" fill="none" xmlns="http://www.w3.org/2000/svg">
<path d="M42.0417 19.7769H22.0817V25.6903H36.2339C35.5353 33.983 28.6271 37.5197 22.1064 37.5197C17.9126 37.5173 13.8916 35.851 10.9279 32.8875C7.96423 29.924 6.30059 25.906 6.303 21.7174C6.30541 17.5287 7.97366 13.5126 10.9408 10.5525C13.9079 7.59237 17.9308 5.93077 22.1245 5.93318C26.1002 5.92416 29.9244 7.4555 32.7927 10.2051L36.9403 5.91761C34.9482 3.99305 32.5957 2.4798 30.0174 1.46443C27.4391 0.449063 24.6856 -0.0484609 21.9146 0.000342562C19.0331 -0.0180629 16.1766 0.535501 13.5112 1.62893C10.8457 2.72236 8.4243 4.33386 6.38761 6.36979C4.35091 8.40573 2.73952 10.8256 1.64701 13.4887C0.554501 16.1519 0.00265667 19.0053 0.0235194 21.8833C0.0443821 24.7612 0.637536 27.6063 1.76854 30.2534C2.89954 32.9005 4.54586 35.2968 6.61186 37.303C8.67785 39.3093 11.1223 40.8856 13.8034 41.9404C16.4844 42.9951 19.3486 43.5074 22.2295 43.4473C33.8737 43.4473 42.3982 35.4795 42.3982 23.698C42.424 22.3811 42.3027 21.0655 42.0365 19.7756L42.0417 19.7769Z" fill="white"/>
<path d="M58.3855 15.4948C55.6244 15.5043 52.928 16.3302 50.6362 17.8682C48.3444 19.4062 46.5598 21.5876 45.5076 24.1372C44.4553 26.6868 44.1825 29.4906 44.7235 32.1949C45.2645 34.8992 46.5951 37.3829 48.5475 39.333C50.4999 41.283 52.9866 42.6119 55.6942 43.1523C58.4018 43.6926 61.209 43.4201 63.7617 42.3691C66.3144 41.3182 68.4985 39.5358 70.0384 37.2468C71.5782 34.9577 72.4051 32.2646 72.4146 29.5068C72.4434 27.6588 72.1003 25.8238 71.4055 24.1108C70.7107 22.3977 69.6784 20.8416 68.3699 19.5346C67.0614 18.2277 65.5033 17.1967 63.7882 16.5027C62.0731 15.8088 60.2358 15.466 58.3855 15.4948ZM58.4672 20.9798C60.1695 20.8786 61.8629 21.2907 63.3277 22.1628C64.7925 23.0348 65.9611 24.3264 66.6819 25.87C67.4026 27.4136 67.6422 29.138 67.3695 30.8192C67.0968 32.5005 66.3245 34.0612 65.1528 35.2986C63.981 36.5361 62.4639 37.3932 60.7984 37.7587C59.1328 38.1243 57.3957 37.9814 55.8125 37.3487C54.2293 36.716 52.873 35.6226 51.9197 34.2104C50.9664 32.7982 50.46 31.1324 50.4663 29.4292C50.4089 28.343 50.5731 27.2566 50.9489 26.2357C51.3248 25.2149 51.9044 24.2811 52.6527 23.4909C53.401 22.7007 54.3022 22.0706 55.3018 21.6389C56.3013 21.2073 57.3782 20.983 58.4672 20.9798Z" fill="white"/>
<path d="M88.9542 15.4948C86.1931 15.5043 83.4966 16.3302 81.2048 17.8682C78.913 19.4062 77.1284 21.5876 76.0762 24.1372C75.0239 26.6868 74.7511 29.4906 75.2921 32.1949C75.8331 34.8992 77.1637 37.3829 79.1161 39.333C81.0685 41.283 83.5552 42.6119 86.2628 43.1523C88.9704 43.6926 91.7775 43.4201 94.3303 42.3691C96.883 41.3182 99.067 39.5358 100.607 37.2468C102.147 34.9577 102.974 32.2646 102.983 29.5068C103.012 27.6588 102.669 25.8238 101.974 24.1108C101.279 22.3977 100.247 20.8416 98.9385 19.5346C97.63 18.2277 96.0719 17.1967 94.3568 16.5027C92.6417 15.8088 90.8044 15.466 88.9542 15.4948ZM89.0358 20.9798C90.7381 20.8786 92.4315 21.2907 93.8963 22.1628C95.3611 23.0348 96.5297 24.3264 97.2505 25.87C97.9712 27.4136 98.2107 29.138 97.9381 30.8192C97.6654 32.5005 96.8931 34.0612 95.7214 35.2986C94.5496 36.5361 93.0325 37.3932 91.367 37.7587C89.7014 38.1243 87.9643 37.9814 86.3811 37.3487C84.7979 36.716 83.4416 35.6226 82.4883 34.2104C81.535 32.7982 81.0286 31.1324 81.0349 29.4292C80.9775 28.343 81.1417 27.2566 81.5175 26.2357C81.8934 25.2149 82.473 24.2811 83.2213 23.4909C83.9696 22.7007 84.8708 22.0706 85.8703 21.6389C86.8699 21.2073 87.9468 20.983 89.0358 20.9798Z" fill="white"/>
<path d="M118.937 15.5085C111.42 15.5085 105.514 22.0835 105.514 29.4623C105.458 33.0664 106.819 36.5489 109.304 39.1627C111.789 41.7764 115.201 43.3132 118.807 43.4432C120.263 43.5222 121.716 43.2559 123.049 42.6662C124.382 42.0765 125.556 41.18 126.475 40.0502V42.8037C126.475 47.6206 123.547 50.5061 119.126 50.5061C117.572 50.4896 116.058 50.0068 114.782 49.1204C113.506 48.234 112.526 46.9848 111.969 45.5351L106.595 47.7786C107.634 50.2433 109.385 52.3426 111.624 53.8077C113.864 55.2728 116.491 56.037 119.168 56.0027C126.64 56.0027 132.335 51.3022 132.335 41.4431V16.3487H126.472V18.7138C125.518 17.6729 124.351 16.8483 123.051 16.2957C121.751 15.743 120.347 15.475 118.934 15.5098L118.937 15.5085ZM119.481 20.9831C123.166 20.9831 126.949 24.1262 126.949 29.492C126.949 34.9472 123.174 37.9531 119.4 37.9531C115.393 37.9531 111.666 34.7038 111.666 29.5387C111.666 24.178 115.537 20.9779 119.483 20.9779L119.481 20.9831Z" fill="white"/>
<path d="M158.401 15.4756C151.312 15.4756 145.359 21.1094 145.359 29.4216C145.29 31.2544 145.595 33.082 146.257 34.7931C146.918 36.5042 147.921 38.0628 149.205 39.374C150.489 40.6851 152.027 41.7212 153.725 42.4192C155.424 43.1171 157.246 43.4622 159.082 43.4335C161.386 43.4388 163.656 42.8835 165.697 41.8157C167.737 40.748 169.487 39.1999 170.794 37.3052L165.961 34.0896C165.26 35.2767 164.257 36.2575 163.054 36.9325C161.851 37.6075 160.491 37.9527 159.111 37.9331C157.675 37.9925 156.255 37.6212 155.033 36.8669C153.81 36.1127 152.842 35.0101 152.253 33.7013L171 25.9341L170.027 23.657C169.132 21.2871 167.546 19.24 165.473 17.7813C163.4 16.3225 160.936 15.5193 158.401 15.4756ZM158.646 20.8466C159.702 20.8015 160.749 21.0576 161.666 21.5848C162.582 22.112 163.329 22.8886 163.82 23.824L151.301 29.05C151.239 28.0284 151.381 27.0048 151.718 26.0383C152.055 25.0717 152.58 24.1812 153.263 23.4182C153.946 22.6552 154.773 22.0346 155.697 21.5924C156.621 21.1501 157.624 20.8949 158.647 20.8414L158.646 20.8466Z" fill="white"/>
<path d="M136.421 42.6049H142.579V1.44531H136.421V42.6049Z" fill="white"/>
</svg>
