<svg width="222" height="56" viewBox="0 0 222 56" fill="none" xmlns="http://www.w3.org/2000/svg">
<path d="M221.983 35.0332C221.927 34.1957 221.895 33.2502 220.92 32.934C219.753 32.5568 219.547 33.6134 219.164 34.3115C218.215 36.5669 216.817 38.6049 215.055 40.3004C213.257 41.7295 212.806 41.5948 212.189 39.3909C211.424 36.6641 211.84 33.8765 211.754 31.1169C211.859 27.4049 211.078 23.7213 209.474 20.3727C207.093 16.0149 202.168 15.4748 198.715 19.0311C197.142 20.6766 195.897 22.6072 195.046 24.7195C194.056 27.0878 193.004 29.431 191.72 32.3753C191.166 30.6665 190.93 28.8708 191.021 27.0768C191.097 24.8055 190.788 22.5376 190.108 20.3694C189.17 17.9135 186.58 15.7832 184.847 16.3154C182.425 17.0573 182.501 19.4616 182.375 21.354C182.106 24.7919 182.089 28.2447 182.324 31.685C182.403 33.2819 182.119 34.8759 181.494 36.3472C180.869 37.8185 179.919 39.1289 178.716 40.1798C178.267 40.6494 177.851 41.3773 177.083 41.191C176.145 40.964 176.23 40.0468 176.145 39.3236C175.844 35.4691 175.927 31.5941 176.392 27.7561C176.585 25.142 176.027 22.5274 174.783 20.2208C173.717 18.1186 171.187 16.7097 169.367 17.5174C168.799 17.7591 168.177 17.8478 167.564 17.7748C166.951 17.7018 166.367 17.4695 165.871 17.1011C159.45 13.8327 153.115 15.9067 149.893 22.3354C148.325 25.4265 147.596 28.8758 147.779 32.3377C147.87 34.1237 146.803 34.8703 145.409 35.4855C144.975 35.7491 144.47 35.8707 143.964 35.8334C143.458 35.7961 142.977 35.6017 142.586 35.2774C141.301 34.2271 141.822 33.0561 142.144 31.8336C143.235 28.3823 143.748 24.7743 143.664 21.1553C143.67 20.1242 143.278 19.1306 142.57 18.3821C141.861 17.6335 140.891 17.188 139.863 17.1387C139.383 17.0442 138.889 17.047 138.411 17.1471C137.933 17.2473 137.479 17.4429 137.078 17.7219C136.676 18.0009 136.335 18.3578 136.074 18.7715C135.813 19.1852 135.637 19.6472 135.558 20.13C134.129 24.0425 134.246 28.3537 135.885 32.1827C136.45 33.2694 136.7 34.4923 136.607 35.7136C136.515 36.9349 136.083 38.1061 135.361 39.0951C134.953 39.7008 134.736 40.7153 133.852 40.5901C132.969 40.4648 132.992 39.4284 132.87 38.7303C131.984 33.6087 130.611 28.5686 130.498 23.3154C130.606 21.8228 130.196 20.3387 129.338 19.1129C128.481 17.8871 127.228 16.9943 125.791 16.5846C122.799 15.6579 121.6 16.6034 121.954 19.6917C122.255 23.6255 122.763 27.5406 123.478 31.4205C124.277 34.9909 122.732 37.4186 120.593 39.7807C120.015 40.4177 119.482 41.5777 118.415 41.1457C117.477 40.7622 117.549 39.5616 117.477 38.685C117.24 35.921 117.303 33.1394 117.665 30.3889C118.338 26.9779 117.869 23.44 116.331 20.3226C115.122 18.0842 112.666 16.6659 110.738 17.5566C110.211 17.7899 109.629 17.8747 109.057 17.8016C108.485 17.7285 107.944 17.5003 107.492 17.1418C100.98 13.7279 94.3753 15.9946 91.206 22.6299C89.6042 26.3481 88.9628 30.4099 89.3407 34.4414C89.2694 36.996 90.0478 39.5018 91.5538 41.5653C93.0597 43.6288 95.2077 45.1331 97.6604 45.8416C98.3921 46.1844 99.188 46.3683 99.9957 46.3814C100.803 46.3945 101.605 46.2365 102.347 45.9176C103.09 45.5988 103.756 45.1264 104.304 44.5314C104.851 43.9364 105.266 43.2323 105.522 42.4653C106.111 41.0956 106.591 39.679 107.27 37.893C107.532 38.2451 107.758 38.622 107.946 39.0185C109.059 43.6408 112.886 45.0386 116.802 45.876C120.241 46.6132 122.493 44.2966 124.219 41.6356C125.157 40.1956 125.558 40.853 126.303 41.8219C130.156 46.8058 135.356 46.416 138.376 40.9766C138.421 40.9062 138.462 40.8325 138.496 40.7559C139.34 38.4534 140.54 37.0525 143.32 38.3329C144.46 38.7205 145.702 38.6832 146.817 38.228C147.857 37.8946 148.359 38.228 148.747 39.1797C149.397 40.6505 150.341 41.9726 151.521 43.0647C152.7 44.1568 154.091 44.9956 155.606 45.5299C159.598 47.2158 162.702 45.8979 164.326 41.8406C164.806 40.6432 165.232 39.4238 165.718 38.1168C166.715 38.8274 166.634 39.6742 166.934 40.3348C168.542 43.8739 174.572 46.7322 178.017 45.6568C179.967 45.0479 181.244 42.2836 182.578 42.5983C184.241 42.9912 185.563 45.0588 187.597 45.6599C190.591 46.5427 191.975 45.9292 192.757 43.1289C193.72 39.74 194.603 36.326 195.665 32.9669C197.005 28.7234 198.296 24.4284 201.381 21.0004C201.805 20.5308 202.207 19.7089 202.973 20.0438C203.786 20.3992 203.339 21.2227 203.251 21.8472C202.534 26.6679 202.281 31.5461 202.495 36.4152C202.715 39.0341 203.94 41.4656 205.914 43.199C207.887 44.9324 210.454 45.8331 213.077 45.7117C217.68 45.3923 222.308 39.8355 221.983 35.0332ZM107.586 21.2868C105.592 26.9688 104.512 32.942 102.032 38.4565C101.54 39.5522 100.761 41.2489 99.543 40.939C98.0592 40.5602 98.6971 38.6662 98.4313 37.4562C98.6429 32.8228 99.8142 28.2839 101.871 24.1277C102.771 22.394 104.201 20.9945 105.954 20.1346C107.054 19.6212 108.039 19.9923 107.586 21.2868ZM139.625 27.6137C139.21 26.5826 139.023 25.4738 139.077 24.3635C139.131 23.2532 139.425 22.1678 139.938 21.1819C140.394 23.3161 140.286 25.534 139.625 27.6137ZM166.124 21.4668C164.561 26.6902 162.949 31.8994 161.334 37.1056C161.17 37.5842 160.936 38.0354 160.638 38.4439C159.931 39.4629 159.27 41.2365 158.116 40.9594C156.674 40.6135 157.223 38.6803 156.84 37.486C157.575 32.5146 158.091 27.5635 160.947 23.2793C161.796 21.9041 163.026 20.8061 164.487 20.1191C165.749 19.5697 166.579 19.9422 166.121 21.4653L166.124 21.4668Z" fill="white"/>
<path d="M21.5662 29.2165C20.9849 29.1082 20.3974 29.0361 19.8072 29.0006C17.6714 28.9787 17.8309 28.1082 18.8691 26.748C21.5725 23.2026 24.2275 19.6228 26.9105 16.0649C29.3247 12.8289 31.4311 9.37378 33.2023 5.7449C33.9982 4.13421 34.339 2.31381 32.6645 0.892524C30.9586 -0.547547 29.3528 0.197497 27.8298 1.28538C27.3549 1.63529 26.9146 2.03006 26.5149 2.46412C23.1359 5.87131 19.9442 9.45946 16.9537 13.2129C15.3444 15.3924 13.4957 17.3839 11.4422 19.15C11.1763 16.7567 10.984 14.866 10.7557 12.9798C10.4835 9.71452 9.8076 6.49556 8.74342 3.39696C7.98352 1.41999 5.37077 -0.38938 3.84629 0.0661205C1.90278 0.64841 2.04193 2.55488 1.86368 4.03878C1.39461 7.8675 1.09134 11.7181 0.814592 15.5672C-0.0980429 26.1005 -0.22191 36.6875 0.444027 47.2394C0.891207 52.984 4.26845 54.0938 8.5495 54.9328C11.2076 55.4541 12.7367 53.6804 12.3599 50.9866C12.2208 49.9895 12.0613 48.9956 11.9299 47.997C11.0168 41.0533 12.4335 38.3141 18.1233 36.0131C20.4155 35.0864 20.8298 35.387 20.6046 37.8132C20.2575 41.5699 19.8682 45.3265 19.5633 49.0832C19.2584 52.84 20.1075 53.9857 23.8037 55.0517C24.6152 55.2849 25.4282 55.5214 26.2459 55.7249C30.1721 56.7329 33.207 54.8795 33.8793 50.9772C34.2448 48.9964 34.4912 46.9955 34.6173 44.9852C35.0723 35.966 30.4473 30.4171 21.5662 29.2165Z" fill="white"/>
<path d="M90.1052 16.6821C88.7829 16.1009 87.3178 15.9257 85.896 16.179C84.4741 16.4324 83.1594 17.1027 82.1185 18.1049C81.1459 19.1396 80.4299 21.1791 79.4605 21.2699C77.85 21.4264 78.022 18.9862 76.9119 17.9828C76.4414 17.4364 75.8468 17.0111 75.178 16.7425C74.5093 16.474 73.7858 16.37 73.0686 16.4395C71.677 16.7322 71.8443 18.2975 71.641 19.3994C70.7715 24.0243 70.2934 28.7145 70.2119 33.4198C70.2134 34.6752 69.953 35.917 69.4473 37.0658C68.9417 38.2145 68.202 39.245 67.2756 40.0911C66.7611 40.5998 66.2984 41.4888 65.4415 41.1867C64.5034 40.8517 64.5675 39.8265 64.5393 39.0142C64.3057 35.5752 64.3984 32.1219 64.8161 28.7004C65.2169 25.6731 64.5932 22.5987 63.0446 19.9677C62.6185 18.9788 61.8426 18.1822 60.8656 17.7312C59.8887 17.2801 58.7798 17.2065 57.7519 17.5242C57.1751 17.7138 56.5641 17.7755 55.9612 17.705C55.3582 17.6344 54.778 17.4334 54.2605 17.1157C50.2265 15.2702 46.2096 14.6222 42.307 17.5649C38.0275 20.7926 36.614 25.4055 36.1872 30.3628C35.4648 38.7637 38.0931 43.4423 44.5319 45.8232C45.2773 46.1881 46.0926 46.3878 46.9222 46.4088C47.7517 46.4298 48.5761 46.2715 49.339 45.9447C50.1019 45.6178 50.7855 45.1301 51.3431 44.5149C51.9007 43.8996 52.3193 43.1714 52.5703 42.3796C53.1472 41.0272 53.6194 39.6309 54.1338 38.2816C54.4872 38.3896 54.5919 38.388 54.631 38.4381C54.7348 38.5664 54.819 38.7093 54.8812 38.8623C57.5549 45.8732 64.0328 47.8472 69.8633 43.3407C70.8265 42.5956 71.1141 43.0698 71.6364 43.6802C72.9145 45.0612 74.6237 45.966 76.4834 46.2458C78.1939 46.587 79.7388 46.1833 79.8607 43.9527C80.1781 39.4237 81.0891 34.9561 82.5704 30.6649C84.0933 26.0254 85.9993 21.4907 90.4101 18.6403C91.6813 17.8013 91.1325 17.2206 90.1052 16.6821ZM54.5763 21.7176C52.9376 26.57 51.3584 31.4334 50.1091 36.4C49.8601 37.2048 49.4751 37.9608 48.9709 38.6353C48.3252 39.5854 47.6763 41.2432 46.5849 40.9285C45.1777 40.5247 45.5826 38.6855 45.3246 37.5131C45.6696 33.1214 46.7495 28.819 48.519 24.7857C49.4208 22.8661 50.8959 21.2743 52.7406 20.2306C53.2535 19.9504 53.8352 19.6765 54.4028 20.107C55.0063 20.5641 54.7671 21.1588 54.5779 21.7176H54.5763Z" fill="white"/>
</svg>
