<svg width="283" height="56" viewBox="0 0 283 56" fill="none" xmlns="http://www.w3.org/2000/svg">
<path d="M28.2697 5.15772C32.3658 2.18383 36.6634 0.11722 41.5988 0.923701C45.6111 1.61855 49.2582 3.68481 51.9185 6.77016C54.5787 9.8555 56.0873 13.7689 56.187 17.843C56.422 28.176 56.3045 38.5091 56.187 48.8421C56.187 52.6225 53.8032 55.1259 50.5968 55.1259C47.3904 55.1259 45.0234 52.6393 44.9899 48.8589C44.9899 39.2987 44.9899 29.7218 44.9899 20.1448C44.9899 15.6084 43.009 13.0545 39.534 12.9873C36.059 12.9201 33.8599 15.558 33.8431 20.2792C33.8431 29.4698 33.8431 38.6603 33.8431 47.834C33.8431 52.5385 31.6775 55.2267 28.0851 55.1091C24.4926 54.9915 22.6796 52.4208 22.6628 47.8844C22.6628 38.8283 22.6628 29.7554 22.6628 20.6993C22.6628 15.5748 20.7322 12.9369 17.0223 12.9873C13.3123 13.0377 11.5832 15.642 11.5664 20.8841C11.5664 29.9402 11.5664 38.9963 11.5664 48.0692C11.5664 52.5217 9.48476 55.0923 5.99301 55.1259C2.50125 55.1595 0.352482 52.5385 0.335695 48.1196C0.335695 38.9459 0.48678 29.7554 0.335695 20.5649C0.11746 12.8865 2.66913 6.80429 9.26653 2.97351C15.8639 -0.857277 22.1592 0.52046 28.2697 5.15772Z" fill="white"/>
<path d="M75.5427 39.6175C78.4637 44.07 81.4182 45.2293 85.6151 43.9019C86.4376 43.6331 87.2938 43.2467 88.0492 43.0282C89.2983 42.5657 90.6795 42.6171 91.8908 43.1713C93.102 43.7255 94.0446 44.7373 94.5123 45.9853C95.8385 48.7576 94.8313 51.0258 92.3468 52.706C86.723 56.4864 76.9864 55.8311 70.9933 51.2275C67.5029 48.6951 64.9348 45.0905 63.6802 40.9625C62.4255 36.8344 62.5531 32.4091 64.0434 28.3604C67.4009 19.9595 75.7945 14.3646 84.0371 15.0871C88.5185 15.5574 92.7358 17.4368 96.0836 20.4554C99.4314 23.474 101.738 27.4767 102.671 31.8887C103.762 37.5005 101.932 39.6847 96.0735 39.7015C89.409 39.6343 82.7444 39.6175 75.5427 39.6175ZM75.5427 30.0742H90.0301C85.6319 24.2776 80.0753 24.244 75.5427 30.0742Z" fill="white"/>
<path d="M217.345 55.0586C212.067 55.1214 206.981 53.0842 203.203 49.3949C199.426 45.7055 197.267 40.6659 197.2 35.3838V35.0814C197.303 29.7664 199.459 24.6979 203.215 20.9389C206.97 17.18 212.035 15.0226 217.345 14.9194C227.871 14.785 237.221 24.1435 237.288 34.9134C237.306 37.5435 236.806 40.1513 235.817 42.5879C234.827 45.0246 233.368 47.2423 231.522 49.1146C229.677 50.9868 227.481 52.4768 225.06 53.4996C222.639 54.5224 220.04 55.0578 217.412 55.0754L217.345 55.0586ZM217.06 25.8741C214.683 25.9138 212.418 26.8877 210.753 28.5854C209.088 30.2831 208.158 32.5682 208.162 34.947V35.283C208.222 37.7179 209.216 40.0363 210.939 41.757C212.661 43.4777 214.979 44.4686 217.412 44.524C219.83 44.4322 222.124 43.4287 223.833 41.7147C225.543 40.0008 226.541 37.7032 226.628 35.283C226.597 32.7816 225.576 30.3947 223.788 28.6464C222 26.8981 219.592 25.9312 217.093 25.9581L217.06 25.8741Z" fill="white"/>
<path d="M282.731 35.1828C282.683 40.5138 280.526 45.6085 276.734 49.3523C272.941 53.0961 267.822 55.1842 262.495 55.1598C257.169 55.1353 252.068 53.0004 248.31 49.2219C244.552 45.4435 242.443 40.3292 242.443 34.998C242.443 29.6667 244.552 24.5524 248.31 20.774C252.068 16.9955 257.169 14.8606 262.495 14.8361C267.822 14.8117 272.941 16.8998 276.734 20.6436C280.526 24.3874 282.683 29.4821 282.731 34.8131V35.1828ZM253.488 35.1828C253.491 37.0211 254.039 38.8172 255.063 40.3436C256.087 41.8701 257.54 43.0583 259.238 43.758C260.937 44.4577 262.804 44.6373 264.605 44.2742C266.406 43.911 268.058 43.0215 269.353 41.718C270.649 40.4146 271.529 38.7558 271.882 36.9518C272.235 35.1477 272.045 33.2793 271.337 31.5831C270.628 29.8869 269.433 28.4391 267.903 27.423C266.372 26.4068 264.574 25.868 262.738 25.8746H262.536C260.117 25.8924 257.804 26.8701 256.104 28.5932C254.405 30.3163 253.458 32.6439 253.471 35.0652V35.2836L253.488 35.1828Z" fill="white"/>
<path d="M168.158 13.4411C173.194 13.4411 177.442 13.4411 181.756 13.4411C185.617 13.4411 187.833 15.659 187.782 19.1033C187.732 22.5476 185.365 24.6647 181.588 24.7151C177.274 24.7151 172.943 24.7151 168.292 24.7151C168.074 28.3409 168.074 31.9767 168.292 35.6026C168.507 37.235 169.143 38.7832 170.138 40.0948C171.132 41.4063 172.451 42.4359 173.964 43.082C175.477 43.7281 177.132 43.9685 178.767 43.7795C180.401 43.5905 181.958 42.9785 183.283 42.004C184.962 40.9119 187.245 39.7526 188.907 40.139C189.89 40.4594 190.781 41.0135 191.503 41.7539C192.225 42.4942 192.757 43.3987 193.054 44.3898C193.103 45.469 192.923 46.5463 192.527 47.5511C192.13 48.5559 191.526 49.4654 190.754 50.22C184.459 55.8822 177.106 56.5542 169.535 53.3787C165.956 52.0224 162.864 49.6259 160.656 46.4971C158.448 43.3684 157.226 39.6504 157.146 35.821C156.642 26.0424 156.944 16.2134 157.028 6.41804C156.996 4.95877 157.541 3.54583 158.543 2.48581C159.546 1.42578 160.926 0.804178 162.383 0.75587C163.847 0.753106 165.256 1.30983 166.323 2.31228C167.39 3.31472 168.035 4.6872 168.125 6.14921C168.326 8.40063 168.158 10.6857 168.158 13.4411Z" fill="white"/>
<path d="M132.435 24.0432C132.435 19.0027 132.435 13.8614 132.435 8.75369C132.435 3.9316 134.399 1.22653 137.857 1.14253C141.315 1.05852 143.38 3.76359 143.397 8.56887C143.397 18.6499 143.397 28.7309 143.397 38.8119C143.397 42.0546 144.253 44.1044 147.846 44.4909C148.518 44.5185 149.177 44.6806 149.786 44.9675C150.394 45.2545 150.939 45.6605 151.388 46.1617C151.837 46.6628 152.181 47.2489 152.4 47.8854C152.619 48.5218 152.709 49.1958 152.663 49.8674C152.672 49.9905 152.672 50.114 152.663 50.237C152.663 53.1773 150.045 55.1935 146.721 55.2775C139.083 55.3783 132.787 48.8089 132.519 40.156C132.351 34.8131 132.519 29.4534 132.519 24.1104L132.435 24.0432Z" fill="white"/>
<path d="M119.089 23.5217C119.089 28.5622 119.089 33.7035 119.089 38.8112C119.089 42.0204 119.962 44.087 123.588 44.4566C124.264 44.4818 124.929 44.6433 125.542 44.9314C126.154 45.2195 126.703 45.6283 127.154 46.1333C127.605 46.6383 127.95 47.2292 128.168 47.8707C128.386 48.5122 128.473 49.1911 128.423 49.8667C128.432 49.9786 128.432 50.091 128.423 50.2028C128.278 51.6592 127.57 53.0014 126.45 53.9431C125.331 54.8847 123.888 55.3513 122.43 55.2433C118.814 55.1685 115.36 53.7304 112.758 51.2165C110.156 48.7026 108.598 45.2983 108.395 41.6843C108.11 30.0912 108.228 18.498 108.395 6.92165C108.308 5.48103 108.794 4.06435 109.747 2.9813C110.7 1.89825 112.043 1.23692 113.482 1.14188H113.599C114.292 1.12173 114.981 1.23833 115.628 1.48501C116.276 1.73169 116.868 2.10361 117.372 2.57952C117.875 3.05543 118.28 3.626 118.563 4.25861C118.846 4.89123 119.002 5.57348 119.022 6.26639C119.03 6.41188 119.03 6.55774 119.022 6.70323C119.19 12.2982 119.022 17.91 119.022 23.5049L119.089 23.5217Z" fill="white"/>
</svg>
