<svg width="169" height="56" viewBox="0 0 169 56" fill="none" xmlns="http://www.w3.org/2000/svg">
<g clip-path="url(#clip0_12158_650)">
<mask id="mask0_12158_650" style="mask-type:luminance" maskUnits="userSpaceOnUse" x="0" y="0" width="169" height="56">
<path d="M169 0H0V56H169V0Z" fill="white"/>
</mask>
<g mask="url(#mask0_12158_650)">
<path d="M65.1909 23.8394C64.3208 23.8295 63.4552 23.9646 62.6294 24.2394C61.4295 24.6072 60.3872 25.3677 59.6689 26.3994C58.8146 27.7184 58.3931 29.2725 58.4635 30.8438C58.3588 32.4633 58.7819 34.0731 59.6689 35.4305C60.176 36.0191 60.7941 36.5012 61.4878 36.849C62.1815 37.1968 62.937 37.4035 63.7107 37.4572C65.3239 37.6286 66.953 37.3486 68.4172 36.6483C69.3379 36.0425 70.0813 35.2019 70.571 34.2127C71.0828 32.9689 71.3351 31.6331 71.3122 30.2878C71.2894 28.9424 70.9919 27.6161 70.4381 26.3905C69.6315 24.7816 67.8854 23.8394 65.1909 23.8394ZM65.0579 26.506C65.4214 26.4774 65.7868 26.5259 66.1304 26.6483C66.5022 26.781 66.8398 26.995 67.1188 27.2748C67.3978 27.5547 67.6112 27.8932 67.7436 28.266C67.9996 29.0476 68.0902 29.8741 68.0095 30.6927C68.0632 31.2356 68.0181 31.7837 67.8765 32.3105C67.7795 32.876 67.5274 33.4033 67.1486 33.8335C66.7698 34.2636 66.2792 34.5796 65.7316 34.746C65.2924 34.8796 64.8235 34.8796 64.3843 34.746C62.9041 34.4794 62.0975 33.1283 62.0975 30.6927C62.0975 28.5327 62.7712 27.1372 63.9766 26.6483C64.3333 26.5771 64.6947 26.5325 65.0579 26.5149V26.506Z" fill="white"/>
<path d="M79.7713 23.8398C78.3303 23.8656 76.9097 24.1862 75.5966 24.7821C75.4496 24.8125 75.3118 24.8775 75.1947 24.9718C75.0776 25.0661 74.9845 25.1869 74.923 25.3243C74.7901 25.591 74.7901 25.591 74.7901 26.2665C74.7449 26.5869 74.791 26.9135 74.923 27.2087C75.1889 27.751 75.3307 27.751 76.2703 27.2087C77.1804 26.7107 78.1944 26.4336 79.2307 26.3998C80.1702 26.3998 81.1097 26.5421 81.3845 26.9421C81.7959 27.4822 81.9861 28.1594 81.9163 28.8354V29.3332H81.3845C78.557 29.4754 77.0768 29.5998 76.0044 30.2843C75.4142 30.5862 74.9227 31.0515 74.5881 31.6249C74.2535 32.1984 74.0898 32.856 74.1164 33.5198C74.0816 34.1801 74.1967 34.8397 74.4533 35.4487C74.7117 36.0887 75.1894 36.6151 75.8005 36.9332C76.3094 37.1888 76.8529 37.3685 77.4137 37.4665C78.2308 37.5577 79.0574 37.5126 79.86 37.3332C80.6694 37.1174 81.4107 36.6983 82.0138 36.1154C82.4127 35.8487 82.4127 35.8487 82.4127 36.5243C82.4127 37.0665 82.5456 37.0665 82.8204 37.1998H84.6994C85.2401 37.0665 85.1072 37.4665 85.1072 32.471C85.1072 28.9687 85.1072 27.8843 84.9742 27.4843C84.9653 27.0472 84.8643 26.6169 84.678 26.2217C84.4916 25.8265 84.2241 25.4752 83.8929 25.191C83.0863 24.3732 82.0049 23.9732 80.1259 23.8398H79.7713ZM81.9163 31.6621V33.8221L81.3845 34.231C81.0148 34.6156 80.5499 34.8947 80.0372 35.0398C79.4493 35.2083 78.8208 35.161 78.2646 34.9065C77.9713 34.7028 77.7386 34.4233 77.5909 34.0976C77.4579 33.7027 77.4579 33.2748 77.5909 32.8798C77.6703 32.664 77.7954 32.468 77.9576 32.3053C78.1198 32.1427 78.3152 32.0172 78.5305 31.9376C79.2133 31.6635 79.9554 31.5716 80.6843 31.671L81.9163 31.6621Z" fill="white"/>
<path d="M139.742 23.9992C139.112 23.9632 138.481 24.008 137.863 24.1325C136.09 24.5414 134.902 25.0747 134.627 25.617C134.517 25.9244 134.472 26.2517 134.495 26.5777C134.517 26.9037 134.608 27.2214 134.76 27.5103C134.902 27.777 135.168 27.777 135.975 27.377C136.744 27.0042 137.557 26.7295 138.394 26.5592C139.114 26.4584 139.848 26.5068 140.548 26.7014C140.764 26.782 140.96 26.9077 141.124 27.0701C141.287 27.2326 141.414 27.4281 141.497 27.6436C141.665 28.2598 141.71 28.9032 141.63 29.537C141.63 29.6703 141.364 29.6703 140.415 29.6703C139.821 29.6414 139.226 29.6862 138.643 29.8036C135.41 30.0703 133.794 31.4184 133.794 33.8481C133.786 34.5019 133.926 35.1491 134.202 35.7414C134.518 36.3029 134.964 36.7801 135.502 37.1328C136.041 37.4855 136.656 37.7033 137.295 37.7681C138.344 37.9099 139.412 37.7687 140.389 37.3592C140.895 37.1373 141.353 36.8171 141.736 36.417C141.869 36.2836 142.002 36.1503 142.135 36.1503C142.218 36.319 142.264 36.5042 142.268 36.6925C142.238 36.9244 142.288 37.1595 142.41 37.3592C143.238 37.6345 144.133 37.6345 144.962 37.3592C145.095 37.2259 145.095 36.8258 145.095 32.3725C145.095 26.9681 145.095 27.1103 144.563 26.1503C144.282 25.6158 143.88 25.1548 143.389 24.8044C142.898 24.4539 142.332 24.2238 141.736 24.1325C141.07 24.0098 140.392 23.9621 139.715 23.9903L139.742 23.9992ZM140.548 31.6881H141.63V33.8481L141.222 34.257C140.809 34.6832 140.302 35.0059 139.742 35.1992C139.159 35.3366 138.552 35.3366 137.969 35.1992C137.758 35.1364 137.571 35.0141 137.427 34.8471C137.284 34.68 137.192 34.4751 137.162 34.257C137.029 33.862 137.029 33.4341 137.162 33.0392C137.243 32.8242 137.369 32.629 137.531 32.4666C137.693 32.3041 137.888 32.1781 138.102 32.097C138.849 31.7196 139.692 31.5771 140.522 31.6881H140.548Z" fill="white"/>
<path d="M163.159 23.9998C162.237 23.882 161.303 24.0726 160.5 24.542C159.592 24.9861 158.808 25.6503 158.22 26.4744C157.632 27.2985 157.258 28.2565 157.132 29.262C156.999 30.3364 156.999 31.4232 157.132 32.4976C157.54 35.742 159.286 37.3598 162.521 37.6265C163.871 37.7425 165.231 37.6526 166.554 37.3598C167.768 37.0931 168.167 36.8265 168.326 36.4176C168.468 35.7975 168.468 35.1532 168.326 34.5331C168.193 34.2665 167.928 34.2665 167.121 34.5331C166.173 34.8829 165.171 35.0634 164.161 35.0665C163.418 35.1721 162.662 35.0317 162.007 34.6665C161.567 34.4056 161.208 34.0272 160.97 33.5736C160.732 33.12 160.624 32.6089 160.659 32.0976V31.6976H164.559C168.326 31.6976 168.459 31.6976 168.601 31.5642C169 31.2976 169.133 30.6131 169 29.262C168.734 26.8353 167.795 25.2176 165.907 24.4087C165.065 24.0619 164.154 23.9217 163.248 23.9998H163.159ZM163.026 26.2931C163.345 26.2661 163.666 26.3116 163.966 26.4265C164.448 26.6078 164.857 26.9464 165.125 27.3879C165.393 27.8295 165.506 28.3485 165.446 28.862V29.3331H162.893C160.606 29.3331 160.332 29.3331 160.332 29.1998C160.385 28.7432 160.474 28.2915 160.597 27.8487C160.707 27.4849 160.897 27.1507 161.154 26.8706C161.41 26.5906 161.726 26.3719 162.078 26.2309L163.026 26.2931Z" fill="white"/>
<path d="M151.565 37.4663C151.038 37.3733 150.542 37.1498 150.123 36.8161C149.703 36.4824 149.374 36.049 149.163 35.5552C148.898 34.7463 148.898 34.613 148.756 30.693V27.0485H147.949C147.01 27.0485 147.01 26.9152 146.877 26.5152C146.77 25.8825 146.816 25.2333 147.01 24.6218C147.143 24.3552 147.143 24.3552 148.082 24.3552H148.756V22.8974C148.756 21.2796 148.756 21.2796 149.296 21.1196C149.698 21.0498 150.104 21.0023 150.511 20.9774C151.063 20.9141 151.621 21.0065 152.124 21.2441V24.213C152.124 24.3463 152.257 24.3463 153.471 24.3463H154.951C155.084 24.4796 155.217 24.7552 155.217 25.4307C155.217 26.1063 155.217 26.773 154.951 26.9152C154.818 27.0485 154.685 27.0485 153.471 27.0485C152.257 27.0485 152.124 27.0485 152.124 27.1818V33.4041C152.257 34.2218 152.39 34.6218 152.798 34.7552C153.326 34.8974 153.882 34.8974 154.411 34.7552C154.544 34.7552 154.818 34.6218 154.951 34.6218C155.217 34.6218 155.217 34.8885 155.217 35.8396C155.217 36.7907 155.084 37.0485 154.677 37.3241C153.676 37.6433 152.608 37.6893 151.583 37.4574L151.565 37.4663Z" fill="white"/>
<path d="M50.1141 37.3332C49.8482 37.3332 49.5823 37.1998 49.5823 37.0665V30.7198C49.5823 24.7821 49.5823 24.4976 49.7152 24.3732C49.8482 24.2487 50.1141 24.1065 51.0625 24.1065C52.0109 24.1065 52.2679 24.1065 52.5427 24.3732C52.622 24.6389 52.6667 24.9137 52.6756 25.1909V25.8665L53.0745 25.4576C53.5947 24.7497 54.2917 24.1917 55.0954 23.8398C55.8203 23.6408 56.5943 23.7367 57.2492 24.1065C57.5003 24.663 57.5923 25.2784 57.5151 25.8843C57.5151 27.2354 57.3821 27.5021 56.5756 27.2354C55.3613 26.8354 54.5547 27.2354 53.7481 28.4532C53.4875 28.639 53.2598 28.8674 53.0745 29.1287C52.9504 29.2621 52.9504 29.6709 52.9504 33.1732V37.0843L52.8086 37.2265C52.6756 37.3598 52.5427 37.3598 52.2768 37.4932C51.5554 37.507 50.8344 37.4534 50.1229 37.3332H50.1141Z" fill="white"/>
<path d="M89.2729 37.3334C89.0159 37.3334 88.7411 37.2001 88.7411 37.0667V30.7201C88.7411 25.3245 88.7411 24.4978 88.874 24.3734C89.007 24.2489 89.4147 24.1067 90.3542 24.1067C91.2938 24.1067 91.5685 24.1067 91.7015 24.3734V25.8578C91.8984 25.753 92.0778 25.6181 92.2333 25.4578C92.6934 24.9494 93.2543 24.5429 93.8801 24.2643C94.5058 23.9858 95.1827 23.8413 95.8673 23.8401C96.5232 23.7687 97.186 23.8824 97.781 24.1682C98.376 24.454 98.8797 24.9006 99.2354 25.4578C99.3773 25.7245 99.5102 25.8578 99.6432 25.8578C99.8414 25.751 100.024 25.6163 100.184 25.4578C100.889 24.7511 101.771 24.2476 102.737 24.0001C103.493 23.8667 104.267 23.8667 105.023 24.0001C106.636 24.4001 107.585 25.4845 107.984 27.3778C108.117 27.9201 108.117 28.1867 108.117 32.3734V36.9601C107.984 37.3601 107.718 37.3601 106.504 37.3601C105.431 37.3601 105.298 37.3601 105.023 37.2267L104.757 37.0934V32.8889C104.757 29.2445 104.757 28.7023 104.624 28.3023C104.607 28.0875 104.547 27.8785 104.447 27.6873C104.348 27.496 104.213 27.3264 104.048 27.1883C103.883 27.0502 103.692 26.9463 103.487 26.8827C103.281 26.8191 103.066 26.7971 102.852 26.8178C102.576 26.7814 102.295 26.8278 102.045 26.9512C101.48 27.2607 100.978 27.6738 100.565 28.1689L100.157 28.7023V37.0667C100.024 37.3334 99.7584 37.3334 98.81 37.4667C97.8616 37.6001 97.1969 37.4667 97.0373 37.2001L96.9044 37.0667V28.8356C96.8674 28.4614 96.752 28.0993 96.5656 27.773C96.3792 27.4467 96.1262 27.1636 95.823 26.9423C95.5732 26.8189 95.2925 26.7725 95.0164 26.8089C94.85 26.7874 94.6809 26.7999 94.5194 26.8457C94.3579 26.8915 94.2074 26.9698 94.0769 27.0756C93.472 27.4915 92.9289 27.9913 92.4637 28.5601C92.056 28.6934 92.056 28.8267 92.056 32.8801V37.0578L91.9231 37.2001C91.8684 37.2499 91.8038 37.2876 91.7335 37.3106C91.6632 37.3336 91.5889 37.3413 91.5154 37.3334C90.7589 37.4668 89.985 37.4668 89.2286 37.3334H89.2729Z" fill="white"/>
<path d="M112.424 37.333C112.283 37.3062 112.146 37.2614 112.017 37.1997L111.884 37.0664V24.3819L112.025 24.2397C112.81 23.9728 113.661 23.9728 114.445 24.2397C114.578 24.3819 114.578 24.3819 114.578 25.0575C114.578 25.9997 114.578 25.9997 115.119 25.4575C115.617 24.9304 116.221 24.5154 116.892 24.2397C117.694 23.8393 118.598 23.6896 119.486 23.81C120.374 23.9305 121.205 24.3155 121.873 24.9153C122.006 25.0575 122.272 25.4575 122.413 25.5908C122.517 25.7166 122.606 25.8538 122.679 25.9997C122.847 25.9066 122.985 25.768 123.078 25.5997C123.675 24.9371 124.433 24.4413 125.278 24.1609C126.124 23.8804 127.027 23.8249 127.9 23.9997C128.632 24.1432 129.305 24.5023 129.832 25.0311C130.359 25.56 130.717 26.2346 130.86 26.9686C131.126 27.9197 131.126 28.453 131.126 32.773C131.126 37.3597 131.126 37.2175 130.719 37.3597C129.918 37.502 129.099 37.502 128.299 37.3597C128.158 37.3423 128.023 37.297 127.9 37.2264L127.767 37.093V29.093C127.775 28.6906 127.68 28.2928 127.491 27.9378C127.301 27.5829 127.024 27.2828 126.686 27.0664C126.435 26.9469 126.155 26.9007 125.879 26.933C125.073 26.933 124.807 27.0664 123.858 28.0086L123.193 28.6841V32.8886C123.193 36.7997 123.193 37.0753 123.052 37.2086C122.69 37.4279 122.266 37.5216 121.846 37.4753C120.898 37.4753 120.233 37.4753 120.074 37.2086L119.941 37.0753V32.8886C119.941 28.4441 119.941 28.4441 119.542 27.7597C119.297 27.3606 118.91 27.0692 118.46 26.9439C118.009 26.8186 117.528 26.8687 117.113 27.0841C116.49 27.4179 115.946 27.8816 115.518 28.4441L115.252 28.7108V37.0664C115.18 37.138 115.086 37.1847 114.986 37.1997C114.147 37.3773 113.286 37.4223 112.433 37.333H112.424Z" fill="white"/>
<path d="M2.21587 55.7866C2.39271 55.5987 2.6114 55.4556 2.85404 55.3688C4.16887 54.456 5.30465 53.3079 6.20444 51.9821C6.4083 51.5555 6.94011 50.6044 6.94011 50.4977L6.51466 50.071C5.00372 48.6909 3.70447 47.0944 2.65904 45.3332C1.32121 43.0523 0.453198 40.5254 0.106362 37.9021C0 37.2621 0 34.9332 0 34.5155V34.1955L0.319085 34.0888C0.425447 33.9821 0.735669 33.8755 0.850894 33.7688C2.91453 32.7186 5.18519 32.1417 7.49851 32.0799C8.55326 32.1866 9.18257 32.3999 9.50165 33.031C9.59813 33.1909 9.63576 33.3796 9.60801 33.5643C9.60801 33.8843 9.60801 33.8843 9.28893 34.4532C8.85209 35.0834 8.31977 35.6412 7.71123 36.1066C6.44375 37.1643 6.20444 37.7955 6.55011 38.6488C6.76284 39.0666 7.17942 39.5377 8.87234 40.7643C12.5596 43.5199 13.1977 43.9377 14.3588 43.831C14.8438 43.8055 15.3153 43.6621 15.7327 43.4132C16.05 43.248 16.3074 42.9868 16.4683 42.6666C16.6811 42.2488 17.1065 41.0843 17.7358 39.2799C18.3651 37.4755 18.8969 35.8932 19.3224 34.8355C19.5071 34.2293 19.7917 33.6585 20.1644 33.1466C20.2215 33.201 20.259 33.2729 20.2708 33.351C20.4917 34.2916 20.634 35.249 20.6962 36.2132C20.7675 37.5911 21.0515 38.9495 21.5383 40.2399C21.6483 40.506 21.8211 40.7413 22.0419 40.9256C22.2627 41.1098 22.5248 41.2375 22.8057 41.2977C23.7541 41.4043 24.3834 40.871 25.128 39.2799C25.4382 38.5421 25.6598 38.0177 26.3954 35.7866C27.2375 33.1199 27.5566 32.3999 27.6629 32.5066C27.7693 32.6132 27.7604 32.9332 27.8668 33.4577C28.2922 36.3199 29.1343 38.4355 30.0827 39.2799C30.4405 39.6043 30.8952 39.801 31.376 39.8396C31.8569 39.8782 32.337 39.7564 32.7417 39.4932C34.0092 38.8621 35.4894 37.1643 36.8544 34.8355C37.0671 34.5155 37.4925 33.7777 37.8116 33.1466C38.5688 31.6469 39.4123 30.1926 40.3377 28.791H40.4441C40.4441 28.791 40.1338 29.5377 39.7084 30.4888L38.5473 32.8177L38.2282 33.5555V34.3021C38.4284 37.3054 37.9213 40.3139 36.748 43.0844C35.4367 46.1027 33.4103 48.7543 30.8449 50.8088C28.8143 52.393 26.4893 53.5555 24.0057 54.2286C21.522 54.9016 18.9296 55.0717 16.3797 54.7288C15.1602 54.5352 13.9593 54.2378 12.79 53.8399C12.3646 53.7332 12.0543 53.6266 11.948 53.6266C11.6855 53.6961 11.4347 53.8039 11.2034 53.9466C8.52719 55.2152 5.61798 55.9143 2.65904 55.9999C2.33996 55.8932 2.2336 55.8932 2.2336 55.7866H2.21587Z" fill="white"/>
<path d="M19.3135 15.671C15.0458 15.6703 10.8995 17.0951 7.52898 19.7203C4.15848 22.3456 1.75579 26.0218 0.700195 30.1687C0.806557 30.1687 0.912919 30.0621 1.12564 30.0621C2.85626 29.4055 4.66491 28.9782 6.50578 28.791C7.31181 28.6843 8.12833 28.6843 8.93437 28.791C10.0643 29.0232 11.0737 29.654 11.7795 30.5687C12.3005 31.3857 12.4908 32.3714 12.3114 33.3243C12.0354 34.1001 11.5654 34.7918 10.9464 35.3332C10.6273 35.6532 10.3082 36.071 10.2018 36.1776C10.0426 36.3993 9.93645 36.6548 9.89163 36.9243C10.5295 37.6092 11.2788 38.1803 12.1075 38.6132C13.1622 39.2532 13.2686 39.3599 13.5788 39.3599C13.8455 39.4049 14.1195 39.3678 14.3647 39.2535C14.61 39.1393 14.8149 38.9532 14.9527 38.7199C15.3781 38.1865 15.6883 37.3421 16.2201 35.2265C16.4959 34.0278 16.8847 32.8581 17.3813 31.7332C17.7402 30.6438 18.3128 29.6374 19.0653 28.7732C19.5164 28.2543 20.1534 27.9349 20.838 27.8843C21.087 27.8681 21.3357 27.9189 21.5586 28.0314C21.7814 28.1439 21.9702 28.3141 22.1055 28.5243C22.8412 29.2621 23.0539 30.0087 23.5857 33.2887C23.6832 34.2399 23.7896 34.9776 23.7896 34.9776C23.9933 34.4595 24.1708 33.9315 24.3214 33.3954C24.6937 31.928 25.2257 30.5062 25.9079 29.1554C26.2535 28.2189 26.8709 27.4077 27.6806 26.8265C28.2035 26.656 28.7717 26.6942 29.2672 26.9332C30.0029 27.3599 30.3219 28.0976 30.7474 30.4265C31.1728 32.7554 31.4831 34.2399 31.9085 34.871C32.2187 35.2976 32.3251 35.2976 33.0696 34.6576C34.1393 33.7037 35.0649 32.5988 35.8173 31.3776C36.2339 30.6399 36.8721 29.7954 37.395 29.0487L39.1677 26.6665H39.0613L37.3684 28.6843C36.1062 24.8864 33.6819 21.5845 30.4404 19.2481C27.1989 16.9118 23.3053 15.66 19.3135 15.671Z" fill="white"/>
<path d="M19.1097 0L18.6843 0.213333V0.426667L18.6134 0.533333V0.951111L18.8261 1.16444C18.8417 3.7598 18.5802 6.34937 18.0461 8.88889H17.727C17.8068 9.04694 17.9116 9.19102 18.0372 9.31556C17.8247 10.3466 17.4697 11.3429 16.9825 12.2756V12.3822H16.5748C16.885 12.8089 16.4684 12.8089 16.4684 12.8089L16.6811 13.0222C16.4072 13.5114 16.0866 13.9728 15.7239 14.4V14.6133L14.5716 6.66667L12.666 5.77778L14.2525 16.2578V16.9956L12.666 17.6356L12.4533 16.7467L11.0883 7.30667L12.3469 6.22222L12.2494 5.79556L10.6362 7.2L12.0101 16.7289L10.2374 10.2667L8.46469 8.04445L7.70243 6.14222L5.16747 3.28L4.4318 6.88L4.32544 7.11111L4.96361 9.01333L4.32544 11.68L6.86039 20.2578L10.7692 19.5111L12.143 17.9289L12.3469 19.2978L14.8818 17.9289L15.6264 15.4933C15.5554 15.8774 15.5198 16.2672 15.52 16.6578L17.7359 16.5511L19.739 16.4444L22.4867 16.6578V15.6711C23.2224 16.2044 24.5962 17.1467 24.5962 17.1467L26.5019 2.03556L23.9315 3.17333L22.5488 14.7289V14.6311C22.1748 14.1759 21.8564 13.6776 21.6004 13.1467L21.8131 12.8267C21.494 12.8267 21.494 12.6133 21.7067 12.4089H21.2813C20.8717 11.4047 20.5195 10.3778 20.2265 9.33333L20.4747 8.88889H20.1556C19.6324 6.31322 19.4122 3.68489 19.4997 1.05778L19.6061 0.951111V0.533333L19.4997 0.32V0.106667L19.1009 0H19.1097ZM35.064 1.68889L33.9915 3.17333L30.8272 13.1289C31.7756 13.5467 30.9247 15.1378 30.9247 15.1378C30.9425 15.287 30.908 15.4378 30.8272 15.5644L31.6693 15.7689C31.6602 15.686 31.6754 15.6023 31.7133 15.5281C31.7511 15.4538 31.8097 15.3923 31.882 15.3511C31.9795 13.44 32.9368 13.76 32.9368 13.76L35.1526 3.6L35.0463 1.68889H35.064ZM26.9362 2.00889L26.8121 2.66667L28.505 4.04444L27.4769 17.68L28.2214 18.5244L28.0087 19.0578L32.334 22.1244L32.8659 21.5911L33.0786 20.8533L32.5468 20.7467L32.6531 20.1067L32.5468 19.8933L32.6531 19.36L29.1698 18.4089V18.1956L32.4404 19.0844L33.0786 16.7556L29.3825 15.8044V15.9022L29.2761 16.3289L29.3825 15.7956L29.9143 9.12889L28.8241 8.35556L29.1343 3.69778L26.9185 2L26.9362 2.00889ZM19.1097 6.66667L19.2072 6.77333V6.98667L19.1097 7.11111L19.2072 7.21778L19.3136 7.63556L19.2072 7.74222L19.3136 7.84889V8.38222H19.2072L19.3136 8.59556V8.80889H18.7818V8.57778L18.8881 8.36444H18.7818V7.83111L18.8881 7.72444L18.7818 7.61778L18.8881 7.2L18.9945 7.11111L18.8881 7.00444V6.77333L19.1009 6.66667H19.1097ZM6.43495 6.88C6.44848 6.87876 6.46211 6.88037 6.47499 6.88473C6.48786 6.88908 6.49968 6.89609 6.50969 6.9053C6.51971 6.9145 6.52769 6.9257 6.53314 6.93819C6.53858 6.95067 6.54137 6.96415 6.54131 6.97778L6.86039 8.03556C6.86039 8.14222 6.86039 8.14222 6.75403 8.14222H6.64767C6.54131 8.14222 6.54131 8.14222 6.54131 8.03556L6.2045 6.98667C6.2045 6.88 6.2045 6.88 6.31086 6.88H6.43495ZM5.80564 7.11111C5.81917 7.10987 5.83281 7.11148 5.84568 7.11584C5.85855 7.12019 5.87037 7.1272 5.88039 7.13641C5.8904 7.14561 5.89839 7.15682 5.90383 7.1693C5.90928 7.18178 5.91206 7.19526 5.912 7.20889L6.2045 8.25778C6.2045 8.36444 6.2045 8.36444 6.09814 8.36444H6.01836C5.912 8.36444 5.912 8.36444 5.912 8.25778L5.59292 7.2C5.59292 7.09333 5.59292 7.09333 5.69928 7.09333L5.80564 7.11111ZM5.06997 7.21778C5.08312 7.21638 5.09641 7.21795 5.10887 7.22236C5.12134 7.22678 5.13266 7.23394 5.142 7.24332C5.15135 7.25269 5.15849 7.26404 5.1629 7.27654C5.1673 7.28904 5.16887 7.30237 5.16747 7.31556L5.48656 8.38222C5.48656 8.48 5.48656 8.48 5.38019 8.48H5.31815C5.21179 8.48 5.21179 8.48 5.21179 8.38222L4.85725 7.30667C4.85725 7.2 4.85725 7.2 4.96361 7.2L5.06997 7.21778ZM27.8668 8.10667L26.0942 9.05778L25.456 17.1022L25.7751 17.2089L26.3069 9.37778L27.6719 8.63111L27.8846 8.09778L27.8668 8.10667ZM6.96676 8.64L8.55332 10.6489L4.64452 11.7511L5.06997 9.08444L6.96676 8.55111V8.64ZM18.6843 9.91111H19.5706C19.5706 9.91111 19.7745 11.4933 19.8808 12.24H18.2588C18.2588 12.24 18.5779 10.7556 18.6843 9.91111ZM8.65968 10.8L9.9183 15.1111L5.912 16.3022L4.64452 11.9644L8.65968 10.8ZM8.44696 11.0133L4.96361 12.0711L5.06997 12.3822L8.65968 11.3244L8.44696 11.0133ZM8.65968 11.6444H8.55332L9.50171 15.0311L9.71444 14.9244L8.65968 11.6444ZM8.23423 11.8578L7.59606 12.0711C7.9106 12.1653 8.20935 12.3062 8.48241 12.4889L8.26969 11.8578H8.23423ZM7.17948 12.3911C6.90776 12.3911 6.64214 12.4719 6.41622 12.6233C6.19029 12.7747 6.0142 12.9899 5.91022 13.2416C5.80624 13.4934 5.77903 13.7704 5.83204 14.0377C5.88505 14.3049 6.01589 14.5504 6.20803 14.7431C6.40016 14.9358 6.64496 15.067 6.91146 15.1202C7.17796 15.1734 7.45419 15.1461 7.70523 15.0418C7.95626 14.9375 8.17083 14.7609 8.32179 14.5343C8.47275 14.3078 8.55332 14.0414 8.55332 13.7689C8.5465 13.4056 8.39957 13.0591 8.14339 12.8022C7.88721 12.5453 7.54171 12.3979 7.17948 12.3911ZM5.912 12.6044L5.38019 12.7111L5.48656 13.1289C5.56256 12.9071 5.71292 12.7186 5.912 12.5956V12.6044ZM5.17633 12.6044L5.06997 12.7111L6.01836 16.0889L6.2045 16L5.14088 12.6133L5.17633 12.6044ZM7.83538 13.0222L7.30357 13.6622V13.7689C7.3036 13.7965 7.29804 13.8238 7.28725 13.8492C7.27645 13.8746 7.26064 13.8976 7.24076 13.9167C7.22088 13.9358 7.19735 13.9507 7.17158 13.9604C7.14582 13.9701 7.11835 13.9745 7.09085 13.9733C7.03678 13.9733 6.98493 13.9518 6.9467 13.9135C6.90846 13.8751 6.88699 13.8231 6.88699 13.7689L6.14245 13.5556H6.88699L6.99335 13.4489L7.8797 13.0222H7.83538ZM30.8804 13.4489L30.455 14.8267C30.455 14.8267 30.455 15.0311 30.1359 15.2444L30.7741 15.4578L30.8804 15.2444C30.8804 15.2444 30.7741 15.1378 30.8804 14.9333C30.9693 14.6786 31.0729 14.4293 31.1907 14.1867C31.2214 14.0466 31.208 13.9005 31.1525 13.7683C31.0969 13.6362 31.0019 13.5246 30.8804 13.4489ZM32.9899 13.9822C32.4581 13.9822 32.3518 14.6133 32.3518 14.6133C32.2903 14.8578 32.2547 15.1081 32.2454 15.36C32.2466 15.3869 32.2425 15.4137 32.2333 15.4389C32.2242 15.4642 32.2101 15.4874 32.192 15.5072C32.1739 15.527 32.1521 15.5431 32.1278 15.5544C32.1035 15.5658 32.0772 15.5722 32.0504 15.5733V15.7778L32.6797 15.9911C32.6175 15.919 32.575 15.832 32.5564 15.7385C32.5377 15.645 32.5436 15.5483 32.5734 15.4578L32.9988 13.9733L32.9899 13.9822ZM8.86354 14.2222C8.75898 14.6547 8.49647 15.0322 8.12787 15.28L9.07627 14.96L8.86354 14.2222ZM19.0034 14.3289C19.4735 14.2658 19.9509 14.3676 20.3547 14.6171C20.7585 14.8665 21.064 15.2483 21.2192 15.6978C19.7768 15.5822 18.3274 15.5822 16.885 15.6978C17.0833 15.3001 17.3846 14.9632 17.7573 14.7224C18.1299 14.4816 18.5603 14.3457 19.0034 14.3289ZM6.12473 15.1111L6.33745 15.6444L7.17948 15.4311C6.80293 15.4395 6.43348 15.3274 6.12473 15.1111ZM10.0247 15.3244C10.0382 15.3232 10.0518 15.3248 10.0647 15.3292C10.0776 15.3335 10.0894 15.3405 10.0994 15.3497C10.1094 15.3589 10.1174 15.3701 10.1228 15.3826C10.1283 15.3951 10.1311 15.4086 10.131 15.4222L10.4501 16.5867C10.4501 16.6844 10.4501 16.6844 10.3437 16.6844L10.131 16.7911C10.0247 16.7911 10.0247 16.7911 10.0247 16.6844L9.74989 15.5644C9.74989 15.4667 9.74989 15.4667 9.85625 15.4667L10.0247 15.3244ZM29.87 15.4311V15.5289L32.8304 16.2756V16.1689L29.87 15.4311ZM9.28899 15.5289C9.30252 15.5276 9.31616 15.5293 9.32903 15.5336C9.3419 15.538 9.35372 15.545 9.36374 15.5542C9.37375 15.5634 9.38174 15.5746 9.38718 15.5871C9.39262 15.5996 9.39541 15.613 9.39535 15.6267L9.74989 16.8356C9.74989 16.9422 9.74989 16.9422 9.64353 16.9422L9.43081 17.04C9.32444 17.04 9.32444 17.04 9.32444 16.9422L9.01422 15.7689C9.01422 15.6711 9.01422 15.6711 9.12058 15.6711L9.28899 15.5289ZM8.40264 15.84C8.41661 15.84 8.43044 15.8428 8.44334 15.8481C8.45625 15.8535 8.46797 15.8613 8.47785 15.8712C8.48773 15.8811 8.49556 15.8929 8.50091 15.9058C8.50625 15.9188 8.509 15.9327 8.509 15.9467L8.86354 17.1467C8.86354 17.2533 8.86354 17.2533 8.75718 17.2533H8.65968C8.55332 17.2533 8.55332 17.2533 8.55332 17.1467L8.23423 16C8.23423 15.8933 8.23423 15.8933 8.3406 15.8933L8.40264 15.84ZM7.66697 16.0533L8.08356 17.3244C8.08356 17.4311 8.08356 17.4311 7.97719 17.4311L7.77333 17.5378C7.66697 17.5378 7.66697 17.5378 7.66697 17.4311L7.34789 16.2667C7.34789 16.16 7.34789 16.16 7.45425 16.16L7.66697 16.0533ZM29.6218 16.16L32.6797 17.0489L32.2631 18.7467L29.2495 17.8933L29.6218 16.16ZM6.9313 16.2667C6.95748 16.2684 6.98229 16.279 7.00163 16.2968C7.02097 16.3146 7.03368 16.3384 7.03766 16.3644H7.09085L7.40107 17.5289C7.40107 17.6356 7.40107 17.6356 7.29471 17.6356L7.09085 17.7778C6.98448 17.7778 6.98448 17.7778 6.98448 17.6711L6.6654 16.5067C6.6654 16.4 6.6654 16.4 6.77176 16.4L6.9313 16.2667ZM6.2045 16.5156L6.65654 17.7778C6.65654 17.8844 6.65653 17.8844 6.55017 17.8844H6.44381C6.33745 17.8844 6.33745 17.8844 6.33745 17.7778L6.02723 16.6222C6.02723 16.5156 6.02723 16.5156 6.12473 16.5156H6.2045ZM10.0069 17.1467C10.0351 17.1467 10.0622 17.1579 10.0821 17.1779C10.1021 17.1979 10.1133 17.225 10.1133 17.2533L10.4324 18.4178C10.4324 18.5244 10.4324 18.5244 10.326 18.5244H10.2197C10.1133 18.5244 10.1133 18.5244 10.1133 18.4178L9.79421 17.2533C9.79421 17.1467 9.79421 17.1467 9.90057 17.1467H10.0069ZM9.27126 17.36L9.74989 18.6667C9.74989 18.7733 9.74989 18.7733 9.64353 18.7733H9.53717C9.43967 18.7733 9.43967 18.7733 9.43967 18.6667L9.12058 17.5022C9.12058 17.3956 9.12058 17.3956 9.22694 17.3956L9.27126 17.36ZM8.52673 17.5733L8.94331 18.8444C8.94331 18.9511 8.94331 18.9511 8.83695 18.9511H8.75718C8.65082 18.9511 8.65082 18.9511 8.65082 18.8444L8.3406 17.68C8.3406 17.5733 8.3406 17.5733 8.44696 17.5733H8.52673ZM7.71129 17.7778C7.73803 17.7777 7.76382 17.7877 7.78353 17.8058C7.80324 17.8239 7.81542 17.8488 7.81765 17.8756L8.13674 19.04C8.13674 19.1378 8.13674 19.1378 8.03038 19.1378H7.92401C7.81765 19.1378 7.81765 19.1378 7.81765 19.04L7.49857 17.8756C7.49857 17.7689 7.49857 17.7689 7.60493 17.7689L7.71129 17.7778ZM6.97562 17.9822L7.3922 19.2533C7.3922 19.36 7.3922 19.36 7.28584 19.36H7.17948C7.07312 19.36 7.07312 19.36 7.07312 19.2533L6.7629 18.0889C6.7629 17.9822 6.7629 17.9822 6.86926 17.9822H6.97562ZM45.709 19.5556H45.3988L44.1225 21.0667H42.9614L43.1741 20.7467V20.5333H42.9614L42.4295 21.0667H41.6584L41.9775 20.64V20.4444H41.7648L41.1266 21.0756H39.8857L39.5666 21.5022L42.2257 22.1333L42.9614 22.56L41.4812 25.0933H40.2137L39.7971 25.4044L40.9582 25.8311V26.1511L41.0646 26.2578L41.2773 26.1511L42.013 27.1022L42.2257 26.6756L41.8002 25.4044L43.8034 23.1822L44.4416 23.7156L45.8065 26.0444L46.1256 25.6178L45.8065 24.4533L46.232 23.7156V23.5022H46.0193L45.7002 23.92L45.2038 23.2889L45.6293 22.6489V22.4444L45.3102 22.5511L45.0975 22.8622L44.7872 21.6978L45.842 20.1156L45.7356 19.5822L45.709 19.5556Z" fill="white"/>
</g>
</g>
<defs>
<clipPath id="clip0_12158_650">
<rect width="169" height="56" fill="white"/>
</clipPath>
</defs>
</svg>
