<?xml version="1.0" encoding="UTF-8"?>
<svg xmlns="http://www.w3.org/2000/svg" xmlns:xlink="http://www.w3.org/1999/xlink" width="35px" height="34px" viewBox="0 0 35 34" version="1.1">
<defs>
<clipPath id="clip1">
  <path d="M 12 2 L 19 2 L 19 14 L 12 14 Z M 12 2 "/>
</clipPath>
<clipPath id="clip2">
  <path d="M 12.1875 2.90625 C 13.425781 6.804688 13.949219 13.808594 17.597656 13.808594 C 17.882812 13.820312 18.164062 13.796875 18.445312 13.742188 C 15.121094 12.949219 14.664062 6.078125 12.644531 2.445312 C 12.476562 2.582031 12.324219 2.738281 12.1875 2.90625 "/>
</clipPath>
<linearGradient id="linear0" gradientUnits="userSpaceOnUse" x1="0.631" y1="0.641" x2="0.644" y2="0.641" gradientTransform="matrix(50.121094,0,0,50.804688,-31.609375,2.445312)">
<stop offset="0" style="stop-color:rgb(0%,58.431373%,85.490196%);stop-opacity:1;"/>
<stop offset="0.11" style="stop-color:rgb(0%,58.431373%,85.490196%);stop-opacity:1;"/>
<stop offset="0.176" style="stop-color:rgb(1.176471%,59.215686%,85.882353%);stop-opacity:1;"/>
<stop offset="0.23" style="stop-color:rgb(5.490196%,62.352941%,87.45098%);stop-opacity:1;"/>
<stop offset="0.281" style="stop-color:rgb(12.156863%,67.45098%,90.196078%);stop-opacity:1;"/>
<stop offset="0.329" style="stop-color:rgb(21.568627%,74.509804%,94.117647%);stop-opacity:1;"/>
<stop offset="0.35" style="stop-color:rgb(26.666667%,78.431373%,96.078431%);stop-opacity:1;"/>
<stop offset="0.45" style="stop-color:rgb(26.666667%,78.431373%,96.078431%);stop-opacity:1;"/>
<stop offset="0.467" style="stop-color:rgb(25.098039%,76.862745%,94.901961%);stop-opacity:1;"/>
<stop offset="0.632" style="stop-color:rgb(11.372549%,61.568627%,85.490196%);stop-opacity:1;"/>
<stop offset="0.764" style="stop-color:rgb(3.137255%,52.54902%,79.607843%);stop-opacity:1;"/>
<stop offset="0.846" style="stop-color:rgb(0%,49.019608%,77.254902%);stop-opacity:1;"/>
<stop offset="1" style="stop-color:rgb(0%,49.019608%,77.254902%);stop-opacity:1;"/>
</linearGradient>
<clipPath id="clip3">
  <path d="M 12 2 L 20 2 L 20 14 L 12 14 Z M 12 2 "/>
</clipPath>
<clipPath id="clip4">
  <path d="M 12.644531 2.441406 C 14.664062 6.007812 15.121094 12.945312 18.445312 13.738281 L 19.226562 13.542969 C 16.230469 11.957031 15.445312 5.285156 13.101562 2.046875 C 12.964844 2.195312 12.8125 2.324219 12.644531 2.441406 "/>
</clipPath>
<linearGradient id="linear1" gradientUnits="userSpaceOnUse" x1="0.627" y1="0.633" x2="0.64" y2="0.633" gradientTransform="matrix(51.359375,0,0,52.0625,-32.199219,2.046875)">
<stop offset="0" style="stop-color:rgb(0%,47.058824%,72.54902%);stop-opacity:1;"/>
<stop offset="0.176" style="stop-color:rgb(0%,47.058824%,72.54902%);stop-opacity:1;"/>
<stop offset="0.244" style="stop-color:rgb(0%,52.941176%,78.039216%);stop-opacity:1;"/>
<stop offset="0.36" style="stop-color:rgb(0%,67.058824%,90.196078%);stop-opacity:1;"/>
<stop offset="0.52" style="stop-color:rgb(0%,67.058824%,90.196078%);stop-opacity:1;"/>
<stop offset="0.732" style="stop-color:rgb(0%,67.45098%,91.372549%);stop-opacity:1;"/>
<stop offset="0.846" style="stop-color:rgb(0%,68.235294%,93.72549%);stop-opacity:1;"/>
<stop offset="1" style="stop-color:rgb(0%,68.235294%,93.72549%);stop-opacity:1;"/>
</linearGradient>
<clipPath id="clip5">
  <path d="M 16.292969 0.332031 L 22.550781 0.332031 L 22.550781 12.15625 L 16.292969 12.15625 Z M 16.292969 0.332031 "/>
</clipPath>
<clipPath id="clip6">
  <path d="M 21.640625 12.089844 C 21.964844 11.824219 22.226562 11.5625 22.550781 11.296875 C 21.246094 7.398438 20.792969 0.332031 17.078125 0.332031 C 16.8125 0.320312 16.550781 0.339844 16.292969 0.394531 C 19.683594 1.253906 20.074219 8.722656 21.640625 12.089844 "/>
</clipPath>
<linearGradient id="linear2" gradientUnits="userSpaceOnUse" x1="-0.399" y1="1.553" x2="-0.383" y2="1.553" gradientTransform="matrix(40.867188,0,0,41.425781,16.292969,-29.335938)">
<stop offset="0" style="stop-color:rgb(0%,40%,70.196078%);stop-opacity:1;"/>
<stop offset="0.139" style="stop-color:rgb(0%,47.45098%,75.686275%);stop-opacity:1;"/>
<stop offset="0.418" style="stop-color:rgb(0%,66.27451%,90.196078%);stop-opacity:1;"/>
<stop offset="0.5" style="stop-color:rgb(0%,72.54902%,94.901961%);stop-opacity:1;"/>
<stop offset="1" style="stop-color:rgb(0%,72.54902%,94.901961%);stop-opacity:1;"/>
</linearGradient>
<clipPath id="clip7">
  <path d="M 15.640625 0.332031 L 17.078125 0.332031 L 17.078125 0.394531 L 15.640625 0.394531 Z M 15.640625 0.332031 "/>
</clipPath>
<clipPath id="clip8">
  <path d="M 15 0 L 22 0 L 22 13 L 15 13 Z M 15 0 "/>
</clipPath>
<clipPath id="clip9">
  <path d="M 15.382812 0.59375 C 18.445312 2.179688 18.707031 9.511719 21.117188 12.421875 C 21.246094 12.289062 21.441406 12.15625 21.574219 12.027344 C 20.074219 8.65625 19.617188 1.1875 16.230469 0.332031 C 15.960938 0.457031 15.675781 0.546875 15.382812 0.59375 "/>
</clipPath>
<linearGradient id="linear3" gradientUnits="userSpaceOnUse" x1="0.593" y1="0.638" x2="0.606" y2="0.638" gradientTransform="matrix(53.378906,0,0,54.109375,-31.675781,0.460938)">
<stop offset="0" style="stop-color:rgb(0%,42.352941%,70.196078%);stop-opacity:1;"/>
<stop offset="0.099" style="stop-color:rgb(0%,42.352941%,70.196078%);stop-opacity:1;"/>
<stop offset="0.2" style="stop-color:rgb(0%,49.411765%,75.686275%);stop-opacity:1;"/>
<stop offset="0.4" style="stop-color:rgb(0%,67.058824%,90.196078%);stop-opacity:1;"/>
<stop offset="0.516" style="stop-color:rgb(0%,67.058824%,90.196078%);stop-opacity:1;"/>
<stop offset="0.846" style="stop-color:rgb(0%,59.215686%,85.098039%);stop-opacity:1;"/>
<stop offset="1" style="stop-color:rgb(0%,59.215686%,85.098039%);stop-opacity:1;"/>
</linearGradient>
<clipPath id="clip10">
  <path d="M 13 0 L 22 0 L 22 14 L 13 14 Z M 13 0 "/>
</clipPath>
<clipPath id="clip11">
  <path d="M 13.101562 2.046875 C 15.445312 5.285156 16.230469 11.957031 19.292969 13.480469 C 19.964844 13.242188 20.601562 12.90625 21.183594 12.488281 C 18.769531 9.511719 18.507812 2.246094 15.445312 0.660156 C 14.585938 0.972656 13.789062 1.441406 13.101562 2.046875 "/>
</clipPath>
<linearGradient id="linear4" gradientUnits="userSpaceOnUse" x1="-1.642" y1="2.666" x2="-1.561" y2="2.666" gradientTransform="matrix(8.019531,0,0,12.882813,13.164062,0.660156)">
<stop offset="0" style="stop-color:rgb(0%,28.235294%,49.411765%);stop-opacity:1;"/>
<stop offset="0.11" style="stop-color:rgb(0%,28.235294%,49.411765%);stop-opacity:1;"/>
<stop offset="0.39" style="stop-color:rgb(0%,52.941176%,78.039216%);stop-opacity:1;"/>
<stop offset="0.52" style="stop-color:rgb(0%,52.941176%,78.039216%);stop-opacity:1;"/>
<stop offset="0.545" style="stop-color:rgb(0%,50.980392%,76.078431%);stop-opacity:1;"/>
<stop offset="0.78" style="stop-color:rgb(0%,33.333333%,59.607843%);stop-opacity:1;"/>
<stop offset="1" style="stop-color:rgb(0%,33.333333%,59.607843%);stop-opacity:1;"/>
</linearGradient>
<clipPath id="clip12">
  <path d="M 9.515625 1.851562 L 12.1875 1.851562 L 12.1875 6.144531 L 9.515625 6.144531 Z M 9.515625 1.851562 "/>
</clipPath>
<clipPath id="clip13">
  <path d="M 24.117188 0 L 35 0 L 35 13.742188 L 24.117188 13.742188 Z M 24.117188 0 "/>
</clipPath>
<clipPath id="clip14">
  <path d="M 33.175781 0 C 31.480469 6.671875 27.894531 12.089844 24.898438 13.476562 C 24.847656 13.484375 24.800781 13.507812 24.765625 13.542969 L 24.246094 13.542969 C 24.390625 13.601562 24.546875 13.625 24.703125 13.609375 C 27.570312 13.609375 30.4375 8.457031 35.195312 -0.132812 L 33.175781 -0.132812 Z M 33.175781 0 "/>
</clipPath>
<linearGradient id="linear5" gradientUnits="userSpaceOnUse" x1="-0.607" y1="1.525" x2="-0.591" y2="1.525" gradientTransform="matrix(39.824219,0,0,40.367188,24.179687,-26.558594)">
<stop offset="0" style="stop-color:rgb(0%,42.745098%,69.019608%);stop-opacity:1;"/>
<stop offset="0.13" style="stop-color:rgb(3.921569%,52.941176%,76.862745%);stop-opacity:1;"/>
<stop offset="0.327" style="stop-color:rgb(8.627451%,65.882353%,87.058824%);stop-opacity:1;"/>
<stop offset="0.491" style="stop-color:rgb(11.372549%,74.117647%,93.333333%);stop-opacity:1;"/>
<stop offset="0.6" style="stop-color:rgb(12.54902%,76.862745%,95.686275%);stop-opacity:1;"/>
<stop offset="1" style="stop-color:rgb(12.54902%,76.862745%,95.686275%);stop-opacity:1;"/>
</linearGradient>
<clipPath id="clip15">
  <path d="M 0 0.332031 L 9.90625 0.332031 L 9.90625 14.136719 L 0 14.136719 Z M 0 0.332031 "/>
</clipPath>
<clipPath id="clip16">
  <path d="M 2 0 L 9 0 L 9 11 L 2 11 Z M 2 0 "/>
</clipPath>
<clipPath id="clip17">
  <path d="M 2.152344 10.902344 C 5.085938 5.152344 6.453125 1.519531 8.863281 0.59375 C 6.386719 1.585938 3.519531 5.351562 2.152344 10.902344 "/>
</clipPath>
<linearGradient id="linear6" gradientUnits="userSpaceOnUse" x1="-0.051" y1="1.584" x2="-0.035" y2="1.584" gradientTransform="matrix(40.800781,0,0,41.359375,2.085937,-30.523437)">
<stop offset="0" style="stop-color:rgb(0%,56.078431%,81.568627%);stop-opacity:1;"/>
<stop offset="0.536" style="stop-color:rgb(0%,61.568627%,85.882353%);stop-opacity:1;"/>
<stop offset="1" style="stop-color:rgb(0%,64.313725%,87.843137%);stop-opacity:1;"/>
</linearGradient>
<clipPath id="clip18">
  <path d="M 3.257812 6.144531 L 9.515625 6.144531 L 9.515625 14.136719 L 3.257812 14.136719 Z M 3.257812 6.144531 "/>
</clipPath>
<clipPath id="clip19">
  <path d="M 3.453125 14.136719 L 3.195312 14.136719 C 6.125 14.070312 7.496094 12.550781 8.148438 10.371094 C 8.667969 8.722656 9.058594 7.332031 9.449219 6.144531 C 8.097656 8.140625 6.859375 10.214844 5.734375 12.351562 C 5.316406 13.296875 4.460938 13.964844 3.453125 14.136719 "/>
</clipPath>
<clipPath id="clip20">
  <path d="M 3 2 L 11 2 L 11 15 L 3 15 Z M 3 2 "/>
</clipPath>
<clipPath id="clip21">
  <path d="M 3.453125 14.136719 C 4.441406 13.96875 5.292969 13.332031 5.734375 12.421875 C 6.828125 10.265625 8.070312 8.191406 9.449219 6.210938 C 9.90625 4.757812 10.296875 3.699219 10.625 2.84375 C 8.210938 5.152344 5.734375 9.117188 3.453125 14.136719 "/>
</clipPath>
<linearGradient id="linear7" gradientUnits="userSpaceOnUse" x1="-0.468" y1="2.858" x2="-0.378" y2="2.858" gradientTransform="matrix(7.234375,0,0,11.300781,3.390625,2.707031)">
<stop offset="0" style="stop-color:rgb(0%,36.470588%,64.313725%);stop-opacity:1;"/>
<stop offset="0.154" style="stop-color:rgb(0%,36.470588%,64.313725%);stop-opacity:1;"/>
<stop offset="0.318" style="stop-color:rgb(0%,48.235294%,75.294118%);stop-opacity:1;"/>
<stop offset="0.5" style="stop-color:rgb(0%,63.137255%,89.411765%);stop-opacity:1;"/>
<stop offset="0.568" style="stop-color:rgb(1.960784%,63.529412%,89.411765%);stop-opacity:1;"/>
<stop offset="0.651" style="stop-color:rgb(7.843137%,65.098039%,89.411765%);stop-opacity:1;"/>
<stop offset="0.74" style="stop-color:rgb(17.254902%,67.45098%,89.411765%);stop-opacity:1;"/>
<stop offset="0.834" style="stop-color:rgb(30.588235%,70.980392%,89.411765%);stop-opacity:1;"/>
<stop offset="0.918" style="stop-color:rgb(44.705882%,74.509804%,89.411765%);stop-opacity:1;"/>
<stop offset="1" style="stop-color:rgb(44.705882%,74.509804%,89.411765%);stop-opacity:1;"/>
</linearGradient>
<clipPath id="clip22">
  <path d="M 1 0 L 12 0 L 12 15 L 1 15 Z M 1 0 "/>
</clipPath>
<clipPath id="clip23">
  <path d="M 9.84375 0.332031 L 9.515625 0.332031 C 9.449219 0.332031 9.386719 0.332031 9.386719 0.394531 L 9.253906 0.394531 C 9.191406 0.394531 9.191406 0.394531 9.125 0.460938 L 8.996094 0.460938 C 6.519531 1.453125 5.148438 5.085938 2.214844 10.769531 C 1.953125 11.832031 1.757812 12.914062 1.628906 14.007812 L 3.390625 14.007812 C 5.671875 9.050781 8.148438 5.085938 10.621094 2.707031 C 10.820312 2.179688 11.109375 1.6875 11.46875 1.253906 C 11.289062 1 11.09375 0.757812 10.882812 0.527344 L 10.296875 0.527344 C 10.234375 0.527344 10.167969 0.527344 10.167969 0.460938 L 9.972656 0.460938 C 9.90625 0.332031 9.84375 0.332031 9.84375 0.332031 "/>
</clipPath>
<linearGradient id="linear8" gradientUnits="userSpaceOnUse" x1="0.111" y1="1.442" x2="0.127" y2="1.442" gradientTransform="matrix(42.753906,0,0,43.273437,-4.757812,-27.417969)">
<stop offset="0" style="stop-color:rgb(0%,32.941176%,58.823529%);stop-opacity:1;"/>
<stop offset="0.104" style="stop-color:rgb(0%,32.941176%,58.823529%);stop-opacity:1;"/>
<stop offset="1" style="stop-color:rgb(0%,51.372549%,77.254902%);stop-opacity:1;"/>
</linearGradient>
<clipPath id="clip24">
  <path d="M 25 0 L 30 0 L 30 9 L 25 9 Z M 25 0 "/>
</clipPath>
<clipPath id="clip25">
  <path d="M 26.460938 3.699219 C 25.875 5.550781 25.417969 7 25.027344 8.257812 C 26.769531 5.742188 28.277344 3.066406 29.523438 0.265625 C 27.894531 0.859375 26.984375 2.046875 26.460938 3.699219 "/>
</clipPath>
<linearGradient id="linear9" gradientUnits="userSpaceOnUse" x1="-1.32" y1="2.391" x2="-1.285" y2="2.391" gradientTransform="matrix(18.96875,0,0,19.226563,25.027344,-10.96875)">
<stop offset="0" style="stop-color:rgb(0%,63.137255%,89.411765%);stop-opacity:1;"/>
<stop offset="0.465" style="stop-color:rgb(0%,62.352941%,88.235294%);stop-opacity:1;"/>
<stop offset="0.781" style="stop-color:rgb(0%,59.607843%,84.705882%);stop-opacity:1;"/>
<stop offset="0.874" style="stop-color:rgb(0%,58.431373%,83.137255%);stop-opacity:1;"/>
<stop offset="1" style="stop-color:rgb(0%,58.431373%,83.137255%);stop-opacity:1;"/>
</linearGradient>
<clipPath id="clip26">
  <path d="M 24.898438 0 L 33.175781 0 L 33.175781 13.476562 L 24.898438 13.476562 Z M 24.898438 0 "/>
</clipPath>
<clipPath id="clip27">
  <path d="M 25.09375 13.347656 C 25.027344 13.410156 24.960938 13.410156 24.832031 13.476562 C 27.894531 12.089844 31.480469 6.671875 33.175781 0 L 32.847656 0 C 28.875 7.136719 27.636719 11.890625 25.09375 13.347656 "/>
</clipPath>
<linearGradient id="linear10" gradientUnits="userSpaceOnUse" x1="0.311" y1="0.81" x2="0.324" y2="0.81" gradientTransform="matrix(51.492187,0,0,52.195312,-16.035156,-7.269531)">
<stop offset="0" style="stop-color:rgb(0%,64.313725%,87.843137%);stop-opacity:1;"/>
<stop offset="0.357" style="stop-color:rgb(0%,64.313725%,87.843137%);stop-opacity:1;"/>
<stop offset="0.961" style="stop-color:rgb(0%,53.72549%,81.176471%);stop-opacity:1;"/>
<stop offset="1" style="stop-color:rgb(0%,53.72549%,81.176471%);stop-opacity:1;"/>
</linearGradient>
<clipPath id="clip28">
  <path d="M 23 0 L 33 0 L 33 14 L 23 14 Z M 23 0 "/>
</clipPath>
<clipPath id="clip29">
  <path d="M 31.742188 0 L 29.785156 0 C 29.722656 0.0664062 29.722656 0.195312 29.65625 0.265625 C 28.382812 3.050781 26.875 5.726562 25.15625 8.257812 C 24.441406 10.503906 23.921875 11.890625 23.269531 12.683594 C 23.488281 13.105469 23.828125 13.453125 24.246094 13.675781 L 24.703125 13.675781 C 24.75 13.667969 24.796875 13.644531 24.832031 13.609375 C 24.898438 13.542969 24.960938 13.542969 25.09375 13.476562 C 27.636719 11.890625 28.875 7.136719 32.847656 0 Z M 31.742188 0 "/>
</clipPath>
<linearGradient id="linear11" gradientUnits="userSpaceOnUse" x1="0.208" y1="0.836" x2="0.224" y2="0.836" gradientTransform="matrix(41.386719,0,0,41.953125,-8.601562,-0.0664062)">
<stop offset="0" style="stop-color:rgb(0%,55.294118%,81.176471%);stop-opacity:1;"/>
<stop offset="0.5" style="stop-color:rgb(0%,52.941176%,78.431373%);stop-opacity:1;"/>
<stop offset="0.63" style="stop-color:rgb(0%,47.058824%,72.156863%);stop-opacity:1;"/>
<stop offset="1" style="stop-color:rgb(0%,31.372549%,56.078431%);stop-opacity:1;"/>
</linearGradient>
<clipPath id="clip30">
  <path d="M 9.644531 0.332031 L 12 0.332031 L 12 1 L 9.644531 1 Z M 9.644531 0.332031 "/>
</clipPath>
<clipPath id="clip31">
  <path d="M 11 0.332031 L 13 0.332031 L 13 1.652344 L 11 1.652344 Z M 11 0.332031 "/>
</clipPath>
<clipPath id="clip32">
  <path d="M 9.644531 0.332031 L 15 0.332031 L 15 1 L 9.644531 1 Z M 9.644531 0.332031 "/>
</clipPath>
<clipPath id="clip33">
  <path d="M 9.972656 0.332031 L 10.234375 0.332031 C 10.867188 0.324219 11.488281 0.535156 11.992188 0.925781 C 12.515625 0.460938 13.230469 0.332031 14.144531 0.332031 L 9.972656 0.332031 "/>
</clipPath>
<linearGradient id="linear12" gradientUnits="userSpaceOnUse" x1="-1.92" y1="9.663" x2="-1.787" y2="9.663" gradientTransform="matrix(4.886719,0,0,3.765625,9.386719,-1.386719)">
<stop offset="0" style="stop-color:rgb(54.901961%,81.176471%,92.54902%);stop-opacity:1;"/>
<stop offset="0.111" style="stop-color:rgb(51.764706%,80.392157%,92.54902%);stop-opacity:1;"/>
<stop offset="0.284" style="stop-color:rgb(43.137255%,78.823529%,92.156863%);stop-opacity:1;"/>
<stop offset="0.497" style="stop-color:rgb(29.019608%,76.078431%,91.764706%);stop-opacity:1;"/>
<stop offset="0.703" style="stop-color:rgb(12.54902%,72.941176%,90.980392%);stop-opacity:1;"/>
<stop offset="1" style="stop-color:rgb(12.54902%,72.941176%,90.980392%);stop-opacity:1;"/>
</linearGradient>
<clipPath id="clip34">
  <path d="M 11 0.332031 L 15.640625 0.332031 L 15.640625 1.652344 L 11 1.652344 Z M 11 0.332031 "/>
</clipPath>
<clipPath id="clip35">
  <path d="M 14.078125 0.332031 C 13.316406 0.265625 12.550781 0.476562 11.925781 0.925781 C 12.128906 1.042969 12.308594 1.199219 12.449219 1.386719 C 13.160156 0.945312 13.925781 0.613281 14.730469 0.394531 C 15.007812 0.339844 15.292969 0.320312 15.578125 0.332031 Z M 14.078125 0.332031 "/>
</clipPath>
<linearGradient id="linear13" gradientUnits="userSpaceOnUse" x1="-1.054" y1="3.409" x2="-0.994" y2="3.409" gradientTransform="matrix(10.953125,0,0,11.097656,11.535156,-2.839844)">
<stop offset="0" style="stop-color:rgb(40.784314%,77.254902%,91.764706%);stop-opacity:1;"/>
<stop offset="0.335" style="stop-color:rgb(40.784314%,77.254902%,91.764706%);stop-opacity:1;"/>
<stop offset="0.358" style="stop-color:rgb(39.215686%,76.862745%,91.764706%);stop-opacity:1;"/>
<stop offset="0.656" style="stop-color:rgb(18.039216%,72.941176%,91.764706%);stop-opacity:1;"/>
<stop offset="0.878" style="stop-color:rgb(5.098039%,70.588235%,91.764706%);stop-opacity:1;"/>
<stop offset="1" style="stop-color:rgb(0%,69.803922%,91.764706%);stop-opacity:1;"/>
</linearGradient>
<clipPath id="clip36">
  <path d="M 22.550781 0 L 29.722656 0 L 29.722656 11.230469 L 22.550781 11.230469 Z M 22.550781 0 "/>
</clipPath>
<clipPath id="clip37">
  <path d="M 25.09375 8.257812 C 25.480469 7.003906 25.941406 5.484375 26.527344 3.699219 C 27.046875 2.046875 27.960938 0.792969 29.65625 0.265625 C 29.722656 0.199219 29.722656 0.0664062 29.785156 0 C 27.046875 0.199219 25.746094 1.585938 25.09375 3.699219 C 23.984375 7.398438 23.269531 9.777344 22.617188 11.296875 C 23.503906 10.335938 24.328125 9.320312 25.09375 8.257812 "/>
</clipPath>
<linearGradient id="linear14" gradientUnits="userSpaceOnUse" x1="0.269" y1="0.855" x2="0.285" y2="0.855" gradientTransform="matrix(40.472656,0,0,41.027344,-10.882812,-0.0664062)">
<stop offset="0" style="stop-color:rgb(0%,64.705882%,89.803922%);stop-opacity:1;"/>
<stop offset="1" style="stop-color:rgb(0%,65.882353%,89.019608%);stop-opacity:1;"/>
</linearGradient>
</defs>
<g id="surface1">
<g clip-path="url(#clip1)" clip-rule="nonzero">
<g clip-path="url(#clip2)" clip-rule="nonzero">
<path style=" stroke:none;fill-rule:nonzero;fill:url(#linear0);" d="M -31.609375 2.445312 L 18.511719 2.445312 L 18.511719 53.25 L -31.609375 53.25 Z M -31.609375 2.445312 "/>
</g>
</g>
<g clip-path="url(#clip3)" clip-rule="nonzero">
<g clip-path="url(#clip4)" clip-rule="nonzero">
<path style=" stroke:none;fill-rule:nonzero;fill:url(#linear1);" d="M -32.199219 2.046875 L 19.160156 2.046875 L 19.160156 54.109375 L -32.199219 54.109375 Z M -32.199219 2.046875 "/>
</g>
</g>
<path style=" stroke:none;fill-rule:nonzero;fill:rgb(0%,34.901962%,60.000002%);fill-opacity:1;" d="M 15.640625 0.332031 C 15.359375 0.320312 15.074219 0.339844 14.796875 0.394531 C 13.976562 0.566406 13.199219 0.902344 12.515625 1.386719 C 12.726562 1.617188 12.921875 1.859375 13.101562 2.113281 C 13.804688 1.511719 14.597656 1.023438 15.445312 0.660156 C 15.71875 0.542969 16.003906 0.453125 16.292969 0.394531 C 16.082031 0.339844 15.863281 0.320312 15.640625 0.332031 "/>
<g clip-path="url(#clip5)" clip-rule="nonzero">
<g clip-path="url(#clip6)" clip-rule="nonzero">
<path style=" stroke:none;fill-rule:nonzero;fill:url(#linear2);" d="M 16.292969 -29.335938 L 57.160156 -29.335938 L 57.160156 12.089844 L 16.292969 12.089844 Z M 16.292969 -29.335938 "/>
</g>
</g>
<g clip-path="url(#clip7)" clip-rule="nonzero">
<path style=" stroke:none;fill-rule:nonzero;fill:rgb(0%,56.862748%,74.509805%);fill-opacity:1;" d="M 16.292969 0.394531 C 16.082031 0.339844 15.863281 0.320312 15.640625 0.332031 L 17.078125 0.332031 C 16.8125 0.320312 16.550781 0.339844 16.292969 0.394531 "/>
</g>
<path style=" stroke:none;fill-rule:nonzero;fill:rgb(0%,42.352942%,71.372551%);fill-opacity:1;" d="M 21.574219 12.949219 C 21.429688 12.808594 21.296875 12.65625 21.183594 12.488281 C 20.613281 12.917969 19.972656 13.253906 19.292969 13.476562 C 19.515625 13.605469 19.757812 13.695312 20.007812 13.742188 C 20.199219 13.796875 20.398438 13.820312 20.597656 13.808594 C 21.179688 13.851562 21.765625 13.738281 22.289062 13.476562 C 22.027344 13.339844 21.785156 13.160156 21.574219 12.949219 "/>
<g clip-path="url(#clip8)" clip-rule="nonzero">
<g clip-path="url(#clip9)" clip-rule="nonzero">
<path style=" stroke:none;fill-rule:nonzero;fill:url(#linear3);" d="M -31.675781 0.460938 L 21.703125 0.460938 L 21.703125 54.570312 L -31.675781 54.570312 Z M -31.675781 0.460938 "/>
</g>
</g>
<g clip-path="url(#clip10)" clip-rule="nonzero">
<g clip-path="url(#clip11)" clip-rule="nonzero">
<path style=" stroke:none;fill-rule:nonzero;fill:url(#linear4);" d="M 13.164062 0.660156 L 21.183594 0.660156 L 21.183594 13.542969 L 13.164062 13.542969 Z M 13.164062 0.660156 "/>
</g>
</g>
<g clip-path="url(#clip12)" clip-rule="nonzero">
<path style=" stroke:none;fill-rule:nonzero;fill:rgb(0%,72.156864%,94.509804%);fill-opacity:1;" d="M 10.6875 2.773438 C 10.234375 3.875 9.84375 5 9.515625 6.144531 C 10.324219 4.980469 11.21875 3.875 12.1875 2.84375 C 12.058594 2.449219 11.929688 2.117188 11.800781 1.785156 C 11.410156 2.117188 11.082031 2.445312 10.691406 2.777344 "/>
</g>
<path style=" stroke:none;fill-rule:nonzero;fill:rgb(0%,47.058824%,68.235296%);fill-opacity:1;" d="M 12.121094 1.585938 C 12 1.652344 11.886719 1.742188 11.796875 1.851562 C 11.925781 2.179688 12.058594 2.511719 12.1875 2.90625 L 12.640625 2.445312 C 12.507812 2.136719 12.332031 1.847656 12.121094 1.585938 "/>
<path style=" stroke:none;fill-rule:nonzero;fill:rgb(0%,36.862746%,61.176473%);fill-opacity:1;" d="M 12.511719 1.320312 C 12.382812 1.386719 12.25 1.519531 12.125 1.585938 C 12.320312 1.835938 12.492188 2.097656 12.644531 2.378906 L 13.035156 1.984375 C 12.878906 1.746094 12.707031 1.527344 12.511719 1.320312 "/>
<g clip-path="url(#clip13)" clip-rule="nonzero">
<g clip-path="url(#clip14)" clip-rule="nonzero">
<path style=" stroke:none;fill-rule:nonzero;fill:url(#linear5);" d="M 24.179688 -26.558594 L 64.003906 -26.558594 L 64.003906 13.808594 L 24.179688 13.808594 Z M 24.179688 -26.558594 "/>
</g>
</g>
<g clip-path="url(#clip15)" clip-rule="nonzero">
<path style=" stroke:none;fill-rule:nonzero;fill:rgb(0%,62.7451%,89.019608%);fill-opacity:1;" d="M 8.863281 0.59375 L 8.992188 0.59375 C 9.058594 0.59375 9.058594 0.59375 9.125 0.527344 L 9.253906 0.527344 C 9.320312 0.527344 9.382812 0.527344 9.382812 0.460938 L 9.515625 0.460938 C 6.453125 0.332031 2.019531 6.34375 0 14.136719 L 0.390625 14.136719 C 1.039062 13.015625 1.628906 11.890625 2.148438 10.902344 C 3.519531 5.351562 6.386719 1.585938 8.863281 0.59375 "/>
</g>
<path style=" stroke:none;fill-rule:nonzero;fill:rgb(0%,50.980395%,77.254903%);fill-opacity:1;" d="M 10.6875 2.773438 C 11.042969 2.449219 11.410156 2.140625 11.796875 1.851562 C 11.730469 1.652344 11.601562 1.519531 11.535156 1.320312 C 11.1875 1.761719 10.902344 2.253906 10.6875 2.773438 "/>
<path style=" stroke:none;fill-rule:nonzero;fill:rgb(0%,50.980395%,77.254903%);fill-opacity:1;" d="M 10.949219 0.59375 C 11.175781 0.808594 11.375 1.054688 11.535156 1.320312 L 11.730469 1.125 C 11.484375 0.925781 11.226562 0.75 10.949219 0.59375 "/>
<g clip-path="url(#clip16)" clip-rule="nonzero">
<g clip-path="url(#clip17)" clip-rule="nonzero">
<path style=" stroke:none;fill-rule:nonzero;fill:url(#linear6);" d="M 2.085938 -30.523438 L 42.886719 -30.523438 L 42.886719 10.835938 L 2.085938 10.835938 Z M 2.085938 -30.523438 "/>
</g>
</g>
<path style=" stroke:none;fill-rule:nonzero;fill:rgb(0%,49.019608%,76.862746%);fill-opacity:1;" d="M 11.664062 1.121094 L 11.472656 1.320312 C 11.570312 1.488281 11.65625 1.667969 11.730469 1.847656 C 11.855469 1.78125 11.964844 1.691406 12.058594 1.585938 C 11.96875 1.398438 11.832031 1.242188 11.664062 1.121094 "/>
<g clip-path="url(#clip18)" clip-rule="nonzero">
<g clip-path="url(#clip19)" clip-rule="nonzero">
<path style=" stroke:none;fill-rule:nonzero;fill:rgb(0%,63.137255%,89.411765%);fill-opacity:1;" d="M 3.257812 -26.03125 L 42.886719 -26.03125 L 42.886719 14.136719 L 3.257812 14.136719 Z M 3.257812 -26.03125 "/>
</g>
</g>
<g clip-path="url(#clip20)" clip-rule="nonzero">
<g clip-path="url(#clip21)" clip-rule="nonzero">
<path style=" stroke:none;fill-rule:nonzero;fill:url(#linear7);" d="M 3.390625 2.707031 L 10.625 2.707031 L 10.625 14.007812 L 3.390625 14.007812 Z M 3.390625 2.707031 "/>
</g>
</g>
<path style=" stroke:none;fill-rule:nonzero;fill:rgb(0%,62.7451%,89.019608%);fill-opacity:1;" d="M 2.152344 10.902344 C 1.628906 11.890625 1.042969 13.015625 0.390625 14.136719 L 1.5 14.136719 C 1.691406 13.015625 1.886719 11.890625 2.152344 10.902344 "/>
<g clip-path="url(#clip22)" clip-rule="nonzero">
<g clip-path="url(#clip23)" clip-rule="nonzero">
<path style=" stroke:none;fill-rule:nonzero;fill:url(#linear8);" d="M 1.628906 15.855469 L -4.757812 -20.945312 L 31.546875 -27.417969 L 37.996094 9.382812 Z M 1.628906 15.855469 "/>
</g>
</g>
<g clip-path="url(#clip24)" clip-rule="nonzero">
<g clip-path="url(#clip25)" clip-rule="nonzero">
<path style=" stroke:none;fill-rule:nonzero;fill:url(#linear9);" d="M 25.027344 -10.96875 L 43.996094 -10.96875 L 43.996094 8.257812 L 25.027344 8.257812 Z M 25.027344 -10.96875 "/>
</g>
</g>
<g clip-path="url(#clip26)" clip-rule="nonzero">
<g clip-path="url(#clip27)" clip-rule="nonzero">
<path style=" stroke:none;fill-rule:nonzero;fill:url(#linear10);" d="M 35.457031 0.527344 L 27.765625 44.925781 L -16.035156 37.0625 L -8.277344 -7.269531 Z M 35.457031 0.527344 "/>
</g>
</g>
<path style=" stroke:none;fill-rule:nonzero;fill:rgb(0%,60.392159%,87.058824%);fill-opacity:1;" d="M 23.136719 12.75 C 23.789062 11.957031 24.3125 10.570312 25.027344 8.324219 C 24.28125 9.398438 23.429688 10.394531 22.484375 11.296875 C 22.746094 11.828125 22.941406 12.355469 23.136719 12.75 "/>
<path style=" stroke:none;fill-rule:nonzero;fill:rgb(0%,42.352942%,71.372551%);fill-opacity:1;" d="M 23.136719 12.75 C 22.929688 13.003906 22.6875 13.226562 22.421875 13.410156 C 22.367188 13.460938 22.296875 13.488281 22.226562 13.476562 C 22.507812 13.632812 22.816406 13.726562 23.136719 13.742188 L 23.921875 13.742188 C 23.789062 13.542969 23.464844 13.214844 23.136719 12.75 "/>
<path style=" stroke:none;fill-rule:nonzero;fill:rgb(0%,37.64706%,68.235296%);fill-opacity:1;" d="M 17.597656 13.808594 C 17.882812 13.820312 18.164062 13.796875 18.445312 13.742188 L 19.226562 13.542969 C 19.449219 13.671875 19.691406 13.761719 19.945312 13.808594 C 20.136719 13.863281 20.332031 13.886719 20.53125 13.875 L 17.597656 13.875 Z M 17.597656 13.808594 "/>
<path style=" stroke:none;fill-rule:nonzero;fill:rgb(0%,37.64706%,68.235296%);fill-opacity:1;" d="M 20.53125 13.808594 C 21.113281 13.851562 21.699219 13.738281 22.226562 13.476562 C 22.507812 13.632812 22.816406 13.726562 23.136719 13.742188 L 20.53125 13.742188 Z M 20.53125 13.808594 "/>
<path style=" stroke:none;fill-rule:nonzero;fill:rgb(0%,39.215687%,69.01961%);fill-opacity:1;" d="M 23.464844 13.808594 L 23.984375 13.808594 C 24.128906 13.867188 24.285156 13.890625 24.441406 13.875 Z M 23.464844 13.808594 "/>
<path style=" stroke:none;fill-rule:nonzero;fill:rgb(0%,38.431373%,65.490198%);fill-opacity:1;" d="M 22.550781 11.296875 C 22.261719 11.582031 21.957031 11.84375 21.640625 12.089844 C 21.507812 12.222656 21.3125 12.355469 21.183594 12.484375 C 21.3125 12.617188 21.441406 12.816406 21.570312 12.945312 C 21.78125 13.160156 22.023438 13.339844 22.289062 13.476562 C 22.351562 13.476562 22.417969 13.410156 22.484375 13.410156 C 22.765625 13.246094 23.011719 13.019531 23.199219 12.75 C 22.929688 12.289062 22.710938 11.800781 22.546875 11.296875 "/>
<g clip-path="url(#clip28)" clip-rule="nonzero">
<g clip-path="url(#clip29)" clip-rule="nonzero">
<path style=" stroke:none;fill-rule:nonzero;fill:url(#linear11);" d="M -8.601562 -0.0664062 L 32.785156 -0.0664062 L 32.785156 41.886719 L -8.601562 41.886719 Z M -8.601562 -0.0664062 "/>
</g>
</g>
<g clip-path="url(#clip30)" clip-rule="nonzero">
<path style=" stroke:none;fill-rule:nonzero;fill:rgb(42.745098%,76.47059%,90.980393%);fill-opacity:1;" d="M 9.972656 0.332031 L 10.167969 0.332031 C 10.230469 0.332031 10.296875 0.332031 10.296875 0.394531 L 10.820312 0.394531 C 11.09375 0.550781 11.355469 0.726562 11.601562 0.925781 L 11.859375 0.660156 C 11.355469 0.269531 10.738281 0.0625 10.101562 0.0664062 C 10.101562 0.332031 10.039062 0.332031 9.972656 0.332031 "/>
</g>
<g clip-path="url(#clip31)" clip-rule="nonzero">
<path style=" stroke:none;fill-rule:nonzero;fill:rgb(21.568628%,74.117649%,91.37255%);fill-opacity:1;" d="M 11.667969 1.121094 C 11.8125 1.261719 11.941406 1.417969 12.054688 1.585938 C 12.226562 1.539062 12.382812 1.449219 12.511719 1.320312 C 12.355469 1.148438 12.179688 0.992188 11.992188 0.859375 C 11.902344 0.964844 11.789062 1.054688 11.667969 1.121094 "/>
</g>
<g clip-path="url(#clip32)" clip-rule="nonzero">
<g clip-path="url(#clip33)" clip-rule="nonzero">
<path style=" stroke:none;fill-rule:nonzero;fill:url(#linear12);" d="M 10.234375 -1.386719 L 14.273438 0.265625 L 13.363281 2.378906 L 9.386719 0.726562 Z M 10.234375 -1.386719 "/>
</g>
</g>
<g clip-path="url(#clip34)" clip-rule="nonzero">
<g clip-path="url(#clip35)" clip-rule="nonzero">
<path style=" stroke:none;fill-rule:nonzero;fill:url(#linear13);" d="M 11.535156 0.59375 L 19.097656 -2.839844 L 22.488281 4.824219 L 14.925781 8.257812 Z M 11.535156 0.59375 "/>
</g>
</g>
<g clip-path="url(#clip36)" clip-rule="nonzero">
<g clip-path="url(#clip37)" clip-rule="nonzero">
<path style=" stroke:none;fill-rule:nonzero;fill:url(#linear14);" d="M -10.882812 -0.0664062 L 29.589844 -0.0664062 L 29.589844 40.960938 L -10.882812 40.960938 Z M -10.882812 -0.0664062 "/>
</g>
</g>
<path style=" stroke:none;fill-rule:nonzero;fill:rgb(13.725491%,12.156863%,12.54902%);fill-opacity:1;" d="M 29.265625 18.167969 C 29.328125 18.167969 29.394531 18.101562 29.457031 18.035156 C 29.542969 17.917969 29.542969 17.757812 29.457031 17.640625 C 29.382812 17.589844 29.289062 17.566406 29.199219 17.574219 L 28.9375 17.574219 L 28.9375 18.632812 L 29.070312 18.632812 L 29.070312 18.171875 L 29.132812 18.171875 C 29.199219 18.171875 29.265625 18.234375 29.328125 18.367188 L 29.460938 18.632812 L 29.652344 18.632812 L 29.523438 18.367188 C 29.394531 18.234375 29.328125 18.167969 29.265625 18.167969 Z M 29.199219 18.035156 L 29.070312 18.035156 L 29.070312 17.707031 L 29.199219 17.707031 C 29.269531 17.699219 29.34375 17.722656 29.394531 17.773438 C 29.460938 17.773438 29.460938 17.839844 29.460938 17.902344 C 29.394531 17.984375 29.300781 18.035156 29.199219 18.035156 Z M 29.199219 17.308594 C 28.96875 17.285156 28.746094 17.382812 28.613281 17.574219 C 28.449219 17.726562 28.355469 17.941406 28.351562 18.167969 C 28.339844 18.398438 28.4375 18.617188 28.613281 18.761719 C 28.773438 18.90625 28.984375 18.976562 29.199219 18.960938 C 29.425781 18.972656 29.644531 18.875 29.785156 18.695312 C 29.949219 18.542969 30.042969 18.328125 30.046875 18.101562 C 30.070312 17.871094 29.972656 17.640625 29.785156 17.507812 C 29.617188 17.375 29.410156 17.304688 29.199219 17.308594 Z M 29.71875 18.632812 C 29.46875 18.925781 29.046875 18.992188 28.71875 18.792969 C 28.386719 18.597656 28.246094 18.1875 28.378906 17.824219 C 28.511719 17.457031 28.882812 17.242188 29.261719 17.3125 C 29.640625 17.382812 29.914062 17.714844 29.914062 18.101562 C 29.921875 18.296875 29.851562 18.488281 29.722656 18.632812 Z M 4.105469 18.101562 L 4.105469 17.242188 C 4.140625 17.398438 4.183594 17.554688 4.238281 17.707031 L 5.671875 21.007812 L 5.929688 21.007812 L 7.363281 17.707031 C 7.429688 17.640625 7.429688 17.507812 7.496094 17.3125 C 7.496094 17.640625 7.429688 17.90625 7.429688 18.171875 L 7.429688 21.078125 L 7.953125 21.078125 L 7.953125 16.78125 L 7.300781 16.78125 L 5.996094 19.753906 C 5.910156 19.921875 5.84375 20.097656 5.800781 20.285156 C 5.773438 20.09375 5.707031 19.914062 5.605469 19.753906 L 4.300781 16.714844 L 3.648438 16.714844 L 3.648438 21.007812 L 4.105469 21.007812 Z M 9.253906 17.113281 C 9.320312 17.113281 9.449219 17.113281 9.449219 17.046875 C 9.535156 16.929688 9.535156 16.769531 9.449219 16.652344 C 9.449219 16.519531 9.382812 16.519531 9.253906 16.519531 C 9.183594 16.507812 9.109375 16.535156 9.058594 16.585938 C 9.007812 16.636719 8.984375 16.710938 8.996094 16.78125 C 8.984375 16.875 9.007812 16.96875 9.058594 17.046875 C 9.113281 17.097656 9.183594 17.121094 9.253906 17.113281 Z M 9.0625 21.007812 L 9.515625 21.007812 L 9.515625 17.90625 L 9.0625 17.90625 Z M 11.734375 21.074219 C 12.027344 21.082031 12.320312 21.011719 12.582031 20.878906 L 12.582031 20.414062 C 12.140625 20.792969 11.488281 20.761719 11.082031 20.351562 C 10.882812 20.113281 10.785156 19.800781 10.820312 19.492188 C 10.820312 19.152344 10.933594 18.824219 11.148438 18.566406 C 11.351562 18.351562 11.636719 18.234375 11.929688 18.234375 C 12.191406 18.222656 12.449219 18.316406 12.644531 18.5 L 12.644531 17.96875 C 12.390625 17.894531 12.128906 17.851562 11.863281 17.839844 C 11.425781 17.820312 11 17.988281 10.6875 18.300781 C 10.394531 18.652344 10.234375 19.097656 10.234375 19.554688 C 10.222656 19.964844 10.359375 20.367188 10.621094 20.679688 C 10.929688 20.945312 11.324219 21.085938 11.730469 21.074219 Z M 14.144531 18.035156 C 13.988281 18.175781 13.871094 18.359375 13.820312 18.566406 L 13.820312 17.902344 L 13.363281 17.902344 L 13.363281 21.007812 L 13.820312 21.007812 L 13.820312 19.425781 C 13.796875 19.113281 13.890625 18.808594 14.082031 18.566406 C 14.195312 18.390625 14.394531 18.289062 14.601562 18.300781 C 14.734375 18.289062 14.867188 18.3125 14.992188 18.367188 L 14.992188 17.839844 C 14.925781 17.839844 14.859375 17.773438 14.730469 17.773438 C 14.511719 17.792969 14.304688 17.882812 14.144531 18.035156 Z M 16.558594 21.074219 C 16.976562 21.105469 17.386719 20.933594 17.664062 20.613281 C 17.949219 20.285156 18.085938 19.855469 18.054688 19.425781 C 18.074219 18.992188 17.9375 18.566406 17.664062 18.234375 C 17.386719 17.960938 17.007812 17.816406 16.621094 17.839844 C 16.1875 17.808594 15.761719 17.976562 15.457031 18.292969 C 15.15625 18.613281 15.007812 19.050781 15.058594 19.492188 C 15.035156 19.902344 15.175781 20.308594 15.445312 20.617188 C 15.730469 20.925781 16.136719 21.09375 16.554688 21.074219 Z M 15.90625 18.566406 C 16.09375 18.363281 16.351562 18.246094 16.621094 18.234375 C 16.898438 18.230469 17.160156 18.351562 17.339844 18.566406 C 17.539062 18.828125 17.632812 19.160156 17.597656 19.488281 C 17.632812 19.800781 17.539062 20.113281 17.335938 20.347656 C 17.15625 20.5625 16.894531 20.679688 16.621094 20.679688 C 16.339844 20.695312 16.074219 20.574219 15.902344 20.347656 C 15.710938 20.105469 15.617188 19.800781 15.640625 19.488281 C 15.578125 19.15625 15.671875 18.8125 15.902344 18.566406 Z M 20.207031 20.8125 C 20.371094 20.660156 20.46875 20.441406 20.46875 20.214844 C 20.464844 20.003906 20.394531 19.796875 20.273438 19.621094 C 20.109375 19.460938 19.90625 19.347656 19.6875 19.292969 C 19.523438 19.222656 19.371094 19.136719 19.230469 19.027344 C 19.148438 18.9375 19.101562 18.820312 19.101562 18.699219 C 19.101562 18.566406 19.164062 18.5 19.230469 18.367188 C 19.339844 18.273438 19.476562 18.226562 19.617188 18.234375 C 19.871094 18.230469 20.121094 18.296875 20.335938 18.433594 L 20.335938 17.902344 C 20.128906 17.820312 19.90625 17.777344 19.683594 17.773438 C 19.398438 17.746094 19.117188 17.84375 18.902344 18.035156 C 18.707031 18.199219 18.589844 18.441406 18.578125 18.695312 C 18.570312 18.890625 18.640625 19.082031 18.769531 19.226562 C 18.90625 19.386719 19.089844 19.503906 19.292969 19.554688 L 19.8125 19.820312 C 19.894531 19.910156 19.941406 20.027344 19.945312 20.148438 C 19.945312 20.414062 19.75 20.613281 19.359375 20.613281 C 19.074219 20.617188 18.800781 20.523438 18.574219 20.347656 L 18.574219 20.878906 C 18.8125 21.019531 19.082031 21.089844 19.359375 21.074219 C 19.664062 21.109375 19.972656 21.015625 20.203125 20.8125 Z M 23.597656 20.613281 C 23.878906 20.289062 24.019531 19.859375 23.984375 19.425781 C 24.007812 18.992188 23.867188 18.570312 23.597656 18.234375 C 23.320312 17.960938 22.941406 17.820312 22.554688 17.84375 C 22.117188 17.808594 21.691406 17.976562 21.386719 18.296875 C 21.085938 18.613281 20.941406 19.054688 20.988281 19.492188 C 20.96875 19.90625 21.105469 20.308594 21.378906 20.617188 C 21.671875 20.914062 22.070312 21.078125 22.484375 21.078125 C 22.90625 21.097656 23.308594 20.925781 23.59375 20.613281 Z M 21.507812 19.488281 C 21.472656 19.160156 21.566406 18.828125 21.769531 18.566406 C 21.957031 18.363281 22.214844 18.246094 22.484375 18.234375 C 22.761719 18.230469 23.023438 18.351562 23.203125 18.566406 C 23.402344 18.828125 23.496094 19.160156 23.464844 19.488281 C 23.5 19.800781 23.402344 20.113281 23.203125 20.347656 C 23.023438 20.5625 22.761719 20.679688 22.484375 20.679688 C 22.207031 20.695312 21.9375 20.574219 21.769531 20.347656 C 21.578125 20.105469 21.484375 19.800781 21.507812 19.488281 Z M 24.765625 21.007812 L 25.222656 21.007812 L 25.222656 18.367188 L 25.9375 18.367188 L 25.9375 17.972656 L 25.222656 17.972656 L 25.222656 17.511719 C 25.222656 17.046875 25.417969 16.847656 25.746094 16.847656 C 25.859375 16.839844 25.96875 16.863281 26.070312 16.914062 L 26.070312 16.453125 C 25.972656 16.390625 25.859375 16.367188 25.746094 16.386719 C 25.5 16.375 25.261719 16.46875 25.09375 16.652344 C 24.882812 16.859375 24.765625 17.144531 24.765625 17.445312 L 24.765625 17.972656 L 24.246094 17.972656 L 24.246094 18.367188 L 24.765625 18.367188 Z M 26.785156 20.152344 C 26.785156 20.746094 27.046875 21.074219 27.566406 21.074219 C 27.730469 21.105469 27.898438 21.054688 28.023438 20.945312 L 28.023438 20.550781 C 27.84375 20.726562 27.554688 20.726562 27.371094 20.550781 C 27.28125 20.414062 27.234375 20.25 27.242188 20.085938 L 27.242188 18.367188 L 28.023438 18.367188 L 28.023438 17.972656 L 27.242188 17.972656 L 27.242188 17.046875 C 27.097656 17.109375 26.945312 17.15625 26.789062 17.175781 L 26.789062 17.902344 L 26.265625 17.902344 L 26.265625 18.296875 L 26.789062 18.296875 Z M 0.847656 32.109375 C 0.617188 32.082031 0.394531 32.183594 0.261719 32.371094 C 0.0820312 32.542969 -0.0117188 32.785156 0 33.035156 C -0.0234375 33.265625 0.0742188 33.492188 0.261719 33.628906 C 0.410156 33.792969 0.625 33.890625 0.847656 33.890625 C 1.09375 33.902344 1.332031 33.808594 1.5 33.628906 C 1.664062 33.476562 1.757812 33.261719 1.757812 33.035156 C 1.773438 32.789062 1.675781 32.546875 1.5 32.375 C 1.3125 32.21875 1.085938 32.125 0.847656 32.109375 Z M 11.339844 30.390625 C 11.320312 30.941406 11.339844 31.496094 11.40625 32.042969 C 11.339844 31.910156 11.144531 31.648438 10.949219 31.316406 L 5.34375 22.398438 L 3.648438 22.398438 L 3.648438 33.695312 L 4.953125 33.695312 L 4.953125 25.566406 C 4.976562 25.039062 4.957031 24.507812 4.886719 23.980469 L 4.953125 23.980469 C 5.082031 24.246094 5.148438 24.445312 5.277344 24.710938 L 11.015625 33.695312 L 12.578125 33.695312 L 12.578125 22.398438 L 11.277344 22.398438 L 11.277344 30.390625 Z M 16.425781 28.605469 L 20.464844 28.605469 L 20.464844 27.417969 L 16.425781 27.417969 L 16.425781 23.652344 L 20.792969 23.652344 L 20.792969 22.464844 L 15.121094 22.464844 L 15.121094 33.761719 L 21.050781 33.761719 L 21.050781 32.570312 L 16.421875 32.570312 L 16.421875 28.605469 Z M 22.226562 23.652344 L 25.417969 23.652344 L 25.417969 33.761719 L 26.722656 33.761719 L 26.722656 23.652344 L 29.980469 23.652344 L 29.980469 22.464844 L 22.226562 22.464844 Z M 28.675781 13.808594 L 28.808594 13.808594 L 28.808594 12.816406 L 29.132812 12.816406 L 29.132812 12.683594 L 28.351562 12.683594 L 28.351562 12.816406 L 28.675781 12.816406 Z M 30.242188 12.683594 L 29.917969 13.476562 L 29.851562 13.609375 L 29.457031 12.683594 L 29.265625 12.683594 L 29.265625 13.808594 L 29.394531 13.808594 L 29.394531 12.882812 C 29.394531 12.949219 29.394531 12.949219 29.460938 13.015625 L 29.847656 13.871094 L 29.914062 13.871094 L 30.300781 13.015625 L 30.367188 12.882812 L 30.367188 13.808594 L 30.496094 13.808594 L 30.496094 12.683594 Z M 30.242188 12.683594 "/>
</g>
</svg>
